<svg width="24" height="24" viewBox="0 0 24 24" fill="none" xmlns="http://www.w3.org/2000/svg">
<path fill-rule="evenodd" clip-rule="evenodd" d="M3.99994 1.5C3.7238 1.5 3.49994 1.72386 3.49994 2V22C3.49994 22.2761 3.7238 22.5 3.99994 22.5H17.9999H19.9999C20.2761 22.5 20.4999 22.2761 20.4999 22V4C20.4999 3.72386 20.2761 3.5 19.9999 3.5H18.4999V2C18.4999 1.72386 18.2761 1.5 17.9999 1.5H3.99994ZM18.4999 4.5V20.7143V21.5H19.4999V4.5H18.4999ZM17.4999 4V2.5H4.49994V21.5H17.4999V20.7143V4ZM6.99994 4C6.44765 4 5.99994 4.44772 5.99994 5V7C5.99994 7.55228 6.44765 8 6.99994 8H14.9999C15.5522 8 15.9999 7.55228 15.9999 7V5C15.9999 4.44772 15.5522 4 14.9999 4H6.99994ZM6.99994 5H7.99994H13.9999H14.9999V6V7H13.9999H7.99994H6.99994V6V5ZM5.99994 12C5.99994 11.4477 6.44765 11 6.99994 11H8.99994C9.55222 11 9.99994 11.4477 9.99994 12V15C9.99994 15.5523 9.55222 16 8.99994 16H6.99994C6.44765 16 5.99994 15.5523 5.99994 15V12ZM7.99994 12H6.99994V13V14V15H7.99994H8.99994V14V13V12H7.99994Z" fill="black"/>
<rect x="6" y="9" width="2" height="1" rx="0.5" fill="#050504"/>
<rect x="16" y="18" width="2" height="1" rx="0.5" transform="rotate(-180 16 18)" fill="#050504"/>
<rect x="6" y="19" width="2" height="1" rx="0.5" fill="#050504"/>
<rect x="9" y="9" width="7" height="1" rx="0.5" fill="#050504"/>
<rect x="13" y="18" width="7" height="1" rx="0.5" transform="rotate(-180 13 18)" fill="#050504"/>
<rect x="9" y="19" width="7" height="1" rx="0.5" fill="#050504"/>
<rect x="11" y="11" width="5" height="1" rx="0.5" fill="#050504"/>
<rect x="11" y="15" width="5" height="1" rx="0.5" fill="#050504"/>
<rect x="11" y="13" width="2" height="1" rx="0.5" fill="#050504"/>
<rect x="14" y="13" width="2" height="1" rx="0.5" fill="#050504"/>
</svg>
