<svg width="24" height="24" viewBox="0 0 24 24" fill="none" xmlns="http://www.w3.org/2000/svg">
<path fill-rule="evenodd" clip-rule="evenodd" d="M2.99999 2.5C3.22652 2.5 3.42474 2.65229 3.48311 2.87117L3.9192 4.50649C3.94548 4.50222 3.97245 4.5 3.99994 4.5H22.9999C23.158 4.5 23.3067 4.57473 23.4011 4.70153C23.4954 4.82834 23.5243 4.99229 23.4788 5.14367L20.4788 15.1437C20.4154 15.3552 20.2207 15.5 19.9999 15.5H6.8508L7.38413 17.5H9.49993H17.4999H20C20.2761 17.5 20.5 17.7239 20.5 18C20.5 18.2761 20.2761 18.5 20 18.5H19.2324C19.4025 18.7942 19.4999 19.1357 19.4999 19.5C19.4999 20.6046 18.6045 21.5 17.4999 21.5C16.3954 21.5 15.4999 20.6046 15.4999 19.5C15.4999 19.1357 15.5973 18.7942 15.7675 18.5H11.2324C11.4025 18.7942 11.4999 19.1357 11.4999 19.5C11.4999 20.6046 10.6045 21.5 9.49993 21.5C8.39536 21.5 7.49994 20.6046 7.49994 19.5C7.49994 19.1357 7.59733 18.7942 7.7675 18.5H6.99999C6.77347 18.5 6.57524 18.3477 6.51687 18.1288L2.61585 3.5H0.999992C0.72385 3.5 0.499992 3.27614 0.499992 3C0.499992 2.72386 0.72385 2.5 0.999992 2.5H2.99999ZM9.49993 18.5C10.0522 18.5 10.4999 18.9477 10.4999 19.5C10.4999 20.0523 10.0522 20.5 9.49993 20.5C8.94765 20.5 8.49994 20.0523 8.49994 19.5C8.49994 18.9477 8.94765 18.5 9.49993 18.5ZM18.4999 19.5C18.4999 18.9477 18.0522 18.5 17.4999 18.5C16.9477 18.5 16.4999 18.9477 16.4999 19.5C16.4999 20.0523 16.9477 20.5 17.4999 20.5C18.0522 20.5 18.4999 20.0523 18.4999 19.5ZM6.5855 14.5051L4.18413 5.5H22.3279L19.6279 14.5H6.6575C6.63305 14.5 6.60901 14.5018 6.5855 14.5051Z" fill="#050504"/>
</svg>
