<svg width="24" height="24" viewBox="0 0 24 24" fill="none" xmlns="http://www.w3.org/2000/svg">
<path fill-rule="evenodd" clip-rule="evenodd" d="M17.8364 2.7565C17.4023 2.73264 16.9686 2.77448 16.5335 2.88201C14.5016 3.50738 13.361 5.62618 13.9783 7.65442C14.5989 9.69384 16.7221 10.8402 18.7543 10.2217C20.4997 9.69045 21.591 8.05876 21.4817 6.32542L20.8535 6.95355L20.0535 7.75355C19.9266 7.88043 19.7415 7.92959 19.5684 7.88238L18.4684 7.58238L17.3684 7.28238C17.2249 7.24325 17.1063 7.14229 17.0448 7.0069L16.5448 5.9069C16.5337 5.88256 16.5246 5.85736 16.5176 5.83156L16.2176 4.73156C16.1704 4.55845 16.2195 4.37332 16.3464 4.24645L17.1464 3.44645L17.8364 2.7565ZM19.2975 2.45001C19.3222 2.2068 19.1653 1.97596 18.9212 1.91493C18.0416 1.69502 17.1583 1.69502 16.2786 1.91493C16.2705 1.91697 16.2624 1.91921 16.2543 1.92166C13.6938 2.70097 12.2401 5.37782 13.0216 7.94558C13.0921 8.17742 13.1783 8.40018 13.2784 8.61303L10.7776 11.0653L6.16427 6.15754C6.13868 6.13031 6.11075 6.10659 6.08109 6.08639L7.14678 5.06016C7.25773 4.95332 7.31325 4.80131 7.29726 4.64811C7.28128 4.49491 7.19558 4.35764 7.06496 4.276L3.86496 2.276C3.66752 2.1526 3.41104 2.18181 3.24641 2.34645L1.84641 3.74645C1.68478 3.90807 1.65334 4.15873 1.77003 4.35527L3.67003 7.55527C3.748 7.68658 3.88171 7.77507 4.03305 7.7955C4.18439 7.81594 4.33678 7.76609 4.44678 7.66016L5.37605 6.76531C5.39305 6.79241 5.41291 6.81827 5.43565 6.84246L10.0634 11.7656L3.04984 18.643L3.04983 18.643L3.04636 18.6464C2.3511 19.3417 2.3511 20.4583 3.04636 21.1536C3.74101 21.8482 4.85624 21.8488 5.55163 21.1554L5.55347 21.1536L15.85 11.057L15.8595 11.0474C16.8379 11.4385 17.9516 11.5113 19.0455 11.1783C21.6022 10.4002 23.0553 7.73029 22.2818 5.16609C22.2678 5.11553 22.2457 5.06674 22.2155 5.02176C22.1892 4.9825 22.1578 4.94764 22.1224 4.91785C22.0609 4.8658 21.9897 4.831 21.9154 4.81343C21.8487 4.79753 21.778 4.79521 21.7073 4.8086C21.6549 4.81844 21.6037 4.83673 21.5559 4.86345C21.5118 4.88804 21.4724 4.91881 21.4386 4.95429L20.1464 6.24645L19.5516 6.84127L18.7315 6.61762L17.858 6.37939L17.4718 5.52968L17.2587 4.74838L17.8535 4.15355L19.1535 2.85355C19.2639 2.74319 19.3119 2.59408 19.2975 2.45001ZM13.8114 9.49097C14.1292 9.90755 14.5094 10.2655 14.934 10.5547L4.84984 20.443L4.84983 20.443L4.84636 20.4464C4.54162 20.7512 4.0582 20.7512 3.75347 20.4464C3.44923 20.1422 3.44873 19.6599 3.75197 19.3551L3.75347 19.3536L13.8114 9.49097ZM15.5535 13.7464C15.3582 13.5512 15.0416 13.5512 14.8464 13.7464C14.6511 13.9417 14.6511 14.2583 14.8464 14.4536L19.7464 19.3536C20.0511 19.6583 20.0511 20.1417 19.7464 20.4464C19.4416 20.7512 18.9582 20.7512 18.6535 20.4464L13.7535 15.5464C13.5582 15.3512 13.2416 15.3512 13.0464 15.5464C12.8511 15.7417 12.8511 16.0583 13.0464 16.2536L17.9464 21.1536C18.6416 21.8488 19.7582 21.8488 20.4535 21.1536C21.1487 20.4583 21.1487 19.3417 20.4535 18.6464L15.5535 13.7464ZM2.82825 4.17882L3.67226 3.33481L5.99153 4.78435L4.20771 6.50211L2.82825 4.17882Z" fill="#050504"/>
</svg>
