<svg viewBox="0 0 72 72" fill="none" xmlns="http://www.w3.org/2000/svg">
    <path fill-rule="evenodd" clip-rule="evenodd"
          d="M6.5 35.919C6.5 19.667 19.666 6.5 35.918 6.5c15.855 0 28.774 12.532 29.395 28.235l2.228-2.228a.5.5 0 01.707.707l-3.058 3.058a.5.5 0 01-.707 0l-2.785-2.785a.5.5 0 11.707-.707l1.905 1.905C63.665 19.558 51.204 7.5 35.918 7.5 20.218 7.5 7.5 20.22 7.5 35.92s12.719 28.418 28.418 28.418c10.2 0 19.624-5.47 24.68-14.332a.5.5 0 01.869.495 29.416 29.416 0 01-25.549 14.837C19.666 65.337 6.5 52.17 6.5 35.919zM20.5 26a.5.5 0 01.5-.5h32a.5.5 0 01.5.5v20a.5.5 0 01-.5.5H21a.5.5 0 01-.5-.5V26zm1 9v10.5h31V35h-31zm0-4h31v-4.5h-31V31zM24 41.5a.5.5 0 01.5-.5h4a.5.5 0 110 1h-4a.5.5 0 01-.5-.5zm.5-3.5a.5.5 0 100 1h7a.5.5 0 000-1h-7z"
          fill="#050504"/>
</svg>