<?xml version="1.0" encoding="utf-8"?>
<!-- Generator: Adobe Illustrator 23.1.1, SVG Export Plug-In . SVG Version: 6.00 Build 0)  -->
<svg version="1.1" id="Layer_1" xmlns="http://www.w3.org/2000/svg" xmlns:xlink="http://www.w3.org/1999/xlink" x="0px" y="0px"
	 viewBox="0 0 165.9 36.7" style="enable-background:new 0 0 165.9 36.7;" xml:space="preserve">
<linearGradient id="SVGID_1_" gradientUnits="userSpaceOnUse" x1="-9.4282" y1="-15.1892" x2="38.3422" y2="42.563">
	<stop  offset="0" style="stop-color:#FFF126"/>
	<stop  offset="1" style="stop-color:#FFD200"/>
</linearGradient>
<rect y="0" style="fill:url(#SVGID_1_);" width="36.7" height="36.7"/>
<path style="fill:#292929;" d="M21.3,18.4l-11.4,9l17.8-9L9.9,9.5L21.3,18.4z"/>
<g>
	<path style="fill:#FFFFFF;" d="M54.4,32.9l-0.7-2.2h-4.3l-0.8,2.2h-1.4l3.4-9.8h1.8l3.4,9.8H54.4z M51.5,24.5l-1.7,5h3.4L51.5,24.5
		z"/>
	<path style="fill:#FFFFFF;" d="M60.1,24.2c-0.1,0-0.2,0-0.2,0c-0.2,0.1-0.7,0.5-0.7,0.7c0,0.1,0,0.1,0,0.1v0.8h2V27h-2v5.9h-1.3V27
		h-1.2v-1.2h1.2v-0.8c0-0.3,0.1-0.7,0.3-1c0.1-0.2,0.5-0.6,0.8-0.8c0.3-0.2,0.7-0.3,1.1-0.3h1.3v1.2H60.1z"/>
	<path style="fill:#FFFFFF;" d="M66.4,24.2c-0.1,0-0.2,0-0.2,0c-0.2,0.1-0.7,0.5-0.7,0.7c0,0.1,0,0.1,0,0.1v0.8h2V27h-2v5.9h-1.3V27
		H63v-1.2h1.2v-0.8c0-0.3,0.1-0.7,0.3-1c0.1-0.2,0.5-0.6,0.8-0.8c0.3-0.2,0.7-0.3,1.1-0.3h1.3v1.2H66.4z"/>
	<path style="fill:#FFFFFF;" d="M74.1,32.9L74,32.4c-0.3,0.3-0.8,0.6-1.3,0.6h-1.4c-0.4,0-0.8-0.1-1.1-0.3c-0.2-0.2-0.6-0.6-0.8-0.8
		c-0.2-0.3-0.3-0.6-0.3-0.9v-0.3c0-0.3,0.1-0.7,0.3-0.9c0.1-0.2,0.5-0.6,0.8-0.8c0.3-0.2,0.7-0.3,1.1-0.3H74v-0.8c0,0,0-0.1,0-0.2
		c-0.1-0.2-0.4-0.5-0.7-0.6c-0.1,0-0.1-0.1-0.2-0.1h-1.5c-0.3,0-0.6,0.3-0.8,0.6c-0.1,0.1-0.2,0.3-0.2,0.3l-1.2-0.4
		c0.2-0.5,0.7-1.1,1.1-1.4c0.3-0.2,0.7-0.3,1.1-0.3h1.5c0.4,0,0.8,0.1,1.1,0.3c0.2,0.2,0.7,0.6,0.8,0.8c0.2,0.3,0.3,0.6,0.3,1v3.8
		l0.1,1.3H74.1z M74,29.8h-2.6c-0.1,0-0.1,0-0.2,0c-0.2,0.1-0.6,0.4-0.7,0.7c0,0,0,0.1,0,0.2v0.3c0,0.1,0,0.1,0,0.2
		c0.1,0.2,0.4,0.5,0.7,0.6c0,0,0.1,0,0.2,0h1.4c0.1,0,0.1,0,0.1,0c0.3-0.1,0.9-0.5,1.1-0.8V29.8z"/>
	<path style="fill:#FFFFFF;" d="M77.3,24.4v-1.5h1.5v1.5H77.3z M77.4,32.9v-7.1h1.3v7.1H77.4z"/>
	<path style="fill:#FFFFFF;" d="M85.3,27.8c-0.2-0.3-0.6-0.9-1-0.9h-0.9c-0.3,0-1.1,0.6-1.3,0.9v5.1h-1.3v-5.8l-0.1-1.3h1.3l0.1,0.6
		c0.3-0.3,0.8-0.7,1.3-0.7h0.9c0.4,0,0.8,0.1,1.1,0.3c0.4,0.3,0.9,0.9,1.1,1.4L85.3,27.8z"/>
	<path style="fill:#FFFFFF;" d="M93.2,32.7c-0.3,0.2-0.7,0.3-1.1,0.3h-1.6c-0.4,0-0.8-0.1-1.1-0.3c-0.2-0.2-0.7-0.6-0.8-0.8
		c-0.2-0.3-0.3-0.6-0.3-0.9v-3.1c0-0.3,0.1-0.7,0.3-0.9c0.1-0.2,0.5-0.6,0.8-0.8c0.3-0.2,0.7-0.3,1.1-0.3h1.6c0.4,0,0.8,0.1,1.1,0.3
		c0.2,0.2,0.7,0.6,0.8,0.8c0.2,0.3,0.3,0.6,0.3,0.9v2.1h-4.7v1c0,0.1,0,0.1,0,0.2c0.1,0.2,0.4,0.5,0.7,0.7c0.1,0,0.1,0,0.2,0h1.7
		c0.1,0,0.1,0,0.2,0c0.2-0.1,0.6-0.4,0.7-0.7l0.1-0.2l1.2,0.4C94.1,31.8,93.6,32.4,93.2,32.7z M93,27.9c0,0,0-0.1,0-0.2
		c-0.1-0.2-0.5-0.5-0.7-0.7c-0.1,0-0.1-0.1-0.2-0.1h-1.6c0,0-0.1,0-0.2,0.1c-0.3,0.2-0.6,0.4-0.7,0.7c0,0,0,0.1,0,0.2v0.9H93V27.9z"
		/>
	<path style="fill:#FFFFFF;" d="M101.3,27.9c-0.2-0.4-0.6-0.9-1-0.9h-1.8c-0.1,0-0.2,0-0.2,0c-0.3,0.1-0.4,0.3-0.6,0.6
		c0,0,0,0.1,0,0.2v0.5c0,0.2,0.2,0.4,0.4,0.4l2.7,0.2c0.9,0.1,1.6,0.7,1.6,1.6V31c0,0.3-0.1,0.7-0.3,0.9c-0.1,0.2-0.5,0.6-0.7,0.7
		c-0.3,0.2-0.7,0.3-1.1,0.3h-2c-0.4,0-0.8-0.1-1.1-0.3c-0.4-0.3-0.9-0.9-1.1-1.4l1.2-0.4c0.2,0.3,0.5,0.8,0.8,0.9c0,0,0.1,0,0.2,0h2
		c0.3,0,0.7-0.4,0.8-0.6c0,0,0-0.1,0-0.2v-0.5c0-0.2-0.2-0.4-0.4-0.4L98,29.8c-0.9-0.1-1.6-0.7-1.6-1.6v-0.5c0-0.3,0.1-0.7,0.3-0.9
		c0.1-0.2,0.5-0.6,0.7-0.7c0.3-0.2,0.7-0.3,1.1-0.3h1.7c0.4,0,0.8,0.1,1.1,0.3c0.4,0.3,0.9,0.8,1.1,1.4L101.3,27.9z"/>
</g>
<g>
	<g>
		<path style="fill:#FFD200;" d="M55.2,18.9h-3.1L47.2,4H50l3.7,11.5L57.3,4h2.8L55.2,18.9z"/>
		<path style="fill:#FFD200;" d="M63.3,18.9V4h2.6v14.9H63.3z"/>
		<path style="fill:#FFD200;" d="M80.2,16.7c-0.3,0.4-1.3,1.4-1.8,1.7c-0.4,0.2-1,0.4-1.5,0.4h-6.8V4h6.8c0.5,0,1.1,0.1,1.5,0.4
			c0.5,0.3,1.5,1.4,1.8,1.8c0.3,0.4,0.4,0.9,0.4,1.4v7.6C80.6,15.7,80.5,16.2,80.2,16.7z M76.7,16.4c0,0,0.1,0,0.2,0
			c0.3-0.2,1.1-0.8,1.1-1.1V7.7c0,0,0-0.1,0-0.1c-0.3-0.5-0.8-0.9-1.1-1.1c0,0-0.2,0-0.2,0h-4v9.9H76.7z"/>
		<path style="fill:#FFD200;" d="M84.8,18.9V4h9.4v2.5h-6.8v3.8h6.3v2.5h-6.3v3.7h6.8v2.5H84.8z"/>
		<path style="fill:#FFD200;" d="M108.9,16.8c-0.3,0.4-1.3,1.5-1.8,1.8c-0.4,0.2-1,0.4-1.5,0.4h-3.8c-0.5,0-1.1-0.2-1.5-0.4
			c-0.5-0.3-1.5-1.4-1.8-1.8c-0.3-0.4-0.4-0.9-0.4-1.4V7.5c0-0.5,0.1-1,0.4-1.4c0.3-0.4,1.3-1.5,1.8-1.8c0.4-0.2,1-0.4,1.5-0.4h3.8
			c0.5,0,1.1,0.2,1.5,0.4c0.5,0.3,1.5,1.4,1.8,1.8c0.3,0.4,0.4,0.9,0.4,1.4v7.8C109.3,15.8,109.2,16.3,108.9,16.8z M100.6,15.3
			C100.6,15.3,100.6,15.4,100.6,15.3c0.3,0.5,0.8,1,1.1,1.2c0,0,0.1,0,0.1,0h3.6c0,0,0.1,0,0.1,0c0.3-0.2,0.8-0.6,1.1-1.1
			c0-0.1,0-0.1,0-0.1V7.6c0,0,0-0.1,0-0.1c-0.3-0.4-0.8-0.9-1.1-1.1c-0.1,0-0.1,0-0.1,0h-3.6c0,0-0.1,0-0.1,0
			c-0.3,0.1-0.8,0.6-1.1,1.1c0,0,0,0.1,0,0.1V15.3z"/>
		<path style="fill:#FFD200;" d="M118.4,6.5v12.4h-2.6V6.5h-4V4h10.7v2.5H118.4z"/>
		<path style="fill:#FFD200;" d="M135.9,11.1c-0.2,0.3-1,1.1-1.3,1.3c-0.2,0.1-0.4,0.3-0.6,0.3l3,6.1H134l-2.8-5.9h-2.9v5.9h-2.6V4
			h7c0.6,0,1.3,0.2,1.8,0.5c0.3,0.2,1.1,1,1.3,1.4c0.3,0.4,0.4,1,0.4,1.5v2.2C136.3,10.1,136.2,10.7,135.9,11.1z M133.7,7.4
			c0,0,0-0.1,0-0.2c-0.1-0.3-0.5-0.8-0.8-0.8h-4.5v4h4.4c0.2,0,0.7-0.5,0.9-0.8c0,0,0,0,0-0.1V7.4z"/>
		<path style="fill:#FFD200;" d="M151.1,16.8c-0.3,0.4-1.3,1.5-1.8,1.8c-0.4,0.2-1,0.4-1.5,0.4h-3.8c-0.5,0-1.1-0.2-1.5-0.4
			c-0.5-0.3-1.5-1.4-1.8-1.8c-0.3-0.4-0.4-0.9-0.4-1.4V7.5c0-0.5,0.1-1,0.4-1.4c0.3-0.4,1.3-1.5,1.8-1.8c0.4-0.2,1-0.4,1.5-0.4h3.8
			c0.5,0,1.1,0.2,1.5,0.4c0.5,0.3,1.5,1.4,1.8,1.8c0.3,0.4,0.4,0.9,0.4,1.4v7.8C151.5,15.8,151.4,16.3,151.1,16.8z M142.8,15.3
			C142.8,15.3,142.8,15.4,142.8,15.3c0.3,0.5,0.8,1,1.1,1.2c0,0,0.1,0,0.1,0h3.6c0,0,0.1,0,0.1,0c0.3-0.2,0.8-0.6,1.1-1.1
			c0-0.1,0-0.1,0-0.1V7.6c0,0,0-0.1,0-0.1c-0.3-0.4-0.8-0.9-1.1-1.1c0,0-0.1,0-0.1,0H144c0,0-0.1,0-0.1,0c-0.3,0.1-0.8,0.6-1.1,1.1
			c0,0,0,0.1,0,0.1V15.3z"/>
		<path style="fill:#FFD200;" d="M163.2,18.9L158,9v9.9h-2.6V4h2.8l5.1,10V4h2.6v14.9H163.2z"/>
	</g>
	<g>
		<polygon style="fill:#FFD200;" points="93,0 90.1,0 88.3,2.4 90.6,2.4 		"/>
	</g>
</g>
</svg>
