<?xml version="1.0" encoding="utf-8"?>
<!-- Generator: Adobe Illustrator 23.1.1, SVG Export Plug-In . SVG Version: 6.00 Build 0)  -->
<svg version="1.1" id="Layer_1" xmlns="http://www.w3.org/2000/svg" xmlns:xlink="http://www.w3.org/1999/xlink" x="0px" y="0px"
	 viewBox="0 0 165.9 36.7" style="enable-background:new 0 0 165.9 36.7;" xml:space="preserve">
<linearGradient id="SVGID_1_" gradientUnits="userSpaceOnUse" x1="-9.4282" y1="-15.2341" x2="38.3422" y2="42.5181">
	<stop  offset="0" style="stop-color:#FFF126"/>
	<stop  offset="1" style="stop-color:#FFD200"/>
</linearGradient>
<rect style="fill:url(#SVGID_1_);" width="36.7" height="36.7"/>
<g>
	<path style="fill:#FFFFFF;" d="M55.6,31.7c-0.1,0.2-0.6,0.7-0.9,0.9c-0.3,0.2-0.7,0.3-1.1,0.3H49V23h4.6c0.4,0,0.8,0.1,1.1,0.4
		c0.2,0.2,0.7,0.7,0.9,0.9c0.2,0.3,0.3,0.6,0.3,0.9v1.2c0,0.7-0.3,1-0.8,1.5c0.5,0.5,0.8,0.8,0.8,1.5v1.4
		C55.9,31.1,55.8,31.4,55.6,31.7z M54.5,25.2c0-0.1,0-0.1,0-0.2c-0.1-0.2-0.6-0.7-0.9-0.7h-3.3v3h3.3c0.3,0,0.7-0.5,0.9-0.7
		c0,0,0-0.1,0-0.2V25.2z M54.5,29.4c0-0.1,0-0.1,0-0.2c-0.1-0.2-0.5-0.6-0.7-0.7c0,0-0.1,0-0.2,0h-3.3v3.1h3.3
		c0.3,0,0.8-0.5,0.9-0.7c0,0,0-0.1,0-0.2V29.4z"/>
	<path style="fill:#FFFFFF;" d="M62.9,32.9l-0.1-0.6c-0.3,0.3-0.8,0.6-1.3,0.6h-1.2c-0.4,0-0.8-0.1-1.1-0.3
		c-0.2-0.2-0.7-0.6-0.8-0.8c-0.2-0.3-0.3-0.6-0.3-0.9v-5.1h1.3v5c0,0,0,0.1,0,0.2c0.1,0.2,0.5,0.6,0.7,0.7c0.1,0,0.1,0,0.2,0h1.2
		c0.3,0,1.1-0.6,1.3-0.8v-5.1h1.3v5.8l0.1,1.3H62.9z"/>
	<path style="fill:#FFFFFF;" d="M71.3,27.8c-0.2-0.4-0.6-0.9-1-0.9h-1.8c-0.1,0-0.2,0-0.2,0c-0.3,0.1-0.4,0.3-0.6,0.6
		c0,0,0,0.1,0,0.2v0.5c0,0.2,0.2,0.4,0.4,0.4l2.7,0.2c0.9,0.1,1.6,0.7,1.6,1.6V31c0,0.3-0.1,0.7-0.3,0.9c-0.1,0.2-0.5,0.6-0.7,0.7
		c-0.3,0.2-0.7,0.3-1.1,0.3h-2c-0.4,0-0.8-0.1-1.1-0.3c-0.4-0.3-0.9-0.9-1.1-1.4l1.2-0.4c0.2,0.3,0.5,0.8,0.8,0.9c0,0,0.1,0,0.2,0h2
		c0.3,0,0.7-0.4,0.8-0.6c0,0,0-0.1,0-0.2v-0.5c0-0.2-0.2-0.4-0.4-0.4L68,29.8c-0.9-0.1-1.6-0.7-1.6-1.6v-0.5c0-0.3,0.1-0.7,0.3-0.9
		c0.1-0.2,0.5-0.6,0.7-0.7c0.3-0.2,0.7-0.3,1.1-0.3h1.7c0.4,0,0.8,0.1,1.1,0.3c0.4,0.3,0.9,0.8,1.1,1.4L71.3,27.8z"/>
	<path style="fill:#FFFFFF;" d="M74.8,24.3v-1.5h1.5v1.5H74.8z M74.8,32.9v-7.1h1.3v7.1H74.8z"/>
	<path style="fill:#FFFFFF;" d="M83,32.9v-5.1c0,0,0-0.1,0-0.2c-0.1-0.2-0.5-0.6-0.7-0.7c0,0-0.1,0-0.2,0H81c-0.3,0-1.1,0.6-1.3,0.9
		v5.1h-1.3v-5.8l-0.1-1.3h1.3l0.1,0.6c0.3-0.3,0.8-0.7,1.3-0.7h1.2c0.4,0,0.8,0.1,1.1,0.3c0.2,0.2,0.7,0.6,0.8,0.8
		c0.2,0.3,0.3,0.6,0.3,0.9v5.1H83z"/>
	<path style="fill:#FFFFFF;" d="M91.6,32.6c-0.3,0.2-0.7,0.3-1.1,0.3h-1.6c-0.4,0-0.8-0.1-1.1-0.3c-0.2-0.2-0.7-0.6-0.8-0.8
		c-0.2-0.3-0.3-0.6-0.3-0.9v-3.1c0-0.3,0.1-0.7,0.3-0.9c0.1-0.2,0.5-0.6,0.8-0.8c0.3-0.2,0.7-0.3,1.1-0.3h1.6c0.4,0,0.8,0.1,1.1,0.3
		c0.2,0.2,0.7,0.6,0.8,0.8c0.2,0.3,0.3,0.6,0.3,0.9v2.1h-4.7v1c0,0.1,0,0.1,0,0.2c0.1,0.2,0.4,0.5,0.7,0.7c0.1,0,0.1,0,0.2,0h1.7
		c0.1,0,0.1,0,0.2,0c0.2-0.1,0.6-0.4,0.7-0.7l0.1-0.2l1.2,0.4C92.5,31.8,92,32.3,91.6,32.6z M91.4,27.8c0,0,0-0.1,0-0.2
		c-0.1-0.2-0.5-0.5-0.7-0.7c-0.1,0-0.1-0.1-0.2-0.1h-1.6c0,0-0.1,0-0.2,0.1c-0.3,0.2-0.6,0.4-0.7,0.7c0,0,0,0.1,0,0.2v0.9h3.5V27.8z
		"/>
	<path style="fill:#FFFFFF;" d="M99.8,27.8c-0.2-0.4-0.6-0.9-1-0.9h-1.8c-0.1,0-0.2,0-0.2,0c-0.3,0.1-0.4,0.3-0.6,0.6
		c0,0,0,0.1,0,0.2v0.5c0,0.2,0.2,0.4,0.4,0.4l2.7,0.2c0.9,0.1,1.6,0.7,1.6,1.6V31c0,0.3-0.1,0.7-0.3,0.9c-0.1,0.2-0.5,0.6-0.7,0.7
		c-0.3,0.2-0.7,0.3-1.1,0.3h-2c-0.4,0-0.8-0.1-1.1-0.3c-0.4-0.3-0.9-0.9-1.1-1.4l1.2-0.4c0.2,0.3,0.5,0.8,0.8,0.9c0,0,0.1,0,0.2,0h2
		c0.3,0,0.7-0.4,0.8-0.6c0,0,0-0.1,0-0.2v-0.5c0-0.2-0.2-0.4-0.4-0.4l-2.7-0.2c-0.9-0.1-1.6-0.7-1.6-1.6v-0.5c0-0.3,0.1-0.7,0.3-0.9
		c0.1-0.2,0.5-0.6,0.7-0.7c0.3-0.2,0.7-0.3,1.1-0.3h1.7c0.4,0,0.8,0.1,1.1,0.3c0.4,0.3,0.9,0.8,1.1,1.4L99.8,27.8z"/>
	<path style="fill:#FFFFFF;" d="M108,27.8c-0.2-0.4-0.6-0.9-1-0.9h-1.8c-0.1,0-0.2,0-0.2,0c-0.3,0.1-0.4,0.3-0.6,0.6
		c0,0,0,0.1,0,0.2v0.5c0,0.2,0.2,0.4,0.4,0.4l2.7,0.2c0.9,0.1,1.6,0.7,1.6,1.6V31c0,0.3-0.1,0.7-0.3,0.9c-0.1,0.2-0.5,0.6-0.7,0.7
		c-0.3,0.2-0.7,0.3-1.1,0.3h-2c-0.4,0-0.8-0.1-1.1-0.3c-0.4-0.3-0.9-0.9-1.1-1.4l1.2-0.4c0.2,0.3,0.5,0.8,0.8,0.9c0,0,0.1,0,0.2,0h2
		c0.3,0,0.7-0.4,0.8-0.6c0,0,0-0.1,0-0.2v-0.5c0-0.2-0.2-0.4-0.4-0.4l-2.7-0.2c-0.9-0.1-1.6-0.7-1.6-1.6v-0.5c0-0.3,0.1-0.7,0.3-0.9
		c0.1-0.2,0.5-0.6,0.7-0.7c0.3-0.2,0.7-0.3,1.1-0.3h1.7c0.4,0,0.8,0.1,1.1,0.3c0.4,0.3,0.9,0.8,1.1,1.4L108,27.8z"/>
</g>
<path style="fill:#292929;" d="M21.3,18.3l-11.4,9l17.8-9L9.9,9.5L21.3,18.3z"/>
<g>
	<g>
		<path style="fill:#FFD200;" d="M55.2,18.8h-3.1L47.2,3.9H50l3.7,11.5l3.7-11.5h2.8L55.2,18.8z"/>
		<path style="fill:#FFD200;" d="M63.3,18.8V3.9h2.6v14.9H63.3z"/>
		<path style="fill:#FFD200;" d="M80.2,16.6c-0.3,0.4-1.3,1.4-1.8,1.7c-0.4,0.2-1,0.4-1.5,0.4h-6.8V3.9h6.8c0.5,0,1.1,0.1,1.5,0.4
			c0.5,0.3,1.5,1.4,1.8,1.8c0.3,0.4,0.4,0.9,0.4,1.4v7.6C80.6,15.7,80.5,16.2,80.2,16.6z M76.7,16.3c0,0,0.1,0,0.2,0
			c0.3-0.2,1.1-0.8,1.1-1.1V7.7c0,0,0-0.1,0-0.1c-0.3-0.5-0.8-0.9-1.1-1.1c0,0-0.2,0-0.2,0h-4v9.9H76.7z"/>
		<path style="fill:#FFD200;" d="M84.8,18.8V3.9h9.4v2.5h-6.8v3.8h6.3v2.5h-6.3v3.7h6.8v2.5H84.8z"/>
		<path style="fill:#FFD200;" d="M108.9,16.7c-0.3,0.4-1.3,1.5-1.8,1.8c-0.4,0.2-1,0.4-1.5,0.4h-3.8c-0.5,0-1.1-0.2-1.5-0.4
			c-0.5-0.3-1.5-1.4-1.8-1.8c-0.3-0.4-0.4-0.9-0.4-1.4V7.5c0-0.5,0.1-1,0.4-1.4c0.3-0.4,1.3-1.5,1.8-1.8c0.4-0.2,1-0.4,1.5-0.4h3.8
			c0.5,0,1.1,0.2,1.5,0.4c0.5,0.3,1.5,1.4,1.8,1.8c0.3,0.4,0.4,0.9,0.4,1.4v7.8C109.3,15.8,109.2,16.3,108.9,16.7z M100.6,15.3
			C100.6,15.3,100.6,15.3,100.6,15.3c0.3,0.5,0.8,1,1.1,1.2c0,0,0.1,0,0.1,0h3.6c0,0,0.1,0,0.1,0c0.3-0.2,0.8-0.6,1.1-1.1
			c0-0.1,0-0.1,0-0.1V7.6c0,0,0-0.1,0-0.1c-0.3-0.4-0.8-0.9-1.1-1.1c-0.1,0-0.1,0-0.1,0h-3.6c0,0-0.1,0-0.1,0
			c-0.3,0.1-0.8,0.6-1.1,1.1c0,0,0,0.1,0,0.1V15.3z"/>
		<path style="fill:#FFD200;" d="M118.4,6.4v12.4h-2.6V6.4h-4V3.9h10.7v2.5H118.4z"/>
		<path style="fill:#FFD200;" d="M135.9,11.1c-0.2,0.3-1,1.1-1.3,1.3c-0.2,0.1-0.4,0.3-0.6,0.3l3,6.1H134l-2.8-5.9h-2.9v5.9h-2.6
			V3.9h7c0.6,0,1.3,0.2,1.8,0.5c0.3,0.2,1.1,1,1.3,1.4c0.3,0.4,0.4,1,0.4,1.5v2.2C136.3,10.1,136.2,10.6,135.9,11.1z M133.7,7.4
			c0,0,0-0.1,0-0.2c-0.1-0.3-0.5-0.8-0.8-0.8h-4.5v4h4.4c0.2,0,0.7-0.5,0.9-0.8c0,0,0,0,0-0.1V7.4z"/>
		<path style="fill:#FFD200;" d="M151.1,16.7c-0.3,0.4-1.3,1.5-1.8,1.8c-0.4,0.2-1,0.4-1.5,0.4h-3.8c-0.5,0-1.1-0.2-1.5-0.4
			c-0.5-0.3-1.5-1.4-1.8-1.8c-0.3-0.4-0.4-0.9-0.4-1.4V7.5c0-0.5,0.1-1,0.4-1.4c0.3-0.4,1.3-1.5,1.8-1.8c0.4-0.2,1-0.4,1.5-0.4h3.8
			c0.5,0,1.1,0.2,1.5,0.4c0.5,0.3,1.5,1.4,1.8,1.8c0.3,0.4,0.4,0.9,0.4,1.4v7.8C151.5,15.8,151.4,16.3,151.1,16.7z M142.8,15.3
			C142.8,15.3,142.8,15.3,142.8,15.3c0.3,0.5,0.8,1,1.1,1.2c0,0,0.1,0,0.1,0h3.6c0,0,0.1,0,0.1,0c0.3-0.2,0.8-0.6,1.1-1.1
			c0-0.1,0-0.1,0-0.1V7.6c0,0,0-0.1,0-0.1c-0.3-0.4-0.8-0.9-1.1-1.1c0,0-0.1,0-0.1,0H144c0,0-0.1,0-0.1,0c-0.3,0.1-0.8,0.6-1.1,1.1
			c0,0,0,0.1,0,0.1V15.3z"/>
		<path style="fill:#FFD200;" d="M163.2,18.8L158,8.9v9.9h-2.6V3.9h2.8l5.1,10v-10h2.6v14.9H163.2z"/>
	</g>
</g>
</svg>
