<svg xmlns="http://www.w3.org/2000/svg" width="20.257" height="20.257">
    <g data-name="Groupe 1814" transform="translate(-50 -345)">
        <circle data-name="Ellipse 93" cx="10.128" cy="10.128" r="10.128" transform="translate(50 345)" fill="#ffd200"/>
        <path data-name="Tracé 1206"
              d="M63.493 359.408h-.634v-1.49a3.865 3.865 0 0 0-2.133-3.044 3.866 3.866 0 0 0 2.133-3.044v-1.49h.633a.3.3 0 1 0 0-.6h-6.817a.3.3 0 1 0 0 .6h.633v1.489a3.865 3.865 0 0 0 2.133 3.044 3.865 3.865 0 0 0-2.133 3.044v1.49h-.633a.3.3 0 1 0 0 .6h6.818a.3.3 0 0 0 0-.6zm-5.581-7.578v-1.489h4.347v1.489c0 1.494-1.7 2.466-2.172 2.708-.478-.243-2.175-1.214-2.175-2.708zm2.172 3.38c.476.243 2.172 1.214 2.172 2.708v1.49h-4.343v-1.49c-.001-1.494 1.696-2.465 2.171-2.708z"/>
    </g>
</svg>