<svg xmlns="http://www.w3.org/2000/svg" width="54" height="54" viewBox="0 0 54 54">
    <g transform="translate(-997 -997)">
        <rect width="54" height="54" rx="11.424" transform="translate(997 997)" fill="#ffd200"/>
        <g>
            <g>
                <path d="M1016.52,1016.829l4.153,7.161-4.163,7.181h.307l7.179-7.181-7.162-7.161Z"/>
                <path d="M1027.332,1023.99l4.148-7.161h-.315L1024,1023.99l7.179,7.181h.307Z"/>
            </g>
            <g>
                <g>
                    <g>
                        <path
                              d="M1025.732,1037.753a.416.416,0,0,1-.416-.416v-2.262a.416.416,0,0,1,.832,0v2.262A.416.416,0,0,1,1025.732,1037.753Z"/>
                        <path
                              d="M1022.268,1037.753a.416.416,0,0,1-.416-.416v-2.262a.416.416,0,0,1,.832,0v2.262A.416.416,0,0,1,1022.268,1037.753Z"/>
                    </g>
                    <path
                          d="M1033.6,1037.753H1014.4a.416.416,0,0,1,0-.832H1033.6a.416.416,0,0,1,0,.832Z"/>
                </g>
                <path
                      d="M1041.322,1035.481h-34.644a.416.416,0,0,1-.417-.416V1012.8a.417.417,0,0,1,.417-.416h34.644a.417.417,0,0,1,.417.416v22.261A.416.416,0,0,1,1041.322,1035.481Zm-34.228-.832h33.812V1013.22h-33.812Z"/>
            </g>
        </g>
    </g>
</svg>
