<svg xmlns="http://www.w3.org/2000/svg" width="20.486" height="20.311" viewBox="0 0 20.486 20.311">
  <g transform="translate(-1080.145 696.743)">
    <g transform="translate(1080.644 -696.243)">
      <rect width="19.486" height="17.279" transform="translate(0 2.033)" stroke-width="1" stroke="#000" stroke-linecap="round" stroke-linejoin="round" fill="none"/>
      <path d="M1091.136-692.8c-.308,0-.564-.61-.616-1.412-.007-.1-.01-.2-.01-.31,0-.953.28-1.724.626-1.724s.626.77.626,1.724c0,.106,0,.209-.01.31" transform="translate(-1083.433 696.243)" fill="none" stroke="#000" stroke-linecap="round" stroke-linejoin="round" stroke-width="1"/>
      <path d="M1085.755-692.8c-.307,0-.564-.61-.616-1.412-.007-.1-.01-.2-.01-.31,0-.953.281-1.724.626-1.724s.627.77.627,1.724q0,.158-.011.31" transform="translate(-1081.912 696.243)" fill="none" stroke="#000" stroke-linecap="round" stroke-linejoin="round" stroke-width="1"/>
      <path d="M1101.663-692.8c-.308,0-.564-.61-.616-1.412-.007-.1-.01-.2-.01-.31,0-.953.28-1.724.626-1.724s.627.77.627,1.724q0,.158-.011.31" transform="translate(-1086.409 696.243)" fill="none" stroke="#000" stroke-linecap="round" stroke-linejoin="round" stroke-width="1"/>
      <path d="M1096.283-692.8c-.308,0-.564-.61-.616-1.412q-.011-.152-.011-.31c0-.953.281-1.724.627-1.724s.626.77.626,1.724c0,.106,0,.209-.01.31" transform="translate(-1084.888 696.243)" fill="none" stroke="#000" stroke-linecap="round" stroke-linejoin="round" stroke-width="1"/>
      <line x2="19.486" transform="translate(0 5.409)" fill="none" stroke="#000" stroke-linecap="round" stroke-linejoin="round" stroke-width="1"/>
    </g>
    <g transform="translate(1091.373 -687.234)">
      <g transform="translate(0 0)">
        <path d="M1099.5-679.164a1.949,1.949,0,0,1-1.949,1.949,1.949,1.949,0,0,1-1.948-1.949v-2.571a1.949,1.949,0,0,1,1.948-1.949,1.949,1.949,0,0,1,1.949,1.949Z" transform="translate(-1095.601 683.684)" fill="none" stroke="#000" stroke-linecap="round" stroke-miterlimit="10" stroke-width="1"/>
      </g>
    </g>
    <g transform="translate(1085.77 -687.234)">
      <g transform="translate(0.139 0)">
        <g >
          <line x2="3.867" transform="translate(0 0)" fill="none" stroke="#000" stroke-linecap="round" stroke-miterlimit="10" stroke-width="1"/>
          <line x1="2.312" y2="2.335" transform="translate(1.556)" fill="none" stroke="#000" stroke-linecap="round" stroke-miterlimit="10" stroke-width="1"/>
        </g>
      </g>
      <path d="M1089.485-680.445a2.18,2.18,0,0,1,.42-.041,2.151,2.151,0,0,1,2.15,2.15,2.152,2.152,0,0,1-2.15,2.153,2.148,2.148,0,0,1-2.115-1.765" transform="translate(-1087.79 682.78)" fill="none" stroke="#000" stroke-linecap="round" stroke-miterlimit="10" stroke-width="1"/>
    </g>
  </g>
</svg>
