<svg xmlns="http://www.w3.org/2000/svg" width="46.943" height="63">
    <g>
        <g>
            <g fill="none" stroke="#000" stroke-linecap="round" stroke-linejoin="round">
                <path d="M36.407.501H.501v62H46.22V11.429"/>
                <path d="M36.407.501v9.59a1.439 1.439 0 0 0 1.338 1.338h8.7"/>
                <path d="M46.22 11.429L36.407.501"/>
            </g>
        </g>
        <g>
            <path fill="none" stroke="#000" stroke-linecap="round" stroke-linejoin="round"
                  d="M23.472 22.134v18.734"/>
            <g>
                <path
                      d="M18.343 35.738a1.691 1.691 0 0 1 .446.892 5.153 5.153 0 0 0 1.561 1.561 2.355 2.355 0 0 0 1.115.446h3.791a1.7 1.7 0 0 0 1.115-.446 5.211 5.211 0 0 0 1.561-1.561 1.671 1.671 0 0 0 .223-1.115v-1.561a1.413 1.413 0 0 0-1.112-1.338c-1.115-.223-3.345-.892-3.345-.892l-.892-.446-2.9-.669a1.892 1.892 0 0 1-1.563-1.785v-1.338a1.671 1.671 0 0 1 .223-1.115 5.211 5.211 0 0 1 1.561-1.561 2.355 2.355 0 0 1 1.116-.446h3.568a1.7 1.7 0 0 1 1.115.446 10.3 10.3 0 0 1 1.561 1.561 1.691 1.691 0 0 1 .446.892"
                      fill="none" stroke="#000" stroke-linecap="round" stroke-linejoin="round"/>
            </g>
        </g>
    </g>
</svg>