<svg xmlns="http://www.w3.org/2000/svg" viewBox="0 0 21.9 86.5">
    <g fill="none" stroke="#12110f" stroke-width=".5" stroke-linecap="round" stroke-linejoin="round">
        <path d="M.3.3h21.4v86H.3z"/>
        <path d="M19.8 4H2.1c-.2 0-.5-.1-.6-.3L.3.9C.2.6.4.2.8.2H21c.4 0 .7.3.5.7l-1.2 2.8c0 .2-.2.3-.5.3z"/>
    </g>
    <path fill="none" stroke="#12110f" stroke-width=".5" stroke-linecap="round" stroke-linejoin="round"
          d="M8 10.8h5.7M5.146 54.282h1M10.454 54.282h1M15.762 54.282h1M5.146 61.957h1M10.454 61.957h1M15.762 61.957h1"/>
    <g>
        <path fill="none" stroke="#12110f" stroke-width=".5" stroke-linecap="round" stroke-linejoin="round"
              d="M5.146 69.632h1M10.454 69.632h1M15.762 69.632h1"/>
    </g>
    <g>
        <path fill="none" stroke="#12110f" stroke-width=".5" stroke-linecap="round" stroke-linejoin="round"
              d="M10.454 77.063h1"/>
    </g>
    <circle cx="11" cy="44.6" r="2.4" fill="none" stroke="#12110f" stroke-width=".5" stroke-linecap="round"
            stroke-linejoin="round"/>
</svg>