<svg xmlns="http://www.w3.org/2000/svg" viewBox="0 0 28.3 50.1">
    <style>.st0{fill:none;stroke:#000;stroke-linecap:round;stroke-linejoin:round;stroke-miterlimit:10}</style>
    <g transform="translate(.301 .301)">
        <path class="st0" d="M6.1 9.1h15.6"/>
        <path class="st0" d="M6.1.2h15.5v44.2H6.1z"/>
        <path class="st0" d="M6.1 19.8h15.6"/>
        <path class="st0" d="M11.9 5.1h3.8"/>
        <g transform="translate(9.109 26.928)">
            <g>
                <g>
                    <path class="st0" d="M0 0h.9"/>
                </g>
                <g transform="translate(4.367)">
                    <path class="st0" d="M0 0h.9"/>
                </g>
                <g transform="translate(8.735)">
                    <path class="st0" d="M0 0h.9"/>
                </g>
            </g>
            <g transform="translate(0 5.066)">
                <g>
                    <path class="st0" d="M0 0h.9"/>
                </g>
                <g transform="translate(4.367)">
                    <path class="st0" d="M0 0h.9"/>
                </g>
                <g transform="translate(8.735)">
                    <path class="st0" d="M0 0h.9"/>
                </g>
            </g>
            <g transform="translate(0 10.307)">
                <g>
                    <path class="st0" d="M0 0h.9"/>
                </g>
                <g transform="translate(4.367)">
                    <path class="st0" d="M0 0h.9"/>
                </g>
                <g transform="translate(8.735)">
                    <path class="st0" d="M0 0h.9"/>
                </g>
            </g>
        </g>
        <path class="st0" d="M27.3 49.3H.4"/>
        <path class="st0" d="M2.6 41.3H.2v8"/>
        <path class="st0" d="M25 41.3h2.4v8"/>
    </g>
</svg>