<svg width="72" height="72" fill="none" xmlns="http://www.w3.org/2000/svg"><path fill-rule="evenodd" clip-rule="evenodd" d="M27.577 4.335a.5.5 0 00-.357.149L12.287 19.639a.5.5 0 00-.144.35v46.796a.5.5 0 00.5.5h47.006a.5.5 0 00.5-.5V4.835a.5.5 0 00-.5-.5H27.577zm-14.435 15.86l14.644-14.86h31.362v60.95H13.142v-46.09zM52.5 38a2.5 2.5 0 00-2.5-2.5H23a2.5 2.5 0 00-2.5 2.5v20a2.5 2.5 0 002.5 2.5h27a2.5 2.5 0 002.5-2.5V38zM50 36.5a1.5 1.5 0 011.5 1.5v3.5H41.292v18h-9.396v-23H50zm-7.708 6H51.5v5h-9.208v-5zm0 6H51.5v5h-9.208v-5zm0 6H51.5V58a1.5 1.5 0 01-1.5 1.5h-7.708v-5zm-11.396 0v5H23a1.5 1.5 0 01-1.5-1.5v-3.5h9.396zm0-1H21.5v-5h9.396v5zm0-6H21.5v-5h9.396v5zm0-6H21.5V38a1.5 1.5 0 011.5-1.5h7.896v5z" fill="#000"/></svg>