<svg width="72" height="72" viewBox="0 0 72 72" fill="none" xmlns="http://www.w3.org/2000/svg">
<circle cx="36" cy="36" r="29.5" stroke="currentColor"/>
<path d="M39.1389 17.0632C39.1389 18.7244 37.7923 20.071 36.1313 20.071C34.4702 20.071 33.1236 18.7244 33.1236 17.0632C33.1236 15.4021 34.4702 14.0555 36.1313 14.0555C37.7923 14.0555 39.1389 15.4021 39.1389 17.0632Z" stroke="currentColor"/>
<path d="M35.9681 24.0401L35.9999 24.0421L36.0317 24.0401L50.7655 23.1008C50.948 23.0997 51.1289 23.1344 51.2982 23.2031C51.4712 23.2734 51.6284 23.3775 51.7602 23.5093C51.8919 23.6411 51.9959 23.798 52.0661 23.971C52.1358 24.1425 52.1706 24.3261 52.1685 24.5111C52.1554 24.8875 52.0002 25.2451 51.734 25.5118C51.4668 25.7795 51.108 25.9355 50.7301 25.9483L50.7113 25.9489L50.6926 25.951L40.9528 27.0164L40.5071 27.0652V27.5135V38.8747V38.9406L40.5242 39.0043L45.0613 55.9033C45.0616 55.9044 45.0619 55.9056 45.0622 55.9067C45.1661 56.3221 45.1044 56.7617 44.8899 57.1326C44.6749 57.5045 44.3235 57.7778 43.9102 57.8943C43.4968 58.0109 43.0542 57.9617 42.6766 57.757C42.2998 57.5527 42.0173 57.2097 41.889 56.8006C41.8887 56.7998 41.8885 56.7991 41.8883 56.7983L37.0963 40.8701L36.9892 40.5141H36.6175H35.3757H35.004L34.8969 40.8701L30.105 56.8033L30.1049 56.8032L30.1026 56.8115C30.0438 57.0198 29.9445 57.2145 29.8105 57.3846C29.6764 57.5547 29.5103 57.6966 29.3216 57.8023C29.1328 57.908 28.9249 57.9756 28.7099 58.001C28.4949 58.0264 28.2771 58.0093 28.0688 57.9505C27.8605 57.8918 27.6659 57.7926 27.4958 57.6585C27.3257 57.5243 27.1836 57.3581 27.0779 57.1695C26.9722 56.9807 26.9047 56.7728 26.8793 56.5578C26.8539 56.343 26.8711 56.1251 26.9299 55.9166L26.9299 55.9166L26.9316 55.9105L31.4705 39.0043L31.4876 38.9406V38.8747V27.5147V27.0664L31.042 27.0177L21.301 25.9522L21.2825 25.9502L21.2638 25.9495C20.8858 25.9365 20.5268 25.7804 20.2596 25.5127C19.9935 25.2461 19.8382 24.8887 19.8248 24.5124C19.8229 24.3278 19.8579 24.1443 19.9277 23.9726C19.998 23.7996 20.102 23.6427 20.2337 23.5109C20.3656 23.379 20.5226 23.2749 20.6955 23.2046C20.8647 23.1359 21.0457 23.101 21.2283 23.102L35.9681 24.0401Z" stroke="currentColor"/>
</svg>
