<svg fill="none" height="72" viewBox="0 0 72 72" width="72" xmlns="http://www.w3.org/2000/svg"><circle cx="36" cy="36" r="29.5" stroke="currentColor"/><path d="m35.9681 24.0401.0318.002.0318-.002 14.7338-.9393c.1825-.0011.3634.0336.5327.1024.173.0702.3302.1743.462.3061l.3535-.3535-.3535.3535c.1317.1318.2357.2887.3059.4617l.4633-.188-.4633.188c.0697.1715.1045.3551.1024.5401-.0131.3764-.1683.734-.4345 1.0007-.2672.2677-.626.4237-1.0039.4365l-.0188.0006-.0187.0021-9.7398 1.0654-.4457.0488v.4483 11.3612.0659l.0171.0637 4.5371 16.899c.0003.0011.0006.0022.0009.0034.1039.4154.0422.855-.1723 1.2259-.215.3719-.5664.6452-.9797.7617-.4134.1166-.856.0674-1.2336-.1373-.3768-.2043-.6593-.5473-.7876-.9562-.0002-.0009-.0005-.0017-.0007-.0025l-4.792-15.9282-.1071-.356h-.3717-1.2418-.3717l-.1071.356-4.7919 15.9332-.0001-.0001-.0023.0083c-.0588.2083-.158.403-.2921.5731s-.3002.312-.4889.4177c-.1888.1057-.3967.1733-.6117.1987s-.4328.0083-.6411-.0505c-.2083-.0587-.403-.1579-.573-.292-.1701-.1341-.3122-.3004-.4179-.489-.1057-.1888-.1732-.3967-.1986-.6117-.0254-.2148-.0082-.4327.0506-.6412l.0017-.0061 4.5389-16.9062.0171-.0637v-.0659-11.36-.4483l-.4456-.0487-9.741-1.0655-.0185-.002-.0187-.0007c-.378-.013-.737-.1691-1.0042-.4368-.2661-.2666-.4214-.624-.4348-1.0003-.0019-.1846.0331-.3681.1029-.5398.0703-.173.1743-.3299.306-.4617.1319-.1319.2889-.236.4618-.3063.1692-.0687.3502-.1036.5328-.1026zm3.1708-6.9769c0 1.6612-1.3466 3.0078-3.0076 3.0078-1.6611 0-3.0077-1.3466-3.0077-3.0078 0-1.6611 1.3466-3.0077 3.0077-3.0077 1.661 0 3.0076 1.3466 3.0076 3.0077z" stroke="currentColor"/></svg>