<svg fill="none" height="72" viewBox="0 0 72 72" width="72" xmlns="http://www.w3.org/2000/svg" xmlns:xlink="http://www.w3.org/1999/xlink"><mask id="a" fill="#fff"><path clip-rule="evenodd" d="m36 65c16.0163 0 29-12.9837 29-29s-12.9837-29-29-29-29 12.9837-29 29 12.9837 29 29 29zm0 1c16.5685 0 30-13.4315 30-30s-13.4315-30-30-30-30 13.4315-30 30 13.4315 30 30 30zm.1313-46.429c1.3849 0 2.5076-1.1228 2.5076-2.5078s-1.1227-2.5077-2.5076-2.5077c-1.385 0-2.5077 1.1227-2.5077 2.5077s1.1227 2.5078 2.5077 2.5078zm3.5076-2.5078c0 1.9373-1.5704 3.5078-3.5076 3.5078-1.9373 0-3.5077-1.5705-3.5077-3.5078 0-1.9372 1.5704-3.5077 3.5077-3.5077 1.9372 0 3.5076 1.5705 3.5076 3.5077zm-3.7025 7.4759.0636.004.0635-.004 14.7178-.9383c.1127.0009.2241.0231.3289.0656.1111.0451.212.112.2964.1965.0844.0843.1511.185.1962.2962.044.1082.0663.224.0658.3406-.0102.2478-.113.4831-.2885.6589-.1776.1779-.4159.2815-.6669.29l-.0376.0012-.0374.0041-9.7398 1.0655-.8913.0975v.8966 11.3612.1319l.0342.1274 4.5367 16.8978c.0712.2883.0279.5931-.1209.8505-.1499.2593-.3948.4496-.6826.5308-.2881.0813-.5965.0469-.8596-.0957-.2618-.1419-.4583-.3799-.548-.6639l-.0013-.0041-4.7905-15.9234-.2141-.7119h-.7435-1.2418-.7435l-.2141.712-4.7919 15.9332-.0025.0082-.0024.0083c-.0408.1449-.11.2807-.2035.3992-.0935.1187-.2092.2175-.3405.291-.1315.0737-.2764.1207-.4262.1385-.1498.0177-.3015.0057-.4466-.0352-.145-.0409-.2806-.11-.3991-.2034-.1188-.0937-.2178-.2095-.2912-.3407-.0736-.1315-.1206-.2762-.1384-.4262-.0177-.1494-.0057-.3012.0353-.4467l.0001.0001.0033-.0122 4.5389-16.9062.0342-.1274v-.1319-11.36-.8966l-.8912-.0975-9.741-1.0654-.0371-.0041-.0374-.0013c-.2512-.0086-.4899-.1124-.6674-.2903-.1754-.1758-.2784-.4108-.2888-.6585-.0004-.1159.022-.2315.0662-.3402.0452-.1113.112-.212.1964-.2963.0846-.0846.1854-.1515.2964-.1966.1046-.0425.2162-.0648.329-.0659zm15.5499-1.7992c-.2348-.0953-.486-.1426-.7394-.139l-14.747.9402-14.7533-.9389c-.2533-.0035-.5046.0439-.7393.1392-.2347.0954-.448.2368-.6272.416-.1791.1791-.3203.3923-.4157.627-.0953.2347-.143.4861-.1395.7395.0163.5048.224.9845.5808 1.342s.8362.566 1.3409.5833l9.741 1.0655v11.36l-4.5389 16.9062c-.0766.2715-.0991.5555-.066.8356.0332.2802.1211.5511.259.7973.1378.2461.323.4627.5445.6373.2216.1747.4753.3041.7468.3807.2716.0765.5555.0989.8356.0657.2802-.0331.5511-.1211.7973-.259.2461-.1378.4626-.3228.6372-.5444.1747-.2215.3041-.4753.3807-.7468l4.7919-15.9332h1.2418l4.7935 15.9332c.1667.5343.5353.9825 1.0274 1.2493.492.2667 1.0689.3309 1.6076.179.5387-.152.9966-.5082 1.2768-.9927.2802-.4846.3603-1.0593.2233-1.602l-4.539-16.9062v-11.3612l9.7398-1.0655c.5049-.017.9841-.2255 1.341-.583.3568-.3576.5644-.8375.5805-1.3424.0036-.2533-.0437-.5048-.139-.7396s-.2365-.4481-.4157-.6272c-.1792-.1792-.3926-.3206-.6274-.4159z" fill="#fff" fill-rule="evenodd"/></mask><g fill="#050504"><path clip-rule="evenodd" d="m36 65c16.0163 0 29-12.9837 29-29s-12.9837-29-29-29-29 12.9837-29 29 12.9837 29 29 29zm0 1c16.5685 0 30-13.4315 30-30s-13.4315-30-30-30-30 13.4315-30 30 13.4315 30 30 30zm.1313-46.429c1.3849 0 2.5076-1.1228 2.5076-2.5078s-1.1227-2.5077-2.5076-2.5077c-1.385 0-2.5077 1.1227-2.5077 2.5077s1.1227 2.5078 2.5077 2.5078zm3.5076-2.5078c0 1.9373-1.5704 3.5078-3.5076 3.5078-1.9373 0-3.5077-1.5705-3.5077-3.5078 0-1.9372 1.5704-3.5077 3.5077-3.5077 1.9372 0 3.5076 1.5705 3.5076 3.5077zm-3.7025 7.4759.0636.004.0635-.004 14.7178-.9383c.1127.0009.2241.0231.3289.0656.1111.0451.212.112.2964.1965.0844.0843.1511.185.1962.2962.044.1082.0663.224.0658.3406-.0102.2478-.113.4831-.2885.6589-.1776.1779-.4159.2815-.6669.29l-.0376.0012-.0374.0041-9.7398 1.0655-.8913.0975v.8966 11.3612.1319l.0342.1274 4.5367 16.8978c.0712.2883.0279.5931-.1209.8505-.1499.2593-.3948.4496-.6826.5308-.2881.0813-.5965.0469-.8596-.0957-.2618-.1419-.4583-.3799-.548-.6639l-.0013-.0041-4.7905-15.9234-.2141-.7119h-.7435-1.2418-.7435l-.2141.712-4.7919 15.9332-.0025.0082-.0024.0083c-.0408.1449-.11.2807-.2035.3992-.0935.1187-.2092.2175-.3405.291-.1315.0737-.2764.1207-.4262.1385-.1498.0177-.3015.0057-.4466-.0352-.145-.0409-.2806-.11-.3991-.2034-.1188-.0937-.2178-.2095-.2912-.3407-.0736-.1315-.1206-.2762-.1384-.4262-.0177-.1494-.0057-.3012.0353-.4467l.0001.0001.0033-.0122 4.5389-16.9062.0342-.1274v-.1319-11.36-.8966l-.8912-.0975-9.741-1.0654-.0371-.0041-.0374-.0013c-.2512-.0086-.4899-.1124-.6674-.2903-.1754-.1758-.2784-.4108-.2888-.6585-.0004-.1159.022-.2315.0662-.3402.0452-.1113.112-.212.1964-.2963.0846-.0846.1854-.1515.2964-.1966.1046-.0425.2162-.0648.329-.0659zm15.5499-1.7992c-.2348-.0953-.486-.1426-.7394-.139l-14.747.9402-14.7533-.9389c-.2533-.0035-.5046.0439-.7393.1392-.2347.0954-.448.2368-.6272.416-.1791.1791-.3203.3923-.4157.627-.0953.2347-.143.4861-.1395.7395.0163.5048.224.9845.5808 1.342s.8362.566 1.3409.5833l9.741 1.0655v11.36l-4.5389 16.9062c-.0766.2715-.0991.5555-.066.8356.0332.2802.1211.5511.259.7973.1378.2461.323.4627.5445.6373.2216.1747.4753.3041.7468.3807.2716.0765.5555.0989.8356.0657.2802-.0331.5511-.1211.7973-.259.2461-.1378.4626-.3228.6372-.5444.1747-.2215.3041-.4753.3807-.7468l4.7919-15.9332h1.2418l4.7935 15.9332c.1667.5343.5353.9825 1.0274 1.2493.492.2667 1.0689.3309 1.6076.179.5387-.152.9966-.5082 1.2768-.9927.2802-.4846.3603-1.0593.2233-1.602l-4.539-16.9062v-11.3612l9.7398-1.0655c.5049-.017.9841-.2255 1.341-.583.3568-.3576.5644-.8375.5805-1.3424.0036-.2533-.0437-.5048-.139-.7396s-.2365-.4481-.4157-.6272c-.1792-.1792-.3926-.3206-.6274-.4159z" fill-rule="evenodd"/><path d="m36 24.5431-.0636.998.0636.0041.0636-.0041zm-.0636-.004-.0635.998zm.1271 0-.0636-.998zm14.7178-.9383.0083-1-.036-.0003-.0359.0023zm.3289.0656-.3762.9266h.0001zm.2964.1965.7071-.7071zm.1962.2962.9266-.3761zm.0658.3406.9991.0408.0008-.0182.0001-.0182zm-.2885.6589.7078.7064zm-.6669.29.0337.9994zm-.0376.0012-.0337-.9994-.0377.0013-.0374.0041zm-.0374.0041.1087.9941zm-9.7398 1.0655.1087.9941zm-.8913.0975-.1087-.9941-.8913.0975v.8966zm0 12.3897h-1v.1319l.0342.1274zm.0342.1274.9658-.2593zm4.5367 16.8978.9709-.2395-.0024-.0099-.0027-.0099zm-.1209.8505.8657.5006zm-.6826.5308-.2715-.9624zm-.8596-.0957.4765-.8791zm-.548-.6639-.954.2999.0005.0016zm-.0013-.0041-.9577.2881.0037.0118zm-4.7905-15.9234.9576-.2881zm-.2141-.7119.9576-.2881-.2142-.7119h-.7434zm-2.7288 0v-1h-.7434l-.2142.712zm-.2141.712-.9576-.288zm-4.7919 15.9332.9576.288zm-.0025.0082-.9576-.2881-.0025.0084-.0024.0083zm-.0024.0083.9625.2715v-.0001zm-.2035.3992-.7853-.6191zm-.3405.291-.4886-.8725zm-.4262.1385.1175.993zm-.4466-.0352-.2715.9625zm-.3991-.2034.6191-.7853zm-.2912-.3407-.8725.4886zm-.1384-.4262-.9931.1175zm.0353-.4467.237-.9715-.9375-.2286-.2619.9287zm.0001.0001-.237.9715.9494.2315.2534-.9438zm.0033-.0122-.9658-.2593zm4.5389-16.9062.9658.2593zm.0342-.1274.9658.2593.0342-.1274v-.1319zm0-12.3885h1v-.8966l-.8913-.0975zm-.8912-.0975.1087-.9941zm-9.741-1.0654-.1088.994zm-.0371-.0041.1087-.9941-.0371-.004-.0374-.0013zm-.0374-.0013-.0343.9994h.0001zm-.6674-.2903-.7078.7064zm-.2888-.6585-1 .0031.0001.0195.0008.0194zm.0662-.3402-.9265-.3764zm.1964-.2963.7071.7071zm.2964-.1966.3764.9264zm.329-.0659.0635-.998-.0363-.0023-.0364.0004zm29.5342-1.0011-.0142-.9999-.0247.0004-.0247.0016zm.7394.139.3761-.9266zm-15.4864.8012-.0635.998.0636.0041.0635-.0041zm-14.7533-.9389.0636-.998-.025-.0016-.025-.0004zm-.7393.1392.3764.9265zm-.6272.416.7072.7071zm-.5552 1.3665-.9999.0135.0001.0094.0003.0095zm.5808 1.342.7078-.7064zm1.3409.5833.1088-.994-.0371-.0041-.0374-.0013zm9.741 1.0655h1v-.8966l-.8913-.0975zm0 11.36.9658.2593.0342-.1274v-.1319zm-4.5389 16.9062.9625.2715.0033-.0122zm1.4843 2.6509.2715-.9625zm.8356.0657-.1175-.993zm1.4345-.8034.7853.6192zm.3807-.7468-.9576-.288-.0025.0082-.0024.0083zm4.7919-15.9332v-1h-.7435l-.2141.712zm1.2418 0 .9576-.2881-.2141-.7119h-.7435zm4.7935 15.9332-.9577.2881.0031.0097zm3.9118.4356.8657.5005zm.2233-1.602.9695-.2449-.0018-.0072-.0019-.0072zm-4.539-16.9062h-1v.1319l.0342.1274zm0-11.3612-.1087-.9941-.8913.0975v.8966zm9.7398-1.0655-.0337-.9994-.0376.0012-.0374.0041zm1.341-.583-.7078-.7064zm.5805-1.3424.9995.0319.0003-.0089.0001-.0088zm-.139-.7396-.9266.3761zm-.4157-.6272-.7071.7071zm11.8863 12.8442c0 15.464-12.536 28-28 28v2c16.5685 0 30-13.4315 30-30zm-28-28c15.464 0 28 12.536 28 28h2c0-16.5685-13.4315-30-30-30zm-28 28c0-15.464 12.536-28 28-28v-2c-16.5685 0-30 13.4315-30 30zm28 28c-15.464 0-28-12.536-28-28h-2c0 16.5685 13.4315 30 30 30zm29-28c0 16.0163-12.9837 29-29 29v2c17.1208 0 31-13.8792 31-31zm-29-29c16.0163 0 29 12.9837 29 29h2c0-17.1208-13.8792-31-31-31zm-29 29c0-16.0163 12.9837-29 29-29v-2c-17.1208 0-31 13.8792-31 31zm29 29c-16.0163 0-29-12.9837-29-29h-2c0 17.1208 13.8792 31 31 31zm1.6389-47.9368c0 .8328-.675 1.5078-1.5076 1.5078v2c1.9372 0 3.5076-1.5705 3.5076-3.5078zm-1.5076-1.5077c.8326 0 1.5076.675 1.5076 1.5077h2c0-1.9372-1.5704-3.5077-3.5076-3.5077zm-1.5077 1.5077c0-.8327.675-1.5077 1.5077-1.5077v-2c-1.9373 0-3.5077 1.5705-3.5077 3.5077zm1.5077 1.5078c-.8327 0-1.5077-.675-1.5077-1.5078h-2c0 1.9373 1.5704 3.5078 3.5077 3.5078zm0 3c2.4895 0 4.5076-2.0182 4.5076-4.5078h-2c0 1.385-1.1227 2.5078-2.5076 2.5078zm-4.5077-4.5078c0 2.4896 2.0181 4.5078 4.5077 4.5078v-2c-1.385 0-2.5077-1.1228-2.5077-2.5078zm4.5077-4.5077c-2.4896 0-4.5077 2.0182-4.5077 4.5077h2c0-1.385 1.1227-2.5077 2.5077-2.5077zm4.5076 4.5077c0-2.4895-2.0181-4.5077-4.5076-4.5077v2c1.3849 0 2.5076 1.1227 2.5076 2.5077zm-4.5754 6.482-.0636-.0041-.127 1.996.0635.004zm-.0636-.0041-.0636.0041.1273 1.9959.0635-.004zm14.7178-.9383-14.7178.9383.1272 1.996 14.7178-.9384zm.7686.1371c-.2216-.09-.4578-.1371-.6967-.1391l-.0166 1.9999c-.0135-.0001-.0269-.0028-.039-.0077zm.6274.4159c-.1792-.1792-.3926-.3206-.6274-.4159l-.7522 1.8531c-.0126-.0051-.0243-.0127-.0346-.023zm.4157.6272c-.0953-.2348-.2365-.4481-.4157-.6272l-1.4142 1.4142c-.0104-.0105-.0182-.0224-.0232-.0348zm.1392.7211c.0011-.2471-.0462-.492-.1392-.7211l-1.8531.7522c-.0051-.0126-.0078-.0261-.0077-.04zm-.5807 1.3609c.3526-.3534.5595-.8262.5798-1.3245l-1.9983-.0816c.0001-.0027.0012-.005.0029-.0068zm-1.341.583c.5049-.017.9841-.2255 1.341-.583l-1.4156-1.4129c.0016-.0016.0043-.0029.0072-.003zm-.0376.0013.0376-.0013-.0674-1.9989-.0376.0013zm.0376-.0013.0374-.0041-.2175-1.9881-.0374.0041zm-9.7398 1.0655 9.7398-1.0655-.2175-1.9881-9.7398 1.0654zm-.8912.0975.8912-.0975-.2175-1.9882-.8912.0975zm.8912-.0975v-.8966h-2v.8966zm0 11.3612v-11.3612h-2v11.3612zm0 .1319v-.1319h-2v.1319zm0-.1319-.0342-.1274-1.9316.5186.0342.1274zm4.5367 16.8978-4.5367-16.8978-1.9316.5186 4.5368 16.8978zm-.221 1.6104c.2782-.4812.3592-1.0513.2261-1.5906l-1.9417.4791c.0091.0372.0036.0768-.0158.1104zm-1.2768.9927c.5387-.152.9966-.5081 1.2768-.9927l-1.7314-1.0011c-.0197.034-.0514.0584-.0884.0689zm-1.6076-.179c.492.2667 1.0689.3309 1.6076.179l-.543-1.9249c-.0374.0105-.0775.006-.1116-.0124zm-1.025-1.2416c.1679.5309.5352.9761 1.025 1.2416l.953-1.7583c-.0338-.0184-.0594-.0492-.0711-.0862zm-.0018-.0057.0013.0041 1.9079-.5997-.0013-.0042zm-4.7941-15.9352 4.7905 15.9234 1.9152-.5762-4.7905-15.9234zm-.2142-.7119.2142.7119 1.9152-.5762-.2141-.7119zm.2142.7119h.7435v-2h-.7435zm-1.2418 0h1.2418v-2h-1.2418zm-.7435 0h.7435v-2h-.7435zm.7435 0 .2142-.712-1.9153-.576-.2141.712zm-4.7919 15.9332 4.7919-15.9332-1.9152-.576-4.792 15.9331zm-.0025.0083.0025-.0083-1.9152-.5761-.0025.0082zm.0025-.0084.0023-.0083-1.9249-.5428-.0023.0083zm-.3807.747c.1747-.2216.3041-.4754.3807-.7469l-1.9249-.543c-.0052.0184-.0141.036-.0264.0516zm-.6372.5443c.2461-.1378.4626-.3228.6372-.5444l-1.5706-1.2382c-.0124.0158-.0273.0284-.0438.0376zm-.7973.259c.2802-.0331.5511-.1211.7973-.259l-.9772-1.745c-.0169.0095-.0357.0156-.0551.0179zm-.8356-.0657c.2716.0765.5555.0989.8356.0657l-.235-1.9861c-.0194.0023-.0389.0007-.0576-.0045zm-.7468-.3807c.2216.1747.4753.3041.7468.3807l.543-1.9249c-.0185-.0053-.036-.0141-.0515-.0263zm-.5445-.6373c.1378.2461.323.4627.5445.6373l1.2383-1.5705c-.016-.0126-.0287-.0278-.0378-.044zm-.259-.7973c.0332.2802.1211.5511.259.7973l1.745-.9772c-.0094-.0167-.0155-.0354-.0178-.0551zm.066-.8356c-.0766.2715-.0991.5555-.066.8356l1.9862-.235c-.0022-.0187-.0008-.0384.0047-.0577zm1.1994-.7001-.4739 1.9431zm-1.1994.7001-.0033.0122 1.9316.5185.0033-.0121zm4.5389-16.9062-4.5389 16.9062 1.9316.5186 4.5389-16.9062zm.0342-.1274-.0342.1274 1.9316.5186.0342-.1274zm-.0342.1274v.1319h2v-.1319zm0-11.36v11.36h2v-11.36zm0-.8966v.8966h2v-.8966zm0 .8966.8913.0975.2174-1.9882-.8912-.0975zm-9.741-1.0655 9.741 1.0655.2175-1.9882-9.741-1.0654zm-.0371-.004.0371.004.2175-1.9881-.0371-.0041zm.0372.004.0373.0013.0685-1.9988-.0373-.0013zm-1.341-.5833c.3568.3575.8362.566 1.3409.5833l.0686-1.9988c.0023.0001.0044.001.006.0026zm-.5801-1.3229c.0209.4978.2278.9699.5801 1.3229l1.4155-1.4129c.0016.0015.0025.0036.0026.006zm.1388-.7586c-.0929.2286-.1405.4731-.1397.7197l2-.0062c0 .0149-.0028.0281-.0074.0393zm.4157-.627c-.1791.1791-.3203.3923-.4157.627l1.8529.7528c-.0049.0121-.0125.024-.0229.0344zm.6272-.416c-.2347.0954-.448.2368-.6272.416l1.4143 1.4142c-.0099.0099-.0216.0176-.0343.0227zm.6962-.1393c-.2387.0021-.4749.0494-.6962.1393l.7528 1.8529c-.0121.005-.0252.0076-.0382.0077zm14.7964.939-14.7237-.9371-.127 1.996 14.7237.9371zm14.7612.0597c.1196-.0017.2381.0206.3491.0656l.7522-1.8531c-.3586-.1456-.7425-.2178-1.1297-.2123zm-14.6976.9383 14.747-.9402-.1272-1.9959-14.747.9401zm-14.8804-.939 14.7533.939.127-1.996-14.7532-.9389zm-.2994.0678c.1109-.0451.2297-.0675.3494-.0658l.0271-1.9999c-.3869-.0052-.7709.0671-1.1294.2128zm-.2964.1966c.0846-.0846.1854-.1515.2964-.1966l-.7528-1.8529c-.3585.1456-.6842.3616-.9579.6353zm-.1964.2963c.0452-.1113.112-.212.1964-.2963l-1.4143-1.4142c-.2739.2739-.4895.5996-.635.9577zm-.0661.3495c-.0016-.119.0207-.2379.0661-.3495l-1.8529-.7528c-.1454.3578-.2183.7418-.213 1.1294zm.2887.6492c-.1777-.178-.281-.4168-.2892-.668l-1.9989.0648c.0246.7584.3365 1.479.8725 2.016zm.6674.2903c-.2512-.0086-.4899-.1124-.6674-.2903l-1.4156 1.4128c.536.5371 1.2561.8503 2.0144.8763zm9.8154 1.0708-9.7409-1.0654-.2175 1.9881 9.741 1.0655zm.8913 12.3541v-11.36h-2v11.36zm-4.5731 17.1655 4.5389-16.9062-1.9316-.5186-4.5389 16.9062zm-.0387.4588c-.0177-.1494-.0057-.3012.0353-.4467l-1.9249-.5429c-.1121.3976-.1452.8138-.0965 1.2247zm.1384.4262c-.0736-.1315-.1206-.2762-.1384-.4262l-1.9861.2351c.0485.4104.1774.8074.3795 1.1683zm.2912.3407c-.1188-.0937-.2178-.2095-.2912-.3407l-1.745.9772c.2022.3611.4736.6783.7979.934zm.3991.2034c-.145-.0409-.2806-.11-.3991-.2034l-1.2383 1.5705c.3246.2559.6964.4455 1.0945.5578zm.4466.0352c-.1498.0177-.3015.0057-.4466-.0352l-.5429 1.9249c.3979.1122.814.145 1.2245.0964zm.4262-.1385c-.1315.0737-.2764.1207-.4262.1385l.235 1.9861c.4106-.0486.8076-.1775 1.1684-.3796zm.3405-.291c-.0935.1187-.2092.2175-.3405.291l.9772 1.745c.361-.2021.6781-.4733.9339-.7977zm.2035-.3992c-.0408.1449-.11.2806-.2035.3992l1.5706 1.2383c.2559-.3246.4455-.6964.5578-1.0946zm4.7968-15.9497-4.7919 15.9332 1.9152.576 4.792-15.9332zm2.1994-.712h-1.2418v2h1.2418zm5.7511 16.6451-4.7935-15.9332-1.9152.5762 4.7935 15.9332zm.5463.6582c-.2631-.1426-.4602-.3822-.5493-.668l-1.9092.5957c.2442.7829.7843 1.4397 1.5054 1.8306zm.8596.0957c-.2881.0813-.5965.0469-.8596-.0957l-.9531 1.7583c.7211.3909 1.5663.4849 2.3556.2623zm.6826-.5308c-.1499.2593-.3948.4496-.6826.5308l.5429 1.9249c.7896-.2227 1.4606-.7447 1.8711-1.4546zm.1194-.8566c.0733.2901.0305.5974-.1194.8566l1.7314 1.0011c.4105-.7099.528-1.552.3271-2.3474zm-4.5352-16.8917 4.539 16.9062 1.9316-.5186-4.539-16.9062zm-.0342-11.6205v11.3612h2v-11.3612zm10.6311-2.0596-9.7398 1.0655.2175 1.9881 9.7398-1.0654zm.7419-.2953c-.1776.1779-.4159.2815-.6669.29l.0674 1.9988c.7588-.0256 1.479-.3389 2.0151-.876zm.2888-.6678c-.008.2511-.1112.4898-.2888.6678l1.4156 1.4128c.5361-.5372.848-1.2582.8722-2.0169zm-.0661-.3317c.0451.1109.0674.2297.0657.3493l1.9998.0284c.0055-.3871-.0667-.7713-.2123-1.1299zm-.1962-.2962c.0844.0843.1511.185.1962.2962l1.8532-.7522c-.1454-.3584-.3612-.6843-.6352-.9582zm-.2964-.1965c.1111.0451.212.112.2964.1965l1.4142-1.4142c-.2739-.2739-.6-.4899-.9584-.6354z" mask="url(#a)"/></g></svg>