<svg fill="none" height="72" viewBox="0 0 72 72" width="72" xmlns="http://www.w3.org/2000/svg"><path clip-rule="evenodd" d="m15 9h39v2 1 48.2143 2.7857h-39zm39 55h-39-1v-1-54-1h1 39 1v1 2h2 1v1 51 1h-1-2zm1-52v48.2143 2.7857h2v-51zm-34 5h27v12h-27zm-1-1h1 27 1v1 12 1h-1-27-1v-1-12zm13 26h-12v10h12zm-12-1h-1v1 10 1h1 12 1v-1-10-1h-1zm2-7h-2v-1h2zm24-1v1h2v-1zm-5 1h-16v-1h16zm-22 4h15v-1h-15zm29 0h-13v-1h13zm-9 4h9v-1h-9zm-1 0h-2v-1h2zm-2 6v1h12v-1zm5 5h-5v-1h5zm2 0h5v-1h-5zm5-8h-4v-1h4zm-12 0h6v-1h-6zm2 12v-1h10v1zm-19 0h17v-1h-17z" fill="currentColor" fill-rule="evenodd"/></svg>