<svg fill="none" height="72" viewBox="0 0 72 72" width="72" xmlns="http://www.w3.org/2000/svg"><path clip-rule="evenodd" d="m21.8119 10.2144c3.3916-1.5065 7.0703-2.2574 10.781-2.20067 3.7108.05673 7.3648.91972 10.7088 2.52917 3.3441 1.6094 6.2981 3.9268 8.6574 6.7915.1755.2132.4907.2437.7038.0681.2132-.1756.2437-.4907.0681-.7038-2.4515-2.9766-5.5209-5.3846-8.9956-7.05688-3.4747-1.67232-7.2715-2.56903-11.1272-2.62797-3.8557-.05895-7.6781.72128-11.2023 2.2866-3.5241 1.56535-6.6658 3.87825-9.2071 6.77855-2.54131 2.9003-4.42153 6.3186-5.51033 10.0178-1.0888 3.6993-1.36013 7.5911-.79518 11.4056.56494 3.8146 1.95265 7.4607 4.06692 10.6856 2.11429 3.2248 4.90459 5.9514 8.17739 7.9906.2344.146.5428.0744.6888-.16s.0744-.5427-.1599-.6888c-3.1499-1.9625-5.8352-4.5865-7.87-7.6901-2.03477-3.1037-3.3703-6.6126-3.914-10.2838-.5437-3.6711-.28258-7.4165.76528-10.9767s2.85742-6.8499 5.30312-9.6411c2.4458-2.7913 5.4693-5.0173 8.861-6.5237zm41.8599 44.7288c-.1881-.2022-.5044-.2136-.7066-.0255-.2022.188-.2137.5044-.0256.7066l3.222 3.4636h-16.1616c-.2761 0-.5.2239-.5.5 0 .2762.2239.5.5.5h16.1616l-3.222 3.4637c-.1881.2022-.1766.5185.0256.7066s.5185.1767.7066-.0255l4.0039-4.3042.3168-.3406-.3168-.3405zm-8.3686-33.479.4829.2082 6.3862 2.7526c.2536.1093.3706.4035.2613.6571s-.4035.3706-.6571.2613l-5.1041-2.2001c1.5791 3.7168 2.2935 7.7505 2.0809 11.7955-.2373 4.5147-1.6216 8.8944-4.0221 12.7254s-5.738 6.9868-9.6972 9.1694-8.4094 3.3198-12.9303 3.3044c-.0777-.0003-.1512-.0182-.2166-.0501h-25.8871c-.27614 0-.5-.2238-.5-.5 0-.2761.22386-.5.5-.5h26.1054.0011c4.2451.0098 8.426-1.0366 12.1661-3.0447 3.7402-2.0081 6.9221-4.9149 9.2593-8.4587s3.7563-7.6132 4.1295-11.8419c.373-4.2271-.3108-8.4806-1.9899-12.3777l-.005-.0111-1.9921 5.3485c-.0964.2587-.3843.3904-.643.294-.2588-.0964-.3905-.3843-.2941-.6431l2.3823-6.3962z" fill="currentColor" fill-rule="evenodd"/></svg>