<svg fill="none" height="72" viewBox="0 0 72 72" width="72" xmlns="http://www.w3.org/2000/svg"><path clip-rule="evenodd" d="m12.1801 19.5c-.2762 0-.5.2239-.5.5v5c0 .2761.2238.5.5.5.2761 0 .5-.2239.5-.5v-4.5h50.8444l.0018.5813.0087 2.9058c.0072 2.4347.0169 5.7532.0265 9.2885.0184 6.7494.0368 14.2877.0385 17.9744h-17.6799c-.2762 0-.5.2239-.5.5v.3h-14.58v-.3c0-.2761-.2239-.5-.5-.5h-8.41c-.2762 0-.5.2239-.5.5v3.74c0 .2761.2238.5.5.5h45.17c.1224 0 .258-.0263.3802-.0893.0963-.0495.3398-.2097.3398-.5307v-3.5c0-.1074-.0255-.2386-.1118-.3596-.0859-.1205-.1981-.1833-.2861-.2153-.1314-.0478-.2744-.0457-.3145-.0452l-.0076.0001h-2.5001c-.0017-3.6882-.0201-11.2281-.0385-17.9772-.0096-3.5353-.0193-6.8539-.0265-9.2886l-.0087-2.9059-.0025-.7995-.0006-.209-.0002-.0533v-.0135-.0034-.0009c-.0001-.0002-.0001-.0003-.5.0013l.4999-.0016c-.0008-.2755-.2244-.4984-.4999-.4984zm34.24 32.75h17.68 2.72v2.74h-44.39v-2.74h7.41v.3c0 .2761.2238.5.5.5h15.58c.2761 0 .5-.2239.5-.5zm-35.22-23.93c-.2762 0-.5.2239-.5.5s.2238.5.5.5h2.72c.2761 0 .5-.2239.5-.5s-.2239-.5-.5-.5zm1.3561 22.7v-.0001l-.0089.0003c-.218.0055-.4328.054-.632.1426-.1993.0886-.3792.2156-.5294.3738-.1502.1581-.2677.3443-.3459.5479-.0781.2036-.1155.4206-.1097.6386h-.0001l.0004.0089c.0141.3215.1225.6318.3117.8921.1892.2604.4509.4593.7523.572.3015.1127.6294.1342.943.0619s.599-.2353.8206-.4687.3697-.5268.4257-.8438c.0561-.3169.0176-.6433-.1105-.9385-.1282-.2953-.3404-.5463-.6101-.7218-.2698-.1755-.5853-.2677-.9071-.2652zm-.2347 1.0566c.0779-.0347.1617-.0539.2469-.0566.124-.0001.2455.0358.3496.1035.1052.0685.188.1664.2381.2816.05.1153.065.2427.0431.3663-.0218.1237-.0796.2382-.1661.3293-.0865.091-.1979.1547-.3203.1829-.1223.0282-.2503.0198-.3679-.0242-.1177-.044-.2198-.1216-.2936-.2232-.073-.1004-.1152-.2198-.1215-.3437-.0016-.0852.0132-.1699.0438-.2495.0311-.081.0778-.155.1375-.2178.0597-.0629.1312-.1134.2104-.1486zm-6.82147-23.8266c0-.3203.25968-.58.58-.58h12.93997c.3204 0 .58.2597.58.58v26.09c0 .3203-.2596.58-.58.58h-12.93997c-.32033 0-.58-.2597-.58-.58zm.58-1.58c-.87261 0-1.58.7074-1.58 1.58v26.09c0 .8726.70739 1.58 1.58 1.58h12.93997c.8726 0 1.58-.7074 1.58-1.58v-26.09c0-.8726-.7074-1.58-1.58-1.58z" fill="currentColor" fill-rule="evenodd"/></svg>