<svg fill="none" height="72" viewBox="0 0 72 72" width="72" xmlns="http://www.w3.org/2000/svg"><path clip-rule="evenodd" d="m9.5 15.2341c0-3.1482 2.5859-5.7341 5.7341-5.7341h41.5317c3.1482 0 5.7341 2.5859 5.7341 5.7341v41.5317c0 3.1482-2.5859 5.7341-5.7341 5.7341h-41.5317c-3.1482 0-5.7341-2.5859-5.7341-5.7341zm5.7341-6.7341c-3.7005 0-6.7341 3.0336-6.7341 6.7341v41.5317c0 3.7005 3.0336 6.7341 6.7341 6.7341h41.5317c3.7005 0 6.7341-3.0336 6.7341-6.7341v-41.5317c0-3.7005-3.0336-6.7341-6.7341-6.7341zm34.7659 20.9167c.3402 0 .6741-.0265 1-.0775v18.2491l-22 4.3044v-26.4388l14.6663-1.4193c.4947 3.0519 3.1421 5.3821 6.3337 5.3821zm0-12.8334c-2.5464 0-4.7463 1.4833-5.783 3.6329l-7.0688-2.1937-.0928-.0288-.0969.008-18 1.5-.4585.0382v.4601 23.5.2151l.1561.1479 9.5 9 .1871.1772.2528-.0495 23-4.5.404-.079v-.4117-18.9012c2.5645-.8404 4.4167-3.2533 4.4167-6.0988 0-3.5438-2.8729-6.4167-6.4167-6.4167zm-6.2237 4.5432.0437.1409c-.1542.5511-.2367 1.1322-.2367 1.7326l.0001.038-14.9828 1.4499-7.8508-4.132 16.1948-1.3496zm6.432-1.6265c.2762 0 .5.2239.5.5v2.7083h2.2917c.2761 0 .5.2239.5.5 0 .2762-.2239.5-.5.5h-2.2917v2.2917c0 .2761-.2238.5-.5.5-.2761 0-.5-.2239-.5-.5v-2.2917h-2.7083c-.2761 0-.5-.2238-.5-.5 0-.2761.2239-.5.5-.5h2.7083v-2.7083c0-.2761.2239-.5.5-.5zm-30.7083 1.3282 8.5 4.4737v26.0357l-8.5-8.0527zm21.5 15.6718-8-6.5 13.5 5.5-13.5 10.5z" fill="currentColor" fill-rule="evenodd"/></svg>