<svg fill="none" height="72" viewBox="0 0 72 72" width="72" xmlns="http://www.w3.org/2000/svg"><path clip-rule="evenodd" d="m36.4998 17.0588c.5144-1.4385 1.3217-2.7639 2.3747-3.8988 1.9038-2.1275 4.5084-3.54593 7.3621-4.03031.328-.05568.6593-.09902.9932-.12967.025.33446.0356.66852.032 1.00138-.0299 2.8125-1.068 5.5411-2.9565 7.715l-.7549-.6557c1.701-1.9582 2.6468-4.4003 2.7088-6.9197-2.5789.4702-4.9225 1.767-6.6395 3.6858l-.006.0067-.0061.0066c-.9623 1.0371-1.6979 2.2461-2.1661 3.5554-.3595 1.0053-.5561 2.0551-.5851 3.1129 1.1376-.0902 2.2511-.376 3.2864-.8455 1.3252-.6009 2.485-1.4859 3.3915-2.5833l.771.6368c-1.0051 1.2168-2.2881 2.1945-3.7495 2.8573-1.4614.6627-3.0618.9926-4.6772.9641-.1043-1.5179.1069-3.0405.6212-4.479zm3.2087 6.6831c2.0815-.7889 4.6543-1.764 7.485-1.6018v.0001c2.0412.0774 4.0364.6058 5.8311 1.5445 1.4914.7799 2.811 1.8257 3.89 3.0785.2195.2547.429.5181.6279.7895-.2883.171-.5689.3525-.8412.544-1.468 1.0325-2.695 2.3551-3.5961 3.883-1.0683 1.8113-1.6442 3.8527-1.6742 5.935.0191 2.3456.7441 4.6355 2.0873 6.5931 1.3433 1.9576 3.2472 3.499 5.4817 4.4378-.9035 2.7295-2.213 5.3187-3.8878 7.6872-2.3615 3.3439-4.7931 6.6194-8.6826 6.6863-1.8307.0326-3.0659-.4765-4.3512-1.0062-1.348-.5556-2.7511-1.1339-4.9541-1.1339-2.3108 0-3.7816.5968-5.1958 1.1707-1.2216.4957-2.4009.9742-4.043 1.0362-3.7501.1322-6.5961-3.5462-8.9576-6.8868-4.8628-6.7525-8.5437-19.0509-3.5431-27.3418 1.1573-2.017 2.8432-3.7075 4.89-4.9035 2.0469-1.1961 4.3835-1.8561 6.7776-1.9144 2.0917-.0369 4.0937.7242 5.8405 1.3883 1.3273.5046 2.5073.9532 3.4674.9532.8707 0 2.0075-.4308 3.3482-.939zm12.8527.8289c1.3415.7016 2.5306 1.6343 3.5101 2.7467-1.558 1.1071-2.864 2.5206-3.8275 4.1541-1.1556 1.9595-1.7801 4.1708-1.8127 6.4287l-.0001.0113.0001.0113c.0207 2.5473.8082 5.031 2.2627 7.1507 1.2787 1.8636 3.0237 3.3745 5.0632 4.3997-.8534 2.3262-2.0163 4.5387-3.4613 6.5821l-.0004.0006c-1.1893 1.6841-2.3266 3.246-3.6188 4.4042-1.2696 1.1379-2.629 1.8309-4.2641 1.859h-.0007c-1.6221.0289-2.6927-.4121-3.9858-.9447l-.0608-.0251c-1.3496-.5558-2.887-1.1704-5.2408-1.1704-2.3425 0-3.9064.5727-5.2794 1.1257-.0924.0372-.1835.0741-.2736.1106-1.232.499-2.2616.9159-3.7223.9713-1.5132.0529-2.9195-.6548-4.2961-1.8869-1.3817-1.2368-2.6263-2.9057-3.8084-4.5779l-.0051-.0071c-2.345-3.2563-4.4218-7.8807-5.298-12.6889-.8775-4.8149-.5308-9.6881 1.7997-13.552l.0056-.0094.0054-.0094c1.0687-1.8624 2.6281-3.4281 4.5272-4.5378 1.8984-1.1094 4.0683-1.7233 6.2941-1.778 1.6335-.0281 3.2476.4925 4.8295 1.0834.2029.0758.4078.1537.6128.2316.5668.2155 1.134.4312 1.66.6025.7162.2334 1.4673.4242 2.1846.4242.7341 0 1.5335-.2259 2.2999-.4884.4329-.1483.9271-.3353 1.4328-.5268h.0001.0001c.3709-.1404.7481-.2832 1.112-.4148 1.8178-.6573 3.8133-1.2338 5.9311-1.1124l.0572-.9978-.0379.9987c1.894.0719 3.7437.5622 5.4056 1.4314z" fill="#050504" fill-rule="evenodd"/></svg>