<svg fill="none" height="72" viewBox="0 0 72 72" width="72" xmlns="http://www.w3.org/2000/svg"><path clip-rule="evenodd" d="m15.2341 9.5c-3.1482 0-5.7341 2.5859-5.7341 5.7341v41.5317c0 3.1482 2.5859 5.7341 5.7341 5.7341h41.5317c3.1482 0 5.7341-2.5859 5.7341-5.7341v-41.5317c0-3.1482-2.5859-5.7341-5.7341-5.7341zm-6.7341 5.7341c0-3.7005 3.0336-6.7341 6.7341-6.7341h41.5317c3.7005 0 6.7341 3.0336 6.7341 6.7341v41.5317c0 3.7005-3.0336 6.7341-6.7341 6.7341h-41.5317c-3.7005 0-6.7341-3.0336-6.7341-6.7341zm15.8216 9.0011c.199-.1554.4827-.138.6612.0405l11.0611 11.0611 11.0611-11.0611c.1785-.1785.4622-.1959.6612-.0405.1991.1554.251.4348.1211.6513l-6.6945 11.1574 6.6945 11.1574c.1299.2165.078.4959-.1211.6513-.199.1554-.4827.138-.6612-.0405l-11.0611-11.0611-11.0611 11.0611c-.1785.1785-.4622.1959-.6612.0405-.1991-.1554-.251-.4348-.1211-.6513l6.6945-11.1574-6.6945-11.1574c-.1299-.2165-.078-.4959.1211-.6513zm2.8261 3.6196 4.7591 7.9318c.095.1584.095.3562 0 .5145l-4.7591 7.9319 8.1891-8.1891zm17.7924 16.3782-8.1891-8.1891 8.1891-8.1891-4.7591 7.9319c-.095.1583-.095.3561 0 .5144z" fill="#050504" fill-rule="evenodd"/></svg>