<svg fill="none" height="72" viewBox="0 0 72 72" width="72" xmlns="http://www.w3.org/2000/svg"><path clip-rule="evenodd" d="m10.3771 12.5c0-.2761.2239-.5.5-.5h17.9237c.2761 0 .5.2239.5.5v42.3841c0 .2761-.2239.5-.5.5h-17.9237c-.2761 0-.5-.2239-.5-.5zm1 .5v7.5578c.0422-.0116.0867-.0177.1326-.0177h16.7638l.0174.0003.0099.0004v-7.5408zm0 16.3596v-7.8373c.0422.0116.0867.0178.1326.0178h16.7638c.0092 0 .0182-.0003.0273-.0008v7.5408h-16.4748c-.197 0-.3674.1139-.4489.2795zm0 .4411v24.5834h16.9237v-24.304h-16.4748c-.197 0-.3674-.1139-.4489-.2794zm6.064-12.978c0-.2761.2239-.5.5-.5h3.6902c.2761 0 .5.2239.5.5 0 .2762-.2239.5-.5.5h-3.6902c-.2761 0-.5-.2238-.5-.5zm6.9314 30.0756c-.2762 0-.5.2239-.5.5 0 .2762.2238.5.5.5h1.0543c.2761 0 .5-.2238.5-.5 0-.2761-.2239-.5-.5-.5zm-5.6662.5c0-.2761.2238-.5.5-.5h1.0543c.2762 0 .5.2239.5.5 0 .2762-.2238.5-.5.5h-1.0543c-.2762 0-.5-.2238-.5-.5zm-4.7717-.5c-.2761 0-.5.2239-.5.5 0 .2762.2239.5.5.5h1.1598c.2762 0 .5-.2238.5-.5 0-.2761-.2238-.5-.5-.5zm9.9379-5.7205c0-.2762.2238-.5.5-.5h1.0543c.2761 0 .5.2238.5.5 0 .2761-.2239.5-.5.5h-1.0543c-.2762 0-.5-.2239-.5-.5zm-4.6662-.5c-.2762 0-.5.2238-.5.5 0 .2761.2238.5.5.5h1.0543c.2762 0 .5-.2239.5-.5 0-.2762-.2238-.5-.5-.5zm-5.7717.5c0-.2762.2239-.5.5-.5h1.1598c.2762 0 .5.2238.5.5 0 .2761-.2238.5-.5.5h-1.1598c-.2761 0-.5-.2239-.5-.5zm10.9379-6.826c-.2762 0-.5.2239-.5.5s.2238.5.5.5h1.0543c.2761 0 .5-.2239.5-.5s-.2239-.5-.5-.5zm-5.6662.5c0-.2761.2238-.5.5-.5h1.0543c.2762 0 .5.2239.5.5s-.2238.5-.5.5h-1.0543c-.2762 0-.5-.2239-.5-.5zm-4.7717-.5c-.2761 0-.5.2238-.5.5 0 .2761.2239.5.5.5h1.1598c.2762 0 .5-.2239.5-.5 0-.2762-.2238-.5-.5-.5zm-8.9346 18.3182c0-.2762.22386-.5.5-.5h2.10866c.27614 0 .5.2238.5.5 0 .2761-.22386.5-.5.5h-1.60866v6.3803h27.4669v-6.3803h-1.7141c-.2761 0-.5-.2239-.5-.5 0-.2762.2239-.5.5-.5h2.2141c.2762 0 .5.2238.5.5v7.3803c0 .2761-.2238.5-.5.5h-28.4669c-.27614 0-.5-.2239-.5-.5zm36.3473-35.3984c-.2761 0-.5.2239-.5.5v6.2206 35.9526c0 .2762.2239.5.5.5h24.355c.2762 0 .5-.2238.5-.5v-42.1732c0-.2761-.2238-.5-.5-.5zm.5 7.2206v25.5691h23.355v-25.5691zm0 34.9526v-8.3835h23.355v8.3835zm23.355-35.9526h-23.355v-5.2206h23.355zm-13.4172-3.0576c-.2761 0-.5.2239-.5.5 0 .2762.2239.5.5.5h3.3739c.2761 0 .5-.2238.5-.5 0-.2761-.2239-.5-.5-.5zm.1869 33.2656c.3831-.3831.912-.5813 1.5001-.5813s1.117.1982 1.5001.5813c.3832.3832.5814.9121.5814 1.5002v.0154c.0001.0932.0001.2095-.02.3303-.0216.1294-.0624.2478-.123.3739-.1542.4317-.4705.7652-.8045.9879-.3399.2267-.7512.3739-1.134.3739-.5881 0-1.117-.1982-1.5001-.5813-.3832-.3832-.5814-.9121-.5814-1.5001 0-.5881.1982-1.117.5814-1.5002zm.7071.7071c-.1704.1704-.2885.4322-.2885.7931 0 .3608.1181.6226.2885.793.1703.1704.4322.2884.793.2884.1443 0 .3657-.0635.5793-.2059.2107-.1405.361-.3223.4224-.5065.0075-.0224.0166-.0443.0271-.0655.0365-.0729.0433-.104.0463-.1222.0051-.0305.0064-.0661.0064-.1813 0-.3609-.1181-.6227-.2885-.7931-.1703-.1704-.4322-.2884-.793-.2884s-.6227.118-.793.2884z" fill="#050504" fill-rule="evenodd"/></svg>