<svg fill="none" height="72" viewBox="0 0 72 72" width="72" xmlns="http://www.w3.org/2000/svg"><path clip-rule="evenodd" d="m4.90478 18.4885h-.54309l.0448.5412.48046 5.8056.03797.4588h.46033 2.35113l3.44882 27.6892.0546.4382h.4416 48.8274.4441l.0524-.441 3.3008-27.7465h2.4688.4721l.0271-.4713.3303-5.7455.0304-.5287h-.5295zm.9408 5.8056-.39771-4.8056h61.12783l-.2729 4.7455h-2.4407-.444l-.0525.441-3.3008 27.7465h-47.9418l-3.44887-27.6892-.05458-.4382h-.44159zm7.35782.4399c0-.2761.2238-.5.5-.5h44.6634c.2761 0 .5.2239.5.5 0 .2762-.2239.5-.5.5h-44.6634c-.2762 0-.5-.2238-.5-.5zm24.438 4.5128c.4883.0046.9235.0166 1.1441.0468l.027.0037.0264.0066c.8611.2153 1.5745.7881 1.9894 1.557.1302.2362.3946.682.6316 1.0769.0657.1096.1289.2145.1858.3087l.578-.3294 1.4062-.8016-.7092 1.455-1.7417 3.5735-.1501.308-.3414-.0288-3.9138-.3304-1.6042-.1354 1.3987-.7972.582-.3317c-.0416-.0783-.0883-.1656-.1394-.2606-.2243-.4161-.534-.9764-.8767-1.555-.0313-.0528-.0628-.1057-.0945-.1585l-1.8829 3.2889-.2496.4359-.4347-.2515-3.6335-2.1021-.4334-.2507.2513-.433 1.4807-2.5512.0004-.0007c.2923-.5067.8197-1.037 1.4379-1.3592.3523-.1836.7617-.3117 1.1859-.3101l-.0007-.0316h.0002.0006l.0023-.0001.0092-.0002.0356-.0008.1355-.003c.117-.0026.2849-.0061.4887-.01.4073-.0079.9584-.0173 1.5326-.0235.5738-.0063 1.173-.0095 1.6757-.0047zm-2.1649 1.0109c.1325.157.267.3313.4009.5155.376.5169.7663 1.1379 1.1171 1.7301.3517.5938.6682 1.1665.8966 1.5902.1143.2121.2067.3873.2707.5097.032.0613.0569.1093.0739.1423l.0195.0377.005.0099.0014.0026.0003.0008.0002.0002s0 .0001-.4454.2274l.4454-.2273.217.4252-.0171.0098 1.9682.1661.8825-1.8105-.0168.0095-.2526-.4148.427-.2601-.4271.2601v-.0001l-.0001-.0002-.0005-.0007-.0017-.003-.0069-.0113-.0264-.0433-.0959-.1581c-.0805-.1329-.1906-.3153-.3093-.5131-.2354-.3923-.5107-.8559-.6511-1.1108l-.0023-.0042c-.2815-.5227-.7577-.906-1.3251-1.0562-.1594-.018-.5123-.0299-.9919-.0344-.4929-.0046-1.0843-.0015-1.6553.0047-.1698.0019-.3376.004-.5002.0063zm-.0394 1.6364c-.1241-.1874-.2476-.3667-.3684-.5328-.1748-.2404-.3392-.4466-.4872-.6076-.1533-.1668-.2671-.2605-.3382-.3016-.3453-.1996-.7615-.1658-1.2054.0655-.4475.2333-.8358.6285-1.034.9725l-.0008.0013-1.2301 2.1194 2.7654 1.5998zm-3.6852 3.7187.1479.3028 1.7417 3.5634.6842 1.3999-1.3709-.7404-.5929-.3201c-.0503.0794-.1069.1694-.1686.2683-.251.4027-.5851.9515-.9186 1.5381-.0276.0486-.0552.0974-.0827.1463h3.722.5v.5 4.2041.5h-.5-2.9028c-.5948 0-1.3196-.1944-1.9072-.5725-.3541-.2279-.6839-.5415-.8917-.9408l-.0203.0124-.0001-.0001-.0003-.0006-.0012-.0019-.0048-.0079-.0185-.0303-.0703-.1157c-.0607-.0998-.1477-.2432-.2529-.4173-.2105-.3482-.4942-.8198-.7872-1.313-.2928-.4928-.5959-1.0088-.8444-1.4453-.2421-.4252-.4496-.8043-.5358-1.0063l-.0126-.0296-.0087-.0309c-.2383-.8459-.0962-1.7437.3564-2.4845.1299-.2488.3764-.7046.5902-1.098l.1718-.3157-.5745-.3274-1.4348-.8178 1.6475-.1154 4.0039-.2802zm-2.8656 1.6133-.0001.0002-.0004.0007-.0016.003-.0063.0115-.0242.0442-.0883.1616c-.0742.1359-.1757.3221-.285.5231-.2195.4039-.4675.8628-.5902 1.0983l-.0086.0165-.0097.0157c-.3143.5076-.4109 1.111-.2629 1.6713.0689.1515.2376.463.4723.8752.2441.4287.5435.9387.8351 1.4293.099.1668.1971.3311.2915.489.0702-.1921.1542-.3943.247-.6008.2627-.5846.6092-1.2339.9505-1.8343.3422-.602.6837-1.163.9394-1.573.1279-.2052.2347-.373.3095-.4898.0375-.0584.067-.104.0872-.1352l.0233-.0358.0061-.0093.0016-.0025.0005-.0007.0001-.0002s.0001-.0001.4183.274l-.4182-.2741.2517-.3841.034.0184-.9095-1.8609-2.0296.1421-.2335.4266-.4386-.2401zm1.77 5.545c-.1048.2075-.2024.4103-.2892.6036-.1221.2718-.2195.5173-.2856.726-.0684.2162-.0928.3612-.0928.4426 0 .4023.2369.7484.6565 1.0185.4234.2724.9598.4134 1.366.4134h2.4028v-3.2041zm13.4805-6.9838-.2438-.4275-.4313.237-3.6435 2.002-.4443.2441.2502.4409 1.9083 3.3625c-.0719.0006-.1437.0009-.2152.0009-.6729.0006-1.3132-.0182-1.7858-.0373-.1113-.0044-.2131-.0089-.3038-.0132v-.6469-1.5787l-.9088 1.2909-2.2622 3.2131-.1972.2801.19.2851 2.2022 3.3032.916 1.374v-1.6514-.6411h.0047.0047.0048.0047.0047.0048.0048.0047.0048.0048.0049.0048.0049.0048.0049.0049.0049.0049.0049.005.0049.005.005.0049.005.005.0051.005.005.0051.0051.005.0051.0051.0051.0051.0052.0051.0051.0052.0052.0051.0052.0052.0052.0052.0053.0052.0052.0053.0052.0053.0053.0053.0053.0053.0053.0053.0053.0053.0054.0053.0054.0053.0054.0054.0053.0054.0054.0054.0054.0054.0055.0054.0054.0054.0055.0054.0055.0054.0055.0055.0054.0055.0055.0055.0055.0055.0055.0055.0055.0055.0055.0055.0055.0056.0055.0055.0056.0055.0055.0056.0055.0056.0055.0056.0055.0056.0056.0055.0056.0056.0055.0056.0056.0055.0056.0056.0055.0056.0056.0056.0055.0056.0056.0056.0055.0056.0056.0056.0055.0056.0056.0056.0055.0056.0056.0055.0056.0056.0055.0056.0055.0056.0056.0055.0056.0055.0055.0056.0055.0056.0055.0055.0055.0056.0055.0055.0055.0055.0055.0055.0055.0055.0055.0055.0055.0054.0055.0055.0054.0055.0054.0054.0055.0054.0054.0055.0054.0054.0054.0054.0053.0054.0054.0054.0053.0054.0053.0054.0053.0053.0053.0053.0053.0053.0053.0053.0052.0053.0052.0053.0052.0052.0053.0052.0052.0051.0052.0052.0051.0052.0051.0052.0051.0051.0051.0051.005.0051.005.0051.005.005.005.005.005.005.005.0049.005.0049.0049.0049.0049.0049.0048.0049.0048.0048.0048.0048.0048.0048.0048.0047.0047.0048.0047.0046.0047.0047.0046.0046.0047.0046.0045.0046.0046.0045.0045.0045.0045.0045.0045.0044.0044.0045.0044.0043.0044.0043.0044.0043.0043.0043.0042.0043.0042.0042.0042.0042.0041.0042.0041.0041.0041.004.0041.004.004.004.0039.004.0039.0039.0039.0039.0039.0038.0038.0038.0038.0037.0037.0037.0037.0037.0036.0037.0036.0036.0035.0036.0035.0035.0035.0034.0034.0034.0034.0034.0004c.8856.0326 1.7377-.2999 2.3651-.9272l.0222-.0222.0192-.0248c.1357-.1749.3639-.5444.6129-.9642.2564-.4321.5545-.9515.8372-1.4506.2831-.4996.5519-.9807.7498-1.3367.099-.1781.1803-.325.2369-.4275l.0655-.1187.0173-.0312.0044-.008.0011-.0021.0003-.0005.0001-.0001-.0222-.0122c.2293-.3735.3308-.8045.3513-1.2137.0348-.6982-.1561-1.4215-.4407-1.9315l-.0023-.004zm-.8545 5.7817c-.196.019-.4036.0339-.6183.0454l-1.92-3.3833 2.768-1.5209 1.2164 2.1329c.1953.3509.3392.8878.314 1.3924-.025.501-.2063.8801-.5574 1.0812-.0716.041-.21.0921-.4315.14-.214.0464-.4751.0836-.7712.1123zm-5.0547.9713v-.0118l-1.1561 1.6421 1.1029 1.6544h.4932.0001.0001.0001.0001.0002.0003.0002.0003.0004.0003.0004.0005.0004.0006.0005.0006.0006.0006.0007.0007.0007.0008.0008.0009.0008.0009.001.001.001.001.0011.0011.0011.0012.0012.0012.0012.0013.0014.0013.0014.0014.0015.0014.0015.0016.0016.0016.0016.0016.0017.0017.0018.0018.0018.0018.0019.0019.0019.002.0019.002.0021.0021.002.0022.0021.0022.0022.0022.0023.0023.0023.0024.0023.0024.0025.0024.0025.0025.0025.0026.0026.0026.0026.0027.0027.0027.0027.0028.0028.0028.0028.0029.0029.0029.0029.003.003.003.0031.003.0031.0031.0031.0032.0032.0032.0032.0033.0032.0033.0033.0034.0034.0033.0034.0035.0034.0035.0035.0035.0036.0035.0036.0036.0036.0037.0037.0036.0038.0037.0037.0038.0038.0038.0038.0039.0039.0038.004.0039.0039.004.004.004.004.0041.004.0041.0041.0041.0042.0041.0042.0042.0042.0042.0043.0042.0043.0043.0043.0043.0044.0044.0043.0044.0044.0045.0044.0045.0045.0044.0046.0045.0045.0046.0045.0046.0046.0046.0047.0046.0047.0046.0047.0047.0048.0047.0047.0048.0048.0047.0048.0048.0049.0048.0049.0048.0049.0049.0049.0049.0049.005.0049.005.005.0049.005.005.0051.005.005.0051.0051.005.0051.0051.0051.0051.0052.0051.0051.0052.0052.0051.0052.0052.0052.0052.0053.0052.0052.0053.0052.0053.0053.0053.0053.0053.0053.0053.0053.0053.0054.0053.0054.0053.0054.0054.0053.0054.0054.0054.0054.0054.0055.0054.0054.0054.0055.0054.0055.0054.0055.0055.0054.0055.0055.0055.0055.0055.0055.0055.0055.0055.0055.0055.0055.0056.0055.0055.0056.0055.0055.0056.0055.0056.0055.0056.0055.0056.0056.0055.0056.0056.0055.0056.0056.0055.0056.0056.0055.0056.0056.0056.0055.0056.0056.0056.0055.0056.0056.0056.0055.0056.0056.0056.0055.0056.0056.0055.0056.0056.0055.0056.0055.0056.0056.0055.0056.0055.0055.0056.0055.0056.0055.0055.0055.0056.0055.0055.0055.0055.0055.0055.0055.0055.0055.0055.0055.0054.0055.0055.0054.0055.0054.0054.0055.0054.0054.0055.0054.0054.0054.0054.0053.0054.0054.0054.0053.0054.0053.0054.0053.0053.0053.0053.0053.0053.0053.0053.0052.0053.0052.0053.0052.0052.0053.0052.0052.0051.0052.0052.0051.0052.0051.0052.0051.0051.0051.0051.005.0051.005.0051.005.005.005.005.005.005.005.0049.005.0049.0049.0049.0049.0049.0048.0049.0048.0048.0048.0048.0048.0048.0048.0047.0047.0048.0047.0046.0047.0047.0046.0046.0047.0046.0045.0046.0046.0045.0045.0045.0045.0045.0045.0044.0044.0045.0044.0043.0044.0043.0044.0043.0043.0043.0042.0043.0042.0042.0042.0042.0041.0042.0041.0041.0041.004.0041.004.004.004.0039.004.0039.0039.0039.0039.0039.0038.0038.0038.0038.0037.0037.0037.0037.0037.0036.0037.0036.0036.0035.0036.0035.0035.0035.0034.0034.0034.0034.0034.0033.0034.0033.01l.0099.0004c.6011.0241 1.1761-.1953 1.605-.6116.0962-.1308.2824-.4287.5249-.8374.2513-.4237.5457-.9366.8272-1.4334.0891-.1573.1769-.3128.2614-.4632-.2031.0349-.4221.0625-.6493.0845-.6374.0618-1.3717.0823-2.0607.0829-.6909.0007-1.3456-.0187-1.827-.0381-.241-.0097-.439-.0195-.5771-.0268-.0691-.0037-.1232-.0068-.1602-.0089l-.0425-.0026-.0111-.0006-.0029-.0002-.0009-.0001h-.0002c-.0001 0-.0001 0 .0314-.499l-.0315.499z" fill="#050504" fill-rule="evenodd"/></svg>