<svg fill="none" height="72" viewBox="0 0 72 72" width="72" xmlns="http://www.w3.org/2000/svg"><path clip-rule="evenodd" d="m28.4381 5.43531c0-.27062.2194-.49.49-.49h15.3549c.2707 0 .49.21938.49.49v5.65599h8.729c.2706 0 .49.2194.49.49v55.2737c0 .2706-.2194.49-.49.49h-34.8039c-.2706 0-.49-.2194-.49-.49v-55.2737c0-.2706.2194-.49.49-.49h9.74zm15.3549 5.65599h-14.3749v-5.16599h14.3749zm-14.868.98h-9.7369v54.2937h33.8239v-54.2937h-8.7259c-.001 0-.002 0-.0031 0h-15.3549c-.001 0-.0021 0-.0031 0zm10.6058 14.4292c.2351.134.3171.4332.1831.6683l-6.5517 11.4958 7.5808-1.2016c.1861-.0295.3726.0503.4798.2053.1071.155.1159.3578.0225.5214l-7.9778 13.9836c-.1341.2351-.4333.3169-.6684.1828-.235-.1341-.3169-.4333-.1828-.6684l7.472-13.097-7.5803 1.2015c-.186.0295-.3725-.0503-.4797-.2053-.1071-.1549-.116-.3576-.0227-.5213l7.0569-12.382c.134-.2351.4332-.3171.6683-.1831z" fill="#050504" fill-rule="evenodd"/></svg>