<svg fill="none" height="72" viewBox="0 0 72 72" width="72" xmlns="http://www.w3.org/2000/svg"><path clip-rule="evenodd" d="m12.1118 10.4206h-.2012l-.1451.1394-6.76699 6.4971h-.02329v.5 43.6824.5h.5 61.34968.5v-.5-43.6824-.5h-.0526l-6.5003-6.4903-.1464-.1462h-.2068zm53.7452 6.6365-5.6451-5.6365h-47.8989l-5.87061 5.6365zm-59.88178 1v42.6824h60.34968v-42.6824zm34.93458 10.0202 2.3623 4.4744-5.0549-.1902 1.0431-1.6597c-.9241-.3137-1.8951-.474-2.8743-.4729h-.0028c-1.5564-.007-3.0886.3853-4.4501 1.1395s-2.5068 1.845-3.3264 3.1682c-.8196 1.3231-1.2861 2.8344-1.3549 4.3893s.2624 3.1014.9619 4.4918c.1241.2467.0248.5473-.2219.6714s-.5473.0247-.6714-.222c-.7764-1.5431-1.144-3.2596-1.0676-4.9854s.5941-3.4032 1.5038-4.8717c.9097-1.4686 2.1808-2.6793 3.6919-3.5163 1.5107-.8369 3.2108-1.2723 4.9378-1.2648 1.168-.0012 2.3256.2041 3.4195.605zm4.5597 6.7302c-.1251-.2462-.4261-.3443-.6723-.2192-.2462.1252-.3443.4262-.2192.6723.7053 1.3875 1.0433 2.9325.9818 4.4877s-.5205 3.0687-1.3331 4.3962c-.8127 1.3274-1.9519 2.4245-3.309 3.1865-1.357.7621-2.8868 1.1637-4.4432 1.1666h-.0009c-.9815.0036-1.9552-.1551-2.8821-.4681l1.0321-1.6544-5.0549-.1802 2.3823 4.4644 1.0982-1.7604c1.0969.3997 2.2572.6029 3.4276.5987 1.7271-.0033 3.4246-.449 4.9306-1.2946 1.506-.8458 2.7703-2.0633 3.6721-3.5364.9019-1.4732 1.4112-3.1528 1.4795-4.8788.0683-1.7259-.3068-3.4405-1.0895-4.9803zm-8.9927 14.6901h-.0004l-.0009-.4999.0018.4999z" fill="#050504" fill-rule="evenodd"/></svg>