<svg fill="none" height="72" viewBox="0 0 72 72" width="72" xmlns="http://www.w3.org/2000/svg"><path d="m36.044 17.9802h14.1007c1.0001 0 1.9001-.2048 2.8002-.6144.9-.512 1.3001-1.6383.9-2.5599 0-.1024-.1-.2048-.1-.2048l-3.9002-6.65561c-.7-1.22873-1.9001-1.94549-3.3002-1.94549h-21.0011c-1.3001 0-2.6002.71676-3.3002 1.94549l-3.9002 6.65561c-.6.9216-.4 2.0479.5 2.6623.1.1024.2.1024.2.1024.8001.4096 1.8001.7167 2.8002.6144z" stroke="#050504" stroke-miterlimit="10"/><path d="m54 15.5v49.2032c0 .5976-.8022.7968-1.4039.7968h-33.1922c-.6017 0-1.4039-.2988-1.4039-.7968v-49.2032" stroke="#050504" stroke-miterlimit="10"/><g fill="#050504"><path d="m39.1544 13.7176 1.3018.9013-.8011-.9013.4006-.8011-.9013.8011-1.2016-.8011.7009.8011-.5007.9013z"/><path d="m32.4451 13.6174h-1.0014l.1001-.6008h-.2003l-.4005 1.5021h.2003l.2002-.701h1.1016l-.2003.701h.3004l.3004-1.5021h-.3004z"/><path d="m33.3463 14.5187h1.3018v-.1002h-1.0014v-.6008h.9013v-.2003h-.8011v-.5007h.9012l.1002-.1001h-1.2017z"/><path d="m35.6495 13.0166h-.3004v1.5021h1.2017v-.1002h-1.0014z"/><path d="m37.0515 13.0166.2 1.5021h.2l-.1-1.5021z"/></g></svg>