<svg fill="none" height="72" viewBox="0 0 72 72" width="72" xmlns="http://www.w3.org/2000/svg"><path clip-rule="evenodd" d="m11.5142 16.6628c-1.2138 0-2.41589.6656-3.06403 1.8009l-3.1025 5.2944c-.19885.309-.31141.6445-.34003.979h-.00764v39.229c0 .4955.39127.7822.65737.9143.29506.1466.65201.221.96194.221h26.46369c.2822 0 .639-.045.9453-.1833.308-.1391.674-.4339.674-.952v-39.1344c.0007-.0309.0007-.0618 0-.0928v-.0018c-.0055-.2309-.05-.4629-.1377-.6865-.0256-.1208-.0795-.2101-.1068-.252-.0176-.027-.0348-.0501-.0495-.0686l-3.086-5.2662c-.6444-1.1289-1.7633-1.801-3.0641-1.801zm22.1881 9.9397c-.0307.0196-.0621.0386-.094.0567l-.0196.0112-.0205.0093c-.7799.3549-1.5679.5348-2.4397.5348h-11.2423-11.29755c-.88839.0841-1.74766-.1784-2.42057-.5124-.01532-.004-.0313-.0088-.04782-.0145-.03842-.0131-.07899-.0305-.12026-.0533v37.2857c.01782.0156.05002.0389.10216.0648.14467.0718.34737.1166.51715.1166h26.46369c.1975 0 .4004-.0345.5338-.0947.0489-.0221.0743-.0413.0855-.0515zm-27.7023-1.6719c.0078.3096.16279.5973.44617.794h.00597l.1073.055c.58718.3006 1.28543.5059 1.95375.4375l.02539-.0026h.02553 11.32209 11.2423c.7149 0 1.3557-.1435 2.0035-.435.4958-.2941.6967-.9159.488-1.3967l-.0335-.0773-.0189-.0323-3.1096-5.3064-.0031-.0053c-.4722-.8288-1.2661-1.2987-2.1967-1.2987h-16.744c-.8583 0-1.72822.4764-2.19671 1.2987l-.00302.0053h-.00004l-3.10958 5.3064-.00596.0102-.00642.0098c-.12496.1919-.18759.3936-.19247.5882zm3.19261-.6554c.66142 0 1.19759-.286 1.19759-.6387 0-.3528-.53617-.6387-1.19759-.6387-.66141 0-1.19759.2859-1.19759.6387 0 .3527.53618.6387 1.19759.6387zm21.71629-.5589c0 .2205-.3217.3992-.7185.3992-.3969 0-.7186-.1787-.7186-.3992 0-.2204.3217-.3992.7186-.3992.3968 0 .7185.1788.7185.3992zm26.5247 14.7837h.003c.793 0 1.4006.2024 1.9001.6226.0802.0675.1565.1397.2295.2162.2838.2063.6527.4535 1.0826.7328.3176.2064.6612.4256 1.0184.6535l.0552.0351c.3762.2401.7663.4892 1.152.74.7693.5004 1.532 1.0148 2.1461 1.4895.3071.2373.5847.4705.8105.6923.2158.212.4118.4398.5306.6724l3.3385 5.9794.0065.0116-.0001.0001c.6268 1.1965.622 2.6138.0043 3.849l-.0006.0011-3.9828 7.9165c-.2426.5929-.6772 1.099-1.318 1.3556l-.0084.0034-.0085.003c-1.0029.3599-2.5865.7769-4.0661 1.1029-1.4631.3223-2.901.5731-3.5881.5731v-.0647c-.1135.0098-.2301.0147-.3497.0147h-7.9844-.0086l-.0086-.0003c-1.6352-.0565-3.1518-1.0663-3.8302-2.5357l-.0052-.0113-.0047-.0117-3.5838-8.9102c-.6147-1.1915-.6061-2.5983.0074-3.8255l.0003-.0005 4.441-8.9316.0004-.0009c.7313-1.4632 2.2017-2.3752 3.8471-2.3225zm1.5981 25.3252c.3438-.0671.7069-.1427 1.0796-.2248 1.4599-.3216 2.9901-.7263 3.9342-1.0642.3459-.1411.6045-.4232.7619-.8165l.008-.0198.0096-.0191 3.9914-7.9335.0003-.0007c.479-.9583.4751-2.0333.0069-2.9314l-3.3401-5.9823-.0056-.0099-.0051-.0103c-.0439-.0879-.1491-.2273-.3426-.4173-.187-.1837-.431-.3902-.7212-.6145-.5803-.4486-1.3147-.9447-2.0798-1.4424-.3816-.2481-.7681-.495-1.1447-.7352l-.0563-.036c-.1238-.0789-.2464-.1572-.3673-.2344l3.9115 8.4751c.6208 1.1941.614 2.6062-.0017 3.8375l-.004.0081-.0044.008-4.9862 9.1241c-.1909.3811-.4014.732-.6444 1.0395zm-.5145-24.0659-.0135.0154c.1085.0955.2415.2007.3937.3135.2261.2542.4379.6034.6854 1.0783l4.1867 9.0715.0053.0114.0058.0111c.4699.897.476 1.9713-.0003 2.9298l-4.986 9.1238-.0044.0081-.0041.0082c-.3075.6153-.6277 1.0521-.9985 1.3365-.3592.2755-.7984.4332-1.3987.4332h-7.9754c-1.252-.0465-2.4224-.8271-2.9434-1.9442l-3.5879-8.9206-.0094-.0233-.0116-.0222c-.4712-.8993-.476-1.9772.0043-2.9377l.0005-.001 4.441-8.9317.0002-.0003c.5642-1.1285 1.6837-1.8124 2.9283-1.7695l.0102.0004.0101-.0001 8.1811-.0499h.0015c.4869.0002.8187.0958 1.0791.2593z" fill="currentColor" fill-rule="evenodd"/></svg>