<svg fill="none" height="72" viewBox="0 0 72 72" width="72" xmlns="http://www.w3.org/2000/svg"><path clip-rule="evenodd" d="m23.9497 7.64569c.8028-1.36364 2.2832-2.14569 3.857-2.14569h21.3744c1.5738 0 3.0542.78205 3.8569 2.14567.3773.61814.9585 1.54508 1.6072 2.57963l.0015.0024.0008.0013.0005.0008.3301.5265c.7799 1.2442 1.619 2.5867 2.2929 3.6962.0141.0233.0263.0476.0364.0728.1745.4331.2266.883.1718 1.3115v8.5971c0 .2762-.2238.5-.5.5-.2761 0-.5-.2238-.5-.5v-6.8752c-.0947.071-.1952.1362-.3014.1948-.0063.0035-.0127.0068-.0192.01-.8898.4419-1.9775.6531-3.0454.6531h-14.5185-14.6959c-1.1016.1045-2.0992-.1192-3.0792-.6578l-.1921-.0954c-.0185-.0092-.0364-.0195-.0537-.0309-.025-.0166-.0496-.0336-.0738-.0509v38.5749c0 .2761-.2239.5-.5.5-.2762 0-.5-.2239-.5-.5v-40.6565c0-.0388.0044-.0766.0128-.1129.0399-.397.1762-.7906.4115-1.1445zm32.5295 7.60831v.5114c-.0754.4606-.3533.8709-.7755 1.1075-.7218.356-1.6463.5437-2.5905.5437h-14.5185-14.7201c-.0165 0-.033.0008-.0495.0024-.9013.0895-1.7078-.0863-2.532-.5411l-.0081-.0043-.0111-.0057-.1718-.0853c-.3825-.2643-.5918-.6807-.6021-1.1174v-.0682c.0065-.2743.0914-.5539.2609-.8065l.0044-.0067.0073-.0115 4.0329-6.60922.0001.00004.0042-.00726c.6093-1.03739 1.749-1.65586 2.9969-1.65586h21.3744c1.2478 0 2.3876.61847 2.9968 1.65586v.00003l.0044.00719c.3812.62473.9685 1.56138 1.619 2.59882l.3295.5255c.7715 1.2309 1.5971 2.5517 2.263 3.6472.0399.1058.0681.2127.0854.3194zm-43.7852 42.8505c.0876-.0678.1953-.1045.306-.1045h27.5c.1135 0 .2235.0385.3121.1093l3.8617 3.0856c.1994.1593.2468.4431.1101.6586l-3.3046 5.2072c-.0917.1445-.251.2321-.4222.2321h-28.7399c-.1712 0-.3305-.0876-.4222-.2321l-3.30456-5.2072c-.13831-.218-.08798-.5054.11617-.6634zm.4769.8955-3.49206 2.7022 2.91326 4.5906h28.1901l2.9171-4.5966-3.3745-2.6962zm30.7902 7.2928c-.2761 0-.5.2238-.5.5 0 .2761.2239.5.5.5h5.3074c.2762 0 .5-.2239.5-.5 0-.2762-.2238-.5-.5-.5zm7.411-39.5557c0-.2761.2239-.5.5-.5h11.0153c.2762 0 .5.2239.5.5v40.1558c0 .2761-.2238.5-.5.5h-11.0153c-.2761 0-.5-.2239-.5-.5zm1 .5v39.1558h10.0153v-39.1558zm3.5056 3.1057c-.2761 0-.5.2239-.5.5 0 .2762.2239.5.5.5h3.1043c.2762 0 .5-.2238.5-.5 0-.2761-.2238-.5-.5-.5zm-2.2024 23.8324c0-.2761.2239-.5.5-.5h.6c.2762 0 .5.2239.5.5 0 .2762-.2238.5-.5.5h-.6c-.2761 0-.5-.2238-.5-.5zm3.4041-.5c-.2762 0-.5.2239-.5.5 0 .2762.2238.5.5.5h.6c.2761 0 .5-.2238.5-.5 0-.2761-.2239-.5-.5-.5zm-3.4041 4.806c0-.2761.2239-.5.5-.5h.6c.2762 0 .5.2239.5.5 0 .2762-.2238.5-.5.5h-.6c-.2761 0-.5-.2238-.5-.5zm3.4041-.5c-.2762 0-.5.2239-.5.5 0 .2762.2238.5.5.5h.6c.2761 0 .5-.2238.5-.5 0-.2761-.2239-.5-.5-.5zm-3.4041 4.7059c0-.2762.2239-.5.5-.5h.6c.2762 0 .5.2238.5.5 0 .2761-.2238.5-.5.5h-.6c-.2761 0-.5-.2239-.5-.5zm3.4041-.5c-.2762 0-.5.2238-.5.5 0 .2761.2238.5.5.5h.6c.2761 0 .5-.2239.5-.5 0-.2762-.2239-.5-.5-.5zm2.5041-8.0119c0-.2761.2239-.5.5-.5h.6c.2762 0 .5.2239.5.5 0 .2762-.2238.5-.5.5h-.6c-.2761 0-.5-.2238-.5-.5zm.5 3.806c-.2761 0-.5.2239-.5.5 0 .2762.2239.5.5.5h.6c.2762 0 .5-.2238.5-.5 0-.2761-.2238-.5-.5-.5zm-.5 4.7059c0-.2762.2239-.5.5-.5h.6c.2762 0 .5.2238.5.5 0 .2761-.2238.5-.5.5h-.6c-.2761 0-.5-.2239-.5-.5zm-3.0055-13.8192c0-.4429.359-.8018.8018-.8018s.8018.3589.8018.8018c0 .4428-.359.8018-.8018.8018s-.8018-.359-.8018-.8018zm.8018-1.8018c-.9951 0-1.8018.8067-1.8018 1.8018s.8067 1.8018 1.8018 1.8018 1.8018-.8067 1.8018-1.8018-.8067-1.8018-1.8018-1.8018z" fill="currentColor" fill-rule="evenodd"/></svg>