<svg fill="none" height="72" viewBox="0 0 72 72" width="72" xmlns="http://www.w3.org/2000/svg"><g stroke="currentColor" stroke-linecap="round" stroke-linejoin="round"><path d="m14.9207 52.5731v-34.4479"/><path d="m39.3546 61.7858h-4.5062"/><path d="m30.4421 20.128h12.217c.8011 0 1.7024-.2003 2.4033-.5007.8012-.4006 1.1016-1.402.8012-2.2031 0-.1001-.1002-.1001-.1002-.2003l-3.4047-5.6078c-.6008-1.0013-1.7024-1.6022-2.8039-1.6022h-18.1252c-1.2016 0-2.203.6009-2.8039 1.6022l-3.4047 5.6078c-.5007.701-.3004 1.8025.4006 2.3032l.2002.1002c.701.4005 1.6023.6008 2.4034.5007z"/><path d="m46.064 25.9361v-7.8109"/><path d="m51.0709 27.9388h-9.313v33.9472h9.313z"/><path d="m45.0625 31.3435h2.7038"/><path d="m43.6606 49.3685h.5"/><path d="m46.1641 49.3685h.5"/><path d="m43.6606 52.8734h.5"/><path d="m46.1641 52.8734h.5"/><path d="m43.6606 56.4784h.5"/><path d="m46.1641 56.4784h.5"/><path d="m48.5674 49.3685h.5"/><path d="m48.5674 52.8734h.5"/><path d="m48.5674 56.4784h.5"/><path d="m46.3643 45.9638c.6084 0 1.1016-.4932 1.1016-1.1015 0-.6084-.4932-1.1016-1.1016-1.1016-.6083 0-1.1015.4932-1.1015 1.1016 0 .6083.4932 1.1015 1.1015 1.1015z"/><path d="m63.6884 52.2726h-4.5062c-.3004 0-.6009.2003-.701.4005l-2.2031 3.9055c-.2002.3004-.2002.6008 0 .9012l2.2031 3.9054c.2003.3005.4006.4006.701.4006h4.5062c.3004 0 .6009-.2003.8011-.4006l2.2031-3.9054c.2003-.3004.2003-.6008 0-.9012l-2.2031-3.9055c-.2002-.2002-.5007-.4005-.8011-.4005z"/><path d="m35.2489 57.3796-2.8039 4.4062h-24.23364l-2.80389-4.4062"/><path d="m5.40747 57.3797 3.10431-2.7038h23.63282l3.1043 2.7038"/></g></svg>