<svg fill="none" height="72" viewBox="0 0 72 72" width="72" xmlns="http://www.w3.org/2000/svg"><g stroke="#050504"><g stroke-linecap="round" stroke-linejoin="round"><path d="m63.9672 13.7335h-54.9672v48.7407h54.9672z"/><path d="m30.7293 17.7184c-.8702 0-1.5903-1.7199-1.7376-3.9822-.0206-.285-.0289-.5768-.0289-.8742 0-2.6892.7889-4.862 1.7665-4.862.9777 0 1.7668 2.1728 1.7668 4.862 0 .2974-.0083.5892-.0289.8742"/><path d="m19.8406 17.7184c-.8661 0-1.5903-1.7199-1.7377-3.9822-.0206-.285-.0289-.5768-.0289-.8742 0-2.6892.7917-4.862 1.7666-4.862s1.768 2.1728 1.768 4.862c0 .2974-.0102.5888-.0304.8742"/><path d="m52.0305 17.7184c-.8702 0-1.5903-1.7199-1.7376-3.9822-.0207-.285-.029-.5768-.029-.8742 0-2.6892.789-4.862 1.7666-4.862s1.7694 2.1728 1.7694 4.862c0 .2974-.0101.5888-.0303.8742"/><path d="m41.1431 17.7184c-.8675 0-1.5903-1.7199-1.7377-3.9822-.0202-.2854-.0302-.5768-.0302-.8742 0-2.6892.793-4.862 1.7679-4.862.9748 0 1.7667 2.1728 1.7667 4.862 0 .2974-.0083.5892-.0289.8742"/><path d="m9 23.2578h54.9672"/></g><path d="m25.6994 44.4846 6.137 6.137 17.5517-17.5518"/></g></svg>