<svg fill="none" height="72" viewBox="0 0 72 72" width="72" xmlns="http://www.w3.org/2000/svg"><path clip-rule="evenodd" d="m35.9499 5.70863c-.2761 0-.5.22385-.5.5v21.73017c0 .2762.2239.5.5.5h7.0104v7.0104c0 .2023.1219.3846.3087.462s.4019.0346.5449-.1084l7.364-7.364h15.9153c.2761 0 .5-.2238.5-.5v-21.73017c0-.27615-.2239-.5-.5-.5zm.5 21.73017v-20.73017h30.1433v20.73017h-15.6224c-.1326 0-.2598.0527-.3536.1465l-6.6569 6.6568v-6.3033c0-.2761-.2238-.5-.5-.5zm-16.8924-13.2935c-1.9033-1.6794-4.8105-1.5661-6.5978.3269l-1.0963 1.0964-4.00557 4.0055-.50069.5007.27912.2791-.27912-.2791-.30042.3004c-.01673.0168-.03225.0347-.04645.0536-2.86549 3.8206-2.46208 9.2749-.15078 14.9584 2.32154 5.7088 6.62091 11.7958 11.81161 17.037l-.0001.0001.0089.0084c5.2392 5.0378 11.324 9.3099 17.0298 11.6556 5.6783 2.3344 11.1332 2.8173 14.9566.0028.0203-.0149.0394-.0313.0572-.0491l.3004-.3004.5007-.5007 4.0056-4.0056 1.1015-1.1015c2.0492-2.0492 2.1586-5.109.2622-6.6498-.0083-.0067-.0168-.0132-.0255-.0194-.0091-.0064-.0183-.0126-.0278-.0184l-9.0755-5.5849c-1.0416-.9169-2.2653-1.3088-3.4868-1.1965-1.2266.1128-2.4092.7294-3.3793 1.7513l-3.4455 3.4455c-.4606.2276-1.0662.2865-1.8233.155-.7893-.1371-1.7007-.4744-2.6954-.9809-1.985-1.0108-4.2231-2.6544-6.3557-4.5379-1.9723-1.9742-3.6839-4.2058-4.7032-6.2201-.5109-1.0096-.8369-1.9433-.9458-2.7484-.1058-.7826-.0023-1.4039.2895-1.8666l3.4677-3.4677c1.0193-1.0193 1.6106-2.202 1.7095-3.4173.0984-1.2085-.2944-2.4019-1.1555-3.4378l-5.5888-9.0818c-.0259-.0421-.0579-.0801-.095-.1128zm-5.8749 1.018c1.4005-1.4881 3.6584-1.5891 5.1586-.3155l5.5674 9.0471c.013.021.0275.0411.0434.06.7242.86 1.0241 1.8085.9481 2.7417-.0763.9377-.5365 1.908-1.4199 2.7913l-3.5048 3.5049c-.0233.0232-.0443.0488-.0625.0762-.4901.7351-.6028 1.6404-.4738 2.5943.129.9536.504 1.9977 1.0445 3.0659 1.0818 2.1378 2.8706 4.458 4.8993 6.4867.0072.0072.0147.0143.0224.0211 2.17 1.9176 4.4836 3.6245 6.5757 4.6898 1.0456.5324 2.0557.9148 2.9781 1.075.9209.16 1.7975.1052 2.5315-.2923.0424-.023.0813-.052.1154-.0861l3.5048-3.5049.0002.0001.0093-.0098c.8315-.8777 1.8-1.3609 2.7495-1.4482.9432-.0867 1.9091.2125 2.7627.9763.0222.0198.046.0376.0714.0532l9.0834 5.5898c1.2853 1.0719 1.3826 3.4015-.3627 5.1468l-1.1015 1.1015-4.0056 4.0056-.5007.5007-.2733.2733c-3.3861 2.469-8.3826 2.1459-13.9535-.1444-5.5583-2.285-11.5384-6.4729-16.7127-11.4473-5.1215-5.1722-9.3323-11.1502-11.59148-16.7056-2.26381-5.5667-2.51619-10.5647.0035-13.9536l.27492-.275.5007-.5007 4.00556-4.0055 1.1015-1.1016zm32.6818 1.7602c0 1.0508-.8519 1.9026-1.9027 1.9026s-1.9026-.8518-1.9026-1.9026.8518-1.9026 1.9026-1.9026 1.9027.8518 1.9027 1.9026zm5.1071 1.9026c1.0508 0 1.9026-.8518 1.9026-1.9026s-.8518-1.9026-1.9026-1.9026-1.9027.8518-1.9027 1.9026.8519 1.9026 1.9027 1.9026zm9.1126-1.9026c0 1.0508-.8518 1.9026-1.9026 1.9026s-1.9027-.8518-1.9027-1.9026.8519-1.9026 1.9027-1.9026 1.9026.8518 1.9026 1.9026z" fill="currentColor" fill-rule="evenodd"/></svg>