<svg fill="none" height="72" viewBox="0 0 72 72" width="72" xmlns="http://www.w3.org/2000/svg"><path clip-rule="evenodd" d="m27.257 13.5432c0-.2762.2239-.5.5-.5h22.582c.2761 0 .5.2238.5.5v7.6279h15.7658c.2761 0 .5.2238.5.5v18.8289 16.4053c0 .2761-.2239.5-.5.5h-61.42975c-.27614 0-.5-.2239-.5-.5v-16.4053-18.8289-3.6711c0-.2761.22386-.5.5-.5h6.32495c.2761 0 .5.2239.5.5v3.1711h15.257zm-16.257 7.6279v-2.6711h-5.32495v2.6711zm-5.32495 1v17.8289h14.82495c.2761 0 .5.2239.5.5s-.2239.5-.5.5h-14.82495v15.4053h60.42975v-15.4053h-6.1048c-.2761 0-.5-.2239-.5-.5s.2239-.5.5-.5h6.1048v-17.8289h-15.7658c-.2762 0-.5-.2239-.5-.5v-7.6279h-21.582v7.6279c0 .2761-.2239.5-.5.5h-16.257zm33.32495 4.3289c-6.9036 0-12.5 5.5964-12.5 12.5s5.5964 12.5 12.5 12.5 12.5-5.5964 12.5-12.5-5.5964-12.5-12.5-12.5zm-13.5 12.5c0-7.4558 6.0442-13.5 13.5-13.5s13.5 6.0442 13.5 13.5-6.0442 13.5-13.5 13.5-13.5-6.0442-13.5-13.5zm5 0c0-4.6944 3.8056-8.5 8.5-8.5.2761 0 .5-.2239.5-.5s-.2239-.5-.5-.5c-5.2467 0-9.5 4.2533-9.5 9.5 0 3.7308 2.1506 6.9583 5.2775 8.5122.2473.1229.5474.0221.6703-.2252s.022-.5474-.2253-.6703c-2.8-1.3915-4.7225-4.28-4.7225-7.6167zm17.6286-2.6386c-.0765-.2653-.3537-.4184-.619-.3418s-.4183.3537-.3418.619c.2162.7491.3322 1.5413.3322 2.3614 0 2.8401-1.3924 5.355-3.534 6.8993-.224.1615-.2746.474-.1131.698s.474.2746.698.1131c2.391-1.7242 3.9491-4.5354 3.9491-7.7104 0-.9148-.1295-1.8003-.3714-2.6386z" fill="currentColor" fill-rule="evenodd"/></svg>