<svg fill="none" height="72" viewBox="0 0 72 72" width="72" xmlns="http://www.w3.org/2000/svg"><path clip-rule="evenodd" d="m36.6015 4.55057c-.0884-.15809-.2554-.25598-.4366-.25591-.1811.00008-.348.09812-.4363.25628l-4.8446 8.67796-5.9894-1.6198c-.1644-.0445-.3402-.0022-.4664.1122-.1262.1145-.1854.2852-.1572.4532l2.586 15.4056-7.5262-6.0192c-.1044-.0835-.2379-.1217-.3707-.1061-.1327.0156-.2537.0837-.3359.1891l-2.8381 3.6396-7.42554-.9354c-.15886-.02-.3177.0372-.42722.154s-.15649.279-.12631.4363l1.81286 9.448-3.22203 1.2316c-.16412.0628-.28326.2071-.31384.3801-.03057.173.03191.3494.16459.4645l15.64059 13.5788-1.6272 2.9595c-.0901.1638-.0812.3642.0229.5195.1042.1552.2863.2394.4721.2181l14.3977-1.6479v14.364c0 .2761.2238.5.5.5.2761 0 .5-.2239.5-.5v-14.3681l15.4222 1.6524c.1851.0198.3658-.0648.4692-.2196.1033-.1548.1121-.3541.0228-.5174l-1.6185-2.9599 15.6413-13.5794c.1327-.1151.1952-.2915.1646-.4645s-.1497-.3173-.3138-.3801l-3.2221-1.2316 1.8129-9.448c.0302-.1573-.0168-.3195-.1263-.4363s-.2684-.174-.4272-.154l-7.4255.9354-2.8382-3.6396c-.0822-.1054-.2032-.1735-.3359-.1891-.1328-.0156-.2663.0226-.3707.1061l-7.5262 6.0192 2.5861-15.4056c.0282-.168-.0311-.3387-.1573-.4532-.1262-.1144-.3019-.1567-.4664-.1122l-5.9897 1.6199zm-.8856 46.48323 15.0169 1.6089-1.3531-2.4743c-.1128-.2063-.0666-.4633.1109-.6174l15.3157-13.2967-2.8344-1.0835c-.2265-.0866-.3582-.3232-.3125-.5613l1.762-9.1832-7.0241.8849c-.1749.022-.3484-.0497-.4568-.1886l-2.7017-3.4646-8.153 6.5205c-.1619.1294-.3869.1456-.5656.0406s-.2741-.3094-.2398-.5139l2.6737-15.9272-5.6135 1.5181c-.2213.0598-.455-.0385-.5669-.2386l-4.6081-8.23787-4.5988 8.23757c-.1118.2003-.3456.2988-.5671.2389l-5.6134-1.5181 2.6736 15.9272c.0343.2045-.0611.4089-.2398.5139s-.4037.0888-.5656-.0406l-8.153-6.5205-2.7016 3.4646c-.1084.1389-.282.2106-.4568.1886l-7.02421-.8849 1.76211 9.1832c.0456.2381-.0861.4747-.3126.5613l-2.8344 1.0835 15.3157 13.2967c.1779.1544.2238.412.1103.6185l-1.3556 2.4655 13.9854-1.6007c.0212-.0028.0429-.0042.0649-.0042.0207 0 .0411.0013.0612.0037z" fill="currentColor" fill-rule="evenodd"/></svg>