<svg fill="none" height="72" viewBox="0 0 72 72" width="72" xmlns="http://www.w3.org/2000/svg"><path clip-rule="evenodd" d="m11.2073 11.314.3892-.0013.0968.377 1.5452 6.016h51.7247.6302l-.1433.6137-6.4135 27.4563-.0896.3837-.394.0025-37.8564.2459-.0065-1 37.4624-.2433 6.1804-26.4588h-50.8376l8.5849 33.424h4.9076c.0806-.0051.1619-.0077.2438-.0077.082 0 .1633.0026.2439.0077h25.4747c.0807-.0051.162-.0077.2439-.0077s.1633.0026.2439.0077h5.1044v1h-2.7633c.8274.7528 1.3458 1.859 1.3458 3.0799 0 2.2363-1.739 4.0876-3.9308 4.0876-2.1917 0-3.9308-1.8513-3.9308-4.0876 0-1.2209.5184-2.3271 1.3458-3.0799h-20.7925c.8274.7528 1.3458 1.859 1.3458 3.0799 0 2.2363-1.739 4.0876-3.9308 4.0876-2.1917 0-3.9308-1.8513-3.9308-4.0876 0-1.2209.5184-2.3271 1.3458-3.0799h-2.9542-.3878l-.0964-.3756-10.3866-40.4387-3.98933.014-.00351-1zm16.2318 41.8157h-.415c-1.504.1118-2.7233 1.4287-2.7233 3.0799 0 1.7266 1.333 3.0876 2.9308 3.0876s2.9308-1.361 2.9308-3.0876c0-1.6512-1.2192-2.9681-2.7233-3.0799zm28.6858 3.0799c0-1.6512-1.2192-2.9681-2.7233-3.0799h-.415c-1.5041.1118-2.7233 1.4287-2.7233 3.0799 0 1.7266 1.333 3.0876 2.9308 3.0876s2.9308-1.361 2.9308-3.0876zm-2.2964-19.9206 2.0882-8.1035h2.7432v-1h-2.4855l.9714-3.7694-.9683-.2496-1.0357 4.019h-7.7538l.9714-3.7694-.9683-.2496-1.0357 4.019h-11.4613v1h11.2036l-2.0883 8.1035h-11.3193v1h11.0616l-.9595 3.7233.9683.2496 1.0239-3.9729h7.7537l-.9595 3.7233.9683.2496 1.0239-3.9729h2.6354v-1zm-1.0327 0h-7.7537l2.0882-8.1035h7.7538z" fill="currentColor" fill-rule="evenodd"/></svg>