<svg fill="none" height="72" viewBox="0 0 72 72" width="72" xmlns="http://www.w3.org/2000/svg"><path clip-rule="evenodd" d="m26.9345 4.5c-.1339 0-.2621.05369-.3561.14904l-14.9345 15.15476c-.0922.0935-.1439.2196-.1439.3509v46.7955c0 .2762.2239.5.5.5h47.0057c.2761 0 .5-.2238.5-.5v-61.9502c0-.27614-.2239-.5-.5-.5zm-14.4345 15.8597 14.6438-14.8597h31.3619v60.9502h-46.0057zm13.9545-10.0145c0-.2762.2239-.50005.5-.50005h6.4063c.2761 0 .5.22385.5.50005v10.6803c0 .2762-.2239.5-.5.5h-6.4063c-.2761 0-.5-.2238-.5-.5zm1 .5v9.6803h5.4063v-9.6803zm10.1804-1.00005c-.2761 0-.5.22385-.5.50005v10.6803c0 .2762.2239.5.5.5h6.4062c.2762 0 .5-.2238.5-.5v-10.6803c0-.2762-.2238-.50005-.5-.50005zm.5 10.68035v-9.6803h5.4062v9.6803zm11.2514-10.68035c-.2761 0-.5.22385-.5.50005v10.6803c0 .2762.2239.5.5.5h6.4063c.2761 0 .5-.2238.5-.5v-10.6803c0-.2762-.2239-.50005-.5-.50005zm.5 10.68035v-9.6803h5.4063v9.6803z" fill="#050504" fill-rule="evenodd"/></svg>