<svg fill="none" height="72" viewBox="0 0 72 72" width="72" xmlns="http://www.w3.org/2000/svg"><path clip-rule="evenodd" d="m27.4345 5c-.1339 0-.2621.05369-.3561.14904l-14.9345 15.15476c-.0922.0935-.1439.2196-.1439.3509v46.7955c0 .2762.2239.5.5.5h47.0057c.2761 0 .5-.2238.5-.5v-61.9502c0-.27614-.2239-.5-.5-.5zm-14.4345 15.8597 14.6438-14.8597h31.3619v60.9502h-46.0057zm39.3577 17.8056c0-1.3807-1.1193-2.5-2.5-2.5h-18.6036-8.3964c-1.3807 0-2.5 1.1193-2.5 2.5v4 6 6 4c0 1.3807 1.1193 2.5 2.5 2.5h8.3964 10.3963 8.2073c1.3807 0 2.5-1.1193 2.5-2.5v-4-6-6zm-2.5-1.5c.8285 0 1.5.6716 1.5 1.5v3.5h-9.7073-.5v.5 6 6 5.5h-9.3963v-5.5-6-6-5.5zm-7.7073 6h9.2073v5h-9.2073zm0 6h9.2073v5h-9.2073zm0 6h9.2073v3.5c0 .8284-.6715 1.5-1.5 1.5h-7.7073zm-11.3963 0v5h-7.8964c-.8284 0-1.5-.6716-1.5-1.5v-3.5zm0-1h-9.3964v-5h9.3964zm0-6h-9.3964v-5h9.3964zm0-6h-9.3964v-3.5c0-.8284.6716-1.5 1.5-1.5h7.8964z" fill="#050504" fill-rule="evenodd"/></svg>