<svg fill="none" height="72" viewBox="0 0 72 72" width="72" xmlns="http://www.w3.org/2000/svg"><path clip-rule="evenodd" d="m7.5 16c-.27614 0-.5.2239-.5.5v6.1777c0 .2762.22386.5.5.5s.5-.2238.5-.5v-5.6777h55v39h-23.4236c-.2762 0-.5.2239-.5.5s.2238.5.5.5h23.9236c.2761 0 .5-.2239.5-.5v-40c0-.2761-.2239-.5-.5-.5zm0 13c-.27614 0-.5.2239-.5.5s.22386.5.5.5c14.6355 0 26.5 11.8645 26.5 26.5 0 .2761.2239.5.5.5s.5-.2239.5-.5c0-15.1878-12.3122-27.5-27.5-27.5zm-.5 11.5c0-.2761.22386-.5.5-.5 9.1127 0 16.5 7.3873 16.5 16.5 0 .2761-.2239.5-.5.5s-.5-.2239-.5-.5c0-8.5604-6.9396-15.5-15.5-15.5-.27614 0-.5-.2239-.5-.5zm.5 9.5c-.27614 0-.5.2239-.5.5s.22386.5.5.5c3.0376 0 5.5 2.4624 5.5 5.5 0 .2761.2239.5.5.5s.5-.2239.5-.5c0-3.5899-2.9101-6.5-6.5-6.5z" fill="currentColor" fill-rule="evenodd"/></svg>