<svg fill="none" height="72" viewBox="0 0 72 72" width="72" xmlns="http://www.w3.org/2000/svg"><path clip-rule="evenodd" d="m30.4896 7.71716c-.2761 0-.5.22386-.5.5v3.10134c0 .2762.2239.5.5.5h3.3847v3.2931c-4.0649.3732-7.8272 1.8063-11.0175 4.0244-.024-.0577-.0592-.1118-.1058-.1589l-5.0769-5.1463 2.0827-2.1183c.1936-.1969.1909-.5134-.006-.707s-.5135-.191-.7071.006l-2.3889 2.4297c-.0123.01-.0242.0207-.0357.032-.0153.0151-.0294.0309-.0423.0473l-2.3846 2.4253c-.1936.1969-.191.5135.006.7071.1969.1936.5134.1909.707-.006l2.0678-2.103 5.0661 5.1354c.0099.0101.0201.0196.0306.0286-5.6807 4.3111-9.3558 11.1925-9.3558 18.9407 0 13.0457 10.4184 23.6342 23.2861 23.6342 12.8676 0 23.286-10.5885 23.286-23.6342 0-7.7461-3.6731-14.626-9.3512-18.9372.012-.0102.0237-.0209.0349-.0323l5.0601-5.1374 2.0738 2.1055c.1938.1968.5104.1992.7071.0054.1968-.1938.1991-.5104.0054-.7071l-2.4258-2.4628-.0096-.0098-2.4247-2.4618c-.1938-.1967-.5104-.1991-.7071-.0053-.1968.1938-.1992.5103-.0054.7071l2.0845 2.1163-5.0707 5.1481c-.0477.0484-.0835.1041-.1074.1634-3.1895-2.2192-6.9512-3.6536-11.0156-4.0283v-3.2939h3.3762c.2761 0 .5-.2238.5-.5v-3.10134c0-.27614-.2239-.5-.5-.5zm7.1447 3.07534c.0558 0 .1095.0091.1597.026h3.2165v-2.10134h-10.0209v2.10134h3.225c.0501-.0169.1038-.026.1597-.026zm-2.76 4.2491v-3.2231h2.26v3.2235c-.3758-.0183-.754-.0275-1.1343-.0275-.3774 0-.7527.0091-1.1257.0271zm-21.1604 23.607c0-12.0826 9.3179-21.9432 21.0404-22.5994h2.4913c11.7225.6562 21.0404 10.5168 21.0404 22.5994 0 12.5077-9.9849 22.6342-22.286 22.6342-12.3012 0-22.2861-10.1265-22.2861-22.6342zm3.6537 0c0-10.459 8.3491-18.9247 18.6324-18.9247s18.6324 8.4657 18.6324 18.9247c0 10.4591-8.3491 18.9248-18.6324 18.9248s-18.6324-8.4657-18.6324-18.9248zm18.6324-19.9247c-10.8498 0-19.6324 8.9278-19.6324 19.9247 0 10.997 8.7826 19.9248 19.6324 19.9248s19.6324-8.9278 19.6324-19.9248c0-10.9969-8.7826-19.9247-19.6324-19.9247zm0 8.2356c.2761 0 .5.2238.5.5v7.9653c.3084.0428.6167.1262.9181.253 1.8921.7957 2.7828 2.9931 2.004 4.9019-.7788 1.9089-2.939 2.8233-4.8311 2.0275-1.8921-.7957-2.7828-2.9931-2.004-4.9019.5195-1.2734 1.6537-2.1042 2.913-2.2801v-7.9657c0-.2762.2239-.5.5-.5zm-.5 9.4847c-.8618.1684-1.6283.7593-1.9911 1.6487-.574 1.4069.0861 3.0107 1.4598 3.5884s2.9576-.0824 3.5316-1.4892c.5739-1.4069-.0862-3.0107-1.4599-3.5884-.1775-.0747-.3585-.1286-.5404-.163v2.7031c0 .2762-.2239.5-.5.5s-.5-.2238-.5-.5z" fill="currentColor" fill-rule="evenodd"/></svg>