<svg width="72" height="72" viewBox="0 0 72 72" fill="none" xmlns="http://www.w3.org/2000/svg"><path d="M56.2447 29.3786C56.3348 31.2904 54.8634 32.922 52.9415 33.0221C51.0296 33.1122 49.398 31.6408 49.2979 29.7189C49.1978 27.797 50.6793 26.1754 52.6012 26.0753C52.6612 26.0753 52.7213 26.0753 52.7813 26.0753C54.6431 26.0353 56.1946 27.5168 56.2447 29.3786ZM39.8187 29.3786C39.9088 31.2904 38.4374 32.922 36.5155 33.0221C34.6037 33.1122 32.9721 31.6408 32.872 29.7189C32.7719 27.797 34.2533 26.1754 36.1752 26.0753C36.2352 26.0753 36.2853 26.0753 36.3454 26.0753C38.2172 26.0353 39.7687 27.5067 39.8187 29.3786ZM23.3827 29.3786C23.4728 31.2904 22.0014 32.922 20.0795 33.0221C18.1677 33.1122 16.5361 31.6408 16.436 29.7189C16.3459 27.807 17.8173 26.1754 19.7392 26.0753C19.7993 26.0753 19.8593 26.0753 19.9194 26.0753C21.7812 26.0353 23.3327 27.5168 23.3827 29.3786ZM66.6848 7.78757V49.388H52.451V63.6519L38.017 49.388H5.38525V7.78757H66.6848Z" stroke="#050504" stroke-linecap="round" stroke-linejoin="round"/></svg>