<svg fill="none" height="72" viewBox="0 0 72 72" width="72" xmlns="http://www.w3.org/2000/svg"><path d="m35.8497 45.2629v-14.8206 16.5229m6.2087-6.2086-5.8081 5.8081-.4006.4005m0 0-.8011-.9012-5.3073-5.3074m27.9388-5.2072v-1.2017c0-11.1154-9.0126-20.0278-20.128-20.1279h-.2003c-9.413 0-17.6244 6.509-19.6272 15.7218-6.5091.6008-11.61616 6.1085-11.7163 12.7177v.4005c0 7.0097 5.7079 12.6175 12.6175 12.6175h38.0529c5.4075 0 9.8136-4.4061 9.8136-9.8136v-.6008c.2003-5.007-3.7052-9.4131-8.8122-9.7135z" stroke="#050504" stroke-linecap="round" stroke-linejoin="round"/></svg>