<svg fill="none" height="72" viewBox="0 0 72 72" width="72" xmlns="http://www.w3.org/2000/svg"><path clip-rule="evenodd" d="m5.50537 13.8339c-.27614 0-.5.2239-.5.5v20.7102c0 .2761.22386.5.5.5h7.78803v8.2785c0 .2042.1242.3879.3137.464s.4062.0293.5474-.1182l8.2605-8.6243h19.3356c.2761 0 .5-.2239.5-.5v-20.7102c0-.2761-.2239-.5-.5-.5zm.5 20.7102v-19.7102h35.24523v19.7102h-19.049c-.1363 0-.2668.0556-.3611.1541l-7.5471 7.8795v-7.5336c0-.2762-.2238-.5-.5-.5zm4.18503-12.9631c0-.2761.2239-.5.5-.5h17.6071c.2762 0 .5.2239.5.5s-.2238.5-.5.5h-17.6071c-.2761 0-.5-.2239-.5-.5zm20.7102 0c0-.2761.2238-.5.5-.5h5.175c.2761 0 .5.2239.5.5s-.2239.5-.5.5h-5.175c-.2762 0-.5-.2239-.5-.5zm-20.7102 5.175c0-.2761.2239-.5.5-.5h5.1751c.2761 0 .5.2239.5.5 0 .2762-.2239.5-.5.5h-5.1751c-.2761 0-.5-.2238-.5-.5zm7.2471 0c0-.2761.2238-.5.5-.5h18.6381c.2761 0 .5.2239.5.5 0 .2762-.2239.5-.5.5h-18.6381c-.2762 0-.5-.2238-.5-.5zm25.5624-2.072c0-.2762.2239-.5.5-.5h23.1048c.2762 0 .5.2238.5.5v24.8542c0 .2761-.2238.5-.5.5h-7.778v8.1083c0 .2033-.123.3863-.3113.463-.1882.0768-.4041.0319-.5462-.1134l-8.2711-8.4579h-19.3386c-.2761 0-.5-.2239-.5-.5v-12.5382c0-.2761.2239-.5.5-.5s.5.2239.5.5v12.0382h19.049c.1346 0 .2634.0542.3575.1504l7.5607 7.7315v-7.3819c0-.2762.2239-.5.5-.5h7.778v-23.8542h-22.6048c-.2761 0-.5-.2239-.5-.5zm9.1108 6.757c-.2762 0-.5.2239-.5.5 0 .2762.2238.5.5.5h10.36c.2762 0 .5-.2238.5-.5 0-.2761-.2238-.5-.5-.5zm-17.6072 5.145c-.2761 0-.5.2239-.5.5 0 .2762.2239.5.5.5h5.1851c.2761 0 .5-.2238.5-.5 0-.2761-.2239-.5-.5-.5zm8.2881 0c-.2761 0-.5.2239-.5.5 0 .2762.2239.5.5.5h19.6791c.2762 0 .5-.2238.5-.5 0-.2761-.2238-.5-.5-.5zm.531-4.645c0-.2761.2239-.5.5-.5h5.2051c.2761 0 .5.2239.5.5 0 .2762-.2239.5-.5.5h-5.2051c-.2761 0-.5-.2238-.5-.5z" fill="#050504" fill-rule="evenodd"/></svg>