<svg fill="none" height="72" viewBox="0 0 72 72" width="72" xmlns="http://www.w3.org/2000/svg"><path d="m38.5475 55.8042h-5.3452zm.1402 0-1.6717-6.9467zm-3.6736-6.9467-1.7417 6.9467zm2.0019 0c.8308-.3804 1.3614-1.2012 1.3614-2.1121.02-1.3112-1.031-2.3823-2.3423-2.4023s-2.3823 1.031-2.4024 2.3423c-.01.9309.5206 1.7817 1.3614 2.1821zm-17.497-18.7482v-8.8787c.0301-8.7785 7.157-15.8754 15.9355-15.86539h1.4314c8.7785-.01001 15.9055 7.08689 15.9355 15.86539v8.8787zm4.2742 0v-8.6484c-.1301-6.126 4.7246-11.2109 10.8605-11.3411h.3604 1.9419c6.3261-.04 11.5012 5.0149 11.5912 11.3411v8.6484zm-9.9897 36.1651h44.7335v-36.1651h-44.7335z" stroke="currentColor" stroke-linecap="round" stroke-miterlimit="10"/></svg>