<svg fill="none" height="72" viewBox="0 0 72 72" width="72" xmlns="http://www.w3.org/2000/svg"><path clip-rule="evenodd" d="m15.8868 9.28356c1.8907-2.11061 5.1346-2.40841 7.081-.75113.0409.03488.076.07614.1038.12219l5.9125 9.78898c1.6076 2.4048 1.328 5.3594-.8093 7.4826l-3.6526 3.6283c-.2612.4673-.3369 1.1101-.1952 1.9341.1463.8503.5159 1.8408 1.0727 2.9172 1.1109 2.1475 2.9244 4.555 4.9947 6.7341 2.1936 2.0566 4.6174 3.8583 6.7798 4.9622 1.0837.5532 2.0817.9208 2.9389 1.0662.8312.1411 1.4809.0658 1.9531-.1949l3.6528-3.6285c2.0998-2.086 5.085-2.4342 7.0552-.7888l9.8292 5.8585c.0462.0275.0875.0622.1226.1028 1.6554 1.9185 1.6295 4.8976-.4994 7.0308l-.9694 1.2037c-.0116.0144-.0239.0281-.037.0411l-4.0839 4.0568c-.0218.0652-.0531.1277-.0945.1865-.0817.116-.1836.1881-.2444.2284-.0492.0326-.0863.0554-.1168.074-.0607.0372-.095.0582-.146.1088l-.2466.245c-.0149.0149-.0308.0288-.0475.0416-4.0408 3.1077-9.8785 2.6583-15.9674.1895-6.1164-2.4799-12.6426-7.0542-18.2245-12.4759l-.008-.0078.0001-.0001c-5.4564-5.5435-10.0621-11.9653-12.55951-18.0125-2.48802-6.0244-2.93595-11.8206.1864-15.9561.01427-.0189.02986-.0368.04666-.0535l.13219-.1313c.04857-.1764.1419-.3217.22186-.4277.1142-.1513.2592-.2952.3742-.4094l.0116-.0115 4.1923-4.1646c.0131-.013.0269-.0252.0413-.0367zm6.3724-.03975c-1.5057-1.21849-4.1067-1.01987-5.6522.73473-.0195.02216-.041.04256-.0641.06096l-1.2114.9627-4.1727 4.1451c-.1299.129-.2255.2254-.2924.314-.0364.0481-.0494.0753-.0535.0847-.0047.1264-.0572.2467-.1473.3362l-.221.2196c-2.77367 3.7025-2.4771 9.0406-.0391 14.9438 2.4341 5.894 6.9513 12.2092 12.3439 17.6887 5.5146 5.3555 11.9336 9.8437 17.8995 12.2626 5.9812 2.4252 11.3532 2.715 14.9571-.0364l.2239-.2224c.0919-.0913.1818-.1575.2574-.2076.0368-.0244.0713-.0456.0977-.0618.0038-.0023.0073-.0045.0107-.0066.0235-.0802.067-.154.1274-.214l4.1727-4.145.969-1.2033c.0116-.0144.024-.0281.0371-.0411 1.7732-1.7616 1.7662-4.1197.5178-5.6279l-9.7925-5.8366c-.0241-.0144-.0469-.0307-.0682-.0488-1.4828-1.2626-3.9012-1.1131-5.7353.7089l-3.6991 3.6746c-.0289.0288-.0613.0539-.0964.0748-.757.4512-1.6937.5183-2.6824.3505-.9924-.1684-2.0905-.5817-3.2263-1.1614-2.2731-1.1604-4.7772-3.0294-7.0198-5.1333-.0069-.0066-.0137-.0133-.0202-.0202-2.1179-2.2276-3.9996-4.7154-5.168-6.9741-.5838-1.1284-1.0003-2.2201-1.17-3.2071-.1691-.9836-.1016-1.9167.3538-2.6705.0211-.0351.0465-.0674.0756-.0963l3.6991-3.6746c1.8054-1.7935 2.0212-4.223.677-6.2259-.0044-.0067-.0087-.0134-.0128-.0202z" fill="#050504" fill-rule="evenodd"/></svg>