<svg fill="none" height="72" viewBox="0 0 72 72" width="72" xmlns="http://www.w3.org/2000/svg"><path clip-rule="evenodd" d="m43.8478 13.5325c.1108-.0258.2271-.013.3296.0362l12.2999 5.904 2.8057-1.3604v-2.1123c0-.2761.2239-.5.5-.5h7.217c.2761 0 .5.2239.5.5v24.5c0 .2761-.2239.5-.5.5h-7.217c-.2761 0-.5-.2239-.5-.5v-1.8164l-2.9238 1.1371c-.2573.1-.5471-.0275-.6472-.2848-.1001-.2574.0274-.5472.2848-.6472l3.2862-1.278v-18.387l-2.5864 1.254c-.1372.0665-.2971.0668-.4345.0009l-12.359-5.9323c-.684.1586-1.465.3377-2.3064.5306l-.0009.0002-.0005.0001-.0001.0001h-.0002c-4.4677 1.0243-10.6399 2.4395-13.0506 3.2704-1.7756 2.2978-6.7529 8.7346-8.1511 10.2327-.0962.1031-.0896.1549-.0877.1701v.0002c.0045.0356.0348.1268.1786.2629.2921.2766.8789.5714 1.696.7817 1.6189.4166 3.8768.4348 5.7537-.4098 1.9076-.8584 2.9222-1.9469 3.5867-2.8249.1674-.2212.313-.4296.4495-.625l.0033-.0047.0018-.0026c.1338-.1916.2647-.3789.3915-.5383.2331-.293.5727-.655 1.0797-.655h5.3074c.1574 0 .3056.0741.4.2.4308.5745.8839 1.1823 1.3579 1.8184l.0003.0003c1.4992 2.0115 3.2087 4.3052 5.0905 6.7159l9.2379 5.7612c.0221.0138.0431.0293.0629.0464 1.6973 1.471 2.0252 4.053.7932 5.9569-.0115.0179-.0243.035-.038.0513-1.0257 1.2121-2.5352 1.8852-4.0651 1.7938.3077 1.5525-.3981 3.2381-1.7507 4.1097-1.4019.9329-3.1015 1.0734-4.6386.5818.0896 1.6291-.7997 3.1925-2.3213 3.9533-1.6188.8094-3.4912.6074-4.9686-.3231-.9414 1.3905-2.7571 2.0707-4.3888 1.6628-.2291-.0573-.3813-.2642-.3788-.4904l-1.212 1.5188-.0004.0005c-.5617.7022-1.5747.8626-2.305.2784l-.0043-.0035h.0001l-2.2011-1.8009c-.2439-.1957-.4221-.446-.5263-.7199-.6016.2629-1.3084.1905-1.8793-.2833l-2.6009-2.1007-.0059-.0048v-.0001c-.3699-.3082-.6017-.7128-.6755-1.1406-.6036.1563-1.2748.0354-1.7985-.3387l-.0075-.0054-.0126-.0097-2.904-2.3032c-.015-.0119-.0293-.0247-.0429-.0382-.7507-.7507-.9235-2.0396-.2349-2.8718l.7859-.99c-.2137-.055-.4213-.1562-.6099-.3072l-.0043-.0034-2.2011-1.801c-.7001-.562-.8595-1.5734-.2763-2.3028l.0003-.0003 7.9106-9.9133.0003-.0004.7809.6247-7.9106 9.9132-.0004.0005c-.2169.2712-.177.6601.1222.8995l.0043.0034 2.2006 1.8006c.2711.2152.6586.1748.8975-.1235l.0001-.0002 7.9106-9.9133.0004-.0005.0037.003.0004-.0004-.0038-.003c.2166-.2711.1766-.6598-.1225-.899l-.0043-.0035-2.2006-1.8005c-.271-.2152-.6584-.1749-.8973.1233l-.0002.0003-.781-.6246c.163-.2037.3639-.3618.5849-.4694-.3496-.0512-.6831-.1184-.995-.1986-.8852-.2278-1.6628-.5776-2.1343-1.024-.238-.2253-.4392-.515-.4832-.864-.0467-.3696.0949-.7058.3488-.9777 1.3811-1.4798 6.4668-8.0602 8.1813-10.2789.0584-.0757.1374-.133.2274-.1652 2.369-.846 8.7894-2.3176 13.3354-3.3596l.0003-.0001h.0001c.9032-.207 1.7323-.397 2.441-.5618zm-20.7257 18.5239 3.2249 2.5794-.0003.0004-3.2247-2.5797zm10.6459 24.0371c-.0807-.0202-.1618-.0195-.2374-.0014l6.3146-7.9133-.7808-.6247.0003-.0004.7809.6247c.5831-.7294.4236-1.7407-.2764-2.3027l-2.2011-1.8009-.0043-.0035c-.1802-.1441-.3775-.2429-.5811-.2994l.1561-.1965c.6849-.8268.5286-1.9381-.2682-2.6021l-.0059-.0048-2.6008-2.1007c-.231-.1917-.4843-.3177-.7438-.3824l.0158-.0197c.0058-.0072.0114-.0146.0167-.0221.636-.8903.5404-2.2073-.4057-2.8927l-2.8949-2.2959c-.0066-.0052-.0133-.0103-.0201-.0151-.8318-.5942-2.0362-.5498-2.7498.2303-.1052-.1924-.2498-.3674-.4305-.5124l-2.2012-1.8009v-.0001l-.0042-.0034c-.0349-.0279-.0704-.0541-.1065-.0786 1.2545-.0064 2.5898-.2307 3.8045-.7774 2.098-.9441 3.2363-2.1588 3.9738-3.1334.1789-.2364.3338-.458.4686-.6511l.0065-.0093c.1394-.1995.252-.3601.3561-.491.1054-.1324.1811-.2069.2373-.2472.0256-.0184.0416-.0254.0489-.0281.006-.0021.0086-.0023.011-.0023h5.0573c.3829.5113.7838 1.0493 1.2017 1.6099l.0003.0004.0001.0001c1.5146 2.0322 3.2521 4.3635 5.163 6.8094.036.0461.0798.0855.1295.1165l9.2785 5.7866c1.2746 1.1303 1.5411 3.119.5974 4.6061-.989 1.1511-2.4896 1.6636-3.8823 1.3155-.1871-.0468-.3843.0182-.507.1669-.1227.1488-.1489.3548-.0674.5296.5893 1.2627.0844 2.9003-1.119 3.6739h-.0001l-.0069.0046c-1.3321.8881-3.0407.9017-4.506.1691-.178-.089-.3918-.064-.5444.0637-.1527.1277-.2151.3337-.1589.5246.4309 1.465-.2561 3.0224-1.6466 3.7177-1.4082.7041-3.1051.4504-4.3743-.5468-.12-.0943-.2764-.1286-.4249-.0932-.1484.0354-.2725.1366-.3371.2749-.5941 1.2732-2.1483 1.9748-3.5313 1.629zm2.0717-11.1192.0003-.0003c.2388-.2982.6263-.3385.8973-.1233l2.2006 1.8006.0043.0034c.299.2393.3391.6279.1225.899zm0 .0001-.0079-.0063.0001-.0001.0078.0063zm0 0-3.2928 4.1264-4.6919 5.9027c-.1278.2579-.063.577.1959.7841l.0043.0034-.0001.0001 2.2007 1.8005c.271.2152.6585.1749.8973-.1234l.0003-.0003 1.3778-1.7266 6.5328-8.1867.0004-.0005zm24.4433-28.4744v1.9256 19.5271 2.0473h6.217v-23.5zm-30.8417 17.547c-.5071-.3551-1.1798-.2521-1.4962.1908-.0039.0055-.0079.0108-.012.0161-.0011.0014-.0022.0028-.0033.0042l-10.4144 13.1182-.0074.0093-.0001-.0001c-.3038.3645-.2805 1.0603.1513 1.5106l2.8689 2.2753c.5071.3551 1.1798.2521 1.4962-.1908.0054-.0075.0109-.0149.0167-.0221l2.4749-3.0877 6.9369-8.7271.0072-.0091.0001.0001c.0869-.1042.1814-.1975.2819-.2793l.8042-1.0034c.3543-.507.2511-1.179-.1915-1.4952-.0068-.0049-.0135-.0099-.0201-.0151zm-6.5186 17.4352 2.3747-2.9875 7.1486-8.9187c.309-.2081.6813-.187.9808.0626v.0001l.0059.0048 2.6004 2.1003c.4008.336.4448.8227.1336 1.1962l-.0001-.0001-.0072.0091-4.3948 5.5288-4.6168 5.7857-.0002.0003c-.0475.0594-.0901.1207-.1279.1835l-.1693.213c-.336.3996-.822.4431-1.1951.1322l-.0059-.0048-2.6004-2.1003c-.4008-.3361-.4448-.8227-.1336-1.1962h.0001zm-17.61533-35.8598c-.27614 0-.5.2239-.5.5v24.3338c0 .2761.22386.5.5.5h7.00973c.2762 0 .5-.2239.5-.5v-.6195l.5552.1467c.267.0705.5406-.0887.6111-.3557s-.0887-.5406-.3557-.6111l-.8106-.2142v-20.2398l12.1242 1.4339c.2742.0325.5228-.1635.5552-.4378.0325-.2742-.1635-.5228-.4378-.5552l-12.2416-1.4479v-1.4332c0-.2761-.2238-.5-.5-.5zm.5 24.3338v-23.3338h6.00973v1.3776 21.1875.7687z" fill="#050504" fill-rule="evenodd"/></svg>