<svg fill="none" height="72" viewBox="0 0 72 72" width="72" xmlns="http://www.w3.org/2000/svg"><g stroke="#050504" stroke-linecap="round" stroke-linejoin="round"><path d="m10.24 63.85c2.7614 0 5-2.2386 5-5s-2.2386-5-5-5c-2.76143 0-5.00001 2.2386-5.00001 5s2.23858 5 5.00001 5z"/><path d="m27.7 35.77c2.7614 0 5-2.2386 5-5s-2.2386-5-5-5c-2.7615 0-5 2.2386-5 5s2.2385 5 5 5z"/><path d="m13.1 53.9 12.16-18.61"/><path d="m44.34 46.4c2.7614 0 5-2.2386 5-5s-2.2386-5-5-5c-2.7615 0-5 2.2386-5 5s2.2385 5 5 5z"/><path d="m61.79 18.33c2.7615 0 5-2.2386 5-5s-2.2385-5-5-5c-2.7614 0-5 2.2386-5 5s2.2386 5 5 5z"/><path d="m47.1899 36.46 12.17-18.62"/><path d="m32.3101 33.08 7.8 5.1"/></g></svg>