<svg fill="none" height="72" viewBox="0 0 72 72" width="72" xmlns="http://www.w3.org/2000/svg"><path clip-rule="evenodd" d="m29.6183 17.6972c0-.2761-.2238-.5-.5-.5-.2761 0-.5.2239-.5.5v.6211h-.6511c-.2761 0-.5.2239-.5.5s.2239.5.5.5h.6511v.6311c0 .2761.2239.5.5.5.2762 0 .5-.2239.5-.5v-.6311h.6411c.2762 0 .5-.2239.5-.5s-.2238-.5-.5-.5h-.6411zm2.7527 5.3352c0-.2761-.2239-.5-.5-.5-.2762 0-.5.2239-.5.5v.6311h-.6511c-.2762 0-.5.2238-.5.5 0 .2761.2238.5.5.5h.6511v.6211c0 .2761.2238.5.5.5.2761 0 .5-.2239.5-.5v-.6211h.6411c.2761 0 .5-.2239.5-.5 0-.2762-.2239-.5-.5-.5h-.6411zm-26.63543 5.0754c.27614 0 .5.2239.5.5v.6211h.65114c.27614 0 .5.2239.5.5s-.22386.5-.5.5h-.65114v.6311c0 .2762-.22386.5-.5.5-.27615 0-.5-.2238-.5-.5v-.6311h-.64109c-.27614 0-.5-.2239-.5-.5s.22386-.5.5-.5h.64109v-.6211c0-.2761.22385-.5.5-.5zm23.88273.5c0-.2761-.2238-.5-.5-.5-.2761 0-.5.2239-.5.5v.6211h-.6511c-.2761 0-.5.2239-.5.5s.2239.5.5.5h.6511v.6311c0 .2762.2239.5.5.5.2762 0 .5-.2238.5-.5v-.6311h.6411c.2762 0 .5-.2239.5-.5s-.2238-.5-.5-.5h-.6411zm-21.13005 4.8352c.27614 0 .5.2239.5.5v.6311h.65112c.27614 0 .50003.2239.50003.5s-.22389.5-.50003.5h-.65112v.6211c0 .2761-.22386.5-.5.5s-.5-.2239-.5-.5v-.6211h-.64111c-.27614 0-.5-.2239-.5-.5s.22386-.5.5-.5h.64111v-.6311c0-.2761.22386-.5.5-.5zm8.29755.5c0-.2761-.2238-.5-.5-.5-.2761 0-.5.2239-.5.5v.6311h-.6511c-.2761 0-.5.2239-.5.5s.2239.5.5.5h.6511v.6211c0 .2761.2239.5.5.5.2762 0 .5-.2239.5-.5v-.6211h.6411c.2762 0 .5-.2239.5-.5s-.2238-.5-.5-.5h-.6411zm7.2876-.5c.2761 0 .5.2239.5.5v.6311h.6511c.2762 0 .5.2239.5.5s-.2238.5-.5.5h-.6511v.6211c0 .2761-.2239.5-.5.5s-.5-.2239-.5-.5v-.6211h-.6411c-.2762 0-.5-.2239-.5-.5s.2238-.5.5-.5h.6411v-.6311c0-.2761.2239-.5.5-.5zm7.7976 0c.2761 0 .5.2239.5.5v.6311h.6411c.2761 0 .5.2239.5.5s-.2239.5-.5.5h-.6411v.6211c0 .2761-.2239.5-.5.5-.2762 0-.5-.2239-.5-.5v-.6211h-.6511c-.2762 0-.5-.2239-.5-.5s.2238-.5.5-.5h.6511v-.6311c0-.2761.2238-.5.5-.5zm-10.5503-5.3352c.2762 0 .5.2239.5.5v.6211h.6512c.2761 0 .5.2239.5.5s-.2239.5-.5.5h-.6512v.6311c0 .2762-.2238.5-.5.5-.2761 0-.5-.2238-.5-.5v-.6311h-.6411c-.2761 0-.5-.2239-.5-.5s.2239-.5.5-.5h.6411v-.6211c0-.2761.2239-.5.5-.5zm-7.2875.5c0-.2761-.2239-.5-.5-.5-.2762 0-.5.2239-.5.5v.6211h-.6512c-.2761 0-.5.2239-.5.5s.2239.5.5.5h.6512v.6311c0 .2762.2238.5.5.5.2761 0 .5-.2238.5-.5v-.6311h.6411c.2761 0 .5-.2239.5-.5s-.2239-.5-.5-.5h-.6411zm10.0402-6.0754c.2761 0 .5.2239.5.5v.6311h.6511c.2762 0 .5.2238.5.5 0 .2761-.2238.5-.5.5h-.6511v.6211c0 .2761-.2239.5-.5.5s-.5-.2239-.5-.5v-.6211h-.6411c-.2762 0-.5-.2239-.5-.5 0-.2762.2238-.5.5-.5h.6411v-.6311c0-.2761.2239-.5.5-.5zm-7.2876.5c0-.2761-.2238-.5-.5-.5-.2761 0-.5.2239-.5.5v.6311h-.6511c-.2761 0-.5.2238-.5.5 0 .2761.2239.5.5.5h.6511v.6211c0 .2761.2239.5.5.5.2762 0 .5-.2239.5-.5v-.6211h.6411c.2762 0 .5-.2239.5-.5 0-.2762-.2238-.5-.5-.5h-.6411zm-8.29755-.5c.27614 0 .5.2239.5.5v.6311h.65112c.27614 0 .50003.2238.50003.5 0 .2761-.22389.5-.50003.5h-.65112v.6211c0 .2761-.22386.5-.5.5s-.5-.2239-.5-.5v-.6211h-.64111c-.27614 0-.5-.2239-.5-.5 0-.2762.22386-.5.5-.5h.64111v-.6311c0-.2761.22386-.5.5-.5zm12.83245-5.3352c.2762 0 .5.2239.5.5v.6211h.6512c.2761 0 .5.2239.5.5s-.2239.5-.5.5h-.6512v.6311c0 .2761-.2238.5-.5.5-.2761 0-.5-.2239-.5-.5v-.6311h-.6411c-.2761 0-.5-.2239-.5-.5s.2239-.5.5-.5h.6411v-.6211c0-.2761.2239-.5.5-.5zm-7.2875.5c0-.2761-.2239-.5-.5-.5-.2762 0-.5.2239-.5.5v.6211h-.6512c-.2761 0-.5.2239-.5.5s.2239.5.5.5h.6512v.6311c0 .2761.2238.5.5.5.2761 0 .5-.2239.5-.5v-.6311h.6411c.2761 0 .5-.2239.5-.5s-.2239-.5-.5-.5h-.6411zm-8.29763-.5c.27614 0 .5.2239.5.5v.6211h.65114c.27614 0 .5.2239.5.5s-.22386.5-.5.5h-.65114v.6311c0 .2761-.22386.5-.5.5-.27615 0-.5-.2239-.5-.5v-.6311h-.64109c-.27614 0-.5-.2239-.5-.5s.22386-.5.5-.5h.64109v-.6211c0-.2761.22385-.5.5-.5zm0 34.5636c-.27615 0-.5.2239-.5.5s.22385.5.5.5h60.76903c.2762 0 .5-.2239.5-.5s-.2238-.5-.5-.5zm-.5-8.0483c0-.2761.22385-.5.5-.5h60.76903c.2762 0 .5.2239.5.5s-.2238.5-.5.5h-60.76903c-.27615 0-.5-.2239-.5-.5zm31.53013-8.8281c-.2761 0-.5.2239-.5.5s.2239.5.5.5h29.739c.2761 0 .5-.2239.5-.5s-.2239-.5-.5-.5zm-.5-8.2685c0-.2762.2239-.5.5-.5h29.739c.2761 0 .5.2238.5.5 0 .2761-.2239.5-.5.5h-29.739c-.2761 0-.5-.2239-.5-.5zm.5-9.0587c-.2761 0-.5.2239-.5.5s.2239.5.5.5h29.739c.2761 0 .5-.2239.5-.5s-.2239-.5-.5-.5z" fill="#050504" fill-rule="evenodd"/></svg>