<svg fill="none" height="72" viewBox="0 0 72 72" width="72" xmlns="http://www.w3.org/2000/svg"><path clip-rule="evenodd" d="m6.10547 35.7848c0-16.2517 13.16643-29.41812 29.41813-29.41812 15.8552 0 28.7739 12.53182 29.3947 28.23432l2.2281-2.2281c.1953-.1952.5119-.1952.7072 0 .1952.1953.1952.5119 0 .7071l-3.0584 3.0583c-.1952.1953-.5118.1953-.7071 0l-2.7847-2.7847c-.1953-.1953-.1953-.5119 0-.7072.1952-.1952.5118-.1952.7071 0l1.9049 1.905c-.6453-15.1268-13.1057-27.18472-28.3918-27.18472-15.6994 0-28.41813 12.71872-28.41813 28.41812s12.71873 28.4181 28.41813 28.4181c10.2006 0 19.6241-5.4692 24.6801-14.3319.1368-.2399.4422-.3234.6821-.1866.2398.1369.3233.4422.1865.6821-5.234 9.1748-14.9892 14.8364-25.5487 14.8364-16.2517 0-29.41813-13.1664-29.41813-29.4181zm44.65293-8.6079c.2761 0 .5.2239.5.5v14.2038c0 .2762-.2239.5-.5.5s-.5-.2238-.5-.5v-14.2038c0-.2761.2239-.5.5-.5zm-8.2385 7.5564v7.1474h-1v-14.2038h1v6.0564h7.1474v1zm-16.8864-7.2324c.0004-.2204-.1436-.4152-.3546-.4793s-.439.0175-.5614.201l-7.0268 10.537c-.1023.1534-.1119.3507-.0249.5133s.2565.2641.4409.2641h6.5068v2.8032c0 .2761.2239.5.5.5s.5-.2239.5-.5v-2.8032h1.6821c.2762 0 .5-.2239.5-.5 0-.2762-.2238-.5-.5-.5h-1.6811zm-1.0031 1.6548-.0159 8.3813h-5.5734zm9.0413-2.5294v.0001h.0001.0002.0001.0001.0001.0001.0002.0001.0001.0001.0001.0001.0002.0001.0001.0001.0001.0001.0002.0001.0001.0001.0001.0001.0002.0001.0001.0001.0001.0002.0001.0001.0001.0001.0001.0002.0001.0001.0001.0001.0001.0002.0001.0001.0001.0001.0001.0002.0001.0001.0001.0001.0001.0002.0001.0001.0001.0001.0002.0001.0001.0001.0001.0001.0002.0001.0001.0001.0001.0001.0002.0001.0001.0001.0001.0001.0002.0001.0001.0001.0001.0002.0001.0001.0001.0001.0001.0002.0001.0001.0001.0001.0001.0002.0001.0001.0001.0001.0001.0002.0001.0001.0001.0001.0001.0002.0001.0001.0001.0001.0002.0001.0001.0001.0001.0001.0002.0001.0001.0001.0001.0001.0002.0001.0001.0001.0001.0001.0002.0001.0001.0001.0001.0002.0001.0001.0001.0001.0001.0002.0001.0001.0001.0001.0001.0002.0001.0001.0001.0001.0001.0002.0001.0001.0001.0001.0001.0002.0001.0001.0001.0001.0002.0001.0001.0001.0001.0001.0002.0001.0001.0001.0001.0001.0002.0001.0001.0001.0001.0001.0002.0001.0001.0001.0001.0002.0001.0001.0001.0001.0001.0002.0001.0001.0001.0001.0001.0002.0001.0001.0001.0001.0001.0002.0001.0001.0001.0001.0001.0002.0001.0001.0001.0001.0002.0001.0001.0001.0001.0001.0002.0001.0001.0001.0001.0001.0002.0001.0001.0001.0001.0001.0002.0001.0001.0001.0001.0001.0002.0001.0001.0001.0001.0002.0001.0001.0001.0001.0001.0002.0001.0001.0001.0001.0001.0002.0001.0001.0001.0001.0001.0002.0001.0001.0001.0001.0002.0001.0001.0001.0001.0001.0002.0001.0001.0001.0001.0001.0002.0001.0001.0001.0001.0001.0002.0001.0001.0001.0001.0001.0002.0001.0001.0001.0001.0002.0001.0001.0001.0001.0001.0002.0001.0001.0001.0001.0001.0002.0001.0001.0001.0001.0001.0002.0001.0001.0001.0001.0002.0001.0001.0001.0001.0001.0002.0001.0001.0001.0001.0001.0002.0001.0001.0001.0001.0001.0002.0001.0001.0001.0001.0001.0002.0001.0001.0001.0001.0002.0001.0001.0001.0001.0001.0002.0001.0001.0001.0001.0001.0002.0001.0001.0001.0001.0001.0002.0001.0001.0001.0001.0002.0001.0001.0001.0001.0001.0002.0001.0001.0001.0001.0001.0002.0001.0001.0001.0001.0001.0002.0001.0001.0001.0001.0001.0002.0001.0001.0001.0001.0002.0001.0001.0001.0001.0001.0002.0001.0001.0001.0001.0001.0002.0001.0001.0001.0001.0001.0002.0001.0001.0001.0001.0002.0001.0001.0001.0001.0001.0002.0001.0001.0001.0001.0001.0002.0001.0001.0001.0001.0001.0002.0001.0001.0001.0001.0002.0001.0001.0001.0001.0001.0002.0001.0001.0001.0001.0001.0002.0001.0001.0001.0001.0001.0002.0001.0001.0001.0001.0001.0002.0001.0001.0001.0001.0002.0001.0001.0001.0001.0001.0002.0001.0001.0001.0001.0001.0002.0001.0001.0001.0001.0001.0002.0001.0001.0001.0001.0002.0001.0001c1.9953-.0108 3.6213 1.5904 3.6344 3.5872.0213 1.287-.6332 2.4291-1.6338 3.0927 1.6294.7351 2.7678 2.3708 2.7849 4.2738.0436 2.6283-2.0586 4.7959-4.6855 4.8406-2.6291.0447-4.7979-2.0579-4.8426-4.6855-.0331-1.9425 1.106-3.6337 2.763-4.4026-.9878-.6389-1.6501-1.7441-1.672-3.0045-.0348-2.0096 1.5783-3.6669 3.5843-3.7017zm.3375 6.2706c-.0826-.0036-.1658-.0051-.2495-.0044h-.0001-.0002-.0002-.0001-.0002-.0002-.0002-.0001-.0002-.0002-.0001-.0002-.0002-.0002-.0001-.0002-.0002-.0001-.0002-.0002-.0001-.0002-.0002-.0001-.0002-.0002-.0002-.0001-.0002-.0002-.0001-.0002-.0002-.0001-.0002-.0002-.0001-.0002-.0002-.0001-.0002-.0001-.0002-.0002-.0001-.0002-.0002-.0001-.0002-.0002-.0001-.0002-.0001-.0002-.0002-.0001-.0002-.0002-.0001-.0002-.0001-.0002-.0002-.0001-.0002-.0002-.0001-.0002-.0001-.0002-.0002-.0001-.0002-.0001-.0002-.0002-.0001-.0002-.0001-.0002-.0001-.0002-.0002-.0001-.0002-.0001-.0002-.0002-.0001-.0002-.0001-.0002-.0001-.0002-.0002-.0001-.0002-.0001-.0002-.0001-.0002-.0001-.0002-.0002-.0001-.0002-.0001-.0002-.0001-.0002-.0001-.0002-.0002-.0001-.0002-.0001-.0002-.0001-.0002-.0001-.0002-.0001-.0002-.0001-.0002-.0001-.0002-.0002-.0001-.0002-.0001-.0002-.0001-.0002-.0001-.0002-.0001-.0002-.0001-.0002-.0001-.0002-.0001-.0002-.0001-.0002-.0001-.0002-.0001-.0002-.0001-.0002-.0001-.0002-.0001-.0002-.0001-.0002-.0001-.0002-.0001-.0002-.0001-.0002-.0001-.0002-.0001-.0002-.0001-.0002-.0001-.0002-.0001-.0002-.0001-.0002-.0001-.0002-.0001-.0002-.0001-.0002-.0001-.0002-.0001-.0002-.0001-.0002-.0001-.0002-.0001-.0001-.0002-.0001-.0002-.0001-.0002-.0001-.0002-.0001-.0002-.0001-.0002-.0001-.0002-.0001-.0002-.0001-.0002-.0001-.0001-.0002-.0001-.0002-.0001-.0002-.0001-.0002-.0001-.0002-.0001-.0002-.0001-.0002-.0001-.0002-.0001-.0001-.0002-.0001-.0002-.0001-.0002-.0001-.0002-.0001-.0002-.0001-.0002-.0001-.0002-.0001-.0001-.0002-.0001-.0002-.0001-.0002-.0001-.0002-.0001-.0002-.0001-.0002-.0001-.0002-.0001-.0001-.0002-.0001-.0002-.0001-.0002-.0001-.0002-.0001-.0002-.0001-.0002-.0001-.0002-.0001-.0001-.0002-.0001-.0002-.0001-.0002-.0001-.0002-.0001-.0002-.0001-.0002-.0001-.0002-.0001-.0002-.0001-.0002-.0001-.0001-.0002-.0001-.0002-.0001-.0002-.0001-.0002-.0001-.0002-.0001-.0002-.0001-.0002-.0001-.0002-.0001-.0002-.0001-.0002-.0001-.0002-.0001-.0002-.0001-.0002-.0001-.0002-.0001-.0002-.0001-.0002-.0001-.0001-.0002-.0001-.0002-.0001-.0002-.0001-.0002-.0001-.0002-.0001-.0002-.0002-.0001-.0002-.0001-.0002-.0001-.0002-.0001-.0002-.0001-.0002-.0001-.0002-.0001-.0002-.0001-.0002-.0001-.0002-.0001-.0002-.0001-.0002-.0001-.0002-.0001-.0002-.0001-.0002-.0002-.0001-.0002-.0001-.0002-.0001-.0002-.0001-.0002-.0001-.0002-.0001-.0002-.0002-.0001-.0002-.0001-.0002-.0001-.0002-.0001-.0002-.0002-.0001-.0002-.0001-.0002-.0001-.0002-.0001-.0002-.0002-.0001-.0002-.0001-.0002-.0001-.0002-.0002-.0001-.0002-.0001-.0002-.0002-.0001-.0002-.0001-.0002-.0002-.0001-.0002-.0001-.0002-.0002-.0001-.0002-.0001-.0002-.0002-.0001-.0002-.0001-.0002-.0002-.0001-.0002-.0002-.0001-.0002-.0001-.0002-.0002-.0001-.0002-.0002-.0001-.0002-.0001-.0002-.0002-.0001-.0002-.0002-.0001-.0002-.0002-.0001-.0002-.0002-.0001-.0002-.0002-.0001-.0002-.0002-.0001-.0002-.0002-.0001-.0002-.0002-.0001-.0002-.0002-.0002-.0001-.0002-.0002-.0001-.0002-.0002-.0001-.0002-.0002-.0002-.0001-.0002-.0002-.0001-.0002-.0002-.0002-.0001-.0002-.0002-.0002-.0001-.0002-.0002-.0002-.0001-.0002-.0002-.0002-.0001v-.0001l-.0085.0001c-.0706.0012-.1407.004-.2104.0082-1.3159-.1275-2.3607-1.2341-2.3843-2.5899-.0251-1.4524 1.1422-2.6569 2.5977-2.6844h.0001.0001.0002.0001.0001.0001.0001.0001.0002.0001.0001.0001.0001.0001.0002.0001.0001.0001.0001.0002.0001.0001.0001.0001.0001.0002.0001.0001.0001.0001.0001.0002.0001.0001.0001.0001.0001.0002.0001.0001.0001.0001.0002.0001.0001.0001.0001.0001.0002.0001.0001.0001.0001.0001.0002.0001.0001.0001.0001.0001.0002.0001.0001.0001.0001.0001.0002.0001.0001.0001.0001.0002.0001.0001.0001.0001.0001.0002.0001.0001.0001.0001.0001.0002.0001.0001.0001.0001.0001.0002.0001.0001.0001.0001.0002.0001.0001.0001.0001.0001.0002.0001.0001.0001.0001.0001.0002.0001.0001.0001.0001.0001.0002.0001.0001.0001.0001.0001.0002.0001.0001.0001.0001.0002.0001.0001.0001.0001.0001.0002.0001.0001.0001.0001.0001.0002.0001.0001.0001.0001.0001.0002.0001.0001.0001.0001.0002.0001.0001.0001.0001.0001.0002.0001.0001.0001.0001.0001.0002.0001.0001.0001.0001.0001.0002.0001.0001.0001.0001.0001.0002.0001.0001.0001.0001.0002.0001.0001.0001.0001.0001.0002.0001.0001.0001.0001.0001.0002.0001.0001.0001.0001.0001.0002.0001.0001.0001.0001.0001.0002.0001.0001.0001.0001.0002.0001.0001.0001.0001.0001.0002.0001.0001.0001.0001.0001.0002.0001.0001.0001.0001.0001.0002.0001.0001.0001.0001.0002.0001.0001.0001.0001.0001.0002.0001.0001.0001.0001.0001.0002.0001.0001.0001.0001.0001.0002.0001.0001.0001.0001.0001.0002.0001.0001.0001.0001.0002.0001.0001.0001.0001.0001.0002.0001.0001.0001.0001.0001.0002.0001.0001.0001.0001.0001.0002.0001.0001.0001.0001.0002.0001.0001.0001.0001.0001.0002.0001.0001.0001.0001.0001.0002.0001.0001.0001.0001.0001.0002.0001.0001.0001.0001.0001.0002.0001.0001.0001.0001.0002.0001.0001.0001.0001.0001.0002.0001.0001.0001.0001.0001.0002.0001.0001.0001.0001.0001.0002.0001.0001.0001.0001.0002.0001.0001.0001.0001.0001.0002.0001.0001.0001.0001.0001.0002.0001.0001.0001.0001.0001.0002.0001.0001.0001.0001.0001.0002.0001.0001.0001.0001.0002.0001.0001.0001.0001.0001.0002.0001.0001.0001.0001.0001.0002.0001.0001.0001.0001.0001.0002.0001.0001.0001.0001.0002.0001.0001.0001.0001.0001.0002.0001.0001.0001.0001.0001.0002.0001.0001.0001.0001.0001.0002.0001.0001.0001.0001.0002.0001.0001.0001.0001.0001.0002.0001.0001.0001.0001.0001.0002.0001.0001.0001.0001.0001.0002.0001.0001.0001.0001.0001.0002.0001.0001.0001.0001.0002.0001.0001.0001.0001.0001.0002.0001.0001.0001.0001.0001.0002.0001.0001.0001.0001.0001.0002.0001.0001.0001.0001.0002.0001.0001.0001.0001.0001.0002.0001.0001.0001.0001.0001.0002.0001.0001.0029c1.4463-.0084 2.6217 1.1512 2.6301 2.5959l.0001.0058c.0238 1.3709-1.015 2.5211-2.3557 2.6688zm-.5538 1.0067c-1.9659.155-3.5018 1.818-3.4678 3.8146.0354 2.0769 1.7504 3.738 3.8258 3.7026 2.0769-.0353 3.738-1.7503 3.7027-3.8257l-.0001-.0043c-.0169-1.9687-1.5532-3.5714-3.4847-3.6913-.0828.0071-.1665.0114-.2508.0129-.1095.0019-.2179-.0011-.3251-.0088z" fill="#050504" fill-rule="evenodd"/></svg>