<svg fill="none" height="72" viewBox="0 0 72 72" width="72" xmlns="http://www.w3.org/2000/svg"><path clip-rule="evenodd" d="m5.05912 21.0872c-.04161-.273.14593-.5281.41889-.5698l9.39369-1.436c.1085-.0626.2374-.0823.3596-.055l10.9302-1.6709c.1341-.1013.3116-.1285.4699-.0718l22.5217-3.4428c.0095-.0018.0191-.0032.0287-.0044l11.1707-1.7077c.0982-.0512.2112-.0685.3202-.0489l3.7561-.5742c.273-.0417.528.1457.5696.4187l.8545 5.6055c.0416.273-.1459.5281-.4189.5698l-9.349 1.4292c-.1295.0929-.2969.1186-.4484.0685l-10.9706 1.6771c-.1386.1104-.3268.139-.4917.0752l-22.287 3.4069c-.0886.0421-.188.0573-.2851.0436l-8.8386 1.3512h53.2955c.2762 0 .5.2238.5.5v32.3612c0 .2761-.2238.5-.5.5h-59.63847c-.27614 0-.5-.2239-.5-.5v-32.2832c-.00275-.012-.00509-.0243-.00698-.0367zm51.89338-2.7025 7.8366-1.1979-.7038-4.617-3.2426.4957zm2.4954-5.106-3.8902 5.3192-10.0165 1.5312 3.9798-5.3329zm-21.3557 3.2646 10.0203-1.5318-3.9798 5.3329-9.9972 1.5283zm-22.7177 3.4728 9.9247-1.5172-3.8902 5.3193-9.9247 1.5171zm17.3561 2.0714-9.9268 1.5175 3.8902-5.3193 9.9933-1.5277zm-18.7509-1.8582-7.85676 1.201.70383 4.617 3.26263-.4987zm-7.05907 6.9221v31.3612h58.63847v-31.3612zm32.43667 25.0175c0-.2762.2239-.5.5-.5h19.7491c.2762 0 .5.2238.5.5 0 .2761-.2238.5-.5.5h-19.7491c-.2761 0-.5-.2239-.5-.5zm5.584-5.4862c-.2762 0-.5.2239-.5.5 0 .2762.2238.5.5.5h14.6652c.2761 0 .5-.2238.5-.5 0-.2761-.2239-.5-.5-.5z" fill="#050504" fill-rule="evenodd"/></svg>