<svg fill="none" height="72" viewBox="0 0 72 72" width="72" xmlns="http://www.w3.org/2000/svg"><path d="m67.1933 28.3393c-.2003-.5007-.5007-.5007-1.0014-.5007l-22.0306-.1001c-.4006 0-.6008-.1002-.701-.5007-1.2016-3.7052-2.4033-7.4103-3.605-11.1155l-3.1043-9.51316c-.1001-.30042-.3004-.60084-.701-.60084-.5007 0-.7009.30042-.8011.70097-2.203 6.90963-4.5062 13.71903-6.7093 20.52853 0 .3004-.3004.5007-.6008.5007-7.3102 0-14.7205 0-22.13077.1001-.10014 0-.30042 0-.40055 0-.20028.1002-.40056.2003-.60084.4006 0 .2003 0 .5007.10014.701.10014.2002.20028.3004.40056.4005l17.82476 13.0181c.3004.1001.4005.4005.2003.701-1.0014 3.0041-1.9027 6.0083-2.9041 9.0125-1.3018 4.1057-2.7037 8.2114-4.0055 12.4172-.1002.2003-.1002.4006 0 .701.2003.5007.7009.6008 1.3018.2003l17.8247-13.0181c.2003-.2003.6009-.2003.8012 0 5.107 3.8053 10.2141 7.5104 15.3212 11.2156l2.7038 2.0028c.3004.2002.6008.2002.9012 0 .3005-.2003.4006-.5007.3005-.9013 0-.1001-.1002-.2003-.1002-.3004-2.3032-7.0097-4.5062-14.1196-6.8094-21.2295-.1002-.2003-.1002-.6008.2002-.701l15.3213-11.2155 2.6036-1.9027c.3004-.3004.6009-.5007.4006-1.0014z" stroke="#050504" stroke-linecap="round" stroke-linejoin="round"/></svg>