<svg fill="none" height="72" viewBox="0 0 72 72" width="72" xmlns="http://www.w3.org/2000/svg"><path d="m22.6315 14.9207c.8296 0 1.5021-.3587 1.5021-.8011s-.6725-.8011-1.5021-.8011-1.5021.3587-1.5021.8011.6725.8011 1.5021.8011z" fill="currentColor"/><path d="m48.968 14.7204c.4978 0 .9013-.2242.9013-.5007s-.4035-.5007-.9013-.5007c-.4977 0-.9012.2242-.9012.5007s.4035.5007.9012.5007z" fill="currentColor"/><path d="m18.0223 16c-.0724-.4602.0307-.9534.3207-1.3989l3.9002-6.65561c.7-1.22873 2.0001-1.94549 3.3002-1.94549h21.0011c1.4001 0 2.6002.71676 3.3002 1.94549l3.9002 6.65561s.1.1024.1.2048c.2144.4939.199 1.0466 0 1.532m-35.8226-.3379c.0775.4919.3557.946.8207 1.2634.1.1024.2.1024.2.1024.8001.4096 1.8001.7167 2.8002.6144h14.2008 14.1007c1.0001 0 1.9001-.2048 2.8002-.6144.4177-.2376.7277-.6076.9-1.0279m-35.8226-.3379v48.5c.0213.3333.2551 1 1.0207 1h33.9019c.3517 0 1.0551-.3 1.0551-1.5s-.1034-32.2748-.1551-47.6621" stroke="currentColor" stroke-miterlimit="10"/></svg>