<svg fill="none" height="72" viewBox="0 0 72 72" width="72" xmlns="http://www.w3.org/2000/svg"><g stroke="#050504" stroke-miterlimit="10"><path d="m35.98 47.4h-20.58c-5.52 0-11.15-2.78-11.15-9.86 0-6.65 7.31-9.57 7.31-9.57s-.51-5.48 3.56-9c4.58-3.92 10.46-2.14 10.46-2.14.8398-2.8711 2.6141-5.3797 5.0416-7.12783 2.4275-1.74814 5.3691-2.63579 8.3584-2.52217 11.59 0 13.19 10.22 13.19 10.22s4.4.24 6.71 3c.6818.8956 1.167 1.925 1.4237 3.021.2568 1.0959.2794 2.2337.0663 3.339 1.8655 1.0099 3.4175 2.5132 4.4863 4.3456 1.0687 1.8324 1.6132 3.9234 1.5737 6.0444 0 8.26-7.61 10.34-10.75 10.34s-19.7-.09-19.7-.09z"/><path d="m16.9201 53.24h-12.24005v12.24h12.24005z"/><path d="m42.2 53.24h-12.24v12.24h12.24z"/><path d="m66.83 53.24h-12.24v12.24h12.24z"/><path d="m35.89 47.55v5.47"/><path d="m23.9 47.55v11.83h-6.85"/><path d="m48.28 47.55v11.83h6.52"/></g></svg>