<svg fill="none" height="72" viewBox="0 0 72 72" width="72" xmlns="http://www.w3.org/2000/svg"><path clip-rule="evenodd" d="m5.97534 35.7948c0-16.6402 13.48956-30.12978 30.12976-30.12978s30.1298 13.48958 30.1298 30.12978-13.4896 30.1298-30.1298 30.1298-30.12976-13.4896-30.12976-30.1298zm30.12976-31.12978c-17.1925 0-31.12976 13.93728-31.12976 31.12978s13.93726 31.1298 31.12976 31.1298 31.1298-13.9373 31.1298-31.1298-13.9373-31.12978-31.1298-31.12978zm9.789 36.37488c0-.2761-.2239-.5-.5-.5s-.5.2239-.5.5c0 2.2176-1.1188 4.0518-2.7757 5.3466-1.6632 1.2996-3.8419 2.0311-5.8732 2.0311-2.0258 0-4.2055-.7655-5.873-2.0697-1.6648-1.3022-2.7759-3.1033-2.7759-5.1679 0-.2761-.2238-.5-.5-.5-.2761 0-.5.2239-.5.5 0 2.4499 1.3213 4.5175 3.1599 5.9555 1.6982 1.3283 3.8747 2.1519 5.979 2.2679v9.1035c0 .2761.2239.5.5.5.2762 0 .5-.2239.5-.5v-9.1019c2.106-.107 4.2915-.8964 5.9989-2.2305 1.8464-1.4429 3.16-3.5476 3.16-6.1346zm-16.2358-18.2577c0-3.6577 2.9693-6.627 6.627-6.627 3.6681 0 6.6369 2.9697 6.6369 6.627v16.0956c0 3.6577-2.9693 6.6269-6.6269 6.6269h-.01c-3.6577 0-6.627-2.9692-6.627-6.6269zm6.627-7.627c-4.21 0-7.627 3.417-7.627 7.627v16.0956c0 4.21 3.417 7.6269 7.627 7.6269h.01c4.2099 0 7.6269-3.4169 7.6269-7.6269v-16.0956c0-4.2105-3.4174-7.627-7.6369-7.627z" fill="#050504" fill-rule="evenodd"/></svg>