<svg fill="none" height="72" viewBox="0 0 72 72" width="72" xmlns="http://www.w3.org/2000/svg"><path clip-rule="evenodd" d="m5.40747 13.5c-.27614 0-.5.2239-.5.5v39.6551c0 .2761.22386.5.5.5h26.63773v3.2058h-13.4194c-.2761 0-.5.2239-.5.5 0 .2762.2239.5.5.5h13.9194 6.3087 13.9194c.2761 0 .5-.2238.5-.5 0-.2761-.2239-.5-.5-.5h-13.4194v-3.2058h27.3387c.2761 0 .5-.2239.5-.5v-39.6551c0-.2761-.2239-.5-.5-.5zm32.94643 40.6551h-5.3087v3.2058h5.3087zm-32.44643-1v-38.6551h60.28513v38.6551zm16.22923-32.1518.7862-.6041 13.0088 13.0013 13.0088-13.0014.7861.6042-7.5821 13.0965 7.5824 13.1273-.7864.6038-13.0088-13.0013-13.0088 13.0013-.7864-.6037 7.5824-13.1273zm14.5023 13.1194 10.3231 10.3171-5.8282-10.0902-.1446-.2503.1449-.2503 5.8174-10.0484-10.3126 10.3068.0076.0076zm-11.7273-10.3221 5.8175 10.0485.1449.2502-.1447.2504-5.8281 10.0901 10.3231-10.3171-.0077-.0077.0076-.0076z" fill="#050504" fill-rule="evenodd"/></svg>