<svg fill="none" height="72" viewBox="0 0 72 72" width="72" xmlns="http://www.w3.org/2000/svg"><path clip-rule="evenodd" d="m63.1137 24.1937c.0908.0707.1972.1558.2966.2439 6.1124 5.2554 6.8056 14.4677 1.5517 20.5817-.0836.0973-.1964.1545-.3143.1699-2.6565 3.0873-6.5682 5.0637-10.943 5.1371-.0667.0333-.142.052-.2217.0522-5.2706.0104-10.1574-2.744-12.8905-7.2474-.1433-.2361-.068-.5436.168-.6869.2361-.1432.5436-.068.6869.1681 2.5098 4.1354 6.9639 6.6903 11.7896 6.7646.0651-.0311.138-.0485.215-.0485 7.6015 0 13.7638-6.1623 13.7638-13.7638s-6.1623-13.7639-13.7638-13.7639c-.0417 0-.0821-.0051-.1208-.0147-.758.0285-1.5277.125-2.3035.2969-4.3316.9598-8.9495 4.2932-12.8103 11.4958l-.0002.0004c-.221.4113-.4693.902-.7479 1.4524-1.1496 2.2713-2.814 5.5597-5.1916 8.4835-2.965 3.6461-7.1048 6.8135-12.8588 6.8135l-.0155-.0003-.0147.0002h-.01-.0007c-4.472-.0056-8.4765-1.9966-11.18113-5.1387-.11544-.0142-.22647-.0686-.31038-.1618-.08487-.0943-.1625-.1895-.23613-.2798l-.00006-.0001h-.00005l-.00002-.0001h-.00002l-.03931-.0482-.00106-.0013c-5.07912-6.2504-4.12527-15.4238 2.12465-20.5025 2.55801-2.0793 5.57461-3.1948 8.61241-3.3584.3474-.0244.6981-.0368 1.0518-.0368.0508 0 .0998.0076.146.0217 4.9732.1416 9.8491 2.8339 12.7044 8.0249.1331.2419.0449.546-.1971.6791-.2419.133-.546.0448-.6791-.1972-2.8841-5.2432-7.947-7.7561-12.9509-7.4944-7.146.5001-12.78779 6.4469-12.7972 13.7201.00001.3239.01119.6452.03318.9636l-.29294-.2735h.00001l.29293.2735c.49402 7.1519 6.44332 12.8004 13.72072 12.8099l-13.72072-12.8099 13.72132 12.8099h.0094l.0154.0003.0148-.0002c5.3367 0 9.2197-2.9236 12.0829-6.4444 2.301-2.8296 3.9011-5.9882 5.053-8.2622.287-.5665.5462-1.0782.7815-1.5161 3.9567-7.3813 8.7829-10.9595 13.475-11.9992 4.682-1.0374 9.135.4751 12.3024 3.0871z" fill="currentColor" fill-rule="evenodd"/></svg>