<svg fill="none" height="72" viewBox="0 0 72 72" width="72" xmlns="http://www.w3.org/2000/svg" xmlns:xlink="http://www.w3.org/1999/xlink"><mask id="a" fill="#fff"><path clip-rule="evenodd" d="m36 65c16.0163 0 29-12.9837 29-29s-12.9837-29-29-29-29 12.9837-29 29 12.9837 29 29 29zm0 1c16.5685 0 30-13.4315 30-30s-13.4315-30-30-30-30 13.4315-30 30 13.4315 30 30 30zm-1-15v-22h1v22zm.5-26c.8284 0 1.5-.6716 1.5-1.5s-.6716-1.5-1.5-1.5-1.5.6716-1.5 1.5.6716 1.5 1.5 1.5z" fill="#fff" fill-rule="evenodd"/></mask><g fill="currentColor"><path clip-rule="evenodd" d="m36 65c16.0163 0 29-12.9837 29-29s-12.9837-29-29-29-29 12.9837-29 29 12.9837 29 29 29zm0 1c16.5685 0 30-13.4315 30-30s-13.4315-30-30-30-30 13.4315-30 30 13.4315 30 30 30zm-1-15v-22h1v22zm.5-26c.8284 0 1.5-.6716 1.5-1.5s-.6716-1.5-1.5-1.5-1.5.6716-1.5 1.5.6716 1.5 1.5 1.5z" fill-rule="evenodd"/><path d="m35 29v-1h-1v1zm0 22h-1v1h1zm1-22h1v-1h-1zm0 22v1h1v-1zm28-15c0 15.464-12.536 28-28 28v2c16.5685 0 30-13.4315 30-30zm-28-28c15.464 0 28 12.536 28 28h2c0-16.5685-13.4315-30-30-30zm-28 28c0-15.464 12.536-28 28-28v-2c-16.5685 0-30 13.4315-30 30zm28 28c-15.464 0-28-12.536-28-28h-2c0 16.5685 13.4315 30 30 30zm29-28c0 16.0163-12.9837 29-29 29v2c17.1208 0 31-13.8792 31-31zm-29-29c16.0163 0 29 12.9837 29 29h2c0-17.1208-13.8792-31-31-31zm-29 29c0-16.0163 12.9837-29 29-29v-2c-17.1208 0-31 13.8792-31 31zm29 29c-16.0163 0-29-12.9837-29-29h-2c0 17.1208 13.8792 31 31 31zm-2-36v22h2v-22zm2-1h-1v2h1zm1 23v-22h-2v22zm-2 1h1v-2h-1zm1-28.5c0 .2761-.2239.5-.5.5v2c1.3807 0 2.5-1.1193 2.5-2.5zm-.5-.5c.2761 0 .5.2239.5.5h2c0-1.3807-1.1193-2.5-2.5-2.5zm-.5.5c0-.2761.2239-.5.5-.5v-2c-1.3807 0-2.5 1.1193-2.5 2.5zm.5.5c-.2761 0-.5-.2239-.5-.5h-2c0 1.3807 1.1193 2.5 2.5 2.5z" mask="url(#a)"/></g></svg>