<svg fill="none" height="72" viewBox="0 0 72 72" width="72" xmlns="http://www.w3.org/2000/svg"><path clip-rule="evenodd" d="m35.95 4.80737c.2761 0 .5.22386.5.5v7.41033c0 .2761-.2239.5-.5.5-.2762 0-.5-.2239-.5-.5v-7.41033c0-.27614.2238-.5.5-.5zm21.3366 8.50493c.2178-.1698.2567-.484.0869-.7018s-.484-.2567-.7018-.0869l-5.9082 4.6064c-.2178.1698-.2567.484-.0869.7018.1698.2177.484.2566.7018.0869zm-43.5756-.0816c.1591-.2257.471-.2797.6967-.1206l6.1085 4.306c.2257.1591.2797.471.1206.6967s-.4711.2797-.6968.1206l-6.1084-4.306c-.2257-.1591-.2797-.471-.1206-.6967zm19.1346 25.7241c-.1743 0-.3772.0421-.5527.1591-.1904.1269-.3478.3472-.3478.6413v.0006.0006.0006.0005.0006.0006.0006.0005.0006.0006.0005.0006.0006.0005.0006.0005.0006.0005.0006.0005.0006.0005.0005.0006.0005.0005.0006.0005.0005.0005.0006.0005.0005.0005.0005.0005.0005.0005.0005.0006.0005.0005.0005.0004.0005.0005.0005.0005.0005.0005.0005.0004.0005.0005.0005.0004.0005.0005.0005.0004.0005.0004.0005.0005.0004.0005.0004.0005.0004.0005.0004.0005.0004.0005.0004.0004.0005.0004.0005.0004.0004.0005.0004.0004.0004.0005.0004.0004.0004.0004.0004.0005.0004.0004.0004.0004.0004.0004.0004.0004.0004.0004.0004.0004.0004.0004.0004.0004.0004.0004.0004.0004.0003.0004.0004.0004.0004.0004.0003.0004.0004.0004.0003.0004.0004.0003.0004.0004.0003.0004.0004.0003.0004.0004.0003.0004.0003.0004.0003.0004.0004.0003.0004.0003.0004.0003.0003.0004.0003.0004.0003.0004.0003.0004.0003.0003.0004.0003.0003.0004.0003.0003.0004.0003.0003.0004.0003.0003.0004.0003.0003.0003.0004.0003.0003.0003.0003.0004.0003.0003.0003.0003.0004.0003.0003.0003.0003.0003.0004.0003.0003.0003.0003.0003.0003.0003.0003.0004.0003.0003.0003.0003.0003.0003.0003.0003.0003.0003.0003.0003.0003.0003.0003.0003.0003.0003.0003.0003.0003.0003.0003.0003.0003.0003.0003.0003.0003.0003.0003.0003.0003.0003.0003.0003.0003.0003.0003.0003.0003.0003.0003.0002.0003.0003.0003.0003.0003.0003.0003.0003.0003.0003.0003.0003.0003.0003.0003.0002.0003.0003.0003.0003.0003.0003.0003.0003.0003.0003.0003.0003.0003.0003.0003.0002.0003.0003.0003.0003.0003.0003.0003.0003.0003.0003.0003.0003.0003.0003.0003.0003.0003.0003.0003.0003.0003.0003.0003.0003.0003.0003.0003.0003.0003.0003.0003.0003.0003.0003.0003.0003.0003.0004.0003.0003.0003.0003.0003.0003.0003.0003.0003.0004.0003.0003.0003.0003.0003.0003.0004.0003.0003.0003.0003.0004.0003.0003.0003.0003.0004.0003.0003.0003.0004.0003.0003.0004.0003.0003.0003.0004.0003.0003.0004.0003.0004.0003.0003.0004.0003.0004.0003.0003.0004.0003.0004.0003.0004.0003.0004.0003.0004.0003.0004.0003.0004.0003.0004.0004.0003.0004.0003.0004.0004.0003.0004.0004.0003.0004.0004.0004.0003.0004.0004.0004.0003.0004.0004.0004.0004.0004.0003.0004.0004.0004.0004.0004.0004.0004.0004.0004.0004.0004.0004.0004.0004.0004.0004.0004.0004.0005.0004.0004.0004.0004.0004.0005.0004.0004.0004.0005.0004.0004.0005.0004.0004.0005.0004.0005.0004.0004.0005.0004.0005.0004.0005.0004.0005.0004.0005.0005.0004.0005.0005.0004.0005.0005.0004.0005.0005.0005.0005.0004.0005.0005.0005.0005.0005.0005.0005.0005.0005.0005.0005.0005.0005.0005.0005.0005.0005.0005.0006.0005.0005.0005.0006.0005.0005.0006.0005.0005.0006.0005.0006.0005.0005.0006.0005.0006.0006.0005.0006.0005.0006.0006.0005.0006.0006.0006.0006.0005.0006.0006l.0454.2083c1.0721 2.3391 1.6583 4.8748 1.7571 7.4119v.0021.0024.0023.0023.0024.0023.0024.0023.0024.0023.0024.0023.0024.0023.0024.0023.0024.0023.0023.0024.0023.0024.0023.0024.0023.0024.0023.0024.0023.0024.0023.0024.0023.0024.0023.0024.0023.0023.0024.0023.0024.0023.0024.0023.0024.0023.0024.0023.0024.0023.0024.0023.0023.0024.0023.0024.0023.0024.0023.0024.0023.0024.0023.0024.0023.0024.0023.0024.0023.0023.0024.0023.0024.0023.0024.0023.0024.0023.0024.0023.0024.0023.0024.0023.0024.0023.0023.0024.0023.0024.0023.0024.0023.0024.0023.0024.0023.0024.0023.0024.0023.0023.0024.0023.0024.0023.0024.0023.0024.0023.0024.0023.0024.0023.0024.0023.0024.0023.0024.0023.0023.0024.0023.0024.0023.0024.0023.0024.0023.0024.0023.0024.0023.0024.0023.0023.0024.0023.0024.0023.0024.0023.0024.0023.0024.0023.0024.0023.0024.0023.0024.0023.0023.0024.0023.0024.0023.0024.0023.0024.0023.0024.0023.0024.0023.0024.0023.0024.0023.0023.0024.0023.0024.0023.0024.0023.0024.0023.0024.0023.0024.0023.0024.0023.0024.0023.0023.0024.0023.0024.0023.0024.0023.0024.0023.0024.0023.0024.0023.0024.0023.0024.0023.0023.0024.0023.0024.0023.0024.0023.0024.0023.0024.0023.0024.0023.0024.0023.0024.0023.0023.0024.0023.0024.0023.0024.0023.0024.0023.0024.0023.0024.0023.0024.0023.0024.0023.0023.0024.0023.0024.0023.0024.0023.0024.0023.0024.0023.0024.0023.0024.0023.0024.0023.0023.0024.0023.0024.0023.0024.0023.0024.0023.0024.0023.0024.0023.0024.0023.0023.0024.0023.0024.0023.0024.0023.0024.0023.0024.0023.0024.0023.0024.0023.0024.0023.0024.0023.0023.0024.0023.0024.0023.0024.0023.0024.0023.0024.0023.0024.0023.0024.0023.0023.0024.0023.0024.0023.0024.0023.0024.0023.0024.0023.0024.0023.0024.0023.0024.0023.0023.0024.0023.0024.0023.0024.0023.0024.0023.0024.0023.0024.0023.0024.0023.0024.0023.0023.0024.0023.0024.0023.0024.0023.0024.0023.0024.0023.0024.0023.0024.0023.0024.0023.0023.0024.0023.0024.0023.0024.0023.0024.0023.0024.0023.0024.0023.0024.0023.0024.0023.0023.0024.0023.0024.0023.0024.0023.0024.0023.0024.0023.0024.0023.0024.0023.0023.0024.0023.0024.0023.0024.0023.0024.0023.0024.0023.0024.0023.0024.0023.0024.0023.0024.0023.0023.0024.0023.0024.0023.0024.0023.0024.0023.0024.0023.0024.0023.0024.0023.0023.0024.0023.0024.0023.0024.0023.0024.0023.0024.0023.0024.0023.0024.0023.0024.0023.0023.0024.0023.0024.0023.0024.0023.0024.0023.0024.0023.0024.0023.0024.0023.0024.0023.0023.0024.0023.0024.0023.0024.0023.0024.0023.0024.0023.0024.0023.0024.0023.0024.0023.0023.0024.0023.0024.0023.0024.0023.0024.0023.0024.0023.0024.0023.0024.0023.0024.0023.0023.0024.0023.0024.0023.0024.0023.0024.0023.0024.0023.0024.0023.0024.0023.0024.0023.0023.0024.0023c0 .1287-.0654.2759-.2077.4024-.1432.1273-.328.1992-.494.1992h-.1001c-.2762 0-.5.2238-.5.5 0 .2761.2238.5.5.5h.1001c.4349 0 .8509-.1785 1.1583-.4518.3083-.274.5434-.6776.5434-1.1498v-.0023-.0024-.0023-.0023-.0024-.0023-.0024-.0023-.0024-.0023-.0024-.0023-.0024-.0023-.0024-.0023-.0024-.0023-.0024-.0023-.0023-.0024-.0023-.0024-.0023-.0024-.0023-.0024-.0023-.0024-.0023-.0024-.0023-.0024-.0023-.0024-.0023-.0023-.0024-.0023-.0024-.0023-.0024-.0023-.0024-.0023-.0024-.0023-.0024-.0023-.0024-.0023-.0024-.0023-.0023-.0024-.0023-.0024-.0023-.0024-.0023-.0024-.0023-.0024-.0023-.0024-.0023-.0024-.0023-.0024-.0023-.0023-.0024-.0023-.0024-.0023-.0024-.0023-.0024-.0023-.0024-.0023-.0024-.0023-.0024-.0023-.0024-.0023-.0023-.0024-.0023-.0024-.0023-.0024-.0023-.0024-.0023-.0024-.0023-.0024-.0023-.0024-.0023-.0023-.0024-.0023-.0024-.0023-.0024-.0023-.0024-.0023-.0024-.0023-.0024-.0023-.0024-.0023-.0024-.0023-.0024-.0023-.0023-.0024-.0023-.0024-.0023-.0024-.0023-.0024-.0023-.0024-.0023-.0024-.0023-.0024-.0023-.0023-.0024-.0023-.0024-.0023-.0024-.0023-.0024-.0023-.0024-.0023-.0024-.0023-.0024-.0023-.0024-.0023-.0023-.0024-.0023-.0024-.0023-.0024-.0023-.0024-.0023-.0024-.0023-.0024-.0023-.0024-.0023-.0024-.0023-.0023-.0024-.0023-.0024-.0023-.0024-.0023-.0024-.0023-.0024-.0023-.0024-.0023-.0024-.0023-.0024-.0023-.0023-.0024-.0023-.0024-.0023-.0024-.0023-.0024-.0023-.0024-.0023-.0024-.0023-.0024-.0023-.0024-.0023-.0023-.0024-.0023-.0024-.0023-.0024-.0023-.0024-.0023-.0024-.0023-.0024-.0023-.0024-.0023-.0023-.0024-.0023-.0024-.0023-.0024-.0023-.0024-.0023-.0024-.0023-.0024-.0023-.0024-.0023-.0024-.0023-.0024-.0023-.0023-.0024-.0023-.0024-.0023-.0024-.0023-.0024-.0023-.0024-.0023-.0024-.0023-.0024-.0023-.0023-.0024-.0023-.0024-.0023-.0024-.0023-.0024-.0023-.0024-.0023-.0024-.0023-.0024-.0023-.0024-.0023-.0023-.0024-.0023-.0024-.0023-.0024-.0023-.0024-.0023-.0024-.0023-.0024-.0023-.0024-.0023-.0024-.0023-.0023-.0024-.0023-.0024-.0023-.0024-.0023-.0024-.0023-.0024-.0023-.0024-.0023-.0024-.0023-.0024-.0023-.0023-.0024-.0023-.0024-.0023-.0024-.0023-.0024-.0023-.0024-.0023-.0024-.0023-.0024-.0023-.0024-.0023-.0023-.0024-.0023-.0024-.0023-.0024-.0023-.0024-.0023-.0024-.0023-.0024-.0023-.0024-.0023-.0024-.0023-.0023-.0024-.0023-.0024-.0023-.0024-.0023-.0024-.0023-.0024-.0023-.0024-.0023-.0024-.0023-.0024-.0023-.0023-.0024-.0023-.0024-.0023-.0024-.0023-.0024-.0023-.0024-.0023-.0024-.0023-.0024-.0023-.0024-.0023-.0023-.0024-.0023-.0024-.0023-.0024-.0023-.0024-.0023-.0024-.0023-.0024-.0023-.0024-.0023-.0023-.0024-.0023-.0024-.0023-.0024-.0023-.0024-.0023-.0024-.0023-.0024-.0023-.0024-.0023-.0024-.0023-.0024-.0023-.0023-.0024-.0023-.0024-.0023-.0024-.0023-.0024-.0023-.0024-.0023-.0024-.0023-.0024-.0023-.0023-.0024-.0023-.0024-.0023-.0024-.0023-.0024-.0023-.0024-.0023-.0024-.0023-.0024-.0023-.0024-.0023-.0023-.0024-.0023-.0024-.0023-.0024-.0023-.0024-.0023-.0024-.0023-.0024-.0023-.0024-.0023-.0024-.0023-.0023-.0024-.0023-.0024-.0023-.0024-.0023-.0024-.0023-.0024-.0023-.0024-.0023-.0024-.0023-.0023-.0024-.0023-.0024-.0023-.0024-.0023-.0024-.0023-.0024-.0023-.0024-.0023-.0024-.0023-.0024-.0023-.0024-.0023-.0023-.0024-.0023-.0024-.0023-.0024-.0023-.0024-.0023-.0024-.0023-.0024-.0023-.0024-.0023-.0023-.0024-.0023-.0024-.0023-.0024-.0023l-.0004-.0192c-.0952-2.4743-.6317-4.9495-1.6108-7.2624l.5113.3719c.6582.5058 1.2687.8714 1.9649.888.6997.0166 1.3655-.3209 2.1351-.8853l.0579-.0496c.1689-.169.3547-.3132.5576-.4255-.0257.0606-.0518.124-.0724.1816-1.2262 2.5645-1.8395 5.333-1.8395 8.1017l-.0002.07-.0004.0534v.0005c-.0012.1557-.0026.3356.0098.5018.0165.219.0592.4747.1889.714.2921.5393.8787.7625 1.7039.7625.2761 0 .5-.2238.5-.5 0-.2761-.2239-.5-.5-.5-.6769 0-.7913-.1772-.8246-.2388-.0331-.0611-.0592-.1559-.071-.3125-.009-.1211-.0082-.2436-.0071-.39v-.001c.0003-.0502.0007-.1032.0007-.1599 0-2.6296.5844-5.2593 1.7533-7.6946l.0236-.0583c.0154-.0464.0445-.1141.0904-.2213l.0001-.0001.0105-.0245c.0465-.1085.1044-.2451.1493-.3799.0413-.1239.0914-.3015.0848-.4802-.0035-.0944-.0237-.2221-.0987-.3471-.0816-.1359-.2064-.2322-.3524-.2808l-.2403-.0189c-.707.1178-1.2891.4661-1.745.9126-.7148.52-1.1435.6787-1.4905.6705-.3534-.0085-.7429-.1916-1.3844-.6851l.0001-.0001-.0109-.008-1.1015-.8011zm-13.7087 6.5997c.2163-.1716.2526-.4861.081-.7025-.1716-.2163-.4861-.2526-.7024-.081l-5.8081 4.6064c-.2164.1716-.2526.4861-.081.7024.1715.2164.486.2527.7024.0811zm-10.92547-14.4106c-.27615 0-.5.2239-.5.5 0 .2762.22385.5.5.5h7.20997c.2762 0 .5-.2238.5-.5 0-.2761-.2238-.5-.5-.5zm48.06747.5c0-.2761.2238-.5.5-.5h7.21c.2761 0 .5.2239.5.5 0 .2762-.2239.5-.5.5h-7.21c-.2762 0-.5-.2238-.5-.5zm-3.1949 13.1271c-.2163-.1716-.5308-.1353-.7024.081-.1716.2164-.1353.5309.081.7025l5.8081 4.6064c.2163.1716.5308.1353.7024-.0811.1716-.2163.1353-.5308-.081-.7024zm-9.739 10.987c.0661.2681-.0977.539-.3658.6051l-13.8192 3.4047c-.2682.0661-.5391-.0977-.6051-.3658-.0661-.2682.0977-.5391.3658-.6051l13.8192-3.4048c.2682-.066.5391.0978.6051.3659zm-.2667 4.3105c.2683-.0656.4326-.3361.3671-.6044-.0655-.2682-.3361-.4326-.6044-.3671l-13.1182 3.2045c-.2682.0655-.4326.3361-.3671.6044.0656.2682.3362.4326.6044.367zm-2.4538 4.2997c.233.1482.3017.4572.1534.6902-.7792 1.2244-1.997 1.9927-3.3047 2.3196-.0397.0099-.0804.0149-.1213.0149h-2.7038c-.0378 0-.0755-.0043-.1124-.0128-1.411-.3256-2.6107-1.0879-3.4824-2.1776-.1725-.2157-.1376-.5303.078-.7028.2157-.1725.5303-.1376.7028.0781.7194.8992 1.7034 1.5332 2.8722 1.8151h2.5826c1.0722-.2816 2.0336-.9101 2.6453-1.8714.1483-.2329.4573-.3016.6903-.1533zm-8.3619-46.6584c9.6916-2.3251 18.9092 4.9373 18.9092 15.236 0 .0077.0001.0155.0005.0232.1916 4.1197-1.7183 7.7944-4.8561 10.934-1.8883 1.7858-3.0436 4.2013-3.254 6.7259-.0006.0076-.0011.0153-.0014.023-.0002.0062-.0003.0123-.0003.0185 0 .534-.3993.9395-.8725 1.0071-.017.0024-.0339.0057-.0506.0099-.6643.1661-1.3317.3322-2.0012.4989l-.0008.0002-.0008.0002c-3.3629.8373-6.7792 1.6878-10.1253 2.608-.2663.0732-.4228.3484-.3495.6147.0732.2662.3484.4227.6146.3495 3.3335-.9167 6.7361-1.7639 10.0992-2.6012.6629-.165 1.3242-.3296 1.9832-.4944.9105-.1432 1.6925-.924 1.7036-1.9704.1942-2.2729 1.2389-4.454 2.9477-6.0679l.0103-.01c3.2653-3.2654 5.358-7.1956 5.1534-11.6808-.007-10.9243-9.8118-18.6762-20.1439-16.1965l-.0025.0007c-11.7865 2.8949-16.3225 17.5628-8.1665 26.7525 2.1787 2.476 3.9015 5.0854 4.2843 8.3394.0323.2743.2807.4705.555.4382.2742-.0323.4704-.2808.4381-.555-.4182-3.5551-2.3002-6.353-4.5273-8.8839l-.0014-.0016c-7.6646-8.6348-3.3889-22.4047 7.655-25.1182z" fill="currentColor" fill-rule="evenodd"/></svg>