<svg fill="none" height="72" viewBox="0 0 72 72" width="72" xmlns="http://www.w3.org/2000/svg"><path clip-rule="evenodd" d="m13.7198 5.4075c0-.27614.2238-.5.5-.5h8.7121c.2761 0 .5.22386.5.5v3.10501h2.9047c.2762 0 .5.22386.5.5v15.72179c0 .1327-.0527.2598-.1464.3536l-4.5063 4.5063c-.0938.0937-.2209.1464-.3535.1464h-2.9048v27.4388c0 4.5305 3.6816 8.2121 8.2121 8.2121 4.5279 0 8.2078-3.6772 8.2121-8.2041v-42.9678c0-5.08282 4.1293-9.2121 9.2121-9.2121 5.0829 0 9.2121 4.12928 9.2121 9.2121v27.5391h3.0049c.1346 0 .2634.0542.3575.1504l4.4061 4.5063c.0914.0934.1425.2189.1425.3495v15.6217c0 .2762-.2238.5-.5.5h-2.9047v3.105c0 .2762-.2239.5-.5.5h-8.7121c-.2762 0-.5-.2238-.5-.5v-3.105h-2.9047c-.2762 0-.5-.2238-.5-.5v-15.6217c0-.1326.0526-.2597.1464-.3535l4.5063-4.5063c.0937-.0937.2209-.1464.3535-.1464h2.6043v-27.5391c0-4.53053-3.6815-8.2121-8.2121-8.2121-4.5305 0-8.2121 3.68157-8.2121 8.2121v42.9578.002.0085.0915c0 .0102-.0003.0203-.0009.0303-.0698 5.0229-4.1718 9.0818-9.2112 9.0818-5.0828 0-9.2121-4.1293-9.2121-9.2121v-27.4388h-2.7044c-.1346 0-.2635-.0542-.3575-.1504l-4.4061-4.5063c-.0914-.0934-.1425-.2189-.1425-.3496v-15.72179c0-.27614.2238-.5.5-.5h2.9047zm39.2542 37.3512h-2.5972l-4.2133 4.2133v14.9146h2.9047 8.7121 2.9047v-14.9178l-4.1165-4.2101h-2.9944c-.0836.0628-.1875.1-.3001.1-.1125 0-.2164-.0372-.3-.1zm-3.4058 20.1279v2.605h7.7121v-2.605zm-27.1363-56.9791v2.60501h-7.7121v-2.60501zm-11.1168 3.60501h2.9047 8.7121 2.9047v15.01469l-4.2133 4.2134h-2.8974c-.0836-.0629-.1876-.1001-.3003-.1001-.1126 0-.2166.0372-.3002.1001h-2.6938l-4.1165-4.2101z" fill="currentColor" fill-rule="evenodd"/></svg>