<svg fill="none" height="72" viewBox="0 0 72 72" width="72" xmlns="http://www.w3.org/2000/svg"><path clip-rule="evenodd" d="m11.907 13.0009c-.1375-.0082-.2723.0408-.3725.1353-.1002.0944-.1571.2261-.1571.3638v4.8512h-4.8774c-.27614 0-.5.2239-.5.5v39.6478c0 .2762.22386.5.5.5h29.537 29.4591c.2761 0 .5-.2238.5-.5v-39.6478c0-.2761-.2239-.5-.5-.5h-4.7995v-4.8512c0-.1377-.0568-.2694-.1571-.3638-.1002-.0945-.2349-.1435-.3724-.1353-10.3157.6097-16.4034 1.9527-19.9275 3.1577-1.7632.6028-2.8893 1.1727-3.584 1.6023-.2651.1639-.4675.3076-.6186.4249-.1511-.1173-.3535-.261-.6186-.4249-.6947-.4296-1.8208-.9995-3.5839-1.6023-3.5242-1.205-9.6119-2.548-19.9275-3.1577zm-4.907 6.3503h4.3774v33.8777c0 .2646.2063.4835.4705.4991 10.2596.6064 16.2526 1.919 19.6655 3.066 1.3234.4447 2.256.8636 2.8975 1.205h-27.4109zm33.5594 37.4533c-1.3198.4397-2.2507.8551-2.8919 1.1945h27.3286v-38.6478h-4.2995v33.9587c0 .2655-.2075.4847-.4725.4993-10.2595.566-16.2522 1.8584-19.6647 2.9953zm19.1372-42.7732v4.3199h-22.0667c.6422-.3512 1.5847-.7853 2.9332-1.2464 3.3528-1.1464 9.1971-2.4531 19.1335-3.0735zm-47.3192 4.3199h22.0667c-.6422-.3512-1.5847-.7853-2.9332-1.2464-3.3528-1.1464-9.1971-2.4531-19.1335-3.0735zm47.3192 1h-23.6596-23.6596v33.407c10.0302.6217 15.9853 1.9219 19.4546 3.0879 1.7626.5923 2.8884 1.1516 3.5828 1.573.2673.1622.4709.3042.6224.4198.1516-.1155.3553-.2571.6226-.4189.6947-.4202 1.8206-.9769 3.5835-1.5642 3.4694-1.1559 9.4242-2.436 19.4533-3.0184zm-23.1596 7.2841c0-.2761-.2239-.5-.5-.5-.2762 0-.5.2239-.5.5v5.2702c0 .2761.2238.5.5.5.2761 0 .5-.2239.5-.5zm0 17.8375c0-.2762-.2239-.5-.5-.5-.2762 0-.5.2238-.5.5v5.2701c0 .2762.2238.5.5.5.2761 0 .5-.2238.5-.5z" fill="#050504" fill-rule="evenodd"/></svg>