<svg fill="none" height="72" viewBox="0 0 72 72" width="72" xmlns="http://www.w3.org/2000/svg"><path d="m56.2447 29.3786c.0901 1.9118-1.3813 3.5434-3.3032 3.6435-1.9119.0901-3.5435-1.3813-3.6436-3.3032s1.3814-3.5435 3.3033-3.6436h.1801c1.8618-.04 3.4133 1.4415 3.4634 3.3033zm-16.426 0c.0901 1.9118-1.3813 3.5434-3.3032 3.6435-1.9118.0901-3.5434-1.3813-3.6435-3.3032s1.3813-3.5435 3.3032-3.6436h.1702c1.8718-.04 3.4233 1.4314 3.4733 3.3033zm-16.436 0c.0901 1.9118-1.3813 3.5434-3.3032 3.6435-1.9118.0901-3.5434-1.3813-3.6435-3.3032-.0901-1.9119 1.3813-3.5435 3.3032-3.6436h.1802c1.8618-.04 3.4133 1.4415 3.4633 3.3033zm43.3021-21.59103v41.60043h-14.2338v14.2639l-14.434-14.2639h-32.63175v-41.60043z" stroke="currentColor" stroke-linecap="round" stroke-linejoin="round"/></svg>