<svg fill="none" height="72" viewBox="0 0 72 72" width="72" xmlns="http://www.w3.org/2000/svg"><path clip-rule="evenodd" d="m8.25806 14.6948c-.35622 0-.65015.2939-.65015.6502v35.2136l-2.62305.0011h-.0002c-.13611 0-.28298.0305-.41319.1055-.11512.0662-.31683.2335-.31683.5246v3.7236c0 .2911.20171.4584.31683.5247.13027.075.27723.1055.41339.1055h62.06034c.1366 0 .2796-.0328.4041-.1024.098-.0547.3261-.2186.3261-.5278v-3.7336c0-.3092-.2281-.473-.3261-.5278-.1245-.0695-.2675-.1023-.4041-.1023h-2.6431v-35.2047c0-.3563-.2939-.6502-.6501-.6502zm55.14404 35.8549v-34.8549h-54.79419v34.8633l19.39909-.0084c.1327-.0001.2599.0526.3537.1464.0938.0937.1465.2209.1465.3536v.1706h15.6362v-.1706c0-.2762.2239-.5.5-.5zm-18.2587 1.1706v-.1706h18.7587 2.8733v2.9939h-61.52076v-2.984l22.25256-.0097v.1704c0 .2762.2239.5.5.5h16.6362c.2762 0 .5-.2238.5-.5z" fill="#050504" fill-rule="evenodd"/></svg>