<svg fill="none" height="72" viewBox="0 0 72 72" width="72" xmlns="http://www.w3.org/2000/svg"><path clip-rule="evenodd" d="m11.82 16c-.0112 0-.0223.0004-.0334.0011l-.6066.6492v8.7097c0 .2761.2238.5.5.5.2761 0 .5-.2239.5-.5v-8.36h50.92v33.75h-17.68c-.2762 0-.5.2239-.5.5v.3h-14.58v-.3c0-.2761-.2239-.5-.5-.5h-8.41c-.2762 0-.5.2239-.5.5v3.74c0 .2761.2238.5.5.5h45.17c.1224 0 .258-.0263.3802-.0893.0963-.0496.3398-.2097.3398-.5307v-3.5c0-.1074-.0255-.2386-.1118-.3596-.0859-.1205-.1982-.1833-.2861-.2153-.1314-.0478-.2744-.0458-.3145-.0452l-.0076.0001h-2.5v-34.0882c.0026-.0757-.0083-.1514-.0322-.2235-.0265-.0801-.0686-.1541-.1238-.2178-.0553-.0637-.1226-.1159-.198-.1535-.0754-.0377-.1576-.06-.2417-.0658-.0114-.0008-.0229-.0012-.0344-.0012zm34.1 35.75h17.68 2.72v2.74h-44.39v-2.74h7.41v.3c0 .2761.2238.5.5.5h15.58c.2761 0 .5-.2239.5-.5zm-35.22-23.93c-.2762 0-.5.2239-.5.5s.2238.5.5.5h2.72c.2761 0 .5-.2239.5-.5s-.2239-.5-.5-.5zm1.356 22.7v-.0001l-.0088.0003c-.218.0055-.4328.054-.6321.1426s-.3791.2156-.5293.3738c-.1502.1581-.2677.3443-.3459.5479s-.1155.4206-.1098.6386h-.0001l.0004.0088c.0142.3216.1226.6318.3118.8922.1892.2603.4508.4593.7523.572.3014.1127.6294.1342.943.0619s.599-.2354.8206-.4687c.2216-.2334.3697-.5269.4257-.8438s.0176-.6433-.1106-.9385c-.1281-.2953-.3403-.5463-.6101-.7218s-.5852-.2677-.9071-.2652zm-.2346 1.0565c.0779-.0346.1617-.0538.2468-.0565.1241-.0002.2456.0358.3496.1035.1053.0685.1881.1664.2381.2816s.065.2426.0432.3663c-.0219.1237-.0797.2382-.1662.3293-.0864.091-.1978.1547-.3202.1829s-.2504.0198-.368-.0242-.2197-.1216-.2936-.2232c-.0729-.1004-.1151-.2198-.1214-.3437-.0017-.0852.0132-.1699.0437-.2495.0311-.0809.0778-.155.1376-.2178.0597-.0629.1312-.1134.2104-.1487zm-6.8214-23.8263c0-.3204.25967-.58.58-.58h12.94c.3203 0 .58.2596.58.58v26.09c0 .3203-.2597.58-.58.58h-12.94c-.32033 0-.58-.2597-.58-.58zm.58-1.58c-.87261 0-1.58.7074-1.58 1.58v26.09c0 .8726.70739 1.58 1.58 1.58h12.94c.8726 0 1.58-.7074 1.58-1.58v-26.09c0-.8726-.7074-1.58-1.58-1.58z" fill="#050504" fill-rule="evenodd"/></svg>