<svg fill="none" height="72" viewBox="0 0 72 72" width="72" xmlns="http://www.w3.org/2000/svg"><path clip-rule="evenodd" d="m4.60718 15.7218c0-.2761.22386-.5.5-.5h41.65782c.2762 0 .5.2239.5.5v10.0782h10.735c.1601 0 .3104.0767.4045.2062l8.5 11.6999c.0621.0854.0955.1883.0955.2939v12.5c0 .2761-.2239.5-.5.5h-3.4364c-.268 3.0144-2.8001 5.3776-5.8841 5.3776-3.1282 0-5.6886-2.4315-5.8942-5.5076h-4.5203-15.2629c-.3463 2.9325-2.8407 5.2072-5.8664 5.2072s-5.5201-2.2747-5.8664-5.2072h-14.66212c-.27614 0-.5-.2239-.5-.5zm46.69492 34.1482c.3007-2.9808 2.8174-5.3074 5.8774-5.3074 3.1044 0 5.6495 2.3945 5.8891 5.4374h2.9314v-11.8375l-8.2548-11.3625h-10.4802v23.07zm-5.0371 0h-14.7293c-.1561-3.1234-2.7379-5.6078-5.9-5.6078s-5.744 2.4844-5.9 5.6078h-14.12852v-33.6482h40.65782v10.0782zm-20.6293-4.6078c-2.7104 0-4.9075 2.1971-4.9075 4.9075 0 2.7103 2.1971 4.9075 4.9075 4.9075 2.7103 0 4.9075-2.1972 4.9075-4.9075 0-2.7104-2.1972-4.9075-4.9075-4.9075zm26.6363 5.2079c0-2.7103 2.1972-4.9075 4.9075-4.9075s4.9075 2.1972 4.9075 4.9075-2.1972 4.9075-4.9075 4.9075-4.9075-2.1972-4.9075-4.9075zm.5457-19.9781c.094-.0954.2223-.1492.3562-.1492h3.5049c.1605 0 .3112.077.4052.2071l4.7065 6.509c.1101.1522.1255.3532.0401.5205-.0855.1672-.2574.2725-.4453.2725h-8.1112c-.2732 0-.4958-.2192-.5-.4923l-.1001-6.5091c-.0021-.1339.0497-.2631.1437-.3585zm.864.8508.0847 5.5091h6.6404l-3.9835-5.5091zm-25.1419-.0994-13.5188-10.5146 21.0292 10.4145-21.0292 10.7148z" fill="#050504" fill-rule="evenodd"/></svg>