<svg fill="none" height="72" viewBox="0 0 72 72" width="72" xmlns="http://www.w3.org/2000/svg"><path clip-rule="evenodd" d="m24.6239 4.88525c.2762 0 .5.22386.5.5v5.74605h6.4973v-5.74605c0-.27614.2239-.5.5-.5.2762 0 .5.22386.5.5v5.74605h6.4973v-5.74605c0-.27614.2239-.5.5-.5.2762 0 .5.22386.5.5v5.74605h6.4973v-5.74605c0-.27614.2239-.5.5-.5.2762 0 .5.22386.5.5v5.74605h11.9922c.2761 0 .5.2239.5.5v12.0022h5.746c.2762 0 .5.2238.5.5 0 .2761-.2238.5-.5.5h-5.746v6.4973h5.746c.2762 0 .5.2238.5.5 0 .2761-.2238.5-.5.5h-5.746v7.7485h5.746c.2762 0 .5.2238.5.5 0 .2761-.2238.5-.5.5h-5.746v6.4973h5.746c.2762 0 .5.2238.5.5 0 .2761-.2238.5-.5.5h-5.746v10.7409c0 .2761-.2239.5-.5.5h-47.4862c-.2761 0-.5-.2239-.5-.5v-10.7409h-5.7461c-.27614 0-.5-.2239-.5-.5 0-.2762.22386-.5.5-.5h5.7461v-6.4973h-5.7461c-.27614 0-.5-.2239-.5-.5 0-.2762.22386-.5.5-.5h5.7461v-7.7485h-5.7461c-.27614 0-.5-.2239-.5-.5 0-.2762.22386-.5.5-.5h5.7461v-6.4973h-5.7461c-.27614 0-.5-.2239-.5-.5 0-.2762.22386-.5.5-.5h5.7461v-12.0022c0-.2761.2239-.5.5-.5h12.0021v-5.74605c0-.27614.2239-.5.5-.5zm-.0029 7.24605h-11.9992v46.4862h46.4862v-10.7365c-.0001-.0015-.0001-.003-.0001-.0044 0-.0015 0-.003.0001-.0044v-7.4885c-.0001-.0015-.0001-.003-.0001-.0044 0-.0015 0-.003.0001-.0044v-8.7397c-.0001-.0015-.0001-.003-.0001-.0044 0-.0015 0-.003.0001-.0044v-7.4885c-.0001-.0015-.0001-.003-.0001-.0044 0-.0015 0-.003.0001-.0044v-11.9978h-11.9892c-.001 0-.002 0-.003 0s-.002 0-.0029 0h-7.4914c-.001 0-.002 0-.003 0s-.0019 0-.0029 0h-7.4914c-.001 0-.002 0-.003 0s-.002 0-.0029 0h-7.4914c-.001 0-.002 0-.003 0s-.0019 0-.0029 0zm.5029 48.2374c0-.2761-.2238-.5-.5-.5-.2761 0-.5.2239-.5.5v6.2461c0 .2761.2239.5.5.5.2762 0 .5-.2239.5-.5zm7.4973 0c0-.2761-.2238-.5-.5-.5-.2761 0-.5.2239-.5.5v6.2461c0 .2761.2239.5.5.5.2762 0 .5-.2239.5-.5zm6.9973-.5c.2762 0 .5.2239.5.5v6.2461c0 .2761-.2238.5-.5.5-.2761 0-.5-.2239-.5-.5v-6.2461c0-.2761.2239-.5.5-.5zm7.9973.5c0-.2761-.2238-.5-.5-.5-.2761 0-.5.2239-.5.5v6.2461c0 .2761.2239.5.5.5.2762 0 .5-.2239.5-.5zm-8.4973-8.7485c0-.2761.2239-.5.5-.5h7.4973c.2762 0 .5.2239.5.5s-.2238.5-.5.5h-7.4973c-.2761 0-.5-.2239-.5-.5zm5.4949-31.7404c-.2762 0-.5.2239-.5.5 0 .2762.2238.5.5.5h6.9973v5.7461c0 .2762.2238.5.5.5.2761 0 .5-.2238.5-.5v-6.2461c0-.2761-.2239-.5-.5-.5zm-24.9943 13.7434c.2761 0 .5.2238.5.5v7.4973c0 .2761-.2239.5-.5.5-.2762 0-.5-.2239-.5-.5v-7.4973c0-.2762.2238-.5.5-.5z" fill="currentColor" fill-rule="evenodd"/></svg>