<svg fill="none" height="72" viewBox="0 0 72 72" width="72" xmlns="http://www.w3.org/2000/svg"><g stroke="#050504"><path d="m58.1766 19.559h-52.79135m52.79135 0-.03 4.941m.03-4.941-26.6766 22.941-26.11475-22.941m0 0v35.7147m0 0 52.76135-.07m-52.76135.07 14.61475-14.2737m38.1466 14.2037v-7.7037m0 7.7037-14.6466-14.2037" stroke-linecap="round" stroke-linejoin="round"/><circle cx="58.5" cy="36.5" r="9"/><g stroke-linecap="round" stroke-linejoin="round"><path d="m54.8734 38.7977c1.3112.01 2.3923-1.051 2.4023-2.3623 0-.01 0-.01 0-.02 0-1.3113-1.0711-2.3823-2.3823-2.3823-1.3113 0-2.3723 1.051-2.3823 2.3623-.0101 1.3113 1.051 2.3923 2.3623 2.4023zm0 0h6.6266"/><path d="m63.8221 36.4354c-.01 1.3113-1.0911 2.3723-2.4024 2.3623-1.3112-.01-2.3723-1.091-2.3623-2.4023.0101-1.3113 1.0711-2.3623 2.3824-2.3623 1.3212.01 2.3923 1.081 2.3823 2.4023z"/></g></g></svg>