<svg fill="none" height="72" viewBox="0 0 72 72" width="72" xmlns="http://www.w3.org/2000/svg"><path clip-rule="evenodd" d="m32.21 8.60999c0-.27615.2238-.5.5-.5h6.83c.2761 0 .5.22385.5.5 0 .27614-.2239.5-.5.5h-6.83c-.2762 0-.5-.22386-.5-.5zm15.2965 18.25761c2.0457-1.4159 4.5391-2.0336 7.0092-1.7365s4.7458 1.4884 6.3975 3.349c1.435 1.6166 2.3125 3.641 2.5193 5.776l1.2138-1.1492c.2005-.1899.5169-.1812.7068.0193s.1812.517-.0193.7068l-2.07 1.96c-.1071.1015-.2474.1463-.3838.1354-.1363.0109-.2766-.0339-.3838-.1354l-2.07-1.96c-.2005-.1898-.2091-.5063-.0192-.7068.1898-.2005.5063-.2092.7068-.0193l1.3242 1.2538c-.1851-1.9282-.9768-3.7569-2.2727-5.2167-1.4894-1.6778-3.5416-2.7521-5.769-3.0201-2.2275-.2679-4.4759.2892-6.3207 1.566-1.8447 1.2768-3.1581 3.1849-3.6919 5.364-.5339 2.179-.2513 4.4781.7944 6.463 1.0457 1.985 2.782 3.5182 4.8811 4.3103 2.099.792 4.4154.7879 6.5117-.0114 2.0962-.7994 3.8272-2.3387 4.8659-4.3273.1279-.2448.4299-.3395.6747-.2117.2448.1279.3395.4299.2117.6747-1.1519 2.2052-3.0714 3.9122-5.396 4.7986-2.3246.8865-4.8934.891-7.2211.0127s-4.2531-2.5786-5.4127-4.7798c-1.1596-2.2011-1.473-4.7507-.881-7.1671s2.0484-4.5324 4.0941-5.9483zm-13.5666 33.8024c0-1.1322.9179-2.05 2.05-2.05 1.1322 0 2.05.9178 2.05 2.05s-.9178 2.05-2.05 2.05c-1.1321 0-2.05-.9178-2.05-2.05zm2.05-3.05c-1.6844 0-3.05 1.3655-3.05 3.05s1.3656 3.05 3.05 3.05c1.6845 0 3.05-1.3655 3.05-3.05s-1.3655-3.05-3.05-3.05zm16.7401-18.52-.1-.68c-.1435.194-.3078.3718-.49.53-.2141.1325-.4585.2082-.71.22h-2.14c-.2544-.0131-.5017-.0886-.72-.22-.3834-.2792-.7208-.6166-1-1-.1241-.201-.1867-.4339-.18-.67v-4.71c-.0058-.2392.0567-.475.18-.68.2798-.3829.6171-.7202 1-1 .2157-.1386.464-.2179.72-.23h2.14c.2592.0118.5109.0911.73.23.3331.2479.6236.5485.86.89.1269.1636.2343.3415.32.53l-.81.23c-.2115-.4293-.5366-.7924-.94-1.05-.061-.0343-.13-.0516-.2-.05h-2c-.0636-.0016-.1263.0158-.18.05-.3547.2204-.6555.5178-.88.87-.0152.0692-.0152.1408 0 .21v4.69c-.0162.0589-.0162.1211 0 .18.2244.355.525.6556.88.88.0622.017.1278.017.19 0h2c.0623.0161.1277.0161.19 0 .3539-.2334.6567-.5362.89-.89.0103-.0596.0103-.1205 0-.18v-2h-1.91v-.77h2.72v3c.0303.5505.0971 1.0983.2 1.64zm5.44-.19c.2356-.1977.4471-.4226.63-.67.1395-.2209.2092-.4788.2-.74v-2.78c.0092-.2611-.0605-.519-.2-.74-.1829-.2474-.3944-.4723-.63-.67-.2523-.1749-.5532-.2659-.86-.26h-1.39c-.3069-.0059-.6078.0851-.86.26-.2357.1977-.4472.4226-.63.67-.1361.2221-.2023.4799-.19.74v2.78c-.0123.2601.0539.5179.19.74.1828.2474.3943.4723.63.67.2541.1708.5537.2614.86.26h1.39c.3062.0014.6058-.0892.86-.26zm.07-4.4c.0122.0795.0122.1605 0 .24l.03 2.72c.0117.0796.0117.1604 0 .24-.1676.2756-.397.5084-.67.68-.0766.0419-.1629.0626-.25.06h-1.37c-.0871.0017-.1732-.019-.25-.06-.2695-.1696-.4928-.4032-.65-.68-.0177-.079-.0177-.161 0-.24v-2.72c-.0188-.0789-.0188-.1611 0-.24.1572-.2768.3805-.5104.65-.68.075-.0456.1624-.0666.25-.06h1.34c.0876-.0073.1752.0137.25.06.273.1717.5024.4045.67.68z" fill="currentColor" fill-rule="evenodd"/><path d="m53.32 47.43v17.19c0 .305-.0608.6069-.179.8881-.1182.2811-.2914.5358-.5093.7491-.218.2133-.4764.381-.76.4931-.2837.1121-.5868.1664-.8917.1597h-30c-.3011.0014-.5995-.057-.8779-.1716-.2785-.1146-.5315-.2832-.7444-.4962-.2129-.2129-.3815-.4658-.4961-.7443-.1146-.2784-.173-.5768-.1716-.8779v-57.13998c-.0014-.30109.057-.59947.1716-.8779.1146-.27844.2832-.53141.4961-.74432s.4659-.38154.7444-.49616c.2784-.11461.5768-.17294.8779-.17162h30c.3015-.00131.6004.05695.8794.17144.279.1145.5326.28297.7463.49574.2137.21278.3833.46567.499.74416s.1753.57709.1753.87866v15.16998" stroke="currentColor" stroke-linecap="round" stroke-linejoin="round"/></svg>