<svg fill="none" height="72" viewBox="0 0 72 72" width="72" xmlns="http://www.w3.org/2000/svg"><path clip-rule="evenodd" d="m21.3201 6.97c0-1.3778 1.1055-2.47 2.47-2.47h25.69c1.3778 0 2.47 1.10552 2.47 2.47v13.97c0 .2761-.2239.5-.5.5-.2762 0-.5-.2239-.5-.5v-13.97c0-.81552-.6478-1.47-1.47-1.47h-25.69c-.8155 0-1.47.6478-1.47 1.47v48.96c0 .8155.6478 1.47 1.47 1.47h25.69c.8155 0 1.47-.6478 1.47-1.47v-13.83c0-.2761.2238-.5.5-.5.2761 0 .5.2239.5.5v13.83c0 1.3778-1.1055 2.47-2.47 2.47h-25.69c-1.3778 0-2.47-1.1055-2.47-2.47zm12.4699.47006c-.2761 0-.5.22386-.5.5 0 .27615.2239.5.5.5h5.85c.2762 0 .5-.22385.5-.5 0-.27614-.2238-.5-.5-.5zm8.4201 24.14994c0-4.9226 3.9604-8.92 8.86-8.92s8.86 3.9974 8.86 8.92c0 4.9227-3.9604 8.92-8.86 8.92s-8.86-3.9973-8.86-8.92zm8.86-7.92c-4.3404 0-7.86 3.5427-7.86 7.92 0 4.3774 3.5196 7.92 7.86 7.92s7.86-3.5426 7.86-7.92c0-4.3773-3.5196-7.92-7.86-7.92zm.8601 2.5601c0-.2761-.2239-.5-.5-.5-.2762 0-.5.2239-.5.5v.46h-.6001c-.3359 0-.7083.139-.9645.312-.1828.1172-.4143.3482-.5914.5398-.1875.2028-.3869.4413-.4881.6032l-.0001-.0001-.0047.0078c-.1869.3116-.2312.6767-.2312.9573v.74c0 .3861.1032.7357.3269 1.0202.2209.281.5259.4561.8561.5577h-.0001l.0093.0027 1.6386.4696.0014.0004.0479.0139v3.4055h-.6301c-.1046 0-.2979-.0607-.4177-.1427l-.0119-.0079c-.0817-.0525-.2054-.1663-.3465-.3241-.1347-.1504-.2602-.3125-.345-.4331l-.002-.0029c-.0786-.1099-.1786-.2849-.2427-.445-.1025-.2564-.3935-.3811-.6499-.2786-.2564.1026-.3811.3936-.2785.65.0956.2391.235.4834.3562.6534.1052.1492.2542.3415.4166.523.1547.1729.3485.3668.5447.4944.2602.1762.6437.3135.9767.3135h.6301v.46c0 .2761.2238.5.5.5.2761 0 .5-.2239.5-.5v-.46h.5999c.3343 0 .7109-.1382.9654-.3194.1712-.1163.3964-.3359.5761-.5253.1862-.1963.3858-.4265.4873-.5822l.0051-.008.0048-.0079c.1864-.3107.2313-.6749.2313-.9472v-.99c0-.2814-.0839-.5556-.2685-.7842-.1825-.2259-.4366-.3745-.7241-.4566l-.0032-.0009c-.3029-.0844-.7911-.2239-1.205-.3427-.2067-.0593-.3943-.1133-.5303-.1525l-.1388-.04v-3.4731h.4299c.1024 0 .2817.0591.3872.1353.0074.0053.0148.0104.0224.0153.0835.0536.2106.1692.3517.3256.1343.1489.2554.3057.3305.4178l.0162.0252v.0001c.095.1475.1933.3001.2478.4364.1025.2564.3935.3811.6499.2785s.3811-.3935.2785-.6499c-.0927-.2319-.2437-.465-.33-.5982l-.0236-.0365v-.0001l-.0046-.0069c-.1051-.1576-.258-.3542-.4223-.5363-.1558-.1728-.3492-.3632-.5421-.4896-.2543-.1799-.6289-.3167-.9616-.3167h-.4299zm-1 1.46h-.6001c-.1007 0-.284.058-.4077.1426-.0057.0039-.0115.0077-.0173.0114-.0557.0348-.2093.174-.3966.3766-.177.1914-.3207.3701-.3718.4503-.0519.089-.0866.2424-.0866.4391v.74c0 .2038.0518.3242.1131.4022.0636.0809.1725.1603.3597.2186l1.4073.4033zm1 4.5138v3.1162h.5999c.1024 0 .2817-.0592.3872-.1354l.005-.0035.0104-.0072c.0679-.0452.2284-.1917.4134-.3868.1749-.1845.3164-.3536.3697-.432.0511-.0905.0843-.2427.0843-.4251v-.99c0-.0787-.0211-.1244-.0465-.1559-.0274-.0339-.088-.0852-.2195-.123-.3072-.0856-.7979-.2258-1.2107-.3443zm-17.02 20.3462c0-.9334.7566-1.69 1.69-1.69.9333 0 1.69.7566 1.69 1.69s-.7567 1.69-1.69 1.69c-.9334 0-1.69-.7566-1.69-1.69zm1.69-2.69c-1.4857 0-2.69 1.2044-2.69 2.69 0 1.4857 1.2043 2.69 2.69 2.69 1.4856 0 2.69-1.2043 2.69-2.69 0-1.4856-1.2044-2.69-2.69-2.69zm-19.3801-38.69c0-1.37783 1.1055-2.47003 2.47-2.47003.2761 0 .5.22386.5.5 0 .27615-.2239.5-.5.5-.8155 0-1.47.64783-1.47 1.47003v48.96c0 .8155.6478 1.47 1.47 1.47h25.69c.8155 0 1.47-.6478 1.47-1.47 0-.2762.2239-.5.5-.5s.5.2238.5.5c0 1.3778-1.1055 2.47-2.47 2.47h-25.69c-1.3778 0-2.47-1.1055-2.47-2.47zm-2.2501 1.76c-1.3645 0-2.47 1.0922-2.47 2.47v48.96c0 1.3644 1.0922 2.47 2.47 2.47h25.69c1.3645 0 2.47-1.0922 2.47-2.47 0-.2762-.2239-.5-.5-.5s-.5.2238-.5.5c0 .8222-.6545 1.47-1.47 1.47h-25.69c-.8222 0-1.47-.6545-1.47-1.47v-48.96c0-.8222.6545-1.47 1.47-1.47.2761 0 .5-.2239.5-.5 0-.2762-.2239-.5-.5-.5z" fill="currentColor" fill-rule="evenodd"/></svg>