<svg fill="none" height="72" viewBox="0 0 72 72" width="72" xmlns="http://www.w3.org/2000/svg"><g stroke="#050504" stroke-linecap="round"><path d="m38.85 8.42004h-6.83" stroke-miterlimit="10"/><g stroke-linejoin="round"><path d="m52.63 47.24v17.19c.0001.305-.0608.6069-.179.8881-.1181.2811-.2913.5358-.5093.7491s-.4763.381-.76.4931c-.2836.1121-.5868.1664-.8917.1597h-30c-.3011.0013-.5995-.057-.8779-.1716s-.5314-.2832-.7443-.4962c-.2129-.2129-.3815-.4658-.4962-.7443-.1146-.2784-.1729-.5768-.1716-.8779v-57.13998c-.0013-.3011.057-.59947.1716-.87791.1147-.27843.2833-.5314.4962-.74431s.4659-.38154.7443-.49616c.2784-.11461.5768-.17294.8779-.17162h30c.3016-.00131.6005.05695.8794.17144.279.11449.5327.28296.7464.49574s.3832.46567.499.74416c.1157.27849.1752.57709.1752.87866v15.16998"/><path d="m35.3 63.0301c1.4083 0 2.55-1.1417 2.55-2.55 0-1.4084-1.1417-2.55-2.55-2.55s-2.55 1.1416-2.55 2.55c0 1.4083 1.1417 2.55 2.55 2.55z"/><path d="m61.36 28.5601v8.91l-8.73 7.35-8.73-7.35v-8.91l8.73-3.35z"/><path d="m47.3701 33.49 4.28 4.51 6.56-6.74"/></g></g></svg>