<svg fill="none" height="72" viewBox="0 0 72 72" width="72" xmlns="http://www.w3.org/2000/svg"><g stroke="#050504" stroke-linecap="round"><path d="m38.85 8.41998h-6.83" stroke-miterlimit="10"/><g stroke-linejoin="round"><path d="m52.63 47.24v17.19c.0001.305-.0608.6069-.179.8881-.1181.2811-.2913.5358-.5093.7491s-.4763.381-.76.4931c-.2836.1121-.5868.1664-.8917.1597h-30c-.3011.0013-.5995-.057-.8779-.1716s-.5314-.2832-.7443-.4962c-.2129-.2129-.3815-.4658-.4962-.7443-.1146-.2784-.1729-.5768-.1716-.8779v-57.13998c-.0013-.3011.057-.59947.1716-.87791.1147-.27843.2833-.5314.4962-.74431s.4659-.38154.7443-.49616c.2784-.11461.5768-.17294.8779-.17162h30c.3016-.00131.6005.05695.8794.17144.279.11449.5327.28296.7464.49574s.3832.46567.499.74416c.1157.27849.1752.57709.1752.87866v15.16998"/><path d="m35.3 63.03c1.4083 0 2.55-1.1417 2.55-2.55s-1.1417-2.55-2.55-2.55-2.55 1.1417-2.55 2.55 1.1417 2.55 2.55 2.55z"/><path d="m58.77 42.56c-.1205-1.1736-.1205-2.3564 0-3.53 0-.73-1.63-.58-2.13-.68s-.46-.79-.46-2 1.9-1.15 2.43-1.88 1.49.36 2 .63c.5407.3549 1.1573.5776 1.8.65"/><path d="m62.4 34.28c-1.0477-.4104-2.0526-.9229-3-1.53-.63-.26-2.21.89-2.63.37s.31-1.26.63-1.78 1.42-.16 2.11-.52c.41-.22.61-1.06.74-1.87 1.2693 1.5004 2.023 3.3689 2.15 5.33z"/><path d="m57.29 26.52c-.4648.6811-.976 1.3293-1.53 1.94-.9.94-2 1.59-2.68 1.26s-.43-.84-1-2.14c-.3484-.7205-.7887-1.3927-1.31-2"/><path d="m47.19 27.17c.1726.1085.3182.255.4256.4283.1075.1733.1739.3688.1944.5717-.06.69-1.15 1.31-.57 2s1.32-.17 2.19 0c.4025.1172.776.3175 1.0964.5879.3203.2704.5805.605.7636.9821.23.52-1.38.46-1.67.86s-.58 1.61-.94 2-1.54-1.49-1.77-1c-.0691.4547-.0125.9197.1638 1.3445s.4655.7933.8362 1.0655c.86.75 2.31.62 3.18 1.13s.12.63.69 1.32 1.73.62 1.38 1.6-2.24 1.65-2.53 2.4-.75 1.2-1.33 1-.23-2.92-.34-3.26-1.79-1.2-1.44-1.83c.0984-.1495.1619-.3194.1856-.4968.0237-.1775.007-.358-.0487-.5281-.0558-.1701-.1492-.3255-.2733-.4545s-.2758-.2283-.4436-.2906c-.827-.3566-1.5571-.9051-2.13-1.6-.41-.52-.69-1.11-1.16-1.09-.1532.0077-.3068.0077-.46 0"/><path d="m62.43 35.06v.65c-.0895 1.3668-.4705 2.6986-1.1173 3.9059-.6468 1.2074-1.5445 2.2624-2.6327 3.0941-1.4375 1.1086-3.1557 1.7944-4.9615 1.9802s-3.6276-.1357-5.2608-.9283c-1.6331-.7927-3.0128-2.0251-3.984-3.5588s-1.4954-3.3079-1.5137-5.1231c-.0006-.3708.0194-.7414.06-1.11.1522-1.3479.5871-2.6486 1.2764-3.8169s1.6173-2.178 2.7236-2.9631c1.1152-.7843 2.3824-1.3259 3.72-1.59.6324-.1246 1.2754-.1882 1.92-.19 1.6115-.02 3.2027.3615 4.63 1.11 1.1117.5852 2.0998 1.3798 2.91 2.34 1.2984 1.5259 2.0823 3.4226 2.24 5.42-.0067.2533-.01.5133-.01.78z"/></g></g></svg>