<svg fill="none" height="72" viewBox="0 0 72 72" width="72" xmlns="http://www.w3.org/2000/svg"><g stroke="currentColor" stroke-linecap="round"><path d="m55.14 30.95c0 .4865-.1443.9621-.4146 1.3667-.2703.4045-.6545.7198-1.104.906s-.9442.2349-1.4214.14c-.4771-.0949-.9155-.3292-1.2595-.6732-.344-.3441-.5783-.7824-.6733-1.2596-.0949-.4772-.0462-.9718.14-1.4213s.5015-.8337.9061-1.104c.4045-.2703.8801-.4146 1.3667-.4146.6332-.0162 1.2471.2186 1.7079.6532s.7312 1.0337.7521 1.6668z" stroke-linejoin="round"/><path d="m56.72 41.16v-3.71c0-1.0609-.4215-2.0783-1.1716-2.8285-.7501-.7501-1.7676-1.1715-2.8284-1.1715-1.0609 0-2.0783.4214-2.8285 1.1715-.7501.7502-1.1715 1.7676-1.1715 2.8285v3.71" stroke-linejoin="round"/><path d="m38.85 8.41998h-6.83" stroke-miterlimit="10"/><g stroke-linejoin="round"><path d="m52.63 47.24v17.19c.0001.305-.0608.6069-.179.8881-.1181.2811-.2913.5358-.5093.7491s-.4763.381-.76.4931c-.2836.1121-.5868.1664-.8917.1597h-30c-.3011.0013-.5995-.057-.8779-.1716s-.5314-.2832-.7443-.4962c-.2129-.2129-.3815-.4658-.4962-.7443-.1146-.2784-.1729-.5768-.1716-.8779v-57.13998c-.0013-.3011.057-.59947.1716-.87791.1147-.27843.2833-.5314.4962-.74431s.4659-.38154.7443-.49616c.2784-.11461.5768-.17294.8779-.17162h30c.3016-.00131.6005.05695.8794.17144.279.11449.5327.28296.7464.49574s.3832.46567.499.74416c.1157.27849.1752.57709.1752.87866v15.16998"/><path d="m35.3 63.03c1.4083 0 2.55-1.1417 2.55-2.55s-1.1417-2.55-2.55-2.55-2.55 1.1417-2.55 2.55 1.1417 2.55 2.55 2.55z"/><path d="m42.96 35.04c-.002 1.9189.5653 3.7953 1.6299 5.3917 1.0647 1.5965 2.5789 2.8413 4.3512 3.577 1.7722.7357 3.7229.9293 5.6052.5561 1.8822-.3731 3.6116-1.2962 4.9691-2.6523 1.3576-1.3562 2.2824-3.0846 2.6575-4.9665.3751-1.8818.1836-3.8327-.5503-5.6057-.7339-1.7731-1.9771-3.2886-3.5725-4.3549s-3.4712-1.6354-5.3901-1.6354c-1.2733-.0013-2.5344.2483-3.7112.7347s-2.2462 1.1999-3.1471 2.0999c-.9009.8999-1.6155 1.9686-2.1031 3.1449s-.7386 2.4371-.7386 3.7105z"/></g></g></svg>