<svg fill="none" height="72" viewBox="0 0 72 72" width="72" xmlns="http://www.w3.org/2000/svg"><g stroke="currentColor" stroke-linecap="round"><g stroke-linejoin="round"><path d="m23.76 49.6405 4.01-.77"/><path d="m23.76 49.6406-.07-4.1401"/><path d="m49.08 18.0605-4 .76"/><path d="m49.08 18.0605.08 4.13"/><path d="m49.08 18.0605-25.01 31.2"/></g><path d="m39.85 8.42053h-6.83" stroke-miterlimit="10"/><path d="m53.63 7.29055c.0001-.30499-.0608-.60691-.179-.88805-.1181-.28115-.2913-.53585-.5093-.74917-.218-.21331-.4763-.38093-.76-.49303-.2836-.1121-.5868-.16641-.8917-.15975h-30c-.3011-.00133-.5995.057-.8779.17162-.2784.11461-.5314.28324-.7443.49615s-.3815.46588-.4962.74432c-.1146.27843-.1729.57681-.1716.87791v57.13995c-.0013.3011.057.5995.1716.878.1147.2784.2833.5314.4962.7443s.4659.3815.7443.4961.5768.173.8779.1717h30c.3016.0013.6005-.057.8794-.1715.279-.1145.5327-.283.7464-.4957.2137-.2128.3832-.4657.499-.7442.1157-.2785.1752-.5771.1752-.8787z" stroke-linejoin="round"/><path d="m36.3 63.0305c1.4083 0 2.55-1.1416 2.55-2.55 0-1.4083-1.1417-2.55-2.55-2.55s-2.55 1.1417-2.55 2.55c0 1.4084 1.1417 2.55 2.55 2.55z" stroke-linejoin="round"/></g></svg>