<svg fill="none" height="72" viewBox="0 0 72 72" width="72" xmlns="http://www.w3.org/2000/svg"><g stroke="currentColor" stroke-linecap="round"><g stroke-linejoin="round"><path d="m43.63 35.75h1"/><path d="m61.63 35.75h1"/><path d="m52.63 43.75v1"/><path d="m52.63 35.75h-3"/><path d="m52.63 35.75v-6"/><path d="m42.63 35.54c-.0577 2.0169.4876 4.0051 1.5661 5.7103 1.0786 1.7052 2.6413 3.0499 4.4883 3.8621 1.8471.8121 3.8944 1.0547 5.88.6968 1.9857-.3579 3.8195-1.3 5.2668-2.7059 1.4472-1.4058 2.4422-3.2115 2.8575-5.186.4153-1.9744.2322-4.0279-.526-5.8977s-2.057-3.4709-3.7302-4.5985c-1.6733-1.1275-3.6448-1.7303-5.6625-1.7311-2.6505-.0374-5.2075.9791-7.1089 2.8261-1.9013 1.847-2.9916 4.3734-3.0311 7.0239z"/></g><path d="m38.85 8.41998h-6.83" stroke-miterlimit="10"/><path d="m52.63 47.71v16.72c.0001.305-.0608.6069-.179.8881-.1181.2811-.2913.5358-.5093.7491s-.4763.381-.76.4931c-.2836.1121-.5868.1664-.8917.1597h-30c-.3011.0013-.5995-.057-.8779-.1716s-.5314-.2832-.7443-.4962c-.2129-.2129-.3815-.4658-.4962-.7443-.1146-.2784-.1729-.5768-.1716-.8779v-57.13998c-.0013-.3011.057-.59947.1716-.87791.1147-.27843.2833-.5314.4962-.74431s.4659-.38154.7443-.49616c.2784-.11461.5768-.17294.8779-.17162h30c.3016-.00131.6005.05695.8794.17144.279.11449.5327.28296.7464.49574s.3832.46567.499.74416c.1157.27849.1752.57709.1752.87866v15.73998" stroke-linejoin="round"/><path d="m35.3 63.03c1.4083 0 2.55-1.1417 2.55-2.55s-1.1417-2.55-2.55-2.55-2.55 1.1417-2.55 2.55 1.1417 2.55 2.55 2.55z" stroke-linejoin="round"/></g></svg>