<svg fill="none" height="72" viewBox="0 0 72 72" width="72" xmlns="http://www.w3.org/2000/svg"><g stroke="#050504" stroke-linecap="round"><path d="m38.85 8.41998h-6.83" stroke-miterlimit="10"/><path d="m52.63 47.24v17.19c.0001.305-.0608.6069-.179.8881-.1181.2811-.2913.5358-.5093.7491s-.4763.381-.76.4931c-.2836.1121-.5868.1664-.8917.1597h-30c-.3011.0013-.5995-.057-.8779-.1716s-.5314-.2832-.7443-.4962c-.2129-.2129-.3815-.4658-.4962-.7443-.1146-.2784-.1729-.5768-.1716-.8779v-57.13998c-.0013-.3011.057-.59947.1716-.87791.1147-.27843.2833-.5314.4962-.74431s.4659-.38154.7443-.49616c.2784-.11461.5768-.17294.8779-.17162h30c.3016-.00131.6005.05695.8794.17144.279.11449.5327.28296.7464.49574s.3832.46567.499.74416c.1157.27849.1752.57709.1752.87866v15.16998" stroke-linejoin="round"/><path d="m35.3 63.03c1.4083 0 2.55-1.1417 2.55-2.55s-1.1417-2.55-2.55-2.55-2.55 1.1417-2.55 2.55 1.1417 2.55 2.55 2.55z" stroke-linejoin="round"/><path d="m43 35.19c-.002 1.9189.5652 3.7953 1.6299 5.3918 1.0646 1.5964 2.5789 2.8413 4.3511 3.577 1.7723.7357 3.723.9292 5.6052.556 1.8823-.3731 3.6116-1.2962 4.9692-2.6523 1.3576-1.3562 2.2824-3.0845 2.6575-4.9664s.1836-3.8328-.5503-5.6058-1.9771-3.2886-3.5725-4.3549c-1.5954-1.0662-3.4712-1.6354-5.3901-1.6354-1.2733-.0013-2.5345.2484-3.7113.7347-1.1768.4864-2.2462 1.2-3.147 2.0999-.9009.8999-1.6155 1.9686-2.1031 3.1449s-.7386 2.4372-.7386 3.7105z" stroke-linejoin="round"/></g><path clip-rule="evenodd" d="m48.3855 32.0166c.5162-.1266 1.0545-.1339 1.574-.0215.5195.1125 1.0066.3417 1.4243.6705.4176.3287.755.7483.9863 1.2268.1202.2486.0161.5476-.2325.6678s-.5476.0161-.6678-.2325c-.1652-.3418-.4062-.6415-.7045-.8763-.2984-.2348-.6463-.3986-1.0173-.4789-.0831-.018-.1668-.0317-.2509-.0411-.0522.0185-.1085.0286-.1671.0286-.6631 0-1.2989.2634-1.7678.7323-.4688.4688-.7322 1.1047-.7322 1.7677 0 .6631.2634 1.2989.7322 1.7678.4689.4688 1.1047.7322 1.7678.7322.0685 0 .1337.0138.1932.0387.8465-.0797 1.4965-.5719 2.0168-1.2097.4653-.5703.7844-1.2008 1.0301-1.6862.0602-.119.1161-.2293.1686-.3278l.0008-.0016c.8778-1.6341 1.9818-2.4889 3.1169-2.7414 1.1278-.251 2.1916.1149 2.9413.732.36.2949.6575.6587.8751 1.0701.2179.4117.3514.8628.3927 1.3267.0413.464-.0105.9315-.1522 1.3752-.1417.4438-.3706.8547-.6732 1.2088-.0433.0506-.0944.0905-.1501.1193-.0373.0411-.0757.0814-.1152.1208-.6552.6552-1.5435 1.0239-2.4701 1.0251-.0011 0-.0023 0-.0034 0-.6163.0017-1.2226-.1558-1.7601-.4572-.5376-.3014-.9883-.7364-1.3085-1.263-.1434-.236-.0684-.5436.1675-.687.236-.1435.5436-.0685.687.1675.2308.3795.5555.693.943.9102.3862.2165.8216.33 1.2644.3295h.0054c.663 0 1.2989-.2634 1.7677-.7322.4689-.4689.7323-1.1047.7323-1.7678 0-.663-.2634-1.2989-.7323-1.7678-.4688-.4688-1.1047-.7322-1.7677-.7322-.0706 0-.1377-.0146-.1986-.041-.0756.0092-.1516.0221-.2278.0391-.7748.1724-1.6707.7824-2.4527 2.2377-.0399.0749-.086.1665-.1387.271h-.0001c-.2429.4819-.6246 1.2392-1.1672 1.9043-.6709.8224-1.6517 1.5889-3.0349 1.5889-.0877 0-.17-.0225-.2417-.0621-.8214-.0687-1.5959-.4257-2.1832-1.013-.0243-.0243-.0482-.0489-.0717-.0738-.0917-.0259-.177-.0783-.2435-.1562-.3026-.3542-.5315-.7651-.6733-1.2088-.1417-.4437-.1934-.9113-.1521-1.3753.0413-.4639.1747-.915.3926-1.3267.2175-.4111.5149-.7748.8746-1.0696.4082-.3394.8882-.5815 1.4038-.7079z" fill="#050504" fill-rule="evenodd"/></svg>