<svg fill="none" height="72" viewBox="0 0 72 72" width="72" xmlns="http://www.w3.org/2000/svg"><g stroke="currentColor" stroke-linecap="round"><path d="m38.85 8.42004h-6.83" stroke-miterlimit="10"/><g stroke-linejoin="round"><path d="m42.8801 35.0401c0 1.9165.5683 3.79 1.6331 5.3835 1.0647 1.5935 2.5781 2.8355 4.3487 3.5689s3.719.9253 5.5987.5514c1.8796-.3739 3.6062-1.2968 4.9614-2.6519 1.3552-1.3552 2.278-3.0818 2.6519-4.9615s.182-3.828-.5514-5.5986-1.9754-3.284-3.5689-4.3487c-1.5935-1.0648-3.467-1.6331-5.3835-1.6331-2.5699 0-5.0346 1.0209-6.8518 2.8381-1.8173 1.8173-2.8382 4.2819-2.8382 6.8519z"/><path d="m52.63 47.24v17.19c.0001.305-.0608.6069-.179.8881-.1181.2811-.2913.5358-.5093.7491s-.4763.381-.76.4931c-.2836.1121-.5868.1664-.8917.1597h-30c-.3011.0013-.5995-.057-.8779-.1716s-.5314-.2832-.7443-.4962c-.2129-.2129-.3815-.4658-.4962-.7443-.1146-.2784-.1729-.5768-.1716-.8779v-57.13998c-.0013-.3011.057-.59947.1716-.87791.1147-.27843.2833-.5314.4962-.74431s.4659-.38154.7443-.49616c.2784-.11461.5768-.17294.8779-.17162h30c.3016-.00131.6005.05695.8794.17144.279.11449.5327.28296.7464.49574s.3832.46567.499.74416c.1157.27849.1752.57709.1752.87866v15.16998"/><path d="m35.3 63.0301c1.4083 0 2.55-1.1417 2.55-2.55 0-1.4084-1.1417-2.55-2.55-2.55s-2.55 1.1416-2.55 2.55c0 1.4083 1.1417 2.55 2.55 2.55z"/><path d="m49.3701 37.6201c.0915.2096.202.4104.33.6.2505.3778.5574.7151.91 1 .231.1465.4967.2293.77.24h2.45c.2668-.0123.5256-.0951.75-.24.3805-.3095.7169-.6695 1-1.07.1252-.2334.1872-.4953.18-.76v-1.11c.0008-.1974-.0679-.3887-.194-.5405-.1262-.1518-.3018-.2543-.496-.2895l-2.14-.64-.76-.22-1.8-.51c-.2705-.0612-.5104-.2164-.6771-.438-.1666-.2216-.2492-.4952-.2329-.772v-.82c-.0072-.2647.0548-.5267.18-.76.2803-.4087.617-.7756 1-1.09.2223-.1507.4818-.2373.75-.25h2.22c.2682.0127.5278.0993.75.25.5541.4217.9941.9751 1.28 1.61" stroke-width=".99"/><path d="m52.6101 28.9301v12.62" stroke-width=".99"/></g></g></svg>