<svg fill="none" height="72" viewBox="0 0 72 72" width="72" xmlns="http://www.w3.org/2000/svg"><g stroke="#050504" stroke-linecap="round"><path d="m45.2201 7.73999h-5.45" stroke-miterlimit="10"/><g stroke-linejoin="round"><path d="m56.21 6.84c.0013-.24116-.045-.4802-.1364-.70338s-.2259-.4261-.396-.59709c-.1701-.171-.3723-.30669-.5949-.39928-.2227-.09259-.4615-.14025-.7027-.14025h-23.92c-.2411 0-.4799.04766-.7026.14025s-.4249.22828-.5949.39928c-.1701.17099-.3047.37391-.396.59709-.0914.22318-.1378.46222-.1365.70338v45.57c-.0013.2407.0451.4793.1366.7019s.2263.4249.3965.5951.3724.3049.5951.3964c.2226.0915.4611.1379.7018.1366h23.92c.2407.0013.4793-.0451.7019-.1366s.4249-.2262.5951-.3964.3049-.3725.3964-.5951.138-.4612.1366-.7019z"/><path d="m42.3801 51.3c1.1211 0 2.03-.9089 2.03-2.03s-.9089-2.03-2.03-2.03-2.03.9089-2.03 2.03.9089 2.03 2.03 2.03z"/><path d="m26.6401 8.91006c-.2407-.00132-.4793.0451-.7019.1366s-.4249.22624-.5951.39644c-.1702.17019-.3049.37246-.3964.5951-.0915.2226-.1379.4612-.1366.7019v45.58c0 .4853.1928.9508.536 1.294s.8086.536 1.294.536h23.92c.2407.0013.4792-.0451.7019-.1366.2226-.0915.4249-.2263.595-.3965.1702-.1702.305-.3724.3965-.5951.0915-.2226.1379-.4611.1366-.7018"/><path d="m22.2501 12.85c-.4793-.0027-.9403.1838-1.2829.5189s-.5392.7919-.5471 1.2711v45.62c-.0014.2407.0451.4793.1366.7019s.2262.4249.3964.5951.3725.3049.5951.3964.4612.1379.7019.1366h23.92c.4853 0 .9508-.1928 1.294-.536s.536-.8087.536-1.294"/><path d="m17.83 17c-.2407-.0013-.4792.0451-.7019.1366-.2226.0915-.4248.2263-.595.3965s-.305.3724-.3965.595c-.0915.2227-.1379.4612-.1366.7019v45.57c-.0013.2412.0451.4802.1364.7034.0914.2232.226.4261.3961.5971.17.171.3722.3067.5949.3993s.4615.1402.7026.1402h23.92c.2412 0 .48-.0476.7027-.1402.2226-.0926.4248-.2283.5949-.3993.17-.171.3046-.3739.396-.5971s.1377-.4622.1364-.7034"/></g></g></svg>