<svg fill="none" height="72" viewBox="0 0 72 72" width="72" xmlns="http://www.w3.org/2000/svg"><g stroke="currentColor" stroke-linecap="round"><path d="m38.85 8.42004h-6.83" stroke-miterlimit="10"/><g stroke-linejoin="round"><path d="m42.8801 35.0401c0 1.9165.5683 3.79 1.6331 5.3835 1.0647 1.5935 2.5781 2.8355 4.3487 3.5689s3.719.9253 5.5987.5514c1.8796-.3739 3.6062-1.2968 4.9614-2.6519 1.3552-1.3552 2.278-3.0818 2.6519-4.9615s.182-3.828-.5514-5.5986-1.9754-3.284-3.5689-4.3487c-1.5935-1.0648-3.467-1.6331-5.3835-1.6331-2.5699 0-5.0346 1.0209-6.8518 2.8381-1.8173 1.8173-2.8382 4.2819-2.8382 6.8519z"/><path d="m52.63 47.24v17.19c.0001.305-.0608.6069-.179.8881-.1181.2811-.2913.5358-.5093.7491s-.4763.381-.76.4931c-.2836.1121-.5868.1664-.8917.1597h-30c-.3011.0013-.5995-.057-.8779-.1716s-.5314-.2832-.7443-.4962c-.2129-.2129-.3815-.4658-.4962-.7443-.1146-.2784-.1729-.5768-.1716-.8779v-57.13998c-.0013-.3011.057-.59947.1716-.87791.1147-.27843.2833-.5314.4962-.74431s.4659-.38154.7443-.49616c.2784-.11461.5768-.17294.8779-.17162h30c.3016-.00131.6005.05695.8794.17144.279.11449.5327.28296.7464.49574s.3832.46567.499.74416c.1157.27849.1752.57709.1752.87866v15.16998"/><path d="m35.3 63.0301c1.4083 0 2.55-1.1417 2.55-2.55 0-1.4084-1.1417-2.55-2.55-2.55s-2.55 1.1416-2.55 2.55c0 1.4083 1.1417 2.55 2.55 2.55z"/><path d="m51.5601 34.9401c.0019.5171-.1497 1.0231-.4357 1.4538-.2861.4307-.6936.7668-1.1709.9656s-1.0029.2513-1.5101.1509c-.5073-.1004-.9732-.3491-1.3389-.7148-.3656-.3656-.6144-.8316-.7147-1.3388-.1004-.5072-.0479-1.0328.1509-1.5101s.5348-.8849.9656-1.1709c.4307-.286.9367-.4377 1.4538-.4357.6895 0 1.3509.2739 1.8384.7615.4876.4876.7616 1.1489.7616 1.8385z"/><path d="m58.72 34.9401c.002.5166-.1494 1.0222-.435 1.4527-.2856.4306-.6925.7667-1.1693.9657-.4767.1991-1.0018.2522-1.5087.1527-.507-.0996-.973-.3474-1.339-.712s-.6156-.8297-.7171-1.3362c-.1015-.5066-.0504-1.0319.1468-1.5094.1973-.4775.5318-.8857.9612-1.1729.4294-.2873.9344-.4406 1.4511-.4406.6905 0 1.3528.2736 1.842.7609s.7653 1.1486.768 1.8391z"/><path d="m48.8501 37.54h6.99"/></g></g></svg>