<svg fill="none" height="72" viewBox="0 0 72 72" width="72" xmlns="http://www.w3.org/2000/svg"><g stroke="currentColor" stroke-linecap="round"><path d="m38.85 8.41998h-6.83" stroke-miterlimit="10"/><g stroke-linejoin="round"><path d="m43.2301 35.04c0 1.9165.5683 3.7899 1.6331 5.3835 1.0647 1.5935 2.5781 2.8355 4.3487 3.5689s3.719.9253 5.5986.5514c1.8797-.3739 3.6063-1.2968 4.9615-2.652 1.3551-1.3551 2.278-3.0817 2.6519-4.9614s.182-3.828-.5514-5.5986-1.9754-3.284-3.5689-4.3488c-1.5935-1.0647-3.467-1.633-5.3835-1.633-2.5699 0-5.0346 1.0209-6.8519 2.8381-1.8172 1.8172-2.8381 4.2819-2.8381 6.8519z"/><path d="m50.8 30.61v8.54"/><path d="m55.92 30.61v8.54"/><path d="m52.63 47.24v17.19c.0001.305-.0608.6069-.179.8881-.1181.2811-.2913.5358-.5093.7491s-.4763.381-.76.4931c-.2836.1121-.5868.1664-.8917.1597h-30c-.3011.0013-.5995-.057-.8779-.1716s-.5314-.2832-.7443-.4962c-.2129-.2129-.3815-.4658-.4962-.7443-.1146-.2784-.1729-.5768-.1716-.8779v-57.13998c-.0013-.3011.057-.59947.1716-.87791.1147-.27843.2833-.5314.4962-.74431s.4659-.38154.7443-.49616c.2784-.11461.5768-.17294.8779-.17162h30c.3016-.00131.6005.05695.8794.17144.279.11449.5327.28296.7464.49574s.3832.46567.499.74416c.1157.27849.1752.57709.1752.87866v15.16998"/><path d="m35.3 63.03c1.4083 0 2.55-1.1417 2.55-2.55s-1.1417-2.55-2.55-2.55-2.55 1.1417-2.55 2.55 1.1417 2.55 2.55 2.55z"/></g></g></svg>