<svg fill="none" height="72" viewBox="0 0 72 72" width="72" xmlns="http://www.w3.org/2000/svg"><path clip-rule="evenodd" d="m35.6392 6.95334c.1424-.07168.3105-.07114.4524.00146l13.9285 7.123c.0887.0181.1719.0601.2395.1225l14.3047 7.3154c.0801.0047.1593.0287.2303.0717.1494.0907.2406.2527.2406.4275v27.9265c0 .1856-.1027.3558-.2668.4423l-29.1301 15.3562c-.0523.0286-.1101.0481-.1715.0565-.0192.0026-.0385.0041-.0578.0045l-.0105.0001c-.0118 0-.0236-.0004-.0354-.0012-.0777-.0055-.1506-.0287-.2145-.0656l-27.82512-15.355c-.15943-.088-.25843-.2557-.25843-.4378v-28.2879c-.00398-.1867.09729-.3681.27522-.4576zm13.1528 7.61966-12.9299-6.61237-27.23054 13.70487 12.26954 6.8529zm-26.8346 14.5353 27.94-13.97 13.5015 6.9046-27.9921 14.5773zm-1.4092.3584c.0526.0457.1138.0796.1792.1001l14.1711 7.9149v26.9723l-26.83345-14.8077v-27.1518zm15.3503 35.0056 28.1367-14.8325v-26.8008l-28.1367 14.6527z" fill="currentColor" fill-rule="evenodd"/></svg>