<svg fill="none" height="72" viewBox="0 0 72 72" width="72" xmlns="http://www.w3.org/2000/svg"><path clip-rule="evenodd" d="m12.4 17.5c0-.2761.2239-.5.5-.5h51.3c.2762 0 .5.2239.5.5v15.1c0 .2761-.2238.5-.5.5-.2761 0-.5-.2239-.5-.5v-14.6h-50.3v8.8c0 .2761-.2238.5-.5.5-.2761 0-.5-.2239-.5-.5zm-4.40421 10.7h.00423 34.79998c.1125 0 .2301.0296.3352.0996.1019.068.1636.155.1995.2268.035.0699.0499.1337.057.1758.0037.0222.0057.0419.0069.0579.0005.0081.0009.0155.0011.0221l.0003.0095v.0043.002.001.0005c0 .0003 0 .0005-.4556.0005h.4556v21.9h1.7l.0068-.0001c.036-.0005.1673-.0023.2888.0382.0799.0267.1923.0819.2819.1971.093.1195.1225.2533.1225.3648v2.9c0 .1326-.0527.2597-.1464.3535l-.3536-.3535c.3536.3535.3535.3536.3534.3537l-.0002.0002-.0004.0003-.0007.0008-.0017.0016-.0038.0038-.0099.0094c-.0075.007-.0171.0156-.0285.0254-.0222.0191-.054.0446-.0933.0708-.0624.0416-.2146.134-.4149.134h-39.4-.00679c-.03603.0005-.16732.0023-.28883-.0382-.07992-.0267-.19227-.0819-.28187-.1971-.09297-.1195-.12251-.2533-.12251-.3647v-2.9c0-.1327.05268-.2598.14644-.3536l.35356.3536c-.35356-.3536-.35347-.3537-.35338-.3538l.00017-.0001.00037-.0004.00076-.0008.00165-.0016.00386-.0038.0099-.0094c.00752-.007.01708-.0156.02846-.0254.02223-.0191.05402-.0445.09336-.0708.0624-.0416.21456-.1339.41485-.1339h1.70002v-21.9l-.00001-.0042c-.00007-.0177-.00026-.0648.00463-.1088.00496-.0446.02417-.1979.15433-.3281.13016-.1301.28345-.1493.32802-.1543.04404-.0049.09117-.0047.1088-.0046zm.40423 1v21.3h33.99998v-21.3zm38.19998 21.3c0-.2761.2239-.5.5-.5h8c.2762 0 .5.2239.5.5s-.2238.5-.5.5h-8c-.2761 0-.5-.2239-.5-.5zm.1 3.5c0-.2761.2239-.5.5-.5h7.7c.2762 0 .5.2239.5.5s-.2238.5-.5.5h-7.7c-.2761 0-.5-.2239-.5-.5zm15.0035-2.2963c-.0798.0798-.1035.159-.1035.1964s.0237.1166.1035.1964c.0799.0799.1591.1036.1965.1036.0784 0 .1569-.0305.2121-.0811.0487-.0447.0879-.1118.0879-.2189 0-.0374-.0238-.1166-.1036-.1964-.0798-.0799-.159-.1036-.1964-.1036s-.1166.0237-.1965.1036zm-.7071-.7072c.2202-.2201.541-.3964.9036-.3964s.6834.1763.9035.3964c.2202.2202.3965.541.3965.9036 0 .8162-.6657 1.3-1.3 1.3-.3626 0-.6834-.1763-.9036-.3965-.2202-.2201-.3964-.5409-.3964-.9035s.1762-.6834.3964-.9036zm-3.7963-15.6964c0-.1239.0761-.2.2-.2h9.1c.1238 0 .2.0761.2.2v18.1c0 .1238-.0762.2-.2.2h-9.1c-.1239 0-.2-.0761-.2-.2zm.2-1.2c-.6762 0-1.2.5239-1.2 1.2v18.1c0 .6761.5238 1.2 1.2 1.2h9.1c.6761 0 1.2-.5239 1.2-1.2v-18.1c0-.6761-.5239-1.2-1.2-1.2zm-12.6001 17.5999h-13.7v.1c0 .2761-.2239.5-.5.5h-10.4c-.2761 0-.5-.2239-.5-.5v-.1h-13.7v2.1h38.8zm16.1-15.8001c-.2761 0-.5.2239-.5.5s.2239.5.5.5h2.7c.2762 0 .5-.2239.5-.5s-.2238-.5-.5-.5z" fill="#050504" fill-rule="evenodd"/></svg>