<svg fill="none" height="72" viewBox="0 0 72 72" width="72" xmlns="http://www.w3.org/2000/svg"><path clip-rule="evenodd" d="m6.5 36c0-16.2924 13.2076-29.5 29.5-29.5s29.5 13.2076 29.5 29.5-13.2076 29.5-29.5 29.5-29.5-13.2076-29.5-29.5zm29.5-30.5c-16.8447 0-30.5 13.6553-30.5 30.5s13.6553 30.5 30.5 30.5 30.5-13.6553 30.5-30.5-13.6553-30.5-30.5-30.5zm0 16c-3.0376 0-5.5 2.4624-5.5 5.5s2.4624 5.5 5.5 5.5 5.5-2.4624 5.5-5.5-2.4624-5.5-5.5-5.5zm-6.5 5.5c0-3.5899 2.9101-6.5 6.5-6.5s6.5 2.9101 6.5 6.5c0 2.573-1.495 4.7968-3.6637 5.8502 4.6606 1.1471 8.0921 5.4004 8.0921 10.4099v9.5132c0 .2761-.2239.5-.5.5-.2762 0-.5-.2239-.5-.5v-9.5132c0-5.3381-4.2888-9.7142-9.6141-9.7142h-.1001c-5.3381 0-9.7142 4.2888-9.7142 9.614v.1002 9.5132c0 .2761-.2239.5-.5.5s-.5-.2239-.5-.5v-9.5132-.1002c0-4.8949 3.3401-8.9841 7.8419-10.2265-2.2646-1.016-3.8419-3.2905-3.8419-5.9334z" fill="currentColor" fill-rule="evenodd"/></svg>