<svg fill="none" height="72" viewBox="0 0 72 72" width="72" xmlns="http://www.w3.org/2000/svg"><path d="m60.1836 20.2281c1.3018 3.1043 2.0028 6.509 2.0028 9.9138-.1002 13.5187-10.7149 24.7343-24.2337 25.4353m-25.8359-35.3491c-1.3018 3.1043-2.0028 6.509-2.0028 9.9138.1002 13.5187 10.7149 24.7343 24.2337 25.5354m7.3102-5.6078c.5007-1.2016 1.1015-2.3032 2.0027-3.3046 1.3018 1.3019 1.7024 3.3046 1.0014 5.007-.4005 1.5021-1.5021 2.8039-2.904 3.4047-.1001.1002-.9013-3.1043-.1001-5.1071zm3.9054 4.4062c-1.3018 0-2.6036.3004-3.8053.8011.9013 1.6022 2.6036 2.6036 4.5063 2.5035 1.6022.1001 3.2044-.5007 4.2058-1.6023-1.5021-1.0014-3.2044-1.6022-4.9068-1.7023zm2.8039-7.6106c-.2003-1.3018-.2003-2.5035 0-3.8053 1.8025.5007 3.1043 2.0028 3.4047 3.8053.5007 1.5021.2003 3.2044-.8011 4.4061 0 .1001-2.2031-2.2031-2.6036-4.4061zm5.6078 1.8025c-1.1016.701-2.103 1.5021-2.9041 2.5035 1.6023 1.0014 3.605 1.0014 5.2073 0 1.5021-.6009 2.5034-2.0028 2.8039-3.5049 0 .1001-3.2045-.1001-5.1071 1.0014zm-.3005-7.4103c-.6008-1.1015-1.0013-2.3032-1.2016-3.605 1.9026-.1001 3.605.9012 4.4061 2.6036.9012 1.3018 1.2017 2.904.701 4.5063.1001-.1002-2.8039-1.6023-3.9055-3.5049zm5.9083 0c-.8012 1.0014-1.5021 2.1029-1.9027 3.3046 1.8025.4005 3.7052-.2003 4.9068-1.6022 1.2017-1.1016 1.7024-2.6037 1.6023-4.2059 0-.1001-3.1044.8011-4.6064 2.5035zm-2.8039-7.1099c-.8012-1.0014-1.5021-2.1029-1.9027-3.3046 1.8025-.4005 3.7052.2003 4.9068 1.6023 1.2017 1.1015 1.8025 2.6036 1.6023 4.2058-.1002.1001-3.2045-.8011-4.6064-2.5035zm5.808-1.2016c-.6008 1.1015-1.0014 2.3032-1.2016 3.605 1.9026.1001 3.605-.9013 4.4061-2.6037.9012-1.3018 1.2017-2.904.701-4.5062 0 .1001-2.9041 1.5021-3.9055 3.5049zm-5.9082-6.7094c-1.1015-.9012-2.0028-2.0027-2.6036-3.2044 1.9027-.8011 4.0056-.5007 5.5077.8011 1.4019.9012 2.3032 2.5035 2.5034 4.2058 0 0-3.5048-.3004-5.4075-1.8025zm6.0084-2.4033c-.4006 1.3018-.6009 2.7038-.6009 4.1057 2.0028-.3004 3.7052-1.7024 4.306-3.605.701-1.6022.701-3.4047-.1001-4.9068 0 0-2.8039 2.1029-3.605 4.4061zm-5.5077-5.4075c.9013.8011 2.0028 1.4019 3.1043 1.8025.8011-1.6022.6009-3.605-.7009-4.9068-1.1016-1.2017-2.7038-1.7024-4.2059-1.402 0 0 .2003 3.1043 1.8025 4.5063zm-26.5368 31.6439c-.4006-1.2016-1.1016-2.3032-1.9027-3.3046-1.3018 1.3019-1.7023 3.3046-1.0014 5.007.4006 1.5021 1.5021 2.8039 2.9041 3.4047 0 0 .8011-3.1043 0-5.1071zm-3.9055 4.4062c1.3018 0 2.6037.3004 3.8053.8011-.9012 1.6022-2.6036 2.6036-4.5062 2.5035-1.6023.1001-3.1043-.4006-4.2059-1.6023 1.5021-1.0014 3.2045-1.6022 4.9068-1.7023zm-2.8039-7.6106c.2003-1.3018.2003-2.5035 0-3.8053-1.8025.5007-3.1043 2.0028-3.4047 3.8053-.5007 1.5021-.2003 3.2044.8011 4.4061 0 .1001 2.2031-2.2031 2.6036-4.4061zm-5.6077 1.8025c1.1015.701 2.1029 1.5021 2.904 2.5035-1.6022 1.0014-3.605 1.0014-5.1071 0-1.5021-.6009-2.5035-2.0028-2.904-3.5049 0 .1001 3.2044-.1001 5.1071 1.0014zm.3004-7.4103c.6008-1.1015 1.0014-2.3032 1.2016-3.605-1.9026-.1001-3.605.9012-4.4061 2.6036-.9012 1.3018-1.2016 2.904-.701 4.5063-.1001-.1002 2.8039-1.6023 3.9055-3.5049zm-5.9082 0c.8011 1.0014 1.5021 2.1029 1.9026 3.3046-1.8025.4005-3.7051-.2003-4.90681-1.7024-1.20167-1.1015-1.70236-2.6036-1.60222-4.2058 0 0 3.10433.9012 4.60643 2.6036zm2.8039-7.1099c.8011-1.0014 1.502-2.1029 1.9026-3.3046-1.8025-.4005-3.7051.2003-4.9068 1.6023-1.2017 1.1015-1.7024 2.6036-1.6022 4.2058.1001.1001 3.2044-.8011 4.6064-2.5035zm-5.80811-1.2016c.60081 1.1015 1.00141 2.3032 1.20171 3.605-1.90268.1001-3.60505-.9013-4.40616-2.6037-.90125-1.3018-1.20167-2.904-.70097-4.5062.10014 0 2.90403 1.5021 3.90542 3.5049zm5.90821-6.8095c1.1015-.9013 2.0028-2.0028 2.7038-3.2045-1.9027-.8011-4.0056-.5006-5.6078.8012-1.5021.9012-2.4034 2.5034-2.5035 4.2058 0 .1001 3.5049-.2003 5.4075-1.8025zm-6.00835-2.4033c.40055 1.3018.60085 2.7037.60085 4.1057-2.00279-.3005-3.60502-1.7024-4.20585-3.605-.70098-1.6023-.70098-3.4048.10013-4.9069 0 0 2.70376 2.2031 3.50487 4.4062zm5.50765-5.4076c-.9012.8012-2.0028 1.402-3.1043 1.8026-.8011-1.6023-.6008-3.6051.701-4.9069 1.1015-1.2016 2.7037-1.7023 4.3059-1.4019 0 0-.3004 3.2044-1.9026 4.5062z" stroke="currentColor" stroke-linecap="round" stroke-linejoin="round"/></svg>