<svg width="72" height="72" viewBox="0 0 72 72" fill="none" xmlns="http://www.w3.org/2000/svg">
<path d="M33.9199 33.6924C33.8019 33.5325 33.1938 32.4788 32.9396 32.1538C32.6853 31.8288 32.3996 31.4933 32.0877 31.1473C31.7758 30.8013 31.4613 30.4658 31.1467 30.1539C30.8322 29.842 30.5753 29.593 30.3604 29.4069C29.8481 28.9715 29.2586 28.6363 28.6226 28.4187C27.9916 28.2317 27.3356 28.1433 26.6777 28.1566H14.7148V20.1805H32.2188V17.748H12.2116V30.5916H26.4863C26.7655 30.594 27.044 30.6168 27.3199 30.6598C27.6122 30.703 27.8944 30.798 28.1534 30.9402C28.4885 31.1486 28.8082 31.3807 29.1101 31.6348C29.4535 31.9214 29.7791 32.2286 30.0852 32.5548C30.3948 32.8869 30.6845 33.237 30.9528 33.6033C31.2033 33.946 31.4293 34.306 31.629 34.6806C31.7461 34.9336 31.8231 35.2033 31.8571 35.48C31.8911 35.7579 31.9095 37.7211 31.9095 37.9754V40.1299C31.9089 40.3859 31.8914 40.6416 31.8571 40.8953C31.8266 41.1394 31.7492 41.3753 31.629 41.5899C31.4272 41.9683 31.2013 42.3334 30.9528 42.6829C30.6834 43.0692 30.3938 43.4411 30.0852 43.7969C29.7802 44.1463 29.4546 44.4772 29.1101 44.7877C28.8203 45.0568 28.499 45.29 28.1534 45.4823C27.8943 45.6237 27.612 45.7178 27.3199 45.7601C27.0443 45.8052 26.7656 45.8288 26.4863 45.8309H18.9558C18.7399 45.8281 18.5245 45.8106 18.311 45.7785C18.0735 45.7448 17.8442 45.6675 17.6348 45.5504C17.1758 45.2907 16.7498 44.9765 16.3661 44.6147C15.9318 44.2147 15.5196 43.7912 15.1316 43.3461C14.7568 42.911 14.395 42.4575 14.0517 41.97H11.0479C11.2025 42.2321 11.3729 42.4942 11.5511 42.7563C11.9443 43.3487 12.3689 43.9227 12.8197 44.4784C13.2652 45.0289 13.7413 45.5539 14.2456 46.0511C14.6873 46.4895 15.1701 46.8844 15.6873 47.2306C16.165 47.5154 16.6656 47.76 17.1839 47.9619C17.704 48.167 18.2579 48.2728 18.8169 48.2738H26.544C27.2148 48.2746 27.8818 48.1747 28.523 47.9776C29.1441 47.7985 29.7233 47.4973 30.2267 47.0917C30.5074 46.8649 30.7744 46.6216 31.0262 46.363L32.0353 45.3145C32.3603 44.945 32.6539 44.5911 32.9212 44.2661C33.1261 44.0141 33.3177 43.7517 33.4953 43.4797C33.8135 43.0077 34.0484 42.4847 34.1899 41.9333C34.3305 41.3701 34.4001 40.7916 34.3969 40.2112V37.7683C34.3969 36.573 34.5227 34.6229 33.9199 33.6924Z" fill="#221F1F"/>
<path d="M58.281 35.7285C57.9989 35.1985 57.6737 34.6927 57.3086 34.2161C56.9137 33.6919 56.5022 33.1877 56.074 32.7037C55.6719 32.2412 55.2421 31.8036 54.7871 31.3931C54.4281 31.0616 54.0384 30.7649 53.6233 30.5072C53.4129 30.3901 53.1828 30.3128 52.9444 30.2791C52.7318 30.2469 52.5172 30.2294 52.3022 30.2267H45.1806C44.7699 30.2253 44.3647 30.3214 43.9985 30.5072C43.5962 30.7444 43.2125 31.0117 42.8504 31.3066C42.3812 31.6797 41.9339 32.0796 41.511 32.5045C41.0602 32.9553 40.6303 33.4271 40.2267 33.912C39.8598 34.3412 39.5392 34.8077 39.2699 35.3039C39.1406 35.5254 39.0694 35.7761 39.0629 36.0325V46.6875C39.0629 46.8945 39.0629 47.1042 39.0786 47.3139C39.0948 47.5336 39.1602 47.7468 39.2699 47.9377C39.5392 48.4339 39.8598 48.9005 40.2267 49.3296C40.6303 49.8145 41.0602 50.2837 41.511 50.7371C41.9618 51.1906 42.4101 51.5942 42.8504 51.9533C43.2033 52.2565 43.5882 52.5202 43.9985 52.7397C44.1973 52.8532 44.4147 52.9305 44.6406 52.9677C44.8417 53.0006 45.045 53.0182 45.2487 53.0201H52.2341C52.6671 53.0261 53.0954 52.93 53.4844 52.7397C53.8741 52.5207 54.2458 52.2709 54.5957 51.9926C55.0523 51.6395 55.4897 51.2624 55.9063 50.8629C56.3469 50.4486 56.7651 50.0111 57.1592 49.5524C57.5298 49.1236 57.8556 48.6581 58.1316 48.1632C58.2458 47.9583 58.3221 47.7345 58.357 47.5026C58.3906 47.284 58.4081 47.0633 58.4095 46.8421V42.5697H48.2709V40.1268H60.9231V43.2983L60.9703 47.2877C60.9806 47.9223 60.7867 48.5435 60.4173 49.0596L58.973 51.0752C58.3401 51.8889 57.6299 52.6394 56.8525 53.3163C56.2051 53.8615 55.7516 54.2258 55.4974 54.4119C54.626 55.0979 53.5475 55.4676 52.4385 55.4604H44.9001C44.3617 55.4473 43.8295 55.3409 43.3275 55.1459C42.7803 54.9559 42.2534 54.7118 41.7548 54.4172C41.3715 54.1719 41.0157 53.8863 40.6932 53.5653C40.266 53.1617 39.8256 52.7187 39.3826 52.2548C38.9397 51.7908 38.515 51.3164 38.1324 50.8656C37.8309 50.5228 37.5575 50.1564 37.3146 49.7699C37.0338 49.3463 36.8339 48.8744 36.7248 48.3781C36.6076 47.8533 36.5496 47.317 36.5518 46.7792V36.6328C36.5511 36.083 36.609 35.5347 36.7248 34.9972C36.8299 34.4898 37.03 34.0069 37.3146 33.5739C37.5615 33.1797 37.8412 32.8071 38.1507 32.4599L39.4613 31.0707C39.9016 30.6077 40.3472 30.1708 40.7981 29.7602C41.1413 29.433 41.5074 29.1308 41.8937 28.8559C42.3355 28.5428 42.8145 28.2857 43.3196 28.0905C43.8224 27.9023 44.3555 27.8082 44.8923 27.8127H52.4936C53.0289 27.8244 53.5593 27.9181 54.0663 28.0905C54.6262 28.2646 55.1564 28.5227 55.6389 28.8559C56.1736 29.2476 56.6791 29.6777 57.1513 30.1428C57.6539 30.6362 58.124 31.1615 58.5589 31.7155C58.9992 32.273 59.4046 32.8295 59.7751 33.3852C60.1473 33.9409 60.4828 34.4756 60.7842 34.9841L58.281 35.7285Z" fill="#221F1F"/>
<path d="M39.5111 63.9834V63.9834L37.0001 63.8917C36.9979 63.3539 37.0559 62.8176 37.1731 62.2928C37.2821 61.7964 37.4821 61.3245 37.7628 60.9009C38.0057 60.5145 38.2792 60.1481 38.5806 59.8053C38.9633 59.3545 39.3879 58.8801 39.8309 58.4161C40.2739 57.9522 40.7142 57.5092 41.1415 57.1055C41.4639 56.7845 41.8198 56.4989 42.203 56.2537C42.7017 55.959 43.2285 55.7149 43.7757 55.525C44.2778 55.33 44.8099 55.2235 45.3484 55.2105H52.8868C53.9957 55.2032 55.0743 55.5729 55.9456 56.2589C56.1999 56.445 56.6533 56.8093 57.3008 57.3545C58.0782 58.0315 58.7883 58.782 59.4213 59.5956L60.8655 61.6113C61.235 62.1274 61.5103 63.1941 61.5 63.8288H58.8577C58.8564 63.6076 58.8389 63.3868 58.8053 63.1682C58.7704 62.9363 58.694 62.7126 58.5799 62.5077C58.3039 62.0127 57.978 61.5473 57.6074 61.1185C57.2133 60.6597 56.7951 60.2223 56.3545 59.8079C55.938 59.4084 55.5005 59.0313 55.044 58.6782C54.694 58.4 54.3224 58.1502 53.9326 57.9312C53.5436 57.7408 53.1153 57.6447 52.6823 57.6507H45.697C45.4932 57.6527 45.29 57.6702 45.0889 57.7032C44.863 57.7404 44.6455 57.8176 44.4467 57.9312C44.0365 58.1506 43.6515 58.4143 43.2986 58.7175C42.8583 59.0766 42.4101 59.4803 41.9593 59.9337C41.5084 60.3872 41.0786 60.8564 40.6749 61.3413C40.3081 61.7704 39.9874 62.2369 39.7182 62.7331C39.6084 62.9241 39.543 63.1373 39.5268 63.3569C39.5111 63.5666 39.5111 63.7763 39.5111 63.9834Z" fill="url(#paint0_linear)"/>
<path d="M13.5111 56.9834V56.9834L11.0001 56.8917C10.9979 56.3539 11.0559 55.8176 11.1731 55.2928C11.2821 54.7964 11.4821 54.3245 11.7628 53.9009C12.0057 53.5145 12.2792 53.1481 12.5806 52.8053C12.9633 52.3545 13.3879 51.8801 13.8309 51.4161C14.2739 50.9522 14.7142 50.5092 15.1415 50.1055C15.4639 49.7845 15.8198 49.4989 16.203 49.2537C16.7017 48.959 17.2285 48.7149 17.7757 48.525C18.2778 48.33 18.8099 48.2235 19.3484 48.2105H26.8868C27.9957 48.2032 29.0743 48.5729 29.9456 49.2589C30.1999 49.445 30.6533 49.8093 31.3008 50.3545C32.0782 51.0315 32.7883 51.782 33.4213 52.5956L34.8655 54.6113C35.235 55.1274 35.5103 56.1941 35.5 56.8288H32.8577C32.8564 56.6076 32.8389 56.3868 32.8053 56.1682C32.7704 55.9363 32.694 55.7126 32.5799 55.5077C32.3039 55.0127 31.978 54.5473 31.6074 54.1185C31.2133 53.6597 30.7951 53.2223 30.3545 52.8079C29.938 52.4084 29.5005 52.0313 29.044 51.6782C28.694 51.4 28.3224 51.1502 27.9326 50.9312C27.5436 50.7408 27.1153 50.6447 26.6823 50.6507H19.697C19.4932 50.6527 19.29 50.6702 19.0889 50.7032C18.863 50.7404 18.6455 50.8176 18.4467 50.9312C18.0365 51.1506 17.6515 51.4143 17.2986 51.7175C16.8583 52.0766 16.4101 52.4803 15.9593 52.9337C15.5084 53.3872 15.0786 53.8564 14.6749 54.3413C14.3081 54.7704 13.9874 55.2369 13.7182 55.7331C13.6084 55.9241 13.543 56.1373 13.5268 56.3569C13.5111 56.5666 13.5111 56.7763 13.5111 56.9834Z" fill="url(#paint1_linear)"/>
<defs>
<linearGradient id="paint0_linear" x1="48.5" y1="55.21" x2="48.5" y2="62.21" gradientUnits="userSpaceOnUse">
<stop stop-color="#050504" stop-opacity="0.08"/>
<stop offset="1" stop-color="#050504" stop-opacity="0"/>
</linearGradient>
<linearGradient id="paint1_linear" x1="22.5" y1="48.21" x2="22.5" y2="55.21" gradientUnits="userSpaceOnUse">
<stop stop-color="#050504" stop-opacity="0.08"/>
<stop offset="1" stop-color="#050504" stop-opacity="0"/>
</linearGradient>
</defs>
</svg>
