<svg fill="none" height="72" viewBox="0 0 72 72" width="72" xmlns="http://www.w3.org/2000/svg"><g stroke="currentColor" stroke-linecap="round"><path d="m57.3797 48.0668c.3004 1.502-2.6036 1.8025-4.2059 2.7037-1.6022.9013-.9012 2.1029-1.8025 3.1043-.9012 1.0014-2.7037 1.3018-2.3032.6009.3005-.8011.5007-1.6023.6009-2.4034.1001-.701-.8011-.8011-1.8025-.9012-1.0014-.1002-3.3046.1001-3.8053-.701-.701-.9013-1.9027-1.3018-3.0042-.8011-.9012.6008-2.7037 1.8025-3.9054 1.2017-1.2017-.6009-7.3102.2002-9.4131.2002s-16.0222-2.3032-16.7232-2.7037c-.8011-.3004-1.20167-1.1016-1.20167-1.9027.10013-1.0014-1.20167-2.4033-2.00279-3.2044-.80111-.8011.10014-3.8053.40056-4.6064s-1.10153-1.402-.60083-2.8039c.40055-1.3018-2.3032-3.5049-2.50348-3.8053s-.70098-1.2017 0-1.8025c.70097-.6008 4.70653-7.0097 5.60781-7.6106.9012-.6008 1.3018.701 1.8025 1.6023.5007.9012 4.1057.6008 5.0069.7009.9013.1002 4.7066 1.9027 4.5063 2.3032-.2003.4006 1.6022 2.3032 2.7038 1.3018 1.1015-1.0014 3.7051.1002 4.8066.4006 1.1016.3004 3.5049-1.2017 4.5063-1.2017s1.4019-2.203 2.4033-2.203 1.3018 2.904.6009 3.5048c-.8012.8011-1.2017 1.9027-1.2017 3.0042.1001 1.0014-1.3018 2.0028-1.8025 2.5035s-.5007 3.605 0 4.5062c.5007.9013 3.605 1.402 4.7065 2.0028 1.1016.6009 3.2045.1002 4.306.3004 1.1015.2003 1.5021 2.5035 2.3032 3.0042s1.8025-.4005 1.8025-1.1015-1.5021-1.7024-1.8025-2.1029c-.3004-.4006.701-1.5021.8011-2.3032.1002-.8012-1.8025-2.9041-2.203-4.2059-.4006-1.3018-1.8025-2.1029 0-3.0042 1.8025-.9012 4.3059 1.0014 4.7065 1.3019.701.5007 1.1015 1.3018 2.0028.7009.9012-.6008.2002-3.0041 1.0014-2.5034.8011.6008 1.8025 1.1015 2.8039 1.4019 1.0013.1001 2.0027.6008 2.7037 1.3018.9013.6008 2.2031.6008 3.0042-.2003.5007-.6008 2.1029.3004 2.5035 1.3018.4005 1.0014-.6871.6489-.6871 2.5515s-3.1182 2.7559-4.2198 3.2566l-.1001 1.8025s-2.0028 2.2031-1.1015 3.0042c1.2016 1.3018.8011 2.5035.8011 2.5035z" stroke-linejoin="round"/><path d="m56.5 45s2.2816-2.0403 2.7823-2.0403c0 0 .701.9012.5007 1.5021-.2002.6008 1.2017.7009 1.402.3004.2003-.4006 1.0014-1.1016 1.2017-.5007.2002.6008 1.3018.7009.7009 1.3018-.6008.6008-1.8025.701-1.2016 1.2017.6008.5006.1001.9012-.8012.6008-.9012-.3004-.5007-.5007-1.4019-.6008-.9013-.1002-.6008-1.3019-1.1015-.8012-.4006.1002-.8011.2003-1.2017.2003l-.5007-.1001zm7.3887-6.146c.2003.5007.701.9012 1.3018 1.0014.9013.4005 1.1016-.8012 1.7024-1.0014.6008-.2003.8011 0 .9013-.701.1001-.701-.6009-1.2017-.9013-1.402-2.1029-1.6022-2.0028.4006-2.8039.3005-.8011-.1002-1.0014-2.0028-1.5021-1.0014s.1002 1.4019.5007 1.9026c.2003.2003.5007.5007.8011.9013z" stroke-miterlimit="10"/></g></svg>