<svg fill="none" height="72" viewBox="0 0 72 72" width="72" xmlns="http://www.w3.org/2000/svg"><path clip-rule="evenodd" d="m56.559 12.6309c-12.5377-11.27577-31.8422-10.23738-43.1174 2.2996-11.2756 12.5375-10.23745 31.8522 2.2998 43.1175h.0001c10.0613 9.039 24.8546 10.3759 36.3683 3.3199.0298.0128.0642.0282.1034.0462.2099.0967.5098.25.883.4514.7439.4015 1.7518.9796 2.8566 1.6411 2.2132 1.3252 4.7871 2.9682 6.3865 4.1776.0868.0657.1927.1012.3016.1012.3424-.1356.4994-.5237.4939-.5782l-.0031-.0162c-.0019-.0092-.004-.0187-.0056-.0259l-.0024-.0099c-.0034-.0128-.0068-.023-.0076-.0257l-.0001-.0001c-.0024-.0076-.0048-.0144-.0061-.018l-.011-.0306-.0368-.0998c-.0318-.0857-.0785-.211-.1379-.3699l-.0723-.1937c-.1115-.2986-.2545-.6815-.4197-1.1248-.4068-1.0922-.9474-2.5504-1.4811-4.0164-.5339-1.4668-1.0597-2.9381-1.4371-4.0574-.1891-.5607-.3389-1.0268-.4337-1.3578-.0324-.1133-.057-.2058-.0743-.278 11.1089-12.5412 10.0353-31.7262-2.447-42.9521zm-42.3738 2.9683c10.9064-12.12701 29.5788-13.13062 41.7051-2.2248 12.1268 10.9063 13.1208 29.5787 2.2246 41.7053l-.0025.0029c-.1019.1151-.1222.2412-.1279.2803-.0079.0547-.0069.1029-.0053.1343.0034.0644.0144.1312.0259.1894.0237.1204.0637.2747.1139.4498.1014.3538.2571.8375.4474 1.402.3814 1.131.9105 2.6114 1.445 4.0799.5349 1.4693 1.0766 2.9302 1.4837 4.0233l.1043.2799c-1.5408-1.0636-3.449-2.2646-5.1329-3.2729-1.1124-.6661-2.134-1.2522-2.8953-1.6631-.3794-.2048-.701-.3697-.9395-.4796-.1173-.0541-.2268-.1006-.3184-.1314-.0439-.0148-.1014-.0321-.1624-.0418-.0303-.0048-.0776-.0103-.1333-.0071-.0467.0028-.1482.0141-.2533.0803-11.1619 6.9479-25.5711 5.6876-35.3545-3.1017-12.1267-10.8964-13.13053-29.5786-2.2246-41.705zm2.8414 9.5257c-.2762 0-.5.2239-.5.5 0 .2762.2238.5.5.5h27.3365c.2762 0 .5-.2238.5-.5 0-.2761-.2238-.5-.5-.5zm31.7513.5c0-.2761.2239-.5.5-.5h7.157c.2761 0 .5.2239.5.5 0 .2762-.2239.5-.5.5h-7.157c-.2761 0-.5-.2238-.5-.5zm-31.7614 8.2685c-.2761 0-.5.2239-.5.5 0 .2762.2239.5.5.5h39.4884c.2762 0 .5-.2238.5-.5 0-.2761-.2238-.5-.5-.5zm-.4899 8.9883c0-.2762.2238-.5.5-.5h27.3365c.2762 0 .5.2238.5.5 0 .2761-.2238.5-.5.5h-27.3365c-.2762 0-.5-.2239-.5-.5zm32.7513-.5c-.2761 0-.5.2238-.5.5 0 .2761.2239.5.5.5h7.157c.2761 0 .5-.2239.5-.5 0-.2762-.2239-.5-.5-.5z" fill="currentColor" fill-rule="evenodd"/></svg>