<svg fill="none" height="72" viewBox="0 0 72 72" width="72" xmlns="http://www.w3.org/2000/svg"><g stroke="#050504"><path d="m42.41 26.62c0 1.244-.3689 2.4601-1.0601 3.4945s-1.6735 1.8406-2.8229 2.3167c-1.1493.4761-2.414.6006-3.6342.3579-1.2201-.2427-2.3409-.8417-3.2205-1.7214-.8797-.8797-1.4788-2.0005-1.7215-3.2206s-.1181-2.4848.358-3.6342c.476-1.1493 1.2822-2.1317 2.3166-2.8229 1.0344-.6911 2.2505-1.06 3.4946-1.06.8032-.024 1.6034.1107 2.3545.3965.7511.2857 1.4385.7168 2.0228 1.2685.5843.5518 1.054 1.2134 1.3822 1.947.3282.7335.5085 1.5247.5305 2.328z" stroke-linecap="round" stroke-linejoin="round"/><path d="m46.46 52.73v-9.5c.0092-1.3376-.2458-2.6639-.7504-3.9027s-1.2488-2.3657-2.19-3.3162-2.0608-1.7057-3.2946-2.2225c-1.2338-.5167-2.5574-.7847-3.8951-.7886h-.07c-1.3375-.004-2.6628.2562-3.8995.7657-1.2368.5094-2.3608 1.2581-3.3076 2.203s-1.6976 2.0674-2.2095 3.3032-.7747 2.5605-.7733 3.8981v.06 9.5" stroke-linecap="round" stroke-linejoin="round"/><path d="m64.29 25.07c2.4673 6.4766 2.6296 13.6052.4594 20.1874-2.1701 6.5821-6.5402 12.2164-12.3757 15.9556-5.8354 3.7392-12.7803 5.3553-19.6671 4.5765-6.8868-.7787-13.2955-3.9048-18.1486-8.8526-4.85313-4.9479-7.85478-11.4158-8.5003-18.3163-.64551-6.9005 1.10447-13.8129 4.9557-19.575 3.8513-5.7621 9.569-10.02258 16.1919-12.0651 6.6228-2.04251 13.747-1.74254 20.1747.84949" stroke-linecap="round" stroke-linejoin="round"/><path d="m57.07 24.27c5.1528 0 9.33-4.1772 9.33-9.33 0-5.15282-4.1772-9.33-9.33-9.33s-9.33 4.17718-9.33 9.33c0 5.1528 4.1772 9.33 9.33 9.33z" stroke-miterlimit="10"/></g><path d="m58.1601 9.8v4.06h3.89v1.74h-3.89v4.12h-1.83v-4.12h-3.9v-1.74h3.9v-4.06z" fill="#050504"/></svg>