<svg fill="none" height="72" viewBox="0 0 72 72" width="72" xmlns="http://www.w3.org/2000/svg"><path clip-rule="evenodd" d="m4.90527 16.0956c0-.2761.22386-.5.5-.5h26.22553c.2761 0 .5.2239.5.5v17.9475c0 .2761-.2239.5-.5.5h-26.22553c-.27614 0-.5-.2239-.5-.5zm1 16.9963v-15.3324l12.51623 10.7859c.1904.164.473.1613.6602-.0066l12.0491-10.8046v15.2337l-6.3092-6.1106c-.1983-.1921-.5149-.1871-.707.0113s-.1871.5149.0113.707l6.1614 5.9675h-23.38052l6.71582-5.901c.2074-.1823.2279-.4982.0456-.7056-.1823-.2075-.4982-.2279-.7057-.0456zm.18129-16.4963h24.81604l-12.1613 10.9053zm34.03634 6.2884c7.2424-7.2716 19.0074-7.291 26.2689-.0489l.0246.0246.025.025c.1953.1952.5118.1952.7071 0 .1953-.1953.1953-.5119 0-.7071l-.025-.0251-.025-.025-.0005-.0005c-7.653-7.6324-20.0515-7.6117-27.6836.0513-.1949.1956-.1942.5122.0014.7071.1957.1948.5123.1942.7071-.0014zm22.1648 2.8345c-4.99-4.9803-13.0716-4.9798-18.0511.0094-.1951.1954-.5117.1957-.7071.0006-.1955-.195-.1958-.5116-.0007-.7071 5.3705-5.3808 14.0852-5.3804 19.4653-.0107l.0004.0004.01.01c.1953.1953.1952.5119 0 .7071-.1953.1953-.5119.1953-.7072 0zm-14.6376 3.0021c3.0975-3.1069 8.1357-3.1077 11.244.0005.1952.1953.5118.1953.7071 0 .1953-.1952.1953-.5118 0-.7071-3.4982-3.4982-9.1704-3.4989-12.6593.0006-.1949.1955-.1945.5121.0011.7071.1956.1949.5121.1945.7071-.0011zm3.2638 3.0223c1.2953-1.304 3.4102-1.3057 4.717.0012.1953.1952.5119.1952.7071-.0001.1953-.1952.1953-.5118 0-.7071-1.696-1.696-4.4459-1.6977-6.1335.0012-.1946.1959-.1936.5125.0023.7071s.5125.1936.7071-.0023zm2.3878 2.7602c.1601 0 .29-.1299.29-.29 0-.1602-.1299-.2901-.29-.2901-.1602 0-.29.1299-.29.2901 0 .1601.1298.29.29.29zm-.71-.29c0-.3922.3179-.71.71-.71s.71.3178.71.71c0 .3921-.3179.7099-.71.7099s-.71-.3178-.71-.7099zm8.5586 5.8449c.2073-.0086.3775.1487.39.3439v.0274 10.6804c0 .2043-.1665.3708-.3708.3708h-3.3032c-.2762 0-.5.2239-.5.5v2.9302l-3.217-3.2803c-.094-.0958-.2227-.1499-.357-.1499h-7.481c-.2091-.0064-.3706-.168-.3771-.377v-10.668c.0066-.2124.1798-.377.3809-.377h14.8144c.0036 0 .0072-.0001.0108-.0002.0033 0 .0066-.0001.01-.0003zm1.3896.3104c-.0316-.758-.6739-1.3348-1.4197-1.3099h-14.8051c-.7586 0-1.3652.6139-1.3808 1.3604h-.0001v.0104 10.6804h-.0001l.0002.0104c.0156.7485.6119 1.3447 1.3603 1.3603v.0001h.0104 7.2774l3.9269 4.0042c.1422.145.3581.1896.5461.1127.188-.0768.3109-.2597.3109-.4628v-3.6541h2.8032c.7566 0 1.3708-.6142 1.3708-1.3708v-10.6804-.04c0-.007-.0001-.0139-.0004-.0209zm-14.2034 6.9781v-1.7627h1.7627v1.7627zm-.1796-2.7627c-.4564 0-.8204.364-.8204.8203v2.1221c0 .4563.364.8203.8204.8203h2.122c.4563 0 .8203-.364.8203-.8203v-2.1221c0-.4563-.364-.8203-.8203-.8203zm4.684 1v1.7627h1.7627v-1.7627zm-1-.1797c0-.4563.364-.8203.8204-.8203h2.122c.4563 0 .8203.364.8203.8203v2.1221c0 .4563-.364.8203-.8203.8203h-2.122c-.4564 0-.8204-.364-.8204-.8203zm5.4943 1.9424v-1.7627h1.7627v1.7627zm-.1797-2.7627c-.4563 0-.8203.364-.8203.8203v2.1221c0 .4563.364.8203.8203.8203h2.1221c.4563 0 .8203-.364.8203-.8203v-2.1221c0-.4563-.364-.8203-.8203-.8203zm-50.6555 2.9115c0-2.7568 2.23854-4.9953 4.9953-4.9953 2.7569 0 4.9954 2.2385 4.9954 4.9953s-2.2385 4.9954-4.9954 4.9954c-2.75676 0-4.9953-2.2386-4.9953-4.9954zm4.9953-5.9953c-3.30905 0-5.9953 2.6862-5.9953 5.9953 0 3.0349 2.25946 5.5459 5.1866 5.9412.0722.0404.1554.0635.2441.0635h15.1847c.0338 0 .0668-.0033.0987-.0097.0238.0002.0476.0004.0714.0004 3.3091 0 5.9953-2.6863 5.9953-5.9954s-2.6862-5.9953-5.9953-5.9953-5.9953 2.6862-5.9953 5.9953c0 2.09 1.0715 3.9315 2.6947 5.0047h-8.1889c1.6232-1.0732 2.6947-2.9147 2.6947-5.0047 0-3.3091-2.6863-5.9953-5.9954-5.9953zm9.7949 5.9953c0-2.7568 2.2385-4.9953 4.9953-4.9953s4.9953 2.2385 4.9953 4.9953-2.2385 4.9954-4.9953 4.9954-4.9953-2.2386-4.9953-4.9954z" fill="#050504" fill-rule="evenodd"/></svg>