<svg fill="none" height="72" viewBox="0 0 72 72" width="72" xmlns="http://www.w3.org/2000/svg"><path clip-rule="evenodd" d="m6.5 35.9186c0-16.2517 13.1664-29.41813 29.4181-29.41813 15.8552 0 28.7739 12.53183 29.3948 28.23433l2.2281-2.2281c.1952-.1952.5118-.1952.7071 0 .1952.1953.1952.5119 0 .7071l-3.0583 3.0583c-.1953.1953-.5119.1953-.7071 0l-2.7848-2.7848c-.1953-.1952-.1953-.5118 0-.7071.1952-.1952.5118-.1952.7071 0l1.905 1.905c-.6454-15.1268-13.1057-27.18473-28.3919-27.18473-15.6994 0-28.4181 12.71873-28.4181 28.41813s12.7187 28.4181 28.4181 28.4181c10.2007 0 19.6242-5.4692 24.6801-14.3319.1369-.2399.4422-.3234.6821-.1866.2398.1368.3234.4422.1865.6821-5.234 9.1748-14.9891 14.8364-25.5487 14.8364-16.2517 0-29.4181-13.1665-29.4181-29.4181zm14-9.9181c0-.2762.2239-.5.5-.5h32c.2761 0 .5.2238.5.5v20c0 .2761-.2239.5-.5.5h-32c-.2761 0-.5-.2239-.5-.5zm1 9v10.5h31v-10.5zm0-4h31v-4.5h-31zm2.5 10.5c0-.2762.2239-.5.5-.5h4c.2761 0 .5.2238.5.5 0 .2761-.2239.5-.5.5h-4c-.2761 0-.5-.2239-.5-.5zm.5-3.5c-.2761 0-.5.2238-.5.5 0 .2761.2239.5.5.5h7c.2761 0 .5-.2239.5-.5 0-.2762-.2239-.5-.5-.5z" fill="#050504" fill-rule="evenodd"/></svg>