<svg fill="none" height="72" viewBox="0 0 72 72" width="72" xmlns="http://www.w3.org/2000/svg"><path clip-rule="evenodd" d="m15.4273 16.3192c10.9384-7.9738 26.2737-5.5213 34.1469 5.4193.1613.2242.1103.5366-.1138.6979-.2242.1613-.5366.1104-.6979-.1137-7.5483-10.4892-22.2547-12.84335-32.7461-5.1954-10.49203 7.6484-12.74593 22.2568-5.1974 32.6484 7.5502 10.3937 22.2586 12.8432 32.7474 5.1972 5.1011-3.7279 8.5309-9.3167 9.4128-15.5877.0384-.2735.2913-.464.5647-.4255.2735.0384.464.2913.4255.5647-.9206 6.5466-4.5003 12.3735-9.8134 16.2562l-.0005.0004c-10.9409 7.9756-26.2742 5.4182-34.1455-5.4176-7.87287-10.8379-5.52037-26.0709 5.4173-34.0442zm7.1351 5.8543c6.6921-3.4915 14.9409-1.6509 19.6014 4.369.1691.2184.4831.2584.7015.0893.2183-.169.2583-.4831.0893-.7014-4.9527-6.3972-13.7273-8.3619-20.8543-4.6438-8.1544 4.2324-11.3561 14.2468-7.1226 22.4041 4.2322 8.1547 14.2469 11.3567 22.4043 7.1231 5.1041-2.649 8.2679-7.5632 8.8826-12.8696l12.2283 1.0305 1.9617 3.1388c.0155.026.0333.0506.0532.0733.0278.032.059.0597.0928.083.0662.0457.1441.076.229.0853.01.0011.02.0019.0301.0025l6.3787.3981c.1044.0116.2132-.0093.3104-.0671.1851-.1098.2734-.3204.2366-.5204-.0117-.0645-.036-.1251-.0702-.1787l-1.7001-2.8634 2.1398-2.2291c.0923-.0961.1386-.2196.1393-.3431.0022-.264-.2027-.4864-.4693-.5027l-3.0105-.185c-.0616-.0158-.1257-.0197-.1885-.0116l-3.3063-.2032c-.0062-.0004-.0124-.0007-.0186-.0009-.0717-.0024-.1406.0106-.2033.0361-.0555.0224-.1078.0551-.1537.0982-.0079.0073-.0156.0149-.023.0228l-2.1033 2.1909-12.468-1.0506c.1577-2.8631-.426-5.805-1.8446-8.5384-.1272-.2451-.429-.3407-.6741-.2135s-.3407.429-.2135.6741c1.328 2.5588 1.8775 5.3125 1.735 7.9937l-7.2357-.6097c.0243-1.093-.1679-2.2108-.6011-3.2938-.1025-.2564-.3935-.3811-.6499-.2785s-.3811.3935-.2785.6499c.3735.9338.5437 1.8962.5308 2.8382l-5.8175-.4902 23.3174-14.7961 3.2702 1.3081c.013.0054.0262.0103.0396.0145.1417.0457.291.0245.4113-.0479.0081-.0049.0161-.0101.024-.0154l5.3972-3.5982c.053-.0343.0998-.0788.1371-.1319.0269-.0384.0481-.08.0632-.1235.0274-.0788.0339-.1602.0223-.2377-.0082-.0553-.0258-.1098-.0532-.1612-.0382-.0719-.0939-.1347-.164-.1813-.0323-.0216-.0669-.0391-.1028-.0525l-3.0386-1.1618.3534-3.0963c.0195-.1203-.0047-.248-.0776-.3573-.0933-.14-.245-.2177-.4012-.2225-.0118-.0004-.0234-.0003-.035.0001-.1003.0038-.1943.0377-.2722.0937l-5.376 3.584c-.1225.0747-.2121.2013-.2345.3544l-.4651 3.1669-24.4424 15.51c-.0177.0111-.0344.0233-.0501.0362-.2035.0493-.3619.224-.3805.4441-.0232.2751.1811.517.4563.5402l7.3363.6182c-.3743 2.4523-1.9941 4.6366-4.4759 5.6293-3.7521 1.5009-7.9656-.2811-9.4641-4.0274-1.5008-3.7521.2812-7.9656 4.0274-9.4641 2.809-1.1236 5.9986-.3763 8.065 1.784.1909.1996.5074.2066.7069.0157.1996-.1909.2066-.5074.0157-.7069-2.3397-2.4461-5.9596-3.301-9.159-2.0213-4.2648 1.706-6.2881 6.5049-4.5845 10.764 1.706 4.2648 6.505 6.2881 10.764 4.5845 2.848-1.1392 4.6964-3.6577 5.1029-6.4736l7.2334.6095c-.5861 4.9751-3.5569 9.5804-8.3461 12.066-7.6645 3.9778-17.0769.9711-21.0561-6.6962-3.9778-7.6645-.9711-17.0768 6.6961-21.056zm43.818 19.5267-1.288-2.1693-1.9028-.1604 1.3577 2.2153zm-3.0526-.1905-1.375-2.2434-2.2151-.1867 1.4347 2.2955zm1.5543-4.6375 1.804.1109-1.4908 1.5529-1.7674-.149zm-3.3965-.2087 2.0875.1283-1.4277 1.4872-2.0452-.1724zm-10.3775-12.4714c-.1336-.2417-.4378-.3294-.6795-.1958s-.3293.4378-.1958.6795c2.0616 3.7304 3.1381 7.9455 2.9423 12.2528-.0125.2759.201.5097.4768.5222.2759.0125.5097-.2009.5222-.4768.2048-4.5049-.9218-8.9018-3.066-12.7819zm6.4331-5.1634-1.8821 1.1943 2.3631.9453 1.8255-1.217zm2.5982-1.6487 2.2657.8663-1.5477 1.0319-2.2752-.9101zm-.2748-3.0476-1.5125 1.0083-.3329 2.2004 1.5947-1.0119zm-2.6373 1.7582-1.6892 1.1261-.3074 2.0938 1.6697-1.0595z" fill="#050504" fill-rule="evenodd"/></svg>