<svg fill="none" height="72" viewBox="0 0 72 72" width="72" xmlns="http://www.w3.org/2000/svg"><path clip-rule="evenodd" d="m40.4562 7.61121-.0029.00001-17.5215.10013h-.0014c-3.1916.00055-6.1653 1.80792-7.6525 4.67595l-.0042.0084-9.51232 19.2249-.00048.0009c-1.17095 2.3427-1.1685 5.2026-.00927 7.6361l7.90587 19.1143c.0027.0065.0056.013.0086.0194 1.3872 2.9879 4.3713 4.7935 7.6574 4.7957l17.1182.4004v.0002h.0117c.2212 0 .4364-.0082.6459-.0246.0658.0215.1371.0297.2104.0215 5.4434-.6048 10.8845-1.8142 16.1224-3.5266.0234-.0076.0462-.017.0682-.028 1.1078-.5538 1.9882-1.5413 2.4353-2.6439l8.6023-17.0046.0001.0001.0048-.0101c1.1668-2.4396 1.1668-5.3019 0-7.7416-.0047-.0099-.0098-.0197-.0153-.0294l-7.2043-12.8077c-.2133-.4213-.5845-.8624-1.0371-1.3061-.463-.4537-1.0397-.9374-1.689-1.4369-1.2986-.9989-2.9183-2.0845-4.5663-3.1498-.8251-.5333-1.66-1.0632-2.4677-1.5759l-.0048-.0031c-.8067-.512-1.5857-1.0064-2.304-1.4718-1.0976-.7111-2.034-1.34215-2.7031-1.85465-.0803-.07547-.1627-.14808-.2473-.21774-.0971-.07996-.1966-.15563-.2987-.22705-.0041-.00369-.0083-.00737-.0124-.01104-.0384-.0341-.0805-.06123-.1249-.08146-.8883-.57537-1.9746-.84595-3.4117-.84595zm2.9338 1.72898c-.6976-.47343-1.5946-.7288-2.9324-.72898h-.0014l-17.5215.10013-.0029.00001c-2.8147 0-5.4467 1.59555-6.764 4.13215l-9.51106 19.2224-.00093.0019c-1.02964 2.0593-1.03394 4.6007.00385 6.7707.00388.0081.00754.0163.01097.0246l7.90687 19.1166c1.2175 2.6125 3.8355 4.2073 6.7521 4.2073h.0117v.0001l17.1178.4005c1.4013-.001 2.466-.3722 3.3445-1.0479.8917-.686 1.6264-1.7125 2.311-3.0819.0027-.0053.0055-.0107.0084-.0159l10.7105-19.6193c1.0257-2.0579 1.0286-4.5956-.0078-6.7627l-.002-.0043-9.1098-19.521c-.6266-1.2524-1.162-2.1547-1.8135-2.77935-.1896-.14617-.3606-.28486-.5104-.41506zm2.8574 2.04651c.1213.2273.242.463.3639.7067l.006.0121-.0001.0001 9.1106 19.5228.0011.0023c1.1642 2.436 1.1681 5.301-.0049 7.6471-.0027.0054-.0055.0107-.0084.016l-10.7106 19.6194c-.6569 1.3122-1.398 2.4081-2.3332 3.2091 4.1945-.6645 8.3642-1.6813 12.4133-3.003.8733-.4473 1.5781-1.2447 1.9305-2.1256.0025-.0065.0052-.0128.0081-.0192.0031-.007.0065-.014.0099-.0208l8.6094-17.0186c1.0316-2.1608 1.0332-4.6971.0047-6.8591l-7.2017-12.8031c-.002-.0036-.004-.0071-.0059-.0107s-.0038-.0072-.0056-.0108c-.1381-.2763-.4184-.6291-.8484-1.0506-.4238-.4154-.9666-.8721-1.5987-1.3584-1.2644-.9726-2.8554-2.04-4.4995-3.1027-.821-.5306-1.6524-1.0584-2.4607-1.5714l-.0071-.0045-.0005-.0004c-.8048-.5108-1.5869-1.0072-2.3091-1.4751-.1569-.1016-.3114-.2022-.4631-.3016z" fill="#050504" fill-rule="evenodd"/></svg>