<svg fill="none" height="72" viewBox="0 0 72 72" width="72" xmlns="http://www.w3.org/2000/svg"><g stroke="#050504" stroke-linecap="round" stroke-linejoin="round"><path d="m66.3919 38.4533c-.6008-5.1071-11.4158-27.1377-11.4158-27.1377-1.9027-3.50483-5.6078-5.70789-9.6134-5.80803h-18.4256c-4.0055 0-7.7107 2.20306-9.5132 5.80803 0 0-8.91234 16.4228-11.6161 26.5369"/><path d="m47.4659 13.719h-22.8317c-4.0056 0-7.7107 2.203-9.6133 5.808l-8.11131 15.4214c-1.70237 3.2045-1.70237 6.9096 0 10.1141l8.21141 15.5215c1.9026 3.5049 5.5076 5.8081 9.6133 5.8081h22.7316c4.0056 0 7.7107-2.203 9.6134-5.7079l8.1112-15.6217c1.7024-3.2045 1.7024-7.0097 0-10.1141l-8.1112-15.5215c-1.9027-3.5049-5.6078-5.8081-9.6134-5.7079z"/></g></svg>