<svg fill="none" height="72" viewBox="0 0 72 72" width="72" xmlns="http://www.w3.org/2000/svg"><path d="m25.3352 28.4395c0 5.9082 4.8066 10.815 10.815 10.815 6.0083 0 10.815-4.8066 10.815-10.815 0-6.0083-4.9068-10.7149-10.9151-10.7149-6.0084 0-10.7149 4.8067-10.7149 10.7149zm10.7149-23.23226c-13.1183 0-23.733 10.31436-23.733 23.03196-.1001 3.7052.8011 7.3102 2.6036 10.5146 4.1057 7.7107 21.1294 27.9388 21.1294 27.9388s17.0236-20.3282 21.2294-27.9388c1.8025-3.2044 2.7038-6.8094 2.6037-10.4144 0-12.8178-10.7149-23.13216-23.8331-23.13216z" stroke="currentColor" stroke-linecap="round" stroke-linejoin="round"/></svg>