<svg fill="none" height="72" viewBox="0 0 72 72" width="72" xmlns="http://www.w3.org/2000/svg"><path clip-rule="evenodd" d="m36.1502 5.10779c-.2761 0-.5.22386-.5.5 0 .06466.0123.12645.0346.18317-.0202.01527-.0398.03081-.0587.04631-.1185.0974-.2519.2295-.3941.38448-.2867.31253-.6458.75847-1.0488 1.31094-.8076 1.10702-1.812 2.66981-2.7928 4.51111-1.9548 3.67-3.8515 8.5132-3.8515 13.0904 0 4.5348 1.0978 7.0134 2.262 9.6421l.0215.0486c1.1528 2.603 2.3771 5.3918 2.7235 10.6539v.0006.0025.0026.0025.0026.0026.0027.0026.0027.0027.0027.0027.0028.0027.0028.0028.0029.0028.0029.0029.0029.003.0029.003.003.003.003.0031.0031.0031.0031.0031.0032.0031.0032.0032.0032.0033.0032.0033.0033.0033.0034.0033.0034.0034.0034.0034.0034.0035.0034.0035.0035.0036.0035.0036.0035.0036.0036.0036.0037.0036.0037.0037.0037.0037.0037.0037.0038.0038.0037.0038.0039.0038.0038.0039.0039.0038.0039.004.0039.0039.004.004.0039.004.004.0041.004.004.0041.0041.004.0041.0042.0041.0041.0041.0042.0042.0041.0042.0042.0043.0042.0042.0043.0042.0043.0043.0042.0043.0044.0043.0043.0043.0044.0043.0044.0044.0044.0044.0044.0044.0044.0045.0044.0044.0045.0045.0044.0045.0045.0045.0045.0045.0046.0045.0045.0046.0045.0046.0045.0046.0046.0046.0046.0046.0046.0046.0046.0046.0047.0046.0046.0047.0046.0047.0047.0046.0047.0047.0047.0047.0047.0047.0047.0047.0047.0047.0047.0047.0048.0047.0047.0048.0047.0047.0048.0047.0048.0048.0047.0048.0047.0048.0048.0047.0048.0048.0048.0047.0048.0048.0048.0048.0048.0047.0048.0048.0048.0048.0048.0048.0048.0048.0048.0047.0048.0048.0048.0048.0048.0048.0048.0048.0048.0047.0048.0048.0048.0048.0048.0047.0048.0048.0048.0047.0048.0048.0047.0048.0047.0048.0047.0048.0047.0048.0047.0048.0047.0047.0047.0048.0047.0047.0047.0047.0047.0047.0047.0047.0047.0046.0047.0047.0046.0047.0047.0046.0046.0047.0046.0046.0046.0047.0046.0046.0045.0046.0046.0046.0045.0046.0045.0046.0045.0046.0045.0045.0045.0045.0045.0045.0044.0045.0044.0045.0044.0045.0044.0044.0044.0044.0044.0043.0044.0044.0043.0043.0044.0043.0043.0043.0043.0042.0043.0043.0042.0042.0043.0042.0042.0041.0042.0042.0041.0042.0041.0041.0041.0041.0041.0041.004.0041.004.004.004.004.004.0039.004.0039.0039.004.0039.0038.0039.0039.0038.0038.0038.0038.0038.0038.0037.0038.0037.0037.0037.0037.0036.0037.0036.0036.0036.0036.0035.0036.0035.0035.0035.0035.0035.0034.0035.0034.0034.0033.0034.0034.0033.0033.0033.0032.0033.0032.0033.0032.0031.0032.0031.0032.0031.0031.003.0031.003.003.003.003.0029.003.0029.0029.0028.0029.0028.0028.0028.0028.0027.0027.0027.0027.0027.0026.0026.0026.0026.0026.0025.0025.0025.0024.0025.0024.0024.0024.0023.0024.0023.0022.0023.0022.0022.0022.0022.0021.0022.0021.002.0021.002.002.002.0019.0019.0019.0019.0018.0019.0017.0018.0018.0017.0017.0016.0017.0016.0016.0015.0016.0015.0015.0014.0015.0014.0013.0014.0013.0013.0013.0012.0012.0012.0012.0011.0011.0011.001.001.001.001.0009.0009.0009.0008.0008.0008.0008.0007.0007.0006.0007.0006.0006.0005.0005.0005.0005.0004.0004.0003.0004.0003.0002.0003.0002.0002.0001.0001.0001c0 .3173-.0477.4965-.0914.5784-.0035.0065-.0067.0119-.0094.0163-.0028-.0044-.006-.0098-.0095-.0163-.0437-.0819-.0914-.2611-.0914-.5783 0-5.4217-1.4415-8.6423-3.9242-11.5393-1.6473-1.9558-3.413-3.2593-5.3859-4.0693-1.969-.8085-4.1165-1.114-6.5111-1.114-2.9423 0-5.6645.8255-7.66198 2.4393-2.00895 1.6232-3.25253 4.0199-3.25253 7.0732 0 2.955 1.74103 5.6122 4.05055 7.5088 2.30976 1.8969 5.27246 3.1053 7.86526 3.1053.3267 0 .4742-.2532.517-.3521.0451-.1041.0609-.214.069-.2848.0147-.1285.0194-.2986.0241-.4669l.0024-.0855c.0124-.4197.037-.9324.1711-1.435.1329-.4986.3656-.9561.7734-1.2918.404-.3326 1.0341-.5902 2.0481-.5902 1.4837 0 3.0837 1.0429 4.3459 2.5721 1.2569 1.5228 2.0636 3.3915 2.0636 4.8389 0 .3602-.0992.5811-.2105.7056-.1069.1194-.2654.1964-.4911.1964h-2.8039c-.9863 0-1.6669.7215-1.7968 1.6309-.0033.0234-.005.0471-.005.0707v1.0014c0 .5242.2404.9114.6148 1.1402.1786.1091.3765.1758.5738.2144.0645.0304.1366.0474.2126.0474h12.3178v6.8101c0 .2762.2239.5.5.5.2762 0 .5-.2238.5-.5v-6.8101h11.3164c.0276 0 .0551-.0023.0822-.0068.7674-.1279 1.6195-.7811 1.6195-1.795v-.701c0-.4104-.0864-.8612-.4113-1.2064-.3299-.3506-.8135-.4953-1.3905-.4953h-2.6934c-.4813-.2444-.8122-.7454-.8122-1.3025 0-1.4436.8284-3.3115 2.0997-4.8371 1.2779-1.5334 2.878-2.5739 4.3099-2.5739 1.014 0 1.644.2576 2.048.5902.4079.3357.6405.7932.7735 1.2918.134.5026.1587 1.0153.1711 1.435l.0024.0855v.0003c.0047.1681.0094.3381.0241.4666.0081.0708.0239.1807.0689.2848.0428.0989.1904.3521.517.3521 2.5957 0 5.5587-1.2357 7.8666-3.1439 2.3067-1.9072 4.0493-4.5639 4.0493-7.4702 0-3.0533-1.2436-5.45-3.2525-7.0732-1.9975-1.6138-4.7197-2.4393-7.662-2.4393-2.3946 0-4.5421.3055-6.5112 1.114-1.9729.81-3.7386 2.1136-5.386 4.0694-2.4826 2.897-3.9241 6.1175-3.9241 11.5392 0 .3172-.0476.4964-.0913.5783-.0035.0065-.0067.0119-.0095.0163-.0012-.0019-.0024-.0039-.0038-.0062-.0018-.003-.0036-.0064-.0056-.0101-.0437-.0819-.0914-.2611-.0914-.5784v-.0001-.0001-.0001-.0002-.0002-.0003-.0002-.0003-.0004-.0003-.0004-.0004-.0005-.0005-.0005-.0005-.0006-.0006-.0007-.0006-.0007-.0007-.0008-.0008-.0008-.0008-.0009-.0009-.0009-.001-.001-.001-.001-.0011-.0011-.0011-.0012-.0012-.0012-.0012-.0013-.0013-.0013-.0014-.0013-.0014-.0015-.0014-.0015-.0015-.0016-.0015-.0016-.0016-.0017-.0016-.0017-.0017-.0018-.0018-.0017-.0019-.0018-.0019-.0019-.0019-.0019-.002-.002-.002-.0021-.002-.0021-.0022-.0021-.0022-.0022-.0022-.0022-.0023-.0022-.0023-.0024-.0023-.0024-.0024-.0024-.0025-.0024-.0025-.0025-.0025-.0026-.0026-.0026-.0026-.0026-.0027-.0027-.0027-.0027-.0027-.0028-.0028-.0028-.0028-.0029-.0028-.0029-.0029-.003-.0029-.003-.003-.003-.003-.0031-.003-.0031-.0031-.0032-.0031-.0032-.0031-.0032-.0033-.0032-.0033-.0032-.0033-.0033-.0033-.0034-.0034-.0033-.0034-.0034-.0035-.0034-.0035-.0035-.0035-.0035-.0035-.0036-.0035-.0036-.0036-.0036-.0036-.0037-.0036-.0037-.0037-.0037-.0037-.0038-.0037-.0038-.0038-.0038-.0038-.0038-.0038-.0039-.0039-.0038-.0039-.004-.0039-.0039-.004-.0039-.004-.004-.004-.004-.004-.0041-.004-.0041-.0041-.0041-.0041-.0041-.0041-.0042-.0041-.0042-.0042-.0041-.0042-.0042-.0043-.0042-.0042-.0043-.0043-.0042-.0043-.0043-.0043-.0043-.0044-.0043-.0043-.0044-.0044-.0043-.0044-.0044-.0044-.0044-.0044-.0045-.0044-.0045-.0044-.0045-.0044-.0045-.0045-.0045-.0045-.0045-.0045-.0046-.0045-.0046-.0045-.0046-.0045-.0046-.0046-.0046-.0045-.0046-.0046-.0047-.0046-.0046-.0046-.0047-.0046-.0046-.0047-.0047-.0046-.0047-.0047-.0046-.0047-.0047-.0047-.0047-.0047-.0047-.0047-.0047-.0047-.0048-.0047-.0047-.0047-.0048-.0047-.0048-.0047-.0048-.0047-.0048-.0047-.0048-.0047-.0048-.0048-.0047-.0048-.0048-.0048-.0047-.0048-.0048-.0048-.0048-.0048-.0047-.0048-.0048-.0048-.0048-.0048-.0048-.0048-.0048-.0048-.0047-.0048-.0048-.0048-.0048-.0048-.0048-.0048-.0048-.0048-.0047-.0048-.0048-.0048-.0048-.0048-.0047-.0048-.0048-.0048-.0047-.0048-.0048-.0047-.0048-.0047-.0048-.0048-.0047-.0048-.0047-.0047-.0048-.0047-.0047-.0048-.0047-.0047-.0047-.0047-.0047-.0047-.0047-.0047-.0047-.0047-.0047-.0047-.0046-.0047-.0047-.0046-.0047-.0046-.0046-.0047-.0046-.0046-.0046-.0046-.0046-.0046-.0046-.0046-.0046-.0045-.0046-.0045-.0046-.0045-.0045-.0046-.0045-.0045-.0045-.0045-.0045-.0044-.0045-.0045-.0044-.0044-.0045-.0044-.0044-.0044-.0044-.0044-.0044-.0044-.0043-.0044-.0043-.0043-.0043-.0044-.0043-.0042-.0043-.0043-.0042-.0043-.0042-.0042-.0043-.0042-.0042-.0041-.0042-.0042-.0041-.0041-.0041-.0042-.0041-.004-.0041-.0041-.004-.004-.0041-.004-.004-.0039-.004-.004-.0039-.0039-.004-.0039-.0038-.0039-.0039-.0038-.0038-.0039-.0038-.0037-.0038-.0038-.0037-.0037-.0037-.0037-.0037-.0037-.0036-.0037-.0036-.0036-.0036-.0035-.0036-.0035-.0036-.0035-.0035-.0034-.0035-.0034-.0034-.0034-.0034-.0034-.0033-.0034-.0033-.0033-.0033-.0032-.0033-.0032-.0032-.0032-.0031-.0032-.0031-.0031-.0031-.0031-.0031-.003-.003-.003-.003-.0029-.003-.0029-.0029-.0029-.0028-.0029-.0028-.0028-.0027-.0028-.0027-.0027-.0027-.0027-.0026-.0027-.0026-.0026-.0025-.0026-.0025-.0006c.3464-5.2621 1.5707-8.0509 2.7235-10.6539l.0215-.0486c1.1642-2.6287 2.2619-5.1073 2.2619-9.6421 0-4.5756-1.8704-9.4178-3.8001-13.088-.9681-1.8413-1.9599-3.40409-2.7579-4.51122-.3983-.5525-.7535-.99861-1.0375-1.31135-.1408-.15507-.2732-.28744-.3911-.38512-.0585-.0484-.1242-.09744-.1941-.13687-.0567-.032-.1773-.09385-.3304-.09385zm.6007 52.47291h11.4706c.4171-.0854.7472-.4248.7472-.8018v-.701c0-.2906-.0638-.4406-.1395-.521-.0706-.075-.238-.1807-.6623-.1807h-2.8039c-.0677 0-.1347-.0137-.197-.0404-.8742-.3747-1.5047-1.2497-1.5047-2.2621 0-1.7608.9741-3.8484 2.3315-5.4772 1.3508-1.621 3.2054-2.9338 5.0781-2.9338 1.1891 0 2.0612.3057 2.6836.8181.6186.5092.9367 1.1782 1.1041 1.8062.1664.6239.1919 1.2378.2044 1.6631l.0028.0941.0033.1143c2.2244-.1172 4.7849-1.208 6.8362-2.9041 2.1745-1.7979 3.6865-4.1982 3.6865-6.6995 0-2.7547-1.1097-4.8642-2.881-6.2953-1.7828-1.4404-4.2678-2.2172-7.0335-2.2172-2.3119 0-4.3201.2954-6.1313 1.039-1.8069.7419-3.4455 1.9414-5.0022 3.79l-.0028.0034c-2.3232 2.7103-3.685 5.6982-3.685 10.8902 0 .3837-.0524.7553-.209 1.0489-.1746.3274-.4819.5526-.8918.5526s-.7172-.2252-.8918-.5526c-.1566-.2936-.209-.6652-.209-1.049v-.0001-.0001-.0001-.0002-.0002-.0003-.0002-.0003-.0004-.0003-.0004-.0004-.0005-.0005-.0005-.0005-.0006-.0006-.0007-.0006-.0007-.0007-.0008-.0008-.0008-.0008-.0009-.0009-.0009-.001-.001-.001-.001-.0011-.0011-.0011-.0012-.0012-.0012-.0012-.0013-.0013-.0013-.0014-.0013-.0014-.0015-.0014-.0015-.0015-.0016-.0015-.0016-.0016-.0017-.0016-.0017-.0017-.0018-.0018-.0017-.0019-.0018-.0019-.0019-.0019-.0019-.002-.002-.002-.0021-.002-.0021-.0022-.0021-.0022-.0022-.0022-.0022-.0023-.0022-.0023-.0024-.0023-.0024-.0024-.0024-.0025-.0024-.0025-.0025-.0025-.0026-.0026-.0026-.0026-.0026-.0027-.0027-.0027-.0027-.0027-.0028-.0028-.0028-.0028-.0029-.0028-.0029-.0029-.003-.0029-.003-.003-.003-.003-.0031-.003-.0031-.0031-.0032-.0031-.0032-.0031-.0032-.0033-.0032-.0033-.0032-.0033-.0033-.0033-.0034-.0034-.0033-.0034-.0034-.0035-.0034-.0035-.0035-.0035-.0035-.0035-.0036-.0035-.0036-.0036-.0036-.0036-.0037-.0036-.0037-.0037-.0037-.0037-.0038-.0037-.0038-.0038-.0038-.0038-.0038-.0038-.0039-.0039-.0038-.0039-.004-.0039-.0039-.004-.0039-.004-.004-.004-.004-.004-.0041-.004-.0041-.0041-.0041-.0041-.0041-.0041-.0042-.0041-.0042-.0042-.0041-.0042-.0042-.0043-.0042-.0042-.0043-.0043-.0042-.0043-.0043-.0043-.0043-.0044-.0043-.0043-.0044-.0044-.0043-.0044-.0044-.0044-.0044-.0044-.0045-.0044-.0045-.0044-.0045-.0044-.0045-.0045-.0045-.0045-.0045-.0045-.0046-.0045-.0046-.0045-.0046-.0045-.0046-.0046-.0046-.0045-.0046-.0046-.0047-.0046-.0046-.0046-.0047-.0046-.0046-.0047-.0047-.0046-.0047-.0047-.0046-.0047-.0047-.0047-.0047-.0047-.0047-.0047-.0047-.0047-.0048-.0047-.0047-.0047-.0048-.0047-.0048-.0047-.0048-.0047-.0048-.0047-.0048-.0047-.0048-.0048-.0047-.0048-.0048-.0048-.0047-.0048-.0048-.0048-.0048-.0048-.0047-.0048-.0048-.0048-.0048-.0048-.0048-.0048-.0048-.0048-.0047-.0048-.0048-.0048-.0048-.0048-.0048-.0048-.0048-.0048-.0047-.0048-.0048-.0048-.0048-.0048-.0047-.0048-.0048-.0048-.0047-.0048-.0048-.0047-.0048-.0047-.0048-.0048-.0047-.0048-.0047-.0047-.0048-.0047-.0047-.0048-.0047-.0047-.0047-.0047-.0047-.0047-.0047-.0047-.0047-.0047-.0047-.0047-.0046-.0047-.0047-.0046-.0047-.0046-.0046-.0047-.0046-.0046-.0046-.0046-.0046-.0046-.0046-.0046-.0046-.0045-.0046-.0045-.0046-.0045-.0045-.0046-.0045-.0045-.0045-.0045-.0045-.0044-.0045-.0045-.0044-.0044-.0045-.0044-.0044-.0044-.0044-.0044-.0044-.0044-.0043-.0044-.0043-.0043-.0043-.0044-.0043-.0042-.0043-.0043-.0042-.0043-.0042-.0042-.0043-.0042-.0042-.0041-.0042-.0042-.0041-.0041-.0041-.0042-.0041-.004-.0041-.0041-.004-.004-.0041-.004-.004-.0039-.004-.004-.0039-.0039-.004-.0039-.0038-.0039-.0039-.0038-.0038-.0039-.0038-.0037-.0038-.0038-.0037-.0037-.0037-.0037-.0037-.0037-.0036-.0037-.0036-.0036-.0036-.0035-.0036-.0035-.0036-.0035-.0035-.0034-.0035-.0034-.0034-.0034-.0034-.0034-.0033-.0034-.0033-.0033-.0033-.0032-.0033-.0032-.0032-.0032-.0031-.0032-.0031-.0031-.0031-.0031-.0031-.003-.003-.003-.003-.0029-.003-.0029-.0029-.0029-.0028-.0029-.0028-.0028-.0027-.0028-.0027-.0027-.0027-.0027-.0026-.0027-.0026-.0026-.0025-.0026-.0025-.0025-.0024-.0025-.0024-.0024-.0024-.0023c0-.0109.0003-.0218.001-.0327.3561-5.4422 1.6339-8.3583 2.8081-11.0099l.0211-.0474c1.1476-2.5913 2.1767-4.915 2.1767-9.2383 0-4.3367-1.7846-9.0077-3.6852-12.6227-.9471-1.8012-1.9143-3.32399-2.684-4.39175-.3319-.46039-.6233-.83096-.8574-1.10073-.0442.03065-.0937.05436-.1467.06953-.0071.00539-.0161.01238-.0269.02128-.0671.05511-.1647.14901-.2923.28798-.2526.2754-.5875.68925-.9778 1.22423-.779 1.06788-1.7586 2.59066-2.718 4.39186-1.9255 3.6151-3.7341 8.2852-3.7341 12.6203 0 4.3233 1.0292 6.647 2.1768 9.2382l.021.0475c1.1743 2.6516 2.4521 5.5677 2.8081 11.0099.0007.0109.0011.0218.0011.0327v.0023.0024.0024.0024.0025.0024.0025.0025.0026.0025.0026.0026.0027.0026.0027.0027.0027.0027.0028.0027.0028.0028.0029.0028.0029.0029.0029.003.0029.003.003.003.003.0031.0031.0031.0031.0031.0032.0031.0032.0032.0032.0033.0032.0033.0033.0033.0034.0033.0034.0034.0034.0034.0034.0035.0034.0035.0035.0036.0035.0036.0035.0036.0036.0036.0037.0036.0037.0037.0037.0037.0037.0037.0038.0038.0037.0038.0039.0038.0038.0039.0039.0038.0039.004.0039.0039.004.004.0039.004.004.0041.004.004.0041.0041.004.0041.0042.0041.0041.0041.0042.0042.0041.0042.0042.0043.0042.0042.0043.0042.0043.0043.0042.0043.0044.0043.0043.0043.0044.0043.0044.0044.0044.0044.0044.0044.0044.0045.0044.0044.0045.0045.0044.0045.0045.0045.0045.0045.0046.0045.0045.0046.0045.0046.0045.0046.0046.0046.0046.0046.0046.0046.0046.0046.0047.0046.0046.0047.0046.0047.0047.0046.0047.0047.0047.0047.0047.0047.0047.0047.0047.0047.0047.0047.0048.0047.0047.0048.0047.0047.0048.0047.0048.0048.0047.0048.0047.0048.0048.0047.0048.0048.0048.0047.0048.0048.0048.0048.0048.0047.0048.0048.0048.0048.0048.0048.0048.0048.0048.0047.0048.0048.0048.0048.0048.0048.0048.0048.0048.0047.0048.0048.0048.0048.0048.0047.0048.0048.0048.0047.0048.0048.0047.0048.0047.0048.0047.0048.0047.0048.0047.0048.0047.0047.0047.0048.0047.0047.0047.0047.0047.0047.0047.0047.0047.0046.0047.0047.0046.0047.0047.0046.0046.0047.0046.0046.0046.0047.0046.0046.0045.0046.0046.0046.0045.0046.0045.0046.0045.0046.0045.0045.0045.0045.0045.0045.0044.0045.0044.0045.0044.0045.0044.0044.0044.0044.0044.0043.0044.0044.0043.0043.0044.0043.0043.0043.0043.0042.0043.0043.0042.0042.0043.0042.0042.0041.0042.0042.0041.0042.0041.0041.0041.0041.0041.0041.004.0041.004.004.004.004.004.0039.004.0039.0039.004.0039.0038.0039.0039.0038.0038.0038.0038.0038.0038.0037.0038.0037.0037.0037.0037.0036.0037.0036.0036.0036.0036.0035.0036.0035.0035.0035.0035.0035.0034.0035.0034.0034.0033.0034.0034.0033.0033.0033.0032.0033.0032.0033.0032.0031.0032.0031.0032.0031.0031.003.0031.003.003.003.003.0029.003.0029.0029.0028.0029.0028.0028.0028.0028.0027.0027.0027.0027.0027.0026.0026.0026.0026.0026.0025.0025.0025.0024.0025.0024.0024.0024.0023.0024.0023.0022.0023.0022.0022.0022.0022.0021.0022.0021.002.0021.002.002.002.0019.0019.0019.0019.0018.0019.0017.0018.0018.0017.0017.0016.0017.0016.0016.0015.0016.0015.0015.0014.0015.0014.0013.0014.0013.0013.0013.0012.0012.0012.0012.0011.0011.0011.001.001.001.001.0009.0009.0009.0008.0008.0008.0008.0007.0007.0006.0007.0006.0006.0005.0005.0005.0005.0004.0004.0003.0004.0003.0002.0003.0002.0002.0001.0001.0001c0 .3838-.0524.7554-.209 1.049-.1747.3274-.4819.5526-.8918.5526s-.7172-.2252-.8918-.5526c-.1566-.2936-.2091-.6652-.2091-1.0489 0-5.192-1.3618-8.1799-3.6849-10.8902l-.0028-.0033v-.0001c-1.5567-1.8486-3.1953-3.0481-5.0022-3.79-1.8112-.7436-3.8195-1.039-6.1313-1.039-2.7657 0-5.2507.7768-7.03352 2.2172-1.7713 1.4311-2.88099 3.5406-2.88099 6.2953 0 2.5527 1.51349 4.9526 3.68521 6.736 2.0496 1.6833 4.6106 2.7531 6.8374 2.8678l.0034-.1144.0027-.0942c.0126-.4253.0381-1.0392.2044-1.6631.1675-.628.4856-1.297 1.1042-1.8062.6224-.5124 1.4945-.8181 2.6836-.8181 1.9209 0 3.7757 1.3104 5.1171 2.9356 1.3468 1.6316 2.2924 3.7184 2.2924 5.4754 0 .5411-.1511 1.0212-.4653 1.3724-.3187.3562-.7611.5296-1.2363.5296h-2.8039c-.4065 0-.7223.2675-.8018.74v.963c0 .102.0212.1596.0395.1923s.047.0642.0967.0946c.1123.0686.3058.1144.5654.1144.009 0 .0179.0002.0267.0007h12.1905c.0836-.0629.1876-.1002.3002-.1002.1127 0 .2166.0373.3003.1002z" fill="currentColor" fill-rule="evenodd"/></svg>