<svg fill="none" height="72" viewBox="0 0 72 72" width="72" xmlns="http://www.w3.org/2000/svg" xmlns:xlink="http://www.w3.org/1999/xlink"><mask id="a" fill="#fff"><path clip-rule="evenodd" d="m65 36c0 16.0163-12.9837 29-29 29s-29-12.9837-29-29 12.9837-29 29-29 29 12.9837 29 29zm1 0c0 16.5685-13.4315 30-30 30s-30-13.4315-30-30 13.4315-30 30-30 30 13.4315 30 30zm-30.5 12c-.8284 0-1.5.6716-1.5 1.5s.6716 1.5 1.5 1.5 1.5-.6716 1.5-1.5-.6716-1.5-1.5-1.5z" fill="#fff" fill-rule="evenodd"/></mask><path clip-rule="evenodd" d="m65 36c0 16.0163-12.9837 29-29 29s-29-12.9837-29-29 12.9837-29 29-29 29 12.9837 29 29zm1 0c0 16.5685-13.4315 30-30 30s-30-13.4315-30-30 13.4315-30 30-30 30 13.4315 30 30zm-30.5 12c-.8284 0-1.5.6716-1.5 1.5s.6716 1.5 1.5 1.5 1.5-.6716 1.5-1.5-.6716-1.5-1.5-1.5z" fill="#050504" fill-rule="evenodd"/><path d="m36 66c16.5685 0 30-13.4315 30-30h-2c0 15.464-12.536 28-28 28zm-30-30c0 16.5685 13.4315 30 30 30v-2c-15.464 0-28-12.536-28-28zm30-30c-16.5685 0-30 13.4315-30 30h2c0-15.464 12.536-28 28-28zm30 30c0-16.5685-13.4315-30-30-30v2c15.464 0 28 12.536 28 28zm-30 31c17.1208 0 31-13.8792 31-31h-2c0 16.0163-12.9837 29-29 29zm-31-31c0 17.1208 13.8792 31 31 31v-2c-16.0163 0-29-12.9837-29-29zm31-31c-17.1208 0-31 13.8792-31 31h2c0-16.0163 12.9837-29 29-29zm31 31c0-17.1208-13.8792-31-31-31v2c16.0163 0 29 12.9837 29 29zm-32 13.5c0-.2761.2239-.5.5-.5v-2c-1.3807 0-2.5 1.1193-2.5 2.5zm.5.5c-.2761 0-.5-.2239-.5-.5h-2c0 1.3807 1.1193 2.5 2.5 2.5zm.5-.5c0 .2761-.2239.5-.5.5v2c1.3807 0 2.5-1.1193 2.5-2.5zm-.5-.5c.2761 0 .5.2239.5.5h2c0-1.3807-1.1193-2.5-2.5-2.5z" fill="#050504" mask="url(#a)"/><path d="m28.5 26.4093c.735-1.5628 2.6007-3.5163 3.788-4.186.3392-.2233.848-.2233 1.1307-.2233h6.6149c.3957 0 .9046.0558 1.3003.2791.9612.5581 2.3746 2.0093 2.94 3.1256.1696.3906.2261.8372.2261 1.2279l-.0565 3.7953c0 1.3954-.8481 2.5674-1.9788 3.1814l-3.6749 2.0651c-2.0354 1.0605-3.3357 2.5675-3.3357 4.6884v3.6372" stroke="#050504"/></svg>