<svg fill="none" height="72" viewBox="0 0 72 72" width="72" xmlns="http://www.w3.org/2000/svg"><path clip-rule="evenodd" d="m35.9389 24.1422c-.0599-.0108-.1213-.0107-.1811.0005l-31.04311 5.8081c-.23543.0441-.40655.2489-.40804.4884s.16707.4464.40193.4934l12.21552 2.4431v10.4852c0 .1878.0986.3118.1345.3534.0456.0529.0944.0906.127.1138.0673.0479.1465.0903.2205.1265.153.0747.3634.1607.6129.2547.503.1893 1.2144.4291 2.0598.6996 1.6932.5419 3.9515 1.2162 6.2186 1.8738 2.2678.6578 4.5483 1.3 6.2874 1.7778.8693.2389 1.6047.4371 2.1361.5757.2654.0693.4822.1243.6402.1622.0786.0189.146.0343.1989.0453l.0052.0011c.0324.0068.1133.0238.1844.0238.0721 0 .154-.0175.1862-.0244l.0052-.0012c.0531-.0112.1206-.027.1992-.0462.1581-.0387.3749-.0947.6402-.1652.5314-.1412 1.2668-.3429 2.136-.5857 1.739-.4857 4.0191-1.1371 6.2866-1.8011 2.2669-.6638 4.5242-1.3409 6.2162-1.8777.845-.2681 1.5546-.5029 2.0553-.6845.2486-.0901.4558-.1707.6051-.2382.0722-.0327.1475-.0696.2108-.1096.0299-.0188.0773-.0508.1232-.0961l.001-.001c.0259-.0256.1604-.1584.1604-.3768v-10.4683l5.9773-1.2911.0291.0024-.0954 13.0719-2.9846 3.466c-.1275.1481-.1571.3569-.0756.5346s.259.2916.4545.2916h1.0014 4.6064c.1861 0 .3568-.1033.4431-.2683.0862-.1649.0737-.364-.0324-.5169l-2.413-3.4747.0973-13.3293 5.3152-1.1481c.2332-.0503.3983-.2585.3944-.4971-.004-.2385-.176-.441-.4108-.4836zm24.5478 6.9504 3.7391-.8077-28.3746-5.1423-28.41323 5.316 9.98413 1.9969c.0974.0194.1824.066.2489.1302l18.0786 3.6552 18.2081-3.6814c.0596-.0491.1314-.085.2121-.1025l2.9609-.6395-21.4225-1.7782c-.2752-.0228-.4798-.2644-.4569-.5396.0228-.2752.2644-.4798.5396-.457zm-24.7371 7.8622c.2761 0 .5.2239.5.5v7.0097c0 .2762-.2239.5-.5.5-.2762 0-.5-.2238-.5-.5v-7.0097c0-.2761.2238-.5.5-.5zm23.2211 9.5132h3.5614l-1.5899-2.2895zm-41.0466-14.8109v9.9358c.1083.0486.2572.109.4472.1805.4788.1803 1.1709.4139 2.0123.6831 1.6801.5377 3.9281 1.2091 6.1923 1.8658 2.2634.6565 4.5393 1.2974 6.2738 1.774.8675.2383 1.5982.4352 2.1237.5723.2631.0687.4725.1218.6211.1574.0656.0158.1168.0275.1543.0355.0373-.0081.0883-.0201.1538-.0361.1485-.0363.3579-.0904.621-.1603.5255-.1396 1.2563-.3401 2.1238-.5823 1.7347-.4845 4.0108-1.1348 6.2746-1.7977 2.2644-.6631 4.5134-1.3378 6.1948-1.8712.8417-.2671 1.5357-.497 2.0168-.6714.1843-.0668.3316-.1234.4414-.1692v-9.9162l-17.7263 3.584c-.0654.0133-.1328.0133-.1982 0z" fill="#050504" fill-rule="evenodd"/></svg>