<svg fill="none" height="72" viewBox="0 0 72 72" width="72" xmlns="http://www.w3.org/2000/svg"><path clip-rule="evenodd" d="m64.3535 8.35355c.1953-.19526.1953-.51184 0-.7071-.1952-.19527-.5118-.19527-.7071 0l-19.6464 19.64645v-16.7929c0-.2761-.2239-.5-.5-.5s-.5.2239-.5.5v18c0 .2761.2239.5.5.5h18c.2761 0 .5-.2239.5-.5s-.2239-.5-.5-.5h-16.7929zm-56.70705 55.29285c-.19526.1953-.19526.5119 0 .7072.19526.1952.51184.1952.7071 0l19.64645-19.6465v16.7929c0 .2761.2239.5.5.5s.5-.2239.5-.5v-18c0-.2762-.2239-.5-.5-.5h-18c-.2761 0-.5.2238-.5.5 0 .2761.2239.5.5.5h16.7929z" fill="#050504" fill-rule="evenodd"/></svg>