<svg fill="none" height="72" viewBox="0 0 72 72" width="72" xmlns="http://www.w3.org/2000/svg"><path clip-rule="evenodd" d="m35.9757 6.21986c-16.3423 0-29.59032 13.24804-29.59032 29.59034s13.24802 29.5904 29.59032 29.5904c16.3424 0 29.5904-13.2481 29.5904-29.5904s-13.248-29.59034-29.5904-29.59034zm-30.59032 29.59034c0-16.8946 13.69572-30.59034 30.59032-30.59034s30.5904 13.69574 30.5904 30.59034-13.6958 30.5904-30.5904 30.5904-30.59032-13.6958-30.59032-30.5904zm30.59032-25.93859c.2762 0 .5.22389.5.49999v26.0809.0006l14.8991 9.869c.2303.1525.2933.4627.1408.6929s-.4628.2933-.693.1408l-15.1619-10.0431c-.2052-.1359-.2776-.3971-.183-.6152-.0013-.0148-.002-.0298-.002-.045v-26.0809c0-.2761.2239-.49999.5-.49999z" fill="#050504" fill-rule="evenodd"/></svg>