<svg fill="none" height="72" viewBox="0 0 72 72" width="72" xmlns="http://www.w3.org/2000/svg"><path clip-rule="evenodd" d="m63.4999 8.33247c0-.20267-.1223-.3853-.3098-.4624-.1874-.07711-.4028-.03343-.5455.11059l-54.20019 54.73424c-.14198.1434-.18386.358-.10618.5443.07767.1862.25968.3075.46147.3075h54.2002c.2762 0 .5-.2239.5-.5zm-33.5735 54.23423h-3.806v-3.149c0-.2761-.2238-.5-.5-.5-.2761 0-.5.2239-.5.5v3.149h-5.0518v-3.149c0-.2761-.2239-.5-.5-.5-.2762 0-.5.2239-.5.5v3.149h-9.07012l52.50142-53.0187v53.0187h-3.8059v-3.149c0-.2761-.2238-.5-.5-.5-.2761 0-.5.2239-.5.5v3.149h-5.0519v-3.149c0-.2761-.2239-.5-.5-.5s-.5.2239-.5.5v3.149h-3.8059v-5.5519c0-.2762-.2239-.5-.5-.5s-.5.2238-.5.5v5.5519h-5.0519v-3.149c0-.2761-.2239-.5-.5-.5-.2762 0-.5.2239-.5.5v3.149h-3.806v-3.149c0-.2761-.2238-.5-.5-.5-.2761 0-.5.2239-.5.5v3.149h-5.0519v-5.5519c0-.2762-.2239-.5-.5-.5s-.5.2238-.5.5zm24.8086-30.5781c.1876.0771.3101.2598.3101.4625v14.9518c0 .2762-.2239.5-.5.5h-14.7738c-.2017 0-.3837-.1211-.4614-.3073-.0777-.1861-.0361-.4006.1057-.5441l14.7738-14.9518c.1425-.1442.358-.1881.5456-.1111zm-13.7668 14.9143h13.0769v-13.2344z" fill="currentColor" fill-rule="evenodd"/></svg>