<svg fill="none" height="72" viewBox="0 0 72 72" width="72" xmlns="http://www.w3.org/2000/svg"><g stroke="currentColor" stroke-linecap="round" stroke-linejoin="round"><path d="m59.783 13.3185-23.032-7.91097c-.5007-.20028-1.0013-.20028-1.502 0l-23.032 7.91097c-1.0014.3004-1.6023 1.2017-1.6023 2.2031v26.0361c0 1.5021.3005 3.0042.9013 4.4062 6.509 13.8192 23.6328 21.1293 23.6328 21.1293.2003.1001.5007.1001.8011.1001h.8011c.2003 0 .5007 0 .701-.1001 0 0 16.6231-7.3101 22.9319-21.2295.6008-1.3018.9012-2.8039.9012-4.2058v-26.0362c.1002-1.0014-.6008-1.9026-1.5021-2.3032z"/><path d="m44.3617 30.8428h-16.7233v13.619h16.7233z"/><path d="m31.4437 30.8428v-3.3046c0-2.3032 1.9027-4.2058 4.2059-4.2058h.5007c2.3032 0 4.2058 1.9026 4.2058 4.2058v3.3046"/></g></svg>