<svg fill="none" height="72" viewBox="0 0 72 72" width="72" xmlns="http://www.w3.org/2000/svg"><path clip-rule="evenodd" d="m22.8412 10.505c3.6434-2.82505 8.2132-4.50234 13.1588-4.50234 4.9275 0 9.4823 1.68256 13.1195 4.50234zm-1.1867.99c-4.3886 3.9351-7.1595 9.6528-7.1595 16.0433v1.9667h3.7279.0025.0024 3.7722c.2734 0 .495.2216.495.495v20c0 .2734-.2216.495-.495.495h-3.2796v1.9779c0 6.7344 4.8229 12.2064 11.4272 12.4167v-1.101c0-.2734.2216-.495.495-.495h6.2086c.2734 0 .495.2216.495.495v3.5049c0 .2733-.2216.495-.495.495h-6.2086c-.2734 0-.495-.2217-.495-.495v-1.4134c-7.2097-.211-12.4172-6.1866-12.4172-13.4072v-1.9779h-3.7304c-.2734 0-.495-.2216-.495-.495v-5.505h-2.505c-.2734 0-.495-.2216-.495-.495v-12c0-.2734.2216-.495.495-.495h2.505v-1.505-2.4617c0-12.4912 10.1224-22.52564 22.495-22.52564 5.6449 0 10.8209 2.1094 14.7811 5.57984.0321.0222.0614.048.0874.077 4.6703 4.1352 7.6265 10.1728 7.6265 16.8688v3.9667h2.505c.2734 0 .495.2216.495.495v12c0 .2734-.2216.495-.495.495h-3c-.2734 0-.495-.2216-.495-.495v-5.847-6.153-4.4617c0-6.3561-2.7874-12.0922-7.1982-16.0433zm36.8405 26.658v5.352h2.01v-11.01h-2.01zm-44 0v11.352h3.2354v-.7373-18.2727h-3.2354zm4.2254 11.352v-.7373-18.2727h2.7846v19.01zm-7.2254-6v-11.01h2.01v11.01zm19.6426 20.7786v2.5149h5.2186v-2.5149z" fill="#050504" fill-rule="evenodd"/></svg>