<svg fill="none" height="72" viewBox="0 0 72 72" width="72" xmlns="http://www.w3.org/2000/svg"><path d="m12.1018 54.7432c.9209-2.0019 1.8118-3.8838 2.7427-5.7856.2702-.4705.2702-1.041 0-1.5115-.7808-1.5815-1.4214-3.2331-2.1922-4.8247-.2002-.4604-.5505-.8408-1.0009-1.081-1.87186-.6907-3.66361-1.3113-5.56546-1.8918-.51049-.0801-.85082-.5606-.77074-1.0611 0-.01 0-.02 0-.03 0-1.8118.06005-3.6335 0-5.4453-.15015-.6907.28027-1.3613.97094-1.5115.03003-.01.06006-.01.09009-.02 1.79174-.5305 3.56346-1.1711 5.30517-1.8318.4004-.1902.7107-.5205.9009-.9209.8007-1.6215 1.5114-3.2932 2.3222-4.9047.2603-.4305.2603-.971 0-1.4014-.8708-1.7317-1.6816-3.5034-2.5324-5.2551-.2503-.3704-.1702-.8809.1901-1.1511 1.4114-1.3513 2.8028-2.7327 4.1441-4.1441.3203-.3903.8808-.4904 1.3112-.2202 1.7117.8609 3.4234 1.7017 5.1751 2.4724.4504.1702.9509.1702 1.4013 0 1.6617-.6106 3.3032-1.2812 4.9248-2.0019.4004-.1802.7307-.5005.9309-.8909.7007-1.73167 1.2913-3.5134 2.002-5.24508.1902-.35034.5205-.59058.9109-.66064 2.0019-.06006 4.0039 0 6.0058 0 .4805-.07007.9209.26025 1.001.73071.5906 1.74169 1.2011 3.47337 1.8918 5.18501.2202.4104.5706.7407 1.001.9209 1.6516.7107 3.3332 1.3714 5.0049 2.002.3903.1401.8208.1401 1.2111 0 2.002-.9009 3.9339-1.8618 5.8757-2.7927 1.6517 1.6315 3.2832 3.2031 4.8448 4.8246.1701.3304.1701.7308 0 1.0611-.8108 1.8017-1.7017 3.5734-2.5225 5.3752-.1301.3604-.1301.7407 0 1.1011.6206 1.6916 1.2712 3.3733 2.0019 5.0048.2002.4405.5606.8008 1.001 1.001 1.6616.6907 3.3633 1.2913 5.075 1.8919.4804.08.8007.5205.7507 1.0009-.04 2.002-.04 4.0039 0 6.0059 0 .6005-.2402.8108-.7708 1.0009-1.6716.5806-3.3232 1.2312-5.0048 1.8118-.5506.1702-.971.6206-1.1011 1.1811-.5405 1.6416-1.2312 3.2432-1.8018 4.8848-.1501.4204-.1501.8909 0 1.3113.7908 1.7817 1.6316 3.5334 2.5025 5.2751.2502.3704.1701.8809-.1902 1.1511-1.5715 1.5415-3.113 3.103-4.7046 4.7046-2.0019-.9309-3.9338-1.8918-5.9257-2.7627-.4505-.1401-.9309-.1201-1.3714.0601-1.6416.6606-3.2732 1.3613-4.8747 2.122-.4605.2002-.8408.5606-1.0711 1.001-.6906 1.8118-1.3012 3.6536-1.9018 5.5054-.0801.4504-.4905.7507-.9409.6906-2.002 0-4.0039 0-6.0059 0-.4804.0601-.9208-.2702-1.0009-.7507-.6206-1.8718-1.2713-3.7436-2.002-5.5954-.1401-.3604-.4104-.6507-.7507-.8309-1.6917-.7907-3.4133-1.5615-5.145-2.2722-.4204-.1501-.8809-.1501-1.3013 0-1.7817.7808-3.5134 1.6617-5.2851 2.4524-.3303.1301-.7007.1001-1.001-.0801-1.5415-1.6315-3.133-3.2431-4.7546-4.8547zm24.3236-6.8266c6.7766-.0401 12.2319-5.5654 12.1819-12.342-.0401-6.7766-5.5654-12.2319-12.342-12.1819-6.7766.0501-12.2319 5.5655-12.1819 12.342.0501 6.7766 5.5655 12.2219 12.342 12.1819z" stroke="currentColor" stroke-miterlimit="10"/></svg>