<svg fill="none" height="72" viewBox="0 0 72 72" width="72" xmlns="http://www.w3.org/2000/svg"><path clip-rule="evenodd" d="m39.8896 10.4736c.1634.0868.2655.2566.2655.4416v20.5285 6.8094 20.5285c0 .185-.1021.3548-.2655.4416-.1633.0868-.3612.0763-.5145-.0273l-18.3989-12.4316h-15.76899c-.27614 0-.5-.2239-.5-.5v-11.4159-11.4159c0-.2761.22386-.5.5-.5h15.76899l18.3989-12.4316c.1533-.1036.3512-.1141.5145-.0273zm-.7345 27.7795v-6.8094-19.5873l-17.3254 11.7064v22.5712l17.3254 11.7064zm-18.3254-14.3206h-15.12249v10.9159 10.9159h15.12249zm39.119-7.6502c-.1883-.2021-.5046-.2133-.7067-.0251s-.2133.5046-.0251.7067c9.3335 10.0212 9.3358 25.5469-.0017 35.6707-.1872.203-.1744.5193.0286.7065s.5193.1744.7065-.0285c9.689-10.5049 9.6912-26.6232-.0016-37.0303zm-8.7091 9.9171c-.1864-.2038-.5027-.2178-.7064-.0314-.2038.1864-.2178.5026-.0314.7064 4.1311 4.5155 4.1311 11.3324 0 15.8479-.1864.2037-.1724.52.0314.7064.2037.1864.52.1724.7064-.0314 4.4807-4.8976 4.4807-12.3003 0-17.1979z" fill="currentColor" fill-rule="evenodd"/></svg>