<svg fill="none" height="72" viewBox="0 0 72 72" width="72" xmlns="http://www.w3.org/2000/svg"><path clip-rule="evenodd" d="m40.2858 9.98188c.1599.08512.2598.25142.2598.43262v20.7288 7.0097 20.7288c0 .1811-.0999.3475-.2598.4326s-.3537.075-.504-.0263l-18.6018-12.5338h-15.87262c-.27062 0-.49-.2194-.49-.49v-11.6162-11.6161c0-.2706.21938-.49.49-.49h15.87262l18.6018-12.5339c.1503-.10121.3441-.1113.504-.02622zm-.7202 28.17112v-7.0097-19.8078l-17.5457 11.8222v22.9808l17.5457 11.8223zm-18.5257-14.631h-15.24252v11.1261 11.1262h15.24252zm28.784 1.6759c-.1864-.1961-.4966-.204-.6927-.0176-.1962.1864-.2041.4965-.0177.6927l8.2912 8.7251-8.2912 8.725c-.1864.1962-.1785.5063.0177.6927.1961.1865.5063.1786.6927-.0176l8.2568-8.6888 8.2567 8.6888c.1864.1962.4966.2041.6928.0176.1961-.1864.204-.4965.0176-.6927l-8.2912-8.725 8.2912-8.7251c.1864-.1962.1785-.5063-.0176-.6927-.1962-.1864-.5064-.1785-.6928.0176l-8.2567 8.6888z" fill="#050504" fill-rule="evenodd"/></svg>