<svg fill="none" height="72" viewBox="0 0 72 72" width="72" xmlns="http://www.w3.org/2000/svg"><path clip-rule="evenodd" d="m9.1001 8.5c-.27614 0-.5.22386-.5.5v53.9199c0 .2761.22386.5.5.5h53.9199c.2761 0 .5-.2239.5-.5v-53.9199c0-.27614-.2239-.5-.5-.5zm.5 53.9199v-52.9199h52.9199v52.9199zm16.1009-39.586c-.2236-.1253-.5057-.0613-.6533.1483-.1475.2095-.1128.4967.0806.665l14.6526 12.7548-14.791 12.7048c-.1943.167-.2311.4538-.0851.6643s.4275.2766.652.1531l23.6719-13.0288c.1591-.0876.2582-.2546.2589-.4362s-.0971-.3493-.2555-.4381zm15.1726 13.1935-11.4305-9.9501 18.5147 10.3761-18.6564 10.2683 11.5697-9.9379c.1101-.0946.1737-.2325.1742-.3777s-.0622-.2834-.1717-.3787z" fill="currentColor" fill-rule="evenodd"/></svg>