<svg fill="none" height="72" viewBox="0 0 72 72" width="72" xmlns="http://www.w3.org/2000/svg"><path clip-rule="evenodd" d="m5 13.615c0-.3397.27534-.615.615-.615h60.7724c.3397 0 .615.2753.615.615v43.8905c0 .3397-.2753.615-.615.615h-60.7724c-.33966 0-.615-.2753-.615-.615zm49.9202 29.2604c0-.3397.2754-.615.615-.615h7.3006c.3397 0 .615.2753.615.615 0 .3396-.2753.615-.615.615h-7.3006c-.3396 0-.615-.2754-.615-.615zm-44.3724 9.1714c-.3396 0-.61497.2753-.61497.615 0 .3396.27537.615.61497.615h6.0181c.3396 0 .615-.2754.615-.615 0-.3397-.2754-.615-.615-.615zm13.3187 0c-.3397 0-.615.2753-.615.615 0 .3396.2753.615.615.615h38.9693c.3396 0 .615-.2754.615-.615 0-.3397-.2754-.615-.615-.615zm-13.3187-9.7864c-.3396 0-.61497.2753-.61497.615 0 .3396.27537.615.61497.615h37.6868c.3397 0 .615-.2754.615-.615 0-.3397-.2753-.615-.615-.615zm-4.3178 14.6301v-42.6605h59.5424v42.6605z" fill="currentColor" fill-rule="evenodd"/></svg>