<svg fill="none" height="72" viewBox="0 0 72 72" width="72" xmlns="http://www.w3.org/2000/svg"><path d="m33.0001 66.2h-19.8v-46.2h23.4m6.2 7.8v11.8m-9.8 22.01h-19.8m17.1 2.29c0 .1978-.0587.3911-.1686.5556-.1098.1644-.266.2926-.4487.3683-.1828.0757-.3838.0955-.5778.0569s-.3722-.1338-.512-.2737c-.1399-.1398-.2351-.318-.2737-.512s-.0188-.3951.0569-.5778.2039-.3389.3683-.4488c.1645-.1099.3578-.1685.5556-.1685.2652 0 .5195.1054.7071.2929.1875.1875.2929.4419.2929.7071z" stroke="#050504" stroke-linecap="round" stroke-linejoin="round"/><path d="m54.1001 5.19995c1.351.00527 2.6451.54428 3.6004 1.49958.9553.95529 1.4943 2.24944 1.4996 3.60047v10.5c-.0053 1.3509-.5443 2.6451-1.4996 3.6004s-2.2494 1.4943-3.6004 1.4996h-10.3c-1.351-.0053-2.6452-.5443-3.6005-1.4996s-1.4943-2.2495-1.4995-3.6004v-10.5c.0052-1.35103.5442-2.64518 1.4995-3.60047.9553-.9553 2.2495-1.49431 3.6005-1.49958z" stroke="#050504" stroke-miterlimit="10"/><path d="m47.2001 15.2-3.1-5.2 5.3 5.2-5.3 5.2z" fill="#050504"/><path d="m49.4001 15.2 5.2-5.2-3 5.2 3 5.2z" fill="#050504"/><g stroke="#050504" stroke-linecap="round" stroke-linejoin="round"><path d="m37.2001 42.0999h11.0999c.2387 0 .4677.0948.6364.2636.1688.1687.2637.3977.2637.6364v22.4c0 .2386-.0949.4676-.2637.6364-.1687.1687-.3977.2636-.6364.2636h-11.0999c-.2387 0-.4677-.0949-.6364-.2636-.1688-.1688-.2637-.3978-.2637-.6364v-22.4c0-.2387.0949-.4677.2637-.6364.1687-.1688.3977-.2636.6364-.2636z"/><path d="m42.74 64.8599c.5523 0 1-.4478 1-1 0-.5523-.4477-1-1-1s-1 .4477-1 1c0 .5522.4477 1 1 1z"/></g></svg>