<svg fill="none" height="72" viewBox="0 0 72 72" width="72" xmlns="http://www.w3.org/2000/svg"><path clip-rule="evenodd" d="m28.5353 5.5c-.2762 0-.5.22386-.5.5v60c0 .2762.2238.5.5.5h14.9278c.2761 0 .5-.2238.5-.5v-60c0-.27614-.2239-.5-.5-.5zm1.7513 2.5-.8789-1.5h13.1834l-.8778 1.5zm12.1449.75254.5316-.90824v57.6557h-13.9278v-57.65751l.5333.91027c.0897.15314.2539.24724.4314.24724h12c.1776 0 .3418-.09419.4315-.24746zm-8.5028 4.06696c-.2761 0-.5.2238-.5.5 0 .2761.2239.5.5.5h3.9486c.2762 0 .5-.2239.5-.5 0-.2762-.2238-.5-.5-.5zm-2.0225 30.337c-.2761 0-.5.2239-.5.5s.2239.5.5.5h.7705c.2762 0 .5-.2239.5-.5s-.2238-.5-.5-.5zm3.6597 0c-.2761 0-.5.2239-.5.5s.2239.5.5.5h.7705c.2761 0 .5-.2239.5-.5s-.2239-.5-.5-.5zm3.256.5c0-.2761.2239-.5.5-.5h.7705c.2761 0 .5.2239.5.5s-.2239.5-.5.5h-.7705c-.2761 0-.5-.2239-.5-.5zm-6.9158 4.797c-.2761 0-.5.2238-.5.5 0 .2761.2239.5.5.5h.7705c.2761 0 .5-.2239.5-.5 0-.2762-.2239-.5-.5-.5zm3.1597.5c0-.2762.2239-.5.5-.5h.7705c.2761 0 .5.2238.5.5 0 .2761-.2239.5-.5.5h-.7705c-.2761 0-.5-.2239-.5-.5zm4.256-.5c-.2762 0-.5.2238-.5.5 0 .2761.2238.5.5.5h.7704c.2762 0 .5-.2239.5-.5 0-.2762-.2238-.5-.5-.5zm-7.9157 5.8932c0-.2761.2239-.5.5-.5h.7705c.2761 0 .5.2239.5.5 0 .2762-.2239.5-.5.5h-.7705c-.2761 0-.5-.2238-.5-.5zm4.1597-.5c-.2761 0-.5.2239-.5.5 0 .2762.2239.5.5.5h.7705c.2761 0 .5-.2238.5-.5 0-.2761-.2239-.5-.5-.5zm3.256.5c0-.2761.2238-.5.5-.5h.7704c.2762 0 .5.2239.5.5 0 .2762-.2238.5-.5.5h-.7704c-.2762 0-.5-.2238-.5-.5zm-3.2559 4.7007c-.2761 0-.5.2238-.5.5 0 .2761.2239.5.5.5h.7705c.2761 0 .5-.2239.5-.5 0-.2762-.2239-.5-.5-.5zm-.7521-22.1324c0-.6281.5092-1.1373 1.1373-1.1373s1.1372.5092 1.1372 1.1373c0 .628-.5091 1.1372-1.1372 1.1372s-1.1373-.5092-1.1373-1.1372zm1.1373-2.1373c-1.1804 0-2.1373.9569-2.1373 2.1373 0 1.1803.9569 2.1372 2.1373 2.1372 1.1803 0 2.1372-.9569 2.1372-2.1372 0-1.1804-.9568-2.1373-2.1372-2.1373z" fill="#050504" fill-rule="evenodd"/></svg>