<svg fill="none" height="72" viewBox="0 0 72 72" width="72" xmlns="http://www.w3.org/2000/svg"><path clip-rule="evenodd" d="m4.60706 13.719c0-.2761.22385-.5.5-.5h.30027.10014 10.41443.2005c.2471 0 .4524.1794.4928.4151.0656.1161.1072.2509.1072.3853 0 .0677-.0138.1347-.0405.197l-.0595.139v43.4248c0 .2761-.2239.5-.5.5h-11.01534c-.27615 0-.5-.2239-.5-.5zm10.98574.5h-9.75623l.38685.9026h8.89738l.0051-.0001c.0018-.0006.0082-.0029.0217-.0097.02-.01.0414-.0223.0822-.0458zm-9.98574 1.6994c.01652.0139.03361.0276.05104.0406.07879.0591.23699.1626.45021.1626h9.01249c.1977 0 .3498-.0532.474-.1153.0092-.0047.0185-.0094.0276-.0142v41.2881h-10.01534zm24.33454 31.9473c-.724 0-1.2754.1807-1.6492.5545-.0082.0082-.0165.016-.0252.0235l-.3284-.377.3284.3771-.0001.0001-.0005.0003-.0017.0015-.0067.0058-.0261.0228-.0993.0864-.3575.3107c-.2975.2583-.6984.606-1.1119.9631-.8156.7044-1.7112 1.4727-1.9295 1.6364l-.0016.0012h41.6292c-.3681-.34-.9515-.8758-1.5338-1.4096-.4505-.4129-.8948-.8196-1.2264-1.1231l-.3997-.3657-.1116-.102-.0105-.0096c-.5487-.36-1.1405-.5964-1.6942-.5964zm35.7608 4.6064h-40.0785l18.4021 4.9073h3.2743zm-2.4145 4.9082h-12.1102l14.8257-3.9535c-.2196.3975-.4728.8541-.7242 1.3067-.3128.563-.6194 1.1136-.8477 1.5234l-.2749.4931-.0766.1373-.0201.036-.0052.0093-.0013.0023-.0003.0006-.0001.0001s0 0 .0647.0362l-.0647-.0361c-.0037.0066-.0073.0133-.0106.02-.0518.1036-.1736.2254-.2771.2771-.1964.0982-.3044.1475-.4774.1475zm-23.1393 0-14.7938-3.945c.2255.3952.4775.834.7266 1.2664.3314.5753.6535 1.1319.8928 1.5447l.2875.4957.0799.1376.0209.036.0053.0092c.1135.1883.2296.2945.3405.3569.1115.0627.2488.0985.4308.0985zm23.2394-9.3136.3374-.369c-.0188-.0172-.0388-.0329-.06-.047-.6443-.4296-1.4424-.785-2.2801-.785h-31.4437c-.8722 0-1.7172.2169-2.3435.8347l-.0225.0196-.0991.0862-.3568.3101c-.2971.258-.6973.6051-1.1099.9614-.8368.7227-1.6936 1.4564-1.8759 1.5932-.5943.4458-.7556 1.2091-.4476 1.8252.1588.3176.8708 1.563 1.5286 2.7047.332.5763.6545 1.1338.8941 1.5471l.2879.4963.08.1378.021.0362.0054.0093.0014.0024.0003.0006.0001.0001c.0001 0 .0001.0001.4323-.2512l-.4323.2513.0036.0059c.1864.3107.4202.5542.7093.7168s.6024.2269.9211.2269h16.9235 1.2017 17.0236c.4189 0 .7082-.1447.9117-.2466l.0129-.0064c.2933-.1467.5687-.4202.7186-.713l.002-.0037.0201-.0361.0767-.1374.2751-.4934c.2285-.4101.5353-.9611.8484-1.5246.5988-1.0778 1.2334-2.2245 1.3735-2.4961.2944-.465.2886-1.0696-.0177-1.5289-.0182-.0274-.0392-.0529-.0625-.0762-.1103-.1103-1.0505-.9741-1.9433-1.7925-.4508-.4132-.8953-.8201-1.227-1.1237l-.3999-.3659-.1116-.1021-.0294-.0268-.0075-.0069-.0019-.0017-.0005-.0005-.0001-.0001zm-16.5229 1.8025c0 .2003-.2003.4006-.4006.4006h-1.7023c-.2003 0-.4006-.2003-.4006-.4006s.2003-.4005.4006-.4005h1.8025c.2003.1001.3004.2002.3004.4005zm-38.25248-30.7427c0-.2761.22386-.5.5-.5h2.90408c.2761 0 .5.2239.5.5s-.2239.5-.5.5h-2.90408c-.27614 0-.5-.2239-.5-.5zm-1.00209 21.7309c-.27614 0-.5.2238-.5.5 0 .2761.22386.5.5.5h.6c.27615 0 .5-.2239.5-.5 0-.2762-.22385-.5-.5-.5zm2.20376.5c0-.2762.22381-.5.50001-.5h.6c.2761 0 .5.2238.5.5 0 .2761-.2239.5-.5.5h-.6c-.2762 0-.50001-.2239-.50001-.5zm3.20371-.5c-.2761 0-.5.2238-.5.5 0 .2761.2239.5.5.5h.6c.2762 0 .5-.2239.5-.5 0-.2762-.2238-.5-.5-.5zm-5.90747 4.4054c0-.2761.22386-.5.5-.5h.6c.27615 0 .5.2239.5.5s-.22385.5-.5.5h-.6c-.27614 0-.5-.2239-.5-.5zm3.20377-.5c-.2762 0-.50001.2239-.50001.5s.22381.5.50001.5h.6c.2761 0 .5-.2239.5-.5s-.2239-.5-.5-.5zm2.2037.5c0-.2761.2239-.5.5-.5h.6c.2762 0 .5.2239.5.5s-.2238.5-.5.5h-.6c-.2761 0-.5-.2239-.5-.5zm-4.90747 3.4054c-.27614 0-.5.2239-.5.5 0 .2762.22386.5.5.5h.6c.27615 0 .5-.2238.5-.5 0-.2761-.22385-.5-.5-.5zm2.20376.5c0-.2761.22381-.5.50001-.5h.6c.2761 0 .5.2239.5.5 0 .2762-.2239.5-.5.5h-.6c-.2762 0-.50001-.2238-.50001-.5zm3.20371-.5c-.2761 0-.5.2239-.5.5 0 .2762.2239.5.5.5h.6c.2762 0 .5-.2238.5-.5 0-.2761-.2238-.5-.5-.5zm-3.20371 4.3053c0-.2761.22381-.5.50001-.5h.6c.2761 0 .5.2239.5.5 0 .2762-.2239.5-.5.5h-.6c-.2762 0-.50001-.2238-.50001-.5zm.09875-16.5229c0-.3876.31416-.7017.70166-.7017s.7017.3141.7017.7017c0 .3875-.3142.7016-.7017.7016s-.70166-.3141-.70166-.7016zm.70166-1.7017c-.9398 0-1.70166.7619-1.70166 1.7017s.76186 1.7016 1.70166 1.7016 1.7017-.7618 1.7017-1.7016-.7619-1.7017-1.7017-1.7017z" fill="currentColor" fill-rule="evenodd"/></svg>