<svg fill="none" height="72" viewBox="0 0 72 72" width="72" xmlns="http://www.w3.org/2000/svg"><path clip-rule="evenodd" d="m13.4318 28.4381h.0013 45.0438.0008c1.1509.0019 2.2615.4239 3.1233 1.1866l-.3314.3744c.3339-.3721.3339-.3721.334-.3721l.0002.0002.0007.0006.0027.0025.0109.0098.0425.0381.1613.1449c.1389.125.3376.3037.5765.5191.4779.4307 1.1169 1.0081 1.7614 1.5943.6442.586 1.2951 1.182 1.7963 1.6497.2502.2335.4652.437.6241.5921.079.0772.147.1451.1994.2l.0017.0017c.0362.038.107.1122.1508.1843.0062.0103.0121.0207.0175.0314.1522.2967.2315.6254.2315.9588 0 .3291-.0773.6535-.2255.9472-.0786.1712-.3516.6744-.6967 1.3003-.3635.6593-.8261 1.4887-1.2811 2.3011-.4551.8125-.9029 1.6086-1.237 2.2016-.167.2965-.3056.5422-.4024.7139l-.1123.1989-.0296.0523-.0076.0134-.0019.0034-.0005.0009-.0001.0002c0 .0001 0 .0001-.4354-.2459l.4354.246-.0058.0099-.0071.0116c-.2246.3547-.5348.6471-.9021.8504-.3672.2034-.7798.311-1.1996.313h-.0024-25.9652v-.04h-1.5916-.0104-.0049-22.4988c-.4228.0124-.8418-.0826-1.21797-.2761-.37873-.1948-.70145-.4831-.93759-.8375-.00679-.0102-.0132-.0207-.01922-.0313l.43532-.246-.43536.2459-.00012-.0002-.00048-.0009-.00191-.0033-.00757-.0134-.02956-.0523-.11264-.1994-.4057-.7179c-.33781-.5977-.79324-1.4035-1.26367-2.2355-.94047-1.6633-1.93963-3.4293-2.18033-3.8506-.22063-.3816-.28832-.8327-.18939-1.2623.096-.4168.34193-.7833.69018-1.03.33004-.3015 1.5535-1.3558 2.69628-2.3365.59147-.5076 1.16569-.9992 1.59201-1.3639l.51232-.438.1424-.1217.0374-.0319.0095-.0082.0002-.0001c.8616-.7599 1.9703-1.1806 3.1192-1.1835zm47.6363 15.0346h-18.9044l23.2662-6.2382-.0467.0846c-.3619.6564-.8232 1.4836-1.2779 2.2953-.4545.8116-.902 1.607-1.2358 2.1995-.1668.2963-.3053.5418-.4021.7132l-.1121.1987-.0295.0522-.0035.0062c-.1343.2085-.3181.3805-.5352.5007-.2202.1218-.4674.1864-.719.1878zm5.0559-7.568c-.0139.0413-.0302.0819-.049.1215l-27.6234 7.4065h-1.5357-3.3481l-27.70967-7.4191c-.01581-.0278-.03088-.0543-.04518-.0795zm-.2311-.9999-60.18226.0293c.05338-.0808.12254-.151.20428-.2061.0214-.0144.04165-.0305.06057-.048.26609-.2468 1.50637-1.3161 2.69454-2.3358.59093-.5071 1.16471-.9983 1.59077-1.3628l.5119-.4377.1423-.1215.0373-.0319.0096-.0082.0024-.002.0006-.0006.0001-.0001-.3246-.3803.3247.3803.0063-.0056c.6799-.6006 1.5552-.9332 2.4624-.9357h45.0427c.9071.0016 1.7824.3342 2.4617.9354l.0011.0011.0108.0097.0423.038.1609.1445c.1387.1247.337.3031.5756.5182.4772.4301 1.115 1.0064 1.758 1.5913.6433.5851 1.2905 1.1778 1.7869 1.641.2485.2319.4571.4294.6078.5766.0038.0036.0076.0073.0113.0109zm-59.34325 2.3292 23.15175 6.1987h-18.7107l-.0164.0003c-.2555.0083-.509-.0486-.7363-.1656-.2223-.1144-.41246-.2824-.55332-.4887l-.00044-.0008-.02957-.0523-.11265-.1994-.40573-.7179c-.33784-.5978-.7933-1.4036-1.26378-2.2357-.45807-.8102-.93069-1.6458-1.32286-2.3386zm31.18705-4.7725c0 .1434-.0569.2809-.1583.3823-.1013.1013-.2388.1583-.3822.1583h-2.5024c-.1417 0-.2776-.0556-.3787-.1548s-.1592-.2341-.1618-.3757c.0026-.1417.0607-.2766.1618-.3758s.237-.1548.3787-.1548h2.5024c.14-.0001.2745.0541.3753.1512s.1601.2295.1652.3693z" fill="#050504" fill-rule="evenodd"/></svg>