<svg fill="none" height="72" viewBox="0 0 72 72" width="72" xmlns="http://www.w3.org/2000/svg"><g stroke="currentColor"><path d="m10.9467 9.08874c-1.06493 0-1.86363.79871-1.95238 1.86366v.0887 50.407c0 1.065.79871 1.8637 1.86368 1.9524h.0887 50.407c1.0649 0 1.8636-.7987 1.9524-1.8636v-.0888-50.4957c0-1.06495-.7987-1.86366-1.8636-1.9524h-.0888-50.407z" stroke-linecap="round" stroke-linejoin="round"/><path d="m38.635 60.1169h-4.9697c-.4437 0-.7987-.3549-.8874-.7987v-.1775c0-.4437.4437-.7987.8874-.7987h4.9697c.4438 0 .8875.355.8875.7987v.2663c-.0888.4437-.4437.7099-.8875.7099z" stroke-miterlimit="10"/></g></svg>