<svg fill="none" height="72" viewBox="0 0 72 72" width="72" xmlns="http://www.w3.org/2000/svg"><path clip-rule="evenodd" d="m36.0516 5.40821c-16.8015-.101-30.44068 13.54259-30.54326 30.33689-.20279 16.9997 13.43836 30.845 30.33846 30.9468 16.8968.1018 30.7416-13.4361 30.9452-30.3354v-.003c.1018-16.9964-13.4362-30.84347-30.4385-30.94528v-.00001h-.003-.0006-.0006-.0006-.0006-.0006-.0006-.0005-.0006-.0006-.0006-.0006-.0006-.0006-.0006-.0005-.0006-.0006-.0006-.0006-.0006-.0006-.0006-.0005-.0006-.0006-.0006-.0006-.0006-.0006-.0005-.0006-.0006-.0006-.0006-.0006-.0006-.0006-.0005-.0006-.0006-.0006-.0006-.0006-.0006-.0005-.0006-.0006-.0006-.0006-.0006-.0006-.0006-.0005-.0006-.0006-.0006-.0006-.0006-.0006-.0005-.0006-.0006-.0006-.0006-.0006-.0006-.0006-.0005-.0006-.0006-.0006-.0006-.0006-.0006-.0005-.0006-.0006-.0006-.0006-.0006-.0006-.0006-.0005-.0006-.0006-.0006-.0006-.0006-.0006-.0005-.0006-.0006-.0006-.0006-.0006-.0006-.0006-.0005-.0006-.0006-.0006-.0006-.0006-.0006-.0006-.0005-.0006-.0006-.0006-.0006-.0006-.0006-.0005-.0006-.0006-.0006-.0006-.0006-.0006-.0006-.0005-.0006-.0006-.0006-.0006-.0006-.0006-.0005-.0006-.0006-.0006-.0006-.0006-.0006-.0006-.0005-.0006-.0006-.0006-.0006-.0006-.0006-.0005-.0006-.0006-.0006-.0006-.0006-.0006-.0006-.0005-.0006-.0006-.0006-.0006-.0006-.0006-.0005-.0006-.0006-.0006-.0006-.0006-.0006-.0006-.0005-.0006-.0006-.0006-.0006-.0006-.0006-.0005-.0006-.0006-.0006-.0006-.0006-.0006-.0006-.0005-.0006-.0006-.0006-.0006-.0006-.0006-.0006-.0005-.0006-.0006-.0006-.0006-.0006-.0006-.0005-.0006-.0006-.0006-.0006-.0006-.0006-.0006-.0005-.0006-.0006-.0006-.0006-.0006-.0006-.0005-.0006-.0006-.0006-.0006-.0006-.0006-.0006-.0005-.0006-.0006-.0006-.0006-.0006-.0006-.0005-.0006-.0006-.0006-.0006-.0006-.0006-.0006-.0005-.0006-.0006-.0006-.0006-.0006-.0006-.0005-.0006-.0006-.0006-.0006-.0006-.0006-.0006-.0005-.0006-.0006-.0006-.0006-.0006-.0006-.0005-.0006-.0006-.0006-.0006-.0006-.0006-.0006-.0005-.0006-.0006-.0006-.0006-.0006-.0006-.0006-.0005-.0006-.0006-.0006-.0006-.0006-.0006-.0005-.0006-.0006-.0006-.0006-.0006-.0006-.0006-.0005-.0006-.0006-.0006-.0006-.0006-.0006-.0005-.0006-.0006-.0006-.0006-.0006-.0006-.0006-.0005-.0006-.0006-.0006-.0006-.0006-.0006-.0005-.0006-.0006-.0006-.0006-.0006-.0006-.0006-.0005-.0006-.0006-.0006-.0006-.0006-.0006-.0005-.0006-.0006-.0006-.0006-.0006-.0006-.0006-.0005-.0006-.0006-.0006-.0006-.0006-.0006-.0005-.0006-.0006-.0006-.0006-.0006-.0006-.0006-.0005-.0006-.0006-.0006-.0006-.0006-.0006-.0006-.0005-.0006-.0006-.0006-.0006-.0006-.0006-.0005-.0006-.0006-.0006-.0006-.0006-.0006-.0006-.0005-.0006-.0006-.0006-.0006-.0006-.0006-.0005-.0006-.0006-.0006-.0006-.0006-.0006-.0006-.0005-.0006-.0006-.0006-.0006-.0006-.0006-.0005-.0006-.0006-.0006-.0006-.0006-.0006-.0006-.0005-.0006-.0006-.0006-.0006-.0006-.0006-.0005-.0006-.0006-.0006-.0006-.0006-.0006-.0006-.0005-.0006-.0006-.0006-.0006-.0006-.0006-.0006-.0005-.0006-.0006-.0006-.0006-.0006-.0006-.0005-.0006-.0006-.0006-.0006-.0006-.0006-.0006-.0005-.0006-.0006-.0006-.0006-.0006-.0006-.0005-.0006-.0006-.0006-.0006-.0006-.0006-.0006-.0005-.0006-.0006-.0006-.0006-.0006-.0006-.0005-.0006-.0006-.0006-.0006-.0006-.0006-.0006-.0005-.0006-.0006-.0006-.0006-.0006-.0006-.0005-.0006-.0006-.0006-.0006-.0006-.0006-.0006-.0005-.0006-.0006-.0006-.0006-.0006-.0006-.0005-.0006-.0006-.0006-.0006-.0006-.0006-.0006-.0005-.0006-.0006-.0006-.0006-.0006-.0006-.0006-.0005-.0006-.0006-.0006zm-29.54329 30.34449c.09849-16.2504 13.29539-29.44294 29.53869-29.3445l.003.00001h.0006.0006.0006.0006.0006.0006.0005.0006.0006.0006.0006.0006.0006.0006.0005.0006.0006.0006.0006.0006.0006.0006.0005.0006.0006.0006.0006.0006.0006.0005.0006.0006.0006.0006.0006.0006.0006.0005.0006.0006.0006.0006.0006.0006.0005.0006.0006.0006.0006.0006.0006.0006.0005.0006.0006.0006.0006.0006.0006.0005.0006.0006.0006.0006.0006.0006.0006.0005.0006.0006.0006.0006.0006.0006.0005.0006.0006.0006.0006.0006.0006.0006.0005.0006.0006.0006.0006.0006.0006.0005.0006.0006.0006.0006.0006.0006.0006.0005.0006.0006.0006.0006.0006.0006.0006.0005.0006.0006.0006.0006.0006.0006.0005.0006.0006.0006.0006.0006.0006.0006.0005.0006.0006.0006.0006.0006.0006.0005.0006.0006.0006.0006.0006.0006.0006.0005.0006.0006.0006.0006.0006.0006.0005.0006.0006.0006.0006.0006.0006.0006.0005.0006.0006.0006.0006.0006.0006.0005.0006.0006.0006.0006.0006.0006.0006.0005.0006.0006.0006.0006.0006.0006.0006.0005.0006.0006.0006.0006.0006.0006.0005.0006.0006.0006.0006.0006.0006.0006.0005.0006.0006.0006.0006.0006.0006.0005.0006.0006.0006.0006.0006.0006.0006.0005.0006.0006.0006.0006.0006.0006.0005.0006.0006.0006.0006.0006.0006.0006.0005.0006.0006.0006.0006.0006.0006.0005.0006.0006.0006.0006.0006.0006.0006.0005.0006.0006.0006.0006.0006.0006.0005.0006.0006.0006.0006.0006.0006.0006.0005.0006.0006.0006.0006.0006.0006.0006.0005.0006.0006.0006.0006.0006.0006.0005.0006.0006.0006.0006.0006.0006.0006.0005.0006.0006.0006.0006.0006.0006.0005.0006.0006.0006.0006.0006.0006.0006.0005.0006.0006.0006.0006.0006.0006.0005.0006.0006.0006.0006.0006.0006.0006.0005.0006.0006.0006.0006.0006.0006.0005.0006.0006.0006.0006.0006.0006.0006.0005.0006.0006.0006.0006.0006.0006.0005.0006.0006.0006.0006.0006.0006.0006.0005.0006.0006.0006.0006.0006.0006.0006.0005.0006.0006.0006.0006.0006.0006.0005.0006.0006.0006.0006.0006.0006.0006.0005.0006.0006.0006.0006.0006.0006.0005.0006.0006.0006.0006.0006.0006.0006.0005.0006.0006.0006.0006.0006.0006.0005.0006.0006.0006.0006.0006.0006.0006.0005.0006.0006.0006.0006.0006.0006.0005.0006.0006.0006.0006.0006.0006.0006.0005.0006.0006.0006.0006.0006.0006.0005.0006.0006.0006.0006.0006.0006.0006.0005.0006.0006.0006.0006.0006.0006.0006.0005.0006.0006.0006.0006.0006.0006.0005.0006.0006.0006.0006.0006.0006.0006.0005.0006.0006.0006.0006.0006.0006.0005.0006.0006.0006.0006.0006.0006.0006.0005.0006.0006.0006.0006.0006.0006.0005.0006.0006.0006.0006.0006.0006.0006.0005.0006.0006.0006.0006.0006.0006.0005.0006.0006.0006.0006.0006.0006.0006.0005.0006.0006.0006.0006.0006.0006.0005.0006.0006.0006.0006.0006.0006.0006.0005.0006.0006.0006.0006.0006.0006.0006.0005.0006.0006.0006.0003c16.4428.09927 29.5407 13.48879 29.4431 29.93769-.1977 16.3462-13.5905 29.4445-29.9393 29.346-16.3456-.0984-29.54148-13.4902-29.34452-29.9363zm29.24129-28.74226c.2762 0 .5.22385.5.5v2.10292c0 .27614-.2238.50004-.5.50004-.2761 0-.5-.2239-.5-.50004v-2.10292c0-.27615.2239-.5.5-.5zm-27.43734 28.43876c0-.2761.22385-.5.5-.5h2.10294c.2761 0 .5.2239.5.5 0 .2762-.2239.5-.5.5h-2.10294c-.27615 0-.5-.2238-.5-.5zm53.77464 0c0-.2761.2239-.5.5-.5h2.2031c.2761 0 .5.2239.5.5 0 .2762-.2239.5-.5.5h-2.2031c-.2761 0-.5-.2238-.5-.5zm-25.8373 25.8359c0-.2761-.2238-.5-.5-.5-.2761 0-.5.2239-.5.5v2.2031c0 .2761.2239.5.5.5.2762 0 .5-.2239.5-.5zm-10.2135-25.2343c-.2761 0-.5.2238-.5.5 0 .2761.2239.5.5.5h9.7135.0001c.2761 0 .4999-.2239.4999-.5v-19.427c0-.2762-.2238-.5-.5-.5-.2761 0-.5.2238-.5.5v18.927z" fill="currentColor" fill-rule="evenodd"/></svg>