<svg fill="none" height="72" viewBox="0 0 72 72" width="72" xmlns="http://www.w3.org/2000/svg"><path d="m24.0334 37.6523-1.8025.5007zm4.9068-1.3018-1.8025.5007zm4.9068-1.2017-1.8025.4006zm4.9068-1.3018-1.8025.5007zm4.9068-1.2017-1.8025.4006zm4.9068-1.3018-1.8025.5007zm4.9069-1.3018-1.8025.5007zm-22.8318 11.4159c-.7009 2.7037-2.1029 8.3115-2.8039 10.9151-.7009 2.6036 1.7024 3.3046 3.4048 2.5035 1.6022-.701 2.904-1.7024 3.9054-3.1043 2.2031-3.5049 3.2045-4.8067 9.3129-14.2197zm14.6204-13.9194-15.4215-10.6147c-1.1015-.8011-4.9068-1.5021-6.1085-.9013-1.7023.701-1.4019 1.7024-.6008 3.0042 1.8025 3.1043 5.3074 8.9124 7.5104 13.1182-3.8052 1.1016-6.4089 1.7024-12.6175 3.4048-3.0042.8011-3.0042.4005-5.3074-1.2017-1.3018-.9013-2.3032-1.8025-3.2044-2.3032-.90126-.5007-3.70515-.1001-4.10571.5007-.40055.6008-.30041 1.2017 1.90265 4.2058 1.50208 2.103 3.40476 5.007 4.60636 6.0084 2.2031 1.6022 5.007 2.1029 7.7107 1.4019 2.6037-.7009 33.7469-8.9123 38.153-10.114 5.5077-1.5021 9.7135-3.4047 8.7121-6.9096s-6.0083-3.0042-8.6119-2.3032-9.8137 2.0028-12.6175 2.7037z" stroke="currentColor" stroke-linecap="round" stroke-linejoin="round"/></svg>