<svg fill="none" height="72" viewBox="0 0 72 72" width="72" xmlns="http://www.w3.org/2000/svg"><path clip-rule="evenodd" d="m66.6625 9c0-.13275-.0528-.26005-.1468-.35385-.0939-.09379-.2213-.14637-.3541-.14615l-59.32344.09806c-.27582.00045-.49917.22418-.49917.49999v41.18325c0 .2761.22386.5.5.5h30.77841l14.0715 14.0716c.143.143.3581.1857.5449.1083.1869-.0773.3087-.2597.3087-.4619v-13.8161h13.62c.2761 0 .5-.2238.5-.5zm-59.32351 40.7813v-40.18407l58.32351-.0964v40.18237h-13.62c-.2762 0-.5.2239-.5.5v13.109l-13.3645-13.3645c-.0937-.0937-.2209-.1464-.3535-.1464zm17.31901-19.1589c-2.6439-3.0219-2.2814-7.6971.747-10.3606 1.2782-1.0945 3.0206-1.7387 4.7628-1.7407 2.7403.0945 5.0058 1.7345 5.9131 4.1842.0684.1846.2387.3119.4351.3252s.3823-.0899.4749-.2636c1.5197-2.8493 3.4397-4.2458 5.7363-4.2458 4.0364 0 7.3383 3.3017 7.2465 7.4314h-.0001v.0111c0 1.7306-.6348 3.3819-1.7413 4.7712l-11.6834 12.4434-11.1079-11.7725-.0102-.0104-.3922-.3922zm5.5182-13.1013c-1.9801 0-3.9591.7276-5.4243 1.9834l-.0047.0041c-3.4371 3.0205-3.8612 8.3365-.8299 11.7858.0071.0081.0144.016.022.0235l.3922.3923.3871.3871 11.4675 12.1535c.0946.1003.2264.1571.3643.1569.1378-.0002.2695-.0573.3639-.1578l12.0608-12.8452c.009-.0096.0177-.0196.0259-.0299 1.2382-1.5477 1.9713-3.4186 1.9726-5.4057.1013-4.6927-3.6556-8.448-8.2464-8.448-2.5256 0-4.5605 1.4144-6.1224 3.9149-1.238-2.3233-3.6258-3.8218-6.412-3.9146z" fill="currentColor" fill-rule="evenodd"/></svg>