<svg fill="none" height="72" viewBox="0 0 72 72" width="72" xmlns="http://www.w3.org/2000/svg"><path clip-rule="evenodd" d="m30.9535 13.6786c4.9067-4.90674 12.7874-4.90166 17.5894-.0036.1934.1972.5099.2004.7071.007.1972-.1933.2003-.5099.007-.707-5.1979-5.30194-13.7173-5.29686-19.0106-.0036-.1952.1953-.1952.5119 0 .7072.1953.1952.5119.1952.7071 0zm3.1 3.1c3.1048-3.1048 8.2882-3.1048 11.3929 0 .1953.1952.5119.1952.7071 0 .1953-.1953.1953-.5119 0-.7072-3.4952-3.4952-9.3118-3.4952-12.8071 0-.1952.1953-.1952.5119 0 .7072.1953.1952.5119.1952.7071 0zm4.3 2.9c.8048-.8048 2.1882-.8048 2.9929 0 .1953.1952.5119.1952.7071 0 .1953-.1953.1953-.5119 0-.7072-1.1952-1.1952-3.2118-1.1952-4.4071 0-.1952.1953-.1952.5119 0 .7072.1953.1952.5119.1952.7071 0zm-25.4535 5.9464c-.2761 0-.5.2239-.5.5v9.3c0 .2761.2239.5.5.5.2762 0 .5-.2239.5-.5v-8.8h50.3v14.6c0 .2761.2239.5.5.5.2762 0 .5-.2239.5-.5v-15.1c0-.2761-.2238-.5-.5-.5zm-4.89998 11.2h-.00423c-.01763-.0001-.06476-.0003-.10879.0046-.04457.005-.19786.0242-.32802.1543-.13017.1302-.14938.2835-.15434.3281-.00489.044-.0047.0911-.00463.1088l.00001.0042v21.9h-1.70002c-.20029 0-.35244.0924-.41485.134-.03933.0262-.07112.0517-.09335.0707-.01138.0098-.02094.0184-.02846.0255l-.0099.0094-.00386.0037-.00166.0017-.00076.0007-.00036.0004-.00018.0002c-.00008 0-.00017.0001.35338.3537l-.35355-.3536c-.09377.0938-.14645.221-.14645.3536v2.9c0 .1114.02954.2452.12251.3648.08961.1152.20196.1704.28188.197.12151.0405.2528.0387.28882.0382h.00679 39.4c.2003 0 .3524-.0924.4149-.134.0393-.0262.0711-.0517.0933-.0708.0072-.0061.0137-.0118.0193-.017.0033-.003.0064-.0058.0092-.0084l.0099-.0094.0038-.0038.0017-.0016.0007-.0007.0004-.0004.0002-.0002c.0001-.0001.0002-.0002-.3534-.3537l.3536.3535c.0937-.0937.1464-.2209.1464-.3535v-2.9c0-.1115-.0295-.2453-.1225-.3648-.0896-.1152-.202-.1704-.2819-.1971-.1215-.0405-.2528-.0387-.2888-.0382l-.0068.0001h-1.7v-21.9h-.4556c.4556 0 .4556-.0002.4556-.0005v-.0005-.001-.002-.0043l-.0003-.0095c-.0002-.0066-.0006-.014-.0011-.0221-.0012-.016-.0032-.0357-.0069-.0579-.0071-.0421-.022-.1059-.057-.1758-.0359-.0718-.0976-.1588-.1995-.2268-.1051-.07-.2227-.0996-.3352-.0996zm.4 22.3v-21.3h33.99998v21.3zm38.69998-.6c-.2761 0-.5.2239-.5.5s.2239.5.5.5h8c.2762 0 .5-.2239.5-.5s-.2238-.5-.5-.5zm.1 3.6c-.2761 0-.5.2239-.5.5s.2239.5.5.5h7.7c.2762 0 .5-.2239.5-.5s-.2238-.5-.5-.5zm14.5035-1.7965c-.0798.0799-.1035.1591-.1035.1965s.0237.1166.1035.1964c.0799.0799.1591.1036.1965.1036.0784 0 .1569-.0305.2121-.0811.0487-.0447.0879-.1118.0879-.2189 0-.0374-.0238-.1166-.1036-.1965-.0798-.0798-.159-.1035-.1964-.1035s-.1166.0237-.1965.1035zm-.7071-.7071c.2202-.2202.541-.3964.9036-.3964s.6834.1762.9035.3964c.2202.2202.3965.541.3965.9036 0 .8162-.6657 1.3-1.3 1.3-.3626 0-.6834-.1763-.9036-.3965-.2202-.2201-.3964-.5409-.3964-.9035s.1762-.6834.3964-.9036zm-3.7963-15.7964c0-.1239.0761-.2.2-.2h9.1c.1238 0 .2.0761.2.2v18.1c0 .0802-.0322.1675-.0841.2299-.0499.0598-.0927.0701-.1159.0701h-9.1c-.1239 0-.2-.0761-.2-.2zm.2-1.2c-.6762 0-1.2.5239-1.2 1.2v18.2c0 .6761.5238 1.2 1.2 1.2h9.1c.3768 0 .6839-.1897.8841-.4299.198-.2376.3159-.5503.3159-.8701v-18.1c0-.6761-.5239-1.2-1.2-1.2zm-12.6001 17.7h-13.7v.1c0 .2761-.2239.5-.5.5h-10.4c-.2761 0-.5-.2239-.5-.5v-.1h-13.7v2.1h38.8zm16-15.8c-.2761 0-.5.2239-.5.5s.2239.5.5.5h2.7c.2762 0 .5-.2239.5-.5s-.2238-.5-.5-.5z" fill="#050504" fill-rule="evenodd"/></svg>