<svg fill="none" height="72" viewBox="0 0 72 72" width="72" xmlns="http://www.w3.org/2000/svg"><path clip-rule="evenodd" d="m55.6035 6.87618c-2.2668-.54463-4.6176-.42434-6.8974.21341-7.1448 2.12637-11.196 9.55851-9.0725 16.70121 2.1249 7.1472 9.5584 11.2001 16.7024 9.0762 6.8723-2.0431 10.8838-8.9944 9.294-15.8772l-3.691 3.691-2.7037 2.7038c-.1266.1266-.3112.1758-.484.1291l-3.7052-1.0014-3.7051-1.0014c-.1717-.0464-.3059-.1805-.3523-.3522l-1.0014-3.7051-1.0013-3.7052c-.0476-.176.0044-.3641.1358-.4906l2.7004-2.6003zm.9826-.65613c-.064-.09043-.1583-.1603-.2733-.19249-2.6042-.7292-5.302-.62174-7.8802.10014v-.00006l-.0076.00227c-7.6734 2.28127-12.0321 10.26919-9.7499 17.94579.2608.8771.5961 1.7109.997 2.4965-.062.0244-.1202.0616-.1703.1118l-30.84288 30.8428c-1.79559 1.7956-1.79749 4.6116-.0057 6.4093 1.70458 1.8116 4.62138 1.7931 6.40918.1171l-.0044-.0047.0125-.0031.0017-.0017.0009-.0009.0004-.0004.0002-.0002.0002-.0001.0002-.0003.0014-.0013.011-.011.0876-.0876 30.8428-30.8429c.0464-.0463.0818-.0996.1061-.1564 3.1404 1.5534 6.8542 1.9662 10.4979.883 7.6682-2.2797 12.0262-10.2584 9.7545-17.9302-.0216-.0834-.0651-.1623-.1304-.2276-.1953-.1953-.5118-.1953-.7071 0l-4.306 4.3059-2.4991 2.4992-3.4258-.9259-3.4278-.9265-.9265-3.4278-.9242-3.4197 2.4907-2.3985.0001.0001.0066-.0067 4.306-4.30597c.1953-.19526.1953-.51184 0-.7071-.07-.07008-.1557-.115-.2458-.13478zm-47.22008 52.01385 30.78968-30.7896c1.2667 2.1093 3.0275 3.82 5.081 5.0207l-30.7697 30.7697-.0876.0877-.0066.0066c-1.4153 1.321-3.697 1.3025-4.99556-.0827l-.01122-.0116c-1.40696-1.4069-1.40696-3.5938 0-5.0008zm10.91518-43.8609-4.1539 4.1539 14.0689 14.1667c.1946.1959.1935.5125-.0024.7071-.196.1946-.5126.1935-.7071-.0025l-14.0665-14.1641-3.6508 3.6507c-.1086.1086-.2611.1613-.4136.1429-.1525-.0185-.288-.106-.3676-.2374l-6.30879-10.4144c-.11928-.1969-.08869-.4498.0741-.6126l4.40612-4.40616c.16279-.16279.4157-.19338.61262-.0741l10.41445 6.30876c.1314.0796.2189.2151.2373.3676.0185.1525-.0342.305-.1428.4136zm-1.158-.2562-4.0541 4.0542-3.556 3.5559-5.77523-9.5338 3.85162-3.8516zm23.2264 25.5257c-.1974-.193-.514-.1895-.7071.0079-.193.1975-.1895.514.0079.7071l18.2817 17.8784c1.405 1.407 1.4044 3.5925-.0019 4.9989l-.0112.0115c-1.3004 1.3871-3.5864 1.4038-5.0012.0774-4.635-4.3453-11.6639-11.3681-16.2478-15.9479-.7468-.7462-1.4288-1.4276-2.0249-2.0219-.1955-.195-.5121-.1945-.7071.001-.195.1956-.1945.5121.001.7071.5945.5927 1.2752 1.2728 2.0211 2.0181 4.5819 4.5779 11.6257 11.6156 16.2737 15.9731 1.7877 1.676 4.7045 1.6945 6.4091-.117 1.7919-1.7978 1.79-4.6138-.0056-6.4094l-.004-.0039z" fill="currentColor" fill-rule="evenodd"/></svg>