<svg fill="none" height="72" viewBox="0 0 72 72" width="72" xmlns="http://www.w3.org/2000/svg"><g stroke="#050504" stroke-linecap="round" stroke-linejoin="round"><path d="m17.8774 51.5301v-7.197c.05-3.5034-2.7427-6.3862-6.2461-6.4363-3.50339.0501-6.28609 2.9329-6.23604 6.4363v7.197z"/><path d="m15.2549 33.973c.05 2.1221-1.6316 3.8838-3.7537 3.9339-2.17209-.1102-3.84371-1.962-3.73361-4.1241.1001-2.0119 1.71167-3.6335 3.73361-3.7336 2.062-.01 3.7437 1.6516 3.7537 3.7136v.02z"/><path d="m66.6748 51.5301v-7.197c.1402-3.4433-2.5424-6.3562-5.9958-6.4863-3.4434-.1401-6.3562 2.5425-6.4863 5.9958-.01.1702-.01.3303 0 .5005v7.197h12.4821z"/><path d="m64.3526 33.973c-.1001 2.072-1.8718 3.6636-3.9438 3.5635-2.0721-.1001-3.6636-1.8718-3.5635-3.9438.1001-1.992 1.7517-3.5635 3.7436-3.5635 2.062-.01 3.7437 1.6516 3.7537 3.7136v.02.2102z"/><path d="m54.1927 51.5301v-10.5903c0-5.0149-4.074-9.0888-9.0888-9.0888-5.0149 0-9.0889 4.0739-9.0889 9.0888v10.5903z"/><path d="m50.8895 25.685c.2602 3.0429-1.9919 5.7155-5.0349 5.9758-3.043.2602-5.7156-1.992-5.9758-5.0349-.03-.3103-.03-.6306 0-.9409-.0701-3.1231 2.3923-5.7056 5.5153-5.7857 3.043-.01 5.5054 2.4524 5.5154 5.4954v.01z"/><path d="m36.015 51.5301v-10.5903c.1101-5.0949-3.9138-9.3291-9.0088-9.4792-5.1249.1101-9.1889 4.3542-9.0788 9.4792v10.5903z"/><path d="m32.2313 25.685c.0701 3.123-2.3923 5.7055-5.5153 5.7856-3.1231-.0801-5.5855-2.6626-5.5154-5.7856-.0701-3.1231 2.3923-5.7056 5.5154-5.7857 3.0429-.01 5.5053 2.4524 5.5153 5.4954v.01z"/></g></svg>