<svg fill="none" height="72" viewBox="0 0 72 72" width="72" xmlns="http://www.w3.org/2000/svg"><g clip-rule="evenodd" fill="currentColor" fill-rule="evenodd"><path d="m14.0045 27.51c-.0058 0-.0115.0001-.0173.0003-2.9297.1035-5.34953 2.3812-5.46439 5.2244-.15919 2.2507 1.16945 4.2445 3.13129 5.1853-3.60011 1.1889-6.14409 4.8129-6.14409 9.058v10.022c0 .2706.21938.49.49.49h15.99819c.2706 0 .49-.2194.49-.49v-10.0173c.0807-4.241-2.5105-7.942-6.0792-9.099 1.8609-.9263 3.1537-2.808 3.0779-4.9402v-.0006-.0006-.0005-.0006-.0005-.0006-.0005-.0006-.0006-.0005-.0006-.0005-.0006-.0005-.0006-.0005-.0006-.0006-.0005-.0006-.0005-.0006-.0005-.0006-.0005-.0006-.0006-.0005-.0006-.0005-.0006-.0005-.0006-.0005-.0006-.0005-.0006-.0005-.0006-.0005-.0006-.0005-.0006-.0005-.0006-.0005-.0006-.0005-.0006-.0005-.0006-.0005-.0006-.0005-.0006-.0005-.0006-.0005-.0006-.0005-.0006-.0005-.0005-.0006-.0005-.0006-.0005-.0006-.0005-.0006-.0005-.0005-.0006-.0005-.0006-.0005-.0005-.0006-.0005-.0006-.0005-.0005-.0006-.0005-.0005-.0006-.0005-.0005-.0006-.0005-.0006-.0005-.0005-.0006-.0005-.0005-.0005-.0006-.0005-.0005-.0006-.0005-.0005-.0005-.0006-.0005-.0005-.0006-.0005-.0005-.0005-.0006-.0005-.0005-.0005-.0005-.0006-.0005-.0005-.0005-.0005-.0006-.0005-.0005-.0005-.0005-.0005-.0005-.0006-.0005-.0005-.0005-.0005-.0005-.0005-.0005-.0005-.0006-.0005-.0005-.0005-.0005-.0005-.0005-.0005-.0005-.0005-.0005-.0005-.0005-.0005-.0005-.0005-.0005-.0005-.0005-.0005-.0005-.0005-.0005-.0004-.0005-.0005-.0005-.0005-.0005-.0005-.0005-.0005-.0004-.0005-.0005-.0005-.0005-.0005-.0004-.0005-.0005-.0005-.0004-.0005-.0005-.0005-.0004-.0005-.0005-.0005-.0004-.0005-.0005-.0004-.0005-.0005-.0004-.0005-.0005-.0004-.0005-.0004-.0005-.0005-.0004-.0005-.0004-.0005-.0004-.0005-.0004-.0005-.0004-.0005-.0004-.0005-.0004-.0005-.0004-.0005-.0004-.0004-.0005-.0004-.0005-.0004-.0004-.0005-.0004-.0004-.0005-.0004-.0004-.0005-.0004-.0004-.0004-.0005-.0004-.0004-.0004-.0004-.0005-.0004-.0004-.0004-.0004-.0004-.0005-.0004-.0004-.0004-.0004-.0004-.0004-.0004-.0004-.0004-.0004-.0004-.0004-.0004-.0004-.0004-.0004-.0004-.0004-.0004-.0004-.0004-.0003-.0004-.0004-.0004-.0004-.0004-.0003-.0004-.0004-.0004-.0003-.0004-.0004-.0004-.0003-.0004-.0004-.0003-.0004-.0004-.0003-.0004-.0003-.0004-.0004-.0003-.0004-.0003-.0004-.0003-.0004-.0003-.0004-.0003-.0003-.0004-.0003-.0004-.0003-.0003-.0004-.0003-.0003-.0004-.0003-.0003-.0004-.0003-.0003-.0003-.0004-.0003-.0003-.0003-.0003-.0003-.0004-.0003-.0003-.0003-.0003-.0003-.0003-.0003-.0003-.0003-.0003-.0003-.0003-.0003-.0003-.0003-.0003-.0002-.0003-.0003-.0003-.0003-.0003-.0002-.0003-.0003-.0003-.0002-.0003-.0003-.0002-.0003-.0003-.0002-.0003-.0003-.0002-.0003-.0002-.0003-.0002-.0003-.0002-.0003-.0002-.0003-.0002-.0002-.0003-.0002-.0003-.0002-.0002-.0002-.0003-.0002-.0002-.0003-.0002-.0002-.0002-.0002-.0002-.0003-.0002-.0002-.0002-.0002-.0002-.0002-.0002-.0002-.0002-.0002-.0002-.0002-.0002-.0002-.0001-.0002-.0002-.0002-.0002-.0002-.0001-.0002-.0002-.0001-.0002-.0002-.0001-.0002-.0002-.0001-.0002-.0001-.0002-.0002-.0001-.0002-.0001-.0001-.0002-.0001-.0002-.0001-.0001-.0002-.0001-.0001-.0002-.0001-.0001-.0001-.0002-.0001-.0001-.0001-.0001-.0001-.0001-.0001-.0001-.0002-.0001-.0001-.0001-.0001-.0001-.0001-.0001-.0001-.0001-.0001-.0001-.0001-.0001-.0001-.0001-.0001-.0001-.0001-.0001-.0001-.0001-.0001-.0001-.0001-.0001c0-2.9588-2.4381-5.2519-5.4824-5.2519zm-4.50275 5.2709c.08904-2.2931 2.05625-4.1998 4.51145-4.2909 2.5429.0043 4.4937 1.9001 4.4937 4.2719v.0001.0001.0001.0001.0001.0001.0001.0001.0001.0001.0001.0001.0001.0001.0001.0001.0001.0001.0001.0001.0001.0001.0001.0001.0001.0002.0001.0001.0001.0001.0001.0001.0001.0001.0002.0001.0001.0001.0002.0001.0001.0002.0001.0001.0002.0001.0002.0001.0001.0002.0001.0002.0002.0001.0002.0001.0002.0002.0001.0002.0002.0001.0002.0002.0001.0002.0002.0002.0002.0002.0001.0002.0002.0002.0002.0002.0002.0002.0002.0002.0002.0002.0002.0002.0002.0003.0002.0002.0002.0002.0002.0003.0002.0002.0003.0002.0002.0002.0003.0002.0003.0002.0002.0003.0002.0003.0002.0003.0002.0003.0002.0003.0002.0003.0003.0002.0003.0003.0002.0003.0003.0002.0003.0003.0003.0002.0003.0003.0003.0003.0003.0002.0003.0003.0003.0003.0003.0003.0003.0003.0003.0003.0003.0003.0003.0003.0003.0003.0004.0003.0003.0003.0003.0003.0004.0003.0003.0003.0004.0003.0003.0004.0003.0003.0004.0003.0003.0004.0003.0004.0003.0003.0004.0003.0004.0003.0004.0003.0004.0003.0004.0004.0003.0004.0003.0004.0004.0003.0004.0004.0003.0004.0004.0004.0003.0004.0004.0004.0003.0004.0004.0004.0004.0004.0003.0004.0004.0004.0004.0004.0004.0004.0004.0004.0004.0004.0004.0004.0004.0004.0004.0004.0004.0004.0004.0004.0005.0004.0004.0004.0004.0004.0005.0004.0004.0004.0004.0005.0004.0004.0004.0005.0004.0004.0005.0004.0004.0005.0004.0004.0005.0004.0005.0004.0004.0005.0004.0005.0004.0005.0004.0005.0004.0005.0004.0005.0004.0005.0004.0005.0004.0005.0005.0004.0005.0004.0005.0005.0004.0005.0005.0004.0005.0005.0004.0005.0005.0005.0004.0005.0005.0005.0004.0005.0005.0005.0004.0005.0005.0005.0005.0005.0004.0005.0005.0005.0005.0005.0005.0005.0005.0004.0005.0005.0005.0005.0005.0005.0005.0005.0005.0005.0005.0005.0005.0005.0005.0005.0005.0005.0005.0005.0005.0005.0006.0005.0005.0005.0005.0005.0005.0005.0005.0006.0005.0005.0005.0005.0005.0005.0006.0005.0005.0005.0005.0006.0005.0005.0005.0005.0006.0005.0005.0005.0006.0005.0005.0006.0005.0005.0005.0006.0005.0005.0006.0005.0005.0005.0006.0005.0005.0006.0005.0006.0005.0005.0006.0005.0005.0006.0005.0005.0006.0005.0006.0005.0005.0006.0005.0006.0005.0005.0006.0005.0006.0005.0006.0005.0006.0005.0005.0006.0005.0006.0005.0006.0005.0006.0005.0006.0005.0006.0005.0006.0005.0006.0005.0006.0005.0006.0005.0006.0005.0006.0005.0006.0005.0006.0005.0006.0005.0006.0005.0006.0005.0006.0006.0005.0006.0005.0006.0005.0006.0005.0006.0006.0005.0006.0005.0006.0005.0006.0005.0006.0006.0005.0006.0005.0006.0005.0006.0006.0005.0006.0005.0006.0006.0005.0006.0005.0006.0005.0006.0006.0005.0006.0005.0006c0 .0061.0001.0122.0003.0183.0884 2.3608-1.9553 4.4436-4.503 4.539-2.6387-.0954-4.68059-2.2612-4.50336-4.7124zm-3.01174 14.1971c0-4.6789 3.36778-8.3874 7.56269-8.488 4.0849.0035 7.5469 3.8012 7.4556 8.4785h-.0001v.0095 9.532h-15.01819z"/><path d="m34 15.51c-.0074 0-.0147.0002-.0221.0005-4.1983.1897-7.561 3.4249-7.4659 7.4895-.0719 3.0749 1.839 5.7379 4.6055 6.8875-5.6332 1.4243-9.6922 6.6931-9.6061 12.8632v14.2493c0 .2706.2193.49.49.49h23.9973v-.49h.49v-14.2493c.0863-6.1908-4.0003-11.4742-9.663-12.8774 2.7936-1.1508 4.7374-3.7733 4.6622-6.8793v-.4427c0-3.8884-3.369-7.0413-7.4879-7.0413zm-6.5081 7.4777c-.0869-3.4646 2.7835-6.3235 6.5192-6.4977 3.6303.0056 6.4968 2.7736 6.4968 6.0613v.4487h-.0001l.0003.0123c.0868 3.4629-2.7806 6.3207-6.5136 6.4974-3.714-.0924-6.5897-3.0251-6.5026-6.4974.0003-.0082.0003-.0164 0-.0246zm18.0168 19.7595v13.7628h-23.0173v-13.7628l-.0001-.0069c-.0947-6.6694 5.0129-12.1501 11.5087-12.2502 6.4958.1001 11.6034 5.5808 11.5087 12.2502z"/><path d="m56 22.51c-.0074 0-.0147.0002-.0221.0005-3.6309.1641-6.5478 2.9633-6.4662 6.4895-.0596 2.5745 1.4831 4.8132 3.7458 5.8606-4.356 1.1694-7.5778 5.1348-7.7472 9.9257-.0002.0058-.0003.0116-.0003.0173v.0012.0012.0012.0011.0012.0012.0011.0012.0012.0012.0011.0012.0012.0011.0012.0012.0012.0011.0012.0012.0012.0011.0012.0012.0011.0012.0012.0012.0011.0012.0012.0011.0012.0012.0012.0011.0012.0012.0011.0012.0012.0012.0011.0012.0012.0011.0012.0012.0012.0011.0012.0012.0011.0012.0012.0012.0011.0012.0012.0011.0012.0012.0012.0011.0012.0012.0011.0012.0012.0012.0011.0012.0012.0011.0012.0012.0012.0011.0012.0012.0011.0012.0012.0012.0011.0012.0012.0011.0012.0012.0012.0011.0012.0012.0011.0012.0012.0012.0011.0012.0012.0011.0012.0012.0012.0011.0012.0012.0011.0012.0012.0012.0011.0012.0012.0011.0012.0012.0012.0011.0012.0012.0011.0012.0012.0012.0011.0012.0012.0011.0012.0012.0012.0011.0012.0012.0011.0012.0012.0012.0011.0012.0012.0011.0012.0012.0012.0011.0012.0012.0011.0012.0012.0012.0011.0012.0012.0011.0012.0012.0012.0011.0012.0012.0011.0012.0012.0012.0011.0012.0012.0011.0012.0012.0012.0011.0012.0012.0012.0011.0012.0012.0011.0012.0012.0012.0011.0012.0012.0011.0012.0012.0012.0011.0012.0012.0011.0012.0012.0012.0011.0012.0012.0011.0012.0012.0012.0011.0012.0012.0011.0012.0012.0012.0011.0012.0012.0011.0012.0012.0012.0011.0012.0012.0011.0012.0012.0012.0011.0012.0012.0011.0012.0012.0012.0011.0012.0012.0011.0012.0012.0012.0011.0012.0012.0011.0012.0012.0012.0011.0012.0012.0011.0012.0012.0012.0011.0012.0012.0011.0012.0012.0012.0011.0012.0012.0011.0012.0012.0012.0011.0012.0012.0011.0012.0012.0012.0011.0012.0012.0011.0012.0012.0012.0011.0012.0012.0011.0012.0012.0012.0011.0012.0012.0011.0012.0012.0012.0011.0012.0012.0011.0012.0012.0012.0011.0012.0012.0011.0012.0012.0012.0011.0012.0012.0011.0012.0012.0012.0011.0012.0012.0011.0012.0012.0012.0011.0012.0012.0012.0011.0012.0012.0011.0012.0012.0012.0011.0012.0012.0011.0012.0012.0012.0011.0012.0012.0011.0012.0012.0012.0011.0012.0012.0011.0012.0012.0012.0011.0012.0012.0011.0012.0012.0012.0011.0012.0012.0011.0012.0012.0012.0011.0012.0012.0011.0012.0012.0012.0011.0012.0012.0011.0012.0012.0012.0011.0012.0012.0011.0012.0012.0012.0011.0012.0012.0011.0012.0012.0012.0011.0012.0012.0011.0012.0012.0012.0011.0012.0012.0011.0012.0012.0012.0011.0012.0012.0011.0012.0012.0012.0011.0012.0012.0011.0012.0012.0012.0011.0012.0012.0011.0012.0012.0012.0011.0012.0012.0011.0012.0012.0012.0011.0012.0012.0011.0012.0012.0012.0011.0012.0012.0011.0012.0012.0012.0011.0012.0012.0011.0012.0012.0012.0011.0012.0012.0011.0012.0012.0012.0011.0012.0012.0011.0012.0012.0012.0011.0012.0012.0011.0012.0012.0012.0011.0012.0012.0012.0011.0012.0012.0011.0012.0012.0012.0011.0012.0012.0011.0012.0012.0012.0011.0012.0012.0011.0012.0012.0012.0011.0012.0012 11.5965c0 .2706.2194.49.49.49h19.9935v-.49h.49v-11.5879c.1745-5.0487-3.1827-9.3202-7.8224-10.5478 2.304-1.0392 3.8901-3.2553 3.8271-5.8703v-.3786c0-3.3756-2.9232-6.1054-6.4882-6.1054zm-5.5083 6.4777c-.0735-2.9262 2.3511-5.3491 5.5194-5.4977 3.0764.0056 5.4971 2.3505 5.4971 5.1254v.3846h-.0001l.0003.0123c.0733 2.9245-2.3483 5.3463-5.5139 5.4974-3.1466-.0796-5.5765-2.5636-5.5028-5.4974.0002-.0082.0002-.0164 0-.0246zm15.0118 16.4158v11.1065h-19.0135v-11.1065-.0012-.0012-.0011-.0012-.0012-.0012-.0011-.0012-.0012-.0011-.0012-.0012-.0012-.0011-.0012-.0012-.0011-.0012-.0012-.0012-.0011-.0012-.0012-.0011-.0012-.0012-.0012-.0011-.0012-.0012-.0012-.0011-.0012-.0012-.0011-.0012-.0012-.0012-.0011-.0012-.0012-.0011-.0012-.0012-.0012-.0011-.0012-.0012-.0011-.0012-.0012-.0012-.0011-.0012-.0012-.0011-.0012-.0012-.0012-.0011-.0012-.0012-.0011-.0012-.0012-.0012-.0011-.0012-.0012-.0011-.0012-.0012-.0012-.0011-.0012-.0012-.0011-.0012-.0012-.0012-.0011-.0012-.0012-.0011-.0012-.0012-.0012-.0011-.0012-.0012-.0011-.0012-.0012-.0012-.0011-.0012-.0012-.0011-.0012-.0012-.0012-.0011-.0012-.0012-.0011-.0012-.0012-.0012-.0011-.0012-.0012-.0011-.0012-.0012-.0012-.0011-.0012-.0012-.0011-.0012-.0012-.0012-.0011-.0012-.0012-.0011-.0012-.0012-.0012-.0011-.0012-.0012-.0011-.0012-.0012-.0012-.0011-.0012-.0012-.0011-.0012-.0012-.0012-.0011-.0012-.0012-.0011-.0012-.0012-.0012-.0011-.0012-.0012-.0011-.0012-.0012-.0012-.0011-.0012-.0012-.0011-.0012-.0012-.0012-.0011-.0012-.0012-.0011-.0012-.0012-.0012-.0011-.0012-.0012-.0011-.0012-.0012-.0012-.0011-.0012-.0012-.0011-.0012-.0012-.0012-.0011-.0012-.0012-.0012-.0011-.0012-.0012-.0011-.0012-.0012-.0012-.0011-.0012-.0012-.0011-.0012-.0012-.0012-.0011-.0012-.0012-.0011-.0012-.0012-.0012-.0011-.0012-.0012-.0011-.0012-.0012-.0012-.0011-.0012-.0012-.0011-.0012-.0012-.0012-.0011-.0012-.0012-.0011-.0012-.0012-.0012-.0011-.0012-.0012-.0011-.0012-.0012-.0012-.0011-.0012-.0012-.0011-.0012-.0012-.0012-.0011-.0012-.0012-.0011-.0012-.0012-.0012-.0011-.0012-.0012-.0011-.0012-.0012-.0012-.0011-.0012-.0012-.0011-.0012-.0012-.0012-.0011-.0012-.0012-.0011-.0012-.0012-.0012-.0011-.0012-.0012-.0011-.0012-.0012-.0012-.0011-.0012-.0012-.0011-.0012-.0012-.0012-.0011-.0012-.0012-.0011-.0012-.0012-.0012-.0011-.0012-.0012-.0011-.0012-.0012-.0012-.0011-.0012-.0012-.0011-.0012-.0012-.0012-.0011-.0012-.0012-.0011-.0012-.0012-.0012-.0011-.0012-.0012-.0011-.0012-.0012-.0012-.0011-.0012-.0012-.0011-.0012-.0012-.0012-.0011-.0012-.0012-.0011-.0012-.0012-.0012-.0011-.0012-.0012-.0012-.0011-.0012-.0012-.0011-.0012-.0012-.0012-.0011-.0012-.0012-.0011-.0012-.0012-.0012-.0011-.0012-.0012-.0011-.0012-.0012-.0012-.0011-.0012-.0012-.0011-.0012-.0012-.0012-.0011-.0012-.0012-.0011-.0012-.0012-.0012-.0011-.0012-.0012-.0011-.0012-.0012-.0012-.0011-.0012-.0012-.0011-.0012-.0012-.0012-.0011-.0012-.0012-.0011-.0012-.0012-.0012-.0011-.0012-.0012-.0011-.0012-.0012-.0012-.0011-.0012-.0012-.0011-.0012-.0012-.0012-.0011-.0012-.0012-.0011-.0012-.0012-.0012-.0011-.0012-.0012-.0011-.0012-.0012-.0012-.0011-.0012-.0012-.0011-.0012-.0012-.0012-.0011-.0012-.0012-.0011-.0012-.0012-.0012-.0011-.0012-.0012-.0011-.0012-.0012-.0012-.0011-.0012-.0012-.0011-.0012-.0012-.0012-.0011-.0012-.0012-.0011-.0012-.0012-.0012-.0011-.0012-.0012-.0011-.0012-.0012-.0012-.0011-.0012-.0012-.0011-.0012-.0012-.0012-.0011-.0012-.0012-.0011-.0012-.0012-.0012-.0011-.0012-.0012-.0011-.0012-.0012-.0012-.0011-.0012-.0012-.0011-.0012-.0012-.0012-.0011-.0012-.0012-.0012-.0011-.0012-.0012-.0011-.0012-.0012-.0006c.1932-5.336 4.5289-9.5058 9.786-9.3162 5.2756.1903 9.4161 4.565 9.2278 9.89-.0002.0057-.0003.0115-.0003.0173z"/></g></svg>