<svg fill="none" height="72" viewBox="0 0 72 72" width="72" xmlns="http://www.w3.org/2000/svg"><g stroke="#050504"><path d="m46.9195 19.9867c.0008 2.1729-.6428 4.2971-1.8493 6.1042s-2.9218 3.2158-4.929 4.0481c-2.0071.8322-4.216 1.0505-6.3472.6274-2.1313-.4232-4.0892-1.4688-5.6261-3.0047-1.537-1.5359-2.584-3.493-3.0087-5.624-.4247-2.1309-.2079-4.3399.6229-6.3477.8308-2.0077 2.2383-3.724 4.0445-4.9318 1.8063-1.20783 3.9301-1.85291 6.1029-1.85368 1.4129-.04108 2.82.1988 4.1394.70572 1.3195.50696 2.5252 1.27076 3.5472 2.24736 1.022.9765 1.8399 2.1462 2.4063 3.4413.5664 1.295.87 2.6897.8932 4.103z" stroke-linecap="round" stroke-linejoin="round"/><path d="m53.9999 65.6436v-16.6043c.0078-2.3429-.448-4.6641-1.341-6.8301s-2.2056-4.134-3.8623-5.7907c-1.6566-1.6567-3.6246-2.9693-5.7906-3.8623s-4.4873-1.3487-6.8301-1.341c-2.3429-.0077-4.6642.448-6.8302 1.341s-4.134 2.2056-5.7906 3.8623c-1.6567 1.6567-2.9693 3.6247-3.8623 5.7907s-1.3488 4.4872-1.341 6.8301v16.6043"/></g></svg>