<svg fill="none" height="72" viewBox="0 0 72 72" width="72" xmlns="http://www.w3.org/2000/svg"><path clip-rule="evenodd" d="m24.4359 7.51002v-.00014l-.0113.00029c-5.7795.144-10.3507 4.93193-10.2222 10.71073-.095 4.6099 2.8045 8.5934 6.9178 10.0814-7.3565 1.755-12.82473 8.6288-12.82473 16.8065v18.701c0 .2706.21938.49.49.49h32.07183c.0108 0 .0214-.0004.032-.001.0078.0005.0156.0008.0235.0009.0029.0001.0058.0001.0087.0001h22.0528c.2706 0 .49-.2194.49-.49v-12.7024c0-5.4999-3.8545-10.0987-9.0098-11.2428 2.9236-.9603 4.9881-3.7628 4.8801-6.9888.0086-.1145.0081-.2337-.0007-.3512v-.0001-.0001-.0001-.0001-.0001-.0001-.0001-.0001-.0001-.0001-.0001-.0001-.0001-.0001-.0001-.0001-.0001-.0001-.0001-.0001-.0001-.0001-.0001-.0001-.0001-.0001-.0001-.0001-.0001-.0001-.0001-.0001-.0001-.0001-.0001-.0001-.0001-.0001-.0001-.0001-.0001-.0001-.0001-.0001-.0001-.0001-.0001-.0001-.0001-.0001-.0001-.0001-.0001-.0001-.0001-.0001-.0001-.0001-.0001-.0001-.0001-.0001-.0001-.0001-.0001-.0001-.0001-.0001-.0001-.0001-.0001-.0001-.0001-.0001-.0001-.0001-.0001-.0001-.0001-.0001-.0001-.0001-.0001-.0001-.0001-.0001-.0001-.0001-.0001-.0001-.0001-.0001-.0001-.0001-.0001-.0001-.0001-.0001-.0001-.0001-.0001-.0001-.0001-.0001-.0001-.0001-.0001-.0001-.0001-.0001-.0001-.0001-.0001-.0001-.0001-.0001-.0001-.0001-.0001-.0001-.0001-.0001-.0001-.0001-.0001-.0001-.0001-.0001-.0001-.0001-.0001-.0001-.0001-.0001-.0001-.0001-.0001-.0001-.0001-.0001-.0001-.0001-.0001-.0001-.0001-.0001-.0001-.0001-.0001-.0001-.0001-.0001-.0001-.0001-.0001-.0001-.0001-.0001-.0001-.0001-.0001-.0001-.0001-.0001-.0001-.0001-.0001-.0001-.0001-.0001-.0001-.0001-.0001-.0001-.0024c-.0196-3.9145-3.1971-7.0736-7.1138-7.054v-.0001l-.0095.0003c-4.0005.098-7.1591 3.398-7.0904 7.3956-.0091.1751-.0089.3502.0007.5253.1065 2.9767 2.0344 5.4599 4.672 6.4204-3.8141.7218-6.9627 3.3241-8.4456 6.8065v-1.49c0-8.3564-5.7098-15.3513-13.3095-16.9142 3.9593-1.5648 6.7214-5.4667 6.6244-9.9671.0088-.18.0088-.3524-.0003-.5325-.0111-5.6363-4.5898-10.1946-10.226-10.18498zm-.6655 21.37518c.2162.0188.4343.031.6541.0365.0049.0001.0098.0002.0147.0002.0032-.0001.0065-.0001.0098-.0002.3109-.0078.6183-.029.9216-.0631 8.3126.3024 14.9967 7.4439 14.9967 16.2502v18.211h-31.09183v-18.211c0-8.6284 6.41683-15.6585 14.49493-16.2236zm1.5599-1.0086c4.7983-.5762 8.4665-4.717 8.3517-9.6447-.0003-.0124-.0001-.0248.0006-.0371.0082-.1569.0082-.3045 0-.4614-.0005-.0086-.0007-.0172-.0007-.0257v-.0084c-.0087-5.0939-4.1449-9.21492-9.2386-9.20929-5.2406.13364-9.3828 4.47829-9.2609 9.71909.0001.0074.0001.0147 0 .022-.1084 5.0096 3.6845 9.2055 8.5988 9.671.3439-.0222.6908-.0335 1.0402-.0335.1703 0 .3399.0027.5089.008zm20.77 4.969c-.068-3.4656 2.6652-6.3273 6.1295-6.4148 3.3707-.0144 6.1066 2.7045 6.1241 6.0778v.0001.0001.0001.0001.0001.0001.0001.0001.0001.0001.0001.0001.0001.0001.0001.0001.0001.0001.0001.0001.0001.0001.0001.0001.0001.0001.0001.0001.0001.0001.0001.0001.0001.0001.0001.0001.0001.0001.0001.0001.0001.0001.0001.0001.0001.0001.0001.0001.0001.0001.0001.0001.0001.0001.0001.0001.0001.0001.0001.0001.0001.0001.0001.0001.0001.0001.0001.0001.0001.0001.0001.0001.0001.0001.0001.0001.0001.0001.0001.0001.0001.0001.0001.0001.0001.0001.0001.0001.0001.0001.0001.0001.0001.0001.0001.0001.0001.0001.0001.0001.0001.0001.0001.0001.0001.0001.0001.0001.0001.0001.0001.0001.0001.0001.0001.0001.0001.0001.0001.0001.0001.0001.0001.0001.0001.0001.0001.0001.0001.0001.0001.0001.0001.0001.0001.0001.0001.0001.0001.0001.0001.0001.0001.0001.0001.0001.0001.0001.0001.0001.0001.0001.0001.0001.0001.0001.0001.0001.0001.0001.0001.0001.0001.0001.0001.0001.0001.0001.0001.0001.0001.0001.0001.0001.0001.0001.0001.0001.0001.0001.0001.0001.0001.0001.0001.0001.0001.0001.0001.0001.0001.0001.0001.0001.0001.0001.0001.0001.0001.0001.0001.0001.0001.0001.0001.0001.0001.0001.0001.0001.0001.0001.0001.0001.0001.0001.0001.0001.0001.0001.0001.0001.0001.0001.0001.0001.0001.0001.0001.0001.0001.0001.0001.0001.0001.0001.0001.0001.0001.0001.0001.0001.0001.0001.0001.0001.0001.0001.0001.0001.0001.0001.0001.0001.0001.0001.0001.0001.0001.0001.0001.0001.0001.0001.0001.0001.0001.0001.0001.0001.0001.0001.0001.0001.0001.0001.0001.0001.0001.0001.0001.0001.0001.0001.0001.0001.0001.0001.0001.0001.0001.0001.0001.0001.0001.0001.0001.0001.0001.0001.0001.0001.0001.0001.0001.0001.0001.0001.0001.0001.0001.0001.0001.0001.0001.0001.0001.0001.0001.0001.0001.0001.0001.0001.0001.0001.0001.0001.0001.0001.0001.0001.0001.0001.0001.0001.0001.0001.0001.0001.0001.0001.0001.0001.0001.0001.0001.0001.0001.0001.0001.0001.0001c0 .0043.0001.0087.0002.013.0001.0044.0003.0088.0005.0131l.001.0146c.007.0841.0067.1654.0003.2354-.0019.0209-.0024.0419-.0016.0628.1272 3.3836-2.5189 6.2327-5.9016 6.3514h-.0013c-3.3836.1272-6.2326-2.5188-6.3513-5.9016h.0001l-.0006-.01c-.0081-.1467-.0081-.2934 0-.4402.0007-.0122.0009-.0245.0007-.0368zm-4.6888 18.2618c0-5.8195 4.7168-10.5364 10.5364-10.5364 5.8195 0 10.5364 4.7169 10.5364 10.5364v12.2124h-21.0728z" fill="currentColor" fill-rule="evenodd"/></svg>