<svg fill="none" height="72" viewBox="0 0 72 72" width="72" xmlns="http://www.w3.org/2000/svg"><path clip-rule="evenodd" d="m36.3536 4.64645-.3536-.35356-.3536.35356-26.49995 26.49995-5 5c-.19527.1953-.19527.5119 0 .7072.19526.1952.51184.1952.7071 0l4.14645-4.1465v33.2929.5h.5 54 .5v-.5-32.2929l3.1464 3.1465c.1953.1952.5119.1952.7072 0 .1952-.1953.1952-.5119 0-.7072l-4-4-.8536-.8535v-18.2929-.5h-.5-11.1084-.5v.5 6.1845zm-26.3536 60.85355v-33.7929l26-25.99999 15.038 15.03799 11.1084 11.1085.8536.8535v32.7929zm52-52v16.7929l-10.1084-10.1084v-6.6845zm-35.9645 30.6613c0-5.5862 4.5285-10.1147 10.1148-10.1147 5.5862 0 10.1147 4.5285 10.1147 10.1147 0 5.5863-4.5285 10.1148-10.1147 10.1148-5.5863 0-10.1148-4.5285-10.1148-10.1148zm10.1148-11.1147c-6.1385 0-11.1148 4.9762-11.1148 11.1147s4.9763 11.1148 11.1148 11.1148 11.1147-4.9763 11.1147-11.1148-4.9762-11.1147-11.1147-11.1147zm.6001 5.9075c0-.2761-.2239-.5-.5-.5-.2762 0-.5.2239-.5.5v4.8074h-4.9076c-.2762 0-.5.2238-.5.5 0 .2761.2238.5.5.5h4.9076v4.9075c0 .2761.2238.5.5.5.2761 0 .5-.2239.5-.5v-4.9075h4.8073c.2761 0 .5-.2239.5-.5 0-.2762-.2239-.5-.5-.5h-4.8073z" fill="currentColor" fill-rule="evenodd"/></svg>