<svg fill="none" height="72" viewBox="0 0 72 72" width="72" xmlns="http://www.w3.org/2000/svg"><path clip-rule="evenodd" d="m67.5437 6.56526c.197-.19354.1998-.51011.0062-.70708-.1935-.19697-.5101-.19974-.707-.0062l-22.2817 21.89412v-21.03748c0-.27614-.2239-.5-.5-.5-.2762 0-.5.22386-.5.5v44.46178c0 .2761.2238.5.5.5.2761 0 .5-.2239.5-.5v-21.1363l22.2817 21.8942c.1969.1935.5135.1907.707-.0062.1936-.197.1908-.5136-.0062-.7071l-22.72-22.3249zm-39.6822 8.52124c.1469-.2338.0764-.5425-.1575-.6893-.2338-.1469-.5424-.0764-.6893.1574l-22.83172 36.3505c-.09679.1541-.10222.3486-.01419.5079.08804.1592.25563.2581.43759.2581h24.43462v13.92c0 .2761.2239.5.5.5.2762 0 .5-.2239.5-.5v-13.92h6.1092c.2761 0 .5-.2239.5-.5 0-.2762-.2239-.5-.5-.5h-6.1092v-19.1273c0-.2761-.2238-.5-.5-.5-.2761 0-.5.2239-.5.5v19.1273h-23.53012z" fill="#050504" fill-rule="evenodd"/></svg>