<svg fill="none" height="72" viewBox="0 0 72 72" width="72" xmlns="http://www.w3.org/2000/svg"><path d="m66 17h-60v38h60z" stroke="currentColor" stroke-linecap="round" stroke-linejoin="round"/><path clip-rule="evenodd" d="m17.7362 28.6876c.1758.0823.2882.2588.2882.4529v13.0181c0 .2761-.2239.5-.5.5-.2762 0-.5-.2239-.5-.5v-11.9494l-3.204 2.6747c-.2119.1769-.5273.1485-.7042-.0634-.177-.212-.1486-.5273.0634-.7043l4.0243-3.3595c.149-.1244.3565-.1513.5323-.0691zm11.3048 4.2712c-.0927-1.7163-1.6522-3.1049-3.3804-3.0185-1.7218.0861-3.1171 1.6489-3.0305 3.3811.0004.0083.0006.0166.0006.0249v4.9069.0005.0006.0006.0006.0006.0006.0006.0006.0006.0006.0007.0006.0006.0006.0006.0006.0007.0006.0006.0006.0007.0006.0006.0007.0006.0007.0006.0007.0006.0007.0006.0007.0006.0007.0006.0007.0007.0006.0007.0007.0006.0007.0007.0007.0006.0007.0007.0007.0007.0007.0007.0007.0007.0007.0007.0007.0007.0007.0007.0007.0007.0007.0007.0007.0007.0007.0008.0007.0007.0007.0008.0007.0007.0008.0007.0007.0008.0007.0007.0008.0007.0008.0007.0007.0008.0007.0008.0008.0007.0008.0007.0008.0007.0008.0008.0007.0008.0008.0007.0008.0008.0007.0008.0008.0008.0008.0007.0008.0008.0008.0008.0008.0007.0008.0008.0008.0008.0008.0008.0008.0008.0008.0008.0008.0008.0008.0008.0008.0008.0008.0008.0008.0009.0008.0008.0008.0008.0008.0009.0008.0008.0008.0008.0009.0008.0008.0008.0009.0008.0008.0009.0008.0008.0008.0009.0008.0009.0008.0008.0009.0008.0008.0009.0008.0009.0008.0009.0008.0008.0009.0008.0009.0008.0009.0008.0009.0008.0009.0008.0009.0009.0008.0009.0008.0009.0008.0009.0009.0008.0009.0008.0009.0009.0008.0009.0009.0008.0009.0008.0009.0009.0008.0009.0009.0008.0009.0009.0009.0008.0009.0009.0008.0009.0009.0009.0008.0009.0009.0008.0009.0009.0009.0008.0009.0009.0009.0009.0008.0009.0009.0009.0008.0009.0009.0009.0008.0009.0009.0009.0009.0008.0009.0009.0009.0009.0008.0009.0009.0009.0009.0008.0009.0009.0009.0009.0008.0009.0009.0009.0009.0008.0009.0009.0009.0009.0008.0009.0009.0009.0009.0008.0009.0009.0009.0008.0009.0009.0009.0009.0008.0009.0009.0009.0008.0009.0009.0009.0009.0008.0009.0009.0009.0008.0009.0009.0008.0009.0009.0009.0008.0009.0009.0008.0009.0009.0009.0008.0009.0009.0008.0009.0009.0008.0009.0009.0008.0009.0008.0009.0009.0008.0009.0009.0008.0009.0008.0009.0008.0009.0009.0008.0009.0008.0009.0008.0009.0008.0009.0008.0009.0008.0009.0008.0009.0008.0009.0008.0008.0009.0008.0009.0008.0008.0009.0008.0009.0008.0008.0009.0008.0008.0009.0008.0008.0008.0009.0008.0008.0008.0009.0008.0008.0008.0008.0009.0008.0008.0008.0008.0008.0008.0008.0009.0008.0008.0008.0008.0008.0008.0008.0008.0008.0008.0008.0008.0008.0008.0007.0008.0008.0008.0008.0008.0008.0007.0008.0008.0008.0008.0007.0008.0008.0007.0008.0008.0007.0008.0008.0007.0008.0008.0007.0008.0007.0008.0007.0008.0007.0008.0007.0008.0007.0007.0008.0007.0008.0007.0007.0008.0007.0007.0007.0008.0007.0007.0007.0007.0008.0007.0007.0007.0007.0007.0007.0007.0007.0007.0007.0007.0007.0007.0007.0007.0007.0007.0006.0007.0007.0007.0007.0006.0007.0007.0006.0007.0007.0006.0007.0007.0006.0007.0006.0007.0006.0007.0006.0007.0006.0006.0007.0004c.0928 1.7163 1.6523 3.1049 3.3805 3.0185 1.7218-.0861 3.1171-1.6489 3.0305-3.3811-.0005-.0083-.0007-.0166-.0007-.0249v-4.9069-.0005-.0006-.0006-.0006-.0006-.0006-.0006-.0006-.0006-.0006-.0006-.0007-.0006-.0006-.0006-.0006-.0007-.0006-.0006-.0006-.0007-.0006-.0006-.0007-.0006-.0007-.0006-.0007-.0006-.0007-.0006-.0007-.0006-.0007-.0006-.0007-.0007-.0006-.0007-.0007-.0006-.0007-.0007-.0007-.0006-.0007-.0007-.0007-.0007-.0007-.0007-.0007-.0007-.0006-.0007-.0007-.0007-.0008-.0007-.0007-.0007-.0007-.0007-.0007-.0007-.0007-.0008-.0007-.0007-.0007-.0008-.0007-.0007-.0007-.0008-.0007-.0007-.0008-.0007-.0008-.0007-.0008-.0007-.0007-.0008-.0007-.0008-.0007-.0008-.0008-.0007-.0008-.0007-.0008-.0008-.0007-.0008-.0008-.0007-.0008-.0008-.0007-.0008-.0008-.0008-.0008-.0007-.0008-.0008-.0008-.0008-.0008-.0007-.0008-.0008-.0008-.0008-.0008-.0008-.0008-.0008-.0008-.0008-.0008-.0008-.0008-.0008-.0008-.0008-.0008-.0008-.0008-.0009-.0008-.0008-.0008-.0008-.0008-.0008-.0009-.0008-.0008-.0008-.0009-.0008-.0008-.0008-.0009-.0008-.0008-.0008-.0009-.0008-.0008-.0009-.0008-.0008-.0009-.0008-.0009-.0008-.0008-.0009-.0008-.0009-.0008-.0009-.0008-.0008-.0009-.0008-.0009-.0008-.0009-.0008-.0009-.0008-.0009-.0008-.0009-.0009-.0008-.0009-.0008-.0009-.0008-.0009-.0009-.0008-.0009-.0008-.0009-.0009-.0008-.0009-.0008-.0009-.0009-.0008-.0009-.0009-.0008-.0009-.0009-.0008-.0009-.0009-.0009-.0008-.0009-.0009-.0008-.0009-.0009-.0009-.0008-.0009-.0009-.0008-.0009-.0009-.0009-.0008-.0009-.0009-.0009-.0008-.0009-.0009-.0009-.0009-.0008-.0009-.0009-.0009-.0008-.0009-.0009-.0009-.0009-.0008-.0009-.0009-.0009-.0009-.0008-.0009-.0009-.0009-.0009-.0008-.0009-.0009-.0009-.0009-.0008-.0009-.0009-.0009-.0009-.0008-.0009-.0009-.0009-.0009-.0008-.0009-.0009-.0009-.0009-.0008-.0009-.0009-.0009-.0008-.0009-.0009-.0009-.0009-.0008-.0009-.0009-.0009-.0008-.0009-.0009-.0009-.0008-.0009-.0009-.0009-.0008-.0009-.0009-.0009-.0008-.0009-.0009-.0009-.0008-.0009-.0009-.0008-.0009-.0009-.0009-.0008-.0009-.0009-.0008-.0009-.0009-.0008-.0009-.0009-.0008-.0009-.0008-.0009-.0009-.0008-.0009-.0009-.0008-.0009-.0008-.0009-.0008-.0009-.0009-.0008-.0009-.0008-.0009-.0008-.0009-.0008-.0009-.0008-.0009-.0008-.0009-.0008-.0009-.0008-.0009-.0008-.0008-.0009-.0008-.0009-.0008-.0008-.0009-.0008-.0009-.0008-.0008-.0009-.0008-.0008-.0008-.0009-.0008-.0008-.0009-.0008-.0008-.0008-.0009-.0008-.0008-.0008-.0008-.0009-.0008-.0008-.0008-.0008-.0008-.0008-.0008-.0009-.0008-.0008-.0008-.0008-.0008-.0008-.0008-.0008-.0008-.0008-.0008-.0008-.0008-.0007-.0008-.0008-.0008-.0008-.0008-.0008-.0008-.0007-.0008-.0008-.0008-.0007-.0008-.0008-.0008-.0007-.0008-.0008-.0007-.0008-.0008-.0007-.0008-.0008-.0007-.0008-.0007-.0008-.0007-.0008-.0007-.0008-.0007-.0008-.0007-.0007-.0008-.0007-.0008-.0007-.0007-.0008-.0007-.0007-.0007-.0008-.0007-.0007-.0007-.0007-.0008-.0007-.0007-.0007-.0007-.0007-.0007-.0007-.0007-.0007-.0007-.0007-.0007-.0007-.0007-.0007-.0007-.0007-.0006-.0007-.0007-.0007-.0007-.0006-.0007-.0007-.0006-.0007-.0007-.0006-.0007-.0007-.0006-.0007-.0006-.0007-.0006-.0007-.0006-.0006-.0007-.0006-.0007zm-3.4304-4.0173c2.2734-.1136 4.3156 1.6955 4.4298 3.9793.0004.0083.0006.0167.0006.025v.0006.0006.0006.0006.0006.0006.0006.0006.0006.0006.0006.0006.0006.0006.0006.0007.0006.0006.0006.0007.0006.0006.0007.0006.0007.0006.0006.0007.0006.0007.0006.0007.0006.0007.0007.0006.0007.0007.0006.0007.0007.0006.0007.0007.0007.0007.0006.0007.0007.0007.0007.0007.0007.0007.0007.0007.0007.0007.0007.0007.0007.0007.0007.0007.0008.0007.0007.0007.0007.0008.0007.0007.0007.0008.0007.0007.0008.0007.0008.0007.0007.0008.0007.0008.0007.0008.0007.0008.0007.0008.0007.0008.0008.0007.0008.0008.0007.0008.0008.0007.0008.0008.0008.0007.0008.0008.0008.0007.0008.0008.0008.0008.0008.0008.0008.0007.0008.0008.0008.0008.0008.0008.0008.0008.0008.0008.0008.0008.0008.0009.0008.0008.0008.0008.0008.0008.0008.0009.0008.0008.0008.0008.0009.0008.0008.0008.0009.0008.0008.0009.0008.0008.0008.0009.0008.0008.0009.0008.0009.0008.0008.0009.0008.0009.0008.0008.0009.0008.0009.0008.0009.0008.0009.0008.0009.0008.0009.0008.0009.0008.0009.0008.0009.0009.0008.0009.0008.0009.0008.0009.0009.0008.0009.0009.0008.0009.0008.0009.0009.0008.0009.0009.0008.0009.0009.0008.0009.0009.0009.0008.0009.0009.0008.0009.0009.0009.0008.0009.0009.0009.0008.0009.0009.0009.0008.0009.0009.0009.0008.0009.0009.0009.0008.0009.0009.0009.0009.0008.0009.0009.0009.0008.0009.0009.0009.0009.0008.0009.0009.0009.0009.0008.0009.0009.0009.0009.0008.0009.0009.0009.0009.0008.0009.0009.0009.0009.0008.0009.0009.0009.0009.0008.0009.0009.0009.0009.0008.0009.0009.0009.0008.0009.0009.0009.0009.0008.0009.0009.0009.0008.0009.0009.0009.0008.0009.0009.0008.0009.0009.0009.0008.0009.0009.0008.0009.0009.0009.0008.0009.0009.0008.0009.0009.0008.0009.0009.0008.0009.0008.0009.0009.0008.0009.0008.0009.0009.0008.0009.0008.0009.0008.0009.0009.0008.0009.0008.0009.0008.0009.0008.0009.0008.0009.0008.0008.0009.0008.0009.0008.0009.0008.0008.0009.0008.0009.0008.0008.0009.0008.0008.0009.0008.0008.0008.0009.0008.0008.0008.0009.0008.0008.0008.0009.0008.0008.0008.0008.0008.0008.0009.0008.0008.0008.0008.0008.0008.0008.0008.0008.0008.0008.0008.0008.0008.0008.0008.0008.0008.0008.0007.0008.0008.0008.0008.0008.0007.0008.0008.0008.0008.0007.0008.0008.0007.0008.0008.0007.0008.0008.0007.0008.0007.0008.0008.0007.0008.0007.0008.0007.0007.0008.0007.0008.0007.0008.0007.0007.0008.0007.0007.0007.0008.0007.0007.0007.0008.0007.0007.0007.0007.0007.0007.0007.0007.0008.0007.0007.0007.0006.0007.0007.0007.0007.0007.0007.0007.0007.0006.0007.0007.0007.0006.0007.0007.0006.0007.0007.0006.0007.0006.0007.0006.0007.0006.0007.0006.0007.0006.0007.0006.0006.0007.0006.0006.0006.0007.0006.0006.0006.0006.0007.0006.0006.0006.0006.0006.0006.0006.0006.0006.0006.0005 4.8948c.1062 2.2682-1.7004 4.3029-3.9799 4.4169-2.2733.1136-4.3155-1.6955-4.4297-3.9793-.0004-.0083-.0007-.0167-.0007-.025v-.0006-.0006-.0006-.0006-.0005-.0006-.0006-.0007-.0006-.0006-.0006-.0006-.0006-.0006-.0006-.0007-.0006-.0006-.0006-.0007-.0006-.0006-.0007-.0006-.0006-.0007-.0006-.0007-.0006-.0007-.0006-.0007-.0006-.0007-.0007-.0006-.0007-.0007-.0006-.0007-.0007-.0006-.0007-.0007-.0007-.0007-.0006-.0007-.0007-.0007-.0007-.0007-.0007-.0007-.0007-.0007-.0007-.0007-.0007-.0007-.0007-.0007-.0007-.0007-.0008-.0007-.0007-.0007-.0007-.0008-.0007-.0007-.0007-.0008-.0007-.0007-.0008-.0007-.0008-.0007-.0007-.0008-.0007-.0008-.0007-.0008-.0007-.0008-.0007-.0008-.0007-.0008-.0008-.0007-.0008-.0008-.0007-.0008-.0008-.0007-.0008-.0008-.0007-.0008-.0008-.0008-.0008-.0007-.0008-.0008-.0008-.0008-.0008-.0008-.0007-.0008-.0008-.0008-.0008-.0008-.0008-.0008-.0008-.0008-.0008-.0008-.0008-.0008-.0008-.0009-.0008-.0008-.0008-.0008-.0008-.0008-.0008-.0009-.0008-.0008-.0008-.0008-.0009-.0008-.0008-.0008-.0009-.0008-.0008-.0008-.0009-.0008-.0008-.0009-.0008-.0008-.0009-.0008-.0009-.0008-.0008-.0009-.0008-.0009-.0008-.0008-.0009-.0008-.0009-.0008-.0009-.0008-.0009-.0008-.0009-.0008-.0009-.0008-.0009-.0008-.0009-.0008-.0009-.0009-.0008-.0009-.0008-.0009-.0008-.0009-.0009-.0008-.0009-.0009-.0008-.0009-.0008-.0009-.0009-.0008-.0009-.0009-.0008-.0009-.0009-.0008-.0009-.0009-.0009-.0008-.0009-.0009-.0008-.0009-.0009-.0009-.0008-.0009-.0009-.0008-.0009-.0009-.0009-.0008-.0009-.0009-.0009-.0009-.0008-.0009-.0009-.0009-.0008-.0009-.0009-.0009-.0009-.0008-.0009-.0009-.0009-.0008-.0009-.0009-.0009-.0009-.0008-.0009-.0009-.0009-.0009-.0008-.0009-.0009-.0009-.0009-.0008-.0009-.0009-.0009-.0009-.0008-.0009-.0009-.0009-.0009-.0008-.0009-.0009-.0009-.0009-.0008-.0009-.0009-.0009-.0009-.0008-.0009-.0009-.0009-.0008-.0009-.0009-.0009-.0008-.0009-.0009-.0009-.0009-.0008-.0009-.0009-.0009-.0008-.0009-.0009-.0008-.0009-.0009-.0009-.0008-.0009-.0009-.0008-.0009-.0009-.0009-.0008-.0009-.0009-.0008-.0009-.0009-.0008-.0009-.0008-.0009-.0009-.0008-.0009-.0009-.0008-.0009-.0008-.0009-.0009-.0008-.0009-.0008-.0009-.0008-.0009-.0009-.0008-.0009-.0008-.0009-.0008-.0009-.0008-.0009-.0008-.0009-.0008-.0008-.0009-.0008-.0009-.0008-.0009-.0008-.0008-.0009-.0008-.0008-.0009-.0008-.0009-.0008-.0008-.0008-.0009-.0008-.0008-.0009-.0008-.0008-.0008-.0009-.0008-.0008-.0008-.0008-.0009-.0008-.0008-.0008-.0008-.0008-.0009-.0008-.0008-.0008-.0008-.0008-.0008-.0008-.0008-.0008-.0008-.0008-.0008-.0008-.0008-.0008-.0008-.0008-.0008-.0008-.0007-.0008-.0008-.0008-.0008-.0008-.0007-.0008-.0008-.0008-.0008-.0007-.0008-.0008-.0007-.0008-.0008-.0007-.0008-.0008-.0007-.0008-.0007-.0008-.0007-.0008-.0008-.0007-.0008-.0007-.0007-.0008-.0007-.0008-.0007-.0007-.0008-.0007-.0007-.0008-.0007-.0007-.0008-.0007-.0007-.0007-.0008-.0007-.0007-.0007-.0007-.0007-.0007-.0007-.0007-.0007-.0007-.0007-.0007-.0007-.0007-.0007-.0007-.0007-.0007-.0007-.0007-.0007-.0006-.0007-.0007-.0007-.0006-.0007-.0007-.0006-.0007-.0007-.0006-.0007-.0006-.0007-.0006-.0007-.0006-.0007-.0006-.0007-.0006-.0007-.0006-.0006-.0007-.0006-.0006-.0006-.0007-.0006-.0006-.0006-.0006-.0006-.0007-.0006-.0006-.0006-.0006-.0006-.0006-.0006-.0006-.0006-.0005-4.8948c-.1062-2.2681 1.7005-4.3029 3.9799-4.4169zm10.2392.8993c-1.226 0-2.2038.9778-2.2038 2.2037 0 1.226.9778 2.2038 2.2038 2.2038 1.2259 0 2.2037-.9778 2.2037-2.2038 0-1.2259-.9778-2.2037-2.2037-2.2037zm-3.2038 2.2037c0-1.7782 1.4256-3.2037 3.2038-3.2037s3.2037 1.4255 3.2037 3.2037c0 1.1352-.5809 2.1266-1.4636 2.6953 1.4396.676 2.465 2.151 2.465 3.8138 0 2.2789-1.9262 4.2051-4.2051 4.2051s-4.2051-1.9262-4.2051-4.2051c0-1.6628 1.0254-3.1378 2.465-3.8138-.8827-.5686-1.4637-1.5601-1.4637-2.6953zm3.2038 3.3039c-1.7266 0-3.2051 1.4785-3.2051 3.2052 0 1.7266 1.4785 3.2051 3.2051 3.2051s3.2051-1.4785 3.2051-3.2051c0-1.7267-1.4785-3.2052-3.2051-3.2052zm10.2391-5.4081c1.7282-.0864 3.2878 1.3022 3.3805 3.0185v.0004.0007.0006.0006.0007.0006.0007.0006.0007.0006.0007.0006.0007.0007.0006.0007.0007.0006.0007.0007.0006.0007.0007.0007.0007.0006.0007.0007.0007.0007.0007.0007.0007.0007.0007.0007.0007.0007.0007.0007.0007.0007.0007.0008.0007.0007.0007.0007.0008.0007.0007.0007.0008.0007.0007.0008.0007.0008.0007.0007.0008.0007.0008.0007.0008.0007.0008.0007.0008.0007.0008.0008.0007.0008.0008.0007.0008.0008.0007.0008.0008.0007.0008.0008.0008.0008.0007.0008.0008.0008.0008.0008.0008.0007.0008.0008.0008.0008.0008.0008.0008.0008.0008.0008.0008.0008.0008.0008.0008.0009.0008.0008.0008.0008.0008.0008.0009.0008.0008.0008.0008.0009.0008.0008.0008.0009.0008.0008.0008.0009.0008.0008.0009.0008.0008.0009.0008.0009.0008.0008.0009.0008.0009.0008.0008.0009.0008.0009.0008.0009.0008.0009.0008.0009.0008.0009.0008.0009.0008.0009.0008.0009.0008.0009.0009.0008.0009.0008.0009.0009.0008.0009.0008.0009.0009.0008.0009.0009.0008.0009.0009.0008.0009.0009.0008.0009.0009.0008.0009.0009.0009.0008.0009.0009.0009.0008.0009.0009.0008.0009.0009.0009.0008.0009.0009.0009.0008.0009.0009.0009.0009.0008.0009.0009.0009.0008.0009.0009.0009.0009.0008.0009.0009.0009.0009.0008.0009.0009.0009.0009.0008.0009.0009.0009.0009.0008.0009.0009.0009.0009.0008.0009.0009.0009.0009.0008.0009.0009.0009.0009.0008.0009.0009.0009.0009.0008.0009.0009.0009.0008.0009.0009.0009.0008.0009.0009.0009.0009.0008.0009.0009.0008.0009.0009.0009.0008.0009.0009.0009.0008.0009.0009.0008.0009.0009.0008.0009.0009.0009.0008.0009.0009.0008.0009.0008.0009.0009.0008.0009.0009.0008.0009.0008.0009.0009.0008.0009.0008.0009.0008.0009.0008.0009.0009.0008.0009.0008.0009.0008.0009.0008.0008.0009.0008.0009.0008.0009.0008.0009.0008.0008.0009.0008.0008.0009.0008.0008.0009.0008.0008.0009.0008.0008.0009.0008.0008.0008.0009.0008.0008.0008.0008.0009.0008.0008.0008.0008.0008.0009.0008.0008.0008.0008.0008.0008.0008.0008.0008.0008.0008.0008.0008.0008.0008.0008.0008.0008.0008.0007.0008.0008.0008.0008.0008.0007.0008.0008.0008.0007.0008.0008.0008.0007.0008.0008.0007.0008.0008.0007.0008.0007.0008.0007.0008.0008.0007.0007.0008.0007.0008.0007.0008.0007.0007.0008.0007.0007.0008.0007.0007.0008.0007.0007.0007.0007.0008.0007.0007.0007.0007.0007.0007.0007.0007.0007.0007.0007.0007.0007.0007.0007.0007.0007.0007.0007.0006.0007.0007.0007.0007.0006.0007.0007.0006.0007.0007.0006.0007.0006.0007.0006.0007.0006.0007.0006.0007.0006.0007.0006.0006.0007.0006.0006.0006.0007.0006.0006.0006.0006.0006.0007.0006.0006.0006.0006.0006.0006.0006.0006.0005.0006 4.9069c0 .0083.0002.0166.0006.0249.0866 1.7322-1.3086 3.295-3.0304 3.3811-1.7282.0864-3.2878-1.3022-3.3805-3.0185v-.0004-.0007-.0006-.0007-.0006-.0006-.0007-.0006-.0007-.0006-.0007-.0006-.0007-.0007-.0006-.0007-.0007-.0006-.0007-.0007-.0006-.0007-.0007-.0007-.0007-.0006-.0007-.0007-.0007-.0007-.0007-.0007-.0007-.0007-.0007-.0007-.0007-.0007-.0007-.0007-.0007-.0007-.0007-.0008-.0007-.0007-.0007-.0007-.0008-.0007-.0007-.0008-.0007-.0007-.0007-.0008-.0007-.0008-.0007-.0007-.0008-.0007-.0008-.0007-.0008-.0007-.0008-.0007-.0008-.0008-.0007-.0008-.0007-.0008-.0008-.0007-.0008-.0008-.0007-.0008-.0008-.0008-.0007-.0008-.0008-.0008-.0007-.0008-.0008-.0008-.0008-.0008-.0008-.0008-.0007-.0008-.0008-.0008-.0008-.0008-.0008-.0008-.0008-.0008-.0008-.0008-.0008-.0008-.0009-.0008-.0008-.0008-.0008-.0008-.0008-.0008-.0009-.0008-.0008-.0008-.0008-.0009-.0008-.0008-.0008-.0009-.0008-.0008-.0009-.0008-.0008-.0008-.0009-.0008-.0008-.0009-.0008-.0009-.0008-.0008-.0009-.0008-.0009-.0008-.0008-.0009-.0008-.0009-.0008-.0009-.0008-.0009-.0008-.0009-.0008-.0009-.0008-.0009-.0008-.0009-.0008-.0009-.0009-.0008-.0009-.0008-.0009-.0008-.0009-.0009-.0008-.0009-.0009-.0008-.0009-.0008-.0009-.0009-.0008-.0009-.0009-.0008-.0009-.0009-.0008-.0009-.0009-.0009-.0008-.0009-.0009-.0008-.0009-.0009-.0009-.0008-.0009-.0009-.0009-.0008-.0009-.0009-.0009-.0008-.0009-.0009-.0009-.0008-.0009-.0009-.0009-.0008-.0009-.0009-.0009-.0009-.0008-.0009-.0009-.0009-.0009-.0008-.0009-.0009-.0009-.0008-.0009-.0009-.0009-.0009-.0008-.0009-.0009-.0009-.0009-.0008-.0009-.0009-.0009-.0009-.0008-.0009-.0009-.0009-.0009-.0008-.0009-.0009-.0009-.0009-.0008-.0009-.0009-.0009-.0009-.0008-.0009-.0009-.0009-.0008-.0009-.0009-.0009-.0009-.0008-.0009-.0009-.0009-.0008-.0009-.0009-.0009-.0008-.0009-.0009-.0009-.0008-.0009-.0009-.0008-.0009-.0009-.0008-.0009-.0009-.0009-.0008-.0009-.0009-.0008-.0009-.0009-.0008-.0009-.0009-.0008-.0009-.0008-.0009-.0009-.0008-.0009-.0008-.0009-.0009-.0008-.0009-.0008-.0009-.0008-.0009-.0009-.0008-.0009-.0008-.0009-.0008-.0009-.0008-.0009-.0008-.0009-.0008-.0008-.0009-.0008-.0009-.0008-.0009-.0008-.0008-.0009-.0008-.0009-.0008-.0008-.0009-.0008-.0008-.0009-.0008-.0008-.0008-.0009-.0008-.0008-.0008-.0009-.0008-.0008-.0008-.0009-.0008-.0008-.0008-.0008-.0008-.0008-.0009-.0008-.0008-.0008-.0008-.0008-.0008-.0008-.0008-.0008-.0008-.0008-.0008-.0008-.0008-.0008-.0008-.0008-.0008-.0008-.0008-.0007-.0008-.0008-.0008-.0008-.0008-.0007-.0008-.0008-.0008-.0007-.0008-.0008-.0007-.0008-.0008-.0007-.0008-.0008-.0007-.0008-.0007-.0008-.0008-.0007-.0008-.0007-.0008-.0007-.0007-.0008-.0007-.0008-.0007-.0008-.0007-.0007-.0008-.0007-.0007-.0007-.0008-.0007-.0007-.0007-.0008-.0007-.0007-.0007-.0007-.0007-.0007-.0007-.0008-.0007-.0007-.0007-.0007-.0007-.0006-.0007-.0007-.0007-.0007-.0007-.0007-.0007-.0006-.0007-.0007-.0007-.0006-.0007-.0007-.0006-.0007-.0007-.0006-.0007-.0006-.0007-.0007-.0006-.0007-.0006-.0006-.0007-.0006-.0007-.0006-.0006-.0007-.0006-.0006-.0006-.0007-.0006-.0006-.0006-.0006-.0007-.0006-.0006-.0006-.0006-.0006-.0006-.0006-.0006-.0006-.0006-.0005-4.9069c0-.0083-.0002-.0166-.0006-.0249-.0866-1.7322 1.3087-3.295 3.0304-3.3811zm4.3799 2.9805c-.1142-2.2838-2.1564-4.0929-4.4298-3.9793-2.2795.114-4.0861 2.1487-3.9799 4.4169v4.8948.0005.0006.0006.0006.0006.0006.0006.0006.0006.0006.0006.0007.0006.0006.0006.0006.0007.0006.0006.0006.0007.0006.0006.0007.0006.0007.0006.0006.0007.0006.0007.0007.0006.0007.0006.0007.0007.0006.0007.0007.0006.0007.0007.0007.0006.0007.0007.0007.0007.0007.0007.0007.0006.0007.0007.0007.0007.0007.0008.0007.0007.0007.0007.0007.0007.0007.0008.0007.0007.0007.0008.0007.0007.0007.0008.0007.0007.0008.0007.0008.0007.0008.0007.0007.0008.0007.0008.0007.0008.0008.0007.0008.0007.0008.0008.0007.0008.0008.0007.0008.0008.0007.0008.0008.0008.0007.0008.0008.0008.0008.0008.0007.0008.0008.0008.0008.0008.0008.0008.0008.0008.0008.0008.0008.0008.0008.0008.0008.0008.0008.0008.0008.0009.0008.0008.0008.0008.0008.0008.0009.0008.0008.0008.0009.0008.0008.0008.0009.0008.0008.0008.0009.0008.0008.0009.0008.0008.0009.0008.0009.0008.0008.0009.0008.0009.0008.0009.0008.0008.0009.0008.0009.0008.0009.0008.0009.0008.0009.0008.0009.0009.0008.0009.0008.0009.0008.0009.0009.0008.0009.0008.0009.0009.0008.0009.0008.0009.0009.0008.0009.0009.0008.0009.0009.0008.0009.0009.0009.0008.0009.0009.0008.0009.0009.0008.0009.0009.0009.0008.0009.0009.0009.0008.0009.0009.0009.0008.0009.0009.0009.0009.0008.0009.0009.0009.0008.0009.0009.0009.0009.0008.0009.0009.0009.0009.0008.0009.0009.0009.0009.0008.0009.0009.0009.0009.0008.0009.0009.0009.0009.0008.0009.0009.0009.0009.0008.0009.0009.0009.0008.0009.0009.0009.0009.0008.0009.0009.0009.0009.0008.0009.0009.0009.0008.0009.0009.0009.0008.0009.0009.0009.0008.0009.0009.0009.0008.0009.0009.0009.0008.0009.0009.0008.0009.0009.0009.0008.0009.0009.0008.0009.0009.0008.0009.0009.0008.0009.0008.0009.0009.0008.0009.0009.0008.0009.0008.0009.0008.0009.0009.0008.0009.0008.0009.0008.0009.0008.0009.0008.0009.0008.0009.0008.0009.0008.0009.0008.0008.0009.0008.0009.0008.0008.0009.0008.0009.0008.0008.0009.0008.0008.0008.0009.0008.0008.0009.0008.0008.0008.0009.0008.0008.0008.0008.0009.0008.0008.0008.0008.0008.0008.0008.0009.0008.0008.0008.0008.0008.0008.0008.0008.0008.0008.0008.0008.0008.0007.0008.0008.0008.0008.0008.0008.0008.0007.0008.0008.0008.0007.0008.0008.0008.0007.0008.0008.0007.0008.0008.0007.0008.0007.0008.0008.0007.0008.0007.0008.0007.0008.0007.0008.0007.0007.0008.0007.0008.0007.0007.0007.0008.0007.0007.0008.0007.0007.0007.0007.0008.0007.0007.0007.0007.0007.0007.0007.0007.0007.0007.0007.0007.0007.0007.0007.0007.0007.0006.0007.0007.0007.0007.0006.0007.0007.0006.0007.0007.0006.0007.0007.0006.0007.0006.0007.0006.0007.0006.0006.0007.0006.0007.0006.0006.0007.0006.0006.0006.0007.0006.0006.0006.0006.0006.0006.0006.0006.0006.0006.0006.0006.0006.0006.0006l.0003.0169.0003.0081c.1142 2.2838 2.1565 4.0929 4.4298 3.9793 2.2795-.114 4.0861-2.1488 3.9799-4.4169v-4.8948-.0006-.0005-.0006-.0006-.0006-.0006-.0006-.0006-.0006-.0006-.0007-.0006-.0006-.0006-.0006-.0006-.0007-.0006-.0006-.0006-.0007-.0006-.0006-.0007-.0006-.0007-.0006-.0007-.0006-.0007-.0006-.0007-.0006-.0007-.0006-.0007-.0007-.0006-.0007-.0007-.0006-.0007-.0007-.0007-.0007-.0006-.0007-.0007-.0007-.0007-.0007-.0007-.0007-.0007-.0007-.0007-.0007-.0007-.0007-.0007-.0007-.0007-.0007-.0007-.0007-.0008-.0007-.0007-.0007-.0007-.0008-.0007-.0007-.0008-.0007-.0007-.0008-.0007-.0007-.0008-.0007-.0008-.0007-.0008-.0007-.0007-.0008-.0008-.0007-.0008-.0007-.0008-.0007-.0008-.0008-.0007-.0008-.0008-.0007-.0008-.0008-.0008-.0007-.0008-.0008-.0008-.0007-.0008-.0008-.0008-.0008-.0008-.0007-.0008-.0008-.0008-.0008-.0008-.0008-.0008-.0008-.0008-.0008-.0008-.0008-.0008-.0008-.0008-.0008-.0008-.0008-.0008-.0009-.0008-.0008-.0008-.0008-.0008-.0009-.0008-.0008-.0008-.0008-.0009-.0008-.0008-.0008-.0009-.0008-.0008-.0009-.0008-.0008-.0009-.0008-.0008-.0009-.0008-.0008-.0009-.0008-.0008-.0009-.0008-.0009-.0008-.0009-.0008-.0009-.0008-.0008-.0009-.0008-.0009-.0008-.0009-.0008-.0009-.0009-.0008-.0009-.0008-.0009-.0008-.0009-.0008-.0009-.0009-.0008-.0009-.0008-.0009-.0009-.0008-.0009-.0009-.0008-.0009-.0008-.0009-.0009-.0008-.0009-.0009-.0009-.0008-.0009-.0009-.0008-.0009-.0009-.0008-.0009-.0009-.0009-.0008-.0009-.0009-.0009-.0008-.0009-.0009-.0008-.0009-.0009-.0009-.0009-.0008-.0009-.0009-.0009-.0008-.0009-.0009-.0009-.0008-.0009-.0009-.0009-.0009-.0008-.0009-.0009-.0009-.0009-.0008-.0009-.0009-.0009-.0009-.0008-.0009-.0009-.0009-.0009-.0008-.0009-.0009-.0009-.0009-.0008-.0009-.0009-.0009-.0009-.0008-.0009-.0009-.0009-.0009-.0008-.0009-.0009-.0009-.0009-.0008-.0009-.0009-.0009-.0008-.0009-.0009-.0009-.0009-.0008-.0009-.0009-.0009-.0008-.0009-.0009-.0009-.0008-.0009-.0009-.0008-.0009-.0009-.0009-.0008-.0009-.0009-.0009-.0008-.0009-.0009-.0008-.0009-.0009-.0008-.0009-.0009-.0008-.0009-.0009-.0008-.0009-.0009-.0008-.0009-.0008-.0009-.0009-.0008-.0009-.0008-.0009-.0009-.0008-.0009-.0008-.0009-.0008-.0009-.0008-.0009-.0008-.0009-.0008-.0009-.0008-.0009-.0008-.0009-.0008-.0009-.0008-.0008-.0009-.0008-.0009-.0008-.0008-.0009-.0008-.0009-.0008-.0008-.0009-.0008-.0008-.0009-.0008-.0008-.0008-.0009-.0008-.0008-.0008-.0009-.0008-.0008-.0008-.0008-.0009-.0008-.0008-.0008-.0008-.0008-.0008-.0009-.0008-.0008-.0008-.0008-.0008-.0008-.0008-.0008-.0008-.0008-.0008-.0008-.0008-.0008-.0008-.0007-.0008-.0008-.0008-.0008-.0008-.0008-.0007-.0008-.0008-.0008-.0008-.0007-.0008-.0008-.0007-.0008-.0008-.0007-.0008-.0008-.0007-.0008-.0008-.0007-.0008-.0007-.0008-.0007-.0008-.0007-.0008-.0007-.0008-.0007-.0007-.0008-.0007-.0008-.0007-.0007-.0008-.0007-.0007-.0007-.0008-.0007-.0007-.0007-.0007-.0008-.0007-.0007-.0007-.0007-.0007-.0007-.0007-.0007-.0007-.0007-.0007-.0007-.0007-.0007-.0007-.0007-.0007-.0006-.0007-.0007-.0007-.0007-.0006-.0007-.0007-.0006-.0007-.0007-.0006-.0007-.0007-.0006-.0007-.0006-.0007-.0006-.0007-.0006-.0007-.0006-.0006-.0007-.0006-.0006-.0007-.0006-.0006-.0006-.0007-.0006-.0006-.0006-.0006-.0006-.0006-.0006-.0007-.0006-.0006-.0006-.0005-.0006-.0006-.0006c0-.0083-.0002-.0167-.0006-.025zm2.3045.0792c.2761 0 .5.2239.5.5v.806c.5061-.4791 1.1769-.7975 1.9526-.8564 1.7956-.2302 3.4358 1.1953 3.5539 2.9678.0008.0111.0011.0222.0011.0332v3.8053c0 .0128-.0005.0256-.0014.0384-.1177 1.5291-1.2956 2.837-2.9512 2.9627-.9683.1241-1.8914-.2333-2.555-.8669v4.6099c0 .2762-.2239.5-.5.5-.2762 0-.5-.2238-.5-.5v-6.7441-3.8053-2.9506c0-.2761.2238-.5.5-.5zm.5 7.2384c.0905 1.2193 1.2405 2.1851 2.4381 2.0254.0101-.0014.0203-.0024.0304-.0031 1.1339-.081 1.949-.9632 2.0391-2.0249v-3.7676c-.0905-1.2193-1.2405-2.1851-2.4381-2.0254-.0101.0013-.0202.0024-.0304.0031-1.1338.081-1.949.9632-2.0391 2.0249z" fill="currentColor" fill-rule="evenodd"/></svg>