<svg fill="none" height="72" viewBox="0 0 72 72" width="72" xmlns="http://www.w3.org/2000/svg"><path clip-rule="evenodd" d="m25.7031 5.5h-.5v.5 19.2031h-19.2031-.5v.5 19.7031.5h.5 19.2031v19.1938.5h.5 19.7031.5v-.5-19.1938h19.1846.5v-.5-19.7031-.5h-.5-19.1846v-19.2031-.5h-.5zm-19.2031 20.7031h18.7031v18.7031h-18.7031zm19.7031-.5v-19.2031h18.7031v19.2031.5h.5 19.1846v18.7031h-19.1846-.5v.5 19.1938h-18.7031v-19.1938zm-5.3496 9.7915-9.5329-4.7388 6.1243 4.7572-6.1335 4.8311zm33.1987 2.6233 1.1732-.3048.1385.2679c.05.094.1121.1809.1848.2586.0697.0896.147.173.2309.2494.0754.0702.1557.1351.2402.194.0587.054.1239.1006.194.1386.0271.0079.056.0079.0831 0h2.4386c.0395.0094.0807.0094.1201 0 .085-.0443.1655-.0969.2402-.157.0999-.0779.1955-.1611.2863-.2495.0898-.08.1704-.1699.2402-.2678.0563-.0687.0915-.152.1016-.2402v-.9237c.0001-.1157-.0353-.2285-.1016-.3233-.0564-.0874-.1412-.1526-.2402-.1848l-4.0643-1.0438c-.1668-.0435-.3237-.1188-.4619-.2217-.1294-.1016-.2416-.2232-.3326-.3602-.0833-.1422-.1485-.2943-.1939-.4527-.0465-.1591-.0714-.3238-.0739-.4895v-.9238c-.0131-.132-.0131-.2651 0-.3972.0584-.3112.2862-.55.5036-.778.0555-.0582.1103-.1156.1615-.1734.4111-.3759.8587-.7469 1.441-.7575h2.1984c.5777-.0022 1.1089.3793 1.478.7944.3335.3653.5652.7399.7759 1.1824l-.5958.1709-.5958.1709c-.0228-.043-.045-.0869-.0673-.1309-.0746-.1478-.1503-.2975-.256-.4233-.2-.2245-.4206-.4363-.6835-.582h-2.18-.0647c-.0828.0396-.1603.0893-.2309.1478-.0222.0187-.0456.0381-.07.0583-.2239.1857-.5241.4346-.5674.7084v.8683c-.002.1088.0303.2155.0924.3048.054.0838.1357.1459.2309.1755l4.0459 1.0716c.162.0442.3151.1161.4526.2124.1348.0978.2533.2163.3511.351.0945.1353.1662.285.2124.4434.0552.1542.0833.3167.0832.4804v1.0068c.0131.1352.0131.2713 0 .4065-.0261.1372-.083.2666-.1663.3787-.0599.0921-.1279.1786-.2032.2586-.0613.0674-.1266.1308-.1933.1954-.0339.0328-.0681.066-.1023.1002-.1016.1016-.2125.2032-.3233.2864-.083.0757-.1726.1437-.2679.2032-.1296.0712-.2657.13-.4064.1755-.1425.05-.2925.075-.4434.0739h-2.4941c-.1934.0018-.3851-.036-.5635-.1108-.1778-.0737-.3455-.1699-.4988-.2864-.1552-.1171-.3004-.2468-.4341-.388-.1294-.1385-.2494-.2863-.3603-.4249-.0664-.0968-.1251-.1987-.1755-.3048zm-8.4243-7.048v6.9649l.0462.0093c-.0136.132-.0136.2651 0 .3972.0373.135.0966.263.1755.3787l.2032.2494c.0924.1016.1848.2032.2956.3048l.3141.2864c.0829.0757.1726.1438.2679.2032.132.0729.2714.1317.4157.1755.1424.05.2924.075.4433.0739h1.9861c.151.0026.3013-.0224.4433-.0739.1414-.0438.2777-.1026.4065-.1755.0953-.0594.1849-.1275.2679-.2032l.3695-.2956c.1107-.1016.2031-.2031.2954-.3047l.0001-.0001h.0001l.2032-.2494c.0799-.114.1364-.2428.1662-.3788.0137-.132.0137-.2651 0-.3972v-6.9649h-1.2193v6.928c-.0129.0818-.0481.1585-.1016.2217-.072.099-.1523.1918-.2402.2771l-.2863.2586c-.0665.0622-.1411.115-.2217.1571-.0458.0087-.0928.0087-.1386 0h-1.9213-.0462c-.0858-.0431-.1663-.0958-.2402-.1571-.1048-.0753-.2037-.1587-.2956-.2494-.0915-.0905-.1778-.1861-.2586-.2863-.0535-.0632-.0887-.1399-.1016-.2217v-6.928zm-7.3899 8.9602v-8.9602h1.2286v7.7963h4.1752v1.1639zm-4.2123-4.8958h-2.9651v-2.9005h3.0113c.0694.0151.1353.0433.194.0832l.2587.1478c.0696.0661.1344.1371.1939.2124.0494.0516.0899.1109.1201.1755v.0739.0924 1.2932c.0193.0632.0193.1308 0 .194l-.1385.1755c-.0608.0716-.1289.1366-.2033.194-.0725.0613-.1497.1169-.2309.1663-.0694.0533-.1528.0854-.2402.0923zm-4.1937-4.0644v8.9602l1.2286-.037v-3.6949h2.9836c.175-.0012.349-.026.5173-.0739.1696-.0434.3295-.1187.4711-.2217l.194-.1662.2309-.2217.231-.2217c.0646-.0832.1478-.1848.1478-.1848.1614-.2473.248-.536.2494-.8313v-1.3487c.0001-.3013-.0865-.5963-.2494-.8498-.0452-.0618-.0946-.1205-.1478-.1755l-.2125-.2309-.2402-.2217-.194-.1663c-.1432-.1024-.3024-.1804-.4711-.2309-.1701-.0547-.3477-.0827-.5265-.0832z" fill="currentColor" fill-rule="evenodd"/></svg>