<svg fill="none" height="72" viewBox="0 0 72 72" width="72" xmlns="http://www.w3.org/2000/svg"><path clip-rule="evenodd" d="m6 16.5c-.27614 0-.5.2239-.5.5v38c0 .2761.22386.5.5.5h60c.2761 0 .5-.2239.5-.5v-38c0-.2761-.2239-.5-.5-.5zm.5 38v-37h59v37zm11.5475-25.7816c-.2761 0-.5.2239-.5.5 0 .2762.2239.5.5.5h6.7374l-5.78 12.5233c-.1157.2508-.0062.5478.2445.6636.2507.1157.5478.0062.6635-.2445l6.0659-13.1428c.0381-.0826.0518-.1703.044-.2549.0013-.0147.002-.0296.002-.0447 0-.2761-.2238-.5-.5-.5zm11.9471 1.4179c.7391-.3272 1.5744-.3639 2.3394-.1027.7649.2612 1.4034.801 1.788 1.5119.3847.711.4873 1.5407.2874 2.3239-.0061.0241-.0104.0483-.0129.0723-.1826.5131-.4634.9854-.8265 1.3905-.0502.0264-.0967.0618-.1371.1062l-5.8825 6.4677c-.1176.0915-.1933.2344-.1933.395 0 .2762.2238.5.5.5h.0072.0052 7.0044c.2761 0 .5-.2238.5-.5 0-.2761-.2239-.5-.5-.5h-5.8762l5.0459-5.5479c.042-.0231.0814-.0527.1167-.0888.5458-.558.9586-1.232 1.2075-1.9719.0153-.0454.0237-.0916.0258-.1372.2413-1.0088.1022-2.0721-.3921-2.9856-.5043-.9322-1.3414-1.64-2.3444-1.9825-1.003-.3424-2.0982-.2943-3.0673.1347-.9691.4291-1.7409 1.2076-2.1616 2.1804-.1096.2534.007.5477.2604.6574.2535.1096.5478-.007.6574-.2605.3209-.7419.9095-1.3356 1.6486-1.6629zm11.4207-.191c-.4401 0-.8756.0896-1.28.2632-.4043.1737-.7691.4278-1.0722.7469-.303.3191-.5379.6966-.6904 1.1094-.1526.4128-.2195.8523-.1967 1.2918.0004.0086.0006.0172.0006.0259v5.0048c0 .0087-.0002.0173-.0006.0259-.0228.4395.0441.879.1967 1.2918.1525.4128.3874.7903.6904 1.1094.3031.3191.6679.5732 1.0722.7469.4044.1736.8399.2632 1.28.2632s.8755-.0896 1.2799-.2632c.4044-.1737.7692-.4278 1.0722-.7469s.538-.6966.6905-1.1094.2194-.8523.1967-1.2918l-.0005-.0125-.0002-.0134v-5.0048c0-.0087.0002-.0173.0007-.0259.0227-.4395-.0442-.879-.1967-1.2918s-.3875-.7903-.6905-1.1094-.6678-.5732-1.0722-.7469c-.4044-.1736-.8398-.2632-1.2799-.2632zm-1.6746-.6556c.5291-.2272 1.0988-.3444 1.6746-.3444.5757 0 1.1455.1172 1.6745.3444s1.0063.5596 1.4028.9771c.3964.4175.7038.9114.9033 1.4514.198.5359.2857 1.1062.258 1.6768v4.9798c.0277.5705-.06 1.1409-.258 1.6768-.1995.54-.5069 1.0339-.9033 1.4514-.3965.4175-.8738.7499-1.4028.9771s-1.0988.3444-1.6745.3444c-.5758 0-1.1455-.1172-1.6746-.3444-.529-.2272-1.0063-.5596-1.4027-.9771-.3965-.4175-.7038-.9114-.9034-1.4514-.198-.5359-.2857-1.1063-.258-1.6768v-4.9798c-.0277-.5706.06-1.1409.258-1.6768.1996-.54.5069-1.0339.9034-1.4514.3964-.4175.8737-.7499 1.4027-.9771zm11.0186 3.95c-.8302 0-1.6302.3117-2.2415.8735-.0241.0221-.0478.0446-.0712.0674v-.2977c0-.2761-.2239-.5-.5-.5s-.5.2239-.5.5v12.1518c0 .2762.2239.5.5.5s.5-.2238.5-.5v-3.6909c.0234.0228.0471.0453.0712.0674.6113.5618 1.4113.8735 2.2415.8735.8303 0 1.6303-.3117 2.2416-.8735s.9894-1.3327 1.0594-2.16c.0012-.014.0017-.028.0017-.0421v-3.8938c0-.0141-.0005-.0281-.0017-.0421-.07-.8273-.4481-1.5982-1.0594-2.16s-1.4113-.8735-2.2416-.8735zm-1.5649 1.6098c.4268-.3922.9853-.6098 1.5649-.6098.5797 0 1.1382.2176 1.5649.6098.4219.3877.6847.918.7378 1.4879v3.8495c-.0531.57-.3159 1.1003-.7378 1.488-.4267.3922-.9852.6098-1.5649.6098-.5796 0-1.1381-.2176-1.5649-.6098-.4218-.3877-.6846-.918-.7378-1.488v-3.8495c.0532-.5699.316-1.1002.7378-1.4879z" fill="currentColor" fill-rule="evenodd"/></svg>