<svg fill="none" height="72" viewBox="0 0 72 72" width="72" xmlns="http://www.w3.org/2000/svg"><path clip-rule="evenodd" d="m29 9.5c-1.3807 0-2.5 1.1193-2.5 2.5v4.5h-8.5-12c-.27614 0-.5.2239-.5.5v40c0 .2761.22386.5.5.5h12 36.5 11.5c.2761 0 .5-.2239.5-.5v-40c0-.2761-.2239-.5-.5-.5h-11.5-10v-4.5c0-1.3807-1.1193-2.5-2.5-2.5zm14.5 7v-4.5c0-.8284-.6716-1.5-1.5-1.5h-13c-.8284 0-1.5.6716-1.5 1.5v4.5zm-16.5 1h-8.5v39h35.5v-39h-10zm-20.5 39v-39h11v39zm48.5 0v-39h10.5v39z" fill="currentColor" fill-rule="evenodd"/></svg>