<svg fill="none" height="72" viewBox="0 0 72 72" width="72" xmlns="http://www.w3.org/2000/svg"><path clip-rule="evenodd" d="m36.4846 4.97019c-.0747-.13695-.2096-.23067-.364-.25291s-.3103.02962-.4206.13993l-.2003.20027c-.0345.03459-.0638.07412-.0868.11729-2.8542 5.35793-5.6833 10.69063-8.5122 16.02303l-.0008.0015c-2.8283 5.3312-5.6564 10.6619-8.5094 16.0176-2.3538 4.2999-2.9728 9.4099-1.7617 14.2162v.0384c0 .0386.0045.0771.0134.1146 2.5673 10.7826 13.4518 17.3552 24.1327 14.6859 8.9323-2.1572 15.2947-10.1643 15.3974-19.4014v-.0055c0-3.3896-.9231-6.8752-2.5634-9.8495l-.0017-.003-8.2582-15.4655-8.2615-15.47151v-.00001l-.0021-.00386zm-8.7088 16.69051c2.7366-5.1584 5.473-10.3165 8.2321-15.49708l.2063.3783.0021.00387 8.2594 15.46761 8.2615 15.4715h-.0001l.0033.006c1.5626 2.8322 2.4414 6.1539 2.4419 9.3714-.0989 8.786-6.1522 16.3986-14.642 18.4479l-.0039.001c-10.129 2.5322-20.4537-3.6854-22.9176-13.8982v-.0417c0-.0413-.0052-.0824-.0154-.1224-1.1715-4.5881-.5846-9.466 1.6569-13.5591l.0027-.0051c2.8542-5.3578 5.6833-10.6906 8.5122-16.023l.0003-.0004zm20.318 16.1427c-.1377-.2361-.4408-.3159-.677-.1781-.2361.1377-.3159.4408-.1781.677.6807 1.1669 1.2586 2.5198 1.5458 3.8598l-.0002.0001.0033.0136c2.0382 8.3469-3.107 16.8901-11.5518 18.9286-.2658.0641-.4292.3315-.3651.5973.0642.2657.3316.4292.5974.365 8.977-2.1669 14.4461-11.2441 12.2829-20.1189-.3142-1.4616-.9371-2.9099-1.6572-4.1444z" fill="currentColor" fill-rule="evenodd"/></svg>