<svg fill="none" height="72" viewBox="0 0 72 72" width="72" xmlns="http://www.w3.org/2000/svg"><path clip-rule="evenodd" d="m66.4463 29.1865c-16.8322-16.8323-44.0602-16.8323-60.89253 0-.19136.1914-.50161.1914-.69297 0-.19135-.1913-.19135-.5016 0-.6929 17.215-17.215 45.0635-17.215 62.2785 0 .1914.1913.1914.5016 0 .6929-.1913.1914-.5016.1914-.693 0zm-51.5797 6.5091c11.6251-11.6251 30.4414-11.6251 42.0665 0 .1913.1913.5016.1913.6929 0 .1914-.1914.1914-.5016 0-.693-12.0077-12.0078-31.4446-12.0078-43.4523 0-.1914.1914-.1914.5016 0 .693.1913.1913.5016.1913.6929 0zm34.3558 6.8094c-7.3191-7.319-19.2258-7.319-26.5449 0-.1913.1914-.5016.1914-.6929 0-.1914-.1913-.1914-.5016 0-.6929 7.7018-7.7018 20.229-7.7018 27.9308 0 .1913.1913.1913.5016 0 .6929-.1914.1914-.5016.1914-.693 0zm-7.5104 6.9096c-3.2134-3.2133-8.4108-3.2133-11.6242 0-.1913.1914-.5016.1914-.6929 0-.1914-.1913-.1914-.5016 0-.6929 3.596-3.5961 9.4139-3.5961 13.01 0 .1914.1913.1914.5016 0 .6929-.1913.1914-.5016.1914-.6929 0zm-5.6727 6.0625c0-.0024.0004-.0035.0007-.0041.0004-.0009.0011-.0022.0025-.0035.0013-.0013.0026-.0021.0035-.0025.0006-.0003.0016-.0006.004-.0006s.0034.0003.004.0006c.001.0004.0023.0012.0036.0025s.0021.0026.0025.0035c.0002.0006.0006.0017.0006.0041 0 .0023-.0004.0034-.0006.004-.0004.0009-.0012.0022-.0025.0035s-.0026.0021-.0036.0025c-.0006.0003-.0016.0006-.004.0006s-.0034-.0003-.004-.0006c-.0009-.0004-.0022-.0012-.0035-.0025-.0014-.0013-.0021-.0026-.0025-.0035-.0003-.0006-.0007-.0017-.0007-.004zm.0107-.9907c-.5471 0-.9907.4435-.9907.9907 0 .5471.4436.9906.9907.9906.5472 0 .9907-.4435.9907-.9906 0-.5472-.4435-.9907-.9907-.9907z" fill="#050504" fill-rule="evenodd"/></svg>