<svg role="img" xmlns="http://www.w3.org/2000/svg" width="24" height="24" fill="none" viewBox="0 0 24 24">
  <g stroke="currentColor" stroke-linecap="round">
    <path d="M4.4916 20.5v-6.0445c0-.1255-.081-.2358-.081-.2358C3.052 13.0693 2.19 11.3541 2.19 9.4382c0-3.4637 2.8176-6.2716 6.2933-6.2716 3.4756 0 6.2932 2.808 6.2932 6.2716 0 .2284-.0123.454-.0362.6761l1.436 2.956c.1995.3344-.0424.758-.4328.758h-.8051c-.1007 0-.1619.0843-.1619.1686v2.7164c0 .5541-.4508 1.0034-1.0069 1.0034H11.54c-.2014 0-.2518.1254-.2518.2509V20.5"/>
    <path stroke-linejoin="round" stroke-width=".98" d="M17.4246 17.2403c.8104-.7444.8104-1.9553 0-2.6997m1.494 3.474c1.2751-1.1713 1.2751-3.0671 0-4.2383m1.4615 5.1614c1.837-1.6874 1.837-4.417 0-6.1043"/>
  </g>
</svg>
