<svg width="72" height="72" viewBox="0 0 72 72" fill="none" xmlns="http://www.w3.org/2000/svg">
<circle cx="36" cy="36" r="29.5" stroke="currentColor"/>
<path d="M35.968 24.04 L 36 24.042 L 36.032 24.04 L 50.766 23.101 C 50.948 23.1 51.129 23.134 51.298 23.203 C 51.471 23.273 51.628 23.378 51.76 23.509 L 51.687 23.385 L 51.76 23.509 C 51.892 23.641 51.996 23.798 52.066 23.971 L 52.167 24.276 L 52.066 23.971 C 52.136 24.143 52.171 24.326 52.169 24.511 C 52.155 24.888 52 25.245 51.734 25.512 C 51.467 25.78 51.108 25.936 50.73 25.948 L 50.711 25.949 L 50.693 25.951 L 40.953 27.016 L 40.507 27.065 L 40.507 27.513 L 40.507 38.875 L 40.507 38.941 L 40.524 39.004 L 45.061 55.903 C 45.062 55.904 45.062 55.906 45.062 55.907 C 45.166 56.322 45.104 56.762 44.89 57.133 C 44.675 57.505 44.324 57.778 43.91 57.894 C 43.497 58.011 43.054 57.962 42.677 57.757 C 42.3 57.553 42.017 57.21 41.889 56.801 C 41.889 56.8 41.889 56.799 41.888 56.798 L 37.096 40.87 L 36.989 40.514 L 36.618 40.514 L 35.376 40.514 L 35.004 40.514 L 34.897 40.87 L 30.105 56.803 L 30.103 56.812 C 30.044 57.02 29.945 57.215 29.811 57.385 C 29.676 57.555 29.51 57.697 29.322 57.802 C 29.133 57.908 28.925 57.976 28.71 58.001 C 28.495 58.026 28.277 58.009 28.069 57.951 C 27.861 57.892 27.666 57.793 27.496 57.659 C 27.326 57.524 27.184 57.358 27.078 57.169 C 26.972 56.981 26.905 56.773 26.879 56.558 C 26.854 56.343 26.871 56.125 26.93 55.917 L 26.932 55.911 L 31.471 39.004 L 31.488 38.941 L 31.488 38.875 L 31.488 27.515 L 31.488 27.066 L 31.042 27.018 L 21.301 25.952 L 21.283 25.95 L 21.264 25.95 C 20.886 25.937 20.527 25.78 20.26 25.513 C 19.994 25.246 19.838 24.889 19.825 24.512 C 19.823 24.328 19.858 24.144 19.928 23.973 C 19.998 23.8 20.102 23.643 20.234 23.511 C 20.366 23.379 20.523 23.275 20.696 23.205 C 20.865 23.136 21.046 23.101 21.228 23.102 L 35.968 24.04 Z" stroke="currentColor"/><path d="M39.1389 17.0632C39.1389 18.7243 37.7923 20.0709 36.1312 20.0709C34.4701 20.0709 33.1235 18.7243 33.1235 17.0632C33.1235 15.402 34.4701 14.0554 36.1312 14.0554C37.7923 14.0554 39.1389 15.402 39.1389 17.0632Z" stroke="currentColor"/>
</svg>
