<svg role="img" xmlns="http://www.w3.org/2000/svg" width="24" height="24" fill="none" viewBox="0 0 24 24">
  <g stroke="currentColor" stroke-linecap="round">
    <path stroke-linejoin="round" d="M2 11.9677c5.5305-7.957 14.4695-7.957 20 0-2.5185 3.6235-5.7439 5.6444-9.0323 5.9678"/>
    <path stroke-linejoin="round" d="M11.8386 6c3.2959 0 5.9678 2.6718 5.9678 5.9677 0 2.9648-2.0315 5.4247-4.8387 5.889"/>
    <path stroke-linejoin="round" d="M12.8064 13.8283c.6709-.3497 1.129-1.0516 1.129-1.8606 0-1.158-.9387-2.0967-2.0967-2.0967-.411 0-.7944.1182-1.118.3226"/>
    <path d="m7.1613 7.2903 5.8064 10.6452M5.2256 8.7419l4.8387 8.7097m-6.7741-6.7743 3.387 5.8065"/>
  </g>
</svg>
