<svg role="img" xmlns="http://www.w3.org/2000/svg" width="24" height="24" fill="none" viewBox="0 0 24 24">
  <path stroke="currentColor" d="M17.4764 13.6994c-.8412.1766-1.8927-.2207-2.3132-.4415v7.7266c0 .2208-.4206.8831-1.0515.8831-.5047 0-.7711-.5887-.8412-.8831v-7.7266c0-2.1193.2363-3.4831.6309-4.4152.3946-.9321 1.2618-1.9869 2.9441-1.9869 1.6824 0 2.8039 1.1774 3.1544 1.7661v3.3114c-.6309 1.1038-1.472 1.5454-2.5235 1.7661ZM6.5236 9.1819c.8412.1766 1.8927-.2208 2.3133-.4416v7.7267c0 .2207.4205.883 1.0514.883.5047 0 .7711-.5887.8412-.883V8.7403c0-2.1193-.2363-3.483-.6309-4.4152-.3946-.9321-1.2617-1.9868-2.9441-1.9868-1.6824 0-2.804 1.1774-3.1544 1.766v3.3115c.6309 1.1038 1.472 1.5453 2.5235 1.766Z"/>
</svg>
