<svg width="72" height="72" viewBox="0 0 72 72" fill="none" xmlns="http://www.w3.org/2000/svg">
<path d="M18.4022 55.7542C15.1908 53.7533 12.453 51.0781 10.3785 47.9138C8.30395 44.7496 6.94234 41.172 6.38801 37.4292C5.83369 33.6863 6.09992 29.8677 7.16825 26.238C8.23658 22.6083 10.0815 19.2543 12.575 16.4086C15.0685 13.5628 18.1511 11.2933 21.609 9.75741C25.0669 8.22151 28.8175 7.45595 32.6007 7.51379C36.3839 7.57163 40.1093 8.45148 43.5187 10.0924C46.928 11.7332 49.9398 14.0959 52.3452 17.0165" stroke="currentColor" stroke-miterlimit="10" stroke-linecap="round"/>
<path d="M63.3057 63.8921L67.3096 59.5879M67.3096 59.5879L63.3057 55.2837M67.3096 59.5879H50" stroke="currentColor" stroke-miterlimit="10" stroke-linecap="round"/>
<path d="M61.9743 24.8843L55.5881 22.1316L53.2058 28.5278" stroke="currentColor" stroke-miterlimit="10" stroke-linecap="round"/>
<path d="M6 59.588H32.1054C36.5413 59.6031 40.9079 58.5373 44.7926 56.3958C48.6774 54.2542 51.9521 51.1577 54.3075 47.3987C56.6629 43.6398 58.0211 39.3424 58.254 34.9126C58.4868 30.4828 57.5383 26.1252 55.59 22.14" stroke="currentColor" stroke-miterlimit="10" stroke-linecap="round"/>
</svg>
