<svg width="24" height="24" viewBox="0 0 24 24" fill="none" xmlns="http://www.w3.org/2000/svg">
<path d="M14.05 13.65V12.61C14.05 12.39 13.99 12.17 13.87 11.99C13.78 11.86 13.48 11.57 13.33 11.47C13.14 11.32 12.87 11.23 12.62 11.23H11.3V10H13.76V9H10.25V12.23H12.61C12.63 12.23 12.65 12.23 12.67 12.24C12.78 12.31 12.92 12.45 12.99 12.58C12.99 12.58 13 12.61 13 12.63V13.64C13 13.67 12.99 13.69 12.99 13.69C12.92 13.81 12.78 13.95 12.67 14.02C12.65 14.03 12.63 14.03 12.61 14.03H11.55C11.54 14.03 11.5 14.03 11.48 14.02C11.36 13.96 11.14 13.74 11.02 13.51L10 13.78C10.05 13.91 10.15 14.1 10.23 14.21C10.51 14.57 10.95 15.03 11.52 15.03H12.62C12.86 15.03 13.14 14.95 13.33 14.81C13.48 14.71 13.78 14.39 13.87 14.26C13.99 14.08 14.05 13.86 14.05 13.65Z" fill="currentColor"/>
<path fill-rule="evenodd" clip-rule="evenodd" d="M5.07805 3.5C4.21273 3.5 3.5 4.21273 3.5 5.07805V18.9219C3.5 19.7872 4.21273 20.5 5.07805 20.5H18.9219C19.7872 20.5 20.5 19.7872 20.5 18.9219V5.07805C20.5 4.21273 19.7872 3.5 18.9219 3.5H5.07805ZM2.5 5.07805C2.5 3.66044 3.66044 2.5 5.07805 2.5H18.9219C20.3395 2.5 21.5 3.66044 21.5 5.07805V18.9219C21.5 20.3395 20.3395 21.5 18.9219 21.5H5.07805C3.66044 21.5 2.5 20.3395 2.5 18.9219V5.07805Z" fill="currentColor"/>
</svg>
