<svg width="72" height="72" viewBox="0 0 72 72" fill="none" xmlns="http://www.w3.org/2000/svg">
<g>
<path d="M47.3218 9.01758L48.319 8.94313L48.2433 7.92878L47.2304 8.02177L47.3218 9.01758ZM38.9502 13.1856L39.6833 13.8658L39.6894 13.8592L39.6954 13.8525L38.9502 13.1856ZM35.9485 21.5798L34.9508 21.6484L35.0137 22.5635L35.9308 22.5797L35.9485 21.5798ZM45.1466 18.4068C47.4344 15.7731 48.5757 12.3803 48.319 8.94313L46.3246 9.09203C46.5408 11.9876 45.581 14.8569 43.6367 17.0952L45.1466 18.4068ZM47.2304 8.02177C43.7396 8.34223 40.5043 9.94932 38.205 12.5188L39.6954 13.8525C41.6496 11.6687 44.4136 10.2888 47.4132 10.0134L47.2304 8.02177ZM38.2171 12.5055C37.0713 13.7405 36.1909 15.1849 35.6293 16.7553L37.5125 17.4288C37.9818 16.1166 38.719 14.9051 39.6833 13.8658L38.2171 12.5055ZM35.6293 16.7553C35.0677 18.3259 34.8368 19.9895 34.9508 21.6484L36.9461 21.5112C36.8511 20.1285 37.0434 18.7408 37.5125 17.4288L35.6293 16.7553ZM35.9308 22.5797C37.6967 22.6108 39.4475 22.2502 41.0478 21.5245L40.2218 19.703C38.8937 20.3053 37.4373 20.6059 35.9661 20.58L35.9308 22.5797ZM41.0478 21.5245C42.6483 20.7987 44.0569 19.7263 45.1626 18.3878L43.6206 17.1141C42.7121 18.2139 41.5498 19.1008 40.2218 19.703L41.0478 21.5245Z" fill="currentColor" />
<path d="M27.1051 22.3829L27.0874 21.3831L27.0807 21.3832L27.1051 22.3829ZM15.4147 29.2141L16.271 29.7306L16.2766 29.7213L16.282 29.7118L15.4147 29.2141ZM18.9647 56.6091L19.7814 56.0319L19.7762 56.0247L18.9647 56.6091ZM27.9397 63.5094L27.9749 64.5088L27.9774 64.5087L27.9397 63.5094ZM46.5199 63.4424L46.5027 62.4426L46.5021 62.4426L46.5199 63.4424ZM55.2195 56.7431L54.403 56.1658L54.4026 56.1663L55.2195 56.7431ZM59.1149 49.041L60.0642 49.3552L60.3548 48.4773L59.5022 48.1191L59.1149 49.041ZM51.5311 37.9886L50.5312 37.9742L50.5311 37.9855L50.5312 37.9968L51.5311 37.9886ZM57.6545 27.6064L58.1647 28.4665L59.1128 27.9041L58.461 27.0151L57.6545 27.6064ZM47.3426 21.1849C44.802 21.0394 42.488 21.7345 40.6046 22.4156C39.6141 22.7738 38.8502 23.0861 38.0867 23.3477C37.3392 23.6037 36.8093 23.729 36.4311 23.729V25.729C37.1663 25.729 37.9669 25.5028 38.7348 25.2397C39.4867 24.9822 40.4229 24.608 41.2847 24.2964C43.1061 23.6378 45.1058 23.0601 47.2281 23.1817L47.3426 21.1849ZM36.4311 23.729C36.0355 23.729 35.526 23.6188 34.8624 23.4025C34.1987 23.1862 33.492 22.9035 32.6655 22.5948C31.0676 21.998 29.1373 21.347 27.0874 21.3831L27.1227 23.3828C28.761 23.3539 30.3796 23.876 31.9657 24.4684C32.7313 24.7544 33.5253 25.0703 34.2428 25.3041C34.9604 25.5379 35.7127 25.729 36.4311 25.729V23.729ZM27.0807 21.3832C24.5147 21.4457 22.0081 22.1531 19.8097 23.4376L20.8188 25.1644C22.7221 24.0522 24.8978 23.437 27.1294 23.3826L27.0807 21.3832ZM19.8097 23.4376C17.6111 24.7224 15.7956 26.541 14.5473 28.7164L16.282 29.7118C17.3529 27.8455 18.9157 26.2765 20.8188 25.1644L19.8097 23.4376ZM14.5584 28.6977C11.8834 33.1327 11.5696 38.5641 12.4999 43.6689C13.4315 48.7804 15.6307 53.6907 18.1533 57.1935L19.7762 56.0247C17.4265 52.7619 15.3455 48.1282 14.4675 43.3104C13.5883 38.4859 13.9356 33.6026 16.271 29.7306L14.5584 28.6977ZM18.1482 57.1864C19.3299 58.8581 20.6916 60.7022 22.2636 62.1092C23.8404 63.5206 25.7349 64.5877 27.9749 64.5088L27.9045 62.51C26.3872 62.5635 24.9773 61.8541 23.5974 60.619C22.2128 59.3796 20.9657 57.7074 19.7813 56.0319L18.1482 57.1864ZM27.9774 64.5087C29.9559 64.434 31.3531 63.8054 32.6547 63.2811C33.9412 62.763 35.228 62.2981 37.1965 62.2981V60.2981C34.8498 60.2981 33.2832 60.8719 31.9076 61.4259C30.5472 61.9738 29.4736 62.4508 27.902 62.5101L27.9774 64.5087ZM37.1965 62.2981C39.1506 62.2981 40.3932 62.788 41.6852 63.3201C43.0063 63.8641 44.431 64.4798 46.5378 64.4423L46.5021 62.4426C44.851 62.472 43.77 62.0156 42.4468 61.4707C41.0946 60.9139 39.5545 60.2981 37.1965 60.2981V62.2981ZM46.5371 64.4423C48.7953 64.4034 50.5996 63.4236 52.1113 62.0687C53.6004 60.7341 54.8619 58.983 56.0363 57.32L54.4026 56.1663C53.211 57.8537 52.0713 59.4188 50.7764 60.5794C49.5041 61.7198 48.1417 62.4144 46.5027 62.4426L46.5371 64.4423ZM56.0359 57.3205C57.7706 54.8675 59.1277 52.1847 60.0642 49.3552L58.1655 48.7268C57.2916 51.3669 56.0246 53.8726 54.403 56.1658L56.0359 57.3205ZM59.5022 48.1191C57.4363 47.2511 55.682 45.8285 54.4471 44.0288L52.7979 45.1603C54.2547 47.2834 56.3157 48.9496 58.7275 49.9629L59.5022 48.1191ZM54.4471 44.0288C53.2125 42.2295 52.5486 40.1288 52.5311 37.9805L50.5312 37.9968C50.5519 40.5486 51.3409 43.0368 52.7979 45.1603L54.4471 44.0288ZM52.531 38.003C52.5586 36.0922 53.0869 34.2167 54.0699 32.55L52.3472 31.534C51.1894 33.497 50.5638 35.7123 50.5312 37.9742L52.531 38.003ZM54.0699 32.55C55.0531 30.883 56.4603 29.4774 58.1647 28.4665L57.1444 26.7463C55.156 27.9256 53.5048 29.5712 52.3472 31.534L54.0699 32.55ZM58.461 27.0151C57.1895 25.2807 55.5224 23.8547 53.5913 22.8447L52.6644 24.617C54.3296 25.4879 55.7603 26.714 56.8481 28.1976L58.461 27.0151ZM53.5913 22.8447C51.6602 21.8348 49.5156 21.2672 47.3232 21.1841L47.2475 23.1826C49.1454 23.2546 50.999 23.746 52.6644 24.617L53.5913 22.8447Z" fill="currentColor" />
</g>
</svg>
