<svg width="72" height="72" viewBox="0 0 72 72" fill="none" xmlns="http://www.w3.org/2000/svg">
<path d="M15.2341 9H56.7658C60.1902 9 62.9999 11.8098 62.9999 15.2341V56.7658C62.9999 60.1902 60.1902 62.9999 56.7658 62.9999H15.2341C11.8098 62.9999 9 60.1902 9 56.7658V15.2341C9 11.8098 11.8098 9 15.2341 9Z" vector-effect="non-scaling-stroke" stroke-width='1' stroke="currentColor" stroke-linecap="round" stroke-linejoin="round"/>
<path fill-rule="evenodd" clip-rule="evenodd" d="M15.6055 20.833C15.3293 20.833 15.1055 21.0569 15.1055 21.333V47.7697C15.1055 48.0459 15.3293 48.2697 15.6055 48.2697H33.1973V50.0736H24.4177C24.1416 50.0736 23.9177 50.2975 23.9177 50.5736C23.9177 50.8498 24.1416 51.0736 24.4177 51.0736H47.1827C47.4588 51.0736 47.6827 50.8498 47.6827 50.5736C47.6827 50.2975 47.4588 50.0736 47.1827 50.0736H38.4032V48.2697H56.4622C56.7384 48.2697 56.9622 48.0459 56.9622 47.7697V21.333C56.9622 21.0569 56.7384 20.833 56.4622 20.833H15.6055ZM37.4032 48.2697H34.1973V50.0736H37.4032V48.2697ZM16.1055 47.2697V21.833H55.9622V47.2697H16.1055ZM26.614 26.0854L27.4002 25.4812L35.9549 34.031L44.5096 25.4812L45.2958 26.0854L40.2893 34.733L45.296 43.4011L44.5096 44.0048L35.9549 35.455L27.4002 44.0048L26.6138 43.4011L31.6205 34.733L26.614 26.0854ZM36.6622 34.7481L42.5312 40.6137L39.2788 34.9828L39.1342 34.7324L39.279 34.4822L42.5208 28.8827L36.6622 34.7379L36.6673 34.743L36.6622 34.7481ZM29.389 28.8827L32.6308 34.4822L32.7757 34.7325L32.6311 34.9828L29.3786 40.6138L35.2476 34.7481L35.2425 34.743L35.2476 34.7379L29.389 28.8827Z" fill="currentColor"/>
</svg>
