<svg role="img" width="72" height="72" viewBox="0 0 72 72" fill="none" xmlns="http://www.w3.org/2000/svg">
<path d="M19 20V43.5L28.5 52.5M19 20L37 18.5L44.176 20.727L45.5 25M19 20L28.5 25M28.5 52.5L51.5 48V28.5L48 28L45.5 25M28.5 52.5V25M28.5 25L44 23.5L45.5 25" stroke="currentColor"/>
<path d="M33 30L41 36.5L33 46L46.5 35.5L33 30Z" fill="currentColor"/>
<circle cx="49.5" cy="22.5" r="6.5" fill="currentColor"/>
<line x1="46.5" y1="22.5" x2="52.5" y2="22.5" class="inversed" stroke="currentColor"  stroke-linecap="round"/>
<line x1="49.5" y1="19.5" x2="49.5" y2="25.5" class="inversed" stroke="currentColor" stroke-linecap="round"/>
<path d="M15.2341 9H56.7658C60.1902 9 62.9999 11.8098 62.9999 15.2341V56.7658C62.9999 60.1902 60.1902 62.9999 56.7658 62.9999H15.2341C11.8098 62.9999 9 60.1902 9 56.7658V15.2341C9 11.8098 11.8098 9 15.2341 9Z" stroke="currentColor" stroke-linecap="round" stroke-linejoin="round"/>
</svg>
