<svg width="72" height="72" viewBox="0 0 72 72" fill="none" xmlns="http://www.w3.org/2000/svg">
<path d="M44.3486 17.7337C46.4626 15.3001 47.5121 12.1721 47.2759 9.00879C44.0339 9.30642 41.0371 10.7985 38.9125 13.1728C37.8585 14.3088 37.0504 15.6355 36.5355 17.0754C36.0206 18.5153 35.8092 20.0394 35.9137 21.5588C37.5306 21.5873 39.1326 21.2571 40.5954 20.5937C42.0582 19.9303 43.3425 18.9517 44.3486 17.7337" vector-effect="non-scaling-stroke" stroke-width='1' stroke="currentColor"/>

<path d="M47.2395 22.1614C42.5811 21.8945 38.6204 24.7047 36.3958 24.7047C34.1699 24.7047 30.7633 22.2959 27.0788 22.3609C24.6823 22.4192 22.3434 23.0799 20.2946 24.2771C18.2457 25.4744 16.5582 27.1665 15.3998 29.1854C10.3943 37.4844 14.0789 49.7947 18.9464 56.5538C21.3102 59.8977 24.1589 63.5796 27.9126 63.4474C31.4593 63.3135 32.8494 61.2383 37.1604 61.2383C41.4683 61.2383 42.7205 63.4474 46.4748 63.3804C50.3681 63.3135 52.8021 60.0349 55.1659 56.6877C56.8423 54.3169 58.1531 51.7251 59.0575 48.993C56.8208 48.0533 54.915 46.5104 53.5705 44.5509C52.2259 42.5914 51.5002 40.2992 51.4811 37.9514C51.5112 35.867 52.0876 33.8236 53.1569 32.0105C54.2263 30.1974 55.754 28.6733 57.5986 27.5792C56.4201 25.9718 54.8727 24.647 53.0763 23.7075C51.2798 22.7679 49.2826 22.2389 47.2395 22.1615" vector-effect="non-scaling-stroke" stroke-width='1' stroke="currentColor"/>

</svg>
