<svg role="img" xmlns="http://www.w3.org/2000/svg" width="24" height="24" fill="none" viewBox="0 0 24 24">
  <g stroke="currentColor">
    <rect width="2.5" height="2.5" x="8" y="8" rx=".5"/>
    <rect width="2.5" height="2.5" x="12.5" y="12.5" rx=".5"/>
    <rect width="2.5" height="2.5" x="12.5" y="8" rx=".5"/>
    <rect width="2.5" height="2.5" x="8" y="12.5" rx=".5"/>
  </g>
  <path fill="currentColor" fill-rule="evenodd" d="M5 3.5C5 2.1193 6.1193 1 7.5 1h8C16.8807 1 18 2.1193 18 3.5v18c0 1.3807-1.1193 2.5-2.5 2.5h-8C6.1193 24 5 22.8807 5 21.5v-18ZM7.5 2H9v.5c0 .8284.6716 1.5 1.5 1.5h2c.8284 0 1.5-.6716 1.5-1.5V2h1.5c.8284 0 1.5.6716 1.5 1.5v18c0 .8284-.6716 1.5-1.5 1.5h-8c-.8284 0-1.5-.6716-1.5-1.5v-18C6 2.6716 6.6716 2 7.5 2ZM10 2h3v.5a.5.5 0 0 1-.5.5h-2a.5.5 0 0 1-.5-.5V2Zm1 18.5a.5.5 0 1 1 1.0001.0001A.5.5 0 0 1 11 20.5Zm.5-1.5c-.8284 0-1.5.6716-1.5 1.5s.6716 1.5 1.5 1.5 1.5-.6716 1.5-1.5-.6716-1.5-1.5-1.5Z"/>
</svg>
