<svg role="img" width="24" height="24" viewBox="0 0 24 24" fill="none" xmlns="http://www.w3.org/2000/svg">
<path fill-rule="evenodd" clip-rule="evenodd" d="M4 4.5C3.17157 4.5 2.5 5.17157 2.5 6V7C2.5 7.27614 2.72386 7.5 3 7.5C3.27614 7.5 3.5 7.27614 3.5 7V6C3.5 5.72386 3.72386 5.5 4 5.5H22C22.2761 5.5 22.5 5.72386 22.5 6V18C22.5 18.2761 22.2761 18.5 22 18.5H9C8.72386 18.5 8.5 18.7239 8.5 19C8.5 19.2761 8.72386 19.5 9 19.5H22C22.8284 19.5 23.5 18.8284 23.5 18V6C23.5 5.17157 22.8284 4.5 22 4.5H4ZM2 8.5C1.17157 8.5 0.5 9.17157 0.5 10V18C0.5 18.8284 1.17157 19.5 2 19.5H6C6.82843 19.5 7.5 18.8284 7.5 18V10C7.5 9.17157 6.82843 8.5 6 8.5H2ZM1.5 10C1.5 9.72386 1.72386 9.5 2 9.5H6C6.27614 9.5 6.5 9.72386 6.5 10V18C6.5 18.2761 6.27614 18.5 6 18.5H2C1.72386 18.5 1.5 18.2761 1.5 18V10ZM4.5 17C4.5 17.2761 4.27614 17.5 4 17.5C3.72386 17.5 3.5 17.2761 3.5 17C3.5 16.7239 3.72386 16.5 4 16.5C4.27614 16.5 4.5 16.7239 4.5 17ZM19.5 12C19.5 11.7239 19.7239 11.5 20 11.5C20.2761 11.5 20.5 11.7239 20.5 12C20.5 12.2761 20.2761 12.5 20 12.5C19.7239 12.5 19.5 12.2761 19.5 12ZM20 10.5C19.1716 10.5 18.5 11.1716 18.5 12C18.5 12.8284 19.1716 13.5 20 13.5C20.8284 13.5 21.5 12.8284 21.5 12C21.5 11.1716 20.8284 10.5 20 10.5Z" fill="currentColor"/>
</svg>
