<svg width="72" height="72" viewBox="0 0 72 72" fill="none" xmlns="http://www.w3.org/2000/svg">
<path fill-rule="evenodd" clip-rule="evenodd" d="M4.24275 34.7011C4.09215 34.7915 4 34.9543 4 35.1299C4 35.3055 4.09215 35.4683 4.24275 35.5586L34.2428 53.5586C34.3972 53.6513 34.5896 53.6537 34.7463 53.565C34.9031 53.4762 35 53.31 35 53.1299V36.013L64.2428 53.5586C64.3972 53.6513 64.5896 53.6537 64.7463 53.565C64.9031 53.4762 65 53.31 65 53.1299V17.1299C65 16.9497 64.9031 16.7835 64.7463 16.6948C64.5896 16.606 64.3972 16.6085 64.2428 16.7011L35 34.2468V17.1299C35 16.9497 34.9031 16.7835 34.7463 16.6948C34.5896 16.606 34.3972 16.6085 34.2428 16.7011L4.24275 34.7011ZM34 35.1299L34 18.013L5.47182 35.1299L34 52.2468L34 35.1299ZM64 52.2468L35.4718 35.1299L64 18.013V52.2468Z" fill="currentColor"/>
</svg>
