<svg role="img" xmlns="http://www.w3.org/2000/svg" width="72" height="72" fill="none" viewBox="0 0 72 72">
  <path stroke="currentColor" stroke-linecap="round" stroke-linejoin="round" d="M13 19v49h33V19"/>
  <path stroke="currentColor" stroke-linecap="round" stroke-linejoin="round" d="M25 63h9v5h-9zm25 0h7v5h-7zM25.0807 19H11v-5h37v5H33.8437"/>
  <path stroke="currentColor" stroke-linecap="round" stroke-linejoin="round" d="M61 39H46v29h15V39ZM17 14.0277V9h10.6859v5.0277M22.4414 8.179V4"/>
  <path fill="currentColor" fill-rule="evenodd" d="M28.5 35c0-1.3807 1.1193-2.5 2.5-2.5s2.5 1.1193 2.5 2.5-1.1193 2.5-2.5 2.5-2.5-1.1193-2.5-2.5Zm5.9646-.5c-.2427-1.6961-1.7014-3-3.4646-3-1.7632 0-3.2219 1.3039-3.4646 3H20a.5.5 0 0 0 0 1h7.5354c.2427 1.6961 1.7014 3 3.4646 3 1.7632 0 3.2219-1.3039 3.4646-3H40a.5.5 0 0 0 0-1h-5.5354ZM20 44.5a.5.5 0 0 0 0 1h3.5354c.2427 1.6961 1.7014 3 3.4646 3 1.7632 0 3.2219-1.3039 3.4646-3H40a.5.5 0 0 0 0-1h-9.5354c-.2427-1.6961-1.7014-3-3.4646-3-1.7632 0-3.2219 1.3039-3.4646 3H20Zm7-2c1.3807 0 2.5 1.1193 2.5 2.5s-1.1193 2.5-2.5 2.5-2.5-1.1193-2.5-2.5 1.1193-2.5 2.5-2.5Z"/>
</svg>
