<svg width="72" height="72" viewBox="0 0 72 72" fill="none" xmlns="http://www.w3.org/2000/svg">
<path d="M14.9207 52.5731V18.1252" stroke="currentColor" stroke-linecap="round" stroke-linejoin="round"/>
<path d="M39.3546 61.7858H34.8484" stroke="currentColor" stroke-linecap="round" stroke-linejoin="round"/>
<path d="M30.4422 20.128H42.6592C43.4603 20.128 44.3615 19.9277 45.0625 19.6273C45.8636 19.2267 46.164 18.2253 45.8636 17.4242C45.8636 17.3241 45.7635 17.3241 45.7635 17.2239L42.3588 11.6161C41.7579 10.6148 40.6564 10.0139 39.5549 10.0139H21.4297C20.228 10.0139 19.2266 10.6148 18.6258 11.6161L15.2211 17.2239C14.7204 17.9249 14.9206 19.0264 15.6216 19.5271L15.8219 19.6273C16.5229 20.0278 17.4241 20.2281 18.2252 20.128H30.4422Z" stroke="currentColor" stroke-linecap="round" stroke-linejoin="round"/>
<path d="M46.064 25.9361V18.1252" stroke="currentColor" stroke-linecap="round" stroke-linejoin="round"/>
<path d="M51.0709 27.9388H41.7579V61.886H51.0709V27.9388Z" stroke="currentColor" stroke-linecap="round" stroke-linejoin="round"/>
<path d="M45.0626 31.3435H47.7663" stroke="currentColor" stroke-linecap="round" stroke-linejoin="round"/>
<path d="M43.6606 49.3685H44.1606" stroke="currentColor" stroke-linecap="round" stroke-linejoin="round"/>
<path d="M46.1641 49.3685H46.6641" stroke="currentColor" stroke-linecap="round" stroke-linejoin="round"/>
<path d="M43.6606 52.8734H44.1606" stroke="currentColor" stroke-linecap="round" stroke-linejoin="round"/>
<path d="M46.1641 52.8734H46.6641" stroke="currentColor" stroke-linecap="round" stroke-linejoin="round"/>
<path d="M43.6606 56.4784H44.1606" stroke="currentColor" stroke-linecap="round" stroke-linejoin="round"/>
<path d="M46.1641 56.4784H46.6641" stroke="currentColor" stroke-linecap="round" stroke-linejoin="round"/>
<path d="M48.5674 49.3685H49.0674" stroke="currentColor" stroke-linecap="round" stroke-linejoin="round"/>
<path d="M48.5674 52.8734H49.0674" stroke="currentColor" stroke-linecap="round" stroke-linejoin="round"/>
<path d="M48.5674 56.4784H49.0674" stroke="currentColor" stroke-linecap="round" stroke-linejoin="round"/>
<path d="M46.3643 45.9638C46.9727 45.9638 47.4659 45.4706 47.4659 44.8623C47.4659 44.2539 46.9727 43.7607 46.3643 43.7607C45.756 43.7607 45.2628 44.2539 45.2628 44.8623C45.2628 45.4706 45.756 45.9638 46.3643 45.9638Z" stroke="currentColor" stroke-linecap="round" stroke-linejoin="round"/>
<path d="M63.6884 52.2726H59.1822C58.8818 52.2726 58.5813 52.4729 58.4812 52.6731L56.2781 56.5786C56.0779 56.879 56.0779 57.1794 56.2781 57.4798L58.4812 61.3852C58.6815 61.6857 58.8818 61.7858 59.1822 61.7858H63.6884C63.9888 61.7858 64.2893 61.5855 64.4895 61.3852L66.6926 57.4798C66.8929 57.1794 66.8929 56.879 66.6926 56.5786L64.4895 52.6731C64.2893 52.4729 63.9888 52.2726 63.6884 52.2726Z" stroke="currentColor" stroke-linecap="round" stroke-linejoin="round"/>
<path d="M35.2489 57.3796L32.445 61.7858H8.21136L5.40747 57.3796" stroke="currentColor" stroke-linecap="round" stroke-linejoin="round"/>
<path d="M5.40747 57.3797L8.51178 54.6759H32.1446L35.2489 57.3797" stroke="currentColor" stroke-linecap="round" stroke-linejoin="round"/>
</svg>
