<svg width="72" height="72" viewBox="0 0 72 72" fill="none" xmlns="http://www.w3.org/2000/svg">
<path fill-rule="evenodd" clip-rule="evenodd" d="M23.9499 7.64569C24.7526 6.28205 26.233 5.5 27.8068 5.5H49.1812C50.755 5.5 52.2354 6.28205 53.0381 7.64567C53.4154 8.26381 53.9966 9.19075 54.6453 10.2253L54.6468 10.2277L54.6476 10.229L54.6481 10.2298L54.9782 10.7563C55.7581 12.0005 56.5972 13.343 57.2711 14.4525C57.2852 14.4758 57.2974 14.5001 57.3076 14.5253C57.482 14.9584 57.5341 15.4083 57.4794 15.8367V24.4339C57.4794 24.7101 57.2555 24.9339 56.9794 24.9339C56.7032 24.9339 56.4794 24.7101 56.4794 24.4339V17.5587C56.3847 17.6297 56.2841 17.6949 56.1779 17.7535C56.1716 17.757 56.1652 17.7603 56.1587 17.7635C55.2689 18.2054 54.1812 18.4166 53.1133 18.4166H38.5948H23.8989C22.7974 18.5211 21.7997 18.2974 20.8197 17.7588L20.6276 17.6634C20.6091 17.6542 20.5912 17.6439 20.574 17.6325C20.5489 17.6159 20.5243 17.5989 20.5001 17.5816V56.1565C20.5001 56.4326 20.2762 56.6565 20.0001 56.6565C19.724 56.6565 19.5001 56.4326 19.5001 56.1565V15.5C19.5001 15.4612 19.5045 15.4234 19.5129 15.3871C19.5528 14.9901 19.6892 14.5965 19.9244 14.2426L23.9499 7.64569ZM56.4794 15.254V15.7654C56.4039 16.226 56.126 16.6363 55.7039 16.8729C54.982 17.2289 54.0575 17.4166 53.1133 17.4166H38.5948H23.8747C23.8582 17.4166 23.8417 17.4174 23.8253 17.419C22.924 17.5085 22.1175 17.3327 21.2932 16.8779C21.2869 16.8745 21.2805 16.8711 21.274 16.8679L21.1022 16.7826C20.7198 16.5183 20.5105 16.102 20.5001 15.6653V15.597C20.5066 15.3227 20.5915 15.0431 20.761 14.7905C20.7651 14.7845 20.7689 14.7784 20.7727 14.7723L24.8056 8.16308L24.8057 8.16312L24.8099 8.15586C25.4192 7.11847 26.5589 6.5 27.8068 6.5H49.1812C50.4291 6.5 51.5688 7.11847 52.1781 8.15586L52.178 8.15589L52.1824 8.16308C52.5636 8.78781 53.1509 9.72446 53.8014 10.7619L54.1309 11.2874C54.9024 12.5183 55.728 13.8391 56.3939 14.9346C56.4338 15.0404 56.4621 15.1474 56.4794 15.254ZM12.6942 58.1045C12.7818 58.0367 12.8894 58 13.0002 58H40.5002C40.6136 58 40.7237 58.0385 40.8123 58.1093L44.6739 61.1949C44.8733 61.3542 44.9207 61.638 44.784 61.8535L41.4794 67.0607C41.3877 67.2052 41.2284 67.2928 41.0572 67.2928H12.3173C12.1461 67.2928 11.9869 67.2052 11.8952 67.0607L8.59056 61.8535C8.45225 61.6355 8.50258 61.3481 8.70673 61.1901L12.6942 58.1045ZM13.171 59L9.67896 61.7022L12.5922 66.2928H40.7824L43.6994 61.6962L40.3249 59H13.171ZM43.9613 66.2928C43.6851 66.2928 43.4613 66.5166 43.4613 66.7928C43.4613 67.0689 43.6851 67.2928 43.9613 67.2928H49.2686C49.5448 67.2928 49.7686 67.0689 49.7686 66.7928C49.7686 66.5166 49.5448 66.2928 49.2686 66.2928H43.9613ZM51.3723 26.7371C51.3723 26.461 51.5961 26.2371 51.8723 26.2371H62.8876C63.1637 26.2371 63.3876 26.461 63.3876 26.7371V66.8929C63.3876 67.169 63.1637 67.3929 62.8876 67.3929H51.8723C51.5961 67.3929 51.3723 67.169 51.3723 66.8929V26.7371ZM52.3723 27.2371V66.3929H62.3876V27.2371H52.3723ZM55.8778 30.3428C55.6017 30.3428 55.3778 30.5667 55.3778 30.8428C55.3778 31.119 55.6017 31.3428 55.8778 31.3428H58.9821C59.2583 31.3428 59.4821 31.119 59.4821 30.8428C59.4821 30.5667 59.2583 30.3428 58.9821 30.3428H55.8778ZM53.6755 54.1752C53.6755 53.8991 53.8993 53.6752 54.1755 53.6752H54.7755C55.0516 53.6752 55.2755 53.8991 55.2755 54.1752C55.2755 54.4514 55.0516 54.6752 54.7755 54.6752H54.1755C53.8993 54.6752 53.6755 54.4514 53.6755 54.1752ZM57.0795 53.6752C56.8033 53.6752 56.5795 53.8991 56.5795 54.1752C56.5795 54.4514 56.8033 54.6752 57.0795 54.6752H57.6795C57.9556 54.6752 58.1795 54.4514 58.1795 54.1752C58.1795 53.8991 57.9556 53.6752 57.6795 53.6752H57.0795ZM53.6755 58.4812C53.6755 58.2051 53.8993 57.9812 54.1755 57.9812H54.7755C55.0516 57.9812 55.2755 58.2051 55.2755 58.4812C55.2755 58.7574 55.0516 58.9812 54.7755 58.9812H54.1755C53.8993 58.9812 53.6755 58.7574 53.6755 58.4812ZM57.0795 57.9812C56.8033 57.9812 56.5795 58.2051 56.5795 58.4812C56.5795 58.7574 56.8033 58.9812 57.0795 58.9812H57.6795C57.9556 58.9812 58.1795 58.7574 58.1795 58.4812C58.1795 58.2051 57.9556 57.9812 57.6795 57.9812H57.0795ZM53.6755 62.6871C53.6755 62.4109 53.8993 62.1871 54.1755 62.1871H54.7755C55.0516 62.1871 55.2755 62.4109 55.2755 62.6871C55.2755 62.9632 55.0516 63.1871 54.7755 63.1871H54.1755C53.8993 63.1871 53.6755 62.9632 53.6755 62.6871ZM57.0795 62.1871C56.8033 62.1871 56.5795 62.4109 56.5795 62.6871C56.5795 62.9632 56.8033 63.1871 57.0795 63.1871H57.6795C57.9556 63.1871 58.1795 62.9632 58.1795 62.6871C58.1795 62.4109 57.9556 62.1871 57.6795 62.1871H57.0795ZM59.5837 54.1752C59.5837 53.8991 59.8075 53.6752 60.0837 53.6752H60.6837C60.9598 53.6752 61.1837 53.8991 61.1837 54.1752C61.1837 54.4514 60.9598 54.6752 60.6837 54.6752H60.0837C59.8075 54.6752 59.5837 54.4514 59.5837 54.1752ZM60.0837 57.9812C59.8075 57.9812 59.5837 58.2051 59.5837 58.4812C59.5837 58.7574 59.8075 58.9812 60.0837 58.9812H60.6837C60.9598 58.9812 61.1837 58.7574 61.1837 58.4812C61.1837 58.2051 60.9598 57.9812 60.6837 57.9812H60.0837ZM59.5837 62.6871C59.5837 62.4109 59.8075 62.1871 60.0837 62.1871H60.6837C60.9598 62.1871 61.1837 62.4109 61.1837 62.6871C61.1837 62.9632 60.9598 63.1871 60.6837 63.1871H60.0837C59.8075 63.1871 59.5837 62.9632 59.5837 62.6871ZM56.5781 48.8679C56.5781 48.425 56.9371 48.0661 57.3799 48.0661C57.8227 48.0661 58.1817 48.425 58.1817 48.8679C58.1817 49.3107 57.8227 49.6697 57.3799 49.6697C56.9371 49.6697 56.5781 49.3107 56.5781 48.8679ZM57.3799 47.0661C56.3848 47.0661 55.5781 47.8728 55.5781 48.8679C55.5781 49.863 56.3848 50.6697 57.3799 50.6697C58.375 50.6697 59.1817 49.863 59.1817 48.8679C59.1817 47.8728 58.375 47.0661 57.3799 47.0661Z" fill="currentColor"/>
</svg>
