<svg width="24" height="24" viewBox="0 0 24 24" fill="none" xmlns="http://www.w3.org/2000/svg">
<path fill-rule="evenodd" clip-rule="evenodd" d="M7.11524 2.3711C7.46521 1.80634 8.09591 1.5 8.74292 1.5H16.2529C16.8999 1.5 17.5305 1.80633 17.8805 2.37107C18.0121 2.57651 18.2147 2.88453 18.4424 3.2308L18.5586 3.40747C18.8325 3.82403 19.1285 4.27563 19.3668 4.64957C19.3734 4.66001 19.3797 4.6707 19.3856 4.68159C19.4571 4.76808 19.5 4.87902 19.5 5V5.15473C19.5006 5.17532 19.5006 5.19586 19.5 5.21633V7C19.5 7.27614 19.2762 7.5 19 7.5C18.7239 7.5 18.5 7.27614 18.5 7V6.37123C18.2216 6.45369 17.9231 6.49161 17.6344 6.49161H12.5333H7.38364C7.07324 6.51781 6.78135 6.48238 6.50003 6.38871V17C6.50003 17.2761 6.27617 17.5 6.00003 17.5C5.72388 17.5 5.50003 17.2761 5.50003 17V5C5.50003 4.84784 5.56799 4.71156 5.67523 4.61985C5.68492 4.60427 5.69503 4.58883 5.70554 4.57357L7.11524 2.3711ZM8.74292 2.5C8.39956 2.5 8.11066 2.66182 7.96419 2.89957L7.95968 2.9069L7.95962 2.90686L6.54265 5.1207C6.53868 5.12689 6.53459 5.13299 6.53036 5.139C6.50082 5.18094 6.49663 5.21991 6.50207 5.2486C6.50647 5.2718 6.51883 5.29813 6.54847 5.32189L6.58345 5.33845C6.58979 5.34145 6.59606 5.34458 6.60227 5.34785C6.8395 5.47264 7.06148 5.51777 7.31424 5.49384C7.3299 5.49236 7.34563 5.49161 7.36137 5.49161H12.5333H17.6344C17.9267 5.49161 18.1998 5.43632 18.4011 5.34369C18.4834 5.29674 18.5134 5.21694 18.4939 5.1407C18.2653 4.78282 17.9859 4.35664 17.723 3.95682L17.6076 3.78132L17.6074 3.78107C17.3791 3.4339 17.1713 3.11803 17.0362 2.90686L17.0315 2.89961L17.0316 2.89957C16.8851 2.66182 16.5962 2.5 16.2529 2.5H8.74292ZM3.03554 18.6142C3.1251 18.5404 3.23756 18.5 3.35364 18.5H12.6891C12.8079 18.5 12.9228 18.5423 13.0133 18.6193L14.3242 19.7355C14.5098 19.8936 14.5544 20.1626 14.4296 20.3721L13.3078 22.2558C13.2176 22.4072 13.0544 22.5 12.8782 22.5H3.12184C2.94562 22.5 2.78241 22.4072 2.69225 22.2558L1.57043 20.3721C1.44414 20.16 1.49149 19.8875 1.68192 19.7305L3.03554 18.6142ZM3.53321 19.5L2.64914 20.229L3.40603 21.5H12.594L13.3544 20.2232L12.5051 19.5H3.53321ZM15 21.5C14.7239 21.5 14.5 21.7239 14.5 22C14.5 22.2761 14.7239 22.5 15 22.5H16C16.2762 22.5 16.5 22.2761 16.5 22C16.5 21.7239 16.2762 21.5 16 21.5H15Z" fill="currentColor"/>
<path fill-rule="evenodd" clip-rule="evenodd" d="M17.5 9C17.5 8.72386 17.7239 8.5 18 8.5H22C22.2761 8.5 22.5 8.72386 22.5 9V22C22.5 22.2761 22.2761 22.5 22 22.5H18C17.7239 22.5 17.5 22.2761 17.5 22V9ZM18.5 9.5V21.5H21.5V9.5H18.5ZM19 10.5C19 10.2239 19.2239 10 19.5 10H20.5C20.7761 10 21 10.2239 21 10.5C21 10.7761 20.7761 11 20.5 11H19.5C19.2239 11 19 10.7761 19 10.5ZM20 14.5C19.4477 14.5 19 14.9477 19 15.5C19 16.0523 19.4477 16.5 20 16.5C20.5523 16.5 21 16.0523 21 15.5C21 14.9477 20.5523 14.5 20 14.5ZM20 17.5C20 17.7761 19.7761 18 19.5 18C19.2239 18 19 17.7761 19 17.5C19 17.2239 19.2239 17 19.5 17C19.7761 17 20 17.2239 20 17.5ZM20.5 18C20.7761 18 21 17.7761 21 17.5C21 17.2239 20.7761 17 20.5 17C20.2239 17 20 17.2239 20 17.5C20 17.7761 20.2239 18 20.5 18ZM20.5 19C20.7761 19 21 18.7761 21 18.5C21 18.2239 20.7761 18 20.5 18C20.2239 18 20 18.2239 20 18.5C20 18.2239 19.7761 18 19.5 18C19.2239 18 19 18.2239 19 18.5C19 18.7761 19.2239 19 19.5 19C19.2239 19 19 19.2239 19 19.5C19 19.7761 19.2239 20 19.5 20C19.2239 20 19 20.2239 19 20.5C19 20.7761 19.2239 21 19.5 21C19.7761 21 20 20.7761 20 20.5C20 20.7761 20.2239 21 20.5 21C20.7761 21 21 20.7761 21 20.5C21 20.2239 20.7761 20 20.5 20C20.7761 20 21 19.7761 21 19.5C21 19.2239 20.7761 19 20.5 19ZM20 19.5C20 19.2239 19.7761 19 19.5 19C19.7761 19 20 18.7761 20 18.5C20 18.7761 20.2239 19 20.5 19C20.2239 19 20 19.2239 20 19.5ZM20 19.5C20 19.7761 20.2239 20 20.5 20C20.2239 20 20 20.2239 20 20.5C20 20.2239 19.7761 20 19.5 20C19.7761 20 20 19.7761 20 19.5Z" fill="currentColor"/>
</svg>
