<svg width="24" height="24" viewBox="0 0 24 24" fill="none" xmlns="http://www.w3.org/2000/svg">
<path d="M5 16.5V4.5" stroke="currentColor" stroke-linecap="round" stroke-linejoin="round"/>
<path d="M10.4935 4.99119H14.8237C15.1077 4.99119 15.4271 4.92206 15.6756 4.81836C15.9595 4.6801 16.066 4.33443 15.9595 4.0579C15.9595 4.02334 15.924 4.02334 15.924 3.98877L14.7172 2.05306C14.5043 1.7074 14.1139 1.5 13.7234 1.5H7.29916C6.87324 1.5 6.51831 1.7074 6.30535 2.05306L5.09858 3.98877C4.92111 4.23073 4.9921 4.61096 5.24055 4.78379L5.31154 4.81836C5.55999 4.95663 5.87943 5.02576 6.16338 4.99119H10.4935Z" stroke="currentColor" stroke-linecap="round" stroke-linejoin="round"/>
<path d="M16 6.5V4.5" stroke="currentColor" stroke-linecap="round" stroke-linejoin="round"/>
<path d="M17 8H13V21H17V8Z" stroke="currentColor" stroke-linecap="round" stroke-linejoin="round"/>
<path d="M14.5 9.5H15.5" stroke="currentColor" stroke-linecap="round" stroke-linejoin="round"/>
<path d="M15 15C15.2761 15 15.5 14.7761 15.5 14.5C15.5 14.2239 15.2761 14 15 14C14.7239 14 14.5 14.2239 14.5 14.5C14.5 14.7761 14.7239 15 15 15Z" stroke="currentColor" stroke-linecap="round" stroke-linejoin="round"/>
<circle cx="14.5" cy="16.5" r="0.5" fill="currentColor"/>
<circle cx="14.5" cy="17.5" r="0.5" fill="currentColor"/>
<circle cx="14.5" cy="18.5" r="0.5" fill="currentColor"/>
<circle cx="14.5" cy="19.5" r="0.5" fill="currentColor"/>
<circle cx="15.5" cy="16.5" r="0.5" fill="currentColor"/>
<circle cx="15.5" cy="17.5" r="0.5" fill="currentColor"/>
<circle cx="15.5" cy="18.5" r="0.5" fill="currentColor"/>
<circle cx="15.5" cy="19.5" r="0.5" fill="currentColor"/>
<path d="M20.9696 18H19.4977C19.3995 18 19.3014 18.0632 19.2687 18.1263L18.5491 19.3579C18.4836 19.4526 18.4836 19.5474 18.5491 19.6421L19.2687 20.8737C19.3341 20.9684 19.3995 21 19.4977 21H20.9696C21.0678 21 21.1659 20.9368 21.2313 20.8737L21.9509 19.6421C22.0164 19.5474 22.0164 19.4526 21.9509 19.3579L21.2313 18.1263C21.1659 18.0632 21.0678 18 20.9696 18Z" stroke="currentColor" stroke-linecap="round" stroke-linejoin="round"/>
<path d="M10.5 19.4512L9.65436 21.0005H2.34564L1.5 19.4512" stroke="currentColor" stroke-linecap="round" stroke-linejoin="round"/>
<path d="M1.5 19.4507L2.43624 18.5H9.56376L10.5 19.4507" stroke="currentColor" stroke-linecap="round" stroke-linejoin="round"/>
</svg>
