<svg width="72" height="72" viewBox="0 0 72 72" fill="none" xmlns="http://www.w3.org/2000/svg">
<path fill-rule="evenodd" clip-rule="evenodd" d="M29 9.5C27.6193 9.5 26.5 10.6193 26.5 12V16.5H18H6C5.72386 16.5 5.5 16.7239 5.5 17V57C5.5 57.2761 5.72386 57.5 6 57.5H18H54.5H66C66.2761 57.5 66.5 57.2761 66.5 57V17C66.5 16.7239 66.2761 16.5 66 16.5H54.5H44.5V12C44.5 10.6193 43.3807 9.5 42 9.5H29ZM43.5 16.5V12C43.5 11.1716 42.8284 10.5 42 10.5H29C28.1716 10.5 27.5 11.1716 27.5 12V16.5H43.5ZM27 17.5H18.5V56.5H54V17.5H44H27ZM6.5 56.5V17.5H17.5V56.5H6.5ZM55 56.5V17.5H65.5V56.5H55Z" fill="currentColor"/>
</svg>
