<svg role="img" xmlns="http://www.w3.org/2000/svg" width="72" height="72" fill="none" viewBox="0 0 72 72">
  <path fill="currentColor" fill-rule="evenodd" d="M35.9499 5.7086a.5.5 0 0 0-.5.5v21.7302a.5.5 0 0 0 .5.5h7.0104v7.0104a.5001.5001 0 0 0 .8536.3536l7.364-7.364h15.9153a.5.5 0 0 0 .5-.5V6.2086a.5.5 0 0 0-.5-.5H35.9499Zm.5 21.7302V6.7086h30.1433v20.7302H50.9708a.5004.5004 0 0 0-.3536.1464l-6.6569 6.6569v-6.3033a.5.5 0 0 0-.5-.5h-7.0104ZM19.5575 14.1452c-1.9033-1.6793-4.8105-1.566-6.5978.327l-1.0963 1.0964-4.0056 4.0055-.5007.5007.2792.2791-.2792-.2791-.3004.3004a.5107.5107 0 0 0-.0464.0536c-2.8655 3.8206-2.4621 9.2749-.1508 14.9584C9.181 41.096 13.4804 47.183 18.671 52.4242l-.0001.0001.0089.0084c5.2392 5.0378 11.324 9.3099 17.0298 11.6556 5.6783 2.3344 11.1332 2.8173 14.9566.0028a.4954.4954 0 0 0 .0572-.0491l.3004-.3004.5007-.5007 4.0056-4.0056 1.1015-1.1015c2.0492-2.0492 2.1586-5.109.2622-6.6498a.4756.4756 0 0 0-.0533-.0378l-9.0755-5.5849c-1.0416-.9169-2.2653-1.3088-3.4868-1.1965-1.2266.1128-2.4092.7294-3.3793 1.7513l-3.4455 3.4455c-.4606.2275-1.0662.2865-1.8233.155-.7893-.1371-1.7007-.4744-2.6954-.9809-1.985-1.0108-4.2231-2.6545-6.3557-4.5379-1.9723-1.9742-3.6839-4.2058-4.7032-6.2201-.5109-1.0096-.8369-1.9433-.9458-2.7484-.1058-.7826-.0023-1.4039.2895-1.8666l3.4677-3.4677c1.0193-1.0193 1.6106-2.202 1.7095-3.4173.0984-1.2085-.2944-2.4019-1.1555-3.4378l-5.5888-9.0818a.5012.5012 0 0 0-.095-.1129Zm-5.8749 1.0181c1.4005-1.4881 3.6584-1.5891 5.1586-.3155l5.5674 9.0471a.5112.5112 0 0 0 .0434.06c.7242.86 1.0241 1.8085.9481 2.7417-.0763.9377-.5365 1.908-1.4199 2.7913l-3.5048 3.5049a.4913.4913 0 0 0-.0625.0762c-.4901.735-.6028 1.6404-.4738 2.5943.129.9536.504 1.9977 1.0445 3.0659 1.0818 2.1378 2.8706 4.458 4.8993 6.4867a.498.498 0 0 0 .0224.0211c2.17 1.9176 4.4836 3.6245 6.5757 4.6898 1.0456.5324 2.0557.9148 2.9781 1.075.9209.16 1.7975.1052 2.5315-.2923a.5012.5012 0 0 0 .1154-.0861l3.5048-3.5049.0002.0001.0093-.0098c.8315-.8777 1.8-1.3609 2.7495-1.4482.9432-.0867 1.9091.2125 2.7627.9763a.5015.5015 0 0 0 .0714.0532l9.0834 5.5898c1.2853 1.0719 1.3826 3.4015-.3627 5.1468l-1.1015 1.1015-4.0056 4.0056-.5007.5007-.2733.2733c-3.3861 2.469-8.3826 2.1459-13.9535-.1444-5.5583-2.285-11.5384-6.4729-16.7127-11.4473-5.1215-5.1723-9.3323-11.1502-11.5915-16.7056-2.2638-5.5667-2.5162-10.5647.0035-13.9537l.275-.2749.5006-.5007 4.0056-4.0055 1.1015-1.1016.0106-.0108Zm32.6818 1.7602c0 1.0508-.8519 1.9026-1.9027 1.9026-1.0508 0-1.9026-.8518-1.9026-1.9026 0-1.0508.8518-1.9026 1.9026-1.9026 1.0508 0 1.9027.8518 1.9027 1.9026Zm5.1071 1.9026c1.0508 0 1.9026-.8518 1.9026-1.9026 0-1.0508-.8518-1.9026-1.9026-1.9026-1.0508 0-1.9027.8518-1.9027 1.9026 0 1.0508.8519 1.9026 1.9027 1.9026Zm9.1126-1.9026c0 1.0508-.8518 1.9026-1.9026 1.9026-1.0508 0-1.9027-.8518-1.9027-1.9026 0-1.0508.8519-1.9026 1.9027-1.9026 1.0508 0 1.9026.8518 1.9026 1.9026Z"/>
</svg>
