<svg role="img" xmlns="http://www.w3.org/2000/svg" width="24" height="24" fill="none" viewBox="0 0 24 24">
  <path fill="currentColor" fill-rule="evenodd" d="M11.9832 1.5696a.5.5 0 0 0-.5.5V9.313a.5.5 0 0 0 .5.5h2.0035v2.0034a.5.5 0 0 0 .8536.3536l2.357-2.357h5.167a.5.5 0 0 0 .5-.5V2.0695a.5.5 0 0 0-.5-.5H11.9832Zm.5 7.2434V2.5695h9.3811V8.813h-4.8741a.5002.5002 0 0 0-.3536.1464l-1.6499 1.6499V9.313a.5.5 0 0 0-.5-.5h-2.0035ZM6.7396 4.465c-.7683-.6779-1.9396-.6314-2.6587.1265l-.3622.3622L2.3835 6.289l-.167.167.3537.3535-.3536-.3536-.1002.1002a.4991.4991 0 0 0-.0464.0535c-1.063 1.4173-.8765 3.3834-.0924 5.3117.7945 1.9535 2.2565 4.0183 4.0092 5.788l-.0001.0001.0088.0085c1.7678 1.6997 3.8303 3.1513 5.7809 3.9532 1.923.7906 3.8898 1.0064 5.3099-.0389a.487.487 0 0 0 .0571-.0492l.1002-.1001.1669-.1669 1.3352-1.3352.3672-.3672c.7807-.7807.8901-2.038.0618-2.711a.5064.5064 0 0 0-.0532-.0377l-3.002-1.8474c-.4077-.3493-.8963-.5066-1.3907-.4611-.5003.046-.9652.2951-1.3345.6829l-1.0992 1.0992c-.0736.024-.1879.0354-.3614.0053-.2187-.038-.4897-.1354-.8043-.2956-.6249-.3182-1.3442-.8437-2.0413-1.4585-.637-.6389-1.1804-1.3518-1.4988-1.981-.1604-.317-.2527-.5914-.2824-.8103-.0252-.1869-.0015-.3025.0335-.3734l1.1243-1.1243c.3851-.385.6259-.8501.6664-1.3478.0398-.4897-.1185-.9649-.4455-1.367L6.8346 4.578a.4998.4998 0 0 0-.095-.1128Zm-1.936.8178c.3333-.3543.8586-.3872 1.2228-.1102l1.8258 2.967a.5.5 0 0 0 .0434.06c.1901.2257.2563.4566.2388.6721-.018.22-.1277.4727-.3768.7218L6.5893 10.762a.5011.5011 0 0 0-.0624.0762c-.223.3345-.2607.7267-.211 1.0944.0497.3673.191.7522.3811 1.1278.3808.7525 1.0013 1.5539 1.6948 2.2474a.5338.5338 0 0 0 .0225.0211c.7346.6492 1.5295 1.2378 2.2614 1.6105.3655.1861.735.3286 1.0869.3897.3503.0609.7262.0479 1.0596-.1327a.5012.5012 0 0 0 .1154-.0861l1.1683-1.1683.0001.0001.0093-.0098c.2307-.2435.4816-.3595.7051-.38.2171-.02.4487.0455.6681.2419a.5006.5006 0 0 0 .0713.0532l3.0042 1.8487c.2257.2083.3157.7366-.1583 1.2105l-.3671.3672-1.3352 1.3352-.1669.1669-.0722.0721c-.984.7016-2.4935.6441-4.3077-.1017-1.803-.7413-3.7609-2.1086-5.4636-3.7449-1.6835-1.7008-3.057-3.6565-3.789-5.4567-.7362-1.8102-.7729-3.321-.0541-4.3078l.0738-.0738.1669-.1669L4.4258 5.661l.3672-.3671.0105-.011Zm10.6512.3583a.6342.6342 0 1 1-1.2684 0 .6342.6342 0 0 1 1.2684 0Zm1.7024.6342a.6342.6342 0 1 0 0-1.2684.6342.6342 0 0 0 0 1.2684Zm3.0376-.6342a.6342.6342 0 1 1-1.2685 0 .6342.6342 0 0 1 1.2685 0Z"/>
</svg>
