<svg width="72" height="72" viewBox="0 0 72 72" fill="none" xmlns="http://www.w3.org/2000/svg">
<path fill-rule="evenodd" clip-rule="evenodd" d="M35.9497 5.70898C35.6735 5.70898 35.4497 5.93284 35.4497 6.20898V27.9392C35.4497 28.2153 35.6735 28.4392 35.9497 28.4392H42.9601V35.4496C42.9601 35.6518 43.0819 35.8342 43.2688 35.9115C43.4556 35.9889 43.6707 35.9462 43.8137 35.8032L51.1776 28.4392H67.0929C67.3691 28.4392 67.5929 28.2153 67.5929 27.9392V6.20898C67.5929 5.93284 67.3691 5.70898 67.0929 5.70898H35.9497ZM36.4497 27.4392V6.70898H66.5929V27.4392H50.9705C50.8379 27.4392 50.7107 27.4918 50.617 27.5856L43.9601 34.2425V27.9392C43.9601 27.663 43.7362 27.4392 43.4601 27.4392H36.4497ZM19.5573 14.1456C17.6539 12.4662 14.7467 12.5796 12.9595 14.4726L11.8632 15.5689L7.85759 19.5745L7.35689 20.0752L7.63601 20.3543L7.35689 20.0752L7.05647 20.3756C7.03975 20.3923 7.02422 20.4102 7.01003 20.4292C4.14454 24.2498 4.54795 29.7041 6.85924 35.3876C9.18079 41.0963 13.4801 47.1833 18.6709 52.4245L18.6708 52.4246L18.6796 52.4331C23.9188 57.4708 30.0037 61.743 35.7095 64.0887C41.3877 66.4231 46.8426 66.906 50.6661 64.0915C50.6864 64.0766 50.7055 64.0602 50.7232 64.0424L51.0237 63.742L51.5244 63.2413L55.5299 59.2357L56.6315 58.1342C58.6806 56.085 58.79 53.0252 56.8936 51.4844C56.8853 51.4776 56.8768 51.4711 56.8681 51.465C56.8591 51.4585 56.8498 51.4524 56.8404 51.4466L47.7649 45.8617C46.7232 44.9448 45.4995 44.5529 44.278 44.6652C43.0515 44.778 41.8689 45.3945 40.8988 46.4165L37.4533 49.862C36.9926 50.0895 36.387 50.1484 35.63 50.017C34.8407 49.8799 33.9293 49.5425 32.9345 49.036C30.9496 48.0253 28.7114 46.3816 26.5788 44.4982C24.6065 42.524 22.8949 40.2924 21.8756 38.2781C21.3647 37.2684 21.0387 36.3348 20.9299 35.5297C20.824 34.7471 20.9276 34.1258 21.2194 33.6631L24.6871 30.1954C25.7064 29.176 26.2976 27.9933 26.3966 26.7781C26.4949 25.5696 26.1021 24.3762 25.241 23.3402L19.6523 14.2585C19.6264 14.2164 19.5943 14.1783 19.5573 14.1456ZM13.6823 15.1636C15.0829 13.6755 17.3408 13.5746 18.8409 14.8481L24.4084 23.8952C24.4214 23.9163 24.4359 23.9363 24.4518 23.9553C25.176 24.8152 25.4758 25.7638 25.3999 26.6969C25.3235 27.6346 24.8633 28.6049 23.98 29.4883L20.4751 32.9931C20.4518 33.0164 20.4309 33.0419 20.4126 33.0693C19.9226 33.8044 19.8099 34.7098 19.9389 35.6637C20.0678 36.6173 20.4428 37.6614 20.9834 38.7296C22.0651 40.8674 23.854 43.1876 25.8826 45.2162C25.8899 45.2235 25.8974 45.2305 25.9051 45.2373C28.075 47.1549 30.3887 48.8619 32.4808 49.9272C33.5264 50.4596 34.5364 50.842 35.4589 51.0022C36.3798 51.1622 37.2563 51.1074 37.9903 50.7098C38.0327 50.6869 38.0716 50.6579 38.1057 50.6237L41.6106 47.1189L41.6107 47.119L41.62 47.1092C42.4515 46.2315 43.4201 45.7483 44.3696 45.661C45.3127 45.5743 46.2786 45.8735 47.1323 46.6372C47.1544 46.6571 47.1783 46.6749 47.2036 46.6905L56.2871 52.2803C57.5723 53.3522 57.6696 55.6818 55.9244 57.4271L54.8228 58.5286L50.8173 62.5342L50.3166 63.0349L50.0433 63.3082C46.6572 65.7771 41.6606 65.4541 36.0897 63.1638C30.5314 60.8787 24.5513 56.6908 19.3771 51.7165C14.2555 46.5442 10.0448 40.5663 7.78557 35.0109C5.52176 29.4441 5.26939 24.4461 7.78907 21.0572L8.064 20.7823L8.56469 20.2816L12.5703 16.276L13.6718 15.1745L13.6823 15.1636ZM46.3641 16.9239C46.3641 17.9747 45.5123 18.8265 44.4615 18.8265C43.4107 18.8265 42.5588 17.9747 42.5588 16.9239C42.5588 15.8731 43.4107 15.0212 44.4615 15.0212C45.5123 15.0212 46.3641 15.8731 46.3641 16.9239ZM51.4712 18.8265C52.522 18.8265 53.3739 17.9747 53.3739 16.9239C53.3739 15.8731 52.522 15.0212 51.4712 15.0212C50.4204 15.0212 49.5686 15.8731 49.5686 16.9239C49.5686 17.9747 50.4204 18.8265 51.4712 18.8265ZM60.5839 16.9239C60.5839 17.9747 59.732 18.8265 58.6812 18.8265C57.6304 18.8265 56.7786 17.9747 56.7786 16.9239C56.7786 15.8731 57.6304 15.0212 58.6812 15.0212C59.732 15.0212 60.5839 15.8731 60.5839 16.9239Z" fill="currentColor"/>
</svg>
