<svg width="72" height="72" viewBox="0 0 72 72" fill="none" xmlns="http://www.w3.org/2000/svg">
<path d="M47.5661 45.0626L43.4604 49.0681C40.7566 50.6704 34.7483 47.1655 29.9416 42.5591C25.3352 37.6523 21.8303 31.7441 23.4325 29.0403L27.5382 24.9346C29.6412 22.9318 30.0417 19.7274 28.3394 17.3241L21.8303 6.50904C19.6273 4.90681 16.5229 5.20723 14.8206 7.31015L13.4186 8.41168L8.81224 13.0181C8.51182 13.3185 8.31154 13.6189 8.31154 13.8192L8.01113 14.1196C1.50209 22.8317 9.61335 38.7538 21.5299 50.9708C33.7469 62.8873 50.0695 71.0987 58.3811 64.5897L58.6815 64.2893C58.9819 63.9889 59.1822 63.9889 59.1822 63.7886L63.7886 59.0821L64.8901 57.7802C66.8929 55.9777 67.0932 52.8734 65.3908 50.7705L54.5758 44.2615C52.4729 42.5591 49.3686 42.9597 47.5661 45.0626Z" stroke="currentColor" stroke-linecap="round" stroke-linejoin="round"/>
<path d="M51.8721 29.541H42.9597M42.9597 29.541V20.6286M42.9597 29.541L59.7831 12.7177" stroke="currentColor" stroke-linecap="round" stroke-linejoin="round"/>
</svg>
