<svg role="img" width="24" height="24" viewBox="0 0 24 24" fill="none" xmlns="http://www.w3.org/2000/svg">
<path fill-rule="evenodd" clip-rule="evenodd" d="M7.82516 2.53706C7.02184 1.8485 5.73644 1.98425 4.98837 2.80216L4.60408 3.10959C4.58967 3.12111 4.57592 3.13342 4.56287 3.14647L3.14621 4.56313L3.13944 4.56989C3.10272 4.60653 3.03847 4.67063 2.98518 4.74169C2.95885 4.77679 2.92096 4.83164 2.88958 4.90322C2.87536 4.91799 2.86206 4.93362 2.84976 4.95002C1.68829 6.49864 1.89051 8.61616 2.74551 10.7002C3.60986 12.8071 5.19461 15.0262 7.05892 16.9329L7.05883 16.933L7.06687 16.9409C8.9749 18.8065 11.2151 20.3907 13.3316 21.2546C15.4206 22.1072 17.5451 22.315 19.0558 21.1454C19.0725 21.1325 19.0884 21.1185 19.1033 21.1036L19.1752 21.0317C19.1811 21.0283 19.1955 21.0191 19.225 20.9994C19.2554 20.9792 19.3315 20.9271 19.3951 20.8362C19.4093 20.8158 19.422 20.795 19.4332 20.7737L20.77 19.4369C20.783 19.4239 20.7953 19.4101 20.8069 19.3957L21.1238 18.9995C21.9451 18.1591 21.9697 16.9605 21.2961 16.1746C21.2611 16.1338 21.2198 16.0989 21.1737 16.0713L17.8737 14.0913C17.0472 13.4161 15.8569 13.6024 15.0629 14.3965L13.8679 15.5914C13.7918 15.6217 13.6641 15.6399 13.459 15.6048C13.2144 15.563 12.9106 15.4534 12.5616 15.2741C11.8687 14.918 11.0777 14.3288 10.3535 13.6463C9.671 12.9221 9.08183 12.1311 8.72573 11.4382C8.54639 11.0892 8.43673 10.7853 8.39496 10.5408C8.35992 10.3357 8.37813 10.208 8.40834 10.1319L9.60331 8.93691C10.4333 8.1069 10.5488 6.93213 9.92271 5.98312L7.92851 2.65944C7.90086 2.61336 7.86596 2.57203 7.82516 2.53706ZM5.70938 3.49594C6.11161 3.03625 6.75339 2.99758 7.11846 3.25302L9.07101 6.50727C9.07509 6.51407 9.07934 6.52077 9.08374 6.52737C9.44985 7.07655 9.39649 7.72952 8.89621 8.2298L7.64621 9.4798C7.6173 9.50871 7.59205 9.54105 7.57101 9.57611C7.36144 9.9254 7.34485 10.3323 7.40924 10.7092C7.47424 11.0897 7.63021 11.4942 7.8363 11.8952C8.24933 12.699 8.90621 13.5703 9.63625 14.3433C9.64279 14.3503 9.64953 14.357 9.65645 14.3635C10.4294 15.0936 11.3008 15.7505 12.1046 16.1635C12.5056 16.3696 12.9101 16.5255 13.2906 16.5905C13.6675 16.6549 14.0744 16.6383 14.4237 16.4288C14.4587 16.4077 14.4911 16.3825 14.52 16.3536L15.77 15.1036C16.2981 14.5755 16.9187 14.5891 17.2577 14.8796C17.279 14.8979 17.3018 14.9143 17.3258 14.9288L20.5821 16.8825C20.8594 17.2606 20.864 17.8453 20.3962 18.3131C20.3832 18.3262 20.3709 18.3399 20.3593 18.3543L20.0433 18.7494L18.6462 20.1465C18.6219 20.1708 18.6003 20.1974 18.5817 20.2258C18.5509 20.2483 18.5157 20.2769 18.4795 20.3131L18.4196 20.3731C17.3462 21.1844 15.6891 21.1367 13.7095 20.3288C11.7441 19.5266 9.61105 18.0291 7.77 16.2298C5.9694 14.3874 4.47241 12.2749 3.67068 10.3207C2.86561 8.3583 2.81206 6.69532 3.62947 5.57741L3.68665 5.52024C3.74508 5.46181 3.78756 5.3904 3.81127 5.31279C3.82254 5.30106 3.83569 5.28786 3.85331 5.27024L5.2504 3.87316L5.64544 3.55712C5.66852 3.53866 5.68992 3.51818 5.70938 3.49594ZM19.52 5.18691C19.7152 4.99165 19.7152 4.67507 19.52 4.4798C19.3247 4.28454 19.0081 4.28454 18.8129 4.4798L14.4998 8.79292V7.25002C14.4998 6.97388 14.2759 6.75002 13.9998 6.75002C13.7236 6.75002 13.4998 6.97388 13.4998 7.25002V10C13.4998 10.2762 13.7236 10.5 13.9998 10.5H16.7498C17.0259 10.5 17.2498 10.2762 17.2498 10C17.2498 9.72388 17.0259 9.50002 16.7498 9.50002H15.2069L19.52 5.18691Z" fill="currentColor"/>
</svg>
