<svg role="img" width="24" height="24" viewBox="0 0 24 24" fill="none" xmlns="http://www.w3.org/2000/svg">
<path fill-rule="evenodd" clip-rule="evenodd" d="M12.4917 1.35454C12.4033 1.19645 12.2362 1.09856 12.0551 1.09863C11.874 1.09871 11.707 1.19675 11.6187 1.35491L10.1307 4.02032L8.38548 3.54834C8.22105 3.50387 8.0453 3.54617 7.91911 3.66058C7.79292 3.775 7.73365 3.94579 7.76185 4.11377L8.47944 8.38853L6.65205 6.92705C6.54766 6.84356 6.41418 6.80534 6.28142 6.82094C6.14865 6.83654 6.02767 6.90465 5.94547 7.01006L5.11594 8.07384L2.82878 7.78572C2.66992 7.76571 2.51108 7.82299 2.40156 7.93978C2.29203 8.05658 2.24507 8.21877 2.27524 8.37602L2.82688 11.2509L2.01386 11.5617C1.84974 11.6245 1.7306 11.7687 1.70002 11.9418C1.66945 12.1148 1.73193 12.2912 1.8646 12.4063L6.8749 16.7561L6.46217 17.5068C6.37208 17.6706 6.38093 17.871 6.48512 18.0263C6.5893 18.1815 6.7714 18.2657 6.95716 18.2444L11.3853 17.7376V22.1519C11.3853 22.4281 11.6091 22.6519 11.8853 22.6519C12.1614 22.6519 12.3853 22.4281 12.3853 22.1519V17.7336L17.1571 18.2448C17.3421 18.2646 17.5229 18.18 17.6262 18.0252C17.7295 17.8705 17.7383 17.6711 17.649 17.5078L17.2383 16.7568L22.2494 12.4063C22.382 12.2912 22.4445 12.1148 22.4139 11.9418C22.3834 11.7687 22.2642 11.6245 22.1001 11.5617L21.2871 11.2509L21.8387 8.37602C21.8689 8.21877 21.8219 8.05658 21.7124 7.93978C21.6029 7.82299 21.444 7.76571 21.2852 7.78572L18.998 8.07384L18.1685 7.01006C18.0863 6.90465 17.9653 6.83654 17.8326 6.82094C17.6998 6.80534 17.5663 6.84356 17.4619 6.92705L15.6345 8.38853L16.3521 4.11377C16.3803 3.94579 16.3211 3.775 16.1949 3.66058C16.0687 3.54617 15.8929 3.50387 15.7285 3.54834L13.9829 4.02041L12.4917 1.35454ZM11.9484 16.681L16.3129 17.1487L16.1677 16.8832C16.0549 16.6769 16.1011 16.4198 16.2786 16.2657L20.964 12.198L20.5385 12.0354C20.3121 11.9488 20.1803 11.7122 20.226 11.4741L20.7269 8.86396L18.841 9.10153C18.6661 9.12355 18.4926 9.05189 18.3842 8.91291L17.6912 8.02416L15.2371 9.98689C15.0752 10.1164 14.8502 10.1325 14.6715 10.0275C14.4927 9.92248 14.3974 9.71807 14.4317 9.51363L15.2368 4.71722L13.8675 5.08755C13.6462 5.1474 13.4125 5.04907 13.3006 4.84898L12.0557 2.6236L10.8136 4.84862C10.7018 5.04893 10.468 5.14744 10.2465 5.08755L8.87714 4.71722L9.6823 9.51363C9.71661 9.71807 9.62123 9.92248 9.4425 10.0275C9.26378 10.1325 9.03879 10.1164 8.8769 9.98689L6.42278 8.02416L5.72974 8.91291C5.62136 9.05189 5.44782 9.12355 5.27296 9.10153L3.38711 8.86396L3.88794 11.4741C3.93363 11.7122 3.8019 11.9488 3.57543 12.0354L3.14999 12.198L7.83535 16.2657C8.01323 16.4201 8.05919 16.6778 7.9457 16.8842L7.80453 17.1409L11.8196 16.6814C11.8411 16.6785 11.863 16.6771 11.8853 16.6771C11.9066 16.6771 11.9277 16.6784 11.9484 16.681Z" fill="currentColor"/>
</svg>
