<svg width="72" height="72" viewBox="0 0 72 72" fill="none" xmlns="http://www.w3.org/2000/svg">
<path fill-rule="evenodd" clip-rule="evenodd" d="M27.4345 5C27.3006 5 27.1724 5.05369 27.0784 5.14904L12.1439 20.3038C12.0517 20.3973 12 20.5234 12 20.6547V67.4502C12 67.7264 12.2239 67.9502 12.5 67.9502H59.5057C59.7818 67.9502 60.0057 67.7264 60.0057 67.4502V5.5C60.0057 5.22386 59.7818 5 59.5057 5H27.4345ZM13 20.8597L27.6438 6H59.0057V66.9502H13V20.8597ZM52.3577 38.6653C52.3577 37.2846 51.2384 36.1653 49.8577 36.1653H31.2541L22.8577 36.1653C21.477 36.1653 20.3577 37.2846 20.3577 38.6653V42.6653L20.3577 48.6653V54.6653V58.6653C20.3577 60.046 21.477 61.1653 22.8577 61.1653H31.2541H41.6504H49.8577C51.2384 61.1653 52.3577 60.046 52.3577 58.6653V54.6653V48.6653V42.6653V38.6653ZM49.8577 37.1653C50.6862 37.1653 51.3577 37.8369 51.3577 38.6653V42.1653H41.6504H41.1504V42.6653V48.6653V54.6653L41.1504 60.1653H31.7541L31.7541 54.6653V48.6653V42.6653V37.1653H49.8577ZM42.1504 43.1653H51.3577V48.1653H42.1504V43.1653ZM42.1504 49.1653H51.3577V54.1653H42.1504V49.1653ZM42.1504 55.1653H51.3577V58.6653C51.3577 59.4937 50.6862 60.1653 49.8577 60.1653H42.1504L42.1504 55.1653ZM30.7541 55.1653L30.7541 60.1653H22.8577C22.0293 60.1653 21.3577 59.4937 21.3577 58.6653V55.1653H30.7541ZM30.7541 54.1653H21.3577V49.1653H30.7541V54.1653ZM30.7541 48.1653H21.3577L21.3577 43.1653H30.7541V48.1653ZM30.7541 42.1653H21.3577V38.6653C21.3577 37.8369 22.0293 37.1653 22.8577 37.1653H30.7541V42.1653Z" fill="currentColor"/>
</svg>
