<svg role="img" width="72" height="72" viewBox="0 0 72 72" fill="none" xmlns="http://www.w3.org/2000/svg">
<path d="M6.8305 11.8294L11.209 11.814L21.6924 52.6297H58.5424" stroke="currentColor"/>
<path d="M20.6933 45.9078L58.5497 45.662L64.9632 18.2057H13.0016" stroke="currentColor"/>
<path d="M56.6617 23.2913L52.0628 41.1371" stroke="currentColor"/>
<path d="M47.8752 23.2913L43.2763 41.1371" stroke="currentColor"/>
<path d="M58.6599 27.6855H34.8941" stroke="currentColor"/>
<path d="M56.2062 36.789H32.6902" stroke="currentColor"/>
<path d="M53.1941 59.7973C51.2994 59.7973 49.7633 58.191 49.7633 56.2097C49.7633 54.2283 51.2994 52.6221 53.1941 52.6221C55.0889 52.6221 56.6249 54.2283 56.6249 56.2097C56.6249 58.191 55.0889 59.7973 53.1941 59.7973Z" stroke="currentColor"/>
<path d="M27.2317 59.7973C25.3369 59.7973 23.8009 58.191 23.8009 56.2097C23.8009 54.2283 25.3369 52.6221 27.2317 52.6221C29.1265 52.6221 30.6625 54.2283 30.6625 56.2097C30.6625 58.191 29.1265 59.7973 27.2317 59.7973Z" stroke="currentColor"/>
</svg>
