<svg width="24" height="24" viewBox="0 0 24 24" fill="none" xmlns="http://www.w3.org/2000/svg">
<path fill-rule="evenodd" clip-rule="evenodd" d="M2 4.5C1.72386 4.5 1.5 4.72386 1.5 5V7C1.5 7.27614 1.72386 7.5 2 7.5C2.27614 7.5 2.5 7.27614 2.5 7V5.5H21.5V18.5H14C13.7239 18.5 13.5 18.7239 13.5 19C13.5 19.2761 13.7239 19.5 14 19.5H22C22.2761 19.5 22.5 19.2761 22.5 19V5C22.5 4.72386 22.2761 4.5 22 4.5H2ZM2 15.5C1.72386 15.5 1.5 15.7239 1.5 16C1.5 16.2761 1.72386 16.5 2 16.5C3.38071 16.5 4.5 17.6193 4.5 19C4.5 19.2761 4.72386 19.5 5 19.5C5.27614 19.5 5.5 19.2761 5.5 19C5.5 17.067 3.933 15.5 2 15.5ZM1.5 13C1.5 12.7239 1.72386 12.5 2 12.5C5.58985 12.5 8.5 15.4101 8.5 19C8.5 19.2761 8.27614 19.5 8 19.5C7.72386 19.5 7.5 19.2761 7.5 19C7.5 15.9624 5.03757 13.5 2 13.5C1.72386 13.5 1.5 13.2761 1.5 13ZM2 9.5C1.72386 9.5 1.5 9.72386 1.5 10C1.5 10.2761 1.72386 10.5 2 10.5C6.69442 10.5 10.5 14.3056 10.5 19C10.5 19.2761 10.7239 19.5 11 19.5C11.2761 19.5 11.5 19.2761 11.5 19C11.5 13.7533 7.24671 9.5 2 9.5Z" fill="currentColor"/>
</svg>
