<svg width="72" height="72" viewBox="0 0 72 72" fill="none" xmlns="http://www.w3.org/2000/svg">
<path fill-rule="evenodd" clip-rule="evenodd" d="M10.5 6C10.2239 6 10 6.22386 10 6.5V65.5008C10 65.7769 10.2239 66.0008 10.5 66.0008H61.5002C61.7763 66.0008 62.0002 65.7769 62.0002 65.5008V6.5C62.0002 6.22386 61.7763 6 61.5002 6H10.5ZM11 65.0008V7H61.0002V65.0008H11ZM33.1666 19.3707H53V18.3707H33.1666V19.3707ZM16.611 12.661H17.111H27.5H28V13.161V15.0643H27V13.661H17.611V23.1289H27V19.3466H28V23.6289V24.1289H27.5H17.111H16.611V23.6289V13.161V12.661ZM22.6607 22.0778L28.7997 15.8923L28.0899 15.1878L22.3059 21.0158L19.8274 18.5185L19.1176 19.223L21.951 22.0778L22.3059 22.4354L22.6607 22.0778ZM53 36.5H33.1666V35.5H53V36.5ZM17.111 29.7903H16.611V30.2903V40.7581V41.2581H17.111H27.5H28V40.7581V36.4758H27V40.2581H17.611V30.7903H27V32.1935H28V30.2903V29.7903H27.5H17.111ZM28.7997 33.0215L22.6607 39.2071L22.3059 39.5647L21.951 39.2071L19.1176 36.3522L19.8274 35.6478L22.3059 38.1451L28.0899 32.3171L28.7997 33.0215ZM33.1666 53.6293H53V52.6293H33.1666V53.6293ZM16.611 46.9195H17.111H27.5H28V47.4195V49.3228H27V47.9195H17.611V57.3874H27V53.6051H28V57.8874V58.3874H27.5H17.111H16.611V57.8874V47.4195V46.9195ZM22.6607 56.3364L28.7997 50.1508L28.0899 49.4464L22.3059 55.2744L19.8274 52.7771L19.1176 53.4815L21.951 56.3364L22.3059 56.694L22.6607 56.3364Z" fill="currentColor"/>
</svg>
