<svg width="72" height="72" viewBox="0 0 72 72" fill="none" xmlns="http://www.w3.org/2000/svg">
<path fill-rule="evenodd" clip-rule="evenodd" d="M30.4896 7.7168C30.2135 7.7168 29.9896 7.94065 29.9896 8.2168V11.3181C29.9896 11.5943 30.2135 11.8181 30.4896 11.8181H33.8743V15.1112C29.8094 15.4844 26.0471 16.9176 22.8568 19.1356C22.8328 19.078 22.7976 19.0239 22.751 18.9767L17.6741 13.8304L19.7568 11.7122C19.9504 11.5153 19.9477 11.1987 19.7508 11.0051C19.5539 10.8115 19.2373 10.8142 19.0437 11.0111L16.6548 13.4408C16.6425 13.4508 16.6306 13.4615 16.6191 13.4729C16.6038 13.4879 16.5897 13.5037 16.5768 13.5201L14.1922 15.9454C13.9986 16.1424 14.0012 16.4589 14.1982 16.6525C14.3951 16.8461 14.7116 16.8435 14.9052 16.6465L16.973 14.5435L22.0391 19.679C22.049 19.689 22.0592 19.6985 22.0697 19.7075C16.389 24.0186 12.7139 30.9001 12.7139 38.6483C12.7139 51.6939 23.1323 62.2824 36 62.2824C48.8676 62.2824 59.286 51.6939 59.286 38.6483C59.286 30.9021 55.6129 24.0223 49.9348 19.711C49.9468 19.7009 49.9585 19.6901 49.9697 19.6787L55.0298 14.5413L57.1036 16.6469C57.2974 16.8436 57.614 16.846 57.8107 16.6522C58.0075 16.4584 58.0098 16.1419 57.8161 15.9451L55.3903 13.4823L55.3807 13.4726L52.956 11.0108C52.7622 10.814 52.4456 10.8116 52.2489 11.0054C52.0521 11.1992 52.0497 11.5158 52.2435 11.7125L54.328 13.8288L49.2573 18.977C49.2096 19.0254 49.1738 19.081 49.1499 19.1403C45.9604 16.9212 42.1987 15.4867 38.1343 15.112V11.8181H41.5105C41.7866 11.8181 42.0105 11.5943 42.0105 11.3181V8.2168C42.0105 7.94065 41.7866 7.7168 41.5105 7.7168H30.4896ZM37.6343 10.7921C37.6901 10.7921 37.7438 10.8013 37.794 10.8181H41.0105V8.7168H30.9896V10.8181H34.2146C34.2647 10.8013 34.3184 10.7921 34.3743 10.7921H37.6343ZM34.8743 15.0412V11.8181H37.1343V15.0416C36.7585 15.0233 36.3803 15.0141 36 15.0141C35.6226 15.0141 35.2473 15.0232 34.8743 15.0412ZM13.7139 38.6483C13.7139 26.5656 23.0318 16.705 34.7543 16.0489H37.2456C48.9681 16.705 58.286 26.5656 58.286 38.6483C58.286 51.156 48.3011 61.2824 36 61.2824C23.6988 61.2824 13.7139 51.156 13.7139 38.6483ZM17.3676 38.6483C17.3676 28.1893 25.7167 19.7236 36 19.7236C46.2833 19.7236 54.6324 28.1893 54.6324 38.6483C54.6324 49.1073 46.2833 57.573 36 57.573C25.7167 57.573 17.3676 49.1073 17.3676 38.6483ZM36 18.7236C25.1502 18.7236 16.3676 27.6513 16.3676 38.6483C16.3676 49.6452 25.1502 58.573 36 58.573C46.8498 58.573 55.6324 49.6452 55.6324 38.6483C55.6324 27.6513 46.8498 18.7236 36 18.7236ZM36 26.9591C36.2761 26.9591 36.5 27.183 36.5 27.4591V35.4244C36.8084 35.4672 37.1167 35.5506 37.4181 35.6774C39.3102 36.4731 40.2009 38.6705 39.4221 40.5794C38.6433 42.4882 36.4831 43.4026 34.591 42.6069C32.6989 41.8112 31.8082 39.6137 32.587 37.7049C33.1065 36.4316 34.2407 35.6008 35.5 35.4249V27.4591C35.5 27.183 35.7239 26.9591 36 26.9591ZM35.5 36.4438C34.6382 36.6122 33.8717 37.2032 33.5089 38.0926C32.9349 39.4994 33.595 41.1032 34.9687 41.681C36.3424 42.2587 37.9263 41.5985 38.5003 40.1917C39.0742 38.7849 38.4141 37.181 37.0404 36.6033C36.8629 36.5287 36.6819 36.4747 36.5 36.4403V39.1435C36.5 39.4196 36.2761 39.6435 36 39.6435C35.7239 39.6435 35.5 39.4196 35.5 39.1435V36.4438Z" fill="currentColor"/>
</svg>
