<svg width="72" height="72" viewBox="0 0 72 72" fill="none" xmlns="http://www.w3.org/2000/svg">
<path fill-rule="evenodd" clip-rule="evenodd" d="M35.9756 6.21973C19.6333 6.21973 6.38525 19.4678 6.38525 35.8101C6.38525 52.1524 19.6333 65.4005 35.9756 65.4005C52.3179 65.4005 65.566 52.1524 65.566 35.8101C65.566 19.4678 52.3179 6.21973 35.9756 6.21973ZM5.38525 35.8101C5.38525 18.9155 19.081 5.21973 35.9756 5.21973C52.8702 5.21973 66.566 18.9155 66.566 35.8101C66.566 52.7047 52.8702 66.4005 35.9756 66.4005C19.081 66.4005 5.38525 52.7047 5.38525 35.8101ZM35.9756 9.87148C36.2517 9.87148 36.4756 10.0953 36.4756 10.3715V36.4524C36.4756 36.4526 36.4756 36.4527 36.4756 36.4529L51.3747 46.3219C51.6049 46.4744 51.6679 46.7847 51.5155 47.0149C51.363 47.2451 51.0527 47.3081 50.8225 47.1556L35.6605 37.1125C35.4554 36.9766 35.383 36.7155 35.4776 36.4973C35.4763 36.4825 35.4756 36.4675 35.4756 36.4524V10.3715C35.4756 10.0953 35.6994 9.87148 35.9756 9.87148Z" fill="currentColor"/>
</svg>
