<svg role="img" width="24" height="24" viewBox="0 0 24 24" fill="none" xmlns="http://www.w3.org/2000/svg">
<path d="M11.9501 15.0879V10.1477V15.6554M14.0196 13.5859L12.0836 15.5219L11.9501 15.6554M11.9501 15.6554L11.683 15.355L9.91392 13.5859M19.2268 11.8501V11.4496C19.2268 7.74441 16.2227 4.77361 12.5175 4.74023H12.4508C9.31308 4.74023 6.57595 6.90991 5.90835 9.98085C3.73867 10.1811 2.03631 12.017 2.00293 14.2201V14.3536C2.00293 16.6902 3.90557 18.5594 6.20877 18.5594H18.8931C20.6956 18.5594 22.1643 17.0907 22.1643 15.2882V15.0879C22.231 13.419 20.9292 11.9502 19.2268 11.8501Z" stroke="currentColor" stroke-linecap="round" stroke-linejoin="round"/>
</svg>
