<svg role="img" xmlns="http://www.w3.org/2000/svg" width="22" height="16" fill="none" viewBox="0 0 22 16">
  <path stroke="currentColor" stroke-linecap="round" stroke-linejoin="round" d="M10.9501 11.0876V6.1474v5.5077m2.0695-2.0695-1.936 1.936-.1335.1335m0 0-.2671-.3004-1.769-1.7691m9.3128-1.7358v-.4005c0-3.7052-3.0041-6.676-6.7093-6.7094h-.0667C8.3131.74 5.576 2.9096 4.9084 5.9805c-2.1697.2003-3.872 2.0362-3.9055 4.2393v.1335c0 2.3366 1.9027 4.2058 4.2059 4.2058H17.893c1.8025 0 3.2712-1.4687 3.2712-3.2712v-.2003c.0667-1.669-1.2351-3.1377-2.9375-3.2378Z"/>
</svg>
