<svg role="img" xmlns="http://www.w3.org/2000/svg" width="24" height="24" fill="none" viewBox="0 0 24 24">
  <path fill="currentColor" fill-rule="evenodd" d="M12.6072 8.06c-.1824-.0346-.4176-.0598-.7061-.06-.6199-.0031-1.2251.2142-1.6808.6183-.4577.4059-.7293.9707-.7337 1.5744v.7808h-.1193c-.7319 0-1.3673.5709-1.3673 1.326v3.3038c0 .755.6354 1.326 1.3673 1.326h5.2035c.7318 0 1.3673-.571 1.3673-1.326v-3.3038c0-.7551-.6355-1.326-1.3673-1.326h-.1196v-.7772h.0002l-.0003-.0116c-.0101-.438-.1588-.8596-.4215-1.2155-.2578-.3491-.6137-.6198-1.0226-.7883-.1055-.0513-.2459-.0917-.3998-.121Zm-1.7234 1.3065c.2614-.2319.6252-.3687 1.013-.3665h.0026c.2321.0001.405.0204.5213.0425.0834.0158.1277.0306.1416.0352.0032.001.0047.0016.0048.0015l-.0006-.0005.019.0104.0276.0111c.256.1028.4664.2658.612.463.144.195.2199.4166.2261.6394v.7709h-2.9646v-.7752c.0027-.3013.1379-.602.3972-.8318ZM9 12.2995c0-.1574.1412-.326.3673-.326h5.2035c.2261 0 .3673.1686.3673.326v3.3038c0 .1573-.1412.326-.3673.326H9.3673c-.2261 0-.3673-.1687-.3673-.326v-3.3038Z"/>
  <path stroke="currentColor" stroke-linecap="round" stroke-linejoin="round" d="M19.2239 12.1099v-.4006c0-3.7051-3.0042-6.676-6.7093-6.7093h-.0668C9.3101 5 6.573 7.1697 5.9054 10.2406c-2.1697.2003-3.872 2.0362-3.9054 4.2392v.1336c0 2.3365 1.9026 4.2058 4.2058 4.2058h12.6843c1.8025 0 3.2712-1.4687 3.2712-3.2712v-.2003c.0668-1.669-1.235-3.1377-2.9374-3.2378Z"/>
</svg>
