<svg role="img" xmlns="http://www.w3.org/2000/svg" width="72" height="72" fill="none" viewBox="0 0 72 72">
  <path stroke="currentColor" stroke-linecap="round" stroke-linejoin="round" d="M44.7232 32.5103H28v13.6189h16.7232V32.5103Z"/>
  <path stroke="currentColor" stroke-linecap="round" stroke-linejoin="round" d="M31.8052 32.5104v-3.3046c0-2.3032 1.9026-4.2058 4.2058-4.2058h.5007c2.3032 0 4.2059 1.9026 4.2059 4.2058v3.3046"/>
  <path stroke="currentColor" stroke-linecap="round" stroke-linejoin="round" d="M57.6718 36.3296V35.128c0-11.1155-9.0126-20.0279-20.128-20.128h-.2003c-9.413 0-17.6244 6.509-19.6272 15.7218C11.2072 31.3227 6.1001 36.8303 6 43.4395v.4006c0 7.0097 5.7079 12.6175 12.6175 12.6175h38.0529c5.4075 0 9.8136-4.4061 9.8136-9.8137v-.6008c.2003-5.0069-3.7052-9.4131-8.8122-9.7135Z"/>
</svg>
