<svg width="72" height="72" viewBox="0 0 72 72" fill="none" xmlns="http://www.w3.org/2000/svg">
<path fill-rule="evenodd" clip-rule="evenodd" d="M5.50586 13.834C5.22972 13.834 5.00586 14.0578 5.00586 14.334V35.0441C5.00586 35.3203 5.22972 35.5441 5.50586 35.5441H13.2939V43.8227C13.2939 44.0268 13.4181 44.2105 13.6076 44.2866C13.797 44.3627 14.0138 44.316 14.155 44.1685L22.4155 35.5441H41.7511C42.0272 35.5441 42.2511 35.3203 42.2511 35.0441V14.334C42.2511 14.0578 42.0272 13.834 41.7511 13.834H5.50586ZM6.00586 34.5441V14.834H41.2511V34.5441H22.2021C22.0657 34.5441 21.9353 34.5998 21.841 34.6983L14.2939 42.5778V35.0441C14.2939 34.768 14.0701 34.5441 13.7939 34.5441H6.00586ZM10.1909 21.5811C10.1909 21.3049 10.4148 21.0811 10.6909 21.0811H28.298C28.5742 21.0811 28.798 21.3049 28.798 21.5811C28.798 21.8572 28.5742 22.0811 28.298 22.0811H10.6909C10.4148 22.0811 10.1909 21.8572 10.1909 21.5811ZM30.9011 21.5811C30.9011 21.3049 31.1249 21.0811 31.4011 21.0811H36.5761C36.8522 21.0811 37.0761 21.3049 37.0761 21.5811C37.0761 21.8572 36.8522 22.0811 36.5761 22.0811H31.4011C31.1249 22.0811 30.9011 21.8572 30.9011 21.5811ZM10.1909 26.7561C10.1909 26.4799 10.4148 26.2561 10.6909 26.2561H15.8659C16.1421 26.2561 16.3659 26.4799 16.3659 26.7561C16.3659 27.0322 16.1421 27.2561 15.8659 27.2561H10.6909C10.4148 27.2561 10.1909 27.0322 10.1909 26.7561ZM17.438 26.7561C17.438 26.4799 17.6618 26.2561 17.938 26.2561H36.5761C36.8522 26.2561 37.0761 26.4799 37.0761 26.7561C37.0761 27.0322 36.8522 27.2561 36.5761 27.2561H17.938C17.6618 27.2561 17.438 27.0322 17.438 26.7561ZM43.0004 24.6841C43.0004 24.4079 43.2243 24.1841 43.5004 24.1841H66.6052C66.8814 24.1841 67.1052 24.4079 67.1052 24.6841V49.5382C67.1052 49.8144 66.8814 50.0382 66.6052 50.0382H58.8272V58.1466C58.8272 58.3498 58.7041 58.5329 58.5159 58.6096C58.3277 58.6863 58.1118 58.6415 57.9697 58.4962L49.6986 50.0382H30.36C30.0838 50.0382 29.86 49.8144 29.86 49.5382V37.0001C29.86 36.7239 30.0838 36.5001 30.36 36.5001C30.6361 36.5001 30.86 36.7239 30.86 37.0001V49.0382H49.909C50.0435 49.0382 50.1724 49.0924 50.2665 49.1886L57.8272 56.9201V49.5382C57.8272 49.2621 58.051 49.0382 58.3272 49.0382H66.1052V25.1841H43.5004C43.2243 25.1841 43.0004 24.9602 43.0004 24.6841ZM52.1111 31.4411C51.835 31.4411 51.6111 31.665 51.6111 31.9411C51.6111 32.2172 51.835 32.4411 52.1111 32.4411H62.4712C62.7474 32.4411 62.9712 32.2172 62.9712 31.9411C62.9712 31.665 62.7474 31.4411 62.4712 31.4411H52.1111ZM34.504 36.5861C34.2279 36.5861 34.004 36.81 34.004 37.0861C34.004 37.3622 34.2279 37.5861 34.504 37.5861H39.6891C39.9652 37.5861 40.1891 37.3622 40.1891 37.0861C40.1891 36.81 39.9652 36.5861 39.6891 36.5861H34.504ZM42.7921 36.5861C42.5159 36.5861 42.2921 36.81 42.2921 37.0861C42.2921 37.3622 42.5159 37.5861 42.7921 37.5861H62.4712C62.7474 37.5861 62.9712 37.3622 62.9712 37.0861C62.9712 36.81 62.7474 36.5861 62.4712 36.5861H42.7921ZM43.3231 31.9411C43.3231 31.665 43.547 31.4411 43.8231 31.4411H49.0282C49.3043 31.4411 49.5282 31.665 49.5282 31.9411C49.5282 32.2172 49.3043 32.4411 49.0282 32.4411H43.8231C43.547 32.4411 43.3231 32.2172 43.3231 31.9411Z" fill="currentColor"/>
</svg>
