<svg role="img" width="24" height="24" viewBox="0 0 24 24" fill="none" xmlns="http://www.w3.org/2000/svg">
<path fill-rule="evenodd" clip-rule="evenodd" d="M1.83496 4.27832C1.55882 4.27832 1.33496 4.50218 1.33496 4.77832V11.6817C1.33496 11.9578 1.55882 12.1817 1.83496 12.1817H4.09765V14.6079C4.09765 14.8121 4.22181 14.9957 4.41129 15.0719C4.60077 15.148 4.81749 15.1012 4.95874 14.9537L7.61382 12.1817H13.9167C14.1929 12.1817 14.4167 11.9578 14.4167 11.6817V4.77832C14.4167 4.50218 14.1929 4.27832 13.9167 4.27832H1.83496ZM2.33496 11.1817V5.27832H13.4167V11.1817H7.40037C7.26403 11.1817 7.1336 11.2374 7.03928 11.3358L5.09765 13.363V11.6817C5.09765 11.4056 4.87379 11.1817 4.59765 11.1817H2.33496ZM15.4998 7.72834C15.2237 7.72834 14.9998 7.9522 14.9998 8.22834C14.9998 8.50448 15.2237 8.72834 15.4998 8.72834H21.7014V16.0131H19.4421C19.1659 16.0131 18.9421 16.2369 18.9421 16.5131V18.1561L16.9935 16.1635C16.8994 16.0673 16.7706 16.0131 16.636 16.0131H10.6197V13.5003C10.6197 13.2242 10.3958 13.0003 10.1197 13.0003C9.84353 13.0003 9.61967 13.2242 9.61967 13.5003V16.5131C9.61967 16.7892 9.84353 17.0131 10.1197 17.0131H16.4256L19.0846 19.7321C19.2267 19.8774 19.4426 19.9223 19.6308 19.8455C19.819 19.7688 19.9421 19.5858 19.9421 19.3825V17.0131H22.2014C22.4776 17.0131 22.7014 16.7892 22.7014 16.5131V8.22834C22.7014 7.9522 22.4776 7.72834 22.2014 7.72834H15.4998ZM3.99976 7.50034C3.99976 7.2242 4.22361 7.00034 4.49976 7.00034H8.49976C8.7759 7.00034 8.99976 7.2242 8.99976 7.50034C8.99976 7.77649 8.7759 8.00034 8.49976 8.00034H4.49976C4.22361 8.00034 3.99976 7.77649 3.99976 7.50034ZM11.4998 10.0003C11.7759 10.0003 11.9998 9.77649 11.9998 9.50034C11.9998 9.2242 11.7759 9.00034 11.4998 9.00034L7.49976 9.00034C7.22361 9.00034 6.99976 9.2242 6.99976 9.50034C6.99976 9.77649 7.22361 10.0003 7.49976 10.0003L11.4998 10.0003ZM9.99976 7.50034C9.99976 7.2242 10.2236 7.00034 10.4998 7.00034H11.4998C11.7759 7.00034 11.9998 7.2242 11.9998 7.50034C11.9998 7.77649 11.7759 8.00034 11.4998 8.00034H10.4998C10.2236 8.00034 9.99976 7.77649 9.99976 7.50034ZM15.4998 11.0003C15.2236 11.0003 14.9998 11.2242 14.9998 11.5003C14.9998 11.7765 15.2236 12.0003 15.4998 12.0003H16.4998C16.7759 12.0003 16.9998 11.7765 16.9998 11.5003C16.9998 11.2242 16.7759 11.0003 16.4998 11.0003H15.4998ZM11.9998 13.5003C11.9998 13.2242 12.2236 13.0003 12.4998 13.0003H13.4998C13.7759 13.0003 13.9998 13.2242 13.9998 13.5003C13.9998 13.7765 13.7759 14.0003 13.4998 14.0003H12.4998C12.2236 14.0003 11.9998 13.7765 11.9998 13.5003ZM18.4998 11.0003C18.2236 11.0003 17.9998 11.2242 17.9998 11.5003C17.9998 11.7765 18.2236 12.0003 18.4998 12.0003H19.4998C19.7759 12.0003 19.9998 11.7765 19.9998 11.5003C19.9998 11.2242 19.7759 11.0003 19.4998 11.0003H18.4998ZM14.9998 13.5003C14.9998 13.2242 15.2236 13.0003 15.4998 13.0003H19.4998C19.7759 13.0003 19.9998 13.2242 19.9998 13.5003C19.9998 13.7765 19.7759 14.0003 19.4998 14.0003H15.4998C15.2236 14.0003 14.9998 13.7765 14.9998 13.5003ZM5.49976 10.0003C5.7759 10.0003 5.99976 9.77649 5.99976 9.50034C5.99976 9.2242 5.7759 9.00034 5.49976 9.00034H4.49976C4.22361 9.00034 3.99976 9.2242 3.99976 9.50034C3.99976 9.77649 4.22361 10.0003 4.49976 10.0003H5.49976Z" fill="currentColor"/>
</svg>
