<svg width="24" height="24" viewBox="0 0 24 24" fill="none" xmlns="http://www.w3.org/2000/svg">
<path fill-rule="evenodd" clip-rule="evenodd" d="M13.193 3.61212C12.8584 3.54863 12.4154 3.50034 11.8616 3.50007C10.7286 3.494 9.63 3.89164 8.80918 4.61947C7.9863 5.34913 7.50775 6.3547 7.50001 7.41923H7.5V7.42287V9.5H6.75C5.53063 9.5 4.5 10.4473 4.5 11.6667V18.3333C4.5 19.5527 5.53063 20.5 6.75 20.5H17.25C18.4694 20.5 19.5 19.5527 19.5 18.3333V11.6667C19.5 10.4473 18.4694 9.5 17.25 9.5H16.5V7.42287H16.5001L16.4999 7.41132C16.482 6.63596 16.219 5.88611 15.7487 5.24912C15.2837 4.61934 14.6363 4.12662 13.8856 3.8204C13.7329 3.74364 13.4946 3.66936 13.193 3.61212ZM15.5 9.5V7.42887C15.4859 6.869 15.2957 6.31917 14.9442 5.84308C14.591 5.36471 14.0884 4.97942 13.4896 4.73894L13.462 4.72783L13.4358 4.71353C13.4361 4.71365 13.4361 4.71365 13.4358 4.71353C13.4344 4.71284 13.4256 4.70843 13.4073 4.70108C13.3866 4.6928 13.3578 4.68238 13.3202 4.67063C13.2451 4.64709 13.1409 4.62008 13.0065 4.59459C12.7381 4.54364 12.3572 4.50025 11.8599 4.50007L11.8573 4.50006C10.9564 4.49498 10.0993 4.81205 9.47264 5.36769C8.84824 5.92135 8.50605 6.66271 8.5 7.42476V9.5H15.5ZM7.5 10.5H6.75C6.03638 10.5 5.5 11.045 5.5 11.6667V18.3333C5.5 18.955 6.03638 19.5 6.75 19.5H17.25C17.9636 19.5 18.5 18.955 18.5 18.3333V11.6667C18.5 11.045 17.9636 10.5 17.25 10.5H16.5H16H8H7.5Z" fill="currentColor"/>
</svg>
