<svg role="img" xmlns="http://www.w3.org/2000/svg" width="72" height="72" fill="none" viewBox="0 0 72 72">
  <path stroke="currentColor" stroke-linecap="round" stroke-linejoin="round" d="M64.7158 35.8048c0 15.8598-12.8569 28.7167-28.7166 28.7167-13.7328 0-25.2141-9.6396-28.0467-22.5214m56.7633-6.1953-5.2842 5.2842m5.2842-5.2842L70 41.089M7.2825 35.8048c0-15.8597 12.8569-28.7166 28.7167-28.7166 13.8711 0 25.4452 9.8348 28.1296 22.9119M7.2825 35.8048l-4.6623-4.6623m4.6623 4.6623 4.6623-4.6623"/>
  <path stroke="currentColor" stroke-linecap="round" stroke-linejoin="round" d="M27.5293 42.6455c.2642.4818.5595.948.9014 1.3831.6682.8703 1.4763 1.6473 2.3777 2.269.6061.3574 1.3054.5439 2.0048.575h6.3406c.6838-.0311 1.3676-.2176 1.9581-.575.9947-.6994 1.8805-1.523 2.642-2.471.3263-.5284.4973-1.15.4662-1.7717v-2.502c0-.9169-.6061-1.5541-1.8027-1.9271l-5.6103-1.3676-1.9581-.4973-4.6622-1.1966c-1.3987-.202-2.4244-1.3987-2.3933-2.8129v-1.927c-.0311-.6217.1399-1.2433.4662-1.7717.7615-.9635 1.6629-1.8027 2.6575-2.5176.5905-.3574 1.2743-.5439 1.9581-.575h5.8123c.6838.0311 1.352.2331 1.9426.575.9169.6216 1.7095 1.3987 2.3933 2.2689.3419.4352.6371.9014.8858 1.3987m-7.6616-7.9102v29.2633"/>
</svg>
