<svg width="72" height="72" viewBox="0 0 72 72" fill="none" xmlns="http://www.w3.org/2000/svg">
<path fill-rule="evenodd" clip-rule="evenodd" d="M22.8411 10.505C26.4845 7.67999 31.0542 6.0027 35.9999 6.0027C40.9274 6.0027 45.4822 7.68526 49.1193 10.505L22.8411 10.505ZM21.6543 11.495C17.2658 15.4302 14.4949 21.1478 14.4949 27.5383V29.505H18.2228L18.2252 29.505L18.2276 29.505H21.9999C22.2733 29.505 22.4949 29.7267 22.4949 30V50C22.4949 50.2734 22.2733 50.495 21.9999 50.495H18.7202V52.4729C18.7202 59.2073 23.5431 64.6794 30.1475 64.8896V63.7886C30.1475 63.5153 30.3691 63.2936 30.6425 63.2936H36.8511C37.1245 63.2936 37.3461 63.5153 37.3461 63.7886V67.2935C37.3461 67.5669 37.1245 67.7885 36.8511 67.7885H30.6425C30.3691 67.7885 30.1475 67.5669 30.1475 67.2935V65.8801C22.9378 65.6692 17.7302 59.6936 17.7302 52.4729V50.495H13.9999C13.7265 50.495 13.5049 50.2734 13.5049 50V44.495H10.9999C10.7265 44.495 10.5049 44.2734 10.5049 44V32C10.5049 31.7267 10.7265 31.505 10.9999 31.505H13.5049V30V27.5383C13.5049 15.0471 23.6273 5.0127 35.9999 5.0127C41.6448 5.0127 46.8208 7.1221 50.781 10.5926C50.8131 10.6147 50.8424 10.6406 50.8684 10.6695C55.5387 14.8047 58.4949 20.8424 58.4949 27.5383V31.505H60.9999C61.2733 31.505 61.4949 31.7267 61.4949 32V44C61.4949 44.2734 61.2733 44.495 60.9999 44.495H57.9999C57.7265 44.495 57.5049 44.2734 57.5049 44V38.153V32V27.5383C57.5049 21.1823 54.7175 15.4462 50.3067 11.495L21.6543 11.495ZM58.4949 38.153V43.505H60.5049V32.495H58.4949V38.153ZM14.4949 38.153V49.505H17.7302V48.7678V30.495H14.4949V38.153ZM18.7202 49.505V48.7678V30.495H21.5049V49.505H18.7202ZM11.4949 43.505V32.495H13.5049V43.505H11.4949ZM31.1375 64.2836V66.7985H36.3561V64.2836H31.1375Z" fill="currentColor"/>
</svg>
