<svg role="img" xmlns="http://www.w3.org/2000/svg" width="24" height="24" fill="none" viewBox="0 0 24 24">
  <path fill="currentColor" fill-rule="evenodd" d="M11.8306 2c-1.3508-.0072-2.6589.467-3.6347 1.3323-.978.867-1.5444 2.0598-1.5535 3.32v2.6326H5.6248C4.1984 9.285 3 10.3922 3 11.8087v8.0944c0 1.4165 1.1984 2.5236 2.6248 2.5236h12.7487c1.4264 0 2.6248-1.1071 2.6248-2.5236v-8.0944c0-1.4165-1.1984-2.5236-2.6248-2.5236h-1.0178V6.656h.0001l-.0002-.0116c-.0213-.9186-.3328-1.8078-.8912-2.5642-.553-.749-1.3243-1.336-2.2204-1.7007-.1718-.0872-.4514-.176-.8165-.2452-.3991-.0758-.9304-.1339-1.5969-.1342Zm-5.1882 8.285h11.7311c.9206 0 1.6248.7048 1.6248 1.5236v8.0944c0 .8188-.7042 1.5236-1.6248 1.5236H5.6248C4.7042 21.4266 4 20.7218 4 19.903v-8.0944c0-.8188.7042-1.5236 1.6248-1.5236h1.0176Zm9.7133-1V6.6619c-.0174-.703-.2562-1.3922-.6958-1.9877-.4413-.5977-1.068-1.0774-1.8123-1.3764l-.0277-.011-.0261-.0144c-.0345-.0189-.2074-.0901-.5527-.1557-.333-.0632-.8022-.1164-1.4121-.1166h-.0027c-1.1187-.0063-2.1853.3873-2.967 1.0804C8.08 4.7716 7.6498 5.7 7.6423 6.6578V9.285h8.7134Z"/>
  <path fill="currentColor" fill-rule="evenodd" d="M15.0017 15.2804c-1.7-1.7086-4.4541-1.7079-6.1477-.0006a.5.5 0 1 1-.71-.7042c2.0854-2.1022 5.4763-2.1015 7.5666-.0005a.5.5 0 1 1-.7089.7053Zm-1.6729 2.0372c-.7666-.6156-2.0426-.6142-2.8012-.001a.5.5 0 1 1-.6286-.7777c1.1265-.9106 2.9248-.9093 4.0559-.0011a.5001.5001 0 0 1-.6261.7798Zm-.8298 1.6101a.5714.5714 0 1 1-1.1427 0 .5714.5714 0 0 1 1.1427 0Z"/>
</svg>
