<svg width="24" height="24" viewBox="0 0 24 24" fill="none" xmlns="http://www.w3.org/2000/svg">
<path d="M3.41634 21.3044C4.33771 21.3044 5.08462 20.5574 5.08462 19.6361C5.08462 18.7147 4.33771 17.9678 3.41634 17.9678C2.49497 17.9678 1.74805 18.7147 1.74805 19.6361C1.74805 20.5574 2.49497 21.3044 3.41634 21.3044Z" stroke="currentColor" stroke-linecap="round" stroke-linejoin="round"/>
<path d="M9.24202 11.9352C10.1634 11.9352 10.9103 11.1883 10.9103 10.2669C10.9103 9.34555 10.1634 8.59863 9.24202 8.59863C8.32065 8.59863 7.57373 9.34555 7.57373 10.2669C7.57373 11.1883 8.32065 11.9352 9.24202 11.9352Z" stroke="currentColor" stroke-linecap="round" stroke-linejoin="round"/>
<path d="M4.37109 17.9838L8.42837 11.7744" stroke="currentColor" stroke-linecap="round" stroke-linejoin="round"/>
<path d="M14.7943 15.4821C15.7156 15.4821 16.4626 14.7352 16.4626 13.8138C16.4626 12.8924 15.7156 12.1455 14.7943 12.1455C13.8729 12.1455 13.126 12.8924 13.126 13.8138C13.126 14.7352 13.8729 15.4821 14.7943 15.4821Z" stroke="currentColor" stroke-linecap="round" stroke-linejoin="round"/>
<path d="M20.6165 6.11587C21.5379 6.11587 22.2848 5.36896 22.2848 4.44759C22.2848 3.52622 21.5379 2.7793 20.6165 2.7793C19.6952 2.7793 18.9482 3.52622 18.9482 4.44759C18.9482 5.36896 19.6952 6.11587 20.6165 6.11587Z" stroke="currentColor" stroke-linecap="round" stroke-linejoin="round"/>
<path d="M15.7451 12.1649L19.8057 5.95215" stroke="currentColor" stroke-linecap="round" stroke-linejoin="round"/>
<path d="M10.7803 11.0371L13.3828 12.7388" stroke="currentColor" stroke-linecap="round" stroke-linejoin="round"/>
</svg>
