<svg role="img" width="72" height="72" viewBox="0 0 72 72" fill="none" xmlns="http://www.w3.org/2000/svg">

<path d="M10.2599 63.9743C13.0267 63.9743 15.2697 61.7314 15.2697 58.9646C15.2697 56.1978 13.0267 53.9548 10.2599 53.9548C7.49313 53.9548 5.2502 56.1978 5.2502 58.9646C5.2502 61.7314 7.49313 63.9743 10.2599 63.9743Z" stroke="currentColor" stroke-linecap="round" stroke-linejoin="round"/>
<path d="M27.7539 35.8397C30.5207 35.8397 32.7637 33.5967 32.7637 30.8299C32.7637 28.0631 30.5207 25.8202 27.7539 25.8202C24.9871 25.8202 22.7442 28.0631 22.7442 30.8299C22.7442 33.5967 24.9871 35.8397 27.7539 35.8397Z" stroke="currentColor" stroke-linecap="round" stroke-linejoin="round"/>
<path d="M13.1255 54.005L25.3092 35.3588" stroke="currentColor" stroke-linecap="round" stroke-linejoin="round"/>
<path d="M44.4263 46.4903C47.1931 46.4903 49.4361 44.2474 49.4361 41.4806C49.4361 38.7138 47.1931 36.4708 44.4263 36.4708C41.6595 36.4708 39.4166 38.7138 39.4166 41.4806C39.4166 44.2474 41.6595 46.4903 44.4263 46.4903Z" stroke="currentColor" stroke-linecap="round" stroke-linejoin="round"/>
<path d="M61.9103 18.3657C64.6771 18.3657 66.9201 16.1227 66.9201 13.3559C66.9201 10.5891 64.6771 8.34619 61.9103 8.34619C59.1435 8.34619 56.9006 10.5891 56.9006 13.3559C56.9006 16.1227 59.1435 18.3657 61.9103 18.3657Z" stroke="currentColor" stroke-linecap="round" stroke-linejoin="round"/>
<path d="M47.2819 36.531L59.4756 17.8748" stroke="currentColor" stroke-linecap="round" stroke-linejoin="round"/>
<path d="M32.3729 33.1444L40.1881 38.2543" stroke="currentColor" stroke-linecap="round" stroke-linejoin="round"/>


</svg>
