<svg width="24" height="24" viewBox="0 0 24 24" fill="none" xmlns="http://www.w3.org/2000/svg">
<path fill-rule="evenodd" clip-rule="evenodd" d="M1.5 5C1.5 4.72386 1.72386 4.5 2 4.5H15C15.2761 4.5 15.5 4.72386 15.5 5V8.5H19C19.1326 8.5 19.2598 8.55268 19.3536 8.64645L22.3536 11.6464C22.4473 11.7402 22.5 11.8674 22.5 12V17C22.5 17.2761 22.2761 17.5 22 17.5H21L20.9863 17.4998C20.862 18.6249 19.9082 19.5 18.75 19.5C17.5919 19.5 16.6381 18.625 16.5137 17.5H15H10.7285C10.6041 18.625 9.65033 19.5 8.49219 19.5C7.33405 19.5 6.38028 18.625 6.25592 17.5H2C1.72386 17.5 1.5 17.2761 1.5 17V5ZM16.628 16.5C16.9369 15.6261 17.7703 15 18.75 15C19.7353 15 20.5727 15.6334 20.8773 16.5152C20.9165 16.5053 20.9577 16.5 21 16.5H21.5V13H17.4998H16.9998V12.5V9.5H15.5V16.5H16.628ZM21.2929 12L18.7929 9.5H17.9998V12H21.2929ZM14.5 16.5H10.6142C10.3053 15.6261 9.47185 15 8.49219 15C7.51252 15 6.67909 15.6261 6.37022 16.5H2.5V5.5H14.5V9V16.5ZM8.49219 16C7.80183 16 7.24219 16.5596 7.24219 17.25C7.24219 17.9404 7.80183 18.5 8.49219 18.5C9.18254 18.5 9.74219 17.9404 9.74219 17.25C9.74219 16.5596 9.18254 16 8.49219 16ZM17.5 17.25C17.5 16.5596 18.0596 16 18.75 16C19.4404 16 20 16.5596 20 17.25C20 17.9404 19.4404 18.5 18.75 18.5C18.0596 18.5 17.5 17.9404 17.5 17.25ZM5.00675 6.9096L9.51301 10.4145L5.00675 13.9527L12.0165 10.3811L5.00675 6.9096Z" fill="currentColor"/>
</svg>
