<svg width="72" height="72" viewBox="0 0 72 72" fill="none" xmlns="http://www.w3.org/2000/svg">
<path fill-rule="evenodd" clip-rule="evenodd" d="M52.1875 43.1501C52.3827 43.3454 52.6993 43.3454 52.8946 43.1501C53.0898 42.9549 53.0898 42.6383 52.8946 42.443L51.5533 41.1018L55.013 37.6421C60.4719 32.1832 60.5877 23.4046 55.3605 17.8048L61.3684 11.7969C61.5637 11.6017 61.5637 11.2851 61.3684 11.0898C61.1731 10.8945 60.8566 10.8945 60.6613 11.0898L54.6534 17.0977C49.0536 11.8705 40.275 11.9863 34.8161 17.4452L31.3564 20.9049L30.0152 19.5636C29.8199 19.3684 29.5033 19.3684 29.3081 19.5636C29.1128 19.7589 29.1128 20.0755 29.3081 20.2708L31.0029 21.9655L50.4927 41.4554L52.1875 43.1501ZM54.3059 36.935L50.8462 40.3947L32.0635 21.612L35.5232 18.1523C40.7099 12.9656 49.1192 12.9656 54.3059 18.1523C59.4926 23.339 59.4926 31.7483 54.3059 36.935ZM32.981 33.4052C33.1763 33.2099 33.1763 32.8934 32.981 32.6981C32.7858 32.5028 32.4692 32.5028 32.2739 32.6981L27.9669 37.0052L21.965 31.0033L20.2703 29.3086C20.075 29.1133 19.7584 29.1133 19.5632 29.3086C19.3679 29.5038 19.3679 29.8204 19.5632 30.0157L20.9044 31.3569L17.4447 34.8166C11.9858 40.2755 11.87 49.0541 17.0972 54.6539L11.0893 60.6618C10.8941 60.857 10.8941 61.1736 11.0893 61.3689C11.2846 61.5642 11.6012 61.5642 11.7964 61.3689L17.8043 55.361C23.4041 60.5882 32.1828 60.4724 37.6416 55.0135L41.1013 51.5538L42.4425 52.8951C42.6378 53.0903 42.9544 53.0903 43.1496 52.8951C43.3449 52.6998 43.3449 52.3832 43.1496 52.1879L41.4549 50.4932L35.2412 44.2795L39.5483 39.9724C39.7435 39.7772 39.7435 39.4606 39.5483 39.2653C39.353 39.0701 39.0364 39.0701 38.8412 39.2653L34.5341 43.5724L28.674 37.7123L32.981 33.4052ZM18.1518 35.5237L21.6115 32.064L27.6133 38.0658L34.1805 44.6331L40.3942 50.8467L36.9345 54.3064C31.7478 59.4931 23.3385 59.4931 18.1518 54.3064C12.9651 49.1197 12.9651 40.7104 18.1518 35.5237Z" fill="currentColor"/>
</svg>
