<svg role="img" xmlns="http://www.w3.org/2000/svg" width="72" height="72" fill="none" viewBox="0 0 72 72">
  <path stroke="currentColor" d="M19.5707 41.0983c2.5235.5299 5.678-.6622 6.9397-1.3245v23.1799c0 .6623 1.2618 2.6491 3.1544 2.6491 1.5141 0 2.3133-1.7661 2.5236-2.6491V39.7738c0-6.3579-.7088-10.4494-1.8927-13.2457-1.1839-2.7963-3.7853-5.9605-8.8323-5.9605-5.0471 0-8.4118 3.5321-9.4633 5.2982v9.9343c1.8927 3.3114 4.4162 4.636 7.5706 5.2982Zm32.8586-13.5528c-2.5235.5298-5.678-.6623-6.9397-1.3246v23.1799c0 .6623-1.2618 2.6492-3.1544 2.6492-1.5141 0-2.3133-1.7661-2.5236-2.6492V26.2209c0-6.3579.7088-10.4493 1.8927-13.2456 1.1839-2.7963 3.7853-5.9606 8.8323-5.9606 5.0471 0 8.4118 3.5322 9.4633 5.2983v9.9342c-1.8927 3.3114-4.4162 4.636-7.5706 5.2983Z"/>
</svg>
