<svg width="72" height="72" viewBox="0 0 72 72" fill="none" xmlns="http://www.w3.org/2000/svg">
<path d="M14.94 46.2493L27.63 57.7495M42.75 15.5819L55.17 27.0822M48.42 9.28412C49.5 7.91504 51.12 7.09359 53.01 6.81978C54.9 6.54596 56.52 7.09359 57.87 8.18886L60.84 10.927C62.19 12.2961 62.73 13.939 63 15.5819C63 17.4986 62.19 19.1415 60.84 20.5106C48.69 33.6537 36.81 47.0707 24.66 60.4877C24.39 60.7615 24.39 60.7615 24.12 60.7615L10.35 65.1426C9 65.25 9 65.25 9 64.0473L11.97 49.2612C11.97 48.9874 11.97 48.9874 12.24 48.7136C17.4603 43.4195 42.75 15.5819 48.42 9.28412Z" vector-effect="non-scaling-stroke" stroke-width='1' stroke="currentColor" stroke-miterlimit="10"/>
</svg>
