<svg role="img" xmlns="http://www.w3.org/2000/svg" width="72" height="72" fill="none" viewBox="0 0 72 72">
  <path stroke="currentColor" stroke-linecap="round" stroke-linejoin="round" d="M20 15H5v42h15m32 0h15V15H52M26.2449 36.1227c0-1.7245-1.398-3.1225-3.1225-3.1225-1.7244 0-3.1224 1.398-3.1224 3.1225 0 1.7245 1.398 3.1224 3.1224 3.1224 1.7245 0 3.1225-1.398 3.1225-3.1224Zm13 0c0-1.7245-1.398-3.1225-3.1225-3.1225-1.7244 0-3.1224 1.398-3.1224 3.1225 0 1.7245 1.398 3.1224 3.1224 3.1224 1.7245 0 3.1225-1.398 3.1225-3.1224Z"/>
  <path stroke="currentColor" stroke-linecap="round" stroke-linejoin="round" d="M52.2449 36.1227c0-1.7245-1.398-3.1225-3.1225-3.1225-1.7244 0-3.1224 1.398-3.1224 3.1225 0 1.7245 1.398 3.1224 3.1224 3.1224 1.7245 0 3.1225-1.398 3.1225-3.1224Z"/>
</svg>
