<svg width="72" height="72" viewBox="0 0 72 72" fill="none" xmlns="http://www.w3.org/2000/svg">
<g >
<path fill-rule="evenodd" clip-rule="evenodd" d="M33 20L34.6 43.4667H36.7333L38.3333 20H33ZM35.6667 52C36.8449 52 37.8 51.0449 37.8 49.8667C37.8 48.6885 36.8449 47.7333 35.6667 47.7333C34.4885 47.7333 33.5333 48.6885 33.5333 49.8667C33.5333 51.0449 34.4885 52 35.6667 52Z" fill="currentColor"/>
<path d="M34.6 43.4667L33.6023 43.5347L33.6659 44.4667H34.6V43.4667ZM33 20V19H31.9295L32.0023 20.068L33 20ZM36.7333 43.4667V44.4667H37.6675L37.731 43.5347L36.7333 43.4667ZM38.3333 20L39.331 20.068L39.4038 19H38.3333V20ZM35.5977 43.3986L33.9977 19.932L32.0023 20.068L33.6023 43.5347L35.5977 43.3986ZM36.7333 42.4667H34.6V44.4667H36.7333V42.4667ZM37.3356 19.932L35.7356 43.3986L37.731 43.5347L39.331 20.068L37.3356 19.932ZM33 21H38.3333V19H33V21ZM36.8 49.8667C36.8 50.4926 36.2926 51 35.6667 51V53C37.3972 53 38.8 51.5972 38.8 49.8667H36.8ZM35.6667 48.7333C36.2926 48.7333 36.8 49.2407 36.8 49.8667H38.8C38.8 48.1362 37.3972 46.7333 35.6667 46.7333V48.7333ZM34.5333 49.8667C34.5333 49.2407 35.0407 48.7333 35.6667 48.7333V46.7333C33.9362 46.7333 32.5333 48.1362 32.5333 49.8667H34.5333ZM35.6667 51C35.0407 51 34.5333 50.4926 34.5333 49.8667H32.5333C32.5333 51.5972 33.9362 53 35.6667 53V51Z" fill="currentColor"/>
<path d="M36 4C53.6726 4 68 18.3274 68 36C68 53.6726 53.6726 68 36 68C18.3274 68 4 53.6726 4 36C4 18.3169 18.3274 4 36 4Z" stroke="currentColor" stroke-miterlimit="10"/>
</g>
</svg>
