<svg role="img" width="24" height="24" viewBox="0 0 24 24" fill="none" xmlns="http://www.w3.org/2000/svg">
<path fill-rule="evenodd" clip-rule="evenodd" d="M22 12C22 17.5228 17.5228 22 12 22C6.47715 22 2 17.5228 2 12C2 6.47715 6.47715 2 12 2C17.5228 2 22 6.47715 22 12ZM23 12C23 18.0751 18.0751 23 12 23C5.92487 23 1 18.0751 1 12C1 5.92487 5.92487 1 12 1C18.0751 1 23 5.92487 23 12ZM12.15 15.4499C11.4 15.4499 10.8 15.9 10.8 16.65C10.8 17.4 11.25 17.8499 12.15 17.8499C12.75 17.8499 13.3501 17.4 13.3501 16.65C13.3501 15.9 12.75 15.4499 12.15 15.4499ZM11.1001 6L11.55 13.65H12.45L12.9 6H11.1001Z" fill="currentColor"/>
</svg>
