<svg xmlns="http://www.w3.org/2000/svg" width="24" height="24" fill="none" viewBox="0 0 24 24">
  <path fill="currentColor" fill-rule="evenodd" d="M22 12c0 5.5228-4.4772 10-10 10-5.5229 0-10-4.4772-10-10C2 6.4771 6.4771 2 12 2c5.5228 0 10 4.4771 10 10Zm1 0c0 6.0751-4.9249 11-11 11S1 18.0751 1 12 5.9249 1 12 1s11 4.9249 11 11Zm-10.85 3.4499c-.75 0-1.35.4501-1.35 1.2001s.45 1.1999 1.35 1.1999c.6 0 1.2001-.4499 1.2001-1.1999s-.6001-1.2001-1.2001-1.2001ZM11.1001 6l.4499 7.65h.9L12.9 6h-1.7999Z" clip-rule="evenodd"/>
</svg>
