<svg width="72" height="72" viewBox="0 0 72 72" fill="none" xmlns="http://www.w3.org/2000/svg">
<path fill-rule="evenodd" clip-rule="evenodd" d="M40.5 13C40.2239 13 40 13.2239 40 13.5C40 13.7761 40.2239 14 40.5 14H58V31.5C58 31.7761 58.2239 32 58.5 32C58.7761 32 59 31.7761 59 31.5V13.5C59 13.2239 58.7761 13 58.5 13H40.5ZM57.3536 14.6464C57.5488 14.8417 57.5488 15.1583 57.3536 15.3536L36.3536 36.3536C36.1583 36.5488 35.8417 36.5488 35.6464 36.3536C35.4512 36.1583 35.4512 35.8417 35.6464 35.6464L56.6464 14.6464C56.8417 14.4512 57.1583 14.4512 57.3536 14.6464ZM17.5 18C17.5 17.7239 17.7239 17.5 18 17.5H33.4286C33.7047 17.5 33.9286 17.7239 33.9286 18C33.9286 18.2761 33.7047 18.5 33.4286 18.5H18.5V53.5H53.5V38.5732C53.5 38.2971 53.7239 38.0732 54 38.0732C54.2761 38.0732 54.5 38.2971 54.5 38.5732V54C54.5 54.2761 54.2761 54.5 54 54.5H18C17.7239 54.5 17.5 54.2761 17.5 54V18Z" fill="currentColor"/>
</svg>
