<svg width="72" height="72" viewBox="0 0 72 72" fill="none" xmlns="http://www.w3.org/2000/svg">
<path d="M36.044 17.9802H50.1447C51.1448 17.9802 52.0448 17.7754 52.9449 17.3658C53.8449 16.8538 54.245 15.7275 53.8449 14.8059C53.8449 14.7035 53.7449 14.6011 53.7449 14.6011L49.8447 7.94549C49.1447 6.71676 47.9446 6 46.5445 6H25.5434C24.2433 6 22.9432 6.71676 22.2432 7.94549L18.343 14.6011C17.743 15.5227 17.943 16.649 18.843 17.2634C18.943 17.3658 19.043 17.3658 19.043 17.3658C19.8431 17.7754 20.8431 18.0825 21.8432 17.9802H36.044Z" vector-effect="non-scaling-stroke" stroke-width='1' stroke="currentColor" stroke-miterlimit="10"/>
<path d="M54 15.5V64.7032C54 65.3008 53.1978 65.5 52.5961 65.5H19.4039C18.8022 65.5 18 65.2012 18 64.7032V15.5" vector-effect="non-scaling-stroke" stroke-width='1' stroke="currentColor" stroke-miterlimit="10"/>
<path d="M40.3581 13.9275L42.0002 15.0644L40.9896 13.9275L41.4949 12.917L40.3581 13.9275L38.8423 12.917L39.7265 13.9275L39.0949 15.0644L40.3581 13.9275Z" fill="currentColor"/>
<path d="M31.8947 13.8009H30.6316L30.7579 13.043H30.5053L30 14.9377H30.2526L30.5053 14.0535H31.8947L31.6421 14.9377H32.021L32.4 13.043H32.021L31.8947 13.8009Z" fill="currentColor"/>
<path d="M33.0317 14.9377H34.6738V14.8114H33.4107L33.4693 14.0535H34.5475V13.8009H33.4995L33.537 13.1693H34.6738L34.8002 13.043H33.2844L33.0317 14.9377Z" fill="currentColor"/>
<path d="M35.9371 13.043H35.5581V14.9377H37.0739V14.8114H35.8107L35.9371 13.043Z" fill="currentColor"/>
<path d="M37.7056 13.043L37.9578 14.9377H38.2101L38.084 13.043H37.7056Z" fill="currentColor"/>
</svg>
