<svg role="img" width="72" height="72" viewBox="0 0 72 72" fill="none" xmlns="http://www.w3.org/2000/svg">

<path d="M36.044 17.9802H50.1447C51.1448 17.9802 52.0448 17.7754 52.9449 17.3658C53.8449 16.8538 54.245 15.7275 53.8449 14.8059C53.8449 14.7035 53.7449 14.6011 53.7449 14.6011L49.8447 7.94549C49.1447 6.71676 47.9446 6 46.5445 6H25.5434C24.2433 6 22.9432 6.71676 22.2432 7.94549L18.343 14.6011C17.743 15.5227 17.943 16.649 18.843 17.2634C18.943 17.3658 19.043 17.3658 19.043 17.3658C19.8431 17.7754 20.8431 18.0825 21.8432 17.9802H36.044Z" stroke="currentColor" stroke-miterlimit="10"/>
<path d="M54 15.5V64.7032C54 65.3008 53.1978 65.5 52.5961 65.5H19.4039C18.8022 65.5 18 65.2012 18 64.7032V15.5" stroke="currentColor" stroke-miterlimit="10"/>
<path d="M40.3581 13.927L42.0002 15.0639L40.9897 13.927L41.495 12.9165L40.3581 13.927L38.8423 12.9165L39.7266 13.927L39.095 15.0639L40.3581 13.927Z" fill="currentColor"/>
<path d="M31.8947 13.8007H30.6316L30.7579 13.0428H30.5053L30 14.9376H30.2526L30.5053 14.0534H31.8947L31.6421 14.9376H32.021L32.4 13.0428H32.021L31.8947 13.8007Z" fill="currentColor"/>
<path d="M33.032 14.9376H34.6741V14.8113H33.4109L33.4696 14.0534H34.5478V13.8007H33.4998L33.5372 13.1692H34.6741L34.8004 13.0428H33.2846L33.032 14.9376Z" fill="currentColor"/>
<path d="M35.9368 13.0428H35.5579V14.9376H37.0736V14.8113H35.8105L35.9368 13.0428Z" fill="currentColor"/>
<path d="M37.7056 13.0428L37.9579 14.9376H38.2102L38.084 13.0428H37.7056Z" fill="currentColor"/>


</svg>
