<svg width="24" height="24" viewBox="0 0 24 24" fill="none" xmlns="http://www.w3.org/2000/svg">
<path d="M11.2156 18.8592C11.7496 18.9927 12.3505 18.7257 12.5841 18.225C13.0514 18.5922 13.6856 18.6923 14.2197 18.4253C14.7538 18.1582 15.0208 17.5574 14.8539 16.99C15.388 17.257 16.0222 17.257 16.5229 16.9232C16.9902 16.6228 17.1905 15.9886 16.9569 15.4879C17.4909 15.6214 18.0584 15.4211 18.4256 14.9872C18.7927 14.4197 18.6926 13.652 18.1919 13.2181L15.0876 11.282C14.2531 10.2139 13.5188 9.21249 12.9179 8.41138H11.1488C10.815 8.41138 10.7149 9.34601 9.37967 9.94684C8.04448 10.5477 6.2086 9.91346 6.67591 9.41277C7.14323 8.91207 8.84559 6.70901 9.41305 5.97466C10.3477 5.64086 13.2183 5.00665 14.6537 4.67285L18.8261 6.67563L19.9277 6.14156M19.9277 6.14156V12.6506M19.9277 6.14156V5.33303H22.3333V13.4997H19.9277V12.6506M19.9277 12.6506L18.726 13.1179" stroke="currentColor" stroke-linecap="round" stroke-linejoin="round"/>
<path d="M9.17907 18.192L11.8161 14.8874C11.9496 14.7205 12.1832 14.6871 12.3501 14.8207L13.0845 15.4215C13.2514 15.555 13.2848 15.7887 13.1512 15.9556L10.9737 18.6845L10.5143 19.2602C10.3807 19.4271 10.1471 19.4604 9.98018 19.3269L9.24583 18.7261C9.07893 18.5926 9.04555 18.3589 9.17907 18.192Z" stroke="currentColor" stroke-linecap="round" stroke-linejoin="round"/>
<path d="M7.51018 17.0566L10.6145 13.1512C10.7814 12.9509 11.0484 12.9175 11.2487 13.0844L12.1166 13.7854C12.3169 13.9523 12.3502 14.2193 12.1833 14.4196L9.07903 18.325C8.91213 18.5253 8.64509 18.5587 8.44481 18.3918L7.57694 17.6908C7.37666 17.5239 7.34328 17.2569 7.51018 17.0566Z" stroke="currentColor" stroke-linecap="round" stroke-linejoin="round"/>
<path d="M5.70745 15.6885L9.17894 11.3158C9.34584 11.0821 9.67963 11.0487 9.91329 11.2156L10.8813 11.9834C11.115 12.1503 11.1483 12.4841 10.9814 12.7177L7.47657 17.0905C7.30967 17.3241 6.97588 17.3575 6.74222 17.1906L5.77421 16.4229C5.57393 16.2226 5.54055 15.8888 5.70745 15.6885Z" stroke="currentColor" stroke-linecap="round" stroke-linejoin="round"/>
<path d="M4.94079 13.8864L7.57778 10.5818C7.7113 10.4149 7.94496 10.3815 8.11186 10.515L8.84621 11.1158C9.01311 11.2494 9.04649 11.483 8.91297 11.6499L6.27597 14.9545C6.14245 15.1214 5.9088 15.1548 5.7419 15.0213L5.00754 14.4204C4.84065 14.2869 4.80727 14.0533 4.94079 13.8864Z" stroke="currentColor" stroke-linecap="round" stroke-linejoin="round"/>
<path d="M4.10611 5.99989V5.37402H1.76953V13.4853H4.10611V13.0624M4.10611 5.99989L8.33374 6.49989M4.10611 5.99989V13.0624M4.10611 13.0624L4.50041 13.1666" stroke="currentColor" stroke-linecap="round" stroke-linejoin="round"/>
</svg>
