<svg role="img" xmlns="http://www.w3.org/2000/svg" width="72" height="72" fill="none" viewBox="0 0 72 72">
  <path stroke="currentColor" stroke-linecap="round" stroke-linejoin="round" d="M36 66.21c16.5685 0 30-13.4315 30-30 0-16.5686-13.4315-30-30-30s-30 13.4314-30 30c0 16.5685 13.4315 30 30 30Z"/>
  <path fill="currentColor" fill-rule="evenodd" d="M29.462 21.8369c0-3.6577 2.9693-6.6269 6.627-6.6269 3.6681 0 6.6369 2.9697 6.6369 6.6269v16.0956c0 3.6577-2.9692 6.627-6.6269 6.627h-.01c-3.6577 0-6.627-2.9693-6.627-6.627V21.8369Zm6.627-7.6269c-4.21 0-7.627 3.4169-7.627 7.6269v16.0956c0 4.21 3.417 7.627 7.627 7.627h.01c4.2099 0 7.6269-3.417 7.6269-7.627V21.8369c0-4.2104-3.4174-7.6269-7.6369-7.6269Zm9.1088 25.3847a.5.5 0 0 1 .5.5c0 2.587-1.3136 4.6916-3.16 6.1345-1.7074 1.3342-3.8929 2.1235-5.9989 2.2306v9.1018a.5.5 0 1 1-1 0v-9.1035c-2.1043-.116-4.2808-.9395-5.979-2.2678-1.8386-1.438-3.1599-3.5057-3.1599-5.9555a.5.5 0 1 1 1 0c0 2.0645 1.1111 3.8657 2.7759 5.1678 1.6675 1.3042 3.8472 2.0697 5.873 2.0697 2.0313 0 4.21-.7314 5.8732-2.031 1.6569-1.2948 2.7757-3.129 2.7757-5.3466a.5.5 0 0 1 .5-.5Z"/>
</svg>
