<svg width="72" height="72" viewBox="0 0 72 72" fill="none" xmlns="http://www.w3.org/2000/svg">
<path fill-rule="evenodd" clip-rule="evenodd" d="M7.1001 20.2998C7.1001 20.0237 7.32396 19.7998 7.6001 19.7998H55.1001C55.3762 19.7998 55.6001 20.0237 55.6001 20.2998V45.4998C55.6001 45.7759 55.3762 45.9998 55.1001 45.9998C54.824 45.9998 54.6001 45.7759 54.6001 45.4998V20.7998H8.1001V48.0998H10.9001H28.9491H33.6491H40.0001C40.2763 48.0998 40.5001 48.3237 40.5001 48.5998C40.5001 48.8759 40.2763 49.0998 40.0001 49.0998H34.1491V51.1998H41.3001C41.5762 51.1998 41.8001 51.4237 41.8001 51.6998C41.8001 51.976 41.5762 52.1998 41.3001 52.1998H17.1001C16.824 52.1998 16.6001 51.976 16.6001 51.6998C16.6001 51.4237 16.824 51.1998 17.1001 51.1998H28.4491V49.0998H10.9001H7.6001C7.32396 49.0998 7.1001 48.8759 7.1001 48.5998V20.2998ZM29.4491 51.1998H33.1491V49.0998H29.4491V51.1998ZM21.3001 24.4998H20.4374L20.8663 25.2484L26.2239 34.5998L20.8663 43.9513L20.4374 44.6998H21.3001H21.7001H21.9072L22.0537 44.5534L31.3019 35.3051L40.6484 44.5552L40.7945 44.6998H41.0001H41.4001H42.2706L41.832 43.9479L36.3789 34.5998L41.832 25.2517L42.2706 24.4998H41.4001H40.9001H40.693L40.5465 24.6463L31.3001 33.8927L22.0537 24.6463L21.9072 24.4998H21.7001H21.3001ZM30.593 34.5998L23.0613 27.0681L27.2339 34.3512L27.3763 34.5998L27.2339 34.8484L23.0613 42.1315L30.5912 34.6016L30.593 34.5998ZM32.009 34.598L39.7209 26.8861L35.3682 34.3479L35.2212 34.5998L35.3682 34.8517L39.6061 42.1167L32.009 34.598ZM61.5001 38.9998C61.5001 38.7237 61.724 38.4998 62.0001 38.4998H62.0766L62.0959 38.4998L62.1001 38.4998H65.1001H65.2001C65.4763 38.4998 65.7001 38.7237 65.7001 38.9998L65.7001 39.0978L65.7001 39.0988V39.0993V39.0998V51.6998C65.7001 51.976 65.4763 52.1998 65.2001 52.1998H62.0001C61.724 52.1998 61.5001 51.976 61.5001 51.6998V39.0998L61.5001 39.0956L61.5001 39.0764V38.9998ZM62.5001 40.4154V51.1998H64.7001V40.3069L64.6537 40.3534C64.5599 40.4471 64.4327 40.4998 64.3001 40.4998H62.8001C62.6914 40.4998 62.6064 40.4672 62.5614 40.4469C62.5393 40.4369 62.5188 40.4261 62.5001 40.4154ZM62.7001 41.4998C62.7001 41.2237 62.924 40.9998 63.2001 40.9998H64.0001C64.2763 40.9998 64.5001 41.2237 64.5001 41.4998C64.5001 41.776 64.2763 41.9998 64.0001 41.9998H63.2001C62.924 41.9998 62.7001 41.776 62.7001 41.4998ZM63.1001 46.4818C62.824 46.4818 62.6001 46.7057 62.6001 46.9818C62.6001 47.258 62.824 47.4818 63.1001 47.4818H63.2001C63.3384 47.4818 63.4636 47.4257 63.5541 47.3349C63.6446 47.4257 63.7698 47.4818 63.9081 47.4818H64.0081C64.2843 47.4818 64.5081 47.258 64.5081 46.9818C64.5081 46.7057 64.2843 46.4818 64.0081 46.4818H63.9081C63.7698 46.4818 63.6446 46.538 63.5541 46.6287C63.4636 46.538 63.3384 46.4818 63.2001 46.4818H63.1001ZM63.1001 47.6569C62.824 47.6569 62.6001 47.8807 62.6001 48.1569C62.6001 48.433 62.824 48.6569 63.1001 48.6569H63.2001C63.3384 48.6569 63.4636 48.6007 63.5541 48.51C63.6446 48.6007 63.7698 48.6569 63.9081 48.6569H64.0081C64.2843 48.6569 64.5081 48.433 64.5081 48.1569C64.5081 47.8807 64.2843 47.6569 64.0081 47.6569H63.9081C63.7698 47.6569 63.6446 47.713 63.5541 47.8038C63.4636 47.713 63.3384 47.6569 63.2001 47.6569H63.1001ZM63.1001 48.7318C62.824 48.7318 62.6001 48.9557 62.6001 49.2318C62.6001 49.508 62.824 49.7318 63.1001 49.7318H63.2001C63.3384 49.7318 63.4636 49.6757 63.5541 49.5849C63.6446 49.6757 63.7698 49.7318 63.9081 49.7318H64.0081C64.2843 49.7318 64.5081 49.508 64.5081 49.2318C64.5081 48.9557 64.2843 48.7318 64.0081 48.7318H63.9081C63.7698 48.7318 63.6446 48.788 63.5541 48.8787C63.4636 48.788 63.3384 48.7318 63.2001 48.7318H63.1001ZM63.5541 49.8628C63.278 49.8628 63.0541 50.0867 63.0541 50.3628C63.0541 50.639 63.278 50.8628 63.5541 50.8628H63.6541C63.9303 50.8628 64.1541 50.639 64.1541 50.3628C64.1541 50.0867 63.9303 49.8628 63.6541 49.8628H63.5541ZM63.6001 45.6998C63.6553 45.6998 63.7001 45.655 63.7001 45.5998C63.7001 45.5446 63.6554 45.4998 63.6001 45.4998C63.5449 45.4998 63.5001 45.5446 63.5001 45.5998C63.5001 45.6551 63.5449 45.6998 63.6001 45.6998ZM62.7001 45.5998C62.7001 45.1028 63.1031 44.6998 63.6001 44.6998C64.0972 44.6998 64.5001 45.1028 64.5001 45.5998C64.5001 46.0969 64.0972 46.4998 63.6001 46.4998C63.1031 46.4998 62.7001 46.0969 62.7001 45.5998ZM43.9001 46.9818C43.7822 46.9818 43.6682 47.0234 43.578 47.0994L41.678 48.6994C41.491 48.8568 41.4453 49.1264 41.57 49.3367L43.17 52.0367C43.26 52.1886 43.4235 52.2818 43.6001 52.2818H58.2001C58.3719 52.2818 58.5317 52.1936 58.6232 52.0482L60.3232 49.3482C60.4535 49.1413 60.415 48.8705 60.2323 48.7081L58.4323 47.1081C58.3408 47.0267 58.2226 46.9818 58.1001 46.9818H43.9001ZM42.6462 49.1914L44.0826 47.9818H57.91L59.2512 49.174L57.9241 51.2818H43.885L42.6462 49.1914Z" fill="currentColor"/>
</svg>
