<svg role="img" width="72" height="72" viewBox="0 0 72 72" fill="none" xmlns="http://www.w3.org/2000/svg">
<path d="M36.1051 66.4246C53.0215 66.4246 66.7349 52.7112 66.7349 35.7948C66.7349 18.8785 53.0215 5.16504 36.1051 5.16504C19.1888 5.16504 5.47534 18.8785 5.47534 35.7948C5.47534 52.7112 19.1888 66.4246 36.1051 66.4246Z" stroke="currentColor" stroke-linecap="round" stroke-linejoin="round"/>
<path d="M45.3941 41.0399C45.3941 45.8446 40.5294 48.9176 36.2452 48.9176C31.961 48.9176 27.0963 45.6944 27.0963 41.1801" stroke="currentColor" stroke-linecap="round" stroke-linejoin="round"/>
<path d="M36.2352 48.9476V58.5069" stroke="currentColor" stroke-linecap="round" stroke-linejoin="round"/>
<path d="M36.2853 15.6553C40.2291 15.6553 43.4222 18.8484 43.4222 22.7822V38.8779C43.4222 42.8117 40.2291 46.0048 36.2953 46.0048H36.2853C32.3514 46.0048 29.1583 42.8117 29.1583 38.8779V22.7822C29.1583 18.8484 32.3514 15.6553 36.2853 15.6553Z" stroke="currentColor" stroke-linecap="round" stroke-linejoin="round"/>
</svg>
