<svg width="72" height="72" viewBox="0 0 72 72" fill="none" xmlns="http://www.w3.org/2000/svg">
<path d="M48 36H21" stroke="currentColor" stroke-linecap="round" stroke-linejoin="round"/>
<path d="M63.0002 42C66.3139 42 69 39.3137 69 36C69 32.6863 66.3139 30 63.0002 30C59.6865 30 57 32.6863 57 36C57 39.3137 59.6865 42 63.0002 42Z" stroke="currentColor" stroke-linecap="round" stroke-linejoin="round"/>
<path d="M9.0002 42C12.3139 42 15 39.3137 15 36C15 32.6863 12.3139 30 9.0002 30C5.68647 30 3 32.6863 3 36C3 39.3137 5.68647 42 9.0002 42Z" stroke="currentColor" stroke-linecap="round" stroke-linejoin="round"/>
<path d="M63.0002 66C66.3139 66 69 63.3137 69 60C69 56.6863 66.3139 54 63.0002 54C59.6865 54 57 56.6863 57 60C57 63.3137 59.6865 66 63.0002 66Z" stroke="currentColor" stroke-linecap="round" stroke-linejoin="round"/>
<path d="M48 12H33V60H48" stroke="currentColor" stroke-linecap="round" stroke-linejoin="round"/>
<path d="M63.0002 18C66.3139 18 69 15.3137 69 12C69 8.68629 66.3139 6 63.0002 6C59.6865 6 57 8.68629 57 12C57 15.3137 59.6865 18 63.0002 18Z" stroke="currentColor" stroke-linecap="round" stroke-linejoin="round"/>
</svg>
