<svg width="72" height="72" viewBox="0 0 72 72" fill="none" xmlns="http://www.w3.org/2000/svg">
<path fill-rule="evenodd" clip-rule="evenodd" d="M57.5 12C57.5 8.96245 59.9626 6.5 63.0002 6.5C66.0378 6.5 68.5 8.96241 68.5 12C68.5 15.0376 66.0378 17.5 63.0002 17.5C59.9626 17.5 57.5 15.0375 57.5 12ZM63.0002 5.5C59.4104 5.5 56.5 8.41013 56.5 12C56.5 15.5899 59.4104 18.5 63.0002 18.5C66.5901 18.5 69.5 15.5898 69.5 12C69.5 8.41017 66.5901 5.5 63.0002 5.5ZM32.5 12C32.5 11.7239 32.7239 11.5 33 11.5H48C48.2761 11.5 48.5 11.7239 48.5 12C48.5 12.2761 48.2761 12.5 48 12.5H33.5V35.5H48C48.2761 35.5 48.5 35.7239 48.5 36C48.5 36.2761 48.2761 36.5 48 36.5H33.5V59.5H48C48.2761 59.5 48.5 59.7239 48.5 60C48.5 60.2761 48.2761 60.5 48 60.5H33C32.7239 60.5 32.5 60.2761 32.5 60V36.5H21C20.7239 36.5 20.5 36.2761 20.5 36C20.5 35.7239 20.7239 35.5 21 35.5H32.5V12ZM9.0002 30.5C5.96259 30.5 3.5 32.9625 3.5 36C3.5 39.0375 5.96259 41.5 9.0002 41.5C12.0378 41.5 14.5 39.0376 14.5 36C14.5 32.9624 12.0378 30.5 9.0002 30.5ZM2.5 36C2.5 32.4101 5.41035 29.5 9.0002 29.5C12.5901 29.5 15.5 32.4102 15.5 36C15.5 39.5898 12.5901 42.5 9.0002 42.5C5.41035 42.5 2.5 39.5899 2.5 36ZM57.5 36C57.5 32.9625 59.9626 30.5 63.0002 30.5C66.0378 30.5 68.5 32.9624 68.5 36C68.5 39.0376 66.0378 41.5 63.0002 41.5C59.9626 41.5 57.5 39.0375 57.5 36ZM63.0002 29.5C59.4104 29.5 56.5 32.4101 56.5 36C56.5 39.5899 59.4104 42.5 63.0002 42.5C66.5901 42.5 69.5 39.5898 69.5 36C69.5 32.4102 66.5901 29.5 63.0002 29.5ZM57.5 60C57.5 56.9625 59.9626 54.5 63.0002 54.5C66.0378 54.5 68.5 56.9624 68.5 60C68.5 63.0376 66.0378 65.5 63.0002 65.5C59.9626 65.5 57.5 63.0375 57.5 60ZM63.0002 53.5C59.4104 53.5 56.5 56.4101 56.5 60C56.5 63.5899 59.4104 66.5 63.0002 66.5C66.5901 66.5 69.5 63.5898 69.5 60C69.5 56.4102 66.5901 53.5 63.0002 53.5Z" fill="currentColor"/>
</svg>
