<svg role="img" xmlns="http://www.w3.org/2000/svg" width="72" height="72" fill="none" viewBox="0 0 72 72">
  <path stroke="currentColor" stroke-miterlimit="10" d="M36 6c16.568 0 30 13.432 30 30 0 16.568-13.432 30-30 30C19.432 66 6 52.568 6 36 6 19.4221 19.432 6 36 6Z"/>
  <path fill="currentColor" fill-rule="evenodd" d="M36 24c1.1046 0 2-.8954 2-2s-.8954-2-2-2-2 .8954-2 2 .8954 2 2 2Zm0 6c-.5523 0-1 .4477-1 1v20c0 .5523.4477 1 1 1s1-.4477 1-1V31c0-.5523-.4477-1-1-1Z" clip-rule="evenodd"/>
</svg>
