<svg width="72" height="72" viewBox="0 0 72 72" fill="none" xmlns="http://www.w3.org/2000/svg">
<path d="M38.3535 50.0698C36.8514 50.0698 36.9516 49.2687 36.9516 48.4676C36.9516 45.7638 37.5524 43.0601 38.7541 40.5566C38.8542 40.2562 39.2548 39.5552 38.9543 39.4551C38.3535 39.5552 37.8528 39.8556 37.4523 40.2562C35.9502 41.3577 35.2492 41.2576 33.9474 40.2562L32.8459 39.4551C32.6456 39.4551 32.4453 39.5552 32.4453 39.7555C32.4453 39.8556 32.4453 39.8556 32.4453 39.9558C33.5468 42.3591 34.1477 44.9627 34.2478 47.5663C34.2478 47.9669 34.2478 48.3675 34.2478 48.768C34.2478 49.3688 33.647 49.8695 33.0461 49.8695H32.946" stroke="currentColor" stroke-linecap="round" stroke-linejoin="bevel"/>
<path d="M18.8266 45.1631L13.0186 49.7695" stroke="currentColor" stroke-linecap="round" stroke-linejoin="round"/>
<path d="M20.2286 17.8245L14.1201 13.5186" stroke="currentColor" stroke-linecap="round" stroke-linejoin="round"/>
<path d="M51.0713 17.5244L56.9795 12.918" stroke="currentColor" stroke-linecap="round" stroke-linejoin="round"/>
<path d="M35.9502 12.7179V5.30762" stroke="currentColor" stroke-linecap="round" stroke-linejoin="round"/>
<path d="M15.421 31.6436H8.21094" stroke="currentColor" stroke-linecap="round" stroke-linejoin="round"/>
<path d="M63.9893 31.6436H56.7793" stroke="currentColor" stroke-linecap="round" stroke-linejoin="round"/>
<path d="M52.7734 45.1631L58.5815 49.7695" stroke="currentColor" stroke-linecap="round" stroke-linejoin="round"/>
<path d="M29.04 59.2827L42.8592 55.8779" stroke="currentColor" stroke-linecap="round" stroke-linejoin="round"/>
<path d="M29.8418 62.7875L42.96 59.583" stroke="currentColor" stroke-linecap="round" stroke-linejoin="round"/>
<path d="M31.4434 64.8902C32.2445 65.8916 33.346 66.5925 34.6478 66.893H37.3516C38.5532 66.5925 39.6548 65.8916 40.3557 64.79" stroke="currentColor" stroke-linecap="round" stroke-linejoin="round"/>
<path d="M28.6395 51.7723C28.239 48.3676 26.4365 45.6638 24.2334 43.1604C16.3224 34.248 20.7285 20.0282 32.1444 17.2243C42.1583 14.821 51.6715 22.3314 51.6715 32.9462C51.8718 37.2522 49.869 41.0574 46.6646 44.2619C44.8621 45.9643 43.7605 48.2675 43.5602 50.6708C43.5602 51.4719 42.9594 52.0727 42.2584 52.1729C38.2529 53.1743 34.1472 54.1757 30.1416 55.2772" stroke="currentColor" stroke-linecap="round" stroke-linejoin="round"/>
</svg>
