<svg width="72" height="72" viewBox="0 0 72 72" fill="none" xmlns="http://www.w3.org/2000/svg">
<path fill-rule="evenodd" clip-rule="evenodd" d="M13.7197 5.40723C13.7197 5.13108 13.9435 4.90723 14.2197 4.90723H22.9318C23.2079 4.90723 23.4318 5.13108 23.4318 5.40723V8.51223H26.3365C26.6126 8.51223 26.8365 8.73609 26.8365 9.01223V24.7341C26.8365 24.8667 26.7838 24.9939 26.69 25.0876L22.1838 29.5939C22.09 29.6877 21.9628 29.7403 21.8302 29.7403H18.9255V57.1791C18.9255 61.7097 22.6071 65.3912 27.1376 65.3912C31.6655 65.3912 35.3454 61.714 35.3497 57.1871V14.2193C35.3497 9.13651 39.479 5.00723 44.5618 5.00723C49.6446 5.00723 53.7739 9.13651 53.7739 14.2193V41.7584H56.7788C56.9133 41.7584 57.0422 41.8126 57.1363 41.9089L61.5424 46.4151C61.6338 46.5085 61.6849 46.634 61.6849 46.7647V62.3864C61.6849 62.6625 61.461 62.8864 61.1849 62.8864H58.2802V65.9914C58.2802 66.2675 58.0563 66.4914 57.7802 66.4914H49.0681C48.7919 66.4914 48.5681 66.2675 48.5681 65.9914V62.8864H45.6633C45.3872 62.8864 45.1633 62.6625 45.1633 62.3864V46.7647C45.1633 46.6321 45.216 46.5049 45.3098 46.4111L49.816 41.9049C49.9098 41.8111 50.037 41.7584 50.1696 41.7584H52.7739V14.2193C52.7739 9.68879 49.0923 6.00723 44.5618 6.00723C40.0313 6.00723 36.3497 9.68879 36.3497 14.2193V57.1772L36.3497 57.1791L36.3497 57.1876V57.2791C36.3497 57.2893 36.3494 57.2994 36.3488 57.3094C36.279 62.3323 32.1769 66.3912 27.1376 66.3912C22.0548 66.3912 17.9255 62.2619 17.9255 57.1791V29.7403H15.2211C15.0865 29.7403 14.9576 29.6861 14.8636 29.5899L10.4574 25.0836C10.3661 24.9902 10.3149 24.8647 10.3149 24.7341V9.01223C10.3149 8.73609 10.5388 8.51223 10.8149 8.51223H13.7197V5.40723ZM52.9739 42.7584H50.3767L46.1633 46.9718V61.8864L49.0681 61.8864H57.7802L60.6849 61.8864V46.9685L56.5684 42.7584H53.574C53.4904 42.8212 53.3865 42.8584 53.2739 42.8584C53.1613 42.8584 53.0574 42.8212 52.9739 42.7584ZM49.5681 62.8864V65.4914H57.2802V62.8864H49.5681ZM22.4318 5.90723V8.51223H14.7197V5.90723H22.4318ZM11.3149 9.51223H14.2197H22.9318H25.8365V24.527L21.6231 28.7403H18.7257C18.6421 28.6775 18.5382 28.6402 18.4255 28.6402C18.3128 28.6402 18.2089 28.6775 18.1253 28.7403H15.4315L11.3149 24.5302V9.51223Z" fill="currentColor"/>
</svg>
