<svg width="72" height="72" viewBox="0 0 72 72" fill="none" xmlns="http://www.w3.org/2000/svg">
<path d="M56.2442 29.3781C56.3343 31.29 54.8629 32.9215 52.941 33.0216C51.0291 33.1117 49.3976 31.6403 49.2975 29.7184C49.1974 27.7966 50.6788 26.175 52.6007 26.0749C52.6607 26.0749 52.7208 26.0749 52.7808 26.0749C54.6427 26.0348 56.1942 27.5163 56.2442 29.3781ZM39.8182 29.3781C39.9083 31.29 38.4369 32.9215 36.515 33.0216C34.6032 33.1117 32.9716 31.6403 32.8715 29.7184C32.7714 27.7966 34.2528 26.175 36.1747 26.0749C36.2348 26.0749 36.2848 26.0749 36.3449 26.0749C38.2167 26.0348 39.7682 27.5063 39.8182 29.3781ZM23.3823 29.3781C23.4723 31.29 22.0009 32.9215 20.0791 33.0216C18.1672 33.1117 16.5356 31.6403 16.4355 29.7184C16.3454 27.8066 17.8169 26.175 19.7387 26.0749C19.7988 26.0749 19.8588 26.0749 19.9189 26.0749C21.7807 26.0348 23.3322 27.5163 23.3823 29.3781ZM66.6844 7.78711V49.3876H52.4505V63.6514L38.0165 49.3876H5.38477V7.78711H66.6844Z" stroke="currentColor" stroke-linecap="round" stroke-linejoin="round"/>
</svg>
