<svg role="img" width="24" height="24" viewBox="0 0 24 24" fill="none" xmlns="http://www.w3.org/2000/svg">
<path fill-rule="evenodd" clip-rule="evenodd" d="M21.7741 5.34801C20.361 4.53158 16.4228 2.80153 12.0202 5.1961C11.1337 4.66913 9.62941 4.24209 7.98433 4.13244C6.13561 4.00922 4.00008 4.2784 2.21793 5.35274C2.06784 5.44323 1.97607 5.60569 1.97607 5.78095V18.6997C1.97607 18.874 2.06679 19.0357 2.21551 19.1265C2.36422 19.2173 2.54949 19.2241 2.70449 19.1445C3.86853 18.5467 7.22278 17.1649 11.8004 19.1582C11.9394 19.2187 12.0983 19.2129 12.2325 19.1424C13.6761 18.3842 17.6778 17.1773 21.2851 19.139C21.44 19.2232 21.6279 19.2196 21.7795 19.1295C21.9311 19.0394 22.024 18.8761 22.024 18.6997V5.78095C22.024 5.60237 21.9287 5.43735 21.7741 5.34801ZM12.5 6.07353C16.2202 4.05258 19.567 5.29975 21.024 6.07536V17.899C17.3885 16.3107 13.6176 17.3665 11.9832 18.149C7.86236 16.4298 4.64443 17.2305 2.97607 17.9189V6.07035C4.48043 5.24896 6.28395 5.02132 7.91782 5.13023C9.48611 5.23476 10.8099 5.64245 11.5 6.04997V16.6196C11.5 16.8958 11.7238 17.1196 12 17.1196C12.2761 17.1196 12.5 16.8958 12.5 16.6196V6.07353Z" fill="currentColor"/>
</svg>
