<svg width="72" height="72" viewBox="0 0 72 72" fill="none" xmlns="http://www.w3.org/2000/svg">
<path fill-rule="evenodd" clip-rule="evenodd" d="M13.7197 5.40747C13.7197 5.13133 13.9435 4.90747 14.2197 4.90747H22.9318C23.2079 4.90747 23.4318 5.13133 23.4318 5.40747V8.51248H26.3365C26.6126 8.51248 26.8365 8.73634 26.8365 9.01248V24.7343C26.8365 24.8669 26.7838 24.9941 26.69 25.0879L22.1838 29.5941C22.09 29.6879 21.9628 29.7406 21.8302 29.7406H18.9255V57.1794C18.9255 61.7099 22.6071 65.3915 27.1376 65.3915C31.6655 65.3915 35.3454 61.7142 35.3497 57.1874V14.2196C35.3497 9.13675 39.479 5.00747 44.5618 5.00747C49.6446 5.00747 53.7739 9.13675 53.7739 14.2196V41.7587H56.7788C56.9133 41.7587 57.0422 41.8129 57.1363 41.9091L61.5424 46.4154C61.6338 46.5088 61.6849 46.6343 61.6849 46.7649V62.3866C61.6849 62.6628 61.461 62.8866 61.1849 62.8866H58.2802V65.9916C58.2802 66.2678 58.0563 66.4916 57.7802 66.4916H49.0681C48.7919 66.4916 48.5681 66.2678 48.5681 65.9916V62.8866H45.6633C45.3872 62.8866 45.1633 62.6628 45.1633 62.3866V46.7649C45.1633 46.6323 45.216 46.5051 45.3098 46.4114L49.816 41.9051C49.9098 41.8113 50.037 41.7587 50.1696 41.7587H52.7739V14.2196C52.7739 9.68904 49.0923 6.00747 44.5618 6.00747C40.0313 6.00747 36.3497 9.68904 36.3497 14.2196V57.1774L36.3497 57.1794L36.3497 57.1878V57.2794C36.3497 57.2895 36.3494 57.2996 36.3488 57.3096C36.279 62.3326 32.1769 66.3915 27.1376 66.3915C22.0548 66.3915 17.9255 62.2622 17.9255 57.1794V29.7406H15.2211C15.0865 29.7406 14.9576 29.6863 14.8636 29.5901L10.4574 25.0839C10.3661 24.9904 10.3149 24.865 10.3149 24.7343V9.01248C10.3149 8.73634 10.5388 8.51248 10.8149 8.51248H13.7197V5.40747ZM52.9739 42.7587H50.3767L46.1633 46.972V61.8866L49.0681 61.8866H57.7802L60.6849 61.8866V46.9687L56.5684 42.7587H53.574C53.4904 42.8214 53.3865 42.8587 53.2739 42.8587C53.1613 42.8587 53.0574 42.8214 52.9739 42.7587ZM49.5681 62.8866V65.4916H57.2802V62.8866H49.5681ZM22.4318 5.90747V8.51248H14.7197V5.90747H22.4318ZM11.3149 9.51248H14.2197H22.9318H25.8365V24.5272L21.6231 28.7406H18.7257C18.6421 28.6777 18.5382 28.6404 18.4255 28.6404C18.3128 28.6404 18.2089 28.6777 18.1253 28.7406H15.4315L11.3149 24.5305V9.51248Z" fill="currentColor"/>
</svg>
