<svg width="72" height="72" viewBox="0 0 72 72" fill="none" xmlns="http://www.w3.org/2000/svg">
<path fill-rule="evenodd" clip-rule="evenodd" d="M11.907 13.0009C11.7695 12.9927 11.6347 13.0417 11.5345 13.1362C11.4343 13.2306 11.3774 13.3623 11.3774 13.5V18.3512H6.5C6.22386 18.3512 6 18.5751 6 18.8512V58.499C6 58.7752 6.22386 58.999 6.5 58.999H36.037H65.4961C65.7722 58.999 65.9961 58.7752 65.9961 58.499V18.8512C65.9961 18.5751 65.7722 18.3512 65.4961 18.3512H60.6966V13.5C60.6966 13.3623 60.6398 13.2306 60.5395 13.1362C60.4393 13.0417 60.3046 12.9927 60.1671 13.0009C49.8514 13.6106 43.7637 14.9536 40.2396 16.1586C38.4764 16.7614 37.3503 17.3313 36.6556 17.7609C36.3905 17.9248 36.1881 18.0685 36.037 18.1858C35.8859 18.0685 35.6835 17.9248 35.4184 17.7609C34.7237 17.3313 33.5976 16.7614 31.8345 16.1586C28.3103 14.9536 22.2226 13.6106 11.907 13.0009ZM7 19.3512H11.3774V53.2289C11.3774 53.4935 11.5837 53.7124 11.8479 53.728C22.1075 54.3344 28.1005 55.647 31.5134 56.794C32.8368 57.2387 33.7694 57.6576 34.4109 57.999H7V19.3512ZM40.5594 56.8045C39.2396 57.2442 38.3087 57.6596 37.6675 57.999H64.9961V19.3512H60.6966V53.3099C60.6966 53.5754 60.4891 53.7946 60.2241 53.8092C49.9646 54.3752 43.9719 55.6676 40.5594 56.8045ZM59.6966 14.0313V18.3512H37.6299C38.2721 18 39.2146 17.5659 40.5631 17.1048C43.9159 15.9584 49.7602 14.6517 59.6966 14.0313ZM12.3774 18.3512H34.4441C33.8019 18 32.8594 17.5659 31.5109 17.1048C28.1581 15.9584 22.3138 14.6517 12.3774 14.0313V18.3512ZM59.6966 19.3512H36.037H12.3774V52.7582C22.4076 53.3799 28.3627 54.6801 31.832 55.8461C33.5946 56.4384 34.7204 56.9977 35.4148 57.4191C35.6821 57.5813 35.8857 57.7233 36.0372 57.8389C36.1888 57.7234 36.3925 57.5818 36.6598 57.42C37.3545 56.9998 38.4804 56.4431 40.2433 55.8558C43.7127 54.6999 49.6675 53.4198 59.6966 52.8374V19.3512ZM36.537 26.6353C36.537 26.3592 36.3131 26.1353 36.037 26.1353C35.7608 26.1353 35.537 26.3592 35.537 26.6353V31.9055C35.537 32.1816 35.7608 32.4055 36.037 32.4055C36.3131 32.4055 36.537 32.1816 36.537 31.9055V26.6353ZM36.537 44.4728C36.537 44.1966 36.3131 43.9728 36.037 43.9728C35.7608 43.9728 35.537 44.1966 35.537 44.4728V49.7429C35.537 50.0191 35.7608 50.2429 36.037 50.2429C36.3131 50.2429 36.537 50.0191 36.537 49.7429V44.4728Z" fill="currentColor"/>
</svg>
