<svg role="img" width="72" height="72" viewBox="0 0 72 72" fill="none" xmlns="http://www.w3.org/2000/svg">
<path d="M18.4255 29.1404V57.1794C18.4255 61.9861 22.331 65.8915 27.1376 65.8915C31.9443 65.8915 35.8497 61.9861 35.8497 57.1794" stroke="currentColor" stroke-linecap="round" stroke-linejoin="round"/>
<path d="M26.3365 9.01245V24.7343L21.8302 29.2405H15.2211L10.8149 24.7343V9.01245H26.3365Z" stroke="currentColor" stroke-linecap="round" stroke-linejoin="round"/>
<path d="M22.9318 5.40747H14.2197V9.01248H22.9318V5.40747Z" stroke="currentColor" stroke-linecap="round" stroke-linejoin="round"/>
<path d="M57.7802 62.3866H49.0681V65.9916H57.7802V62.3866Z" stroke="currentColor" stroke-linecap="round" stroke-linejoin="round"/>
<path d="M35.8496 57.2794V14.2195C35.8496 9.41287 39.755 5.50745 44.5617 5.50745C49.3684 5.50745 53.2738 9.41287 53.2738 14.2195V42.3586" stroke="currentColor" stroke-linecap="round" stroke-linejoin="round"/>
<path d="M45.6633 62.3866V46.7649L50.1696 42.2587H56.7788L61.1849 46.7649V62.3866H45.6633Z" stroke="currentColor" stroke-linecap="round" stroke-linejoin="round"/>
</svg>