<svg role="img" xmlns="http://www.w3.org/2000/svg" width="72" height="72" fill="none" viewBox="0 0 72 72">
  <path stroke="currentColor" stroke-linecap="round" stroke-linejoin="round" d="M28.0072 51.0496v.6707h16.6362v-.6707h22.4018c.1201 0 .2302.0601.2302.1301v3.7337c0 .0701-.1101.1301-.2302.1301H4.9849c-.1302 0-.2303-.06-.2303-.1301v-3.7236c0-.0701.1001-.1302.2303-.1302l23.0223-.01Z"/>
  <path stroke="currentColor" stroke-linecap="round" stroke-linejoin="round" d="M63.9021 51.0496V15.3449c0-.0801-.07-.1501-.1501-.1501H8.258c-.08 0-.15.07-.15.1501v35.7047"/>
  <path stroke="currentColor" stroke-linecap="round" stroke-linejoin="round" d="M49.9952 36.4464c.1076 2.1516-1.6136 4.088-3.7652 4.1956-2.1516.1076-4.088-1.6137-4.1956-3.7653V31.175c-.1076-2.1515 1.6137-4.088 3.7653-4.1955 2.1515-.1076 4.088 1.6136 4.1955 3.7652v5.7017Zm-11.6817 0c.1076 2.1516-1.6137 4.088-3.7652 4.1956-2.1516.1076-4.088-1.6137-4.1956-3.7653V31.175c-.1076-2.1515 1.6137-4.088 3.7653-4.1955 2.1515-.1076 4.088 1.6136 4.1955 3.7652v5.7017Zm-12.9093 4.1959V26.657l-4.3234 3.6091"/>
</svg>
