<svg width="24" height="24" viewBox="0 0 24 24" fill="none" xmlns="http://www.w3.org/2000/svg">
<path d="M18.2322 19.7428C18.1085 18.5287 18.1085 17.305 18.2322 16.0909C18.2322 15.3357 16.5587 15.4909 16.0453 15.3874C15.532 15.284 15.573 14.5701 15.573 13.3183C15.573 12.0665 17.5238 12.1286 18.0679 11.3734C18.6121 10.6182 19.5977 11.7458 20.1213 12.0251C20.6764 12.3924 21.3095 12.6227 21.9693 12.6976" stroke="currentColor" stroke-linecap="round" stroke-linejoin="round"/>
<path d="M21.9589 11.1772C20.8833 10.7526 19.8516 10.2224 18.8789 9.59435C18.232 9.32536 16.6099 10.5151 16.1787 9.97713C15.7474 9.43917 16.4969 8.6736 16.8255 8.13564C17.154 7.59768 18.2834 7.97012 18.9918 7.59768C19.4127 7.37008 19.6181 6.50107 19.7516 5.66309C21.0547 7.21529 21.8286 9.1483 21.9589 11.1772Z" stroke="currentColor" stroke-linecap="round" stroke-linejoin="round"/>
<path d="M16.7126 3.14923C16.2354 3.85383 15.7105 4.52443 15.1418 5.15624C14.2177 6.12871 13.0884 6.80116 12.3902 6.45976C11.6921 6.11836 11.9487 5.59075 11.3635 4.24584C11.0058 3.50048 10.5537 2.80499 10.0186 2.17676" stroke="currentColor" stroke-linecap="round" stroke-linejoin="round"/>
<path d="M6.34261 3.82129C6.51983 3.93357 6.66929 4.08512 6.7796 4.26439C6.88991 4.44367 6.95816 4.64595 6.97916 4.85583C6.91756 5.56967 5.79846 6.21108 6.39395 6.92492C6.98943 7.63875 7.74918 6.74904 8.6424 6.92492C9.05567 7.04617 9.43913 7.25335 9.76805 7.53311C10.097 7.81287 10.364 8.15899 10.5521 8.54915C10.7882 9.08711 9.13522 9.02504 8.83748 9.43885C8.53974 9.85267 8.24199 11.1045 7.87238 11.5079C7.50277 11.9114 6.29128 9.96647 6.05514 10.4734C5.98417 10.9438 6.04233 11.4248 6.22331 11.8643C6.40429 12.3038 6.70119 12.685 7.08183 12.9666C7.96479 13.7425 9.45349 13.6081 10.3467 14.1357C11.2399 14.6633 10.4699 14.7874 11.0551 15.5013C11.6403 16.2151 12.8313 16.1427 12.472 17.1565C12.1126 18.1704 10.1722 18.8635 9.87444 19.6394C9.5767 20.4153 9.10441 20.8809 8.50893 20.674C7.91345 20.4671 8.27279 17.6531 8.15986 17.3014C8.04692 16.9496 6.32208 16.0599 6.68142 15.4082C6.78248 15.2535 6.84761 15.0778 6.87194 14.8942C6.89627 14.7106 6.87918 14.5239 6.82194 14.3479C6.76471 14.1719 6.66881 14.0112 6.54137 13.8777C6.41394 13.7442 6.25826 13.6414 6.08594 13.577C5.23687 13.2081 4.48723 12.6407 3.89908 11.9218C3.47814 11.3838 3.19066 10.7734 2.70812 10.7941C2.55079 10.802 2.39317 10.802 2.23584 10.7941" stroke="currentColor" stroke-linecap="round" stroke-linejoin="round"/>
<path d="M21.9897 11.9841C21.9897 12.2117 21.9897 12.4393 21.9897 12.6566C21.8978 14.0705 21.5067 15.4483 20.8426 16.6974C20.1786 17.9465 19.2569 19.0379 18.1396 19.8983C16.6638 21.0453 14.8997 21.7547 13.0457 21.947C11.1917 22.1392 9.32126 21.8066 7.64454 20.9865C5.96782 20.1665 4.5513 18.8915 3.55417 17.3048C2.55704 15.7182 2.01883 13.8827 2.00001 12.0048C1.9994 11.6212 2.01997 11.2378 2.06162 10.8565C2.21786 9.46196 2.66441 8.11639 3.37209 6.90771C4.07976 5.69902 5.03263 4.65445 6.16839 3.84226C7.31335 3.03091 8.61446 2.47054 9.98769 2.19734C10.637 2.06845 11.2971 2.00263 11.9589 2.00077C13.6135 1.98011 15.2471 2.37475 16.7125 3.14911C17.8539 3.75456 18.8684 4.57657 19.7002 5.56994C21.0333 7.14859 21.8381 9.1108 22 11.1772C21.9932 11.4392 21.9897 11.7082 21.9897 11.9841Z" stroke="currentColor" stroke-linecap="round" stroke-linejoin="round"/>
</svg>
