<svg width="72" height="72" viewBox="0 0 72 72" fill="none" xmlns="http://www.w3.org/2000/svg">
<path fill-rule="evenodd" clip-rule="evenodd" d="M29.8 7.15263C31.7991 6.72505 33.8733 6.5 36 6.5C40.8808 6.5 45.4848 7.68533 49.5397 9.78382C48.0663 11.8325 46.4503 13.6616 44.6747 15.5103C43.2529 16.926 41.6651 18.1114 40.1901 18.8142C38.689 19.5294 37.4254 19.69 36.562 19.2724L36.562 19.2724L36.5565 19.2698C35.8907 18.9578 35.6006 18.4818 35.2656 17.4724C35.1787 17.2109 35.0898 16.9152 34.9904 16.585L34.9903 16.5847L34.9903 16.5846L34.9903 16.5846C34.7085 15.6481 34.3431 14.4336 33.7058 12.9308C33.7007 12.9188 33.6951 12.907 33.6891 12.8954C32.622 10.843 31.3176 8.91605 29.8 7.15263ZM28.6968 7.41098C25.1959 8.30262 21.9451 9.82041 19.0708 11.8381C20.1417 12.8005 20.974 13.9448 20.9067 15.2213L20.9057 15.2364C20.8515 15.8876 20.5575 16.4908 20.2316 17.0267C20.0667 17.298 19.8851 17.5652 19.7098 17.8209L19.6616 17.8914L19.6615 17.8914L19.6614 17.8916C19.5012 18.1253 19.3476 18.3492 19.2066 18.5725C18.8919 19.0707 18.6797 19.5061 18.6246 19.9114C18.5739 20.2843 18.6512 20.667 19.0082 21.0964C19.3741 21.5364 19.7376 21.7012 20.1125 21.7439C20.5168 21.79 20.9764 21.6994 21.5369 21.5353C21.7044 21.4863 21.8847 21.4292 22.0734 21.3696L22.0734 21.3695C22.4778 21.2416 22.9203 21.1017 23.3562 21.0025C24.017 20.8522 24.7402 20.773 25.502 20.9259C26.9616 21.2187 28.2746 22.0845 29.3072 23.0547C30.3413 24.0262 31.1364 25.1417 31.5502 26.0016C31.6958 26.3042 31.7291 26.6302 31.5942 26.9404C31.4698 27.2262 31.2341 27.4236 31.0045 27.5631C30.5524 27.8377 29.8939 28.0217 29.27 28.1781C29.1 28.2207 28.9303 28.2618 28.7625 28.3024C28.2803 28.4191 27.8134 28.5321 27.3967 28.6681C27.1198 28.7584 26.8867 28.8525 26.7045 28.9531C26.5189 29.0556 26.4172 29.1481 26.3675 29.2204C26.1778 29.4963 25.9721 29.9254 25.7469 30.4679C25.5779 30.8752 25.4072 31.3231 25.2296 31.7889L25.2294 31.7893L25.2293 31.7896C25.1728 31.9379 25.1155 32.0881 25.0574 32.2394C24.8194 32.8591 24.5686 33.4923 24.3042 34.0533C24.043 34.6075 23.7521 35.1274 23.4229 35.4994C23.1473 35.811 22.781 35.8906 22.4331 35.8292C22.1191 35.7738 21.8112 35.6055 21.5368 35.4172C20.9829 35.0371 20.3669 34.4325 19.8083 33.8841C19.2245 33.3109 18.7065 32.8027 18.2955 32.5256C18.1972 32.4593 18.1164 32.4144 18.0524 32.3867C18.0405 32.3815 18.0296 32.3771 18.0197 32.3734C17.7604 33.0056 17.7999 34.137 18.2717 35.4562C18.7436 36.7758 19.6147 38.1824 20.8648 39.2767C22.0772 40.338 23.7474 40.7978 25.5502 41.1884C25.7811 41.2384 26.0148 41.2874 26.25 41.3366C27.7944 41.66 29.4004 41.9962 30.6454 42.7355C31.3417 43.149 31.7803 43.5211 32.0309 43.9128C32.2992 44.3319 32.3161 44.7169 32.3026 45.0405C32.2996 45.1109 32.2958 45.1755 32.2923 45.2363C32.2792 45.4595 32.2691 45.6321 32.3142 45.8511C32.3673 46.1096 32.5088 46.4543 32.9108 46.931C33.3007 47.3934 33.8 47.7462 34.3469 48.0655C34.5958 48.2108 34.8473 48.3452 35.1016 48.481L35.1017 48.481L35.1777 48.5216C35.4537 48.6692 35.7339 48.8204 35.9939 48.9809C36.5062 49.2972 37.0097 49.6895 37.2859 50.2619C37.5731 50.8569 37.5729 51.5532 37.2763 52.3827C36.9701 53.2388 36.3341 53.9994 35.595 54.6802C34.852 55.3646 33.9625 56.0058 33.1026 56.6087C32.9727 56.6998 32.8437 56.79 32.7158 56.8792L32.7156 56.8793L32.7155 56.8795C31.9859 57.3889 31.2958 57.8708 30.7167 58.3476C30.0259 58.9164 29.5691 59.4193 29.3852 59.8734C28.9029 61.0646 28.2856 62.0819 27.5123 62.7344C26.8637 63.2818 26.1047 63.5696 25.2647 63.4858C28.5917 64.7862 32.2125 65.5 36 65.5C42.6845 65.5 48.8497 63.2768 53.7965 59.5294C53.415 57.8428 53.4212 55.6557 53.5156 53.7018C53.5607 52.7695 53.6267 51.8772 53.6839 51.1042L53.684 51.1031L53.6841 51.1024L53.6963 50.937C53.7568 50.1176 53.8029 49.4629 53.8029 49.0354C53.8029 48.7099 53.636 48.4552 53.2198 48.2302C52.7848 47.995 52.1524 47.8416 51.4119 47.7423C50.6803 47.6441 49.8953 47.6046 49.1756 47.5698L49.0979 47.5661C48.4287 47.5339 47.7875 47.503 47.3592 47.418C46.8386 47.3147 46.4334 47.0529 46.1452 46.6378C45.8712 46.2432 45.7238 45.7401 45.6371 45.1808C45.4927 44.2487 45.4967 42.9923 45.5015 41.4726V41.4726V41.4725V41.4725V41.4724C45.5024 41.1887 45.5033 40.8958 45.5033 40.5942C45.5033 39.4647 45.9572 38.6249 46.6501 37.9878C47.3226 37.3694 48.2143 36.947 49.0957 36.5988C49.469 36.4513 49.8521 36.313 50.2237 36.1787L50.4326 36.1032C50.8726 35.9437 51.2926 35.788 51.6815 35.6206C52.4736 35.2796 53.059 34.9204 53.3874 34.4707C53.8953 33.7752 54.5544 33.4853 55.2696 33.5006C55.944 33.515 56.6284 33.799 57.2496 34.1459C57.878 34.4968 58.4997 34.9463 59.0492 35.3467L59.1057 35.3879L59.1058 35.388L59.1059 35.3881C59.6461 35.7819 60.097 36.1105 60.4578 36.3006C60.7883 36.4686 61.1441 36.6966 61.5035 36.927L61.5116 36.9322L61.5135 36.9334C61.8843 37.171 62.2718 37.4193 62.6905 37.6494C63.497 38.0927 64.3891 38.4508 65.3959 38.4963C65.4648 37.6733 65.5 36.8408 65.5 36C65.5 35.4965 65.4874 34.996 65.4625 34.4987C65.4278 34.496 65.3929 34.4897 65.3582 34.4795C63.2082 33.8435 61.3665 32.7724 59.8647 31.7883C59.414 31.493 58.9804 31.1962 58.5821 30.9236L58.5817 30.9233L58.5814 30.9231L58.5814 30.9231L58.581 30.9228L58.5806 30.9225L58.5782 30.9209C58.3242 30.747 58.0845 30.583 57.864 30.4355C57.2753 30.0417 56.8053 29.7535 56.4312 29.5993L56.4266 29.5974C56.0957 29.4571 55.558 29.4836 54.7994 29.6818C54.1766 29.8446 53.4962 30.0959 52.7919 30.3561L52.7917 30.3562L52.7916 30.3563C52.6629 30.4038 52.5334 30.4516 52.4033 30.4993C51.5839 30.7994 50.7317 31.0955 49.9944 31.2001C49.2758 31.302 48.4726 31.2477 47.9803 30.5992C47.1509 29.5066 47.5342 28.2506 48.0818 27.2243C48.3633 26.6967 48.7157 26.1766 49.049 25.6978C49.1051 25.6171 49.1605 25.5378 49.215 25.4599L49.2151 25.4598L49.2152 25.4597C49.4909 25.0653 49.7422 24.7059 49.9403 24.374C50.2765 23.8106 50.8102 23.5138 51.3801 23.3496C51.9395 23.1885 52.5848 23.1407 53.2109 23.1096C53.346 23.1029 53.4805 23.097 53.6144 23.0911L53.6151 23.091C54.1212 23.0687 54.6183 23.0468 55.1048 22.9853C55.7157 22.9081 56.2632 22.7729 56.7205 22.523L56.7219 22.5222C56.9349 22.4067 57.1396 22.1922 57.3319 21.8507C57.524 21.5096 57.6872 21.0708 57.8303 20.5503C58.0805 19.64 58.2503 18.5548 58.4264 17.4295C58.4525 17.2626 58.4787 17.0949 58.5054 16.9266C56.2378 14.2537 53.5025 11.9899 50.426 10.2619C50.4199 10.2717 50.4134 10.2814 50.4066 10.291C48.8793 12.4252 47.2088 14.3158 45.3921 16.2071L45.3844 16.215L45.3844 16.2149C43.9045 17.6891 42.2246 18.9525 40.6202 19.717C39.0416 20.469 37.4141 20.7937 36.1294 20.174C35.0825 19.6823 34.6758 18.8698 34.3165 17.7874C34.2184 17.4921 34.1229 17.1747 34.019 16.8292C33.7406 15.9041 33.4019 14.7782 32.7928 13.3393C31.683 11.2083 30.3081 9.21688 28.6968 7.41098ZM59.3534 17.9735C59.1972 18.9641 59.0298 19.9595 58.7945 20.8153C58.6405 21.3758 58.4512 21.901 58.2033 22.3413C57.9557 22.781 57.6332 23.1653 57.1994 23.4008C56.5867 23.7356 55.8999 23.8928 55.2302 23.9774C54.6989 24.0445 54.1488 24.0687 53.6383 24.0911H53.6382H53.6382C53.5094 24.0967 53.3832 24.1023 53.2604 24.1084C52.6308 24.1396 52.092 24.1852 51.6568 24.3106C51.2321 24.4329 50.9607 24.6155 50.799 24.8864C50.5806 25.2525 50.3039 25.648 50.0284 26.0418C49.9754 26.1177 49.9223 26.1935 49.8697 26.269C49.5372 26.7468 49.2151 27.2244 48.964 27.695C48.4464 28.6653 48.3319 29.4084 48.7768 29.9945C48.9216 30.1853 49.2185 30.3001 49.854 30.21C50.4706 30.1225 51.2262 29.8654 52.0594 29.5603C52.183 29.515 52.3082 29.4687 52.4344 29.422C53.1364 29.1625 53.8716 28.8907 54.5466 28.7143C55.3202 28.5122 56.1504 28.3951 56.8147 28.6758C57.2913 28.8726 57.8357 29.2135 58.42 29.6043C58.6619 29.7661 58.909 29.9353 59.1659 30.1113L59.1662 30.1115C59.5538 30.3769 59.9638 30.6577 60.4128 30.9519C61.8226 31.8758 63.4847 32.8411 65.3908 33.4437C64.8931 27.6454 62.7182 22.3262 59.3534 17.9735ZM65.2954 39.4925C64.0992 39.427 63.0711 38.9997 62.2088 38.5258C61.7605 38.2794 61.3492 38.0158 60.9846 37.7821L60.9845 37.7821L60.9721 37.7741C60.5965 37.5334 60.282 37.3327 60.0018 37.1905L59.9956 37.1874L59.9957 37.1874C59.5669 36.9621 59.0606 36.5928 58.5535 36.2229L58.5534 36.2228L58.4602 36.1549C57.9047 35.75 57.3298 35.3361 56.762 35.019C56.1872 34.6979 55.6762 34.5095 55.2483 34.5003C54.8611 34.4921 54.5109 34.6278 54.195 35.0604C53.6996 35.7388 52.8996 36.1849 52.077 36.5391C51.6585 36.7192 51.2139 36.8836 50.7734 37.0433L50.5601 37.1204L50.5599 37.1205L50.5599 37.1205L50.5598 37.1205L50.5598 37.1205C50.1881 37.2548 49.8214 37.3873 49.4631 37.5289C48.6034 37.8685 47.8571 38.2365 47.3269 38.724C46.817 39.1928 46.5033 39.7742 46.5033 40.5942C46.5033 40.908 46.5025 41.2084 46.5016 41.4958C46.4973 43.0225 46.494 44.1805 46.6253 45.0277C46.7024 45.5248 46.8185 45.8542 46.9666 46.0675C47.1006 46.2604 47.2762 46.382 47.5538 46.4371C47.9072 46.5072 48.4875 46.5354 49.2239 46.571C49.9375 46.6055 50.7644 46.6464 51.5448 46.7511C52.3164 46.8547 53.0962 47.0266 53.6954 47.3505C54.3135 47.6847 54.8029 48.2229 54.8029 49.0354C54.8029 49.5084 54.753 50.2063 54.6936 51.0107L54.6815 51.1744C54.6241 51.9493 54.5589 52.8304 54.5145 53.75C54.4295 55.5073 54.4236 57.3589 54.678 58.835C60.4361 54.1195 64.3782 47.2691 65.2954 39.4925ZM24.1286 63.014C24.0062 62.8793 23.9093 62.7234 23.8324 62.5665C23.6615 62.2173 23.548 61.7813 23.4695 61.3136C23.3118 60.3746 23.2758 59.1849 23.2838 58.0104C23.2897 57.1501 23.3197 56.2776 23.3464 55.5001L23.3464 55.5L23.3464 55.4991C23.3563 55.2133 23.3656 54.9402 23.3732 54.6853C23.3874 54.2069 23.3953 53.795 23.3891 53.4731C23.386 53.3121 23.3795 53.1804 23.3696 53.0781C23.3646 53.0272 23.3592 52.9872 23.3538 52.9569C23.3512 52.942 23.3488 52.9306 23.3468 52.9225C23.3448 52.9142 23.3436 52.9108 23.3438 52.9114C23.3438 52.9115 23.3438 52.9115 23.3437 52.9112C23.3424 52.9083 23.3315 52.8831 23.2945 52.833C23.2556 52.7804 23.1993 52.7152 23.1225 52.6367C22.968 52.4789 22.7574 52.2942 22.5014 52.0821C22.325 51.9359 22.1252 51.7755 21.9137 51.6057L21.9133 51.6054C21.5326 51.2998 21.114 50.9637 20.7258 50.6256C20.1172 50.0957 19.5124 49.5026 19.1314 48.8916C18.7502 48.28 18.5293 47.5372 18.9241 46.815C19.4076 45.9307 19.5573 44.9055 19.3252 44.0231C19.0977 43.1586 18.4991 42.4044 17.4122 42.0194L17.4004 42.0151C17.3939 42.0126 17.3874 42.0099 17.381 42.0072C14.7563 40.8746 12.4244 39.1293 10.6088 36.903L10.6026 36.8954L10.6027 36.8954C10.3172 36.531 10.0508 36.1548 9.80062 35.8014L9.70523 35.6667C9.4235 35.2695 9.1632 34.9092 8.90126 34.6022C8.36562 33.9746 7.91925 33.6868 7.43617 33.7033L7.41906 33.7036C7.25496 33.7036 7.16595 33.7096 7.07726 33.7157L7.07717 33.7157L7.07712 33.7157C7.04803 33.7177 7.01897 33.7197 6.98729 33.7214C6.87227 33.7278 6.76016 33.7281 6.58726 33.714C6.52944 34.4684 6.5 35.2308 6.5 36C6.5 48.0692 13.7479 58.4456 24.1286 63.014ZM6.68048 32.7183C6.80591 32.7281 6.87019 32.7264 6.93177 32.723C6.95167 32.7219 6.97347 32.7204 6.99784 32.7187L6.9979 32.7187H6.99793C7.08833 32.7125 7.21423 32.7038 7.41091 32.7036C8.37193 32.6746 9.08576 33.278 9.6619 33.9531C9.95674 34.2985 10.2409 34.6935 10.5209 35.0882L10.6169 35.2236L10.6169 35.2237L10.6169 35.2237C10.8677 35.5779 11.1185 35.9321 11.3869 36.2748C13.0954 38.3686 15.29 40.013 17.7624 41.0826C19.1588 41.5828 19.9839 42.5963 20.2923 43.7687C20.5972 44.9278 20.3922 46.2145 19.8015 47.2947C19.6593 47.5549 19.6823 47.8849 19.9801 48.3626C20.2782 48.8408 20.7875 49.3534 21.3825 49.8715C21.7595 50.1998 22.1427 50.5072 22.5102 50.802L22.5104 50.8021L22.5104 50.8022L22.511 50.8026C22.7274 50.9763 22.9384 51.1455 23.1394 51.312C23.4015 51.5292 23.6449 51.7408 23.8371 51.9372C24.015 52.1189 24.2069 52.3437 24.2904 52.589C24.364 52.8051 24.3827 53.1321 24.3889 53.4538C24.3956 53.8022 24.387 54.2351 24.3728 54.715C24.3649 54.9788 24.3553 55.2577 24.3454 55.5474C24.3188 56.3211 24.2896 57.1718 24.2838 58.0173C24.2758 59.182 24.3131 60.2992 24.4557 61.148C24.5273 61.5743 24.6207 61.9024 24.7306 62.1268C24.8435 62.3574 24.9349 62.4025 24.9637 62.411C25.6735 62.6203 26.2934 62.4546 26.8674 61.9702C27.4639 61.4668 28.0045 60.6188 28.4583 59.4981C28.7425 58.7963 29.3722 58.1593 30.081 57.5756C30.6936 57.0713 31.422 56.5628 32.1496 56.0549L32.1496 56.0549C32.2761 55.9665 32.4026 55.8782 32.5285 55.79C33.3895 55.1862 34.2289 54.579 34.9175 53.9447C35.6101 53.3068 36.1086 52.6782 36.3346 52.046C36.5702 51.3873 36.5232 50.9822 36.3853 50.6966C36.2366 50.3884 35.9369 50.1209 35.4687 49.8319C35.2385 49.6898 34.984 49.5521 34.7062 49.4035L34.629 49.3622L34.6289 49.3622C34.3771 49.2277 34.1089 49.0845 33.8427 48.9291C33.2551 48.5861 32.6433 48.165 32.1463 47.5756C31.6614 47.0006 31.4284 46.5081 31.3347 46.0526C31.2604 45.6915 31.2812 45.3635 31.296 45.1303C31.299 45.0822 31.3018 45.0382 31.3034 44.9987C31.3133 44.7629 31.2964 44.6202 31.1886 44.4518C31.0633 44.2559 30.7836 43.9806 30.1348 43.5953C29.0448 42.9481 27.6252 42.649 26.0609 42.3194L26.0578 42.3188L26.0556 42.3183C25.8196 42.2686 25.5803 42.2182 25.3384 42.1657C23.5468 41.7775 21.6348 41.2798 20.2062 40.0292C18.8153 38.8117 17.8535 37.2565 17.3301 35.793C16.8163 34.3563 16.6898 32.9024 17.1222 31.929C17.1937 31.768 17.3018 31.6136 17.4639 31.5034C17.6303 31.3902 17.8148 31.35 17.9897 31.3562C18.307 31.3676 18.6108 31.5321 18.8546 31.6965C19.344 32.0265 19.9166 32.5888 20.4556 33.1182L20.5089 33.1705C21.0885 33.7395 21.6365 34.2729 22.1026 34.5926C22.3381 34.7542 22.5042 34.8263 22.6069 34.8444C22.6651 34.8547 22.669 34.8464 22.6721 34.84L22.6729 34.8383L22.6739 34.8369C22.9065 34.5739 23.149 34.1587 23.3996 33.627C23.647 33.1021 23.8865 32.4988 24.1239 31.8808C24.1793 31.7367 24.2346 31.5915 24.2899 31.4465L24.2908 31.4441L24.2909 31.4437C24.4699 30.9744 24.6481 30.5069 24.8233 30.0846C25.0509 29.5363 25.2898 29.0228 25.5435 28.6538C25.7156 28.4036 25.965 28.2191 26.221 28.0778C26.4804 27.9345 26.7795 27.8176 27.0865 27.7174C27.5437 27.5682 28.067 27.4416 28.5594 27.3225L28.5595 27.3225L28.5595 27.3225C28.7196 27.2837 28.8765 27.2458 29.0268 27.2081C29.6742 27.0458 30.1834 26.8918 30.4853 26.7084C30.6326 26.6189 30.6703 26.5573 30.6772 26.5415C30.6783 26.5389 30.679 26.5371 30.6792 26.5337C30.6793 26.5322 30.6793 26.5303 30.6792 26.5279C30.6786 26.5177 30.6746 26.4882 30.6491 26.4352C30.2942 25.6976 29.5766 24.6799 28.6225 23.7835C27.667 22.8859 26.5163 22.1493 25.3053 21.9063C24.7318 21.7913 24.1616 21.8448 23.578 21.9776C23.1809 22.0679 22.8112 22.1852 22.4307 22.3058L22.4306 22.3058L22.4305 22.3059C22.2311 22.3691 22.0287 22.4333 21.8179 22.495C21.239 22.6645 20.6152 22.8077 19.9993 22.7375C19.3539 22.6639 18.7603 22.3624 18.2393 21.7358C17.7094 21.0985 17.544 20.437 17.6337 19.7767C17.719 19.1489 18.0303 18.5623 18.3611 18.0385C18.5129 17.7982 18.6773 17.5585 18.8357 17.3274L18.8849 17.2557C19.0607 16.9991 19.2281 16.7525 19.3772 16.5072C19.6777 16.013 19.8722 15.5742 19.9085 15.161C19.9493 14.3134 19.3506 13.3953 18.2424 12.4412C11.9319 17.2053 7.59604 24.4462 6.68048 32.7183ZM36 5.5C19.1553 5.5 5.5 19.1553 5.5 36C5.5 52.8447 19.1553 66.5 36 66.5C52.8447 66.5 66.5 52.8447 66.5 36C66.5 19.1553 52.8447 5.5 36 5.5Z" fill="currentColor"/>
</svg>
