<svg role="img" xmlns="http://www.w3.org/2000/svg" width="24" height="24" fill="none" viewBox="0 0 24 24">
  <path fill="currentColor" fill-rule="evenodd" d="M1.5 5a.5.5 0 0 1 .5-.5h20a.5.5 0 0 1 .5.5v12a.5.5 0 0 1-.5.5h-7.5v1H17a.5.5 0 0 1 0 1H7a.5.5 0 0 1 0-1h2.5v-1H2a.5.5 0 0 1-.5-.5V5ZM10 16.5h11.5v-11h-19v11H10Zm.5 1v1h3v-1h-3Z"/>
  <rect width="2" height="2" x="5" y="12.5" stroke="currentColor" rx=".5"/>
  <rect width="2" height="2" x="9" y="12.5" stroke="currentColor" rx=".5"/>
  <rect width="2" height="2" x="13" y="12.5" stroke="currentColor" rx=".5"/>
  <rect width="2" height="2" x="17" y="12.5" stroke="currentColor" rx=".5"/>
</svg>
