<svg width="72" height="72" viewBox="0 0 72 72" fill="none" xmlns="http://www.w3.org/2000/svg">
<path fill-rule="evenodd" clip-rule="evenodd" d="M6.10547 35.7843C6.10547 19.5326 19.2719 6.36621 35.5236 6.36621C51.3788 6.36621 64.2975 18.8981 64.9183 34.6006L67.1464 32.3725C67.3417 32.1772 67.6583 32.1772 67.8536 32.3725C68.0488 32.5677 68.0488 32.8843 67.8536 33.0796L64.7952 36.1379C64.6 36.3331 64.2834 36.3331 64.0881 36.1379L61.3034 33.3531C61.1081 33.1578 61.1081 32.8412 61.3034 32.646C61.4986 32.4507 61.8152 32.4507 62.0105 32.646L63.9154 34.551C63.2701 19.4242 50.8097 7.36621 35.5236 7.36621C19.8242 7.36621 7.10547 20.0849 7.10547 35.7843C7.10547 51.4837 19.8242 64.2024 35.5236 64.2024C45.7242 64.2024 55.1477 58.7332 60.2037 49.8705C60.3405 49.6306 60.6459 49.5471 60.8858 49.684C61.1256 49.8208 61.2091 50.1262 61.0723 50.366C55.8383 59.5408 46.0831 65.2024 35.5236 65.2024C19.2719 65.2024 6.10547 52.036 6.10547 35.7843ZM50.7584 27.1764C51.0345 27.1764 51.2584 27.4003 51.2584 27.6764V41.8803C51.2584 42.1564 51.0345 42.3803 50.7584 42.3803C50.4823 42.3803 50.2584 42.1564 50.2584 41.8803V27.6764C50.2584 27.4003 50.4823 27.1764 50.7584 27.1764ZM42.5199 34.7328V41.8803H41.5199V27.6764H42.5199V33.7328H49.6673V34.7328H42.5199ZM25.6335 27.5005C25.6339 27.28 25.4899 27.0852 25.2789 27.0211C25.0679 26.957 24.8399 27.0387 24.7175 27.2221L17.6907 37.7591C17.5884 37.9125 17.5788 38.1098 17.6658 38.2724C17.7528 38.435 17.9223 38.5365 18.1067 38.5365H24.6135V41.3397C24.6135 41.6159 24.8374 41.8397 25.1135 41.8397C25.3896 41.8397 25.6135 41.6159 25.6135 41.3397V38.5365H27.2956C27.5718 38.5365 27.7956 38.3127 27.7956 38.0365C27.7956 37.7604 27.5718 37.5365 27.2956 37.5365H25.6145L25.6335 27.5005ZM24.6304 29.1552L24.6145 37.5365H19.0411L24.6304 29.1552ZM33.6717 26.6258V26.6259H33.6718H33.672H33.6721H33.6722H33.6723H33.6724H33.6726H33.6727H33.6728H33.6729H33.673H33.6731H33.6733H33.6734H33.6735H33.6736H33.6737H33.6738H33.674H33.6741H33.6742H33.6743H33.6744H33.6745H33.6747H33.6748H33.6749H33.675H33.6751H33.6753H33.6754H33.6755H33.6756H33.6757H33.6758H33.676H33.6761H33.6762H33.6763H33.6764H33.6765H33.6767H33.6768H33.6769H33.677H33.6771H33.6772H33.6774H33.6775H33.6776H33.6777H33.6778H33.6779H33.6781H33.6782H33.6783H33.6784H33.6785H33.6787H33.6788H33.6789H33.679H33.6791H33.6792H33.6794H33.6795H33.6796H33.6797H33.6798H33.6799H33.6801H33.6802H33.6803H33.6804H33.6805H33.6806H33.6808H33.6809H33.681H33.6811H33.6812H33.6814H33.6815H33.6816H33.6817H33.6818H33.6819H33.6821H33.6822H33.6823H33.6824H33.6825H33.6826H33.6828H33.6829H33.683H33.6831H33.6832H33.6833H33.6835H33.6836H33.6837H33.6838H33.6839H33.684H33.6842H33.6843H33.6844H33.6845H33.6846H33.6848H33.6849H33.685H33.6851H33.6852H33.6853H33.6855H33.6856H33.6857H33.6858H33.6859H33.686H33.6862H33.6863H33.6864H33.6865H33.6866H33.6867H33.6869H33.687H33.6871H33.6872H33.6873H33.6875H33.6876H33.6877H33.6878H33.6879H33.688H33.6882H33.6883H33.6884H33.6885H33.6886H33.6887H33.6889H33.689H33.6891H33.6892H33.6893H33.6894H33.6896H33.6897H33.6898H33.6899H33.69H33.6901H33.6903H33.6904H33.6905H33.6906H33.6907H33.6909H33.691H33.6911H33.6912H33.6913H33.6914H33.6916H33.6917H33.6918H33.6919H33.692H33.6921H33.6923H33.6924H33.6925H33.6926H33.6927H33.6928H33.693H33.6931H33.6932H33.6933H33.6934H33.6936H33.6937H33.6938H33.6939H33.694H33.6941H33.6943H33.6944H33.6945H33.6946H33.6947H33.6948H33.695H33.6951H33.6952H33.6953H33.6954H33.6955H33.6957H33.6958H33.6959H33.696H33.6961H33.6962H33.6964H33.6965H33.6966H33.6967H33.6968H33.697H33.6971H33.6972H33.6973H33.6974H33.6975H33.6977H33.6978H33.6979H33.698H33.6981H33.6982H33.6984H33.6985H33.6986H33.6987H33.6988H33.6989H33.6991H33.6992H33.6993H33.6994H33.6995H33.6996H33.6998H33.6999H33.7H33.7001H33.7002H33.7004H33.7005H33.7006H33.7007H33.7008H33.7009H33.7011H33.7012H33.7013H33.7014H33.7015H33.7016H33.7018H33.7019H33.702H33.7021H33.7022H33.7023H33.7025H33.7026H33.7027H33.7028H33.7029H33.7031H33.7032H33.7033H33.7034H33.7035H33.7036H33.7038H33.7039H33.704H33.7041H33.7042H33.7043H33.7045H33.7046H33.7047H33.7048H33.7049H33.705H33.7052H33.7053H33.7054H33.7055H33.7056H33.7057H33.7059H33.706H33.7061H33.7062H33.7063H33.7065H33.7066H33.7067H33.7068H33.7069H33.707H33.7072H33.7073H33.7074H33.7075H33.7076H33.7077H33.7079H33.708H33.7081H33.7082H33.7083H33.7084H33.7086H33.7087H33.7088H33.7089H33.709H33.7092H33.7093H33.7094H33.7095H33.7096H33.7097H33.7099H33.71H33.7101H33.7102H33.7103H33.7104H33.7106H33.7107H33.7108H33.7109H33.711H33.7111H33.7113H33.7114H33.7115H33.7116H33.7117H33.7118H33.712H33.7121H33.7122H33.7123H33.7124H33.7126H33.7127H33.7128H33.7129H33.713H33.7131H33.7133H33.7134H33.7135H33.7136H33.7137H33.7138H33.714H33.7141H33.7142H33.7143H33.7144H33.7145H33.7147H33.7148H33.7149H33.715H33.7151H33.7153H33.7154H33.7155H33.7156H33.7157H33.7158H33.716H33.7161H33.7162H33.7163H33.7164H33.7165H33.7167H33.7168H33.7169H33.717H33.7171H33.7172H33.7174H33.7175H33.7176H33.7177H33.7178H33.7179H33.7181H33.7182H33.7183H33.7184H33.7185H33.7187H33.7188H33.7189H33.719H33.7191H33.7192H33.7194H33.7195H33.7196H33.7197H33.7198H33.7199H33.7201H33.7202H33.7203H33.7204H33.7205H33.7206H33.7208H33.7209H33.721H33.7211H33.7212H33.7214H33.7215H33.7216H33.7217H33.7218H33.7219H33.7221H33.7222H33.7223H33.7224H33.7225H33.7226H33.7228H33.7229H33.723H33.7231H33.7232H33.7233H33.7235H33.7236H33.7237H33.7238H33.7239H33.7241H33.7242H33.7243H33.7244H33.7245H33.7246H33.7248H33.7249H33.725H33.7251H33.7252H33.7253H33.7255H33.7256H33.7257H33.7258H33.7259H33.726H33.7262H33.7263H33.7264H33.7265H33.7266H33.7267H33.7269H33.727H33.7271H33.7272H33.7273H33.7275H33.7276H33.7277H33.7278H33.7279H33.728H33.7282H33.7283H33.7284H33.7285H33.7286H33.7287H33.7289H33.729H33.7291H33.7292H33.7293H33.7294H33.7296H33.7297H33.7298H33.7299H33.73H33.7302H33.7303H33.7304C35.7257 26.6151 37.3517 28.2164 37.3648 30.2131C37.3861 31.5001 36.7316 32.6423 35.731 33.3059C37.3604 34.0409 38.4988 35.6767 38.5159 37.5797C38.5595 40.2079 36.4573 42.3755 33.8304 42.4202C31.2013 42.465 29.0325 40.3624 28.9878 37.7347C28.9547 35.7922 30.0938 34.1011 31.7508 33.3322C30.763 32.6933 30.1007 31.588 30.0788 30.3277C30.044 28.3181 31.6571 26.6608 33.6631 26.626L33.6717 26.6258ZM34.0092 32.8965C33.9266 32.8928 33.8434 32.8913 33.7597 32.892H33.7596H33.7594H33.7592H33.7591H33.7589H33.7587H33.7585H33.7584H33.7582H33.758H33.7579H33.7577H33.7575H33.7573H33.7572H33.757H33.7568H33.7567H33.7565H33.7563H33.7562H33.756H33.7558H33.7557H33.7555H33.7553H33.7551H33.755H33.7548H33.7546H33.7545H33.7543H33.7541H33.754H33.7538H33.7536H33.7535H33.7533H33.7531H33.753H33.7528H33.7527H33.7525H33.7523H33.7522H33.752H33.7518H33.7517H33.7515H33.7513H33.7512H33.751H33.7509H33.7507H33.7505H33.7504H33.7502H33.75H33.7499H33.7497H33.7496H33.7494H33.7492H33.7491H33.7489H33.7487H33.7486H33.7484H33.7483H33.7481H33.7479H33.7478H33.7476H33.7475H33.7473H33.7471H33.747H33.7468H33.7467H33.7465H33.7464H33.7462H33.746H33.7459H33.7457H33.7456H33.7454H33.7452H33.7451H33.7449H33.7448H33.7446H33.7445H33.7443H33.7441H33.744H33.7438H33.7437H33.7435H33.7434H33.7432H33.7431H33.7429H33.7427H33.7426H33.7424H33.7423H33.7421H33.742H33.7418H33.7417H33.7415H33.7413H33.7412H33.741H33.7409H33.7407H33.7406H33.7404H33.7403H33.7401H33.74H33.7398H33.7397H33.7395H33.7394H33.7392H33.739H33.7389H33.7387H33.7386H33.7384H33.7383H33.7381H33.738H33.7378H33.7377H33.7375H33.7374H33.7372H33.7371H33.7369H33.7368H33.7366H33.7365H33.7363H33.7362H33.736H33.7359H33.7357H33.7356H33.7354H33.7353H33.7351H33.735H33.7348H33.7347H33.7345H33.7344H33.7342H33.7341H33.7339H33.7338H33.7336H33.7335H33.7333H33.7332H33.733H33.7329H33.7327H33.7326H33.7324H33.7323H33.7321H33.732H33.7318H33.7317H33.7315H33.7314H33.7312H33.7311H33.7309H33.7308H33.7306H33.7305H33.7303H33.7302H33.73H33.7299H33.7297H33.7296H33.7295H33.7293H33.7292H33.729H33.7289H33.7287H33.7286H33.7284H33.7283H33.7281H33.728H33.7278H33.7277H33.7275H33.7274H33.7272H33.7271H33.7269H33.7268H33.7267H33.7265H33.7264H33.7262H33.7261H33.7259H33.7258H33.7256H33.7255H33.7253H33.7252H33.725H33.7249H33.7247H33.7246H33.7244H33.7243H33.7242H33.724H33.7239H33.7237H33.7236H33.7234H33.7233H33.7231H33.723H33.7228H33.7227H33.7225H33.7224H33.7222H33.7221H33.722H33.7218H33.7217H33.7215H33.7214H33.7212H33.7211H33.7209H33.7208H33.7206H33.7205H33.7203H33.7202H33.72H33.7199H33.7198H33.7196H33.7195H33.7193H33.7192H33.719H33.7189H33.7187H33.7186H33.7184H33.7183H33.7181H33.718H33.7178H33.7177H33.7176H33.7174H33.7173H33.7171H33.717H33.7168H33.7167H33.7165H33.7164H33.7162H33.7161H33.7159H33.7158H33.7156H33.7155H33.7153H33.7152H33.715H33.7149H33.7148H33.7146H33.7145H33.7143H33.7142H33.714H33.7139H33.7137H33.7136H33.7134H33.7133H33.7131H33.713H33.7128H33.7127H33.7125H33.7124H33.7122H33.7121H33.7119H33.7118H33.7116H33.7115H33.7113H33.7112H33.711H33.7109H33.7107H33.7106H33.7104H33.7103H33.7101H33.71H33.7099H33.7097H33.7096H33.7094H33.7093H33.7091H33.709H33.7088H33.7087H33.7085H33.7084H33.7082H33.708H33.7079H33.7077H33.7076H33.7074H33.7073H33.7071H33.707H33.7068H33.7067H33.7065H33.7064H33.7062H33.7061H33.7059H33.7058H33.7056H33.7055H33.7053H33.7052H33.705H33.7049H33.7047H33.7046H33.7044H33.7043H33.7041H33.704H33.7038H33.7036H33.7035H33.7033H33.7032H33.703H33.7029H33.7027H33.7026H33.7024H33.7023H33.7021H33.702H33.7018H33.7016H33.7015H33.7013H33.7012H33.701H33.7009H33.7007H33.7006H33.7004H33.7002H33.7001H33.6999H33.6998H33.6996H33.6995H33.6993H33.6992H33.699H33.6988H33.6987H33.6985H33.6984H33.6982H33.6981H33.6979H33.6977H33.6976H33.6974H33.6973H33.6971H33.6969H33.6968H33.6966H33.6965H33.6963H33.6961H33.696H33.6958H33.6957H33.6955H33.6953H33.6952H33.695H33.6949H33.6947H33.6945H33.6944H33.6942H33.6941H33.6939H33.6937H33.6936H33.6934H33.6932H33.6931H33.6929H33.6928H33.6926H33.6924H33.6923H33.6921H33.6919H33.6918H33.6916H33.6915H33.6913H33.6911H33.691H33.6908H33.6906H33.6905H33.6903H33.6901H33.69H33.6898H33.6896H33.6895H33.6893H33.6891H33.689H33.6888H33.6886H33.6885H33.6883H33.6881H33.688H33.6878H33.6876H33.6875H33.6873H33.6871H33.6869H33.6868H33.6866H33.6864H33.6863H33.6861H33.6859H33.6858H33.6856H33.6854H33.6852H33.6851H33.6849H33.6847H33.6846H33.6844H33.6842H33.684H33.6839H33.6837H33.6835H33.6833H33.6832H33.683H33.6828H33.6826H33.6825H33.6823H33.6821H33.6819H33.6818V32.8919L33.6733 32.8921C33.6027 32.8933 33.5326 32.896 33.4629 32.9002C32.147 32.7727 31.1022 31.6661 31.0786 30.3103C31.0535 28.858 32.2208 27.6534 33.6763 27.6259H33.6763H33.6764H33.6765H33.6767H33.6768H33.6769H33.677H33.6771H33.6772H33.6774H33.6775H33.6776H33.6777H33.6778H33.6779H33.6781H33.6782H33.6783H33.6784H33.6785H33.6787H33.6788H33.6789H33.679H33.6791H33.6792H33.6794H33.6795H33.6796H33.6797H33.6798H33.6799H33.6801H33.6802H33.6803H33.6804H33.6805H33.6806H33.6808H33.6809H33.681H33.6811H33.6812H33.6814H33.6815H33.6816H33.6817H33.6818H33.6819H33.6821H33.6822H33.6823H33.6824H33.6825H33.6826H33.6828H33.6829H33.683H33.6831H33.6832H33.6833H33.6835H33.6836H33.6837H33.6838H33.6839H33.684H33.6842H33.6843H33.6844H33.6845H33.6846H33.6848H33.6849H33.685H33.6851H33.6852H33.6853H33.6855H33.6856H33.6857H33.6858H33.6859H33.686H33.6862H33.6863H33.6864H33.6865H33.6866H33.6867H33.6869H33.687H33.6871H33.6872H33.6873H33.6875H33.6876H33.6877H33.6878H33.6879H33.688H33.6882H33.6883H33.6884H33.6885H33.6886H33.6887H33.6889H33.689H33.6891H33.6892H33.6893H33.6894H33.6896H33.6897H33.6898H33.6899H33.69H33.6901H33.6903H33.6904H33.6905H33.6906H33.6907H33.6909H33.691H33.6911H33.6912H33.6913H33.6914H33.6916H33.6917H33.6918H33.6919H33.692H33.6921H33.6923H33.6924H33.6925H33.6926H33.6927H33.6928H33.693H33.6931H33.6932H33.6933H33.6934H33.6936H33.6937H33.6938H33.6939H33.694H33.6941H33.6943H33.6944H33.6945H33.6946H33.6947H33.6948H33.695H33.6951H33.6952H33.6953H33.6954H33.6955H33.6957H33.6958H33.6959H33.696H33.6961H33.6962H33.6964H33.6965H33.6966H33.6967H33.6968H33.697H33.6971H33.6972H33.6973H33.6974H33.6975H33.6977H33.6978H33.6979H33.698H33.6981H33.6982H33.6984H33.6985H33.6986H33.6987H33.6988H33.6989H33.6991H33.6992H33.6993H33.6994H33.6995H33.6996H33.6998H33.6999H33.7H33.7001H33.7002H33.7004H33.7005H33.7006H33.7007H33.7008H33.7009H33.7011H33.7012H33.7013H33.7014H33.7015H33.7016H33.7018H33.7019H33.702H33.7021H33.7022H33.7023H33.7025H33.7026H33.7027H33.7028H33.7029H33.7031H33.7032H33.7033H33.7034H33.7035H33.7036H33.7038H33.7039H33.704H33.7041H33.7042H33.7043H33.7045H33.7046H33.7047H33.7048H33.7049H33.705H33.7052H33.7053H33.7054H33.7055H33.7056H33.7057H33.7059H33.706H33.7061H33.7062H33.7063H33.7065H33.7066H33.7067H33.7068H33.7069H33.707H33.7072H33.7073H33.7074H33.7075H33.7076H33.7077H33.7079H33.708H33.7081H33.7082H33.7083H33.7084H33.7086H33.7087H33.7088H33.7089H33.709H33.7092H33.7093H33.7094H33.7095H33.7096H33.7097H33.7099H33.71H33.7101H33.7102H33.7103H33.7104H33.7106H33.7107H33.7108H33.7109H33.711H33.7111H33.7113H33.7114H33.7115H33.7116H33.7117H33.7118H33.712H33.7121H33.7122H33.7123H33.7124H33.7126H33.7127H33.7128H33.7129H33.713H33.7131H33.7133H33.7134H33.7135H33.7136H33.7137H33.7138H33.714H33.7141H33.7142H33.7143H33.7144H33.7145H33.7147H33.7148H33.7149H33.715H33.7151H33.7153H33.7154H33.7155H33.7156H33.7157H33.7158H33.716H33.7161H33.7162H33.7163H33.7164H33.7165H33.7167H33.7168H33.7169H33.717H33.7171H33.7172H33.7174H33.7175H33.7176H33.7177H33.7178H33.7179H33.7181H33.7182H33.7183H33.7184H33.7185H33.7187H33.7188H33.7189H33.719H33.7191H33.7192H33.7194H33.7195H33.7196H33.7197H33.7198H33.7199H33.7201H33.7202H33.7203H33.7204H33.7205H33.7206H33.7208H33.7209H33.721H33.7211H33.7212H33.7214H33.7215H33.7216H33.7217H33.7218H33.7219H33.7221H33.7222H33.7223H33.7224H33.7225H33.7226H33.7228H33.7229H33.723H33.7231H33.7232H33.7233H33.7235H33.7236H33.7237H33.7238H33.7239H33.7241H33.7242H33.7243H33.7244H33.7245H33.7246H33.7248H33.7249H33.725H33.7251H33.7252H33.7253H33.7255H33.7256H33.7257H33.7258H33.7259H33.726H33.7262H33.7263H33.7264H33.7265H33.7266H33.7267H33.7269H33.727H33.7271H33.7272H33.7273H33.7275H33.7276H33.7277H33.7278H33.7279H33.728H33.7282H33.7283H33.7284H33.7285H33.7286H33.7287H33.7289H33.729H33.7291H33.7292H33.7293H33.7294H33.7296H33.7297H33.7298H33.7299H33.73H33.7302H33.7303H33.7304H33.7305H33.7306H33.7307H33.7309H33.731H33.7311H33.7312H33.7313H33.7314H33.7316H33.7317L33.7318 27.6259L33.7347 27.6259C35.181 27.6175 36.3564 28.7771 36.3648 30.2218H36.3648L36.3649 30.2276C36.3887 31.5985 35.3499 32.7487 34.0092 32.8965ZM33.4554 33.9032C31.4895 34.0582 29.9536 35.7212 29.9876 37.7177C30.023 39.7947 31.738 41.4557 33.8134 41.4204C35.8903 41.385 37.5514 39.67 37.5161 37.5946L37.516 37.5904L37.516 37.5904C37.4991 35.6216 35.9628 34.019 34.0313 33.8991C33.9485 33.9062 33.8648 33.9105 33.7805 33.9119C33.671 33.9138 33.5626 33.9109 33.4554 33.9032Z" fill="currentColor"/>
</svg>
