<svg role="img" xmlns="http://www.w3.org/2000/svg" width="72" height="72" fill="none" viewBox="0 0 72 72">
  <path fill="currentColor" fill-rule="evenodd" d="M38.1314 37.8462C35.8559 35.475 32.6563 34 29.1113 34c-3.6616 0-6.9549 1.5737-9.2417 4.0832a.5.5 0 0 1-.7392-.6735C21.5988 34.701 25.1568 33 29.1113 33c3.8285 0 7.2854 1.5943 9.7416 4.1538a.5.5 0 0 1-.7215.6924ZM29.1112 38c2.443 0 4.6447 1.03 6.1958 2.6808a.5.5 0 0 0 .7288-.6848C34.3035 38.1525 31.8416 37 29.1112 37c-2.8428 0-5.3944 1.2493-7.1346 3.2272a.5.5 0 1 0 .7507.6605C24.2858 39.1165 26.5678 38 29.1112 38Zm3.35 5.4952C31.6366 42.5766 30.4416 42 29.1113 42c-1.4252 0-2.6955.662-3.5209 1.6972a.5.5 0 0 1-.7819-.6233C25.8154 41.8109 27.3688 41 29.1113 41c1.626 0 3.0878.7063 4.094 1.8272a.5.5 0 0 1-.7441.668ZM29.6113 46.5a.5.5 0 1 0-1 0 .5.5 0 0 0 1 0Zm-.5-1.5c.8284 0 1.5.6716 1.5 1.5s-.6716 1.5-1.5 1.5-1.5-.6716-1.5-1.5.6716-1.5 1.5-1.5Z"/>
  <path stroke="currentColor" stroke-linecap="round" stroke-linejoin="round" d="M13 19v49h33V19m15 20H46v29h15V39Z"/>
  <path stroke="currentColor" stroke-linecap="round" stroke-linejoin="round" d="M25 63h9v5h-9zm25 0h7v5h-7zM25.0807 19H11v-5h37v5H33.8437"/>
  <path stroke="currentColor" stroke-linecap="round" stroke-linejoin="round" d="M17 14.0277V9h10.6859v5.0277M22.4414 8.179V4"/>
</svg>
