<svg role="img" width="72" height="72" viewBox="0 0 72 72" fill="none" xmlns="http://www.w3.org/2000/svg">
<path fill-rule="evenodd" clip-rule="evenodd" d="M6.5 36C6.5 28.0261 13.0261 21.5 21 21.5H30.375C30.6511 21.5 30.875 21.2761 30.875 21C30.875 20.7239 30.6511 20.5 30.375 20.5H21C12.4739 20.5 5.5 27.4739 5.5 36C5.5 44.5261 12.4739 51.5 21 51.5H30.375C30.6511 51.5 30.875 51.2761 30.875 51C30.875 50.7239 30.6511 50.5 30.375 50.5H21C13.0261 50.5 6.5 43.9739 6.5 36ZM41.625 20.5C41.3489 20.5 41.125 20.7239 41.125 21C41.125 21.2761 41.3489 21.5 41.625 21.5H51C58.9739 21.5 65.5 28.0261 65.5 36C65.5 43.9739 58.9739 50.5 51 50.5H41.625C41.3489 50.5 41.125 50.7239 41.125 51C41.125 51.2761 41.3489 51.5 41.625 51.5H51C59.5261 51.5 66.5 44.5261 66.5 36C66.5 27.4739 59.5261 20.5 51 20.5H41.625ZM21 35.5C20.7239 35.5 20.5 35.7239 20.5 36C20.5 36.2761 20.7239 36.5 21 36.5H51C51.2761 36.5 51.5 36.2761 51.5 36C51.5 35.7239 51.2761 35.5 51 35.5H21Z" fill="currentColor"/>
</svg>
