<svg role="img" xmlns="http://www.w3.org/2000/svg" width="24" height="24" fill="none" viewBox="0 0 24 24">
  <path fill="currentColor" d="M19.9842 2H4.017A2.0205 2.0205 0 0 0 2 4.024v16.1893a2.0194 2.0194 0 0 0 2.017 2.0263h15.9672a2.02 2.02 0 0 0 1.4268-.5939 2.0176 2.0176 0 0 0 .4366-.6559 2.0173 2.0173 0 0 0 .1524-.773V4.024A2.0206 2.0206 0 0 0 19.9842 2ZM8.4174 18.0126H5.7269V9.3561h2.6905v8.6565ZM7.0553 8.2941c-.8503 0-1.3959-.6026-1.3959-1.3459-.0035-.7607.563-1.3423 1.433-1.3423.8702 0 1.396.5816 1.4157 1.3447-.0023.741-.5502 1.3435-1.4528 1.3435Zm11.1864 9.7185h-2.6905v-4.7982c0-1.1144-.3896-1.8763-1.3632-1.8763-.7433 0-1.1853.5142-1.3807 1.0097a1.931 1.931 0 0 0-.0884.6723v4.9925h-2.6905v-5.8928c0-1.0794-.036-1.9774-.071-2.7614h2.3369l.1233 1.2039h.0535c.349-.5665 1.2214-1.3959 2.6754-1.3959 1.7703 0 3.0975 1.1865 3.0975 3.7351l-.0023 5.1111Z"/>
</svg>
