<svg role="img" xmlns="http://www.w3.org/2000/svg" width="72" height="72" fill="none" viewBox="0 0 72 72">
  <path fill="currentColor" d="M59.9525 6H12.051A6.0615 6.0615 0 0 0 6 12.0719V60.64a6.0573 6.0573 0 0 0 1.7645 4.2946 6.058 6.058 0 0 0 4.2865 1.7842h47.9015a6.0582 6.0582 0 0 0 5.5904-3.7493A6.0587 6.0587 0 0 0 66 60.6504V12.0719A6.0614 6.0614 0 0 0 59.9525 6ZM25.2521 54.0377h-8.0714V28.0681h8.0714v25.9696Zm-4.0863-29.1555c-2.5509 0-4.1875-1.8076-4.1875-4.0375-.0105-2.2822 1.6889-4.027 4.2992-4.027 2.6102 0 4.1875 1.7448 4.2468 4.034-.007 2.2229-1.6506 4.0305-4.3585 4.0305Zm33.5593 29.1555h-8.0714V39.6431c0-3.343-1.169-5.6287-4.0898-5.6287-2.2298 0-3.5559 1.5424-4.1421 3.029a5.796 5.796 0 0 0-.2652 2.0169v14.9774h-8.0714V36.3594c0-3.2383-.1082-5.9323-.2129-8.2843h7.0106l.3699 3.6117h.1605c1.0469-1.6994 3.6641-4.1875 8.0261-4.1875 5.3111 0 9.2927 3.5594 9.2927 11.2051l-.007 15.3333Z"/>
</svg>
