<svg role="img" width="24" height="24" viewBox="0 0 24 24" fill="none" xmlns="http://www.w3.org/2000/svg">
<path fill-rule="evenodd" clip-rule="evenodd" d="M3 2.5C2.72386 2.5 2.5 2.72386 2.5 3V21C2.5 21.2761 2.72386 21.5 3 21.5H12C12.2761 21.5 12.5 21.2761 12.5 21V16.95C12.5 16.6739 12.2761 16.45 12 16.45C11.7239 16.45 11.5 16.6739 11.5 16.95V20.5H3.5V3.5H11.5V7.05C11.5 7.32614 11.7239 7.55 12 7.55C12.2761 7.55 12.5 7.32614 12.5 7.05V3C12.5 2.72386 12.2761 2.5 12 2.5H3ZM20.8536 12.3799C20.9473 12.2861 21 12.1589 21 12.0263C21 11.8937 20.9473 11.7665 20.8536 11.6728L16.8272 7.64645C16.632 7.45118 16.3154 7.45118 16.1201 7.64645C15.9249 7.84171 15.9249 8.15829 16.1201 8.35355L19.2929 11.5263H10C9.72386 11.5263 9.5 11.7502 9.5 12.0263C9.5 12.3024 9.72386 12.5263 10 12.5263H19.2929L16.1201 15.6991C15.9249 15.8943 15.9249 16.2109 16.1201 16.4062C16.3154 16.6014 16.632 16.6014 16.8272 16.4062L20.8536 12.3799Z" fill="currentColor"/>
</svg>
