<svg role="img" xmlns="http://www.w3.org/2000/svg" width="72" height="72" fill="none" viewBox="0 0 72 72">
  <path stroke="currentColor" stroke-linecap="round" stroke-linejoin="round" d="M34.8942 10h23.4657v45.36h-10.206"/>
  <path stroke="currentColor" stroke-linecap="round" stroke-linejoin="round" d="M23.2062 55.36H13.0001V10h21.8944"/>
  <path stroke="currentColor" d="M32.5459 62.164v-5.6698m0-40.8243v19.3418m5.67 27.1523V36.0821l8.644-8.418m-8.644 19.7581 8.144-8.2581m-13.814-4.1524 6.804-5.7336v-9.072m-6.804 14.8056v11.2765m0 0-7.938-7.938V24.7421m7.938 21.5461v10.206m0 0-8.186-7.3301"/>
  <circle cx="47.2878" cy="38.3498" r="1.134" stroke="currentColor"/>
  <circle cx="24.6081" cy="23.6086" r="1.134" stroke="currentColor"/>
  <circle cx="23.4738" cy="48.5559" r="1.134" stroke="currentColor"/>
  <circle cx="47.2878" cy="27.009" r="1.134" stroke="currentColor"/>
  <circle cx="39.3498" cy="19.0725" r="1.134" stroke="currentColor"/>
  <circle cx="32.5461" cy="14.5354" r="1.134" stroke="currentColor"/>
</svg>
