<svg role="img" width="24" height="24" viewBox="0 0 24 24" fill="none" xmlns="http://www.w3.org/2000/svg">
<path fill-rule="evenodd" clip-rule="evenodd" d="M8 1.5C8.27614 1.5 8.5 1.72386 8.5 2V3.5H9.99902V2C9.99902 1.72386 10.2229 1.5 10.499 1.5C10.7752 1.5 10.999 1.72386 10.999 2V3.5H12.499V2C12.499 1.72386 12.7229 1.5 12.999 1.5C13.2752 1.5 13.499 1.72386 13.499 2V3.5H14.998V2C14.998 1.72386 15.2219 1.5 15.498 1.5C15.7742 1.5 15.998 1.72386 15.998 2V3.5H20C20.2761 3.5 20.5 3.72386 20.5 4V7.5H22C22.2761 7.5 22.5 7.72386 22.5 8C22.5 8.27614 22.2761 8.5 22 8.5H20.5V10.5H22C22.2761 10.5 22.5 10.7239 22.5 11C22.5 11.2761 22.2761 11.5 22 11.5H20.5V13.5H22C22.2761 13.5 22.5 13.7239 22.5 14C22.5 14.2761 22.2761 14.5 22 14.5H20.5V16.5H22C22.2761 16.5 22.5 16.7239 22.5 17C22.5 17.2761 22.2761 17.5 22 17.5H20.5V20C20.5 20.2761 20.2761 20.5 20 20.5H15.998V22.1228C15.998 22.3989 15.7742 22.6228 15.498 22.6228C15.2219 22.6228 14.998 22.3989 14.998 22.1228V20.5H13.499V22.1228C13.499 22.3989 13.2752 22.6228 12.999 22.6228C12.7229 22.6228 12.499 22.3989 12.499 22.1228V20.5H10.999V22.1228C10.999 22.3989 10.7752 22.6228 10.499 22.6228C10.2229 22.6228 9.99902 22.3989 9.99902 22.1228V20.5H8.5V22.1228C8.5 22.3989 8.27614 22.6228 8 22.6228C7.72386 22.6228 7.5 22.3989 7.5 22.1228V20.5H4C3.72386 20.5 3.5 20.2761 3.5 20V17.5H2C1.72386 17.5 1.5 17.2761 1.5 17C1.5 16.7239 1.72386 16.5 2 16.5H3.5V14.5H2C1.72386 14.5 1.5 14.2761 1.5 14C1.5 13.7239 1.72386 13.5 2 13.5H3.5V11.5H2C1.72386 11.5 1.5 11.2761 1.5 11C1.5 10.7239 1.72386 10.5 2 10.5H3.5V8.5H2C1.72386 8.5 1.5 8.27614 1.5 8C1.5 7.72386 1.72386 7.5 2 7.5H3.5V4C3.5 3.72386 3.72386 3.5 4 3.5H7.5V2C7.5 1.72386 7.72386 1.5 8 1.5ZM4.5 8V11V14V17V19.5H19.5V17V14V11V8V4.5H15.498H12.999H10.499H8H4.5V8ZM13.5 18C13.5 17.7239 13.7239 17.5 14 17.5H16.4991C16.7752 17.5 16.9991 17.7239 16.9991 18C16.9991 18.2761 16.7752 18.5 16.4991 18.5H14C13.7239 18.5 13.5 18.2761 13.5 18ZM16 5.5C15.7239 5.5 15.5 5.72386 15.5 6C15.5 6.27614 15.7239 6.5 16 6.5H17.5V8C17.5 8.27614 17.7239 8.5 18 8.5C18.2761 8.5 18.5 8.27614 18.5 8V6C18.5 5.72386 18.2761 5.5 18 5.5H16ZM6 10.5C6.27614 10.5 6.5 10.7239 6.5 11V13.4991C6.5 13.7752 6.27614 13.9991 6 13.9991C5.72386 13.9991 5.5 13.7752 5.5 13.4991V11C5.5 10.7239 5.72386 10.5 6 10.5Z" fill="currentColor"/>
</svg>
