<svg role="img" width="72" height="72" viewBox="0 0 72 72" fill="none" xmlns="http://www.w3.org/2000/svg">
<path d="M24.6239 66.6147V60.3687" stroke="currentColor" stroke-linecap="round" stroke-linejoin="round"/>
<path d="M32.1212 66.6147V60.3687" stroke="currentColor" stroke-linecap="round" stroke-linejoin="round"/>
<path d="M39.6185 66.6147V60.3687" stroke="currentColor" stroke-linecap="round" stroke-linejoin="round"/>
<path d="M47.1158 66.6147V60.3687" stroke="currentColor" stroke-linecap="round" stroke-linejoin="round"/>
<path d="M65.854 47.8766H59.6079" stroke="currentColor" stroke-linecap="round" stroke-linejoin="round"/>
<path d="M65.854 40.3793H59.6079" stroke="currentColor" stroke-linecap="round" stroke-linejoin="round"/>
<path d="M65.854 31.6307H59.6079" stroke="currentColor" stroke-linecap="round" stroke-linejoin="round"/>
<path d="M65.854 24.1334H59.6079" stroke="currentColor" stroke-linecap="round" stroke-linejoin="round"/>
<path d="M12.1218 47.8766H5.87573" stroke="currentColor" stroke-linecap="round" stroke-linejoin="round"/>
<path d="M12.1218 40.3793H5.87573" stroke="currentColor" stroke-linecap="round" stroke-linejoin="round"/>
<path d="M12.1218 31.6307H5.87573" stroke="currentColor" stroke-linecap="round" stroke-linejoin="round"/>
<path d="M12.1218 24.1334H5.87573" stroke="currentColor" stroke-linecap="round" stroke-linejoin="round"/>
<path d="M24.6239 11.6313V5.38525" stroke="currentColor" stroke-linecap="round" stroke-linejoin="round"/>
<path d="M32.1212 11.6313V5.38525" stroke="currentColor" stroke-linecap="round" stroke-linejoin="round"/>
<path d="M39.6185 11.6313V5.38525" stroke="currentColor" stroke-linecap="round" stroke-linejoin="round"/>
<path d="M47.1158 11.6313V5.38525" stroke="currentColor" stroke-linecap="round" stroke-linejoin="round"/>
<path d="M47.1158 51.6201H39.6185" stroke="currentColor" stroke-linecap="round" stroke-linejoin="round"/>
<path d="M44.6134 20.3799H52.1107V26.626" stroke="currentColor" stroke-linecap="round" stroke-linejoin="round"/>
<path d="M19.6191 41.6205V34.1232" stroke="currentColor" stroke-linecap="round" stroke-linejoin="round"/>
<path d="M59.608 11.6313H12.1218V59.1175H59.608V11.6313Z" stroke="currentColor" stroke-linecap="round" stroke-linejoin="round"/>
</svg>
