<svg width="72" height="72" viewBox="0 0 72 72" fill="none" xmlns="http://www.w3.org/2000/svg">
<path fill-rule="evenodd" clip-rule="evenodd" d="M33 17C33 15.8954 33.8954 15 35 15H37C38.1046 15 39 15.8954 39 17V19C39 20.1046 38.1046 21 37 21H35C33.8954 21 33 20.1046 33 19V17ZM33 35C33 33.8954 33.8954 33 35 33H37C38.1046 33 39 33.8954 39 35V37C39 38.1046 38.1046 39 37 39H35C33.8954 39 33 38.1046 33 37V35ZM35 51C33.8954 51 33 51.8954 33 53V55C33 56.1046 33.8954 57 35 57H37C38.1046 57 39 56.1046 39 55V53C39 51.8954 38.1046 51 37 51H35Z" fill="currentColor"/>
</svg>
