<svg role="img" xmlns="http://www.w3.org/2000/svg" width="24" height="24" fill="none" viewBox="0 0 24 24">
  <path fill="currentColor" fill-rule="evenodd" d="M1 5.5a.5.5 0 0 1 .5-.5h20a.5.5 0 0 1 .5.5v12a.5.5 0 0 1-.5.5H14v1h2.5a.5.5 0 0 1 0 1h-10a.5.5 0 0 1 0-1H9v-1H1.5a.5.5 0 0 1-.5-.5v-12ZM9.5 17H21V6H2v11h7.5Zm.5 1v1h3v-1h-3Z"/>
  <path stroke="currentColor" stroke-linecap="round" stroke-linejoin="round" d="M14.0354 9.7905v3.5602a.2905.2905 0 0 1-.2903.2903H12.644v1.3846l-1.358-1.3846H8.7903a.295.295 0 0 1-.2903-.2903V9.7905c.0033-.1601.1335-.2902.2936-.2902h4.9382c.1601-.0067.2969.1167.3036.2769v.0133Z"/>
</svg>
