<svg width="72" height="72" viewBox="0 0 72 72" fill="none" xmlns="http://www.w3.org/2000/svg">
<path d="M38.85 8.41992H32.02" stroke="currentColor" stroke-miterlimit="10" stroke-linecap="round"/>
<path d="M42.8799 35.0396C42.8799 36.9561 43.4482 38.8296 44.5129 40.4231C45.5777 42.0166 47.0911 43.2586 48.8617 43.992C50.6323 44.7254 52.5806 44.9173 54.4603 44.5434C56.34 44.1695 58.0666 43.2466 59.4217 41.8915C60.7769 40.5363 61.6998 38.8097 62.0737 36.93C62.4476 35.0504 62.2557 33.102 61.5223 31.3314C60.7889 29.5608 59.5469 28.0474 57.9534 26.9827C56.3598 25.9179 54.4864 25.3496 52.5699 25.3496C49.9999 25.3496 47.5352 26.3705 45.718 28.1877C43.9008 30.005 42.8799 32.4697 42.8799 35.0396V35.0396Z" stroke="currentColor" stroke-linecap="round" stroke-linejoin="round"/>
<path d="M52.63 47.24V64.43C52.6301 64.735 52.5692 65.0369 52.451 65.3181C52.3329 65.5992 52.1597 65.8539 51.9417 66.0672C51.7237 66.2805 51.4654 66.4482 51.1817 66.5603C50.8981 66.6724 50.5949 66.7267 50.29 66.72H20.29C19.9889 66.7213 19.6905 66.663 19.4121 66.5484C19.1337 66.4338 18.8807 66.2652 18.6678 66.0522C18.4549 65.8393 18.2863 65.5864 18.1716 65.3079C18.057 65.0295 17.9987 64.7311 18 64.43V7.29002C17.9987 6.98892 18.057 6.69055 18.1716 6.41211C18.2863 6.13368 18.4549 5.88071 18.6678 5.6678C18.8807 5.45489 19.1337 5.28626 19.4121 5.17164C19.6905 5.05703 19.9889 4.9987 20.29 5.00002H50.29C50.5916 4.99871 50.8905 5.05697 51.1694 5.17146C51.4484 5.28595 51.7021 5.45442 51.9158 5.6672C52.1295 5.87998 52.299 6.13287 52.4148 6.41136C52.5305 6.68985 52.59 6.98845 52.59 7.29002V22.46" stroke="currentColor" stroke-linecap="round" stroke-linejoin="round"/>
<path d="M35.3 63.0297C36.7083 63.0297 37.85 61.888 37.85 60.4797C37.85 59.0714 36.7083 57.9297 35.3 57.9297C33.8917 57.9297 32.75 59.0714 32.75 60.4797C32.75 61.888 33.8917 63.0297 35.3 63.0297Z" stroke="currentColor" stroke-linecap="round" stroke-linejoin="round"/>
<path d="M49.3701 37.6202C49.4616 37.8298 49.5721 38.0306 49.7001 38.2202C49.9506 38.598 50.2575 38.9353 50.6101 39.2202C50.8411 39.3667 51.1068 39.4495 51.3801 39.4602H53.8301C54.0969 39.4479 54.3557 39.3651 54.5801 39.2202C54.9606 38.9107 55.297 38.5507 55.5801 38.1502C55.7053 37.9169 55.7673 37.6549 55.7601 37.3902V36.2802C55.7609 36.0828 55.6922 35.8915 55.5661 35.7397C55.4399 35.5879 55.2643 35.4854 55.0701 35.4502L52.9301 34.8102L52.1701 34.5902L50.3701 34.0802C50.0996 34.0191 49.8597 33.8638 49.693 33.6422C49.5264 33.4206 49.4438 33.147 49.4601 32.8702V32.0502C49.4529 31.7855 49.5149 31.5235 49.6401 31.2902C49.9204 30.8816 50.2571 30.5146 50.6401 30.2002C50.8624 30.0495 51.1219 29.963 51.3901 29.9502H53.6101C53.8783 29.963 54.1379 30.0495 54.3601 30.2002C54.9142 30.6219 55.3542 31.1753 55.6401 31.8102" stroke="currentColor" stroke-width="0.99" stroke-linecap="round" stroke-linejoin="round"/>
<path d="M52.6104 28.9297V41.5497" stroke="currentColor" stroke-width="0.99" stroke-linecap="round" stroke-linejoin="round"/>
</svg>
