<svg width="24" height="24" viewBox="0 0 24 24" fill="none" xmlns="http://www.w3.org/2000/svg">
<path d="M12.5 9.5H11.5" stroke="currentColor" stroke-miterlimit="10" stroke-linecap="round"/>
<path d="M16 8.52195C16.0004 8.45329 15.987 8.38522 15.9604 8.3217C15.9338 8.25817 15.8946 8.20046 15.845 8.15191C15.7955 8.10335 15.7366 8.06492 15.6718 8.03885C15.607 8.01277 15.5376 7.99957 15.4676 8.00001H8.53244C8.4624 7.99957 8.39296 8.01277 8.32816 8.03885C8.26336 8.06492 8.20449 8.10335 8.15496 8.15191C8.10543 8.20046 8.06623 8.25817 8.03963 8.3217C8.01303 8.38522 7.99956 8.45329 8.00001 8.52195V21.4814C8.00001 21.5497 8.0138 21.6175 8.0406 21.6806C8.0674 21.7437 8.10667 21.8011 8.15616 21.8493C8.20564 21.8975 8.26437 21.9356 8.32895 21.9615C8.39352 21.9873 8.46268 22.0004 8.53244 22H15.4676C15.5373 22.0004 15.6065 21.9873 15.6711 21.9615C15.7356 21.9356 15.7944 21.8975 15.8438 21.8493C15.8933 21.8011 15.9326 21.7437 15.9594 21.6806C15.9862 21.6175 16 21.5497 16 21.4814V8.52195Z" stroke="currentColor" stroke-linecap="round" stroke-linejoin="round"/>
<path d="M12 21C12.2761 21 12.5 20.7761 12.5 20.5C12.5 20.2239 12.2761 20 12 20C11.7239 20 11.5 20.2239 11.5 20.5C11.5 20.7761 11.7239 21 12 21Z" fill="currentColor"/>
<path d="M6.5 5.5H5.5" stroke="currentColor" stroke-miterlimit="10" stroke-linecap="round"/>
<path d="M9.99999 7.84521V4.52195C10.0004 4.45357 9.98708 4.38577 9.96069 4.32246C9.9343 4.25916 9.8954 4.20159 9.84623 4.15308C9.79706 4.10457 9.73858 4.06607 9.67417 4.0398C9.60976 4.01353 9.54069 4.00001 9.47093 4.00001H2.53244C2.4624 3.99957 2.39296 4.01277 2.32816 4.03885C2.26336 4.06492 2.20449 4.10335 2.15496 4.15191C2.10543 4.20046 2.06623 4.25817 2.03963 4.3217C2.01303 4.38522 1.99956 4.45329 2.00001 4.52195V17.4813C2.00001 17.5497 2.0138 17.6174 2.0406 17.6806C2.0674 17.7437 2.10667 17.8011 2.15616 17.8493C2.20565 17.8975 2.26437 17.9356 2.32895 17.9615C2.39352 17.9873 2.46268 18.0004 2.53244 18H7.45577" stroke="currentColor" stroke-linecap="round" stroke-linejoin="round"/>
<path d="M6 17C6.27614 17 6.5 16.7761 6.5 16.5C6.5 16.2239 6.27614 16 6 16C5.72386 16 5.5 16.2239 5.5 16.5C5.5 16.7761 5.72386 17 6 17Z" fill="currentColor"/>
<path d="M18.5 5.5H17.5" stroke="currentColor" stroke-miterlimit="10" stroke-linecap="round"/>
<path d="M16 18H21.4676C21.5373 18.0004 21.6065 17.9873 21.6711 17.9615C21.7356 17.9356 21.7944 17.8975 21.8438 17.8493C21.8933 17.8011 21.9326 17.7437 21.9594 17.6806C21.9862 17.6174 22 17.5497 22 17.4813V4.52195C22.0004 4.45329 21.987 4.38522 21.9604 4.3217C21.9338 4.25817 21.8946 4.20046 21.845 4.15191C21.7955 4.10335 21.7366 4.06492 21.6718 4.03885C21.607 4.01277 21.5376 3.99957 21.4676 4.00001H14.5291C14.4593 4.00001 14.3902 4.01353 14.3258 4.0398C14.2614 4.06607 14.2029 4.10457 14.1538 4.15308C14.1046 4.20159 14.0657 4.25916 14.0393 4.32246C14.0129 4.38577 13.9996 4.45357 14 4.52195V7.84521" stroke="currentColor" stroke-linecap="round" stroke-linejoin="round"/>
<path d="M18 17C18.2761 17 18.5 16.7761 18.5 16.5C18.5 16.2239 18.2761 16 18 16C17.7239 16 17.5 16.2239 17.5 16.5C17.5 16.7761 17.7239 17 18 17Z" fill="currentColor"/>
</svg>
