<svg width="72" height="72" viewBox="0 0 72 72" fill="none" xmlns="http://www.w3.org/2000/svg">
<path d="M43.6299 35.75H44.6299" stroke="currentColor" stroke-linecap="round" stroke-linejoin="round"/>
<path d="M61.6299 35.75H62.6299" stroke="currentColor" stroke-linecap="round" stroke-linejoin="round"/>
<path d="M52.6299 43.75V44.75" stroke="currentColor" stroke-linecap="round" stroke-linejoin="round"/>
<path d="M52.6299 35.75H49.6299" stroke="currentColor" stroke-linecap="round" stroke-linejoin="round"/>
<path d="M52.6299 35.75V29.75" stroke="currentColor" stroke-linecap="round" stroke-linejoin="round"/>
<path d="M42.6301 35.5405C42.5724 37.5573 43.1177 39.5455 44.1963 41.2507C45.2748 42.956 46.8375 44.3006 48.6846 45.1128C50.5316 45.9249 52.5789 46.1675 54.5646 45.8097C56.5503 45.4518 58.384 44.5096 59.8313 43.1038C61.2785 41.6979 62.2735 39.8922 62.6888 37.9178C63.1042 35.9433 62.921 33.8898 62.1628 32.02C61.4046 30.1502 60.1058 28.5491 58.4326 27.4216C56.7594 26.294 54.7878 25.6913 52.7701 25.6905C50.1196 25.653 47.5627 26.6696 45.6613 28.5166C43.7599 30.3636 42.6696 32.8899 42.6301 35.5405V35.5405Z" stroke="currentColor" stroke-linecap="round" stroke-linejoin="round"/>
<path d="M38.85 8.41992H32.02" stroke="currentColor" stroke-miterlimit="10" stroke-linecap="round"/>
<path d="M52.63 47.71V64.43C52.6301 64.735 52.5692 65.0369 52.451 65.3181C52.3329 65.5992 52.1597 65.8539 51.9417 66.0672C51.7237 66.2805 51.4654 66.4482 51.1817 66.5603C50.8981 66.6724 50.5949 66.7267 50.29 66.72H20.29C19.9889 66.7213 19.6905 66.663 19.4121 66.5484C19.1337 66.4338 18.8807 66.2652 18.6678 66.0522C18.4549 65.8393 18.2863 65.5864 18.1716 65.3079C18.057 65.0295 17.9987 64.7311 18 64.43V7.29002C17.9987 6.98892 18.057 6.69055 18.1716 6.41211C18.2863 6.13368 18.4549 5.88071 18.6678 5.6678C18.8807 5.45489 19.1337 5.28626 19.4121 5.17164C19.6905 5.05703 19.9889 4.9987 20.29 5.00002H50.29C50.5916 4.99871 50.8905 5.05697 51.1694 5.17146C51.4484 5.28595 51.7021 5.45442 51.9158 5.6672C52.1295 5.87998 52.299 6.13287 52.4148 6.41136C52.5305 6.68985 52.59 6.98845 52.59 7.29002V23.03" stroke="currentColor" stroke-linecap="round" stroke-linejoin="round"/>
<path d="M35.3 63.0297C36.7083 63.0297 37.85 61.888 37.85 60.4797C37.85 59.0714 36.7083 57.9297 35.3 57.9297C33.8917 57.9297 32.75 59.0714 32.75 60.4797C32.75 61.888 33.8917 63.0297 35.3 63.0297Z" stroke="currentColor" stroke-linecap="round" stroke-linejoin="round"/>
</svg>
