<svg width="72" height="72" viewBox="0 0 72 72" fill="none" xmlns="http://www.w3.org/2000/svg">

<path d="M39.54 8.60999H32.71" stroke="currentColor" stroke-miterlimit="10" stroke-linecap="round"/>
<path d="M62.98 35.23C62.978 32.8643 62.1097 30.5812 60.5392 28.8121C58.9687 27.0429 56.8047 25.91 54.456 25.6275C52.1072 25.345 49.7363 25.9324 47.7911 27.2787C45.8458 28.6251 44.461 30.6371 43.898 32.9349C43.3351 35.2326 43.6331 37.657 44.7357 39.75C45.8384 41.843 47.6693 43.4598 49.8826 44.295C52.096 45.1301 54.5386 45.1259 56.749 44.283C58.9595 43.44 60.7847 41.8169 61.88 39.72" stroke="currentColor" stroke-linecap="round" stroke-linejoin="round"/>
<path d="M35.9899 63.22C37.3983 63.22 38.5399 62.0783 38.5399 60.67C38.5399 59.2617 37.3983 58.12 35.9899 58.12C34.5816 58.12 33.4399 59.2617 33.4399 60.67C33.4399 62.0783 34.5816 63.22 35.9899 63.22Z" stroke="currentColor" stroke-linecap="round" stroke-linejoin="round"/>
<path d="M62.84 35.43L60.77 33.47" stroke="currentColor" stroke-linecap="round" stroke-linejoin="round"/>
<path d="M62.92 35.43L64.99 33.47" stroke="currentColor" stroke-linecap="round" stroke-linejoin="round"/>
<path d="M52.73 39.0999L52.63 38.4199C52.4865 38.614 52.3222 38.7917 52.14 38.9499C51.9259 39.0825 51.6815 39.1582 51.43 39.1699H49.29C49.0356 39.1569 48.7883 39.0813 48.57 38.9499C48.1866 38.6707 47.8492 38.3333 47.57 37.9499C47.4459 37.7489 47.3833 37.516 47.39 37.2799V32.5699C47.3842 32.3308 47.4467 32.0949 47.57 31.8899C47.8498 31.507 48.1871 31.1697 48.57 30.8899C48.7857 30.7514 49.034 30.672 49.29 30.6599H51.43C51.6892 30.6717 51.9409 30.751 52.16 30.8899C52.4931 31.1379 52.7836 31.4385 53.02 31.7799C53.1469 31.9435 53.2543 32.1214 53.34 32.3099L52.53 32.5399C52.3185 32.1106 51.9934 31.7475 51.59 31.4899C51.529 31.4556 51.46 31.4383 51.39 31.4399H49.39C49.3264 31.4383 49.2637 31.4557 49.21 31.4899C48.8553 31.7104 48.5545 32.0077 48.33 32.3599C48.3148 32.4291 48.3148 32.5007 48.33 32.5699V37.2599C48.3138 37.3188 48.3138 37.381 48.33 37.4399C48.5544 37.7949 48.855 38.0955 49.21 38.3199C49.2722 38.3369 49.3378 38.3369 49.4 38.3199H51.4C51.4623 38.336 51.5277 38.336 51.59 38.3199C51.9439 38.0866 52.2467 37.7838 52.48 37.4299C52.4903 37.3704 52.4903 37.3095 52.48 37.2499V35.2499H50.57V34.4799H53.29V37.4799C53.3203 38.0304 53.3871 38.5783 53.49 39.1199L52.73 39.0999Z" fill="black"/>
<path d="M58.8 38.2401C58.6171 38.4875 58.4056 38.7124 58.17 38.9101C57.9158 39.0809 57.6162 39.1714 57.31 39.1701H55.92C55.6137 39.1714 55.3141 39.0809 55.06 38.9101C54.8243 38.7124 54.6128 38.4875 54.43 38.2401C54.2939 38.018 54.2277 37.7602 54.24 37.5001V34.7201C54.2277 34.4599 54.2939 34.2021 54.43 33.9801C54.6128 33.7327 54.8243 33.5078 55.06 33.3101C55.3122 33.1352 55.6131 33.0442 55.92 33.0501H57.31C57.6168 33.0442 57.9177 33.1352 58.17 33.3101C58.4056 33.5078 58.6171 33.7327 58.8 33.9801C58.9395 34.201 59.0092 34.4589 59 34.7201V37.5001C59.0092 37.7612 58.9395 38.0191 58.8 38.2401ZM58.24 34.7501C58.2522 34.6705 58.2522 34.5896 58.24 34.5101C58.0724 34.2345 57.843 34.0017 57.57 33.8301C57.4952 33.7838 57.4076 33.7628 57.32 33.7701H55.98C55.8924 33.7634 55.805 33.7844 55.73 33.8301C55.4605 33.9997 55.2372 34.2333 55.08 34.5101C55.0612 34.589 55.0612 34.6712 55.08 34.7501V37.4701C55.0623 37.5491 55.0623 37.631 55.08 37.7101C55.2372 37.9869 55.4605 38.2205 55.73 38.3901C55.8068 38.4311 55.8929 38.4518 55.98 38.4501H57.35C57.4371 38.4527 57.5234 38.432 57.6 38.3901C57.873 38.2184 58.1024 37.9856 58.27 37.7101C58.2817 37.6305 58.2817 37.5496 58.27 37.4701L58.24 34.7501Z" fill="black"/>
<path d="M53.32 47.43V64.62C53.32 64.9249 53.2592 65.2269 53.141 65.508C53.0228 65.7892 52.8496 66.0439 52.6317 66.2572C52.4137 66.4705 52.1553 66.6381 51.8717 66.7502C51.588 66.8623 51.2849 66.9166 50.98 66.91H20.98C20.6789 66.9113 20.3805 66.853 20.1021 66.7383C19.8236 66.6237 19.5706 66.4551 19.3577 66.2422C19.1448 66.0293 18.9762 65.7763 18.8616 65.4979C18.747 65.2194 18.6886 64.9211 18.69 64.62V7.47996C18.6886 7.17887 18.747 6.88049 18.8616 6.60205C18.9762 6.32362 19.1448 6.07065 19.3577 5.85774C19.5706 5.64483 19.8236 5.4762 20.1021 5.36158C20.3805 5.24697 20.6789 5.18864 20.98 5.18996H50.98C51.2815 5.18865 51.5804 5.24691 51.8594 5.3614C52.1384 5.47589 52.392 5.64437 52.6057 5.85714C52.8194 6.06992 52.989 6.32281 53.1047 6.6013C53.2204 6.87979 53.28 7.17839 53.28 7.47996V22.65" stroke="currentColor" stroke-linecap="round" stroke-linejoin="round"/>


</svg>
