<svg role="img" xmlns="http://www.w3.org/2000/svg" width="24" height="24" fill="none" viewBox="0 0 24 24">
  <path stroke="currentColor" stroke-linecap="round" stroke-linejoin="round" d="M19 13.9957 17.2747 16M19 13.9957 17.2747 12M19 13.9957h-8m0-4.9914L12.7253 7M11 9.0043 12.7253 11M11 9.0043h8"/>
  <path fill="currentColor" fill-rule="evenodd" d="M7.9048 1.5C6.5226 1.5 5.5 2.7414 5.5 4.1445v15.711C5.5 21.2586 6.5226 22.5 7.9048 22.5h5.8799c1.3822 0 2.4047-1.2414 2.4047-2.6445a.5.5 0 1 0-1 0c0 .9656-.683 1.6445-1.4047 1.6445h-5.88C7.183 21.5 6.5 20.8211 6.5 19.8555V4.1445C6.5 3.179 7.183 2.5 7.9048 2.5H9.5c0 .8284.6716 1.5 1.5 1.5h1c.8284 0 1.5-.6716 1.5-1.5h1.0714c.2975 0 .4988.1204.6493.3576.1676.2643.2793.6935.2793 1.287a.5.5 0 0 0 1 0c0-.6934-.1264-1.3364-.4349-1.8227-.3257-.5134-.8387-.8219-1.4937-.8219H7.9048Z"/>
</svg>
