<svg width="72" height="72" viewBox="0 0 72 72" fill="none" xmlns="http://www.w3.org/2000/svg">
<g>
<path d="M38.85 8.42004H32.02" stroke="currentColor" stroke-miterlimit="10" stroke-linecap="round"/>
<path d="M42.8801 35.0401C42.8801 36.9566 43.4484 38.8301 44.5132 40.4236C45.5779 42.0171 47.0913 43.2591 48.8619 43.9925C50.6325 44.7259 52.5809 44.9178 54.4606 44.5439C56.3402 44.17 58.0668 43.2471 59.422 41.892C60.7772 40.5368 61.7 38.8102 62.0739 36.9305C62.4478 35.0508 62.2559 33.1025 61.5225 31.3319C60.7891 29.5613 59.5471 28.0479 57.9536 26.9832C56.3601 25.9184 54.4866 25.3501 52.5701 25.3501C50.0002 25.3501 47.5355 26.371 45.7183 28.1882C43.901 30.0055 42.8801 32.4701 42.8801 35.0401V35.0401Z" stroke="currentColor" stroke-linecap="round" stroke-linejoin="round"/>
<path d="M52.63 47.24V64.43C52.6301 64.735 52.5692 65.0369 52.451 65.3181C52.3329 65.5992 52.1597 65.8539 51.9417 66.0672C51.7237 66.2805 51.4654 66.4482 51.1817 66.5603C50.8981 66.6724 50.5949 66.7267 50.29 66.72H20.29C19.9889 66.7213 19.6905 66.663 19.4121 66.5484C19.1337 66.4338 18.8807 66.2652 18.6678 66.0522C18.4549 65.8393 18.2863 65.5864 18.1716 65.3079C18.057 65.0295 17.9987 64.7311 18 64.43V7.29002C17.9987 6.98892 18.057 6.69055 18.1716 6.41211C18.2863 6.13368 18.4549 5.88071 18.6678 5.6678C18.8807 5.45489 19.1337 5.28626 19.4121 5.17164C19.6905 5.05703 19.9889 4.9987 20.29 5.00002H50.29C50.5916 4.99871 50.8905 5.05697 51.1694 5.17146C51.4484 5.28595 51.7021 5.45442 51.9158 5.6672C52.1295 5.87998 52.299 6.13287 52.4148 6.41136C52.5305 6.68985 52.59 6.98845 52.59 7.29002V22.46" stroke="currentColor" stroke-linecap="round" stroke-linejoin="round"/>
<path d="M35.3 63.0301C36.7083 63.0301 37.85 61.8884 37.85 60.4801C37.85 59.0717 36.7083 57.9301 35.3 57.9301C33.8917 57.9301 32.75 59.0717 32.75 60.4801C32.75 61.8884 33.8917 63.0301 35.3 63.0301Z" stroke="currentColor" stroke-linecap="round" stroke-linejoin="round"/>
<path d="M51.5601 34.9401C51.562 35.4572 51.4104 35.9632 51.1244 36.3939C50.8383 36.8246 50.4308 37.1607 49.9535 37.3595C49.4762 37.5583 48.9506 37.6108 48.4434 37.5104C47.9361 37.41 47.4702 37.1613 47.1045 36.7956C46.7389 36.43 46.4901 35.964 46.3898 35.4568C46.2894 34.9496 46.3419 34.424 46.5407 33.9467C46.7395 33.4694 47.0755 33.0618 47.5063 32.7758C47.937 32.4898 48.443 32.3381 48.9601 32.3401C49.6496 32.3401 50.311 32.614 50.7985 33.1016C51.2861 33.5892 51.5601 34.2505 51.5601 34.9401V34.9401Z" stroke="currentColor" stroke-linecap="round" stroke-linejoin="round"/>
<path d="M58.72 34.9401C58.722 35.4567 58.5706 35.9623 58.285 36.3928C57.9994 36.8234 57.5925 37.1595 57.1157 37.3585C56.639 37.5576 56.1139 37.6107 55.607 37.5112C55.1 37.4116 54.634 37.1638 54.268 36.7992C53.902 36.4346 53.6524 35.9695 53.5509 35.463C53.4494 34.9564 53.5005 34.4311 53.6977 33.9536C53.895 33.4761 54.2295 33.0679 54.6589 32.7807C55.0883 32.4934 55.5933 32.3401 56.11 32.3401C56.8005 32.3401 57.4628 32.6137 57.952 33.101C58.4412 33.5883 58.7173 34.2496 58.72 34.9401Z" stroke="currentColor" stroke-linecap="round" stroke-linejoin="round"/>
<path d="M48.8501 37.54H55.8401" stroke="currentColor" stroke-linecap="round" stroke-linejoin="round"/>
</g>

</svg>
