<svg width="72" height="72" viewBox="0 0 72 72" fill="none" xmlns="http://www.w3.org/2000/svg">
<path d="M38.85 8.41992H32.02" stroke="currentColor" stroke-miterlimit="10" stroke-linecap="round"/>
<path d="M42.8799 35.0396C42.8799 36.9561 43.4482 38.8296 44.5129 40.4231C45.5777 42.0166 47.0911 43.2586 48.8617 43.992C50.6323 44.7254 52.5806 44.9173 54.4603 44.5434C56.34 44.1695 58.0666 43.2466 59.4217 41.8915C60.7769 40.5363 61.6998 38.8097 62.0737 36.93C62.4476 35.0504 62.2557 33.102 61.5223 31.3314C60.7889 29.5608 59.5469 28.0474 57.9534 26.9827C56.3598 25.9179 54.4864 25.3496 52.5699 25.3496C49.9999 25.3496 47.5352 26.3705 45.718 28.1877C43.9008 30.005 42.8799 32.4697 42.8799 35.0396V35.0396Z" stroke="currentColor" stroke-linecap="round" stroke-linejoin="round"/>
<path d="M52.63 47.24V64.43C52.6301 64.735 52.5692 65.0369 52.451 65.3181C52.3329 65.5992 52.1597 65.8539 51.9417 66.0672C51.7237 66.2805 51.4654 66.4482 51.1817 66.5603C50.8981 66.6724 50.5949 66.7267 50.29 66.72H20.29C19.9889 66.7213 19.6905 66.663 19.4121 66.5484C19.1337 66.4338 18.8807 66.2652 18.6678 66.0522C18.4549 65.8393 18.2863 65.5864 18.1716 65.3079C18.057 65.0295 17.9987 64.7311 18 64.43V7.29002C17.9987 6.98892 18.057 6.69055 18.1716 6.41211C18.2863 6.13368 18.4549 5.88071 18.6678 5.6678C18.8807 5.45489 19.1337 5.28626 19.4121 5.17164C19.6905 5.05703 19.9889 4.9987 20.29 5.00002H50.29C50.5916 4.99871 50.8905 5.05697 51.1694 5.17146C51.4484 5.28595 51.7021 5.45442 51.9158 5.6672C52.1295 5.87998 52.299 6.13287 52.4148 6.41136C52.5305 6.68985 52.59 6.98845 52.59 7.29002V22.46" stroke="currentColor" stroke-linecap="round" stroke-linejoin="round"/>
<path d="M35.3 63.0297C36.7083 63.0297 37.85 61.888 37.85 60.4797C37.85 59.0714 36.7083 57.9297 35.3 57.9297C33.8917 57.9297 32.75 59.0714 32.75 60.4797C32.75 61.888 33.8917 63.0297 35.3 63.0297Z" stroke="currentColor" stroke-linecap="round" stroke-linejoin="round"/>
<path d="M46.9399 35.0303H57.1599" stroke="currentColor" stroke-linecap="round" stroke-linejoin="round"/>
<path d="M57.85 35.0705L55.5 32.7305" stroke="currentColor" stroke-linecap="round" stroke-linejoin="round"/>
<path d="M57.8498 35.0703L55.5098 37.4203" stroke="currentColor" stroke-linecap="round" stroke-linejoin="round"/>
</svg>
