<svg width="24" height="24" viewBox="0 0 24 24" fill="none" xmlns="http://www.w3.org/2000/svg">
<path d="M21.4804 11.9284C21.4804 6.60326 17.1662 2.28906 11.841 2.28906C6.51585 2.28906 2.20166 6.60326 2.20166 11.9284C2.20166 17.2536 6.51585 21.5678 11.841 21.5678C15.3011 21.5678 18.4975 19.7127 20.2125 16.7064M21.4804 11.9284L19.4995 10.5002M21.4804 11.9284L23.4995 10.0002" stroke="currentColor" stroke-linecap="round" stroke-linejoin="round"/>
<path d="M11.3405 15.44L11.2405 14.76C11.097 14.9541 10.9327 15.1318 10.7505 15.29C10.5364 15.4225 10.292 15.4983 10.0405 15.51H7.90049C7.64605 15.497 7.39876 15.4214 7.18048 15.29C6.79707 15.0108 6.45966 14.6734 6.18048 14.29C6.05637 14.089 5.9938 13.8561 6.00048 13.62V8.91C5.99471 8.67084 6.05715 8.43498 6.18048 8.23C6.46028 7.84711 6.7976 7.50979 7.18048 7.23C7.39613 7.09146 7.64446 7.01214 7.90049 7H10.0405C10.2997 7.0118 10.5513 7.09108 10.7705 7.23C11.1036 7.47795 11.3941 7.77856 11.6305 8.12C11.7574 8.28361 11.8648 8.46148 11.9505 8.65L11.1405 8.88C10.9289 8.45072 10.6038 8.08758 10.2005 7.83C10.1395 7.7957 10.0704 7.77843 10.0005 7.78H8.00048C7.93685 7.77839 7.87418 7.7958 7.82048 7.83C7.46573 8.05047 7.165 8.34779 6.94048 8.7C6.92531 8.76918 6.92531 8.84082 6.94048 8.91V13.6C6.92431 13.6589 6.92431 13.7211 6.94048 13.78C7.16489 14.135 7.46549 14.4356 7.82048 14.66C7.88267 14.677 7.94829 14.677 8.01048 14.66H10.0105C10.0728 14.6761 10.1382 14.6761 10.2005 14.66C10.5544 14.4267 10.8571 14.1239 11.0905 13.77C11.1007 13.7104 11.1007 13.6496 11.0905 13.59V11.59H9.18048V10.82H11.9005V13.82C11.9308 14.3705 11.9976 14.9184 12.1005 15.46L11.3405 15.44Z" fill="currentColor"/>
<path d="M17.4101 14.5799C17.2272 14.8273 17.0158 15.0522 16.7801 15.2499C16.5259 15.4207 16.2263 15.5113 15.9201 15.5099H14.5301C14.2238 15.5113 13.9243 15.4207 13.6701 15.2499C13.4344 15.0522 13.2229 14.8273 13.0401 14.5799C12.904 14.3579 12.8378 14.1 12.8501 13.8399V11.0599C12.8378 10.7998 12.904 10.542 13.0401 10.3199C13.2229 10.0725 13.4344 9.84762 13.6701 9.64992C13.9223 9.47501 14.2232 9.38403 14.5301 9.38992H15.9201C16.2269 9.38403 16.5279 9.47501 16.7801 9.64992C17.0158 9.84762 17.2272 10.0725 17.4101 10.3199C17.5496 10.5409 17.6193 10.7988 17.6101 11.0599V13.8399C17.6193 14.1011 17.5496 14.359 17.4101 14.5799ZM16.8501 11.0899C16.8623 11.0104 16.8623 10.9294 16.8501 10.8499C16.6825 10.5744 16.4531 10.3416 16.1801 10.1699C16.1053 10.1236 16.0177 10.1026 15.9301 10.1099H14.5901C14.5025 10.1033 14.4151 10.1243 14.3401 10.1699C14.0706 10.3395 13.8473 10.5731 13.6901 10.8499C13.6714 10.9288 13.6714 11.011 13.6901 11.0899V13.8099C13.6724 13.8889 13.6724 13.9709 13.6901 14.0499C13.8473 14.3267 14.0706 14.5603 14.3401 14.7299C14.4169 14.7709 14.503 14.7916 14.5901 14.7899H15.9601C16.0473 14.7925 16.1336 14.7718 16.2101 14.7299C16.4831 14.5583 16.7125 14.3255 16.8801 14.0499C16.8918 13.9703 16.8918 13.8895 16.8801 13.8099L16.8501 11.0899Z" fill="currentColor"/>
</svg>
