<svg width="24" height="24" viewBox="0 0 24 24" fill="none" xmlns="http://www.w3.org/2000/svg">
<path d="M4.2998 9.00006V4.7334H21.3998V7.00006" stroke="currentColor" stroke-miterlimit="10" stroke-linecap="round" stroke-linejoin="round"/>
<path d="M16 15.5H15.5" stroke="currentColor" stroke-miterlimit="10" stroke-linecap="round" stroke-linejoin="round"/>
<path d="M14 17V11.0269C14 11.0269 14 11 13.9686 11H3.03143C3 11 3 11 3 11.0269V17" stroke="currentColor" stroke-miterlimit="10" stroke-linecap="round" stroke-linejoin="round"/>
<path fill-rule="evenodd" clip-rule="evenodd" d="M18 9.5V17.5H22V9.5H21C21 9.77614 20.7761 10 20.5 10H19.5C19.2239 10 19 9.77614 19 9.5H18ZM17 9.34407C17 8.85988 17.4023 8.5 17.8576 8.5H22.1424C22.5977 8.5 23 8.85988 23 9.34407V17.6559C23 18.1401 22.5977 18.5 22.1424 18.5H17.8576C17.4023 18.5 17 18.1401 17 17.6559V9.34407ZM20 17C20.2761 17 20.5 16.7761 20.5 16.5C20.5 16.2239 20.2761 16 20 16C19.7239 16 19.5 16.2239 19.5 16.5C19.5 16.7761 19.7239 17 20 17Z" fill="currentColor"/>
<path d="M6.80151 17.0664V17.9696H10.1985V17.0664H14.9347C14.9673 17.0664 15 17.0664 15 17.0987V18.0341C15 18.0341 14.9673 18.0664 14.9347 18.0664H2.06533C2.03266 18.0664 2 18.0664 2 18.0341V17.0987C2 17.0987 2.03266 17.0664 2.06533 17.0664H6.80151Z" stroke="currentColor" stroke-miterlimit="10" stroke-linecap="round" stroke-linejoin="round"/>
</svg>
