<svg role="img" width="24" height="24" viewBox="0 0 24 24" fill="none" xmlns="http://www.w3.org/2000/svg">
<path fill-rule="evenodd" clip-rule="evenodd" d="M12 2.96484C7.01014 2.96484 2.96509 7.0099 2.96509 11.9997C2.96509 15.3511 4.78984 18.2763 7.5 19.836V15.9997C7.5 14.2005 8.55594 12.6479 10.0819 11.9278C9.12915 11.3024 8.5 10.2246 8.5 8.99973C8.5 7.06673 10.067 5.49973 12 5.49973C13.933 5.49973 15.5 7.06673 15.5 8.99973C15.5 10.2246 14.8708 11.3024 13.9181 11.9278C15.4441 12.6479 16.5 14.2005 16.5 15.9997V19.836C19.2101 18.2763 21.0349 15.3511 21.0349 11.9997C21.0349 7.0099 16.9898 2.96484 12 2.96484ZM15.5 20.3317V15.9997C15.5 14.0667 13.933 12.4997 12 12.4997C10.067 12.4997 8.5 14.0667 8.5 15.9997V20.3317C9.57642 20.7844 10.759 21.0346 12 21.0346C13.241 21.0346 14.4236 20.7844 15.5 20.3317ZM12 11.4997C13.3807 11.4997 14.5 10.3804 14.5 8.99973C14.5 7.61902 13.3807 6.49973 12 6.49973C10.6193 6.49973 9.5 7.61902 9.5 8.99973C9.5 10.3804 10.6193 11.4997 12 11.4997ZM1.96509 11.9997C1.96509 6.45761 6.45786 1.96484 12 1.96484C17.5421 1.96484 22.0349 6.45761 22.0349 11.9997C22.0349 17.5418 17.5421 22.0346 12 22.0346C6.45786 22.0346 1.96509 17.5418 1.96509 11.9997Z" fill="currentColor"/>
</svg>
