<svg width="72" height="72" viewBox="0 0 72 72" fill="none" xmlns="http://www.w3.org/2000/svg">
<path d="M57.3797 48.0668C57.6801 49.5689 54.7761 49.8693 53.1738 50.7706C51.5716 51.6718 52.2726 52.8735 51.3713 53.8749C50.4701 54.8763 48.6676 55.1767 49.0681 54.4757C49.3686 53.6746 49.5688 52.8735 49.669 52.0724C49.7691 51.3714 48.8679 51.2713 47.8665 51.1711C46.8651 51.071 44.5619 51.2713 44.0612 50.4702C43.3602 49.5689 42.1585 49.1684 41.057 49.6691C40.1558 50.2699 38.3533 51.4716 37.1516 50.8707C35.9499 50.2699 29.8414 51.071 27.7385 51.071C25.6356 51.071 11.7163 48.7678 11.0153 48.3673C10.2142 48.0668 9.81363 47.2657 9.81363 46.4646C9.91376 45.4632 8.61196 44.0613 7.81084 43.2602C7.00973 42.459 7.91098 39.4549 8.2114 38.6538C8.51182 37.8526 7.10987 37.2518 7.61057 35.8499C8.01112 34.5481 5.30737 32.345 5.10709 32.0446C4.90681 31.7442 4.40611 30.8429 5.10709 30.2421C5.80806 29.6412 9.81362 23.2323 10.7149 22.6315C11.6161 22.0307 12.0167 23.3325 12.5174 24.2337C13.0181 25.135 16.6231 24.8346 17.5243 24.9347C18.4256 25.0348 22.2309 26.8373 22.0306 27.2379C21.8303 27.6385 23.6328 29.5411 24.7344 28.5397C25.8359 27.5383 28.4395 28.6399 29.541 28.9403C30.6426 29.2407 33.0459 27.7386 34.0473 27.7386C35.0487 27.7386 35.4492 25.5355 36.4506 25.5355C37.452 25.5355 37.7524 28.4396 37.0515 29.0404C36.2503 29.8415 35.8498 30.9431 35.8498 32.0446C35.9499 33.046 34.548 34.0474 34.0473 34.5481C33.5466 35.0488 33.5466 38.1531 34.0473 39.0543C34.548 39.9556 37.6523 40.4563 38.7538 41.0571C39.8554 41.6579 41.9583 41.1572 43.0598 41.3575C44.1613 41.5578 44.5619 43.861 45.363 44.3617C46.1641 44.8624 47.1655 43.9611 47.1655 43.2602C47.1655 42.5592 45.6634 41.5578 45.363 41.1572C45.0626 40.7567 46.064 39.6552 46.1641 38.854C46.2643 38.0529 44.3616 35.95 43.9611 34.6482C43.5605 33.3464 42.1586 32.5453 43.9611 31.644C45.7636 30.7428 48.267 32.6454 48.6676 32.9458C49.3686 33.4465 49.7691 34.2476 50.6704 33.6468C51.5716 33.046 50.8706 30.6426 51.6718 31.1433C52.4729 31.7442 53.4743 32.2449 54.4757 32.5453C55.477 32.6454 56.4784 33.1461 57.1794 33.8471C58.0807 34.4479 59.3825 34.4479 60.1836 33.6468C60.6843 33.046 62.2865 33.9472 62.6871 34.9486C63.0876 35.95 62 35.5974 62 37.5001C62 39.4027 58.8818 40.256 57.7802 40.7567L57.6801 42.5592C57.6801 42.5592 55.6773 44.7622 56.5786 45.5634C57.7802 46.8652 57.3797 48.0668 57.3797 48.0668Z" stroke="currentColor" stroke-linecap="round" stroke-linejoin="round"/>
<path d="M56.5 45C56.5 45 58.7816 42.9597 59.2823 42.9597C59.2823 42.9597 59.9833 43.8609 59.783 44.4618C59.5828 45.0626 60.9847 45.1627 61.185 44.7622C61.3853 44.3616 62.1864 43.6606 62.3867 44.2615C62.5869 44.8623 63.6885 44.9624 63.0876 45.5633C62.4868 46.1641 61.2851 46.2643 61.886 46.765C62.4868 47.2656 61.9861 47.6662 61.0848 47.3658C60.1836 47.0654 60.5841 46.8651 59.6829 46.765C58.7816 46.6648 59.0821 45.4631 58.5814 45.9638C58.1808 46.064 57.7803 46.1641 57.3797 46.1641L56.879 46.064L56.5 45ZM63.8887 38.854C64.089 39.3547 64.5897 39.7552 65.1905 39.8554C66.0918 40.2559 66.2921 39.0542 66.8929 38.854C67.4937 38.6537 67.694 38.854 67.7942 38.153C67.8943 37.452 67.1933 36.9513 66.8929 36.751C64.79 35.1488 64.8901 37.1516 64.089 37.0515C63.2879 36.9513 63.0876 35.0487 62.5869 36.0501C62.0862 37.0515 62.6871 37.452 63.0876 37.9527C63.2879 38.153 63.5883 38.4534 63.8887 38.854Z" stroke="currentColor" stroke-miterlimit="10" stroke-linecap="round"/>
</svg>
