<svg role="img" width="24" height="24" viewBox="0 0 24 24" fill="none" xmlns="http://www.w3.org/2000/svg">
<path d="M15.5002 3.12782C14.4166 2.69993 13.2357 2.46484 12 2.46484C6.734 2.46484 2.46509 6.73376 2.46509 11.9997C2.46509 17.2657 6.734 21.5346 12 21.5346C17.2659 21.5346 21.5349 17.2657 21.5349 11.9997C21.5349 10.8937 21.3465 9.83171 21.0002 8.84399" stroke="currentColor" stroke-linecap="round" stroke-linejoin="round"/>
<circle cx="12.0002" cy="11" r="3" stroke="currentColor" stroke-linecap="round" stroke-linejoin="round"/>
<path d="M16.0002 20.5V18C16.0002 15.7909 14.2094 14 12.0002 14V14C9.79111 14 8.00024 15.7909 8.00024 18V20.5" stroke="currentColor" stroke-linecap="round" stroke-linejoin="round"/>
<path d="M19 9C21.2091 9 23 7.20914 23 5C23 2.79086 21.2091 1 19 1C16.7909 1 15 2.79086 15 5C15 7.20914 16.7909 9 19 9Z" stroke="currentColor" stroke-miterlimit="10"/>
<path d="M19.3825 3V4.6371H21V5.33871H19.3825V7H18.6216V5.33871H17V4.6371H18.6216V3H19.3825Z" fill="currentColor"/>
</svg>
