<svg width="72" height="72" viewBox="0 0 72 72" fill="none" xmlns="http://www.w3.org/2000/svg">
<path d="M38.85 8.41998H32.02" stroke="currentColor" stroke-miterlimit="10" stroke-linecap="round"/>
<path d="M52.63 31.5V64.43C52.6301 64.735 52.5692 65.0369 52.451 65.3181C52.3329 65.5992 52.1597 65.8539 51.9417 66.0672C51.7237 66.2805 51.4654 66.4482 51.1817 66.5603C50.8981 66.6724 50.5949 66.7267 50.29 66.72H20.29C19.9889 66.7213 19.6905 66.663 19.4121 66.5484C19.1337 66.4338 18.8807 66.2652 18.6678 66.0522C18.4549 65.8393 18.2863 65.5864 18.1716 65.3079C18.057 65.0295 17.9987 64.7311 18 64.43V60.5M52.59 11.5V7.29002C52.59 6.98845 52.5305 6.68985 52.4148 6.41136C52.299 6.13287 52.1295 5.87998 51.9158 5.6672C51.7021 5.45442 51.4484 5.28595 51.1694 5.17146C50.8905 5.05697 50.5916 4.99871 50.29 5.00002H49M36.5 5.00002H20.29C19.9889 4.9987 19.6905 5.05703 19.4121 5.17164C19.1337 5.28626 18.8807 5.45489 18.6678 5.6678C18.4549 5.88071 18.2863 6.13368 18.1716 6.41211C18.057 6.69055 17.9987 6.98892 18 7.29002V47.5" stroke="currentColor" stroke-linecap="round" stroke-linejoin="round"/>
<path d="M35.3 63.0299C36.7083 63.0299 37.85 61.8883 37.85 60.4799C37.85 59.0716 36.7083 57.9299 35.3 57.9299C33.8917 57.9299 32.75 59.0716 32.75 60.4799C32.75 61.8883 33.8917 63.0299 35.3 63.0299Z" stroke="currentColor" stroke-linecap="round" stroke-linejoin="round"/>
<path d="M43 2C43 3.65685 41.6569 5 40 5C41.6569 5 43 6.34315 43 8C43 6.34315 44.3431 5 46 5C44.3431 5 43 3.65685 43 2Z" stroke="currentColor" stroke-linecap="round" stroke-linejoin="round"/>
<path d="M18 51C18 52.6569 16.6569 54 15 54C16.6569 54 18 55.3431 18 57C18 55.3431 19.3431 54 21 54C19.3431 54 18 52.6569 18 51Z" stroke="currentColor" stroke-linecap="round" stroke-linejoin="round"/>
<path d="M52.5 15C52.5 18.5898 49.5898 21.5 46 21.5C49.5898 21.5 52.5 24.4102 52.5 28C52.5 24.4102 55.4102 21.5 59 21.5C55.4102 21.5 52.5 18.5898 52.5 15Z" stroke="currentColor" stroke-linecap="round" stroke-linejoin="round"/>
<line x1="35" y1="45.2929" x2="40.2929" y2="40" stroke="currentColor" stroke-linecap="round"/>
<line x1="27" y1="45.2929" x2="42.2929" y2="30" stroke="currentColor" stroke-linecap="round"/>
</svg>
