<svg width="72" height="72" viewBox="0 0 72 72" fill="none" xmlns="http://www.w3.org/2000/svg">
<path d="M42.4514 26.6455C42.4514 27.8908 42.0821 29.1081 41.3903 30.1435C40.6985 31.1789 39.7151 31.9858 38.5647 32.4624C37.4142 32.9389 36.1483 33.0636 34.9269 32.8207C33.7056 32.5777 32.5838 31.9781 31.7032 31.0976C30.8227 30.217 30.223 29.0952 29.9801 27.8738C29.7372 26.6525 29.8619 25.3866 30.3384 24.2361C30.8149 23.0856 31.6219 22.1023 32.6573 21.4105C33.6927 20.7187 34.91 20.3494 36.1553 20.3494V20.3494C36.9593 20.3254 37.7602 20.4603 38.5121 20.7463C39.264 21.0322 39.952 21.4637 40.5369 22.0161C41.1217 22.5684 41.5919 23.2306 41.9204 23.9649C42.2489 24.6992 42.4294 25.4911 42.4514 26.2952V26.6455V26.6455Z" vector-effect="non-scaling-stroke" stroke-width='1' stroke="currentColor" stroke-linecap="round" stroke-linejoin="round"/>
<path d="M46.5053 52.7815V43.2722C46.5145 41.9333 46.2593 40.6058 45.7542 39.3658C45.2491 38.1258 44.5042 36.9977 43.5621 36.0463C42.62 35.0949 41.4993 34.3389 40.2643 33.8217C39.0293 33.3045 37.7044 33.0362 36.3654 33.0323H36.2954C34.9565 33.0283 33.63 33.2888 32.392 33.7987C31.154 34.3087 30.0289 35.058 29.0812 36.0039C28.1335 36.9497 27.382 38.0733 26.8696 39.3103C26.3572 40.5473 26.0941 41.8733 26.0955 43.2122V43.2722V52.7815" vector-effect="non-scaling-stroke" stroke-width='1' stroke="currentColor" stroke-linecap="round" stroke-linejoin="round"/>
<path d="M64.3526 25.0948C66.8224 31.5777 66.9848 38.7133 64.8125 45.3018C62.6403 51.8904 58.2659 57.5302 52.4248 61.273C46.5837 65.0158 39.632 66.6335 32.7385 65.854C25.845 65.0745 19.4301 61.9453 14.5723 56.9927C9.7144 52.04 6.70983 45.5658 6.06369 38.6586C5.41755 31.7513 7.16923 24.8322 11.0242 19.0645C14.8793 13.2968 20.6025 9.03221 27.2318 6.98771C33.8611 4.94321 40.9922 5.24348 47.4262 7.83803" vector-effect="non-scaling-stroke" stroke-width='1' stroke="currentColor" stroke-linecap="round" stroke-linejoin="round"/>
<path d="M57.1255 24.2934C62.2833 24.2934 66.4645 20.1121 66.4645 14.9543C66.4645 9.79648 62.2833 5.61523 57.1255 5.61523C51.9676 5.61523 47.7864 9.79648 47.7864 14.9543C47.7864 20.1121 51.9676 24.2934 57.1255 24.2934Z" vector-effect="non-scaling-stroke" stroke-width='1' stroke="currentColor" stroke-miterlimit="10"/>
<path d="M58.2165 9.80957V13.8735H62.1103V15.6152H58.2165V19.7392H56.3848V15.6152H52.481V13.8735H56.3848V9.80957H58.2165Z" fill="currentColor"/>
</svg>
