<svg role="img" width="24" height="24" viewBox="0 0 24 24" fill="none" xmlns="http://www.w3.org/2000/svg">
<path fill-rule="evenodd" clip-rule="evenodd" d="M19.0757 3.96198C14.7594 0.0800934 8.11377 0.437816 4.23249 4.75346C0.350688 9.06969 0.708177 15.7187 5.02414 19.5968L5.02417 19.5968C8.4423 22.6677 13.4469 23.1562 17.3871 20.8339C17.4314 20.8566 17.4825 20.8836 17.5402 20.9147C17.7824 21.0454 18.1138 21.2354 18.4795 21.4544C19.2146 21.8946 20.0601 22.4348 20.5785 22.8268C20.6653 22.8925 20.7712 22.928 20.8801 22.928C21.2225 22.7923 21.3795 22.4043 21.3739 22.3498C21.3709 22.3324 21.3651 22.3066 21.3629 22.2982C21.3596 22.2857 21.3564 22.2758 21.3557 22.2735L21.3556 22.2734L21.3509 22.2596L21.3459 22.2456L21.333 22.2106L21.2868 22.0866L21.2623 22.0212L21.1229 21.6474C20.9874 21.2837 20.8075 20.7985 20.63 20.3109C20.4523 19.8225 20.2781 19.3351 20.1536 18.966C20.1061 18.825 20.067 18.7049 20.0381 18.6103C23.734 14.2912 23.3271 7.78553 19.0757 3.96198ZM4.97602 5.42216C8.48859 1.51648 14.502 1.19354 18.407 4.70551C22.3125 8.2179 22.6325 14.2314 19.1235 18.1366L19.1209 18.1395C19.0214 18.252 19.0028 18.3735 18.998 18.4062C18.9911 18.4546 18.9922 18.4947 18.9933 18.5162C18.9957 18.5608 19.0028 18.601 19.0077 18.626C19.0184 18.6803 19.0349 18.7425 19.0523 18.8035C19.0883 18.929 19.1422 19.0961 19.2061 19.2855C19.3345 19.6664 19.512 20.1629 19.6904 20.653C19.7495 20.8154 19.8089 20.9775 19.8668 21.135C19.5721 20.9478 19.2727 20.7638 18.9932 20.5964C18.6198 20.3729 18.2747 20.1748 18.0152 20.0347C17.8866 19.9653 17.7722 19.9065 17.6832 19.8654C17.6406 19.8458 17.5914 19.8245 17.544 19.8085C17.5222 19.8011 17.4827 19.7886 17.4354 19.7812C17.412 19.7775 17.3705 19.7723 17.3195 19.7753C17.2774 19.7778 17.1799 19.7881 17.0776 19.8524C13.4829 22.0894 8.84295 21.6833 5.69247 18.8529C1.78713 15.3438 1.46397 9.32726 4.97602 5.42216ZM17.0776 19.8524L17.079 19.8514L17.3433 20.2759L17.066 19.8599L17.0776 19.8524ZM8 8.49951C7.72386 8.49951 7.5 8.72337 7.5 8.99951C7.5 9.27565 7.72386 9.49951 8 9.49951H13C13.2761 9.49951 13.5 9.27565 13.5 8.99951C13.5 8.72337 13.2761 8.49951 13 8.49951H8ZM14.5 8.99951C14.5 8.72337 14.7239 8.49951 15 8.49951H16C16.2761 8.49951 16.5 8.72337 16.5 8.99951C16.5 9.27565 16.2761 9.49951 16 9.49951H15C14.7239 9.49951 14.5 9.27565 14.5 8.99951ZM8 11.4995C7.72386 11.4995 7.5 11.7234 7.5 11.9995C7.5 12.2757 7.72386 12.4995 8 12.4995H16C16.2761 12.4995 16.5 12.2757 16.5 11.9995C16.5 11.7234 16.2761 11.4995 16 11.4995H8ZM7.5 14.9995C7.5 14.7234 7.72386 14.4995 8 14.4995H13C13.2761 14.4995 13.5 14.7234 13.5 14.9995C13.5 15.2757 13.2761 15.4995 13 15.4995H8C7.72386 15.4995 7.5 15.2757 7.5 14.9995ZM15 14.4995C14.7239 14.4995 14.5 14.7234 14.5 14.9995C14.5 15.2757 14.7239 15.4995 15 15.4995H16C16.2761 15.4995 16.5 15.2757 16.5 14.9995C16.5 14.7234 16.2761 14.4995 16 14.4995H15Z" fill="currentColor"/>
</svg>
