<svg role="img" xmlns="http://www.w3.org/2000/svg" width="24" height="24" fill="none" viewBox="0 0 24 24">
  <path stroke="currentColor" stroke-linecap="round" stroke-linejoin="round" d="M21.2855 18.0409c0-.5411-.4386-.9796-.9796-.9796s-.9796.4385-.9796.9796c0 .541.4386.9795.9796.9795s.9796-.4385.9796-.9795ZM4.9592 11.8367c0-.541-.4386-.9796-.9796-.9796S3 11.2957 3 11.8367s.4386.9796.9796.9796.9796-.4386.9796-.9796Zm7.8781-6.8775c0-.5523-.4477-1-1-1s-1 .4477-1 1c0 .5522.4477 1 1 1s1-.4478 1-1Zm4.8563 4.2652c0-.541-.4386-.9795-.9796-.9795s-.9796.4385-.9796.9795.4386.9796.9796.9796.9796-.4385.9796-.9796Z"/>
  <path stroke="currentColor" d="m11.8649 5.796.4516 6.0407"/>
  <path stroke="currentColor" stroke-linecap="round" stroke-linejoin="round" d="M10.1834 19.0204c0-.541-.4386-.9796-.9796-.9796s-.9796.4386-.9796.9796.4386.9796.9796.9796.9796-.4386.9796-.9796Zm4.0812-4.2576 5.2245 2.8571M4.9586 12.0705l5.551 1.2853m.9134 2.0728-1.7227 2.7755m6.3612-8.1926-2.2021 2.315m.5699 1.4694c0-1.0821-.8771-1.9591-1.9591-1.9591-1.0821 0-1.9592.877-1.9592 1.9591 0 1.082.8771 1.9592 1.9592 1.9592 1.082 0 1.9591-.8772 1.9591-1.9592Z"/>
</svg>
