<svg role="img" xmlns="http://www.w3.org/2000/svg" width="72" height="72" fill="none" viewBox="0 0 72 72">
  <path stroke="currentColor" stroke-linecap="round" stroke-linejoin="round" d="M65.2859 55.7551c0-1.7245-1.398-3.1224-3.1224-3.1224-1.7245 0-3.1225 1.3979-3.1225 3.1224s1.398 3.1225 3.1225 3.1225c1.7244 0 3.1224-1.398 3.1224-3.1225Zm-52.041-19.7755c0-1.7245-1.398-3.1224-3.1225-3.1224C8.398 32.8572 7 34.2551 7 35.9796s1.398 3.1225 3.1224 3.1225c1.7245 0 3.1225-1.398 3.1225-3.1225Zm24.9795-21.8572c0-1.7245-1.398-3.1224-3.1225-3.1224-1.7244 0-3.1224 1.3979-3.1224 3.1224s1.398 3.1225 3.1224 3.1225c1.7245 0 3.1225-1.398 3.1225-3.1225Zm15.6123 13.5307c0-1.7245-1.398-3.1225-3.1225-3.1225-1.7244 0-3.1224 1.398-3.1224 3.1225 0 1.7244 1.398 3.1224 3.1224 3.1224 1.7245 0 3.1225-1.398 3.1225-3.1224Z"/>
  <path stroke="currentColor" d="m35.2578 16.7245 1.4396 19.2551"/>
  <path stroke="currentColor" stroke-linecap="round" stroke-linejoin="round" d="M29.8982 58.8776c0-1.7245-1.398-3.1225-3.1224-3.1225-1.7245 0-3.1225 1.398-3.1225 3.1225 0 1.7244 1.398 3.1224 3.1225 3.1224 1.7244 0 3.1224-1.398 3.1224-3.1224Zm13.01-13.5713 16.6531 9.1072M13.245 36.7247l17.6938 4.0969m2.9079 6.607-5.4912 8.8469m20.2769-26.1138-7.0191 7.3791m1.815 4.6835c0-3.449-2.796-6.2447-6.2449-6.2447-3.449 0-6.2449 2.7957-6.2449 6.2447 0 3.4489 2.7959 6.2451 6.2449 6.2451 3.4489 0 6.2449-2.7962 6.2449-6.2451Z"/>
</svg>
