<svg width="72" height="72" viewBox="0 0 72 72" fill="none" xmlns="http://www.w3.org/2000/svg">

<path d="M31.2704 35.6947C31.2704 42.7916 25.5148 48.5472 18.4179 48.5472C11.321 48.5472 5.56543 42.7916 5.56543 35.6947C5.56543 28.5978 11.321 22.8422 18.4179 22.8422C25.5148 22.8322 31.2604 28.5778 31.2704 35.6747C31.2704 35.6847 31.2704 35.6847 31.2704 35.6947Z" stroke="currentColor" stroke-miterlimit="10" stroke-linecap="round"/>
<path d="M66.5547 35.6947C66.5547 42.7916 60.7991 48.5472 53.7022 48.5472C46.6053 48.5472 40.8497 42.7916 40.8497 35.6947C40.8497 28.5978 46.6053 22.8422 53.7022 22.8422C60.7991 22.8322 66.5447 28.5778 66.5547 35.6747C66.5547 35.6847 66.5547 35.6847 66.5547 35.6947Z" stroke="currentColor" stroke-miterlimit="10" stroke-linecap="round"/>
<path d="M19.3988 48.4871H54.533" stroke="currentColor" stroke-miterlimit="10" stroke-linecap="round"/>


</svg>
