<svg width="24" height="24" viewBox="0 0 24 24" fill="none" xmlns="http://www.w3.org/2000/svg">
<path d="M10.4233 11.8984C10.4233 14.2641 8.50478 16.1826 6.13915 16.1826C3.77351 16.1826 1.85498 14.2641 1.85498 11.8984C1.85498 9.53279 3.77351 7.61426 6.13915 7.61426C8.50478 7.61093 10.42 9.52612 10.4233 11.8918C10.4233 11.8951 10.4233 11.8951 10.4233 11.8984Z" stroke="currentColor" stroke-miterlimit="10" stroke-linecap="round"/>
<path d="M22.185 11.8984C22.185 14.2641 20.2665 16.1826 17.9009 16.1826C15.5352 16.1826 13.6167 14.2641 13.6167 11.8984C13.6167 9.53279 15.5352 7.61426 17.9009 7.61426C20.2665 7.61093 22.1817 9.52612 22.185 11.8918C22.185 11.8951 22.185 11.8951 22.185 11.8984Z" stroke="currentColor" stroke-miterlimit="10" stroke-linecap="round"/>
<path d="M6.46631 16.1621H18.1777" stroke="currentColor" stroke-miterlimit="10" stroke-linecap="round"/>
</svg>
