<svg width="72" height="72" viewBox="0 0 72 72" fill="none" xmlns="http://www.w3.org/2000/svg">

<path d="M31.6308 16.0957H5.40527V34.0431H31.6308V16.0957Z" stroke="currentColor" stroke-linecap="round" stroke-linejoin="round"/>
<path d="M5.71521 16.9357L18.7479 28.1666L31.25 16.9557" stroke="currentColor" stroke-linecap="round" stroke-linejoin="round"/>
<path d="M13.2926 27.2665L5.78528 33.8629" stroke="currentColor" stroke-linecap="round" stroke-linejoin="round"/>
<path d="M24.4738 27.2164L31.4706 33.993" stroke="currentColor" stroke-linecap="round" stroke-linejoin="round"/>
<path d="M50.5592 31.3905C52.0507 29.889 54.483 29.889 55.9845 31.3905" stroke="currentColor" stroke-linecap="round" stroke-linejoin="round"/>
<path d="M47.296 28.3675C50.5892 25.0643 55.9444 25.0643 59.2476 28.3675" stroke="currentColor" stroke-linecap="round" stroke-linejoin="round"/>
<path d="M43.8827 25.3747C49.0577 20.1896 57.4559 20.1896 62.6409 25.3646L62.6509 25.3747" stroke="currentColor" stroke-linecap="round" stroke-linejoin="round"/>
<path d="M39.7687 22.5311C47.2059 15.0638 59.2877 15.0438 66.7449 22.4811C66.7649 22.5011 66.7749 22.5111 66.795 22.5311" stroke="currentColor" stroke-linecap="round" stroke-linejoin="round"/>
<path d="M53.3017 34.423C53.4177 34.423 53.5117 34.329 53.5117 34.2131C53.5117 34.0971 53.4177 34.0031 53.3017 34.0031C53.1857 34.0031 53.0917 34.0971 53.0917 34.2131C53.0917 34.329 53.1857 34.423 53.3017 34.423Z" stroke="currentColor" stroke-linecap="round" stroke-linejoin="round"/>
<path d="M62.0403 40.4294V51.1097C62.0403 51.5902 61.65 51.9806 61.1695 51.9806H57.8663V56.1346L53.7923 51.9806H46.305C45.8246 51.9706 45.4442 51.5902 45.4342 51.1097V40.4294C45.4442 39.9489 45.8346 39.5585 46.3151 39.5585H61.1295C61.6099 39.5385 62.0203 39.9089 62.0403 40.3893C62.0403 40.3993 62.0403 40.4193 62.0403 40.4294Z" stroke="currentColor" stroke-linecap="round" stroke-linejoin="round"/>
<path d="M48.1569 45.0839H50.2789C50.4591 45.0839 50.5992 45.224 50.5992 45.4042V47.5262C50.5992 47.7064 50.4591 47.8465 50.2789 47.8465H48.1569C47.9767 47.8465 47.8365 47.7064 47.8365 47.5262V45.4042C47.8365 45.224 47.9767 45.0839 48.1569 45.0839Z" stroke="currentColor" stroke-linecap="round" stroke-linejoin="round"/>
<path d="M52.6613 45.0839H54.7833C54.9635 45.0839 55.1036 45.224 55.1036 45.4042V47.5262C55.1036 47.7064 54.9635 47.8465 54.7833 47.8465H52.6613C52.4811 47.8465 52.3409 47.7064 52.3409 47.5262V45.4042C52.3409 45.224 52.4811 45.0839 52.6613 45.0839Z" stroke="currentColor" stroke-linecap="round" stroke-linejoin="round"/>
<path d="M57.1555 45.0839H59.2776C59.4578 45.0839 59.5979 45.224 59.5979 45.4042V47.5262C59.5979 47.7064 59.4578 47.8465 59.2776 47.8465H57.1555C56.9753 47.8465 56.8352 47.7064 56.8352 47.5262V45.4042C56.8352 45.224 56.9753 45.0839 57.1555 45.0839Z" stroke="currentColor" stroke-linecap="round" stroke-linejoin="round"/>
<path d="M31.7808 47.4953C31.7808 50.5283 29.3185 52.9907 26.2855 52.9907C23.2526 52.9907 20.7902 50.5283 20.7902 47.4953C20.7902 44.4624 23.2526 42 26.2855 42C29.3185 42 31.7808 44.4624 31.7808 47.4953Z" stroke="currentColor" stroke-linecap="round" stroke-linejoin="round"/>
<path d="M16.9907 47.4953C16.9907 50.5283 14.5283 52.9907 11.4953 52.9907C8.46239 52.9907 6 50.5283 6 47.4953C6 44.4624 8.46239 42 11.4953 42C14.5283 42 16.9907 44.4624 16.9907 47.4953Z" stroke="currentColor" stroke-linecap="round" stroke-linejoin="round"/>
<path d="M10.9307 53H26.1154" stroke="currentColor" stroke-linecap="round" stroke-linejoin="round"/>


</svg>
