<svg width="72" height="72" viewBox="0 0 72 72" fill="none" xmlns="http://www.w3.org/2000/svg">
<g>
<path d="M11.5096 21.04H28.2735" stroke="currentColor" stroke-linecap="round" stroke-linejoin="round"/>
<path d="M28.8008 12.5H10.8771V54.8841H28.8008V12.5Z" stroke="currentColor" stroke-linecap="round" stroke-linejoin="round"/>
<path d="M11.826 29.5801H28.5898" stroke="currentColor" stroke-linecap="round" stroke-linejoin="round"/>
<path d="M17.9411 16.8228H21.6313" stroke="currentColor" stroke-linecap="round" stroke-linejoin="round"/>
<path d="M24.3724 47.3983H25.4268" stroke="currentColor" stroke-linecap="round" stroke-linejoin="round"/>
<path d="M19.2063 47.3983H20.2606" stroke="currentColor" stroke-linecap="round" stroke-linejoin="round"/>
<path d="M13.9346 47.3983H15.0944" stroke="currentColor" stroke-linecap="round" stroke-linejoin="round"/>
<path d="M24.3724 41.1777H25.4268" stroke="currentColor" stroke-linecap="round" stroke-linejoin="round"/>
<path d="M19.2063 41.1777H20.2606" stroke="currentColor" stroke-linecap="round" stroke-linejoin="round"/>
<path d="M13.9346 41.1777H15.0944" stroke="currentColor" stroke-linecap="round" stroke-linejoin="round"/>
<path d="M24.3724 34.8518H25.4268" stroke="currentColor" stroke-linecap="round" stroke-linejoin="round"/>
<path d="M19.2063 34.8518H20.2606" stroke="currentColor" stroke-linecap="round" stroke-linejoin="round"/>
<path d="M13.9346 34.8518H15.0944" stroke="currentColor" stroke-linecap="round" stroke-linejoin="round"/>
<path d="M31.7528 52.67H33.9669V60.0504H5.5V52.67H7.60866" stroke="currentColor" stroke-linecap="round" stroke-linejoin="round"/>
<path d="M55.4545 20.1818H50" stroke="currentColor" stroke-miterlimit="10" stroke-linecap="round"/>
<path d="M65 19.5898C65.0011 19.3815 64.9608 19.1749 64.8813 18.9821C64.8018 18.7892 64.6846 18.6139 64.5366 18.4662C64.3887 18.3184 64.2127 18.2012 64.0189 18.1212C63.8252 18.0412 63.6174 18 63.4075 18H42.5925C42.3826 18 42.1748 18.0412 41.9811 18.1212C41.7873 18.2012 41.6113 18.3184 41.4634 18.4662C41.3154 18.6139 41.1983 18.7892 41.1187 18.9821C41.0392 19.1749 40.9989 19.3815 41 19.5898V58.9642C40.9989 59.1722 41.0393 59.3783 41.1189 59.5707C41.1985 59.763 41.3158 59.9378 41.4639 60.0849C41.612 60.2319 41.788 60.3483 41.9817 60.4274C42.1754 60.5065 42.383 60.5466 42.5925 60.5454H63.4075C63.617 60.5466 63.8246 60.5065 64.0183 60.4274C64.212 60.3483 64.388 60.2319 64.5361 60.0849C64.6842 59.9378 64.8015 59.763 64.8811 59.5707C64.9607 59.3783 65.0011 59.1722 65 58.9642V19.5898Z" stroke="currentColor" stroke-linecap="round" stroke-linejoin="round"/>
<path d="M52.6364 58.3637C53.5402 58.3637 54.2728 57.631 54.2728 56.7273C54.2728 55.8236 53.5402 55.0909 52.6364 55.0909C51.7327 55.0909 51.0001 55.8236 51.0001 56.7273C51.0001 57.631 51.7327 58.3637 52.6364 58.3637Z" stroke="currentColor" stroke-linecap="round" stroke-linejoin="round"/>
</g>

</svg>
