<svg width="72" height="72" viewBox="0 0 72 72" fill="none" xmlns="http://www.w3.org/2000/svg">
<path d="M11.5098 21.04H28.2736" stroke="currentColor" stroke-linecap="round" stroke-linejoin="round"/>
<path d="M28.8006 12.5H10.877V54.8841H28.8006V12.5Z" stroke="currentColor" stroke-linecap="round" stroke-linejoin="round"/>
<path d="M11.8262 29.5801H28.59" stroke="currentColor" stroke-linecap="round" stroke-linejoin="round"/>
<path d="M17.9409 16.8223H21.6311" stroke="currentColor" stroke-linecap="round" stroke-linejoin="round"/>
<path d="M24.3726 47.3984H25.4269" stroke="currentColor" stroke-linecap="round" stroke-linejoin="round"/>
<path d="M19.2061 47.3984H20.2604" stroke="currentColor" stroke-linecap="round" stroke-linejoin="round"/>
<path d="M13.9346 47.3984H15.0943" stroke="currentColor" stroke-linecap="round" stroke-linejoin="round"/>
<path d="M24.3726 41.1777H25.4269" stroke="currentColor" stroke-linecap="round" stroke-linejoin="round"/>
<path d="M19.2061 41.1777H20.2604" stroke="currentColor" stroke-linecap="round" stroke-linejoin="round"/>
<path d="M13.9346 41.1777H15.0943" stroke="currentColor" stroke-linecap="round" stroke-linejoin="round"/>
<path d="M24.3726 34.8516H25.4269" stroke="currentColor" stroke-linecap="round" stroke-linejoin="round"/>
<path d="M19.2061 34.8516H20.2604" stroke="currentColor" stroke-linecap="round" stroke-linejoin="round"/>
<path d="M13.9346 34.8516H15.0943" stroke="currentColor" stroke-linecap="round" stroke-linejoin="round"/>
<path d="M31.7528 52.6699H33.9669V60.0502H5.5V52.6699H7.60866" stroke="currentColor" stroke-linecap="round" stroke-linejoin="round"/>
<path d="M55.4545 20.1816H50" stroke="currentColor" stroke-miterlimit="10" stroke-linecap="round"/>
<path d="M65 19.5898C65.0011 19.3815 64.9608 19.1749 64.8813 18.9821C64.8018 18.7892 64.6846 18.6139 64.5366 18.4662C64.3887 18.3184 64.2127 18.2012 64.0189 18.1212C63.8252 18.0412 63.6174 18 63.4075 18H42.5925C42.3826 18 42.1748 18.0412 41.9811 18.1212C41.7873 18.2012 41.6113 18.3184 41.4634 18.4662C41.3154 18.6139 41.1983 18.7892 41.1187 18.9821C41.0392 19.1749 40.9989 19.3815 41 19.5898V58.9642C40.9989 59.1722 41.0393 59.3783 41.1189 59.5707C41.1985 59.763 41.3158 59.9378 41.4639 60.0849C41.612 60.2319 41.788 60.3483 41.9817 60.4274C42.1754 60.5065 42.383 60.5466 42.5925 60.5454H63.4075C63.617 60.5466 63.8246 60.5065 64.0183 60.4274C64.212 60.3483 64.388 60.2319 64.5361 60.0849C64.6842 59.9378 64.8015 59.763 64.8811 59.5707C64.9607 59.3783 65.0011 59.1722 65 58.9642V19.5898Z" stroke="currentColor" stroke-linecap="round" stroke-linejoin="round"/>
<path d="M52.6364 58.3635C53.5401 58.3635 54.2727 57.6309 54.2727 56.7272C54.2727 55.8234 53.5401 55.0908 52.6364 55.0908C51.7326 55.0908 51 55.8234 51 56.7272C51 57.6309 51.7326 58.3635 52.6364 58.3635Z" stroke="currentColor" stroke-linecap="round" stroke-linejoin="round"/>
</svg>
