<svg role="img" width="24" height="24" viewBox="0 0 24 24" fill="none" xmlns="http://www.w3.org/2000/svg">
<path d="M4.03387 18.248C4.34084 17.5807 4.63779 16.9534 4.94809 16.3195C5.03818 16.1627 5.03818 15.9725 4.94809 15.8157C4.68784 15.2885 4.4743 14.7379 4.21738 14.2074C4.15065 14.0539 4.03387 13.9272 3.88372 13.8471C3.25978 13.6168 2.66254 13.41 2.02859 13.2165C1.85842 13.1898 1.74498 13.0296 1.77167 12.8628C1.77167 12.8594 1.77167 12.8561 1.77167 12.8528C1.77167 12.2489 1.79169 11.6416 1.77167 11.0377C1.72162 10.8075 1.86509 10.5839 2.09532 10.5339C2.10533 10.5305 2.11534 10.5305 2.12535 10.5272C2.7226 10.3503 3.31317 10.1368 3.89373 9.91658C4.0272 9.85319 4.13063 9.74308 4.19403 9.60962C4.46095 9.06909 4.69785 8.51189 4.96811 7.9747C5.05486 7.83122 5.05486 7.65105 4.96811 7.50758C4.67783 6.93035 4.40757 6.33977 4.12396 5.75587C4.04054 5.63242 4.06724 5.46225 4.18735 5.37217C4.65781 4.92173 5.12159 4.46128 5.5687 3.99082C5.67547 3.8607 5.86231 3.82733 6.00579 3.91742C6.57634 4.20436 7.1469 4.48464 7.7308 4.74155C7.88094 4.79828 8.04777 4.79828 8.19792 4.74155C8.75179 4.53802 9.29899 4.31447 9.83952 4.07424C9.97298 4.01418 10.0831 3.90741 10.1498 3.77728C10.3834 3.20005 10.5802 2.60614 10.8171 2.02892C10.8805 1.91214 10.9906 1.83206 11.1208 1.8087C11.7881 1.78868 12.4554 1.8087 13.1227 1.8087C13.2829 1.78535 13.4297 1.89545 13.4564 2.05227C13.6532 2.63284 13.8568 3.21006 14.087 3.78062C14.1604 3.91742 14.2772 4.02753 14.4206 4.08758C14.9712 4.32448 15.5317 4.5447 16.0889 4.7549C16.2191 4.80161 16.3625 4.80161 16.4927 4.7549C17.16 4.45461 17.8039 4.1343 18.4512 3.82399C19.0018 4.36786 19.5456 4.8917 20.0661 5.43223C20.1228 5.54233 20.1228 5.6758 20.0661 5.7859C19.7959 6.38649 19.4989 6.97706 19.2253 7.57764C19.1819 7.69776 19.1819 7.82455 19.2253 7.94467C19.4322 8.50855 19.6491 9.06909 19.8926 9.61296C19.9594 9.75977 20.0795 9.87988 20.2263 9.94661C20.7802 10.1768 21.3474 10.377 21.9179 10.5772C22.0781 10.6039 22.1849 10.7507 22.1682 10.9109C22.1548 11.5782 22.1548 12.2455 22.1682 12.9128C22.1682 13.113 22.0881 13.1831 21.9113 13.2465C21.354 13.44 20.8035 13.6569 20.243 13.8504C20.0595 13.9071 19.9193 14.0573 19.8759 14.2441C19.6958 14.7913 19.4655 15.3252 19.2754 15.8724C19.2253 16.0125 19.2253 16.1693 19.2754 16.3095C19.5389 16.9034 19.8192 17.4873 20.1095 18.0678C20.1929 18.1913 20.1662 18.3615 20.0461 18.4515C19.5223 18.9654 19.0084 19.4859 18.4779 20.0197C17.8106 19.7094 17.1666 19.3891 16.5027 19.0988C16.3525 19.0521 16.1924 19.0588 16.0455 19.1189C15.4984 19.3391 14.9545 19.5726 14.4206 19.8262C14.2672 19.8929 14.1404 20.0131 14.0636 20.1599C13.8334 20.7638 13.6299 21.3777 13.4297 21.995C13.403 22.1451 13.2662 22.2452 13.116 22.2252C12.4487 22.2252 11.7814 22.2252 11.1141 22.2252C10.9539 22.2452 10.8071 22.1351 10.7804 21.975C10.5736 21.351 10.3567 20.7271 10.1131 20.1098C10.0664 19.9897 9.97631 19.8929 9.86287 19.8329C9.29899 19.5693 8.7251 19.3124 8.14787 19.0755C8.00773 19.0254 7.85425 19.0254 7.71412 19.0755C7.1202 19.3357 6.54298 19.6294 5.9524 19.8929C5.8423 19.9363 5.71884 19.9263 5.61874 19.8663C5.10491 19.3224 4.5744 18.7852 4.03387 18.248ZM12.1418 15.9725C14.4006 15.9591 16.2191 14.1173 16.2024 11.8585C16.189 9.59961 14.3472 7.78118 12.0884 7.79786C9.82951 7.81454 8.01107 9.653 8.02775 11.9119C8.04444 14.1707 9.88289 15.9858 12.1418 15.9725Z" stroke="currentColor" stroke-miterlimit="10"/>
</svg>
