<svg width="72" height="72" viewBox="0 0 72 72" fill="none" xmlns="http://www.w3.org/2000/svg">
<path d="M12.1019 54.7432C13.0228 52.7413 13.9136 50.8594 14.8445 48.9576C15.1148 48.4871 15.1148 47.9166 14.8445 47.4461C14.0638 45.8646 13.4231 44.213 12.6524 42.6214C12.4522 42.161 12.1019 41.7806 11.6514 41.5404C9.7796 40.8497 7.98785 40.2291 6.08601 39.6485C5.57551 39.5684 5.23518 39.088 5.31526 38.5875C5.31526 38.5775 5.31526 38.5675 5.31526 38.5575C5.31526 36.7457 5.37531 34.9239 5.31526 33.1122C5.16511 32.4215 5.59553 31.7508 6.2862 31.6007C6.31623 31.5907 6.34626 31.5907 6.37629 31.5807C8.16803 31.0502 9.93975 30.4095 11.6814 29.7489C12.0818 29.5587 12.3921 29.2284 12.5823 28.828C13.3831 27.2064 14.0938 25.5348 14.9046 23.9232C15.1648 23.4928 15.1648 22.9523 14.9046 22.5219C14.0337 20.7902 13.2229 19.0185 12.3721 17.2668C12.1219 16.8964 12.202 16.3859 12.5623 16.1156C13.9737 14.7643 15.365 13.383 16.7063 11.9716C17.0266 11.5812 17.5872 11.4811 18.0176 11.7514C19.7293 12.6122 21.4409 13.4531 23.1926 14.2238C23.6431 14.394 24.1436 14.394 24.594 14.2238C26.2556 13.6132 27.8972 12.9426 29.5188 12.2219C29.9192 12.0417 30.2495 11.7214 30.4497 11.331C31.1504 9.59931 31.7409 7.81758 32.4516 6.08589C32.6418 5.73555 32.9721 5.49532 33.3625 5.42525C35.3645 5.36519 37.3664 5.42525 39.3684 5.42525C39.8488 5.35518 40.2893 5.68551 40.3693 6.15596C40.9599 7.89766 41.5705 9.62934 42.2612 11.341C42.4814 11.7514 42.8317 12.0817 43.2622 12.2619C44.9138 12.9726 46.5954 13.6332 48.267 14.2638C48.6574 14.404 49.0878 14.404 49.4782 14.2638C51.4801 13.363 53.412 12.402 55.3539 11.4711C57.0055 13.1027 58.6371 14.6742 60.1986 16.2958C60.3688 16.6261 60.3688 17.0265 60.1986 17.3569C59.3878 19.1586 58.497 20.9303 57.6762 22.7321C57.546 23.0924 57.546 23.4728 57.6762 23.8331C58.2968 25.5248 58.9474 27.2064 59.6781 28.838C59.8783 29.2784 60.2387 29.6388 60.6791 29.839C62.3407 30.5297 64.0424 31.1302 65.754 31.7308C66.2345 31.8109 66.5548 32.2513 66.5048 32.7318C66.4647 34.7337 66.4647 36.7357 66.5048 38.7376C66.5048 39.3382 66.2645 39.5484 65.734 39.7386C64.0624 40.3192 62.4108 40.9698 60.7291 41.5504C60.1786 41.7205 59.7582 42.171 59.6281 42.7315C59.0875 44.3731 58.3969 45.9747 57.8263 47.6163C57.6762 48.0367 57.6762 48.5071 57.8263 48.9275C58.6171 50.7093 59.4579 52.461 60.3287 54.2027C60.579 54.573 60.4989 55.0835 60.1386 55.3538C58.567 56.8953 57.0255 58.4568 55.434 60.0584C53.432 59.1275 51.5002 58.1665 49.5082 57.2957C49.0578 57.1556 48.5773 57.1756 48.1369 57.3557C46.4953 58.0164 44.8637 58.7171 43.2622 59.4778C42.8017 59.678 42.4213 60.0383 42.1911 60.4788C41.5004 62.2905 40.8898 64.1323 40.2893 65.9841C40.2092 66.4346 39.7988 66.7349 39.3483 66.6748C37.3464 66.6748 35.3445 66.6748 33.3425 66.6748C32.862 66.7349 32.4216 66.4045 32.3415 65.9241C31.7209 64.0523 31.0703 62.1804 30.3396 60.3286C30.1994 59.9683 29.9292 59.678 29.5889 59.4978C27.8972 58.7071 26.1755 57.9363 24.4439 57.2256C24.0234 57.0755 23.563 57.0755 23.1426 57.2256C21.3609 58.0064 19.6292 58.8872 17.8575 59.678C17.5271 59.8081 17.1568 59.7781 16.8565 59.5979C15.315 57.9663 13.7234 56.3548 12.1019 54.7432ZM36.4255 47.9166C43.2021 47.8765 48.6574 42.3512 48.6073 35.5746C48.5673 28.798 43.0419 23.3427 36.2653 23.3927C29.4888 23.4428 24.0335 28.9581 24.0835 35.7347C24.1336 42.5113 29.6489 47.9566 36.4255 47.9166Z" stroke="currentColor" stroke-miterlimit="10"/>
</svg>
