<svg width="72" height="72" viewBox="0 0 72 72" fill="none" xmlns="http://www.w3.org/2000/svg">
<path fill-rule="evenodd" clip-rule="evenodd" d="M20.5 12C20.2239 12 20 12.2239 20 12.5V59.5687C20 59.8448 20.2239 60.0687 20.5 60.0687H31.8662C32.1424 60.0687 32.3662 59.8448 32.3662 59.5687V12.5C32.3662 12.2239 32.1424 12 31.8662 12H20.5ZM21 59.0687V13H31.3662V59.0687H21ZM40.1331 12.0005C39.8569 12.0005 39.6331 12.2244 39.6331 12.5005V59.5692C39.6331 59.8453 39.8569 60.0692 40.1331 60.0692H51.4993C51.7754 60.0692 51.9993 59.8453 51.9993 59.5692V12.5005C51.9993 12.2244 51.7754 12.0005 51.4993 12.0005H40.1331ZM40.6331 59.0692V13.0005H50.9993V59.0692H40.6331Z" fill="currentColor"/>
</svg>
