<svg width="24" height="24" viewBox="0 0 24 24" fill="none" xmlns="http://www.w3.org/2000/svg">
<path fill-rule="evenodd" clip-rule="evenodd" d="M4.94599 5.17067C8.74113 2.40412 14.0625 3.25444 16.7952 7.05178L16.8026 7.06232L17.7308 6.47329L17.8637 5.56885C17.8858 5.41808 17.9731 5.29297 18.0928 5.21785L19.8775 4.02806C19.9471 3.98002 20.0291 3.94941 20.1166 3.94167C20.1356 3.93999 20.1548 3.93939 20.1742 3.93992C20.1992 3.94059 20.2241 3.94311 20.2486 3.94746C20.3782 3.97047 20.4985 4.04428 20.5773 4.16243C20.6475 4.26776 20.6725 4.39004 20.6568 4.50636L20.5686 5.27953L21.3413 5.57499C21.5993 5.67361 21.7284 5.96265 21.6298 6.22058C21.5894 6.32619 21.5171 6.41021 21.4281 6.46585L19.6432 7.65575C19.6317 7.66366 19.6198 7.67109 19.6077 7.678C19.4885 7.74586 19.3426 7.76433 19.2041 7.71877C19.1919 7.71475 19.1798 7.71027 19.1678 7.70531L18.2403 7.33432L17.332 7.91071C18.0542 9.22063 18.4436 10.7041 18.3953 12.23L19.4754 12.321L20.0651 11.7068C20.0701 11.7015 20.0752 11.6963 20.0805 11.6912C20.1296 11.6436 20.1862 11.6079 20.2465 11.5844C20.3077 11.5605 20.3746 11.5483 20.4442 11.5506C20.4503 11.5508 20.4564 11.5511 20.4625 11.5515L21.5396 11.6177C21.5759 11.616 21.6123 11.6182 21.6482 11.6243L22.6287 11.6846C22.9044 11.7015 23.1141 11.9387 23.0971 12.2143C23.0899 12.3317 23.0428 12.4371 22.9697 12.5181L22.9586 12.5301L22.4209 13.0902L22.8549 13.8211C22.8874 13.873 22.9106 13.9312 22.9223 13.9932C22.9361 14.0658 22.9334 14.1399 22.9155 14.2101C22.9092 14.2346 22.9011 14.2587 22.8912 14.2821C22.8511 14.3768 22.7815 14.46 22.6863 14.5165C22.5914 14.5728 22.4855 14.5941 22.3835 14.5843L20.2708 14.4525C20.2594 14.4519 20.2481 14.451 20.2368 14.4496C20.0759 14.431 19.9402 14.337 19.8631 14.2056L19.3034 13.31L18.319 13.2271C17.998 15.4988 16.7554 17.5182 14.9152 18.863L14.9148 18.8633C11.1171 21.6317 5.79767 20.7433 3.06687 16.984C0.3345 13.2226 1.15153 7.93672 4.94599 5.17067ZM17.3972 12.1459C17.4285 10.8507 17.1001 9.58255 16.4858 8.44764L15.1271 9.30981L15.1307 9.31658C15.5788 10.18 15.7912 11.1021 15.7915 12.0105L17.3972 12.1459ZM15.7065 13.0069L17.3208 13.143C17.0263 15.1169 15.9386 16.8764 14.3254 18.0554C10.9799 20.494 6.28555 19.7134 3.87594 16.3963C1.46784 13.0812 2.18627 8.41992 5.53506 5.97875C8.87084 3.54706 13.5411 4.28447 15.9568 7.599L14.5976 8.46151C14.5925 8.45414 14.5871 8.44687 14.5816 8.4397C12.8334 6.18159 9.73334 5.48533 7.21269 6.80017C4.33235 8.29538 3.20014 11.8341 4.69653 14.7174C6.19159 17.5981 9.73058 18.7306 12.614 17.2341C14.3139 16.3519 15.4051 14.7579 15.7065 13.0069ZM14.7904 11.9262C14.7777 11.225 14.6125 10.5162 14.2791 9.84792L12.7825 10.7976C12.7946 10.8184 12.8053 10.8403 12.8145 10.8633C12.9347 11.1638 13.0051 11.4717 13.0296 11.7778L14.7904 11.9262ZM12.9467 12.7744L14.7054 12.9226C14.4354 14.3418 13.5382 15.6278 12.1534 16.3465C9.76287 17.5872 6.82619 16.65 5.58412 14.2568C4.34347 11.8662 5.28058 8.92957 7.67385 7.68749L7.67481 7.68699C9.74099 6.60898 12.2867 7.16049 13.7497 8.99949L12.2514 9.95028C12.239 9.93366 12.2255 9.91762 12.2108 9.90227C11.3398 8.99161 9.9898 8.67078 8.79318 9.14942C7.19871 9.78721 6.44384 11.582 7.07931 13.1707C7.7171 14.7652 9.51192 15.52 11.1006 14.8846C12.0597 14.5009 12.715 13.6986 12.9467 12.7744ZM12.0128 11.6921C11.994 11.5748 11.9651 11.4576 11.9255 11.3414L11.4478 11.6445L12.0128 11.6921ZM9.72336 11.5544C9.55565 11.6236 9.43157 11.7818 9.41529 11.975C9.3921 12.2502 9.59637 12.492 9.87154 12.5152L11.9306 12.6887C11.7432 13.2464 11.3214 13.7192 10.7292 13.9561C9.6475 14.3888 8.43815 13.8752 8.00779 12.7993C7.57511 11.7176 8.08867 10.5083 9.16457 10.0779C9.92771 9.77265 10.7927 9.94744 11.3898 10.497L9.72336 11.5544Z" fill="currentColor"/>
</svg>
