<svg width="72" height="72" viewBox="0 0 72 72" fill="none" xmlns="http://www.w3.org/2000/svg">
<path d="M12.3171 28.2392L12.8171 28.2527V28.2392H12.3171ZM59.8832 28.3393H59.383L59.3833 28.3532L59.8832 28.3393ZM57.2795 38.7538L56.8437 38.5087L56.8419 38.512L57.2795 38.7538ZM36.0501 66.6926L35.6675 67.0146C35.7626 67.1276 35.9029 67.1928 36.0507 67.1926C36.1984 67.1924 36.3385 67.1269 36.4334 67.0136L36.0501 66.6926ZM14.9207 38.7538L15.3622 38.5187L15.3565 38.5087L14.9207 38.7538ZM36.0501 4.70721C22.6697 4.70721 11.8171 15.2316 11.8171 28.2392H12.8171C12.8171 15.8115 23.1939 5.70721 36.0501 5.70721V4.70721ZM60.3832 28.3393C60.3832 15.2302 49.429 4.70721 36.0501 4.70721V5.70721C48.9075 5.70721 59.3832 15.8128 59.3832 28.3393H60.3832ZM57.7153 38.9989C59.5613 35.7172 60.4857 32.0228 60.383 28.3255L59.3833 28.3532C59.4809 31.8659 58.6028 35.3816 56.8438 38.5087L57.7153 38.9989ZM36.0501 66.6926C36.4334 67.0136 36.4335 67.0135 36.4336 67.0134C36.4337 67.0132 36.4339 67.013 36.4342 67.0127C36.4347 67.012 36.4355 67.0111 36.4366 67.0098C36.4387 67.0073 36.4418 67.0036 36.4459 66.9987C36.4542 66.9888 36.4665 66.9741 36.4827 66.9547C36.5151 66.9159 36.5633 66.8582 36.6263 66.7827C36.7522 66.6317 36.9374 66.4093 37.1745 66.1236C37.6487 65.5523 38.3307 64.7278 39.1622 63.7146C40.8251 61.6884 43.0864 58.9073 45.4795 55.8877C50.2536 49.8638 55.5901 42.8446 57.7172 38.9957L56.8419 38.512C54.7631 42.2736 49.4849 49.2238 44.6957 55.2666C42.3072 58.2804 40.0497 61.057 38.3892 63.0802C37.559 64.0917 36.8782 64.9148 36.405 65.4849C36.1684 65.77 35.9837 65.9918 35.8583 66.1422C35.7955 66.2175 35.7476 66.2749 35.7154 66.3134C35.6992 66.3327 35.6871 66.3473 35.6789 66.357C35.6748 66.3619 35.6718 66.3655 35.6697 66.368C35.6687 66.3692 35.668 66.3701 35.6675 66.3707C35.6672 66.371 35.667 66.3712 35.6669 66.3714C35.6668 66.3715 35.6667 66.3716 36.0501 66.6926ZM14.4794 38.9888C16.5578 42.8922 21.872 49.9145 26.6331 55.9252C29.0201 58.9388 31.2785 61.7108 32.9399 63.7292C33.7707 64.7386 34.4524 65.5596 34.9265 66.1285C35.1635 66.4129 35.3486 66.6343 35.4746 66.7846C35.5376 66.8598 35.5857 66.9172 35.6182 66.9559C35.6344 66.9752 35.6467 66.9898 35.655 66.9997C35.6591 67.0046 35.6622 67.0083 35.6643 67.0108C35.6654 67.012 35.6661 67.013 35.6667 67.0136C35.6669 67.0139 35.6672 67.0141 35.6673 67.0143C35.6674 67.0145 35.6675 67.0146 36.0501 66.6926C36.4326 66.3707 36.4326 66.3706 36.4324 66.3705C36.4323 66.3703 36.4321 66.3701 36.4319 66.3698C36.4314 66.3692 36.4306 66.3683 36.4296 66.3671C36.4276 66.3647 36.4245 66.361 36.4204 66.3562C36.4123 66.3465 36.4001 66.332 36.384 66.3128C36.3518 66.2745 36.3039 66.2173 36.2412 66.1425C36.1157 65.9927 35.9311 65.772 35.6947 65.4883C35.2217 64.9208 34.5413 64.1013 33.712 63.0937C32.0532 61.0785 29.799 58.3116 27.417 55.3043C22.6398 49.2732 17.3893 42.3261 15.362 38.5188L14.4794 38.9888ZM11.8173 28.2257C11.7147 32.0217 12.6383 35.716 14.4849 38.9989L15.3565 38.5087C13.5981 35.3827 12.7192 31.867 12.8169 28.2527L11.8173 28.2257ZM36.1502 38.7545C30.421 38.7545 25.8352 34.0746 25.8352 28.4395H24.8352C24.8352 34.6208 29.8627 39.7545 36.1502 39.7545V38.7545ZM46.4652 28.4395C46.4652 34.1717 41.8824 38.7545 36.1502 38.7545V39.7545C42.4347 39.7545 47.4652 34.724 47.4652 28.4395H46.4652ZM36.0501 18.2246C41.7945 18.2246 46.4652 22.7193 46.4652 28.4395H47.4652C47.4652 22.143 42.3224 17.2246 36.0501 17.2246V18.2246ZM25.8352 28.4395C25.8352 22.8044 30.3209 18.2246 36.0501 18.2246V17.2246C29.7626 17.2246 24.8352 22.2582 24.8352 28.4395H25.8352Z" fill="currentColor"/>
</svg>
