<svg width="72" height="72" viewBox="0 0 72 72" fill="none" xmlns="http://www.w3.org/2000/svg">
<path d="M25.3352 28.4393C25.3352 34.3475 30.1418 39.2543 36.1502 39.2543C42.1585 39.2543 46.9652 34.4476 46.9652 28.4393C46.9652 22.431 42.0584 17.7244 36.0501 17.7244C30.0417 17.7244 25.3352 22.5311 25.3352 28.4393ZM36.0501 5.20703C22.9318 5.20703 12.3171 15.5214 12.3171 28.239C12.217 31.9442 13.1182 35.5492 14.9207 38.7536C19.0264 46.4643 36.0501 66.6924 36.0501 66.6924C36.0501 66.6924 53.0737 46.3642 57.2795 38.7536C59.082 35.5492 59.9833 31.9442 59.8832 28.3392C59.8832 15.5214 49.1683 5.20703 36.0501 5.20703Z" stroke="currentColor" stroke-linecap="round" stroke-linejoin="round"/>
</svg>
