<svg role="img" width="24" height="24" viewBox="0 0 24 24" fill="none" xmlns="http://www.w3.org/2000/svg">
<path fill-rule="evenodd" clip-rule="evenodd" d="M4.87022 5.64436C4.87333 4.7953 4.87709 4.084 4.88149 3.57688C5.2936 3.82189 5.8605 4.1627 6.53319 4.56934C7.9592 5.43134 9.85672 6.58677 11.7532 7.74641C13.6496 8.90604 15.5443 10.0694 16.9645 10.9473C17.6706 11.3838 18.2585 11.7491 18.671 12.0082C18.2583 12.2655 17.6709 12.6289 16.966 13.0634C15.546 13.9388 13.6517 15.1011 11.7556 16.2607C9.85949 17.4204 7.96205 18.5772 6.53555 19.4416C5.86116 19.8503 5.29276 20.1931 4.87974 20.4399C4.87512 19.9351 4.87133 19.2286 4.86835 18.3856C4.8622 16.6475 4.85949 14.3325 4.8599 12.0166C4.86032 9.70072 4.86387 7.3846 4.87022 5.64436ZM20.0955 12.0119C20.0894 11.9338 20.0552 11.8148 20.0352 11.7736C20.021 11.749 19.9945 11.7101 19.9827 11.6951C19.9601 11.6673 19.9392 11.6478 19.9312 11.6404C19.9125 11.6233 19.8956 11.6102 19.8882 11.6045C19.8706 11.5911 19.8513 11.5776 19.8351 11.5665C19.8008 11.5429 19.7537 11.5118 19.6973 11.4753C19.5833 11.4014 19.4181 11.2966 19.2104 11.1661C18.7945 10.9048 18.2012 10.5361 17.4903 10.0967C16.0682 9.21769 14.1721 8.0534 12.2749 6.89327C10.3776 5.73316 8.47853 4.57676 7.05051 3.71354C6.33669 3.28205 5.73961 2.92322 5.31905 2.67367C5.10913 2.54912 4.94123 2.45062 4.82416 2.38362C4.76635 2.35054 4.71703 2.3229 4.67992 2.30316C4.66275 2.29403 4.64039 2.2824 4.61821 2.27228C4.60953 2.26832 4.58561 2.25747 4.55562 2.24774C4.54363 2.24385 4.50607 2.23181 4.45662 2.22604C4.4294 2.2236 4.36016 2.22407 4.31823 2.22905C4.25173 2.24448 4.09805 2.32238 4.02115 2.39362C3.98464 2.44072 3.94039 2.52001 3.9285 2.54918C3.92221 2.56712 3.91331 2.59725 3.91024 2.60961C3.9047 2.6331 3.90198 2.65223 3.90091 2.66015C3.89846 2.67816 3.89722 2.69399 3.89662 2.7022C3.89525 2.72087 3.89429 2.74197 3.89354 2.76187C3.89197 2.80328 3.89056 2.86051 3.88925 2.93047C3.8866 3.07134 3.88414 3.27466 3.88186 3.53037C3.8773 4.04233 3.87341 4.76995 3.87023 5.64071C3.86387 7.3825 3.86032 9.69985 3.8599 12.0164C3.85949 14.3329 3.8622 16.6493 3.86835 18.3891C3.87143 19.2588 3.87537 19.9853 3.88022 20.4959C3.88264 20.7509 3.88531 20.9536 3.88824 21.094C3.88969 21.1636 3.89128 21.221 3.89307 21.2627C3.89393 21.2826 3.89507 21.3048 3.89679 21.325C3.89752 21.3335 3.89919 21.3521 3.90268 21.3736C3.90415 21.3826 3.90826 21.4072 3.91706 21.4372C3.92209 21.4533 3.93716 21.4932 3.94801 21.5169C3.9693 21.556 4.0491 21.6563 4.11418 21.7096C4.19774 21.756 4.34194 21.7946 4.3961 21.7977C4.42831 21.7968 4.48071 21.7909 4.50115 21.787C4.53853 21.7792 4.56696 21.7687 4.57681 21.765C4.60069 21.7561 4.62011 21.7468 4.62812 21.7429C4.64765 21.7335 4.66805 21.7226 4.685 21.7134C4.72105 21.6937 4.7696 21.6661 4.82742 21.6326C4.94422 21.565 5.11194 21.4659 5.322 21.3406C5.74273 21.0896 6.33987 20.7295 7.05379 20.2969C8.48194 19.4314 10.3807 18.2739 12.2774 17.1138C14.1741 15.9538 16.0694 14.7908 17.4907 13.9147C18.2013 13.4767 18.7939 13.11 19.2092 12.8511C19.4167 12.7217 19.581 12.6186 19.694 12.5466C19.7501 12.5108 19.7958 12.4814 19.8285 12.4597C19.8441 12.4494 19.861 12.438 19.8757 12.4274C19.8819 12.423 19.8954 12.4132 19.9103 12.401C19.9163 12.3961 19.9341 12.3814 19.9542 12.3606C19.9653 12.3488 19.9922 12.3165 20.0076 12.2953C20.0329 12.2544 20.0851 12.1138 20.0955 12.0119Z" fill="currentColor"/>
</svg>
