<svg width="72" height="72" viewBox="0 0 72 72" fill="none" xmlns="http://www.w3.org/2000/svg">
<path fill-rule="evenodd" clip-rule="evenodd" d="M13.646 10.608C13.652 9.93865 13.6583 9.39435 13.665 8.99246C13.9882 9.17937 14.4161 9.43098 14.937 9.74006C16.1915 10.4844 17.9772 11.5575 20.1174 12.8513C24.3974 15.4385 30.0915 18.9057 35.7817 22.3851C41.4718 25.8645 47.1572 29.3556 51.4198 31.9904C53.5513 33.3079 55.3262 34.4108 56.5677 35.1909C57.1194 35.5375 57.5644 35.8196 57.8882 36.0281C57.5641 36.2337 57.1197 36.5123 56.57 36.8551C55.3285 37.6292 53.5539 38.7271 51.4232 40.0406C47.1619 42.6675 41.4781 46.1549 35.7892 49.6344C30.1002 53.1138 24.4065 56.5849 20.1254 59.1791C17.9846 60.4763 16.1979 61.5538 14.9417 62.3033C14.4172 62.6162 13.9863 62.8713 13.6613 63.0611C13.6541 62.6633 13.6473 62.1266 13.6411 61.4677C13.6266 59.942 13.6148 57.7674 13.6055 55.1592C13.5871 49.9433 13.579 42.9969 13.5802 36.0486C13.5815 29.1003 13.5921 22.1508 13.6112 16.9285C13.6207 14.3172 13.6324 12.1385 13.646 10.608ZM59.2871 36.0348C59.281 35.9563 59.2466 35.837 59.2265 35.7954C59.212 35.7703 59.1851 35.7309 59.173 35.7154C59.1494 35.6864 59.1272 35.6656 59.1173 35.6565C59.0949 35.636 59.0725 35.6184 59.0578 35.6072C59.0257 35.5826 58.9847 35.5536 58.9398 35.5228C58.8481 35.4598 58.7159 35.3726 58.5485 35.2641C58.2126 35.0465 57.7218 34.735 57.0998 34.3442C55.855 33.5621 54.0777 32.4577 51.9456 31.1398C47.6812 28.5039 41.9943 25.0119 36.3034 21.532C30.6124 18.0521 24.9167 14.5839 20.6347 11.9955C18.4939 10.7014 16.7054 9.62658 15.4473 8.88007C14.8186 8.50703 14.3204 8.21479 13.9763 8.01785C13.8049 7.91979 13.6679 7.84312 13.5707 7.79143C13.5235 7.76633 13.478 7.743 13.4399 7.72558C13.4232 7.71797 13.3931 7.70458 13.3587 7.69342C13.3445 7.68882 13.3052 7.67635 13.2545 7.67043C13.2266 7.66792 13.1568 7.66839 13.1145 7.67343C13.0476 7.68892 12.8936 7.76696 12.8165 7.83841C12.7798 7.88572 12.7354 7.96536 12.7233 7.99502C12.7168 8.01345 12.7078 8.04421 12.7045 8.05734C12.6986 8.08236 12.6955 8.10359 12.6941 8.11416C12.6909 8.13747 12.689 8.16082 12.6877 8.17871C12.6849 8.21677 12.6825 8.26597 12.6804 8.32241C12.6761 8.4369 12.672 8.60097 12.668 8.80925C12.6602 9.22678 12.6529 9.83274 12.646 10.5991C12.6324 12.1323 12.6207 14.313 12.6112 16.9248C12.5921 22.1486 12.5815 29.0995 12.5802 36.0484C12.579 42.9974 12.5871 49.9451 12.6055 55.1628C12.6148 57.7714 12.6266 59.9485 12.6411 61.4772C12.6484 62.2412 12.6563 62.8449 12.665 63.2601C12.6693 63.4671 12.6739 63.6304 12.6788 63.7443C12.6812 63.8002 12.6839 63.85 12.6872 63.889C12.6888 63.907 12.6913 63.9329 12.6956 63.9594C12.6974 63.971 12.702 63.9975 12.7112 64.0289C12.7164 64.0457 12.7317 64.0862 12.7428 64.1103C12.7643 64.1498 12.8443 64.2504 12.9095 64.3039C12.9933 64.3504 13.1378 64.389 13.1924 64.3922C13.2251 64.3913 13.278 64.3853 13.2992 64.3813C13.3379 64.3732 13.3681 64.3621 13.3802 64.3576C13.4085 64.347 13.4343 64.3349 13.4504 64.3271C13.4861 64.3099 13.5298 64.2868 13.577 64.2611C13.6735 64.2085 13.8101 64.1309 13.9817 64.0315C14.3263 63.8321 14.8248 63.5375 15.4541 63.162C16.7133 62.4107 18.5024 61.3319 20.6436 60.0344C24.9264 57.4391 30.6213 53.9673 36.3109 50.4874C42.0005 47.0076 47.6853 43.5195 51.9479 40.8919C54.0791 39.5781 55.8554 38.4791 57.0991 37.7037C57.7208 37.3161 58.2106 37.0086 58.5454 36.7953C58.7125 36.6889 58.8432 36.6045 58.9332 36.5448C58.9774 36.5155 59.0161 36.4893 59.0454 36.4683C59.0588 36.4587 59.0778 36.4448 59.0964 36.4296C59.1042 36.4231 59.1234 36.4072 59.1444 36.3854C59.156 36.3731 59.1833 36.3404 59.1988 36.3189C59.2244 36.2777 59.2767 36.1368 59.2871 36.0348Z" fill="currentColor"/>
</svg>
