<svg width="72" height="72" viewBox="0 0 72 72" fill="none" xmlns="http://www.w3.org/2000/svg">
<path d="M66.3918 38.4536C65.7909 33.3465 54.9759 11.3159 54.9759 11.3159C53.0733 7.81101 49.3681 5.60795 45.3626 5.50781H26.937C22.9314 5.50781 19.2263 7.71087 17.4238 11.3159C17.4238 11.3159 8.51137 27.7387 5.80762 37.8527" stroke="currentColor" stroke-linecap="round" stroke-linejoin="round"/>
<path d="M47.4659 13.719H24.6342C20.6286 13.719 16.9235 15.922 15.0209 19.527L6.90959 34.9484C5.20722 38.1529 5.20722 41.858 6.90959 45.0625L15.121 60.584C17.0236 64.0889 20.6286 66.3921 24.7343 66.3921H47.4659C51.4715 66.3921 55.1766 64.1891 57.0793 60.6842L65.1905 45.0625C66.8929 41.858 66.8929 38.0528 65.1905 34.9484L57.0793 19.4269C55.1766 15.922 51.4715 13.6188 47.4659 13.719Z" stroke="currentColor" stroke-linecap="round" stroke-linejoin="round"/>
</svg>
