<svg width="72" height="72" viewBox="0 0 72 72" fill="none" xmlns="http://www.w3.org/2000/svg">
<path d="M61.3853 46.2638V24.6337C61.3853 22.2304 60.0835 20.0273 57.9805 18.8256L39.3547 8.01063C37.2517 6.80896 34.7483 6.80896 32.6453 8.01063L13.9193 18.8256C11.8164 20.0273 10.6147 22.2304 10.6147 24.6337V46.2638C10.6147 48.6671 11.9166 50.8701 13.9193 52.0718L32.6453 62.8868C34.7483 64.0885 37.2517 64.0885 39.3547 62.8868L58.0807 52.0718C60.1836 50.8701 61.4854 48.6671 61.3853 46.2638Z" vector-effect="non-scaling-stroke" stroke-width='1' stroke="currentColor" stroke-miterlimit="10"/>
<path d="M55.3771 58.5814L65.7915 40.5564C67.594 37.3519 67.594 33.4465 65.7915 30.242L55.3771 12.217C53.4744 9.01255 50.0697 7.00977 46.3645 7.00977H25.6357C21.9306 7.00977 18.5259 9.01255 16.7234 12.217L6.30891 30.242C4.50641 33.4465 4.50641 37.3519 6.30891 40.5564L16.7234 58.5814C18.5259 61.7858 21.9306 63.7886 25.6357 63.7886H46.3645C50.0697 63.7886 53.4744 61.7858 55.3771 58.5814Z" vector-effect="non-scaling-stroke" stroke-width='1' stroke="currentColor" stroke-miterlimit="10"/>
</svg>
