<svg width="72" height="72" viewBox="0 0 72 72" fill="none" xmlns="http://www.w3.org/2000/svg">
<path fill-rule="evenodd" clip-rule="evenodd" d="M6.5 35.9181C6.5 19.6664 19.6664 6.5 35.9181 6.5C51.7733 6.5 64.692 19.0319 65.3129 34.7344L67.541 32.5063C67.7362 32.311 68.0528 32.311 68.2481 32.5063C68.4433 32.7015 68.4433 33.0181 68.2481 33.2134L65.1898 36.2717C64.9945 36.4669 64.6779 36.4669 64.4827 36.2717L61.6979 33.4869C61.5026 33.2916 61.5026 32.975 61.6979 32.7798C61.8931 32.5845 62.2097 32.5845 62.405 32.7798L64.31 34.6847C63.6646 19.558 51.2043 7.5 35.9181 7.5C20.2187 7.5 7.5 20.2187 7.5 35.9181C7.5 51.6175 20.2187 64.3362 35.9181 64.3362C46.1188 64.3362 55.5423 58.867 60.5982 50.0043C60.7351 49.7644 61.0404 49.6809 61.2803 49.8177C61.5201 49.9546 61.6037 50.2599 61.4668 50.4998C56.2328 59.6746 46.4777 65.3362 35.9181 65.3362C19.6664 65.3362 6.5 52.1698 6.5 35.9181ZM20.5 26C20.5 25.7239 20.7239 25.5 21 25.5H53C53.2761 25.5 53.5 25.7239 53.5 26V46C53.5 46.2761 53.2761 46.5 53 46.5H21C20.7239 46.5 20.5 46.2761 20.5 46V26ZM21.5 35V45.5H52.5V35H21.5ZM21.5 31H52.5V26.5H21.5V31ZM24 41.5C24 41.2239 24.2239 41 24.5 41H28.5C28.7761 41 29 41.2239 29 41.5C29 41.7761 28.7761 42 28.5 42H24.5C24.2239 42 24 41.7761 24 41.5ZM24.5 38C24.2239 38 24 38.2239 24 38.5C24 38.7761 24.2239 39 24.5 39H31.5C31.7761 39 32 38.7761 32 38.5C32 38.2239 31.7761 38 31.5 38H24.5Z" fill="currentColor"/>
</svg>
