<svg role="img" xmlns="http://www.w3.org/2000/svg" width="72" height="72" fill="none" viewBox="0 0 72 72">
  <path stroke="currentColor" stroke-linecap="round" stroke-linejoin="round" d="M17.1364 32.2727c.9037 0 1.6363-.7326 1.6363-1.6363 0-.9038-.7326-1.6364-1.6363-1.6364-.9038 0-1.6364.7326-1.6364 1.6364 0 .9037.7326 1.6363 1.6364 1.6363Zm7 0c.9037 0 1.6363-.7326 1.6363-1.6363 0-.9038-.7326-1.6364-1.6363-1.6364-.9038 0-1.6364.7326-1.6364 1.6364 0 .9037.7326 1.6363 1.6364 1.6363Z"/>
  <path stroke="currentColor" stroke-linejoin="round" d="M20.0001 8h32v16h-32zM52 63.9995H20v-21h32z"/>
  <path stroke="currentColor" stroke-linecap="round" d="M48 58.9995h-8m8-8H24m24-4H24"/>
  <path fill="currentColor" fill-rule="evenodd" d="M17 47.5c-1.3807 0-2.5-1.1193-2.5-2.5v-4c0-1.3807 1.1193-2.5 2.5-2.5h38c1.3807 0 2.5 1.1193 2.5 2.5v4c0 1.3807-1.1193 2.5-2.5 2.5h-3v-1h3c.8284 0 1.5-.6716 1.5-1.5v-4c0-.8284-.6716-1.5-1.5-1.5H17c-.8284 0-1.5.6716-1.5 1.5v4c0 .8284.6716 1.5 1.5 1.5h3v1h-3Z"/>
  <path fill="currentColor" fill-rule="evenodd" d="M6 23.5a.5.5 0 0 0-.5.5v32a.5.5 0 0 0 .5.5h14.5v-1h-14v-31h59v31h-13v1H66a.5.5 0 0 0 .5-.5V24a.5.5 0 0 0-.5-.5H6Z"/>
</svg>
