<svg xmlns="http://www.w3.org/2000/svg" width="72" height="72" fill="none" class="fill-highlight" viewBox="0 0 72 72">
  <circle cx="36" cy="36" r="30"/>
  <path fill="currentColor" fill-rule="evenodd" d="M32.5629 22.6409c.08-.0526.2074-.0942.3791-.1176.1671-.0227.3334-.0233.4767-.0233h6.6149c.3665 0 .7695.0547 1.0521.2131.4236.2466.9788.7115 1.5043 1.2641.5214.5481.9771 1.1441 1.2309 1.6397.1284.303.1788.668.1791 1.012l-.0565 3.7916v.0074c0 1.1826-.7202 2.2005-1.7174 2.742v-.0001l-.0064.0036-3.6681 2.0613c-2.1243 1.1088-3.5975 2.7538-3.5975 5.1281V44h1v-3.6372c0-1.865 1.1242-3.2329 3.0667-4.245l.007-.0036.0069-.0039 3.6719-2.0634c1.2616-.6864 2.2353-2.0102 2.2369-3.6151l.0564-3.7918H45v-.0074c0-.4314-.0613-.9522-.2675-1.4271l-.0059-.0135-.0067-.0133c-.313-.6179-.8432-1.2998-1.4053-1.8907-.5616-.5905-1.1924-1.1294-1.7296-1.4413l-.0054-.0031c-.5088-.287-1.1221-.3436-1.546-.3436h-6.622c-.1399 0-.3658 0-.6045.0325-.2334.0318-.523.0997-.7785.263-.6556.3733-1.4536 1.0671-2.172 1.8472-.7257.788-1.412 1.7095-1.8091 2.5538l.905.4256c.3379-.7184.9519-1.5552 1.6397-2.302.69-.7493 1.4124-1.3629 1.9415-1.6614l.0149-.0084.0143-.0094ZM35.5 48c-.8284 0-1.5.6716-1.5 1.5s.6716 1.5 1.5 1.5 1.5-.6716 1.5-1.5-.6716-1.5-1.5-1.5Z" clip-rule="evenodd"/>
</svg>
