<svg xmlns="http://www.w3.org/2000/svg" width="24" height="24" fill="none" viewBox="0 0 24 24">
  <path fill="currentColor" fill-rule="evenodd" d="M12 22c5.5228 0 10-4.4772 10-10 0-5.5229-4.4772-10-10-10C6.4771 2 2 6.4771 2 12c0 5.5228 4.4771 10 10 10Zm0 1c6.0751 0 11-4.9249 11-11S18.0751 1 12 1 1 5.9249 1 12s4.9249 11 11 11Zm3-13.5c0 1.1548-.8089 1.8666-1.5476 2.5166-.6205.546-1.1915 1.0485-1.1915 1.7334V14H11.087v-.25c0-1.0519.7576-1.6889 1.476-2.2928.6475-.5443 1.2631-1.0619 1.2631-1.8322 0-1-.7826-1.5-1.8261-1.5-1.1739 0-1.8261.75-1.8261 1.75H9C9 8.25 10.1739 7 12.1304 7 13.8261 7 15 8 15 9.5ZM12.7869 16c0 .625-.5217 1-1.0435 1-.5217 0-1.0434-.375-1.0434-1s.5217-1 1.0434-1c.6522 0 1.0435.5 1.0435 1Z" clip-rule="evenodd"/>
</svg>
