<svg role="img" xmlns="http://www.w3.org/2000/svg" width="72" height="72" fill="none" viewBox="0 0 72 72">
  <path fill="currentColor" fill-rule="evenodd" d="M6.5 36.21c0-16.2924 13.2076-29.5 29.5-29.5s29.5 13.2076 29.5 29.5-13.2076 29.5-29.5 29.5S6.5 52.5024 6.5 36.21ZM36 5.71c-16.8447 0-30.5 13.6553-30.5 30.5 0 16.8446 13.6553 30.5 30.5 30.5s30.5-13.6554 30.5-30.5c0-16.8447-13.6553-30.5-30.5-30.5ZM21.5 36c0-8.0081 6.4919-14.5 14.5-14.5 8.0081 0 14.5 6.4919 14.5 14.5 0 8.0081-6.4919 14.5-14.5 14.5-8.0081 0-14.5-6.4919-14.5-14.5ZM36 20.5c-8.5604 0-15.5 6.9396-15.5 15.5S27.4396 51.5 36 51.5 51.5 44.5604 51.5 36 44.5604 20.5 36 20.5Z"/>
</svg>
