<svg role="img" xmlns="http://www.w3.org/2000/svg" width="24" height="24" fill="none" viewBox="0 0 24 24" class="fill-highlight" style="--bf-icon-default-bg: #FFD200; --bf-icon-default-color: #54643C;">
  <circle cx="12" cy="12" r="10"/>
  <path fill="currentColor" fill-rule="evenodd" d="M5.6982 10.1426C6.4974 7.4573 8.9852 5.5 11.929 5.5c2.7987 0 5.1848 1.7691 6.1002 4.25h-1.2114L18.55 12l1.732-2.25h-1.1964c-.9558-3.043-3.7981-5.25-7.1565-5.25-3.3983 0-6.2675 2.2597-7.1894 5.3574l.9585.2852Zm-1.17 2.9249L5.35 12l1.732 2.25H5.829c.9153 2.4809 3.3015 4.25 6.1002 4.25 2.9438 0 5.4317-1.9573 6.2309-4.6426l.9584.2852c-.9219 3.0977-3.7911 5.3574-7.1893 5.3574-3.3585 0-6.2007-2.2071-7.1565-5.25H3.6179l.8904-1.1566-.0033-.0226.0232-.0033Z" clip-rule="evenodd"/>
  <path fill="currentColor" d="M11.2981 12.8889 8 10.2222 11.2981 16 15 8l-3.7019 4.8889Z"/>
</svg>
