<svg role="img" width="72" height="72" viewBox="0 0 72 72" fill="none" xmlns="http://www.w3.org/2000/svg">
<path fill-rule="evenodd" clip-rule="evenodd" d="M39 11.5C25.4266 11.5 14.5 22.4266 14.5 36V40.5405C14.5 40.8167 14.7239 41.0405 15 41.0405C15.2762 41.0405 15.5 40.8167 15.5 40.5405V36C15.5 22.9788 25.9789 12.5 39 12.5C52.0212 12.5 62.5 22.9788 62.5 36C62.5 49.0212 52.0212 59.5 39 59.5C32.6548 59.5 26.9418 56.9644 22.4887 52.5113C22.2935 52.3161 21.9769 52.3161 21.7816 52.5113C21.5864 52.7066 21.5864 53.0232 21.7816 53.2184C26.4096 57.8464 32.3723 60.5 39 60.5C52.5735 60.5 63.5 49.5734 63.5 36C63.5 22.4266 52.5735 11.5 39 11.5ZM6.35355 32.6464C6.15829 32.4512 5.84171 32.4512 5.64645 32.6464C5.45118 32.8417 5.45118 33.1583 5.64645 33.3536L14.6464 42.3536C14.7402 42.4473 14.8674 42.5 15 42.5C15.1326 42.5 15.2598 42.4473 15.3536 42.3536L24.3536 33.3536C24.5488 33.1583 24.5488 32.8417 24.3536 32.6464C24.1583 32.4512 23.8417 32.4512 23.6464 32.6464L15 41.2929L6.35355 32.6464Z" fill="currentColor"/>
</svg>
