<svg role="img" xmlns="http://www.w3.org/2000/svg" width="24" height="24" fill="none" viewBox="0 0 24 24">
  <g stroke="currentColor" stroke-linecap="round">
    <path d="m18.0218 3.0844-4.3899 4.395c-.9337.9347-.9333 2.4492.0009 3.3834v0c.9353.9354 2.452.9345 3.3863-.0018l4.4691-4.479m-2.5795-1.7174-4.0629 4.0629m5.2179-3.1183L15.991 9.672M13.5 11l-10 10"/>
    <path stroke-linejoin="round" d="m13.5 13.4999 5.6901 5.7491c.4589.4661.4589 1.1944 0 1.6604-.4301.4661-1.1758.4661-1.6346.0292-.7568-.7206-1.779-1.6896-2.6809-2.6442-.9019-.9546-2.3746-1.7945-2.8746-3.7945m-1-3.4248-8-8c.0683 1.0252.732 3.8675 2.2337 6.1911C6.7354 11.59 8.7037 12.057 9.5 12l.2654.1548"/>
  </g>
</svg>
