<svg width="72" height="72" viewBox="0 0 72 72" fill="none" xmlns="http://www.w3.org/2000/svg">
<path fill-rule="evenodd" clip-rule="evenodd" d="M63.5001 8.33205C63.5001 8.12937 63.3777 7.94674 63.1903 7.86964C63.0028 7.79254 62.7874 7.83622 62.6448 7.98023L8.44454 62.7145C8.30255 62.8578 8.26067 63.0725 8.33835 63.2588C8.41603 63.445 8.59803 63.5663 8.79982 63.5663H63.0001C63.2762 63.5663 63.5001 63.3424 63.5001 63.0663V8.33205ZM29.9265 62.5663H26.1206V59.4173C26.1206 59.1412 25.8967 58.9173 25.6206 58.9173C25.3444 58.9173 25.1206 59.1412 25.1206 59.4173V62.5663H20.0687V59.4173C20.0687 59.1412 19.8448 58.9173 19.5687 58.9173C19.2925 58.9173 19.0687 59.1412 19.0687 59.4173V62.5663H9.99861L62.5001 9.54757V62.5663H58.6942V59.4173C58.6942 59.1412 58.4703 58.9173 58.1942 58.9173C57.918 58.9173 57.6942 59.1412 57.6942 59.4173V62.5663H52.6422V59.4173C52.6422 59.1412 52.4184 58.9173 52.1422 58.9173C51.8661 58.9173 51.6422 59.1412 51.6422 59.4173V62.5663H47.8363V57.0143C47.8363 56.7382 47.6125 56.5143 47.3363 56.5143C47.0602 56.5143 46.8363 56.7382 46.8363 57.0143V62.5663H41.7844V59.4173C41.7844 59.1412 41.5605 58.9173 41.2844 58.9173C41.0082 58.9173 40.7844 59.1412 40.7844 59.4173V62.5663H36.9785V59.4173C36.9785 59.1412 36.7546 58.9173 36.4785 58.9173C36.2023 58.9173 35.9785 59.1412 35.9785 59.4173V62.5663H30.9265V57.0143C30.9265 56.7382 30.7027 56.5143 30.4265 56.5143C30.1504 56.5143 29.9265 56.7382 29.9265 57.0143V62.5663ZM54.7351 31.9882C54.9227 32.0652 55.0452 32.2479 55.0452 32.4507V47.4025C55.0452 47.6786 54.8213 47.9025 54.5452 47.9025H39.7714C39.5697 47.9025 39.3878 47.7813 39.31 47.5952C39.2323 47.4091 39.274 47.1945 39.4157 47.0511L54.1895 32.0993C54.332 31.955 54.5476 31.9112 54.7351 31.9882ZM40.9683 46.9025H54.0452V33.6681L40.9683 46.9025Z" fill="currentColor"/>
</svg>
