<svg width="72" height="72" viewBox="0 0 72 72" fill="none" xmlns="http://www.w3.org/2000/svg">
<path fill-rule="evenodd" clip-rule="evenodd" d="M12.1117 10.4209H11.9105L11.7654 10.5602L4.99839 17.0573H4.9751V17.5573V61.2398V61.7398H5.4751H66.8247H67.3247V61.2398V17.5573V17.0573H67.2722L60.7719 10.5671L60.6255 10.4209H60.4186H12.1117ZM65.8569 17.0573L60.2118 11.4209H12.3128L6.44227 17.0573H65.8569ZM5.9751 18.0573V60.7398H66.3247V18.0573H5.9751ZM40.9097 28.0776L43.2719 32.5519L38.217 32.3617L39.2602 30.702C38.3361 30.3883 37.3651 30.228 36.3859 30.2292L36.3831 30.2292C34.8266 30.2222 33.2945 30.6145 31.933 31.3687C30.5715 32.1229 29.4262 33.2137 28.6066 34.5368C27.787 35.86 27.3205 37.3712 27.2517 38.9262C27.1829 40.4811 27.5141 42.0276 28.2136 43.418C28.3377 43.6647 28.2383 43.9653 27.9916 44.0894C27.745 44.2135 27.4444 44.1141 27.3203 43.8674C26.5439 42.3242 26.1763 40.6077 26.2527 38.8819C26.329 37.1562 26.8468 35.4788 27.7565 34.0102C28.6661 32.5417 29.9373 31.331 31.4484 30.4939C32.9591 29.6571 34.6592 29.2216 36.3861 29.2292C37.5542 29.228 38.7117 29.4333 39.8056 29.8342L40.9097 28.0776ZM45.4694 34.8078C45.3442 34.5616 45.0432 34.4635 44.7971 34.5886C44.5509 34.7137 44.4528 35.0147 44.5779 35.2609C45.2832 36.6484 45.6212 38.1934 45.5597 39.7486C45.4981 41.3038 45.0392 42.8173 44.2265 44.1447C43.4139 45.4722 42.2747 46.5692 40.9176 47.3313C39.5605 48.0934 38.0308 48.495 36.4744 48.4979L36.4735 48.4979C35.492 48.5014 34.5183 48.3427 33.5914 48.0298L34.6235 46.3754L29.5686 46.1952L31.9509 50.6595L33.0491 48.8992C34.1459 49.2989 35.3063 49.5021 36.4767 49.4979C38.2038 49.4946 39.9013 49.0489 41.4073 48.2032C42.9133 47.3575 44.1776 46.14 45.0794 44.6668C45.9813 43.1937 46.4906 41.514 46.5589 39.7881C46.6271 38.0622 46.252 36.3475 45.4694 34.8078ZM36.4767 49.4979H36.4763L36.4753 48.998L36.4771 49.4979L36.4767 49.4979Z" fill="currentColor"/>
</svg>
