<svg width="72" height="72" viewBox="0 0 72 72" fill="none" xmlns="http://www.w3.org/2000/svg">
<path d="M59.783 13.319L36.751 5.40802C36.2503 5.20774 35.7497 5.20774 35.249 5.40802L12.217 13.319C11.2156 13.6194 10.6147 14.5207 10.6147 15.5221V41.5582C10.6147 43.0603 10.9152 44.5624 11.516 45.9644C18.025 59.7835 35.1488 67.0937 35.1488 67.0937C35.3491 67.1938 35.6495 67.1938 35.9499 67.1938H36.751C36.9513 67.1938 37.2517 67.1938 37.452 67.0937C37.452 67.0937 54.0751 59.7835 60.3839 45.8642C60.9847 44.5624 61.2851 43.0603 61.2851 41.6584V15.6222C61.3853 14.6208 60.6843 13.7196 59.783 13.319Z" vector-effect="non-scaling-stroke" stroke-width='1' stroke="currentColor" stroke-linecap="round" stroke-linejoin="round"/>
<path d="M44.3619 30.8428H27.6387V44.4617H44.3619V30.8428Z" vector-effect="non-scaling-stroke" stroke-width='1' stroke="currentColor" stroke-linecap="round" stroke-linejoin="round"/>
<path d="M31.4438 30.8425V27.5379C31.4438 25.2347 33.3465 23.332 35.6497 23.332H36.1504C38.4536 23.332 40.3562 25.2347 40.3562 27.5379V30.8425" vector-effect="non-scaling-stroke" stroke-width='1' stroke="currentColor" stroke-linecap="round" stroke-linejoin="round"/>
</svg>
