<svg role="img" xmlns="http://www.w3.org/2000/svg" width="24" height="24" fill="none" viewBox="0 0 24 24">
  <g stroke="currentColor">
    <path stroke-linecap="round" d="M16 11V6c0-2.2091-1.7909-4-4-4v0C9.7909 2 8 3.7909 8 6v5"/>
    <rect width="5.5" height=".5" x="6.25" y="18.25" stroke-width=".5" rx=".25"/>
    <path stroke-linecap="round" d="M17.5 7.5h1.99c1.2042 0 2.1353 1.0563 1.9842 2.251l-1.3247 10.4717c-.1265.9995-.9767 1.749-1.9842 1.749H5.8251c-1.0075 0-1.8578-.7495-1.9842-1.749L2.5162 9.751c-.1511-1.1947.78-2.251 1.9842-2.251H6.5m3 0h5"/>
  </g>
</svg>
