<svg role="img" width="72" height="72" viewBox="0 0 72 72" fill="none" xmlns="http://www.w3.org/2000/svg">
<path d="M59.5828 16.623C69.096 26.8372 69.096 42.6592 59.5828 52.9735" stroke="currentColor" stroke-linecap="round" stroke-linejoin="round"/>
<path d="M50.8707 26.5369C55.1766 31.2434 55.1766 38.3533 50.8707 43.0598" stroke="currentColor" stroke-linecap="round" stroke-linejoin="round"/>
<path d="M21.3297 23.4326V46.2643" stroke="currentColor" stroke-linecap="round" stroke-linejoin="round"/>
<path d="M5.20721 34.8484V46.2642H21.1293L39.6551 58.7816V31.4437" stroke="currentColor" stroke-linecap="round" stroke-linejoin="round"/>
<path d="M5.20721 34.8484V23.4325H21.1293L39.6551 10.9152V38.2531" stroke="currentColor" stroke-linecap="round" stroke-linejoin="round"/>
<path d="M59.5828 16.623C69.096 26.8372 69.096 42.6592 59.5828 52.9735" stroke="currentColor" stroke-linecap="round" stroke-linejoin="round"/>
<path d="M50.8707 26.5369C55.1766 31.2434 55.1766 38.3533 50.8707 43.0598" stroke="currentColor" stroke-linecap="round" stroke-linejoin="round"/>
<path d="M21.3297 23.4326V46.2643" stroke="currentColor" stroke-linecap="round" stroke-linejoin="round"/>
<path d="M5.20721 34.8484V46.2642H21.1293L39.6551 58.7816V31.4437" stroke="currentColor" stroke-linecap="round" stroke-linejoin="round"/>
<path d="M5.20721 34.8484V23.4325H21.1293L39.6551 10.9152V38.2531" stroke="currentColor" stroke-linecap="round" stroke-linejoin="round"/>
</svg>
