<svg role="img" width="24" height="24" viewBox="0 0 24 24" fill="none" xmlns="http://www.w3.org/2000/svg">
<path fill-rule="evenodd" clip-rule="evenodd" d="M13.5817 3.03886C13.7416 3.12394 13.8416 3.2903 13.8416 3.47145V10.381V12.7176V19.6272C13.8416 19.8083 13.7416 19.9747 13.5817 20.0598C13.4218 20.1449 13.228 20.1348 13.0778 20.0336L6.95988 15.9114H1.76881C1.49819 15.9114 1.27881 15.692 1.27881 15.4214V11.5493V11.5493V7.67729C1.27881 7.40667 1.49819 7.18729 1.76881 7.18729H6.95988L13.0778 3.06508C13.228 2.96386 13.4218 2.95378 13.5817 3.03886ZM12.8616 12.7176V10.381V4.39246L7.66656 7.89283V15.2058L12.8616 18.7062V12.7176ZM6.68656 8.16729H2.25881V11.5493V11.5493V14.9314H6.68656V8.16729ZM16.8446 8.17422C16.6581 7.97805 16.348 7.97014 16.1518 8.15656C15.9557 8.34298 15.9477 8.65313 16.1342 8.8493L18.6841 11.5326L16.1342 14.2159C15.9477 14.4121 15.9557 14.7223 16.1518 14.9087C16.348 15.0951 16.6581 15.0872 16.8446 14.891L19.36 12.2439L21.8755 14.891C22.0619 15.0872 22.372 15.0951 22.5682 14.9087C22.7644 14.7223 22.7723 14.4121 22.5859 14.2159L20.036 11.5326L22.5859 8.8493C22.7723 8.65313 22.7644 8.34298 22.5682 8.15656C22.372 7.97014 22.0619 7.97805 21.8755 8.17422L19.36 10.8213L16.8446 8.17422Z" fill="currentColor"/>
</svg>
