<svg role="img" width="24" height="24" viewBox="0 0 24 24" fill="none" xmlns="http://www.w3.org/2000/svg">
<path fill-rule="evenodd" clip-rule="evenodd" d="M11.5 1.5C11.6903 1.5 11.8641 1.60804 11.9484 1.77869L14.9221 7.80323L21.5723 8.77526C21.7606 8.80278 21.917 8.93478 21.9756 9.11578C22.0343 9.29679 21.9852 9.49541 21.8489 9.62818L17.0373 14.3147L18.1728 20.9355C18.205 21.1231 18.1279 21.3127 17.9739 21.4245C17.8199 21.5364 17.6157 21.5511 17.4473 21.4625L11.5 18.3349L5.55274 21.4625C5.38428 21.5511 5.18014 21.5364 5.02615 21.4245C4.87216 21.3127 4.79504 21.1231 4.82721 20.9355L5.96275 14.3147L1.15115 9.62818C1.01484 9.49541 0.965703 9.29679 1.02439 9.11578C1.08308 8.93478 1.23942 8.80278 1.4277 8.77526L8.07788 7.80323L11.0517 1.77869C11.1359 1.60804 11.3097 1.5 11.5 1.5ZM11.5 3.12963L8.85837 8.48131C8.7856 8.62874 8.64501 8.73097 8.48233 8.75474L2.57422 9.6183L6.84888 13.7818C6.96682 13.8967 7.02065 14.0623 6.99282 14.2245L5.98411 20.1058L11.2673 17.3275C11.413 17.2508 11.587 17.2508 11.7327 17.3275L17.0159 20.1058L16.0072 14.2245C15.9794 14.0623 16.0332 13.8967 16.1511 13.7818L20.4258 9.6183L14.5177 8.75474C14.355 8.73097 14.2144 8.62874 14.1417 8.48131L11.5 3.12963Z" fill="currentColor"/>
</svg>
