<svg width="72" height="72" viewBox="0 0 72 72" fill="none" xmlns="http://www.w3.org/2000/svg">
<path fill-rule="evenodd" clip-rule="evenodd" d="M34.9484 5.77869C34.8641 5.60804 34.6903 5.5 34.5 5.5C34.3097 5.5 34.1359 5.60804 34.0517 5.77869L24.8979 24.3232L4.4277 27.3153C4.23942 27.3428 4.08308 27.4748 4.02439 27.6558C3.9657 27.8368 4.01484 28.0354 4.15115 28.1682L18.9628 42.5947L15.4672 62.9755C15.435 63.1631 15.5122 63.3527 15.6661 63.4645C15.8201 63.5764 16.0243 63.5911 16.1927 63.5025L34.5 53.8749L52.8073 63.5025C52.9757 63.5911 53.1799 63.5764 53.3339 63.4645C53.4879 63.3527 53.565 63.1631 53.5328 62.9755L50.0373 42.5947L64.8489 28.1682C64.9852 28.0354 65.0343 27.8368 64.9756 27.6558C64.917 27.4748 64.7606 27.3428 64.5723 27.3153L44.1021 24.3232L34.9484 5.77869ZM34.5 52.81C34.5799 52.81 34.6599 52.8292 34.7327 52.8675L52.3759 62.1458L49.0072 42.5045C48.9794 42.3423 49.0332 42.1767 49.1511 42.0618L63.4258 28.1583L43.6977 25.2747C43.535 25.251 43.3944 25.1487 43.3217 25.0013L34.5 7.12963L34.5 7.12966V52.81Z" fill="currentColor"/>
</svg>
