<svg width="72" height="72" viewBox="0 0 72 72" fill="none" xmlns="http://www.w3.org/2000/svg">
<path fill-rule="evenodd" clip-rule="evenodd" d="M35.9389 24.1418C35.879 24.1309 35.8176 24.1311 35.7578 24.1423L4.71469 29.9504C4.47926 29.9944 4.30814 30.1992 4.30665 30.4387C4.30516 30.6783 4.47372 30.8852 4.70858 30.9321L16.9241 33.3753V43.8605C16.9241 44.0483 17.0227 44.1723 17.0586 44.2139C17.1042 44.2668 17.153 44.3045 17.1856 44.3276C17.2529 44.3756 17.3321 44.418 17.4061 44.4541C17.5591 44.5289 17.7695 44.6149 18.019 44.7088C18.522 44.8982 19.2334 45.1379 20.0788 45.4085C21.772 45.9504 24.0303 46.6247 26.2974 47.2823C28.5652 47.9401 30.8457 48.5823 32.5848 49.0601C33.4541 49.299 34.1895 49.4972 34.7209 49.6358C34.9863 49.7051 35.2031 49.76 35.3611 49.798C35.4397 49.8168 35.5071 49.8323 35.56 49.8433L35.5652 49.8444L35.5652 49.8444C35.5976 49.8512 35.6785 49.8681 35.7496 49.8681C35.8217 49.8681 35.9036 49.8506 35.9358 49.8437L35.941 49.8426C35.9941 49.8314 36.0616 49.8156 36.1402 49.7964C36.2983 49.7577 36.5151 49.7017 36.7804 49.6311C37.3118 49.4899 38.0472 49.2882 38.9164 49.0455C40.6554 48.5598 42.9355 47.9083 45.203 47.2444C47.4699 46.5806 49.7272 45.9034 51.4192 45.3666C52.2642 45.0986 52.9738 44.8637 53.4745 44.6822C53.7231 44.5921 53.9303 44.5115 54.0796 44.4439C54.1518 44.4113 54.2271 44.3744 54.2904 44.3344C54.3203 44.3155 54.3677 44.2836 54.4136 44.2382L54.4146 44.2372C54.4405 44.2117 54.575 44.0789 54.575 43.8605V33.3921L60.5523 32.101L60.5814 32.1035L60.486 45.1754L57.5014 48.6413C57.3739 48.7894 57.3443 48.9983 57.4258 49.176C57.5073 49.3537 57.6848 49.4676 57.8803 49.4676H58.8817H63.4881C63.6742 49.4676 63.8449 49.3642 63.9312 49.1993C64.0174 49.0344 64.0049 48.8352 63.8988 48.6824L61.4858 45.2076L61.5831 31.8784L66.8983 30.7303C67.1315 30.6799 67.2966 30.4718 67.2927 30.2332C67.2887 29.9946 67.1167 29.7921 66.8819 29.7496L35.9389 24.1418ZM60.4867 31.0922L64.2258 30.2845L35.8512 25.1422L7.43797 30.4582L17.4221 32.455C17.5195 32.4745 17.6045 32.5211 17.671 32.5853L35.7496 36.2405L53.9577 32.5591C54.0173 32.51 54.0891 32.474 54.1698 32.4566L57.1307 31.817L35.7082 30.0389C35.433 30.016 35.2284 29.7744 35.2513 29.4992C35.2741 29.224 35.5157 29.0195 35.7909 29.0423L60.4867 31.0922ZM35.7496 38.9544C36.0257 38.9544 36.2496 39.1782 36.2496 39.4544V46.4641C36.2496 46.7403 36.0257 46.9641 35.7496 46.9641C35.4734 46.9641 35.2496 46.7403 35.2496 46.4641V39.4544C35.2496 39.1782 35.4734 38.9544 35.7496 38.9544ZM58.9707 48.4676H62.5321L60.9422 46.1781L58.9707 48.4676ZM17.9241 33.6567V43.5925C18.0324 43.6411 18.1813 43.7014 18.3713 43.773C18.8501 43.9532 19.5422 44.1868 20.3836 44.4561C22.0637 44.9938 24.3117 45.6651 26.5759 46.3219C28.8393 46.9784 31.1152 47.6193 32.8497 48.0958C33.7172 48.3342 34.4479 48.5311 34.9734 48.6682C35.2365 48.7369 35.4459 48.7899 35.5945 48.8256C35.6601 48.8413 35.7113 48.8531 35.7488 48.8611C35.7861 48.853 35.8371 48.841 35.9026 48.825C36.0511 48.7887 36.2605 48.7346 36.5236 48.6647C37.0491 48.525 37.7799 48.3246 38.6474 48.0823C40.3821 47.5979 42.6582 46.9476 44.922 46.2847C47.1864 45.6216 49.4354 44.9469 51.1168 44.4135C51.9585 44.1464 52.6525 43.9165 53.1336 43.7421C53.3179 43.6753 53.4652 43.6187 53.575 43.5728V33.6567L35.8487 37.2407C35.7833 37.2539 35.7159 37.2539 35.6505 37.2407L17.9241 33.6567Z" fill="currentColor"/>
</svg>
