<svg width="72" height="72" viewBox="0 0 72 72" fill="none" xmlns="http://www.w3.org/2000/svg">
<path fill-rule="evenodd" clip-rule="evenodd" d="M5 13.615C5 13.2753 5.27534 13 5.615 13H66.3874C66.7271 13 67.0024 13.2753 67.0024 13.615V57.5055C67.0024 57.8452 66.7271 58.1205 66.3874 58.1205H5.615C5.27534 58.1205 5 57.8452 5 57.5055V13.615ZM54.9202 42.8754C54.9202 42.5357 55.1956 42.2604 55.5352 42.2604H62.8358C63.1755 42.2604 63.4508 42.5357 63.4508 42.8754C63.4508 43.215 63.1755 43.4904 62.8358 43.4904H55.5352C55.1956 43.4904 54.9202 43.215 54.9202 42.8754ZM10.5478 52.0468C10.2082 52.0468 9.93283 52.3221 9.93283 52.6618C9.93283 53.0014 10.2082 53.2768 10.5478 53.2768H16.5659C16.9055 53.2768 17.1809 53.0014 17.1809 52.6618C17.1809 52.3221 16.9055 52.0468 16.5659 52.0468H10.5478ZM23.8665 52.0468C23.5268 52.0468 23.2515 52.3221 23.2515 52.6618C23.2515 53.0014 23.5268 53.2768 23.8665 53.2768H62.8358C63.1754 53.2768 63.4508 53.0014 63.4508 52.6618C63.4508 52.3221 63.1754 52.0468 62.8358 52.0468H23.8665ZM10.5478 42.2604C10.2082 42.2604 9.93283 42.5357 9.93283 42.8754C9.93283 43.215 10.2082 43.4904 10.5478 43.4904H48.2346C48.5743 43.4904 48.8496 43.215 48.8496 42.8754C48.8496 42.5357 48.5743 42.2604 48.2346 42.2604H10.5478ZM6.23 56.8905V14.23H65.7724V56.8905H6.23Z" fill="currentColor"/>
</svg>
