<svg width="72" height="72" viewBox="0 0 72 72" fill="none" xmlns="http://www.w3.org/2000/svg">
<path d="M36 66.2H14.2002C13.6479 66.2 13.2002 65.7523 13.2002 65.2V21C13.2002 20.4477 13.6479 20 14.2002 20H36.6002M44.8002 27.8V39.6M36 61.61H13.2002M31.3002 63.9C31.3002 64.0978 31.2415 64.2911 31.1317 64.4556C31.0218 64.62 30.8656 64.7482 30.6829 64.8239C30.5002 64.8996 30.2991 64.9194 30.1051 64.8808C29.9111 64.8422 29.7329 64.747 29.5931 64.6071C29.4532 64.4673 29.358 64.2891 29.3194 64.0951C29.2808 63.9011 29.3006 63.7 29.3763 63.5173C29.452 63.3346 29.5802 63.1784 29.7446 63.0685C29.9091 62.9586 30.1024 62.9 30.3002 62.9C30.5654 62.9 30.8198 63.0054 31.0073 63.1929C31.1948 63.3804 31.3002 63.6348 31.3002 63.9Z" stroke="currentColor" stroke-linecap="round" stroke-linejoin="round"/>
<path d="M54.1002 5.2002C55.4512 5.20546 56.7453 5.74447 57.7006 6.69977C58.6559 7.65507 59.1949 8.94921 59.2002 10.3002V20.8002C59.1949 22.1512 58.6559 23.4453 57.7006 24.4006C56.7453 25.3559 55.4512 25.8949 54.1002 25.9002H43.8002C42.4492 25.8949 41.1551 25.3559 40.1998 24.4006C39.2445 23.4453 38.7055 22.1512 38.7002 20.8002V10.3002C38.7055 8.94921 39.2445 7.65507 40.1998 6.69977C41.1551 5.74447 42.4492 5.20546 43.8002 5.2002H54.1002Z" stroke="currentColor" stroke-miterlimit="10"/>
<path d="M47.2001 15.2L44.1001 10L49.4001 15.2L44.1001 20.4L47.2001 15.2Z" fill="currentColor"/>
<path d="M49.4004 15.2L54.6004 10L51.6004 15.2L54.6004 20.4L49.4004 15.2Z" fill="currentColor"/>
<path fill-rule="evenodd" clip-rule="evenodd" d="M38.917 42.7168C38.992 42.6418 39.0937 42.5996 39.1998 42.5996H50.2998C50.4059 42.5996 50.5076 42.6418 50.5826 42.7168C50.6577 42.7918 50.6998 42.8935 50.6998 42.9996V65.3996C50.6998 65.5057 50.6577 65.6074 50.5826 65.6825C50.5076 65.7575 50.4059 65.7996 50.2998 65.7996H39.1998C39.0937 65.7996 38.992 65.7575 38.917 65.6825C38.8419 65.6074 38.7998 65.5057 38.7998 65.3996V42.9996C38.7998 42.8935 38.8419 42.7918 38.917 42.7168ZM39.1998 41.5996C38.8285 41.5996 38.4724 41.7471 38.2099 42.0097C37.9473 42.2722 37.7998 42.6283 37.7998 42.9996V65.3996C37.7998 65.7709 37.9473 66.127 38.2099 66.3896C38.4724 66.6521 38.8285 66.7996 39.1998 66.7996H50.2998C50.6711 66.7996 51.0272 66.6521 51.2898 66.3896C51.5523 66.127 51.6998 65.7709 51.6998 65.3996V42.9996C51.6998 42.6283 51.5523 42.2722 51.2898 42.0097C51.0272 41.7471 50.6711 41.5996 50.2998 41.5996H39.1998ZM44.2397 63.8596C44.2397 63.5835 44.4636 63.3596 44.7397 63.3596C45.0159 63.3596 45.2397 63.5835 45.2397 63.8596C45.2397 64.1358 45.0159 64.3596 44.7397 64.3596C44.4636 64.3596 44.2397 64.1358 44.2397 63.8596ZM44.7397 62.3596C43.9113 62.3596 43.2397 63.0312 43.2397 63.8596C43.2397 64.688 43.9113 65.3596 44.7397 65.3596C45.5682 65.3596 46.2397 64.688 46.2397 63.8596C46.2397 63.0312 45.5682 62.3596 44.7397 62.3596Z" fill="currentColor"/>
</svg>
