<svg role="img" width="24" height="24" viewBox="0 0 24 24" fill="none" xmlns="http://www.w3.org/2000/svg">
<path d="M10.4995 22.067H4.3999V6.66699H11.4995M14.9995 10.0004V11.5004M10.0999 20.3003C10.0999 20.3663 10.0804 20.4307 10.0437 20.4855C10.0071 20.5403 9.95504 20.5831 9.89413 20.6083C9.83322 20.6335 9.7662 20.6401 9.70154 20.6273C9.63688 20.6144 9.57749 20.5826 9.53087 20.536C9.48425 20.4894 9.4525 20.43 9.43964 20.3654C9.42678 20.3007 9.43338 20.2337 9.45861 20.1728C9.48384 20.1119 9.52656 20.0598 9.58138 20.0232C9.6362 19.9865 9.70064 19.967 9.76657 19.967C9.85498 19.967 9.93976 20.0021 10.0023 20.0646C10.0648 20.1271 10.0999 20.2119 10.0999 20.3003Z" stroke="currentColor" stroke-linecap="round" stroke-linejoin="round"/>
<path d="M18.0332 1.7334C18.4836 1.73515 18.9149 1.91482 19.2334 2.23326C19.5518 2.55169 19.7315 2.98307 19.7332 3.4334V6.9334C19.7315 7.38373 19.5518 7.81511 19.2334 8.13354C18.9149 8.45197 18.4836 8.63164 18.0332 8.6334H14.5999C14.1496 8.63164 13.7182 8.45197 13.3998 8.13354C13.0813 7.81511 12.9017 7.38373 12.8999 6.9334V3.4334C12.9017 2.98307 13.0813 2.55169 13.3998 2.23326C13.7182 1.91482 14.1496 1.73515 14.5999 1.7334H18.0332Z" stroke="currentColor" stroke-miterlimit="10"/>
<path d="M15.7335 5.06634L14.7002 3.33301L16.4669 5.06634L14.7002 6.79967L15.7335 5.06634Z" fill="currentColor"/>
<path d="M16.4668 5.06634L18.2001 3.33301L17.2001 5.06634L18.2001 6.79967L16.4668 5.06634Z" fill="currentColor"/>
<path fill-rule="evenodd" clip-rule="evenodd" d="M13 13.5V21.5H17V13.5H16C16 13.7761 15.7761 14 15.5 14H14.5C14.2239 14 14 13.7761 14 13.5H13ZM12 13.3441C12 12.8599 12.4023 12.5 12.8576 12.5H17.1424C17.5977 12.5 18 12.8599 18 13.3441V21.6559C18 22.1401 17.5977 22.5 17.1424 22.5H12.8576C12.4023 22.5 12 22.1401 12 21.6559V13.3441ZM15 21C15.2761 21 15.5 20.7761 15.5 20.5C15.5 20.2239 15.2761 20 15 20C14.7239 20 14.5 20.2239 14.5 20.5C14.5 20.7761 14.7239 21 15 21Z" fill="currentColor"/>
</svg>
