<svg width="72" height="72" viewBox="0 0 72 72" fill="none" xmlns="http://www.w3.org/2000/svg">
<path fill-rule="evenodd" clip-rule="evenodd" d="M66.6623 9C66.6623 8.86725 66.6095 8.73995 66.5156 8.64615C66.4216 8.55236 66.2943 8.49978 66.1615 8.5L6.83804 8.59806C6.56222 8.59851 6.33887 8.82224 6.33887 9.09806V50.2813C6.33887 50.5574 6.56272 50.7813 6.83887 50.7813H37.6172L51.6888 64.8529C51.8318 64.9959 52.0469 65.0386 52.2337 64.9612C52.4206 64.8839 52.5424 64.7015 52.5424 64.4993V50.6832H66.1623C66.4385 50.6832 66.6623 50.4594 66.6623 50.1832V9ZM7.33887 49.7813V9.59723L65.6623 9.50083V49.6832H52.0424C51.7662 49.6832 51.5424 49.9071 51.5424 50.1832V63.2922L38.1779 49.9277C38.0841 49.834 37.957 49.7813 37.8243 49.7813H7.33887ZM24.6579 30.6224C22.014 27.6005 22.3765 22.9253 25.4049 20.2618C26.683 19.1673 28.4255 18.5231 30.1677 18.5211C32.908 18.6156 35.1735 20.2556 36.0808 22.7053C36.1491 22.8899 36.3195 23.0172 36.5159 23.0305C36.7123 23.0438 36.8982 22.9406 36.9908 22.7669C38.5104 19.9176 40.4305 18.5211 42.7271 18.5211C46.7634 18.5211 50.0654 21.8228 49.9736 25.9525L49.9735 25.9525V25.9636C49.9735 27.6942 49.3387 29.3455 48.2322 30.7348L36.5488 43.1782L25.4408 31.4057L25.4307 31.3953L25.0385 31.0031L24.6579 30.6224ZM30.176 17.5211C28.196 17.5211 26.2169 18.2487 24.7518 19.5045L24.7517 19.5045L24.7471 19.5086C21.31 22.5291 20.8859 27.8451 23.9171 31.2944C23.9242 31.3025 23.9316 31.3104 23.9392 31.3179L24.3314 31.7102L24.7185 32.0973L36.186 44.2508C36.2806 44.3511 36.4124 44.4079 36.5503 44.4077C36.6881 44.4075 36.8198 44.3504 36.9142 44.2499L48.975 31.4047C48.984 31.3951 48.9926 31.3851 49.0009 31.3748C50.2391 29.8271 50.9721 27.9562 50.9735 25.9691C51.0747 21.2764 47.3179 17.5211 42.7271 17.5211C40.2015 17.5211 38.1665 18.9355 36.6047 21.436C35.3667 19.1127 32.9789 17.6142 30.1927 17.5214L30.176 17.5211Z" fill="currentColor"/>
</svg>
