<svg width="72" height="72" viewBox="0 0 72 72" fill="none" xmlns="http://www.w3.org/2000/svg">
<path fill-rule="evenodd" clip-rule="evenodd" d="M5.40723 13.5C5.13108 13.5 4.90723 13.7239 4.90723 14V53.6551C4.90723 53.9312 5.13108 54.1551 5.40723 54.1551H32.0449V57.3609H18.6256C18.3495 57.3609 18.1256 57.5848 18.1256 57.8609C18.1256 58.137 18.3495 58.3609 18.6256 58.3609H32.5381L32.5449 58.3609L32.5518 58.3609H38.8469C38.8492 58.3609 38.8515 58.3609 38.8538 58.3609C38.856 58.3609 38.8583 58.3609 38.8606 58.3609H52.773C53.0492 58.3609 53.273 58.137 53.273 57.8609C53.273 57.5848 53.0492 57.3609 52.773 57.3609H39.3538V54.1551H66.6923C66.9685 54.1551 67.1923 53.9312 67.1923 53.6551V14C67.1923 13.7239 66.9685 13.5 66.6923 13.5H5.40723ZM38.3538 54.1551H33.0449V57.3609H38.3538V54.1551ZM5.90723 53.1551V14.5H66.1923V53.1551H5.90723Z" fill="currentColor"/>
</svg>
