<svg width="24" height="24" viewBox="0 0 24 24" fill="none" xmlns="http://www.w3.org/2000/svg">
<path fill-rule="evenodd" clip-rule="evenodd" d="M4.47627 9.14649L4.47754 9.14648L19.4921 9.14649H19.493C19.9578 9.14725 20.4064 9.31767 20.7544 9.62576L20.423 10.0002L20.757 9.62803L20.757 9.62808L20.7573 9.6283L20.7582 9.62914L20.7619 9.63243L20.7761 9.64519L20.83 9.69361L21.0225 9.86692C21.182 10.0107 21.3954 10.2035 21.6107 10.3994C21.8257 10.595 22.044 10.7948 22.2126 10.9521C22.2966 11.0305 22.3704 11.1004 22.4261 11.1547C22.4536 11.1815 22.4794 11.2073 22.5009 11.2298L22.5022 11.2311C22.5117 11.241 22.5602 11.2909 22.5955 11.3489C22.6017 11.3591 22.6075 11.3696 22.613 11.3803C22.6878 11.5262 22.7269 11.6879 22.7269 11.852C22.7269 12.0124 22.6896 12.1705 22.6179 12.3139C22.5803 12.3934 22.4836 12.5707 22.3781 12.762C22.2563 12.9828 22.1017 13.26 21.9499 13.531C21.798 13.8022 21.6486 14.0678 21.5372 14.2656L21.4029 14.5038L21.3654 14.5702L21.3556 14.5877L21.353 14.5921L21.3524 14.5933L21.3522 14.5936L21.3522 14.5937L20.9169 14.3477L21.3522 14.5937C21.3481 14.601 21.3438 14.6081 21.3393 14.6152C21.2345 14.7807 21.0898 14.9171 20.9184 15.012C20.7471 15.1068 20.5546 15.1571 20.3587 15.158L20.3563 15.158H11.7012V15.1447H3.67049C3.47505 15.1495 3.28146 15.1052 3.10753 15.0157C2.93083 14.9248 2.78026 14.7903 2.67008 14.625C2.6633 14.6148 2.65689 14.6043 2.65086 14.5937L3.08619 14.3477L2.65085 14.5937L2.65081 14.5936L2.65065 14.5933L2.65001 14.5922L2.64749 14.5877L2.63764 14.5703L2.6001 14.5038L2.46488 14.2646L2.04368 13.5194C1.73039 12.9653 1.39842 12.3786 1.31802 12.2379C1.20262 12.0378 1.16726 11.8014 1.21911 11.5763C1.26782 11.3648 1.3901 11.178 1.56334 11.0488C1.69724 10.9281 2.09368 10.5866 2.45568 10.276C2.65301 10.1066 2.84456 9.94261 2.98675 9.82098L3.15764 9.67487L3.20516 9.63427L3.21764 9.6236L3.21897 9.62247C3.56656 9.31683 4.01331 9.14766 4.47627 9.14649ZM3.54663 10.0002L3.87131 10.3804L3.87126 10.3804L3.87106 10.3806L3.87026 10.3813L3.86709 10.384L3.85467 10.3946L3.80731 10.4351L3.63679 10.5809C3.49484 10.7023 3.30373 10.8659 3.10693 11.0348C2.99792 11.1284 2.88843 11.2225 2.78517 11.3114L21.117 11.3024C21.058 11.2485 20.9979 11.1938 20.9378 11.1391C20.724 10.9446 20.5118 10.7529 20.353 10.6097L20.1614 10.4373L20.1079 10.3892L20.0939 10.3766L20.0917 10.3746C19.9261 10.228 19.7128 10.1469 19.4917 10.1465H4.47824C4.25698 10.1472 4.04351 10.2284 3.87769 10.3749L3.87137 10.3804L3.54663 10.0002ZM19.6411 12.3032L4.38276 12.3106L11.2329 14.1447H12.7731L19.6411 12.3032ZM20.3547 14.158H16.5846L21.1361 12.9377L21.0774 13.0424C20.9261 13.3126 20.7771 13.5774 20.6659 13.7748L20.532 14.0123L20.4947 14.0785L20.4898 14.0872C20.4752 14.1078 20.4562 14.1249 20.4341 14.1371C20.4098 14.1506 20.3825 14.1577 20.3547 14.158ZM7.36643 14.1447L2.86445 12.9393L2.91417 13.0273L3.33547 13.7725L3.47072 14.0119L3.50827 14.0783L3.50946 14.0804C3.52437 14.0996 3.54331 14.1153 3.56499 14.1265C3.59032 14.1395 3.61855 14.1459 3.64702 14.1449L3.66341 14.1447H7.36643ZM12.5787 10.8209C12.5787 10.8687 12.5597 10.9146 12.5259 10.9483C12.4922 10.9821 12.4463 11.0011 12.3985 11.0011H11.5644C11.5172 11.0011 11.4719 10.9826 11.4382 10.9495C11.4045 10.9165 11.3851 10.8715 11.3842 10.8243C11.3851 10.7771 11.4045 10.7321 11.4382 10.699C11.4719 10.666 11.5172 10.6474 11.5644 10.6474H12.3985C12.4452 10.6474 12.49 10.6655 12.5236 10.6978C12.5572 10.7302 12.577 10.7743 12.5787 10.8209Z" fill="currentColor"/>
</svg>
