<svg role="img" width="72" height="72" viewBox="0 0 72 72" fill="none" xmlns="http://www.w3.org/2000/svg">
<path d="M46.2643 57.8804H28.1391C27.6384 57.8804 27.2378 57.6801 26.9374 57.1794C26.9374 57.1794 24.4339 52.8734 24.1335 52.2726C23.9332 51.872 24.0334 51.3713 24.4339 51.0709C24.8345 50.7705 27.9388 48.0668 27.9388 48.0668C28.4395 47.5661 29.1405 47.3658 29.9416 47.3658H61.3853C62.0862 47.3658 62.7872 47.6662 63.388 48.0668C63.388 48.0668 66.8929 51.2712 67.0932 51.4715C67.2935 51.7719 67.2935 52.1725 67.0932 52.4729C66.8929 52.8734 64.4896 57.1794 64.4896 57.1794C64.3894 57.3797 64.1892 57.58 63.9889 57.6801C63.7886 57.7802 63.5883 57.8804 63.2879 57.8804H45.0626" stroke="currentColor" stroke-linejoin="round"/>
<path d="M46.8651 49.8692C46.8651 50.0695 46.6648 50.2698 46.4646 50.2698H44.7622C44.5619 50.2698 44.3616 50.0695 44.3616 49.8692C44.3616 49.669 44.5619 49.4687 44.7622 49.4687H46.5647C46.765 49.5688 46.8651 49.669 46.8651 49.8692Z" fill="currentColor"/>
<path d="M47.4654 57.8794H43.9605L24.4334 52.6722" stroke="currentColor" stroke-linejoin="round"/>
<path d="M66.8929 52.6722L47.3658 57.8794H43.8609" stroke="currentColor" stroke-linejoin="round"/>
<path d="M24.1334 51.9722H67.093" stroke="currentColor" stroke-linejoin="round"/>
<path d="M16.1224 13.7191H5.10706V57.7803H16.1224V13.7191Z" stroke="currentColor" stroke-linecap="round" stroke-linejoin="round"/>
<path d="M15.1208 15.6217H6.10828C6.00814 15.6217 5.90801 15.5216 5.80787 15.4214L5.20703 14.0195C5.20703 13.9193 5.20703 13.7191 5.40731 13.7191H5.50745H15.9219C16.1222 13.7191 16.2223 13.9193 16.2223 14.0195L15.6215 15.4214C15.4212 15.5216 15.3211 15.6217 15.1208 15.6217Z" stroke="currentColor" stroke-linecap="round" stroke-linejoin="round"/>
<path d="M9.11261 19.1266H12.0166" stroke="currentColor" stroke-linecap="round" stroke-linejoin="round"/>
<path d="M7.61053 41.3574H8.21053" stroke="currentColor" stroke-linecap="round" stroke-linejoin="round"/>
<path d="M10.3143 41.3574H10.9143" stroke="currentColor" stroke-linecap="round" stroke-linejoin="round"/>
<path d="M13.0181 41.3574H13.6181" stroke="currentColor" stroke-linecap="round" stroke-linejoin="round"/>
<path d="M7.61053 45.2629H8.21053" stroke="currentColor" stroke-linecap="round" stroke-linejoin="round"/>
<path d="M10.3143 45.2629H10.9143" stroke="currentColor" stroke-linecap="round" stroke-linejoin="round"/>
<path d="M13.0181 45.2629H13.6181" stroke="currentColor" stroke-linecap="round" stroke-linejoin="round"/>
<path d="M7.61053 49.1683H8.21053" stroke="currentColor" stroke-linecap="round" stroke-linejoin="round"/>
<path d="M10.3143 49.1683H10.9143" stroke="currentColor" stroke-linecap="round" stroke-linejoin="round"/>
<path d="M13.0181 49.1683H13.6181" stroke="currentColor" stroke-linecap="round" stroke-linejoin="round"/>
<path d="M10.3143 52.9736H10.9143" stroke="currentColor" stroke-linecap="round" stroke-linejoin="round"/>
<path d="M10.6147 37.6523C11.2784 37.6523 11.8164 37.1143 11.8164 36.4506C11.8164 35.787 11.2784 35.249 10.6147 35.249C9.95103 35.249 9.41302 35.787 9.41302 36.4506C9.41302 37.1143 9.95103 37.6523 10.6147 37.6523Z" stroke="currentColor" stroke-linecap="round" stroke-linejoin="round"/>
</svg>
