<svg width="72" height="72" viewBox="0 0 72 72" fill="none" xmlns="http://www.w3.org/2000/svg">
<path fill-rule="evenodd" clip-rule="evenodd" d="M4.60693 13.7188C4.60693 13.4426 4.83079 13.2188 5.10693 13.2188H5.40721H5.50735H15.9218H16.1222C16.3694 13.2188 16.5747 13.3981 16.6151 13.6338C16.6807 13.7499 16.7222 13.8848 16.7222 14.0192C16.7222 14.0869 16.7085 14.1539 16.6818 14.2161L16.6222 14.3551V57.7799C16.6222 58.0561 16.3984 58.2799 16.1222 58.2799H5.10693C4.83079 58.2799 4.60693 58.0561 4.60693 57.7799V13.7188ZM15.5927 14.2188H5.83645L6.2233 15.1214H15.1207L15.1258 15.1212C15.1276 15.1206 15.134 15.1183 15.1474 15.1116C15.1675 15.1016 15.1889 15.0893 15.2297 15.0658L15.5927 14.2188ZM5.60693 15.9182C5.62346 15.932 5.64055 15.9457 5.65798 15.9588C5.73677 16.0179 5.89497 16.1214 6.10819 16.1214H15.1207C15.3184 16.1214 15.4705 16.0681 15.5947 16.006C15.6039 16.0014 15.6131 15.9966 15.6222 15.9919V57.2799H5.60693V15.9182ZM29.9415 47.8655C29.2174 47.8655 28.6661 48.0462 28.2922 48.42C28.2841 48.4281 28.2757 48.436 28.2671 48.4435L27.9387 48.0665L28.267 48.4435L28.2669 48.4436L28.2665 48.444L28.2648 48.4455L28.2581 48.4513L28.232 48.474L28.1327 48.5605L27.7752 48.8711C27.4777 49.1295 27.0768 49.4772 26.6633 49.8343C25.8477 50.5386 24.9521 51.3069 24.7338 51.4706L24.7321 51.4719H66.3614C65.9933 51.1318 65.4098 50.5961 64.8275 50.0623C64.377 49.6493 63.9328 49.2426 63.6011 48.9391L63.2015 48.5735L63.0899 48.4715L63.0794 48.4619C62.5307 48.1018 61.9389 47.8655 61.3851 47.8655H29.9415ZM65.7023 52.4719H25.6238L44.0259 57.3791H47.3001L65.7023 52.4719ZM63.2878 57.3801H51.1776L66.0033 53.4265C65.7837 53.824 65.5305 54.2807 65.2791 54.7332C64.9663 55.2963 64.6597 55.8468 64.4313 56.2567L64.1564 56.7497L64.0799 56.887L64.0597 56.9231L64.0546 56.9323L64.0533 56.9346L64.053 56.9352L64.0529 56.9354L64.4895 57.1791L64.0529 56.9354C64.0492 56.942 64.0456 56.9487 64.0422 56.9555C63.9905 57.059 63.8687 57.1808 63.7652 57.2326C63.5688 57.3308 63.4608 57.3801 63.2878 57.3801ZM40.1485 57.3801L25.3547 53.4351C25.5802 53.8302 25.8322 54.2691 26.0813 54.7014C26.4127 55.2767 26.7348 55.8334 26.974 56.2462L27.2615 56.7419L27.3414 56.8794L27.3624 56.9155L27.3677 56.9246C27.4812 57.1129 27.5972 57.2192 27.7082 57.2816C27.8197 57.3443 27.9569 57.3801 28.139 57.3801H40.1485ZM63.3879 48.0665L63.7253 47.6974C63.7065 47.6803 63.6865 47.6645 63.6653 47.6504C63.021 47.2209 62.2228 46.8655 61.3851 46.8655H29.9415C29.0693 46.8655 28.2243 47.0824 27.598 47.7001L27.5754 47.7198L27.4764 47.806L27.1195 48.1161C26.8225 48.3741 26.4223 48.7211 26.0097 49.0775C25.1729 49.8001 24.3161 50.5339 24.1338 50.6706C23.5394 51.1164 23.3781 51.8798 23.6862 52.4959C23.845 52.8135 24.557 54.0588 25.2148 55.2006C25.5468 55.7769 25.8693 56.3343 26.1088 56.7476L26.3967 57.244L26.4768 57.3818L26.4978 57.418L26.5032 57.4273L26.5046 57.4296L26.5049 57.4302L26.505 57.4304L26.9373 57.1791L26.505 57.4304L26.5086 57.4364C26.695 57.747 26.9288 57.9905 27.2179 58.1531C27.507 58.3157 27.8203 58.3801 28.139 58.3801H45.0625H46.2641H63.2878C63.7067 58.3801 63.9959 58.2353 64.1995 58.1334L64.2124 58.127C64.5056 57.9804 64.7811 57.7068 64.9309 57.414L64.933 57.4104L64.9531 57.3743L65.0298 57.2369L65.3049 56.7434C65.5334 56.3334 65.8402 55.7824 66.1532 55.2189C66.752 54.141 67.3867 52.9943 67.5268 52.7227C67.8212 52.2578 67.8153 51.6532 67.5091 51.1938C67.4908 51.1664 67.4699 51.1409 67.4466 51.1176C67.3363 51.0073 66.3961 50.1436 65.5033 49.3251C65.0525 48.9119 64.608 48.505 64.2762 48.2014L63.8764 47.8356L63.7648 47.7335L63.7354 47.7066L63.7279 47.6998L63.7259 47.698L63.7255 47.6976L63.7253 47.6975L63.3879 48.0665ZM46.865 49.869C46.865 50.0692 46.6647 50.2695 46.4644 50.2695H44.7621C44.5618 50.2695 44.3615 50.0692 44.3615 49.869C44.3615 49.6687 44.5618 49.4684 44.7621 49.4684H46.5646C46.7648 49.5685 46.865 49.6687 46.865 49.869ZM8.6125 19.1263C8.6125 18.8501 8.83635 18.6263 9.1125 18.6263H12.0165C12.2927 18.6263 12.5165 18.8501 12.5165 19.1263C12.5165 19.4024 12.2927 19.6263 12.0165 19.6263H9.1125C8.83635 19.6263 8.6125 19.4024 8.6125 19.1263ZM7.61041 40.8571C7.33427 40.8571 7.11041 41.081 7.11041 41.3571C7.11041 41.6333 7.33427 41.8571 7.61041 41.8571H8.21041C8.48655 41.8571 8.71041 41.6333 8.71041 41.3571C8.71041 41.081 8.48655 40.8571 8.21041 40.8571H7.61041ZM9.81417 41.3571C9.81417 41.081 10.038 40.8571 10.3142 40.8571H10.9142C11.1903 40.8571 11.4142 41.081 11.4142 41.3571C11.4142 41.6333 11.1903 41.8571 10.9142 41.8571H10.3142C10.038 41.8571 9.81417 41.6333 9.81417 41.3571ZM13.0179 40.8571C12.7418 40.8571 12.5179 41.081 12.5179 41.3571C12.5179 41.6333 12.7418 41.8571 13.0179 41.8571H13.6179C13.8941 41.8571 14.1179 41.6333 14.1179 41.3571C14.1179 41.081 13.8941 40.8571 13.6179 40.8571H13.0179ZM7.11041 45.2626C7.11041 44.9864 7.33427 44.7626 7.61041 44.7626H8.21041C8.48655 44.7626 8.71041 44.9864 8.71041 45.2626C8.71041 45.5387 8.48655 45.7626 8.21041 45.7626H7.61041C7.33427 45.7626 7.11041 45.5387 7.11041 45.2626ZM10.3142 44.7626C10.038 44.7626 9.81417 44.9864 9.81417 45.2626C9.81417 45.5387 10.038 45.7626 10.3142 45.7626H10.9142C11.1903 45.7626 11.4142 45.5387 11.4142 45.2626C11.4142 44.9864 11.1903 44.7626 10.9142 44.7626H10.3142ZM12.5179 45.2626C12.5179 44.9864 12.7418 44.7626 13.0179 44.7626H13.6179C13.8941 44.7626 14.1179 44.9864 14.1179 45.2626C14.1179 45.5387 13.8941 45.7626 13.6179 45.7626H13.0179C12.7418 45.7626 12.5179 45.5387 12.5179 45.2626ZM7.61041 48.668C7.33427 48.668 7.11041 48.8918 7.11041 49.168C7.11041 49.4441 7.33427 49.668 7.61041 49.668H8.21041C8.48655 49.668 8.71041 49.4441 8.71041 49.168C8.71041 48.8918 8.48655 48.668 8.21041 48.668H7.61041ZM9.81417 49.168C9.81417 48.8918 10.038 48.668 10.3142 48.668H10.9142C11.1903 48.668 11.4142 48.8918 11.4142 49.168C11.4142 49.4441 11.1903 49.668 10.9142 49.668H10.3142C10.038 49.668 9.81417 49.4441 9.81417 49.168ZM13.0179 48.668C12.7418 48.668 12.5179 48.8918 12.5179 49.168C12.5179 49.4441 12.7418 49.668 13.0179 49.668H13.6179C13.8941 49.668 14.1179 49.4441 14.1179 49.168C14.1179 48.8918 13.8941 48.668 13.6179 48.668H13.0179ZM9.81417 52.9733C9.81417 52.6971 10.038 52.4733 10.3142 52.4733H10.9142C11.1903 52.4733 11.4142 52.6971 11.4142 52.9733C11.4142 53.2494 11.1903 53.4733 10.9142 53.4733H10.3142C10.038 53.4733 9.81417 53.2494 9.81417 52.9733ZM9.91291 36.4503C9.91291 36.0628 10.2271 35.7487 10.6146 35.7487C11.0021 35.7487 11.3163 36.0628 11.3163 36.4503C11.3163 36.8378 11.0021 37.152 10.6146 37.152C10.2271 37.152 9.91291 36.8378 9.91291 36.4503ZM10.6146 34.7487C9.67478 34.7487 8.91291 35.5105 8.91291 36.4503C8.91291 37.3901 9.67478 38.152 10.6146 38.152C11.5544 38.152 12.3163 37.3901 12.3163 36.4503C12.3163 35.5105 11.5544 34.7487 10.6146 34.7487Z" fill="currentColor"/>
</svg>
