<svg width="72" height="72" viewBox="0 0 72 72" fill="none" xmlns="http://www.w3.org/2000/svg">
<path d="M10.9465 9.08874C9.88159 9.08874 9.08289 9.88745 8.99414 10.9524V11.0411V61.4481C8.99414 62.5131 9.79284 63.3118 10.8578 63.4005H10.9465H61.3535C62.4185 63.4005 63.2172 62.6018 63.3059 61.5369V61.4481V10.9524C63.3059 9.88745 62.5072 9.08874 61.4423 9H61.3535H10.9465V9.08874Z" stroke="currentColor" stroke-linecap="round" stroke-linejoin="round"/>
<path d="M38.635 60.1167H33.6653C33.2216 60.1167 32.8666 59.7617 32.7778 59.318V59.1405C32.7778 58.6968 33.2216 58.3418 33.6653 58.3418H38.635C39.0787 58.3418 39.5224 58.6968 39.5224 59.1405V59.4067C39.4337 59.8505 39.0787 60.1167 38.635 60.1167Z" stroke="currentColor" stroke-miterlimit="10"/>
</svg>
