<svg role="img" xmlns="http://www.w3.org/2000/svg" width="72" height="72" fill="none" viewBox="0 0 72 72">
  <path stroke="currentColor" stroke-linecap="round" stroke-linejoin="round" d="M25.5 67.5v-18h20v18h-20Z"/>
  <path stroke="currentColor" stroke-width="4" d="M32.5 67.5v-18"/>
  <path stroke="currentColor" stroke-linecap="round" stroke-linejoin="round" d="M41 64.158v-3.7369m-3 3.7369v-6.579"/>
  <path fill="currentColor" fill-rule="evenodd" d="M19.5 4a.5.5 0 0 0-.5.5v50a.5.5 0 0 0 .5.5h6v-1H20V5h31v49h-5.5v1h6a.5.5 0 0 0 .5-.5v-50a.5.5 0 0 0-.5-.5h-32Z"/>
  <path stroke="currentColor" stroke-linecap="round" stroke-linejoin="round" d="M33 17.938c.0752.1567.1592.3083.2565.4498.1901.2829.42.5356.6765.7377.1724.1163.3714.1769.5704.187h1.8041c.1945-.0101.3891-.0707.5571-.187a3.9105 3.9105 0 0 0 .7517-.8034 1.1198 1.1198 0 0 0 .1327-.5761v-.8136c0-.2981-.1725-.5053-.513-.6265l-1.5962-.4447-.5571-.1617-1.3266-.3891c-.3979-.0657-.6898-.4548-.6809-.9147v-.6266a1.1194 1.1194 0 0 1 .1326-.576 4.0175 4.0175 0 0 1 .7561-.8186c.1681-.1163.3626-.1769.5572-.187h1.6537c.1946.0101.3847.0758.5527.187.2609.2021.4864.4548.681.7377.0973.1415.1813.2931.252.4548M35.375 11v9.5m-10.875 7h2m8 0h2m8 0h2m-22 8h2m8 0h2m8 0h2m-22 8h2m8 0h2m8 0h2"/>
  <path stroke="currentColor" stroke-linecap="round" stroke-miterlimit="10" d="M51.5 8.5h-32m28 41h-24m28-26.5h-32"/>
</svg>
