<svg role="img" xmlns="http://www.w3.org/2000/svg" width="24" height="24" fill="none" viewBox="0 0 24 24">
  <path fill="currentColor" fill-rule="evenodd" d="M4.5 1a.5.5 0 0 0-.5.5v17.0019a.5.5 0 0 0 .5.5h3.4854v-1H5V2h13.9991v16.0019h-3.0137v1h3.5137a.5.5 0 0 0 .5-.5V1.5a.5.5 0 0 0-.5-.5H4.5Z"/>
  <path stroke="currentColor" stroke-linecap="round" stroke-linejoin="round" d="M8.4854 22.0173v-6h7v6h-7Zm4-2.3889v-1.6666"/>
  <path stroke="currentColor" stroke-linecap="round" stroke-miterlimit="10" d="M16.9854 16.0173h-10m12-9h-14"/>
  <path stroke="currentColor" stroke-linecap="round" stroke-linejoin="round" d="M6.9854 10.0173h1m-1 3h1m3.3333-3h1m-1 3h1m3.3333-3h1m-1 3h1"/>
  <path stroke="currentColor" stroke-width="2" d="M9.9854 22.0173v-6.5"/>
</svg>
