<svg width="72" height="72" viewBox="0 0 72 72" fill="none" xmlns="http://www.w3.org/2000/svg">
<path d="M24.0335 37.6527L22.231 38.1534L24.0335 37.6527ZM28.9404 36.3509L27.1379 36.8516L28.9404 36.3509ZM33.8472 35.1492L32.0447 35.5498L33.8472 35.1492ZM38.754 33.8474L36.9515 34.3481L38.754 33.8474ZM43.6608 32.6457L41.8583 33.0463L43.6608 32.6457ZM48.5676 31.3439L46.7651 31.8446L48.5676 31.3439ZM53.4744 30.0421L51.6719 30.5428L53.4744 30.0421ZM30.6427 41.458C29.9418 44.1617 28.5398 49.7695 27.8388 52.3731C27.1379 54.9768 29.5412 55.6777 31.2436 54.8766C32.8458 54.1756 34.1476 53.1743 35.149 51.7723C37.352 48.2674 38.3534 46.9656 44.4619 37.5526L30.6427 41.458ZM45.263 27.5387L29.8416 16.9239C28.7401 16.1228 24.9348 15.4218 23.7331 16.0227C22.0308 16.7236 22.3312 17.725 23.1323 19.0268C24.9348 22.1311 28.4397 27.9392 30.6427 32.1451C26.8374 33.2466 24.2338 33.8474 18.0252 35.5498C15.021 36.3509 15.021 35.9503 12.7178 34.3481C11.416 33.4469 10.4146 32.5456 9.51338 32.0449C8.61213 31.5442 5.80823 31.9448 5.40768 32.5456C5.00712 33.1464 5.10726 33.7473 7.31032 36.7515C8.81241 38.8544 10.715 41.7584 11.9167 42.7598C14.1198 44.362 16.9237 44.8627 19.6274 44.1617C22.231 43.4608 53.3743 35.2494 57.7804 34.0477C63.2881 32.5456 67.4939 30.643 66.4925 27.1381C65.4911 23.6332 60.4842 24.1339 57.8806 24.8349C55.2769 25.5359 48.0669 26.8377 45.263 27.5387Z" vector-effect="non-scaling-stroke" stroke-width='1' stroke="currentColor" stroke-linecap="round" stroke-linejoin="round"/>
</svg>
