<svg width="72" height="72" viewBox="0 0 72 72" fill="none" xmlns="http://www.w3.org/2000/svg">
<path d="M65.8913 16.0213L61.5853 20.3273L58.8816 23.031L55.1764 22.0297L51.4713 21.0283L50.4699 17.3231L49.4685 13.618L52.1723 11.0144L56.4782 6.70837" stroke="currentColor" stroke-linecap="round" stroke-linejoin="round"/>
<path d="M15.4214 18.5258L29.8414 33.0459" stroke="currentColor" stroke-linecap="round" stroke-linejoin="round"/>
<path d="M5.10693 12.1168L9.51305 7.71069L19.9275 14.0195L11.4157 22.5313L5.10693 12.1168Z" stroke="currentColor" stroke-linecap="round" stroke-linejoin="round"/>
<path d="M65.8914 16.0223C68.0944 23.4326 63.8886 31.1433 56.4783 33.3464C49.068 35.5494 41.3573 31.3436 39.1542 23.9333C36.9512 16.523 41.157 8.81229 48.5673 6.60923C51.0708 5.90826 53.6744 5.80812 56.1779 6.5091" stroke="currentColor" stroke-linecap="round" stroke-linejoin="round"/>
<path d="M39.8551 27.0376L9.01222 57.8804C7.40999 59.4827 7.40999 61.9861 9.01222 63.5884C10.5143 65.1906 13.1179 65.1906 14.7201 63.6885C14.7201 63.6885 14.7201 63.6885 14.8203 63.5884L45.6631 32.7455" stroke="currentColor" stroke-linecap="round" stroke-linejoin="round"/>
<path d="M41.9999 40L60.2836 57.8804C61.8858 59.4826 61.8858 61.9861 60.2836 63.5883C58.7815 65.1905 56.1779 65.1905 54.5757 63.6884C49.1782 58.6283 40.5423 49.9458 36.2919 45.7079" stroke="currentColor" stroke-linecap="round" stroke-linejoin="round"/>
</svg>
