<svg role="img" xmlns="http://www.w3.org/2000/svg" width="72" height="72" fill="none" viewBox="0 0 72 72">
  <g stroke="currentColor" stroke-linecap="round" stroke-linejoin="round">
    <path d="M25.5286 55.8553c2.9865 0 5.4075-2.421 5.4075-5.4075s-2.421-5.4075-5.4075-5.4075-5.4075 2.421-5.4075 5.4075 2.421 5.4075 5.4075 5.4075Z"/>
    <path d="M30.936 50.6481h15.7219m0 0h4.7349m-4.7349 0V26.5782M19.8928 50.6481H5V16h41.6579v10.5782m0 0h11.2349l8.5 11.7v12.5h-3.5"/>
    <path d="M57.0723 56.1558c2.9865 0 5.4075-2.421 5.4075-5.4075s-2.421-5.4075-5.4075-5.4075-5.4075 2.421-5.4075 5.4075 2.421 5.4075 5.4075 5.4075ZM53.0667 31.121h3.5048l4.7066 6.509h-8.1113l-.1001-6.509Z"/>
  </g>
</svg>
