<svg width="24" height="24" viewBox="0 0 24 24" fill="none" xmlns="http://www.w3.org/2000/svg">
<path d="M1.60229 11.9163C7.3436 18.7591 16.6232 18.7591 22.3645 11.9163C16.6232 5.07347 7.3436 5.07347 1.60229 11.9163Z" stroke="currentColor" stroke-linecap="round" stroke-linejoin="round"/>
<path d="M11.9832 17.0573C14.8222 17.0573 17.1237 14.7558 17.1237 11.9168C17.1237 9.07784 14.8222 6.77637 11.9832 6.77637C9.14424 6.77637 6.84277 9.07784 6.84277 11.9168C6.84277 14.7558 9.14424 17.0573 11.9832 17.0573Z" stroke="currentColor" stroke-linecap="round" stroke-linejoin="round"/>
<path d="M14.3533 11.3495C14.3533 11.3161 14.3199 11.3161 14.2865 11.3161H12.6175C12.5841 11.3161 12.5841 11.3161 12.5841 11.2827C12.484 11.0157 12.4172 10.7153 12.3171 10.4482C12.217 10.1812 12.1502 9.9809 12.0834 9.74725C12.0834 9.71387 12.0501 9.71387 12.0167 9.71387C11.9833 9.71387 11.9499 9.74725 11.9499 9.74725C11.783 10.2479 11.6161 10.7486 11.4159 11.2827C11.4159 11.3161 11.4159 11.3161 11.3825 11.3161H9.71349H9.68011C9.64673 11.3161 9.64673 11.3495 9.64673 11.3495C9.64673 11.3495 9.64673 11.3829 9.64673 11.4162L9.68011 11.4496C10.114 11.7834 10.5814 12.1172 11.0153 12.4176C11.0487 12.4176 11.0487 12.451 11.0153 12.4844L10.7816 13.152L10.4812 14.0866V14.12C10.4812 14.1534 10.548 14.1534 10.5814 14.12L11.9165 13.1186C11.9165 13.1186 11.9499 13.1186 11.9833 13.1186L13.1516 13.9531L13.3519 14.0866C13.3853 14.0866 13.3853 14.0866 13.4186 14.0866C13.452 14.0866 13.452 14.0532 13.452 14.0198C13.2851 13.4858 13.1182 12.9517 12.9513 12.4176C12.9513 12.3842 12.9513 12.3842 12.9513 12.3509L14.1196 11.5164L14.3199 11.3829C14.3199 11.3829 14.3533 11.3829 14.3533 11.3495Z" fill="currentColor"/>
</svg>
