<svg role="img" width="24" height="24" viewBox="0 0 24 24" fill="none" xmlns="http://www.w3.org/2000/svg">
<path fill-rule="evenodd" clip-rule="evenodd" d="M14.9206 2.16895C11.1226 2.16895 8.04371 5.24784 8.04371 9.04586C8.04371 10.9056 8.78195 12.593 9.98139 13.8308C10.0117 13.8501 10.0405 13.873 10.067 13.8995C10.0935 13.926 10.1164 13.9548 10.1357 13.9851C11.3735 15.1845 13.0609 15.9228 14.9206 15.9228C18.7186 15.9228 21.7975 12.8439 21.7975 9.04586C21.7975 5.24784 18.7186 2.16895 14.9206 2.16895ZM9.71553 14.9581C11.1035 16.181 12.9254 16.9228 14.9206 16.9228C19.2709 16.9228 22.7975 13.3962 22.7975 9.04586C22.7975 4.69556 19.2709 1.16895 14.9206 1.16895C10.5703 1.16895 7.04371 4.69556 7.04371 9.04586C7.04371 11.0411 7.78553 12.863 9.00842 14.251L1.41549 21.8439C1.22023 22.0392 1.22023 22.3557 1.41549 22.551C1.61075 22.7463 1.92733 22.7463 2.1226 22.551L9.71553 14.9581ZM15.1877 3.83793C12.3262 3.83793 9.97978 6.18431 9.97978 9.04586C9.97978 9.322 9.75593 9.54586 9.47978 9.54586C9.20364 9.54586 8.97978 9.322 8.97978 9.04586C8.97978 5.63202 11.7739 2.83793 15.1877 2.83793C15.4639 2.83793 15.6877 3.06179 15.6877 3.33793C15.6877 3.61407 15.4639 3.83793 15.1877 3.83793Z" fill="currentColor"/>
</svg>
