<svg role="img" width="24" height="24" viewBox="0 0 24 24" fill="none" xmlns="http://www.w3.org/2000/svg">
<path fill-rule="evenodd" clip-rule="evenodd" d="M1.5 5C1.5 4.72386 1.72386 4.5 2 4.5H22C22.2761 4.5 22.5 4.72386 22.5 5V17C22.5 17.2761 22.2761 17.5 22 17.5H14.5V18.5H17C17.2761 18.5 17.5 18.7239 17.5 19C17.5 19.2761 17.2761 19.5 17 19.5H14H10H7C6.72386 19.5 6.5 19.2761 6.5 19C6.5 18.7239 6.72386 18.5 7 18.5H9.5V17.5H2C1.72386 17.5 1.5 17.2761 1.5 17V5ZM10 16.5H14H21.5V5.5H2.5V16.5H10ZM10.5 17.5V18.5H13.5V17.5H10.5Z" fill="currentColor"/>
<path d="M10.4343 14V8.02002H8.19434V9.03002H9.38434V14H10.4343Z" fill="currentColor"/>
<path d="M15.9899 12.67V11.63C15.9899 11.41 15.9299 11.19 15.8099 11.01C15.7199 10.88 15.4199 10.59 15.2699 10.49C15.0799 10.34 14.8099 10.25 14.5599 10.25H13.2399V9.02002H15.6999V8.02002H12.1899V11.25H14.5499C14.5699 11.25 14.5899 11.25 14.6099 11.26C14.7199 11.33 14.8599 11.47 14.9299 11.6C14.9299 11.6 14.9399 11.63 14.9399 11.65V12.66C14.9399 12.69 14.9299 12.71 14.9299 12.71C14.8599 12.83 14.7199 12.97 14.6099 13.04C14.5899 13.05 14.5699 13.05 14.5499 13.05H13.4899C13.4799 13.05 13.4399 13.05 13.4199 13.04C13.2999 12.98 13.0799 12.76 12.9599 12.53L11.9399 12.8C11.9899 12.93 12.0899 13.12 12.1699 13.23C12.4499 13.59 12.8899 14.05 13.4599 14.05H14.5599C14.7999 14.05 15.0799 13.97 15.2699 13.83C15.4199 13.73 15.7199 13.41 15.8099 13.28C15.9299 13.1 15.9899 12.88 15.9899 12.67Z" fill="currentColor"/>
</svg>
