<svg role="img" width="24" height="24" viewBox="0 0 24 24" fill="none" xmlns="http://www.w3.org/2000/svg">
<path fill-rule="evenodd" clip-rule="evenodd" d="M1.5 5C1.5 4.72386 1.72386 4.5 2 4.5H22C22.2761 4.5 22.5 4.72386 22.5 5V17C22.5 17.2761 22.2761 17.5 22 17.5H14.5V18.5H17C17.2761 18.5 17.5 18.7239 17.5 19C17.5 19.2761 17.2761 19.5 17 19.5H14H10H7C6.72386 19.5 6.5 19.2761 6.5 19C6.5 18.7239 6.72386 18.5 7 18.5H9.5V17.5H2C1.72386 17.5 1.5 17.2761 1.5 17V5ZM10 16.5H14H21.5V5.5H2.5V16.5H10ZM10.5 17.5V18.5H13.5V17.5H10.5Z" fill="currentColor"/>
<path fill-rule="evenodd" clip-rule="evenodd" d="M16 11C16 8.79093 14.2091 7 12 7C9.79093 7 8 8.78961 8 11C8 13.2091 9.79093 15 12 15C14.2091 15 16 13.2091 16 11ZM14.3841 9.82009C14.5609 9.60795 14.5322 9.29267 14.3201 9.11589C14.108 8.93911 13.7927 8.96777 13.6159 9.17991L11.4664 11.7593L10.3536 10.6464C10.1583 10.4512 9.84171 10.4512 9.64645 10.6464C9.45118 10.8417 9.45118 11.1583 9.64645 11.3536L11.1464 12.8536C11.2458 12.9529 11.3823 13.0059 11.5227 12.9995C11.663 12.9931 11.7942 12.928 11.8841 12.8201L14.3841 9.82009Z" fill="currentColor"/>
</svg>
