<svg width="72" height="72" viewBox="0 0 72 72" fill="none" xmlns="http://www.w3.org/2000/svg">
<path d="M5.30664 11.5161L49.9687 59.9834H66.9923V54.5759H45.0619" stroke="currentColor" stroke-linecap="round" stroke-linejoin="round"/>
<path d="M66.4923 11.5161L21.8303 59.9834H4.80664V54.5759H26.8372" stroke="currentColor" stroke-linecap="round" stroke-linejoin="round"/>
<path d="M33.6721 23V21.656H30.4321V8.6H25.7761V9.944H29.0401V21.656H25.5601V23H33.6721Z" fill="currentColor"/>
<path d="M46.0298 20.144V11.48C46.0298 11.024 45.9098 10.592 45.6698 10.232C45.5018 9.968 44.7818 9.2 44.4698 8.96C44.0858 8.672 43.5338 8.504 43.0298 8.504H40.0298C39.5258 8.504 38.9978 8.672 38.6138 8.96C38.3018 9.2 37.5818 9.968 37.4138 10.232C37.1738 10.592 37.0538 11.024 37.0538 11.48V20.144C37.0538 20.6 37.1738 21.008 37.4138 21.368C37.5818 21.632 38.3018 22.4 38.6138 22.64C38.9978 22.928 39.5258 23.096 40.0298 23.096H43.0298C43.5338 23.096 44.0858 22.928 44.4698 22.64C44.7818 22.4 45.5018 21.632 45.6698 21.368C45.9098 21.008 46.0298 20.6 46.0298 20.144ZM44.6378 20.096C44.6378 20.24 44.6138 20.384 44.5658 20.48C44.3498 20.888 43.7978 21.44 43.4138 21.656C43.2938 21.728 43.1498 21.752 43.0058 21.752H40.0538C39.9098 21.752 39.7658 21.728 39.6458 21.656C39.2618 21.44 38.7098 20.888 38.4938 20.48C38.4458 20.384 38.4458 20.24 38.4458 20.096V11.528C38.4458 11.384 38.4458 11.216 38.4938 11.12C38.7098 10.712 39.2618 10.16 39.6458 9.944C39.7658 9.872 39.9098 9.848 40.0538 9.848H43.0058C43.1498 9.848 43.2938 9.872 43.4138 9.944C43.7978 10.16 44.3498 10.712 44.5658 11.12C44.6138 11.216 44.6378 11.384 44.6378 11.528V20.096Z" fill="currentColor"/>
</svg>
