<svg width="72" height="72" viewBox="0 0 72 72" fill="none" xmlns="http://www.w3.org/2000/svg">
<path d="M4.80664 35.7499C22.0306 56.2784 49.8692 56.2784 67.0932 35.7499C49.8692 15.2214 22.0306 15.2214 4.80664 35.7499Z" vector-effect="non-scaling-stroke" stroke-width='1' stroke="currentColor" stroke-linecap="round" stroke-linejoin="round"/>
<path d="M35.95 51.171C44.467 51.171 51.3714 44.2666 51.3714 35.7495C51.3714 27.2325 44.467 20.3281 35.95 20.3281C27.433 20.3281 20.5286 27.2325 20.5286 35.7495C20.5286 44.2666 27.433 51.171 35.95 51.171Z" vector-effect="non-scaling-stroke" stroke-width='1' stroke="currentColor" stroke-linecap="round" stroke-linejoin="round"/>
<path d="M43.0598 34.0474C43.0598 33.9473 42.9597 33.9473 42.8595 33.9473H37.8526C37.7524 33.9473 37.7524 33.9473 37.7524 33.8472C37.452 33.046 37.2517 32.1448 36.9513 31.3437C36.6509 30.5426 36.4506 29.9417 36.2503 29.2408C36.2503 29.1406 36.1502 29.1406 36.0501 29.1406C35.9499 29.1406 35.8498 29.2408 35.8498 29.2408C35.3491 30.7429 34.8484 32.2449 34.2476 33.8472C34.2476 33.9473 34.2476 33.9473 34.1474 33.9473H29.1405H29.0403C28.9402 33.9473 28.9402 34.0474 28.9402 34.0474C28.9402 34.0474 28.9402 34.1476 28.9402 34.2477L29.0403 34.3479C30.3421 35.3492 31.7441 36.3506 33.0459 37.2519C33.146 37.2519 33.146 37.352 33.0459 37.4522L32.3449 39.455L31.4437 42.2588V42.359C31.4437 42.4591 31.6439 42.4591 31.7441 42.359L35.7496 39.3548C35.7496 39.3548 35.8498 39.3548 35.9499 39.3548L39.4548 41.8583L40.0556 42.2588C40.1558 42.2588 40.1558 42.2588 40.2559 42.2588C40.356 42.2588 40.356 42.1587 40.356 42.0586C39.8553 40.4563 39.3547 38.8541 38.854 37.2519C38.854 37.1518 38.854 37.1518 38.854 37.0516L42.3588 34.5481L42.9597 34.1476C42.9597 34.1476 43.0598 34.1476 43.0598 34.0474Z" vector-effect="non-scaling-stroke" stroke-width='1' stroke="currentColor" stroke-linecap="round" stroke-linejoin="round"/>
</svg>
