<svg width="72" height="72" viewBox="0 0 72 72" fill="none" xmlns="http://www.w3.org/2000/svg">
<path d="M66.6926 14H5.40747V53.6551H66.6926V14Z" stroke="currentColor" stroke-linecap="round" stroke-linejoin="round"/>
<path d="M52.7734 57.8609H18.626" stroke="currentColor" stroke-linecap="round" stroke-linejoin="round"/>
<path d="M32.5452 57.8609V53.7552" stroke="currentColor" stroke-linecap="round" stroke-linejoin="round"/>
<path d="M38.854 57.8609V53.7552" stroke="currentColor" stroke-linecap="round" stroke-linejoin="round"/>
<path d="M33.0783 41V39.656H29.8383V26.6H25.1823V27.944H28.4463V39.656H24.9663V41H33.0783Z" fill="currentColor"/>
<path d="M45.5081 38.144V35.336C45.5081 34.88 45.3881 34.448 45.1481 34.088C44.9801 33.824 44.2601 33.104 43.9481 32.864C43.5641 32.576 43.0121 32.384 42.5081 32.384H38.5481V27.944H44.7641V26.6H37.1561V33.728H42.4841C42.6281 33.728 42.7961 33.752 42.9161 33.824C43.3001 34.04 43.8281 34.568 44.0441 34.976C44.0921 35.072 44.1161 35.24 44.1161 35.384V38.12C44.1161 38.264 44.0921 38.408 44.0441 38.504C43.8281 38.912 43.3001 39.464 42.9161 39.68C42.7961 39.752 42.6281 39.776 42.4841 39.776H39.7961C39.6761 39.776 39.5081 39.752 39.4361 39.704C38.9321 39.44 38.1641 38.552 37.8281 37.904L36.4361 38.288C36.5801 38.624 36.8201 39.008 36.9881 39.248C37.3241 39.704 37.9721 40.424 38.4761 40.736C38.8121 40.952 39.3401 41.12 39.7241 41.12H42.5081C43.0121 41.12 43.5641 40.952 43.9481 40.664C44.2601 40.424 44.9801 39.656 45.1481 39.392C45.3881 39.032 45.5081 38.6 45.5081 38.144Z" fill="currentColor"/>
</svg>
