<svg role="img" width="24" height="24" viewBox="0 0 24 24" fill="none" xmlns="http://www.w3.org/2000/svg">
<path fill-rule="evenodd" clip-rule="evenodd" d="M22.2279 3.31171C22.4 3.09579 22.3645 2.7812 22.1486 2.60905C21.9327 2.43691 21.6181 2.47239 21.446 2.6883L12 14.5357L2.5541 2.6883C2.38195 2.47239 2.06736 2.43691 1.85144 2.60905C1.63553 2.7812 1.60005 3.09579 1.7722 3.31171L11.3606 15.3378L8.84312 18.4952H2C1.72386 18.4952 1.5 18.7191 1.5 18.9952V21C1.5 21.2761 1.72386 21.5 2 21.5H7.48554C7.63773 21.5 7.78162 21.4307 7.87649 21.3117L12 16.1398L16.1236 21.3117C16.2184 21.4307 16.3623 21.5 16.5145 21.5H22.0001C22.2762 21.5 22.5001 21.2761 22.5001 21V18.9952C22.5001 18.7191 22.2762 18.4952 22.0001 18.4952H15.1569L12.6395 15.3378L22.2279 3.31171ZM2.5 19.4952H8.04582L7.24472 20.5H2.5V19.4952ZM16.7553 20.5L15.9542 19.4952H21.5001V20.5H16.7553Z" fill="currentColor"/>
<path d="M9.93434 8V2.02H7.69434V3.03H8.88434V8H9.93434Z" fill="currentColor"/>
<path d="M15.4899 6.67V5.63C15.4899 5.41001 15.4299 5.19001 15.3099 5.01C15.2199 4.88001 14.9199 4.59 14.7699 4.49C14.5799 4.34 14.3099 4.25 14.0599 4.25H12.7399V3.02H15.1999V2.02H11.6899V5.25H14.0499C14.0699 5.25 14.0899 5.25001 14.1099 5.26C14.2199 5.33 14.3599 5.47001 14.4299 5.60001C14.4299 5.60001 14.4399 5.63 14.4399 5.65V6.66C14.4399 6.69 14.4299 6.71 14.4299 6.71C14.3599 6.83 14.2199 6.97001 14.1099 7.04001C14.0899 7.05001 14.0699 7.05 14.0499 7.05H12.9899C12.9799 7.05 12.9399 7.05001 12.9199 7.04001C12.7999 6.98001 12.5799 6.76 12.4599 6.53L11.4399 6.8C11.4899 6.93001 11.5899 7.12 11.6699 7.23C11.9499 7.59 12.3899 8.05 12.9599 8.05H14.0599C14.2999 8.05 14.5799 7.97 14.7699 7.83C14.9199 7.73 15.2199 7.41001 15.3099 7.28001C15.4299 7.10001 15.4899 6.88 15.4899 6.67Z" fill="currentColor"/>
</svg>
