<svg width="72" height="72" viewBox="0 0 72 72" fill="none" xmlns="http://www.w3.org/2000/svg">
<path fill-rule="evenodd" clip-rule="evenodd" d="M29.6186 17.6973C29.6186 17.4211 29.3947 17.1973 29.1186 17.1973C28.8424 17.1973 28.6186 17.4211 28.6186 17.6973V18.3184H27.9674C27.6913 18.3184 27.4674 18.5422 27.4674 18.8184C27.4674 19.0945 27.6913 19.3184 27.9674 19.3184H28.6186V19.9495C28.6186 20.2256 28.8424 20.4495 29.1186 20.4495C29.3947 20.4495 29.6186 20.2256 29.6186 19.9495V19.3184H30.2597C30.5358 19.3184 30.7597 19.0945 30.7597 18.8184C30.7597 18.5422 30.5358 18.3184 30.2597 18.3184H29.6186V17.6973ZM32.3712 23.0325C32.3712 22.7563 32.1474 22.5325 31.8712 22.5325C31.5951 22.5325 31.3712 22.7563 31.3712 23.0325V23.6635H30.7201C30.444 23.6635 30.2201 23.8874 30.2201 24.1635C30.2201 24.4397 30.444 24.6635 30.7201 24.6635H31.3712V25.2846C31.3712 25.5608 31.5951 25.7846 31.8712 25.7846C32.1474 25.7846 32.3712 25.5608 32.3712 25.2846V24.6635H33.0124C33.2885 24.6635 33.5124 24.4397 33.5124 24.1635C33.5124 23.8874 33.2885 23.6635 33.0124 23.6635H32.3712V23.0325ZM5.73581 28.1079C6.01195 28.1079 6.23581 28.3317 6.23581 28.6079V29.229H6.88696C7.1631 29.229 7.38696 29.4528 7.38696 29.729C7.38696 30.0051 7.1631 30.229 6.88696 30.229H6.23581V30.8601C6.23581 31.1362 6.01195 31.3601 5.73581 31.3601C5.45967 31.3601 5.23581 31.1362 5.23581 30.8601V30.229H4.59473C4.31858 30.229 4.09473 30.0051 4.09473 29.729C4.09473 29.4528 4.31858 29.229 4.59473 29.229H5.23581V28.6079C5.23581 28.3317 5.45967 28.1079 5.73581 28.1079ZM29.6186 28.6079C29.6186 28.3317 29.3947 28.1079 29.1186 28.1079C28.8424 28.1079 28.6186 28.3317 28.6186 28.6079V29.229H27.9674C27.6913 29.229 27.4674 29.4528 27.4674 29.729C27.4674 30.0051 27.6913 30.229 27.9674 30.229H28.6186V30.8601C28.6186 31.1362 28.8424 31.3601 29.1186 31.3601C29.3947 31.3601 29.6186 31.1362 29.6186 30.8601V30.229H30.2597C30.5358 30.229 30.7597 30.0051 30.7597 29.729C30.7597 29.4528 30.5358 29.229 30.2597 29.229H29.6186V28.6079ZM8.48849 33.4431C8.76464 33.4431 8.98849 33.6669 8.98849 33.9431V34.5742H9.63961C9.91575 34.5742 10.1396 34.798 10.1396 35.0742C10.1396 35.3503 9.91575 35.5742 9.63961 35.5742H8.98849V36.1952C8.98849 36.4714 8.76464 36.6952 8.48849 36.6952C8.21235 36.6952 7.98849 36.4714 7.98849 36.1952V35.5742H7.34738C7.07124 35.5742 6.84738 35.3503 6.84738 35.0742C6.84738 34.798 7.07124 34.5742 7.34738 34.5742H7.98849V33.9431C7.98849 33.6669 8.21235 33.4431 8.48849 33.4431ZM16.7861 33.9431C16.7861 33.6669 16.5622 33.4431 16.2861 33.4431C16.0099 33.4431 15.7861 33.6669 15.7861 33.9431V34.5742H15.1349C14.8588 34.5742 14.6349 34.798 14.6349 35.0742C14.6349 35.3503 14.8588 35.5742 15.1349 35.5742H15.7861V36.1952C15.7861 36.4714 16.0099 36.6952 16.2861 36.6952C16.5622 36.6952 16.7861 36.4714 16.7861 36.1952V35.5742H17.4272C17.7033 35.5742 17.9272 35.3503 17.9272 35.0742C17.9272 34.798 17.7033 34.5742 17.4272 34.5742H16.7861V33.9431ZM24.0736 33.4431C24.3498 33.4431 24.5736 33.6669 24.5736 33.9431V34.5742H25.2248C25.5009 34.5742 25.7248 34.798 25.7248 35.0742C25.7248 35.3503 25.5009 35.5742 25.2248 35.5742H24.5736V36.1952C24.5736 36.4714 24.3498 36.6952 24.0736 36.6952C23.7975 36.6952 23.5736 36.4714 23.5736 36.1952V35.5742H22.9325C22.6564 35.5742 22.4325 35.3503 22.4325 35.0742C22.4325 34.798 22.6564 34.5742 22.9325 34.5742H23.5736V33.9431C23.5736 33.6669 23.7975 33.4431 24.0736 33.4431ZM31.8712 33.4431C32.1474 33.4431 32.3712 33.6669 32.3712 33.9431V34.5742H33.0124C33.2885 34.5742 33.5124 34.798 33.5124 35.0742C33.5124 35.3503 33.2885 35.5742 33.0124 35.5742H32.3712V36.1952C32.3712 36.4714 32.1474 36.6952 31.8712 36.6952C31.5951 36.6952 31.3712 36.4714 31.3712 36.1952V35.5742H30.7201C30.444 35.5742 30.2201 35.3503 30.2201 35.0742C30.2201 34.798 30.444 34.5742 30.7201 34.5742H31.3712V33.9431C31.3712 33.6669 31.5951 33.4431 31.8712 33.4431ZM21.321 28.1079C21.5971 28.1079 21.821 28.3317 21.821 28.6079V29.229H22.4721C22.7482 29.229 22.9721 29.4528 22.9721 29.729C22.9721 30.0051 22.7482 30.229 22.4721 30.229H21.821V30.8601C21.821 31.1362 21.5971 31.3601 21.321 31.3601C21.0448 31.3601 20.821 31.1362 20.821 30.8601V30.229H20.1799C19.9037 30.229 19.6799 30.0051 19.6799 29.729C19.6799 29.4528 19.9037 29.229 20.1799 29.229H20.821V28.6079C20.821 28.3317 21.0448 28.1079 21.321 28.1079ZM14.0334 28.6079C14.0334 28.3317 13.8096 28.1079 13.5334 28.1079C13.2573 28.1079 13.0334 28.3317 13.0334 28.6079V29.229H12.3823C12.1062 29.229 11.8823 29.4528 11.8823 29.729C11.8823 30.0051 12.1062 30.229 12.3823 30.229H13.0334V30.8601C13.0334 31.1362 13.2573 31.3601 13.5334 31.3601C13.8096 31.3601 14.0334 31.1362 14.0334 30.8601V30.229H14.6745C14.9507 30.229 15.1745 30.0051 15.1745 29.729C15.1745 29.4528 14.9507 29.229 14.6745 29.229H14.0334V28.6079ZM24.0736 22.5325C24.3498 22.5325 24.5736 22.7563 24.5736 23.0325V23.6635H25.2248C25.5009 23.6635 25.7248 23.8874 25.7248 24.1635C25.7248 24.4397 25.5009 24.6635 25.2248 24.6635H24.5736V25.2846C24.5736 25.5608 24.3498 25.7846 24.0736 25.7846C23.7975 25.7846 23.5736 25.5608 23.5736 25.2846V24.6635H22.9325C22.6564 24.6635 22.4325 24.4397 22.4325 24.1635C22.4325 23.8874 22.6564 23.6635 22.9325 23.6635H23.5736V23.0325C23.5736 22.7563 23.7975 22.5325 24.0736 22.5325ZM16.7861 23.0325C16.7861 22.7563 16.5622 22.5325 16.2861 22.5325C16.0099 22.5325 15.7861 22.7563 15.7861 23.0325V23.6635H15.1349C14.8588 23.6635 14.6349 23.8874 14.6349 24.1635C14.6349 24.4397 14.8588 24.6635 15.1349 24.6635H15.7861V25.2846C15.7861 25.5608 16.0099 25.7846 16.2861 25.7846C16.5622 25.7846 16.7861 25.5608 16.7861 25.2846V24.6635H17.4272C17.7033 24.6635 17.9272 24.4397 17.9272 24.1635C17.9272 23.8874 17.7033 23.6635 17.4272 23.6635H16.7861V23.0325ZM8.48849 22.5325C8.76464 22.5325 8.98849 22.7563 8.98849 23.0325V23.6635H9.63961C9.91575 23.6635 10.1396 23.8874 10.1396 24.1635C10.1396 24.4397 9.91575 24.6635 9.63961 24.6635H8.98849V25.2846C8.98849 25.5608 8.76464 25.7846 8.48849 25.7846C8.21235 25.7846 7.98849 25.5608 7.98849 25.2846V24.6635H7.34738C7.07124 24.6635 6.84738 24.4397 6.84738 24.1635C6.84738 23.8874 7.07124 23.6635 7.34738 23.6635H7.98849V23.0325C7.98849 22.7563 8.21235 22.5325 8.48849 22.5325ZM21.321 17.1973C21.5971 17.1973 21.821 17.4211 21.821 17.6973V18.3184H22.4721C22.7482 18.3184 22.9721 18.5422 22.9721 18.8184C22.9721 19.0945 22.7482 19.3184 22.4721 19.3184H21.821V19.9495C21.821 20.2256 21.5971 20.4495 21.321 20.4495C21.0448 20.4495 20.821 20.2256 20.821 19.9495V19.3184H20.1799C19.9037 19.3184 19.6799 19.0945 19.6799 18.8184C19.6799 18.5422 19.9037 18.3184 20.1799 18.3184H20.821V17.6973C20.821 17.4211 21.0448 17.1973 21.321 17.1973ZM14.0334 17.6973C14.0334 17.4211 13.8096 17.1973 13.5334 17.1973C13.2573 17.1973 13.0334 17.4211 13.0334 17.6973V18.3184H12.3823C12.1062 18.3184 11.8823 18.5422 11.8823 18.8184C11.8823 19.0945 12.1062 19.3184 12.3823 19.3184H13.0334V19.9495C13.0334 20.2256 13.2573 20.4495 13.5334 20.4495C13.8096 20.4495 14.0334 20.2256 14.0334 19.9495V19.3184H14.6745C14.9507 19.3184 15.1745 19.0945 15.1745 18.8184C15.1745 18.5422 14.9507 18.3184 14.6745 18.3184H14.0334V17.6973ZM5.73581 17.1973C6.01195 17.1973 6.23581 17.4211 6.23581 17.6973V18.3184H6.88696C7.1631 18.3184 7.38696 18.5422 7.38696 18.8184C7.38696 19.0945 7.1631 19.3184 6.88696 19.3184H6.23581V19.9495C6.23581 20.2256 6.01195 20.4495 5.73581 20.4495C5.45967 20.4495 5.23581 20.2256 5.23581 19.9495V19.3184H4.59473C4.31858 19.3184 4.09473 19.0945 4.09473 18.8184C4.09473 18.5422 4.31858 18.3184 4.59473 18.3184H5.23581V17.6973C5.23581 17.4211 5.45967 17.1973 5.73581 17.1973ZM5.73581 51.7609C5.45967 51.7609 5.23581 51.9847 5.23581 52.2609C5.23581 52.537 5.45967 52.7609 5.73581 52.7609H66.5049C66.781 52.7609 67.0049 52.537 67.0049 52.2609C67.0049 51.9847 66.781 51.7609 66.5049 51.7609H5.73581ZM5.23581 43.7126C5.23581 43.4364 5.45967 43.2126 5.73581 43.2126H66.5049C66.781 43.2126 67.0049 43.4364 67.0049 43.7126C67.0049 43.9887 66.781 44.2126 66.5049 44.2126H5.73581C5.45967 44.2126 5.23581 43.9887 5.23581 43.7126ZM36.766 34.8845C36.4898 34.8845 36.266 35.1083 36.266 35.3845C36.266 35.6606 36.4898 35.8845 36.766 35.8845H66.5049C66.7811 35.8845 67.0049 35.6606 67.0049 35.3845C67.0049 35.1083 66.7811 34.8845 66.5049 34.8845H36.766ZM36.266 26.6159C36.266 26.3398 36.4898 26.1159 36.766 26.1159H66.5049C66.7811 26.1159 67.0049 26.3398 67.0049 26.6159C67.0049 26.8921 66.7811 27.1159 66.5049 27.1159H36.766C36.4898 27.1159 36.266 26.8921 36.266 26.6159ZM36.766 17.5573C36.4898 17.5573 36.266 17.7811 36.266 18.0573C36.266 18.3334 36.4898 18.5573 36.766 18.5573H66.5049C66.7811 18.5573 67.0049 18.3334 67.0049 18.0573C67.0049 17.7811 66.7811 17.5573 66.5049 17.5573H36.766Z" fill="currentColor"/>
</svg>
