<svg width="72" height="72" viewBox="0 0 72 72" fill="none" xmlns="http://www.w3.org/2000/svg">
<g>
<path d="M19.4189 49.8285C30.5097 49.8285 35.4645 37.6466 37.7768 33.3425C42.4397 24.6435 48.2599 21.4039 53.5001 21.2805" stroke="currentColor" stroke-linecap="round" stroke-linejoin="round"/>
<path d="M31.811 29.0883C29.0405 24.0517 24.3152 21.4481 19.5 21.3213" stroke="currentColor" stroke-linecap="round" stroke-linejoin="round"/>
<path d="M19.5 21.3225C11.6223 21.3225 5.13477 27.6769 5.12476 35.5545C5.12476 43.4322 11.501 49.8184 19.3786 49.8284H19.3886" stroke="currentColor" stroke-linecap="round" stroke-linejoin="round"/>
<path d="M41.02 42.8717C43.6626 47.2259 48.3576 49.8375 53.4526 49.8275" stroke="currentColor" stroke-linecap="round" stroke-linejoin="round"/>
<path d="M53.4519 49.8284C61.3296 49.8284 67.7158 43.4422 67.7158 35.5646C67.7158 27.6869 61.3777 21.28 53.5 21.28" stroke="currentColor" stroke-linecap="round" stroke-linejoin="round"/>
</g>

</svg>
