<svg width="72" height="72" viewBox="0 0 72 72" fill="none" xmlns="http://www.w3.org/2000/svg">
<path fill-rule="evenodd" clip-rule="evenodd" d="M11.5 9C11.5 8.72386 11.7239 8.5 12 8.5H60C60.2761 8.5 60.5 8.72386 60.5 9C60.5 9.27614 60.2761 9.5 60 9.5H12C11.7239 9.5 11.5 9.27614 11.5 9ZM36.1914 17.5379C36.2504 17.5623 36.3056 17.5985 36.3536 17.6464L54.3536 35.6464C54.5488 35.8417 54.5488 36.1583 54.3536 36.3536C54.1583 36.5488 53.8417 36.5488 53.6464 36.3536L36.5 19.2071V63C36.5 63.2761 36.2761 63.5 36 63.5C35.7239 63.5 35.5 63.2761 35.5 63V19.2071L18.3536 36.3536C18.1583 36.5488 17.8417 36.5488 17.6464 36.3536C17.4512 36.1583 17.4512 35.8417 17.6464 35.6464L35.6464 17.6464C35.6944 17.5985 35.7496 17.5623 35.8086 17.5379C35.8622 17.5158 35.9189 17.5033 35.976 17.5006C35.984 17.5002 35.992 17.5 36 17.5M36.003 17.5C36.0697 17.5004 36.1333 17.5139 36.1914 17.5379L36.003 17.5Z" fill="currentColor"/>
</svg>
