<svg width="72" height="72" viewBox="0 0 72 72" fill="none" xmlns="http://www.w3.org/2000/svg">
<path d="M17.8773 51.5297V44.3327C17.9274 40.8293 15.1347 37.9465 11.6313 37.8965C8.12785 37.9465 5.34515 40.8293 5.3952 44.3327V51.5297H17.8773Z" stroke="currentColor" stroke-linecap="round" stroke-linejoin="round"/>
<path d="M15.2549 33.9727C15.3049 36.0948 13.6233 37.8565 11.5012 37.9065C9.32911 37.7964 7.65749 35.9446 7.76759 33.7825C7.86769 31.7705 9.47926 30.149 11.5012 30.0489C13.5632 30.0389 15.2449 31.7005 15.2549 33.7625C15.2549 33.7725 15.2549 33.7725 15.2549 33.7825V33.9727Z" stroke="currentColor" stroke-linecap="round" stroke-linejoin="round"/>
<path d="M66.6747 51.5303V44.3334C66.8148 40.89 64.1322 37.9772 60.6789 37.847C57.2355 37.7069 54.3227 40.3895 54.1926 43.8429C54.1826 44.013 54.1826 44.1732 54.1926 44.3434V51.5404H66.6747V51.5303Z" stroke="currentColor" stroke-linecap="round" stroke-linejoin="round"/>
<path d="M64.3526 33.9732C64.2525 36.0452 62.4808 37.6367 60.4088 37.5366C58.3367 37.4365 56.7452 35.6648 56.8453 33.5928C56.9454 31.6009 58.597 30.0293 60.5889 30.0293C62.6509 30.0193 64.3326 31.6809 64.3426 33.743C64.3426 33.753 64.3426 33.753 64.3426 33.763V33.9732H64.3526Z" stroke="currentColor" stroke-linecap="round" stroke-linejoin="round"/>
<path d="M54.1928 51.5297V40.9394C54.1928 35.9245 50.1189 31.8506 45.104 31.8506C40.0891 31.8506 36.0151 35.9245 36.0151 40.9394V51.5297H54.1928Z" stroke="currentColor" stroke-linecap="round" stroke-linejoin="round"/>
<path d="M50.8894 25.6851C51.1497 28.728 48.8975 31.4006 45.8545 31.6609C42.8116 31.9211 40.139 29.6689 39.8787 26.626C39.8487 26.3157 39.8487 25.9954 39.8787 25.6851C39.8087 22.562 42.271 19.9795 45.3941 19.8994C48.437 19.8894 50.8994 22.3518 50.9094 25.3948V25.4048L50.8894 25.6851Z" stroke="currentColor" stroke-linecap="round" stroke-linejoin="round"/>
<path d="M36.0151 51.5304V40.9402C36.1252 35.8452 32.1013 31.6111 27.0063 31.4609C21.8813 31.571 17.8174 35.8152 17.9275 40.9402V51.5304H36.0151Z" stroke="currentColor" stroke-linecap="round" stroke-linejoin="round"/>
<path d="M32.2314 25.6851C32.3015 28.8081 29.8391 31.3906 26.716 31.4707C23.593 31.3906 21.1306 28.8081 21.2007 25.6851C21.1306 22.562 23.593 19.9795 26.716 19.8994C29.759 19.8894 32.2214 22.3518 32.2314 25.3948V25.4048V25.6851Z" stroke="currentColor" stroke-linecap="round" stroke-linejoin="round"/>
</svg>
