<svg width="72" height="72" viewBox="0 0 72 72" fill="none" xmlns="http://www.w3.org/2000/svg">
<g>
<path d="M62.9747 63.8098V51.1075C62.9747 45.0173 58.0385 40.0811 51.9483 40.0811C45.8581 40.0811 40.9219 45.0173 40.9219 51.1075V63.8098H62.9747Z" stroke="currentColor" stroke-width="0.98" stroke-linecap="round" stroke-linejoin="round"/>
<path d="M58.8439 32.8646C58.9813 36.5187 56.1239 39.5958 52.4698 39.724C48.8157 39.8614 45.7386 37.0041 45.6104 33.35C45.6012 33.1851 45.6012 33.0203 45.6104 32.8554C45.5371 29.1189 48.486 26.0326 52.2226 25.941C55.8675 25.9227 58.8256 28.8625 58.8439 32.5074C58.8439 32.5166 58.8439 32.5349 58.8439 32.544C58.8531 32.6539 58.8531 32.7638 58.8439 32.8646Z" stroke="currentColor" stroke-width="0.98" stroke-linecap="round" stroke-linejoin="round"/>
<path d="M40.857 63.8096V45.1087C40.857 35.8589 33.677 28.3584 24.8211 28.3584C15.9651 28.3584 8.78516 35.8589 8.78516 45.1087V63.8096H40.857Z" stroke="currentColor" stroke-width="0.98" stroke-linecap="round" stroke-linejoin="round"/>
<path d="M34.1716 18.2205C34.2998 23.7246 29.9405 28.2945 24.4365 28.4319C18.9324 28.2945 14.5732 23.7246 14.6922 18.2205C14.564 12.7073 18.9233 8.13739 24.4365 8.00001C29.8032 7.99086 34.1624 12.3318 34.1716 17.6985V17.7077C34.1808 17.8817 34.1808 18.0465 34.1716 18.2205Z" stroke="currentColor" stroke-width="0.98" stroke-linecap="round" stroke-linejoin="round"/>
</g>

</svg>
