<svg width="72" height="72" viewBox="0 0 72 72" fill="none" xmlns="http://www.w3.org/2000/svg">
<path d="M46.9195 19.9867C46.9203 22.1595 46.2767 24.2838 45.0702 26.0909C43.8636 27.898 42.1483 29.3067 40.1412 30.1389C38.134 30.9712 35.9252 31.1895 33.7939 30.7664C31.6627 30.3432 29.7048 29.2976 28.1678 27.7617C26.6308 26.2258 25.5838 24.2687 25.1591 22.1377C24.7345 20.0068 24.9512 17.7978 25.782 15.79C26.6128 13.7823 28.0203 12.066 29.8266 10.8582C31.6328 9.65036 33.7566 9.00528 35.9295 9.00451C37.3424 8.96343 38.7494 9.20331 40.0689 9.71023C41.3884 10.2172 42.5941 10.981 43.6161 11.9575C44.638 12.9341 45.456 14.1038 46.0223 15.3989C46.5887 16.6939 46.8924 18.0886 46.9156 19.5019L46.9195 19.9867Z" stroke="currentColor" stroke-linecap="round" stroke-linejoin="round"/>
<path d="M53.9998 65.6435V49.0393C54.0075 46.6964 53.5518 44.3751 52.6588 42.2091C51.7658 40.0431 50.4532 38.0751 48.7965 36.4185C47.1399 34.7618 45.1719 33.4492 43.0059 32.5562C40.8398 31.6632 38.5186 31.2074 36.1757 31.2152V31.2152C33.8329 31.2074 31.5116 31.6632 29.3456 32.5562C27.1796 33.4492 25.2116 34.7618 23.5549 36.4185C21.8983 38.0751 20.5857 40.0431 19.6927 42.2091C18.7997 44.3751 18.3439 46.6964 18.3517 49.0393V65.6435" stroke="currentColor"/>
</svg>
