<svg width="72" height="72" viewBox="0 0 72 72" fill="none" xmlns="http://www.w3.org/2000/svg">
<path fill-rule="evenodd" clip-rule="evenodd" d="M24.4359 7.5099L24.4359 7.50977L24.4245 7.51005C18.645 7.65406 14.0739 12.442 14.2023 18.2208C14.1073 22.8307 17.0068 26.8141 21.1201 28.3022C13.7637 30.0571 8.29541 36.9309 8.29541 45.1087V63.8097C8.29541 64.0803 8.51479 64.2997 8.78541 64.2997H40.8573C40.868 64.2997 40.8787 64.2993 40.8892 64.2986C40.897 64.2992 40.9049 64.2995 40.9128 64.2996C40.9156 64.2997 40.9185 64.2997 40.9214 64.2997H62.9742C63.2449 64.2997 63.4642 64.0803 63.4642 63.8097V51.1073C63.4642 45.6074 59.6097 41.0085 54.4545 39.8644C57.378 38.9042 59.4426 36.1017 59.3346 32.8757C59.3432 32.7612 59.3426 32.642 59.3339 32.5245V32.5244V32.5243V32.5242V32.5241V32.5241V32.524V32.5239V32.5238V32.5237V32.5237V32.5236V32.5235V32.5234V32.5233V32.5233V32.5232V32.5231V32.523V32.5229V32.5229V32.5228V32.5227V32.5226V32.5225V32.5225V32.5224V32.5223V32.5222V32.5221V32.5221V32.522V32.5219V32.5218V32.5217V32.5217V32.5216V32.5215V32.5214V32.5213V32.5213V32.5212V32.5211V32.521V32.5209V32.5209V32.5208V32.5207V32.5206V32.5206V32.5205V32.5204V32.5203V32.5202V32.5202V32.5201V32.52V32.5199V32.5198V32.5198V32.5197V32.5196V32.5195V32.5195V32.5194V32.5193V32.5192V32.5191V32.5191V32.519V32.5189V32.5188V32.5187V32.5187V32.5186V32.5185V32.5184V32.5184V32.5183V32.5182V32.5181V32.5181V32.518V32.5179V32.5178V32.5177V32.5177V32.5176V32.5175V32.5174V32.5174V32.5173V32.5172V32.5171V32.5171V32.517V32.5169V32.5168V32.5168V32.5167V32.5166V32.5165V32.5165V32.5164V32.5163V32.5162V32.5162V32.5161V32.516V32.5159V32.5159V32.5158V32.5157V32.5156V32.5156V32.5155V32.5154V32.5153V32.5153V32.5152V32.5151V32.515V32.515V32.5149V32.5148V32.5148V32.5147V32.5146V32.5145V32.5145V32.5144V32.5143V32.5142V32.5142V32.5141V32.514V32.514V32.5139V32.5138V32.5137V32.5137V32.5136V32.5135V32.5135V32.5134V32.5133V32.5133V32.5132V32.5131V32.513V32.513V32.5129V32.5128V32.5128V32.5127V32.5126V32.5126V32.5125V32.5124V32.5123V32.5123V32.5122V32.5121V32.5121V32.512V32.5119V32.5119V32.5118V32.5117V32.5117V32.5116V32.5115V32.5115V32.5114V32.5113V32.5113V32.5112V32.5111V32.5111V32.511V32.5109V32.5109V32.5108V32.5107V32.5107V32.5106V32.5106V32.5105V32.5104V32.5104V32.5103V32.5102V32.5102V32.5101V32.51V32.51V32.5099V32.5099V32.5098V32.5097V32.5097V32.5096V32.5095V32.5095V32.5094V32.5094V32.5093V32.5092V32.5092V32.5091V32.5091V32.509V32.5089V32.5089V32.5088V32.5088V32.5087V32.5086V32.5086V32.5085V32.5085V32.5084V32.5083V32.5083V32.5082V32.5082V32.5081V32.5081V32.508V32.5079V32.5079V32.5078V32.5078V32.5077V32.5077V32.5076V32.5075V32.5075V32.5074V32.5074V32.5073V32.5073V32.5072V32.5072L59.3339 32.5071L59.3339 32.5047C59.3142 28.5902 56.1367 25.431 52.2201 25.4507V25.4506L52.2105 25.4509C48.2101 25.5489 45.0515 28.8489 45.1201 32.8465C45.111 33.0216 45.1113 33.1967 45.1208 33.3718C45.2273 36.3485 47.1552 38.8317 49.7928 39.7922C45.9787 40.514 42.8301 43.1163 41.3473 46.5987V45.1087C41.3473 36.7523 35.6375 29.7574 28.0377 28.1945C31.9971 26.6296 34.7592 22.7277 34.6621 18.2274C34.671 18.0474 34.6709 17.875 34.6618 17.6948C34.6507 12.0586 30.072 7.50028 24.4359 7.5099ZM23.7704 28.8851C23.9865 28.9039 24.2046 28.9161 24.4245 28.9216C24.4294 28.9217 24.4342 28.9218 24.4391 28.9217C24.4424 28.9217 24.4457 28.9217 24.4489 28.9216C24.7598 28.9138 25.0672 28.8926 25.3706 28.8584C33.6832 29.1609 40.3673 36.3024 40.3673 45.1087V63.3197H9.27541V45.1087C9.27541 36.4803 15.6922 29.4501 23.7704 28.8851ZM25.3303 27.8765C30.1285 27.3003 33.7967 23.1595 33.682 18.2318C33.6817 18.2194 33.6819 18.207 33.6825 18.1946C33.6908 18.0378 33.6908 17.8901 33.6825 17.7333C33.6821 17.7247 33.6818 17.7161 33.6818 17.7075V17.6992C33.6731 12.6053 29.5369 8.48426 24.4432 8.48989C19.2026 8.62353 15.0604 12.9682 15.1823 18.209C15.1825 18.2163 15.1825 18.2237 15.1823 18.231C15.074 23.2406 18.8668 27.4365 23.7811 27.902C24.1251 27.8798 24.4719 27.8685 24.8213 27.8685C24.9916 27.8685 25.1613 27.8711 25.3303 27.8765ZM46.1002 32.8455C46.0323 29.3798 48.7655 26.5182 52.2298 26.4307C55.6004 26.4163 58.3363 29.1351 58.3539 32.5085V32.5085V32.5086V32.5086V32.5087V32.5088V32.5088V32.5089V32.5089V32.509V32.5091V32.5091V32.5092V32.5092V32.5093V32.5094V32.5094V32.5095V32.5095V32.5096V32.5097V32.5097V32.5098V32.5099V32.5099V32.51V32.51V32.5101V32.5102V32.5102V32.5103V32.5104V32.5104V32.5105V32.5106V32.5106V32.5107V32.5107V32.5108V32.5109V32.5109V32.511V32.5111V32.5111V32.5112V32.5113V32.5113V32.5114V32.5115V32.5115V32.5116V32.5117V32.5117V32.5118V32.5119V32.5119V32.512V32.5121V32.5121V32.5122V32.5123V32.5123V32.5124V32.5125V32.5126V32.5126V32.5127V32.5128V32.5128V32.5129V32.513V32.513V32.5131V32.5132V32.5133V32.5133V32.5134V32.5135V32.5135V32.5136V32.5137V32.5137V32.5138V32.5139V32.514V32.514V32.5141V32.5142V32.5142V32.5143V32.5144V32.5145V32.5145V32.5146V32.5147V32.5148V32.5148V32.5149V32.515V32.515V32.5151V32.5152V32.5153V32.5153V32.5154V32.5155V32.5156V32.5156V32.5157V32.5158V32.5159V32.5159V32.516V32.5161V32.5162V32.5162V32.5163V32.5164V32.5165V32.5165V32.5166V32.5167V32.5168V32.5168V32.5169V32.517V32.5171V32.5171V32.5172V32.5173V32.5174V32.5174V32.5175V32.5176V32.5177V32.5177V32.5178V32.5179V32.518V32.5181V32.5181V32.5182V32.5183V32.5184V32.5184V32.5185V32.5186V32.5187V32.5187V32.5188V32.5189V32.519V32.5191V32.5191V32.5192V32.5193V32.5194V32.5195V32.5195V32.5196V32.5197V32.5198V32.5198V32.5199V32.52V32.5201V32.5202V32.5202V32.5203V32.5204V32.5205V32.5206V32.5206V32.5207V32.5208V32.5209V32.5209V32.521V32.5211V32.5212V32.5213V32.5213V32.5214V32.5215V32.5216V32.5217V32.5217V32.5218V32.5219V32.522V32.5221V32.5221V32.5222V32.5223V32.5224V32.5225V32.5225V32.5226V32.5227V32.5228V32.5229V32.5229V32.523V32.5231V32.5232V32.5233V32.5233V32.5234V32.5235V32.5236V32.5237V32.5237V32.5238V32.5239V32.524V32.5241V32.5241V32.5242V32.5243V32.5244V32.5245V32.5245V32.5246V32.5247V32.5248V32.5249V32.5249V32.525V32.5251V32.5252V32.5253V32.5253V32.5254V32.5255V32.5256V32.5257V32.5258V32.5258V32.5259V32.526V32.5261V32.5262V32.5262V32.5263V32.5264V32.5265V32.5266V32.5266V32.5267V32.5268V32.5269V32.527V32.527V32.5271V32.5272V32.5273V32.5274V32.5274V32.5275V32.5276V32.5277V32.5278V32.5278V32.5279V32.528V32.5281V32.5282V32.5282V32.5283V32.5284V32.5285V32.5286V32.5286V32.5287V32.5288V32.5289V32.529V32.529V32.5291V32.5292V32.5293V32.5294V32.5294V32.5295V32.5296V32.5297V32.5298V32.5298V32.5299V32.53V32.5301V32.5302V32.5302V32.5303V32.5304V32.5305V32.5305V32.5306V32.5307V32.5308V32.5309V32.5309V32.531V32.5311V32.5312V32.5313V32.5313V32.5314V32.5315V32.5316V32.5316V32.5317V32.5318V32.5319V32.532V32.532V32.5321V32.5322V32.5323V32.5323V32.5324V32.5325V32.5326V32.5327V32.5327V32.5328V32.5329V32.533V32.533V32.5331V32.5332V32.5333V32.5333V32.5334V32.5335V32.5336V32.5336V32.5337V32.5338V32.5339V32.534V32.534V32.5341V32.5342V32.5343V32.5343V32.5344V32.5345V32.5346V32.5346V32.5347V32.5348V32.5349V32.5349V32.535V32.5351V32.5352V32.5352V32.5353V32.5354V32.5354V32.5355V32.5356V32.5357V32.5357V32.5358V32.5359V32.536V32.536V32.5361V32.5362V32.5363V32.5363V32.5364V32.5365V32.5365V32.5366V32.5367V32.5368V32.5368V32.5369V32.537V32.537V32.5371V32.5372V32.5373V32.5373V32.5374V32.5375V32.5375V32.5376V32.5377V32.5378V32.5378V32.5379V32.538V32.538V32.5381V32.5382V32.5382V32.5383V32.5384V32.5384V32.5385V32.5386V32.5386V32.5387V32.5388V32.5389V32.5389V32.539V32.5391V32.5391V32.5392V32.5393V32.5393V32.5394V32.5395V32.5395V32.5396V32.5397V32.5397V32.5398V32.5399V32.5399V32.54V32.5401V32.5401V32.5402V32.5402V32.5403V32.5404V32.5404V32.5405V32.5406V32.5406V32.5407V32.5408V32.5408V32.5409V32.5409V32.541V32.5411V32.5411V32.5412V32.5413V32.5413V32.5414V32.5414V32.5415V32.5416V32.5416V32.5417V32.5417V32.5418V32.5419V32.5419V32.542V32.542V32.5421V32.5422V32.5422V32.5423V32.5423V32.5424V32.5425V32.5425V32.5426V32.5426V32.5427V32.5427V32.5428V32.5429V32.5429V32.543V32.543V32.5431V32.5431V32.5432V32.5433V32.5433V32.5434V32.5434V32.5435V32.5435V32.5436V32.5436V32.5437V32.5437C58.3539 32.5481 58.3539 32.5525 58.354 32.5568C58.3542 32.5612 58.3543 32.5655 58.3546 32.5699L58.3556 32.5844C58.3626 32.6685 58.3622 32.7499 58.3559 32.8199C58.354 32.8408 58.3534 32.8618 58.3542 32.8827C58.4814 36.2663 55.8354 39.1153 52.4526 39.234L52.4514 39.2341C49.0678 39.3613 46.2187 36.7152 46.1 33.3325L46.1001 33.3325L46.0996 33.3225C46.0914 33.1757 46.0914 33.029 46.0996 32.8823C46.1003 32.8701 46.1005 32.8578 46.1002 32.8455ZM41.4114 51.1073C41.4114 45.2878 46.1283 40.5709 51.9478 40.5709C57.7674 40.5709 62.4842 45.2878 62.4842 51.1073V63.3197H41.4114V51.1073Z" fill="currentColor"/>
</svg>
