<svg role="img" width="24" height="24" viewBox="0 0 24 24" fill="none" xmlns="http://www.w3.org/2000/svg">
<path d="M5.99979 17V14.8884C6.01582 13.8605 5.12097 13.0147 3.9984 13C2.87582 13.0147 1.98418 13.8605 2.00021 14.8884V17H5.99979Z" stroke="currentColor" stroke-linecap="round" stroke-linejoin="round"/>
<path d="M5.24964 11.4984C5.26633 12.1736 4.7053 12.7341 3.99734 12.75C3.27267 12.715 2.71498 12.1258 2.75172 11.4379C2.78511 10.7978 3.32276 10.2819 3.99734 10.25C4.68527 10.2468 5.2463 10.7755 5.24964 11.4315C5.24964 11.4347 5.24964 11.4347 5.24964 11.4379V11.4984Z" stroke="currentColor" stroke-linecap="round" stroke-linejoin="round"/>
<path d="M21.9983 16.9971V14.8955C22.0432 13.8901 21.1844 13.0395 20.0789 13.0015C18.9765 12.9606 18.0441 13.7439 18.0024 14.7523C17.9992 14.802 17.9992 14.8488 18.0024 14.8985V17L21.9983 16.9971Z" stroke="currentColor" stroke-linecap="round" stroke-linejoin="round"/>
<path d="M21.0039 11.3244C20.9706 12.0151 20.38 12.5456 19.6893 12.5122C18.9986 12.4788 18.4681 11.8883 18.5015 11.1976C18.5349 10.5336 19.0854 10.0098 19.7494 10.0098C20.4367 10.0064 20.9973 10.5603 21.0006 11.2477C21.0006 11.251 21.0006 11.251 21.0006 11.2543V11.3244H21.0039Z" stroke="currentColor" stroke-linecap="round" stroke-linejoin="round"/>
<path d="M18 17V13.7711C18 12.2421 16.6553 11 15 11C13.3447 11 12 12.2421 12 13.7711V17H18Z" stroke="currentColor" stroke-linecap="round" stroke-linejoin="round"/>
<path d="M16.9926 8.46425C17.0868 9.49734 16.2718 10.4047 15.1706 10.4931C14.0695 10.5814 13.1023 9.81678 13.0081 8.78369C12.9973 8.67834 12.9973 8.5696 13.0081 8.46425C12.9828 7.40397 13.8739 6.5272 15.004 6.50001C16.1051 6.49661 16.9962 7.3326 16.9998 8.3657V8.36909L16.9926 8.46425Z" stroke="currentColor" stroke-linecap="round" stroke-linejoin="round"/>
<path d="M11.9993 17V13.3062C12.0358 11.5292 10.7013 10.0524 9.01162 10C7.31197 10.0384 5.96421 11.5187 6.00072 13.3062V17H11.9993Z" stroke="currentColor" stroke-linecap="round" stroke-linejoin="round"/>
<path d="M10.9995 7.50001C11.0249 8.57959 10.1322 9.47232 9 9.5C7.86781 9.47232 6.97513 8.57959 7.00053 7.50001C6.97513 6.42042 7.86781 5.52769 9 5.50001C10.1032 5.49655 10.9958 6.34776 10.9995 7.39966V7.40312V7.50001Z" stroke="currentColor" stroke-linecap="round" stroke-linejoin="round"/>
</svg>
