<svg width="72" height="72" viewBox="0 0 72 72" fill="none" xmlns="http://www.w3.org/2000/svg">

<path d="M21.9982 57V46.978C22.094 42.0714 18.4537 38 14.047 38C9.5445 38.1044 6 42.0714 6 46.978V57H21.9982Z" stroke="currentColor" stroke-width="0.98" stroke-linecap="round" stroke-linejoin="round"/>
<path d="M18.9969 32.9524C19.0967 35.619 16.8002 37.9048 14.0045 38C11.1089 37.9048 8.81241 35.5238 9.01211 32.7619C9.11195 30.1905 11.3086 28.0952 14.0045 28C16.8002 28 18.9969 30.0952 18.9969 32.7619C18.9969 32.7619 18.9969 32.8571 18.9969 32.9524Z" stroke="currentColor" stroke-width="0.98" stroke-linecap="round" stroke-linejoin="round"/>
<path d="M45.9987 57V42.7472C46.097 35.8216 40.7861 30.1004 34 30C27.2139 30.1004 21.903 35.8216 22.0013 42.7472V57H45.9987V57Z" stroke="currentColor" stroke-width="0.98" stroke-linecap="round" stroke-linejoin="round"/>
<path d="M40.9979 23C41.0925 26.7692 37.9718 29.8205 34 30C30.0282 29.9103 26.9075 26.7692 27.0021 23C26.9075 19.2308 30.0282 16.1795 34 16C37.8772 16 40.9979 18.9615 40.9979 22.5513V23Z" stroke="currentColor" stroke-width="0.98" stroke-linecap="round" stroke-linejoin="round"/>
<path d="M65.9935 57V45.4035C66.1915 39.8051 61.8364 35.2065 56.2937 35.0066C50.7509 34.8066 46.198 39.2053 46 44.8036C46 45.0036 46 45.2035 46 45.4035V57H65.9935V57Z" stroke="currentColor" stroke-width="0.98" stroke-linecap="round" stroke-linejoin="round"/>
<path d="M61.9982 29C62.0793 32.2308 59.4044 34.8462 56 35C52.5956 34.9231 49.9207 32.2308 50.0018 29C49.9207 25.7692 52.5956 23.1538 56 23C59.3233 23 61.9982 25.5385 61.9982 28.6154V29Z" stroke="currentColor" stroke-width="0.98" stroke-linecap="round" stroke-linejoin="round"/>


</svg>
