<svg role="img" xmlns="http://www.w3.org/2000/svg" width="72" height="72" fill="none" viewBox="0 0 72 72">
  <path stroke="currentColor" stroke-miterlimit="10" d="M36 6c16.568 0 30 13.432 30 30 0 16.568-13.432 30-30 30C19.432 66 6 52.568 6 36 6 19.4221 19.432 6 36 6Z"/>
  <path fill="currentColor" d="M38.5 23c0 1.3807-1.1193 2.5-2.5 2.5v1c1.933 0 3.5-1.567 3.5-3.5h-1ZM36 20.5c1.3807 0 2.5 1.1193 2.5 2.5h1c0-1.933-1.567-3.5-3.5-3.5v1ZM33.5 23c0-1.3807 1.1193-2.5 2.5-2.5v-1c-1.933 0-3.5 1.567-3.5 3.5h1Zm2.5 2.5c-1.3807 0-2.5-1.1193-2.5-2.5h-1c0 1.933 1.567 3.5 3.5 3.5v-1ZM33.5 33c0-1.3807 1.1193-2.5 2.5-2.5v-1c-1.933 0-3.5 1.567-3.5 3.5h1Zm0 16V33h-1v16h1Zm2.5 2.5c-1.3807 0-2.5-1.1193-2.5-2.5h-1c0 1.933 1.567 3.5 3.5 3.5v-1Zm2.5-2.5c0 1.3807-1.1193 2.5-2.5 2.5v1c1.933 0 3.5-1.567 3.5-3.5h-1Zm0-16v16h1V33h-1ZM36 30.5c1.3807 0 2.5 1.1193 2.5 2.5h1c0-1.933-1.567-3.5-3.5-3.5v1Z"/>
</svg>
