<svg width="72" height="72" viewBox="0 0 72 72" fill="none" xmlns="http://www.w3.org/2000/svg">
<path fill-rule="evenodd" clip-rule="evenodd" d="M36.3536 4.64652L36 4.29297L35.6464 4.64652L9.14645 31.1465L4.14645 36.1465C3.95118 36.3418 3.95118 36.6584 4.14645 36.8536C4.34171 37.0489 4.65829 37.0489 4.85355 36.8536L9 32.7072V66.0001V66.5001H9.5H63.5H64V66.0001V33.7072L67.1464 36.8536C67.3417 37.0489 67.6583 37.0489 67.8536 36.8536C68.0488 36.6584 68.0488 36.3418 67.8536 36.1465L63.8536 32.1465L63 31.293V13.0001V12.5001H62.5H51.3916H50.8916V13.0001V19.1845L36.3536 4.64652ZM10 65.5001V31.7072L36 5.70718L51.038 20.7452L62.1464 31.8536L63 32.7072V65.5001H10ZM62 13.5001V30.293L51.8916 20.1845V13.5001H62ZM26.0355 44.1614C26.0355 38.5752 30.564 34.0467 36.1503 34.0467C41.7365 34.0467 46.265 38.5752 46.265 44.1614C46.265 49.7476 41.7365 54.2762 36.1503 54.2762C30.564 54.2762 26.0355 49.7476 26.0355 44.1614ZM36.1503 33.0467C30.0118 33.0467 25.0355 38.0229 25.0355 44.1614C25.0355 50.2999 30.0118 55.2762 36.1503 55.2762C42.2888 55.2762 47.265 50.2999 47.265 44.1614C47.265 38.0229 42.2888 33.0467 36.1503 33.0467ZM36.7504 38.9542C36.7504 38.678 36.5265 38.4542 36.2504 38.4542C35.9742 38.4542 35.7504 38.678 35.7504 38.9542V43.7615H30.8428C30.5666 43.7615 30.3428 43.9854 30.3428 44.2615C30.3428 44.5377 30.5666 44.7615 30.8428 44.7615H35.7504V49.6691C35.7504 49.9452 35.9742 50.1691 36.2504 50.1691C36.5265 50.1691 36.7504 49.9452 36.7504 49.6691V44.7615H41.5577C41.8338 44.7615 42.0577 44.5377 42.0577 44.2615C42.0577 43.9854 41.8338 43.7615 41.5577 43.7615H36.7504V38.9542Z" fill="currentColor"/>
</svg>
