<svg role="img" width="72" height="72" viewBox="0 0 72 72" fill="none" xmlns="http://www.w3.org/2000/svg">
<path d="M66 17H6V55H66V17Z" stroke="currentColor" stroke-linecap="round" stroke-linejoin="round"/>
<path d="M52.7733 36.4506C52.8734 35.1488 53.8748 34.0473 55.2768 33.9471C56.7789 33.7469 58.1808 34.9485 58.2809 36.4506V40.2559C58.1808 41.5577 57.1794 42.6592 55.7775 42.7594C54.2754 42.9597 52.8734 41.758 52.7733 40.2559M52.7733 36.4506V40.2559M52.7733 36.4506V33.5M52.7733 40.2559V47" stroke="currentColor" stroke-linecap="round" stroke-linejoin="round"/>
<path d="M49.9694 38.2531C50.0695 40.2559 48.4673 42.0584 46.4645 42.1585C44.4618 42.2587 42.6592 40.6564 42.5591 38.6536C42.5591 38.5535 42.5591 38.3532 42.5591 38.2531V33.3463C42.459 31.3435 44.0612 29.541 46.064 29.4409C48.0668 29.3407 49.8693 30.9429 49.9694 32.9457C49.9694 33.0459 49.9694 33.2461 49.9694 33.3463V38.2531Z" stroke="currentColor" stroke-linecap="round" stroke-linejoin="round"/>
<path d="M38.5535 32.0445C38.5535 33.5466 37.3519 34.7483 35.8498 34.7483C34.3477 34.7483 33.146 33.5466 33.146 32.0445C33.146 30.5424 34.3477 29.3408 35.8498 29.3408C37.3519 29.3408 38.5535 30.5424 38.5535 32.0445Z" stroke="currentColor" stroke-linecap="round" stroke-linejoin="round"/>
<path d="M39.5549 38.5535C39.5549 40.5563 37.8526 42.2587 35.8498 42.2587C33.847 42.2587 32.1447 40.5563 32.1447 38.5535C32.1447 36.5508 33.847 34.8484 35.8498 34.8484C37.8526 34.8484 39.5549 36.5508 39.5549 38.5535Z" stroke="currentColor" stroke-linecap="round" stroke-linejoin="round"/>
<path d="M29.541 38.2532C29.6412 40.2559 28.0389 42.0584 26.0362 42.1586C24.0334 42.2587 22.2309 40.6565 22.1307 38.6537C22.1307 38.5536 22.1307 38.3533 22.1307 38.2532V33.3463C22.0306 31.3436 23.6328 29.5411 25.6356 29.4409C27.6384 29.3408 29.4409 30.943 29.541 32.9458C29.541 33.0459 29.541 33.2462 29.541 33.3463V38.2532Z" stroke="currentColor" stroke-linecap="round" stroke-linejoin="round"/>
<path d="M17.5244 42.1586V29.1405L13.5 32.5" stroke="currentColor" stroke-linecap="round" stroke-linejoin="round"/>
</svg>
