<svg width="24" height="24" viewBox="0 0 24 24" fill="none" xmlns="http://www.w3.org/2000/svg">
<path fill-rule="evenodd" clip-rule="evenodd" d="M22.7481 2.42598C22.9451 2.23244 22.9479 1.91587 22.7544 1.7189C22.5608 1.52193 22.2442 1.51915 22.0473 1.71269L15.187 8.45364V2.236C15.187 1.95986 14.9632 1.736 14.687 1.736C14.4109 1.736 14.187 1.95986 14.187 2.236V17.0566C14.187 17.3327 14.4109 17.5566 14.687 17.5566C14.9632 17.5566 15.187 17.3327 15.187 17.0566V10.806L22.0473 17.547C22.2442 17.7405 22.5608 17.7377 22.7544 17.5408C22.9479 17.3438 22.9451 17.0272 22.7481 16.8337L15.4168 9.62984L22.7481 2.42598Z" fill="currentColor"/>
<path fill-rule="evenodd" clip-rule="evenodd" d="M9.99996 7.73633C9.99996 9.39318 8.65681 10.7363 6.99996 10.7363C5.3431 10.7363 3.99996 9.39318 3.99996 7.73633C3.99996 6.07947 5.3431 4.73633 6.99996 4.73633C8.65681 4.73633 9.99996 6.07947 9.99996 7.73633ZM8.5409 11.4287C9.98509 10.8253 11 9.39935 11 7.73633C11 5.52719 9.2091 3.73633 6.99996 3.73633C4.79082 3.73633 2.99996 5.52719 2.99996 7.73633C2.99996 9.39936 4.01485 10.8254 5.45906 11.4287C3.17152 12.0951 1.5 14.2073 1.5 16.71C1.5 19.7475 3.96243 22.21 7 22.21C10.0376 22.21 12.5 19.7475 12.5 16.71C12.5 14.2073 10.8285 12.095 8.5409 11.4287ZM11.5 16.71C11.5 19.1952 9.48528 21.21 7 21.21C4.51472 21.21 2.5 19.1952 2.5 16.71C2.5 14.2247 4.51472 12.21 7 12.21C9.48528 12.21 11.5 14.2247 11.5 16.71Z" fill="currentColor"/>
</svg>
