<svg width="72" height="72" viewBox="0 0 72 72" fill="none" xmlns="http://www.w3.org/2000/svg">
<path fill-rule="evenodd" clip-rule="evenodd" d="M67.5438 6.56563C67.7408 6.37208 67.7435 6.05551 67.55 5.85855C67.3565 5.66158 67.0399 5.6588 66.8429 5.85234L44.5612 27.7465V6.70898C44.5612 6.43284 44.3374 6.20898 44.0612 6.20898C43.7851 6.20898 43.5612 6.43284 43.5612 6.70898V51.1707C43.5612 51.4469 43.7851 51.6707 44.0612 51.6707C44.3374 51.6707 44.5612 51.4469 44.5612 51.1707V30.0345L66.8429 51.9286C67.0399 52.1222 67.3565 52.1194 67.55 51.9224C67.7435 51.7255 67.7408 51.4089 67.5438 51.2153L44.8238 28.8905L67.5438 6.56563ZM27.8616 15.0869C28.0084 14.853 27.9379 14.5444 27.7041 14.3975C27.4703 14.2507 27.1616 14.3212 27.0147 14.555L4.18304 50.9055C4.08625 51.0596 4.08082 51.2541 4.16885 51.4133C4.25689 51.5726 4.42448 51.6714 4.60645 51.6714H29.0411V65.5915C29.0411 65.8676 29.2649 66.0915 29.5411 66.0915C29.8172 66.0915 30.0411 65.8676 30.0411 65.5915V51.6714H36.1502C36.4264 51.6714 36.6502 51.4476 36.6502 51.1714C36.6502 50.8953 36.4264 50.6714 36.1502 50.6714H30.0411V31.5442C30.0411 31.268 29.8172 31.0442 29.5411 31.0442C29.2649 31.0442 29.0411 31.268 29.0411 31.5442V50.6714H5.51094L27.8616 15.0869Z" fill="currentColor"/>
</svg>
