<svg role="img" xmlns="http://www.w3.org/2000/svg" width="24" height="24" fill="none" viewBox="0 0 24 24">
  <path fill="currentColor" stroke="currentColor" stroke-linecap="round" stroke-linejoin="round" d="M9.3358 17.0165V17.5h5.5454v-.4835h7.4672c.0401 0 .0768.02.0768.0434v1.2445c0 .0234-.0367.0434-.0768.0434H1.6616c-.0433 0-.0767-.02-.0767-.0434v-1.2412c0-.0234.0334-.0434.0767-.0434l7.6742-.0033Z"/>
  <path stroke="currentColor" stroke-linecap="round" stroke-linejoin="round" d="M21.5981 16.9516V5.05A.0514.0514 0 0 0 21.548 5h-8.2506M3 16.9516v-6.0165M19 18v-3c0-1.6569-1.3431-3-3-3v0c-1.6569 0-3 1.3431-3 3v3"/>
  <circle cx="16" cy="10" r="2" stroke="currentColor" stroke-linecap="round" stroke-linejoin="round"/>
  <path fill="currentColor" fill-rule="evenodd" d="M2.5 2a.5.5 0 0 0-.5.5v6a.5.5 0 0 0 .5.5h6a.5.5 0 0 0 .5-.5V6.7071l1.6464 1.6465A.5.5 0 0 0 11.5 8V3a.5.5 0 0 0-.8536-.3535L9 4.2929V2.5a.5.5 0 0 0-.5-.5h-6ZM8 5.4996V3H3v5h5V5.4996ZM9.2071 5.5 10.5 4.2071V6.793L9.2071 5.5Z"/>
</svg>
