<svg role="img" xmlns="http://www.w3.org/2000/svg" width="72" height="72" fill="none" viewBox="0 0 72 72">
  <g stroke="currentColor" stroke-linecap="round" stroke-linejoin="round">
    <path d="M57.6718 36.3296V35.128c0-11.1155-9.0126-20.0279-20.128-20.128h-.2003c-9.413 0-17.6244 6.509-19.6272 15.7218C11.2072 31.3227 6.1001 36.8303 6 43.4395v.4006c0 7.0097 5.7079 12.6175 12.6175 12.6175h38.0529c5.4075 0 9.8136-4.4061 9.8136-9.8137v-.6008c.2003-5.0069-3.7052-9.4131-8.8122-9.7135Z"/>
    <path stroke-miterlimit="10" d="m41.3754 40.6553-1.25 1.25c-.8334.5-2.6667-.5833-4.1667-2-1.4167-1.5-2.5-3.3333-2-4.1667l1.25-1.25c.6667-.6666.75-1.5833.25-2.3333l-2-3.3333c-.5833-.5-1.5833-.4167-2.1667.25l-.4166.3333-1.4167 1.4167c-.0833.0833-.1667.1666-.1667.25l-.0833.0833c-2 2.6667.5 7.5833 4.1667 11.3333 3.75 3.6667 8.75 6.1667 11.3333 4.1667l.0833-.0833c.0834-.0834.1667-.0834.1667-.1667l1.4167-1.4167.3333-.4166c.6667-.6667.6667-1.5834.1667-2.1667l-3.3334-2c-.5833-.5-1.5-.4167-2.1666.25v0Z"/>
  </g>
</svg>
