<svg width="72" height="72" viewBox="0 0 72 72" fill="none" xmlns="http://www.w3.org/2000/svg">
<path fill-rule="evenodd" clip-rule="evenodd" d="M36.4848 4.96989C36.4101 4.83293 36.2753 4.73921 36.1208 4.71697C35.9664 4.69474 35.8106 4.74659 35.7003 4.8569L35.5 5.05718C35.4654 5.09177 35.4361 5.13129 35.4131 5.17447C32.5589 10.5323 29.7298 15.8651 26.9009 21.1975L26.9001 21.199C24.0718 26.5302 21.2438 31.8609 18.3908 37.2166C16.0369 41.5165 15.4179 46.6265 16.629 51.4328V51.4712C16.629 51.5098 16.6335 51.5483 16.6425 51.5858C19.2097 62.3684 30.0943 68.941 40.7751 66.2717C49.7075 64.1145 56.0699 56.1074 56.1725 46.8703H56.1725V46.8648C56.1725 43.4752 55.2495 39.9896 53.6091 37.0153L53.6075 37.0123L45.3492 21.5468L37.0878 6.07529L37.0878 6.07528L37.0857 6.07142L36.4848 4.96989ZM27.776 21.6604C30.5126 16.502 33.2491 11.3439 36.0081 6.16332L36.2145 6.54161L36.2166 6.54548L44.4759 22.0131L52.7374 37.4846L52.7374 37.4846L52.7407 37.4906C54.3033 40.3228 55.182 43.6445 55.1825 46.862C55.0837 55.648 49.0303 63.2606 40.5405 65.3099L40.5366 65.3108C30.4076 67.8431 20.0829 61.6255 17.619 51.4127V51.371C17.619 51.3297 17.6138 51.2886 17.6036 51.2486C16.4322 46.6605 17.0191 41.7826 19.2605 37.6895L19.2606 37.6895L19.2632 37.6844C22.1174 32.3266 24.9466 26.9938 27.7755 21.6614L27.7757 21.661L27.776 21.6604ZM48.0941 37.8031C47.9563 37.567 47.6532 37.4872 47.4171 37.625C47.1809 37.7627 47.1012 38.0658 47.2389 38.302C47.9196 39.4689 48.4976 40.8218 48.7847 42.1618L48.7845 42.1619L48.7878 42.1755C50.826 50.5224 45.6809 59.0656 37.236 61.104C36.9703 61.1682 36.8068 61.4356 36.871 61.7014C36.9351 61.9671 37.2026 62.1306 37.4683 62.0664C46.4454 59.8995 51.9145 50.8223 49.7512 41.9475C49.4371 40.4859 48.8142 39.0376 48.0941 37.8031Z" fill="currentColor"/>
</svg>
