<svg width="24" height="24" viewBox="0 0 24 24" fill="none" xmlns="http://www.w3.org/2000/svg">
<path fill-rule="evenodd" clip-rule="evenodd" d="M12.4506 1.49918C12.3759 1.36223 12.241 1.26851 12.0866 1.24627C11.9322 1.22403 11.7763 1.27589 11.666 1.3862L11.5992 1.45296C11.5647 1.48755 11.5354 1.52707 11.5124 1.57025C10.5608 3.3565 9.61766 5.13434 8.67472 6.91174C7.73214 8.68846 6.78979 10.4647 5.83914 12.2493C5.02022 13.7463 4.80201 15.5198 5.21329 17.1894C5.21508 17.2173 5.21924 17.2451 5.22572 17.2723C6.12397 21.0449 9.93173 23.3449 13.6695 22.4117C16.794 21.6566 19.0175 18.8566 19.0534 15.6277H19.0534V15.6222C19.0534 14.4356 18.7312 13.2199 18.159 12.1816L15.4068 7.02739L12.6529 1.87023L12.653 1.87022L12.6509 1.86636L12.4506 1.49918ZM14.5335 7.49372L12.0031 2.75507C11.1817 4.29872 10.3655 5.83705 9.54927 7.37571L9.549 7.37621L9.54891 7.37638C8.60608 9.15357 7.66303 10.9312 6.7116 12.7172L6.70891 12.7222L6.70888 12.7222C6.00287 14.0115 5.81656 15.5514 6.18688 17.0018C6.19467 17.0323 6.19952 17.0635 6.20139 17.0948C6.99434 20.3004 10.244 22.2476 13.4314 21.4507L13.4353 21.4497L13.4353 21.4497C16.117 20.8024 18.0313 18.3971 18.0634 15.6194C18.0629 14.6049 17.785 13.5531 17.2905 12.6568L17.2873 12.6509L17.2873 12.6509L14.5335 7.49372ZM16.3158 12.4353C16.1781 12.1992 15.875 12.1194 15.6388 12.2572C15.4027 12.3949 15.3229 12.698 15.4607 12.9342C15.6741 13.3 15.8515 13.7183 15.9383 14.1237L15.9381 14.1237L15.9415 14.1374C16.5777 16.743 14.9708 19.4113 12.334 20.0478C12.0683 20.112 11.9048 20.3794 11.969 20.6451C12.0331 20.9109 12.3005 21.0743 12.5663 21.0102C15.7353 20.2452 17.6661 17.0428 16.9049 13.9093C16.791 13.3825 16.5686 12.8687 16.3158 12.4353Z" fill="currentColor"/>
</svg>
