<svg role="img" width="72" height="72" viewBox="0 0 72 72" fill="none" xmlns="http://www.w3.org/2000/svg">
<path d="M29.7413 49.0681C33.1461 45.6633 38.6537 45.6633 42.0584 49.0681" stroke="currentColor" stroke-width="0.98" stroke-linecap="round" stroke-linejoin="round"/>
<path d="M22.3311 42.1585C29.8415 34.648 42.0585 34.648 49.5689 42.1585" stroke="currentColor" stroke-width="0.98" stroke-linecap="round" stroke-linejoin="round"/>
<path d="M14.5201 35.3491C26.3366 23.5327 45.4631 23.5327 57.2795 35.3491" stroke="currentColor" stroke-width="0.98" stroke-linecap="round" stroke-linejoin="round"/>
<path d="M5.20728 28.84C22.2309 11.8164 49.7692 11.8164 66.7928 28.84" stroke="currentColor" stroke-width="0.98" stroke-linecap="round" stroke-linejoin="round"/>
<path d="M36.05 55.9777C36.3265 55.9777 36.5507 55.7535 36.5507 55.477C36.5507 55.2005 36.3265 54.9763 36.05 54.9763C35.7735 54.9763 35.5493 55.2005 35.5493 55.477C35.5493 55.7535 35.7735 55.9777 36.05 55.9777Z" stroke="currentColor" stroke-width="0.98" stroke-linecap="round" stroke-linejoin="round"/>
</svg>
