<svg width="72" height="72" viewBox="0 0 72 72" fill="none" xmlns="http://www.w3.org/2000/svg">
<path fill-rule="evenodd" clip-rule="evenodd" d="M66.4463 29.1862C49.6141 12.354 22.3861 12.354 5.55377 29.1862C5.36241 29.3776 5.05216 29.3776 4.8608 29.1862C4.66945 28.9949 4.66945 28.6846 4.8608 28.4933C22.0758 11.2783 49.9243 11.2783 67.1393 28.4933C67.3307 28.6846 67.3307 28.9949 67.1393 29.1862C66.948 29.3776 66.6377 29.3776 66.4463 29.1862ZM14.8666 35.6953C26.4917 24.0702 45.308 24.0702 56.9331 35.6953C57.1244 35.8866 57.4347 35.8866 57.626 35.6953C57.8174 35.5039 57.8174 35.1937 57.626 35.0023C45.6183 22.9946 26.1814 22.9946 14.1737 35.0023C13.9823 35.1937 13.9823 35.5039 14.1737 35.6953C14.365 35.8866 14.6753 35.8866 14.8666 35.6953ZM49.2224 42.5047C41.9033 35.1857 29.9966 35.1857 22.6775 42.5047C22.4862 42.6961 22.1759 42.6961 21.9846 42.5047C21.7932 42.3134 21.7932 42.0031 21.9846 41.8118C29.6864 34.11 42.2136 34.11 49.9154 41.8118C50.1067 42.0031 50.1067 42.3134 49.9154 42.5047C49.724 42.6961 49.4138 42.6961 49.2224 42.5047ZM41.712 49.4143C38.4986 46.201 33.3012 46.201 30.0878 49.4143C29.8965 49.6057 29.5862 49.6057 29.3949 49.4143C29.2035 49.223 29.2035 48.9127 29.3949 48.7214C32.9909 45.1253 38.8088 45.1253 42.4049 48.7214C42.5963 48.9127 42.5963 49.223 42.4049 49.4143C42.2136 49.6057 41.9033 49.6057 41.712 49.4143ZM36.0393 55.4768C36.0393 55.4744 36.0397 55.4733 36.04 55.4727C36.0404 55.4718 36.0411 55.4705 36.0425 55.4692C36.0438 55.4679 36.0451 55.4671 36.046 55.4667C36.0466 55.4665 36.0476 55.4661 36.05 55.4661C36.0524 55.4661 36.0534 55.4665 36.054 55.4667C36.055 55.4671 36.0563 55.4679 36.0576 55.4692C36.0589 55.4705 36.0597 55.4718 36.0601 55.4727C36.0603 55.4733 36.0607 55.4744 36.0607 55.4768C36.0607 55.4791 36.0603 55.4802 36.0601 55.4808C36.0597 55.4817 36.0589 55.483 36.0576 55.4843C36.0563 55.4856 36.055 55.4864 36.054 55.4868C36.0534 55.4871 36.0524 55.4875 36.05 55.4875C36.0476 55.4875 36.0466 55.4871 36.046 55.4868C36.0451 55.4864 36.0438 55.4856 36.0425 55.4843C36.0411 55.483 36.0404 55.4817 36.04 55.4808C36.0397 55.4802 36.0393 55.4791 36.0393 55.4768ZM36.05 54.4861C35.5029 54.4861 35.0593 54.9296 35.0593 55.4768C35.0593 56.0239 35.5029 56.4675 36.05 56.4675C36.5972 56.4675 37.0407 56.0239 37.0407 55.4768C37.0407 54.9296 36.5972 54.4861 36.05 54.4861Z" fill="currentColor"/>
</svg>
