<svg width="24" height="24" viewBox="0 0 24 24" fill="none" xmlns="http://www.w3.org/2000/svg">
<path d="M15.7585 3.00293L16.7557 2.92848L16.68 1.91413L15.6671 2.00712L15.7585 3.00293ZM12.9707 4.39093L13.7037 5.07108L13.7099 5.06448L13.7159 5.05777L12.9707 4.39093ZM11.9711 7.18627L10.9734 7.25485L11.0363 8.16995L11.9534 8.18611L11.9711 7.18627ZM15.5376 6.56703C16.414 5.55813 16.8546 4.25371 16.7557 2.92848L14.7613 3.07738C14.8198 3.86101 14.5607 4.64192 14.0278 5.25544L15.5376 6.56703ZM15.6671 2.00712C14.3408 2.12887 13.1062 2.73981 12.2255 3.7241L13.7159 5.05777C14.2515 4.45916 15.0148 4.07541 15.8499 3.99874L15.6671 2.00712ZM12.2376 3.71079C11.7955 4.18729 11.4545 4.74598 11.2367 5.35509L13.1199 6.02852C13.2454 5.67771 13.4432 5.35193 13.7037 5.07108L12.2376 3.71079ZM11.2367 5.35509C11.0189 5.96429 10.9291 6.6103 10.9734 7.25485L12.9687 7.11769C12.9434 6.74933 12.9945 6.37923 13.1199 6.02852L11.2367 5.35509ZM11.9534 8.18611C12.6397 8.19821 13.3209 8.05814 13.9447 7.77529L13.1186 5.95384C12.7671 6.11324 12.3803 6.19333 11.9887 6.18643L11.9534 8.18611ZM13.9447 7.77529C14.5685 7.4924 15.1197 7.07343 15.5537 6.54807L14.0117 5.27438C13.7749 5.56102 13.47 5.79449 13.1186 5.95384L13.9447 7.77529Z" fill="currentColor"/>
<path d="M9.02611 7.4533L9.00849 6.45343L9.00175 6.45359L9.02611 7.4533ZM5.1331 9.72815L5.9894 10.2446L5.99503 10.2353L6.00046 10.2258L5.1331 9.72815ZM6.3153 18.8509L7.13191 18.2737L7.12678 18.2666L6.3153 18.8509ZM9.30405 21.1488L9.33926 22.1482L9.34177 22.1481L9.30405 21.1488ZM15.4914 21.1265L15.4742 20.1266L15.4736 20.1266L15.4914 21.1265ZM18.3885 18.8956L17.572 18.3182L17.5716 18.3187L18.3885 18.8956ZM19.6857 16.3307L20.635 16.6449L20.9256 15.767L20.073 15.4088L19.6857 16.3307ZM17.1602 12.6501L16.1603 12.6357L16.1602 12.647L16.1602 12.6583L17.1602 12.6501ZM19.1994 9.19275L19.7095 10.0528L20.6576 9.4905L20.0058 8.60148L19.1994 9.19275ZM15.8035 6.38846C14.818 6.33198 13.9426 6.60266 13.2948 6.83693C12.922 6.97174 12.7251 7.05515 12.467 7.14356C12.3574 7.18109 12.2747 7.20548 12.2112 7.22017C12.1459 7.23524 12.1238 7.23457 12.1318 7.23457V9.23457C12.4956 9.23457 12.8526 9.12556 13.1151 9.03564C13.3616 8.95119 13.7308 8.80598 13.9749 8.71773C14.5607 8.50588 15.1219 8.35268 15.6891 8.38518L15.8035 6.38846ZM12.1318 7.23457C12.1077 7.23457 12.019 7.2248 11.816 7.15865C11.6129 7.09247 11.4067 7.00942 11.1112 6.89904C10.5751 6.6988 9.82834 6.439 9.00849 6.45345L9.04372 8.45314C9.45204 8.44595 9.88713 8.57679 10.4114 8.7726C10.646 8.86025 10.9396 8.97657 11.1964 9.06026C11.4534 9.14398 11.7849 9.23457 12.1318 9.23457V7.23457ZM9.00175 6.45359C8.03572 6.47713 7.09064 6.74337 6.26018 7.22865L7.26922 8.95545C7.80466 8.64256 8.41884 8.46839 9.05046 8.453L9.00175 6.45359ZM6.26018 7.22865C5.4295 7.71405 4.74058 8.40293 4.26574 9.23046L6.00046 10.2258C6.29792 9.70743 6.734 9.2682 7.26922 8.95545L6.26018 7.22865ZM4.2768 9.21168C3.27277 10.8763 3.17944 12.8679 3.50628 14.6613C3.83433 16.4614 4.60615 18.1888 5.50383 19.4353L7.12678 18.2666C6.40194 17.26 5.74841 15.8092 5.47387 14.3027C5.19812 12.7896 5.32494 11.3463 5.9894 10.2446L4.2768 9.21168ZM5.49872 19.4282C5.89136 19.9836 6.38304 20.655 6.969 21.1795C7.55977 21.7083 8.35229 22.1829 9.33926 22.1482L9.26884 20.1494C9.00458 20.1587 8.69669 20.0418 8.30288 19.6893C7.90425 19.3325 7.52718 18.8329 7.13188 18.2737L5.49872 19.4282ZM9.34177 22.1481C10.1363 22.1181 10.7095 21.8582 11.1234 21.6915C11.522 21.5309 11.8572 21.4124 12.3866 21.4124V19.4124C11.4791 19.4124 10.864 19.6398 10.3762 19.8363C9.90359 20.0266 9.654 20.1349 9.26633 20.1495L9.34177 22.1481ZM12.3866 21.4124C12.9026 21.4124 13.2173 21.5336 13.6275 21.7025C14.0667 21.8833 14.6557 22.1415 15.5093 22.1263L15.4736 20.1266C15.0757 20.1337 14.8304 20.0349 14.389 19.8532C13.9187 19.6595 13.3066 19.4124 12.3866 19.4124V21.4124ZM15.5086 22.1263C16.4671 22.1099 17.2154 21.6885 17.7986 21.1657C18.3592 20.6632 18.82 20.0181 19.2053 19.4724L17.5716 18.3187C17.169 18.8888 16.8302 19.3479 16.4637 19.6764C16.1198 19.9846 15.8135 20.1208 15.4742 20.1266L15.5086 22.1263ZM19.2049 19.4729C19.8203 18.6027 20.3022 17.6503 20.635 16.6449L18.7363 16.0164C18.4662 16.8325 18.0743 17.6079 17.572 18.3182L19.2049 19.4729ZM20.073 15.4088C19.5004 15.1682 19.0185 14.7757 18.6812 14.2842L17.0321 15.4158C17.5912 16.2306 18.3798 16.8667 19.2983 17.2526L20.073 15.4088ZM18.6812 14.2842C18.3443 13.7932 18.1649 13.2228 18.1602 12.642L16.1602 12.6583C16.1683 13.6426 16.4727 14.6005 17.0321 15.4158L18.6812 14.2842ZM18.1601 12.6645C18.1676 12.1453 18.3111 11.6341 18.5802 11.1779L16.8575 10.1618C16.4136 10.9144 16.1729 11.7654 16.1603 12.6357L18.1601 12.6645ZM18.5802 11.1779C18.8494 10.7214 19.2366 10.3333 19.7095 10.0528L18.6892 8.33265C17.9324 8.78156 17.3011 9.40958 16.8575 10.1618L18.5802 11.1779ZM20.0058 8.60148C19.5211 7.94031 18.8871 7.39875 18.1554 7.01603L17.2285 8.78829C17.6943 9.03192 18.092 9.37357 18.3929 9.78401L20.0058 8.60148ZM18.1554 7.01603C17.4237 6.63338 16.6125 6.41895 15.7842 6.38755L15.7084 8.38611C16.2423 8.40636 16.7625 8.54459 17.2285 8.78829L18.1554 7.01603Z" fill="currentColor"/>
</svg>
