<svg width="72" height="72" viewBox="0 0 72 72" fill="none" xmlns="http://www.w3.org/2000/svg">
<mask id="path-1-inside-1" fill="white">
<path d="M44.3486 17.7337C46.4626 15.3001 47.5121 12.1721 47.2759 9.00879C44.0339 9.30642 41.0371 10.7985 38.9125 13.1728C37.8585 14.3088 37.0504 15.6355 36.5355 17.0754C36.0206 18.5153 35.8092 20.0394 35.9137 21.5588C37.5306 21.5873 39.1326 21.2571 40.5954 20.5937C42.0582 19.9303 43.3425 18.9517 44.3486 17.7337"/>
</mask>
<path d="M47.2759 9.00879L48.2732 8.93434L48.1974 7.91999L47.1845 8.01298L47.2759 9.00879ZM38.9125 13.1728L39.6455 13.8529L39.6517 13.8463L39.6577 13.8396L38.9125 13.1728ZM35.9137 21.5588L34.916 21.6274L34.9789 22.5425L35.896 22.5587L35.9137 21.5588ZM45.1035 18.3895C47.3893 15.7582 48.5295 12.3684 48.2732 8.93434L46.2787 9.08324C46.4947 11.9757 45.536 14.842 43.5937 17.0779L45.1035 18.3895ZM47.1845 8.01298C43.6969 8.33315 40.4645 9.93879 38.1673 12.506L39.6577 13.8396C41.6098 11.6581 44.3709 10.2797 47.3674 10.0046L47.1845 8.01298ZM38.1794 12.4927C37.0346 13.7265 36.155 15.1697 35.5939 16.7387L37.4771 17.4121C37.9458 16.1014 38.6823 14.8912 39.6455 13.8529L38.1794 12.4927ZM35.5939 16.7387C35.0328 18.3078 34.8021 19.9699 34.916 21.6274L36.9113 21.4902C36.8163 20.109 37.0084 18.7228 37.4771 17.4121L35.5939 16.7387ZM35.896 22.5587C37.6603 22.5897 39.4095 22.2295 41.0084 21.5044L40.1824 19.683C38.8557 20.2846 37.4009 20.5849 35.9313 20.559L35.896 22.5587ZM41.0084 21.5044C42.6075 20.7793 44.0149 19.7079 45.1196 18.3705L43.5776 17.0968C42.6701 18.1955 41.509 19.0814 40.1824 19.683L41.0084 21.5044Z" fill="currentColor" mask="url(#path-1-inside-1)"/>
<mask id="path-3-inside-2" fill="white">
<path d="M47.2395 22.1614C42.5811 21.8945 38.6204 24.7047 36.3958 24.7047C34.1699 24.7047 30.7633 22.2959 27.0788 22.3609C24.6823 22.4192 22.3434 23.0799 20.2946 24.2771C18.2457 25.4744 16.5582 27.1665 15.3998 29.1854C10.3943 37.4844 14.0789 49.7947 18.9464 56.5538C21.3102 59.8977 24.1589 63.5796 27.9126 63.4474C31.4593 63.3135 32.8494 61.2383 37.1604 61.2383C41.4683 61.2383 42.7205 63.4474 46.4748 63.3804C50.3681 63.3135 52.8021 60.0349 55.1659 56.6877C56.8423 54.3169 58.1531 51.7251 59.0575 48.993C56.8208 48.0533 54.915 46.5104 53.5705 44.5509C52.2259 42.5914 51.5002 40.2992 51.4811 37.9514C51.5112 35.867 52.0876 33.8236 53.1569 32.0105C54.2263 30.1974 55.754 28.6733 57.5986 27.5792C56.4201 25.9718 54.8727 24.647 53.0763 23.7075C51.2798 22.7679 49.2826 22.2389 47.2395 22.1615"/>
</mask>
<path d="M27.0788 22.3609L27.0612 21.361L27.0544 21.3612L27.0788 22.3609ZM15.3998 29.1854L16.2561 29.7019L16.2617 29.6926L16.2671 29.6831L15.3998 29.1854ZM18.9464 56.5538L19.763 55.9765L19.7579 55.9694L18.9464 56.5538ZM27.9126 63.4474L27.9479 64.4468L27.9504 64.4467L27.9126 63.4474ZM46.4748 63.3804L46.4576 62.3806L46.457 62.3806L46.4748 63.3804ZM55.1659 56.6877L54.3494 56.1103L54.349 56.1108L55.1659 56.6877ZM59.0575 48.993L60.0068 49.3073L60.2974 48.4293L59.4448 48.0711L59.0575 48.993ZM51.4811 37.9514L50.4812 37.937L50.4811 37.9483L50.4812 37.9595L51.4811 37.9514ZM57.5986 27.5792L58.1087 28.4393L59.0568 27.877L58.4051 26.988L57.5986 27.5792ZM47.2967 21.1631C44.7584 21.0176 42.4464 21.7122 40.5649 22.3926C39.5752 22.7504 38.8122 23.0625 38.0495 23.3237C37.3027 23.5795 36.7734 23.7047 36.3958 23.7047V25.7047C37.1304 25.7047 37.9304 25.4786 38.6976 25.2158C39.4487 24.9585 40.3841 24.5847 41.245 24.2734C43.0646 23.6154 45.0622 23.0383 47.1823 23.1598L47.2967 21.1631ZM36.3958 23.7047C36.0007 23.7047 35.4919 23.5946 34.8289 23.3785C34.1658 23.1625 33.4599 22.8801 32.6342 22.5717C31.0378 21.9754 29.1092 21.3249 27.0612 21.361L27.0964 23.3607C28.7329 23.3319 30.3499 23.8534 31.9344 24.4452C32.6992 24.7309 33.4925 25.0466 34.2093 25.2801C34.9262 25.5137 35.6779 25.7047 36.3958 25.7047V23.7047ZM27.0544 21.3612C24.4908 21.4236 21.9864 22.1303 19.7901 23.4137L20.7991 25.1405C22.7005 24.0295 24.8739 23.4149 27.1032 23.3606L27.0544 21.3612ZM19.7901 23.4137C17.5935 24.6973 15.7796 26.5143 14.5324 28.6877L16.2671 29.6831C17.3369 27.8188 18.898 26.2514 20.7991 25.1405L19.7901 23.4137ZM14.5435 28.669C11.871 33.0999 11.5575 38.5264 12.4869 43.6264C13.4176 48.733 15.6147 53.6386 18.1349 57.1382L19.7579 55.9694C17.4105 52.7099 15.3316 48.0808 14.4545 43.2678C13.5762 38.4481 13.9231 33.5699 16.2561 29.7019L14.5435 28.669ZM18.1298 57.131C19.3104 58.8011 20.6708 60.6435 22.2414 62.0493C23.8167 63.4593 25.7096 64.5256 27.9479 64.4468L27.8774 62.448C26.3619 62.5014 24.9536 61.7928 23.5752 60.559C22.192 59.3209 20.9462 57.6504 19.763 55.9766L18.1298 57.131ZM27.9504 64.4467C29.9271 64.372 31.3231 63.7439 32.6235 63.2202C33.9086 62.7026 35.194 62.2383 37.1604 62.2383V60.2383C34.8158 60.2383 33.2506 60.8115 31.8763 61.365C30.5172 61.9124 29.4448 62.3888 27.8749 62.4481L27.9504 64.4467ZM37.1604 62.2383C39.1124 62.2383 40.3537 62.7276 41.6444 63.2591C42.9642 63.8026 44.3877 64.4178 46.4926 64.3803L46.457 62.3806C44.8076 62.41 43.7279 61.9541 42.406 61.4098C41.0551 60.8535 39.5164 60.2383 37.1604 60.2383V62.2383ZM46.492 64.3803C48.7482 64.3415 50.551 63.3625 52.0614 62.0088C53.5491 60.6754 54.8095 58.9259 55.9827 57.2645L54.349 56.1108C53.1585 57.7966 52.02 59.3601 50.7265 60.5195C49.4555 61.6586 48.0947 62.3524 46.4576 62.3806L46.492 64.3803ZM55.9823 57.265C57.7153 54.8144 59.0712 52.134 60.0068 49.3073L58.1081 48.6788C57.2351 51.3163 55.9693 53.8195 54.3494 56.1103L55.9823 57.265ZM59.4448 48.0711C57.3811 47.204 55.6286 45.783 54.395 43.9851L52.7459 45.1167C54.2014 47.2378 56.2605 48.9025 58.6701 49.915L59.4448 48.0711ZM54.395 43.9851C53.1617 42.1878 52.4986 40.0893 52.4811 37.9433L50.4812 37.9595C50.5019 40.5091 51.2901 42.9951 52.7459 45.1167L54.395 43.9851ZM52.481 37.9658C52.5085 36.057 53.0363 34.1835 54.0183 32.5186L52.2956 31.5025C51.1388 33.4638 50.5138 35.6771 50.4812 37.937L52.481 37.9658ZM54.0183 32.5186C55.0004 30.8534 56.4061 29.4491 58.1087 28.4393L57.0884 26.7191C55.1019 27.8974 53.4521 29.5415 52.2956 31.5025L54.0183 32.5186ZM58.4051 26.988C57.1347 25.2552 55.4691 23.8304 53.5397 22.8213L52.6128 24.5936C54.2763 25.4636 55.7055 26.6884 56.7921 28.1705L58.4051 26.988ZM53.5397 22.8213C51.6104 21.8123 49.4677 21.2452 47.2774 21.1622L47.2016 23.1607C49.0976 23.2326 50.9492 23.7235 52.6128 24.5936L53.5397 22.8213Z" fill="currentColor" mask="url(#path-3-inside-2)"/>
</svg>
