<svg width="24" height="24" viewBox="0 0 24 24" fill="none" xmlns="http://www.w3.org/2000/svg">
<path d="M10 22V10H4V21.9865H20" stroke="black" stroke-linecap="round" stroke-linejoin="round"/>
<path d="M10 13H16V22" stroke="black" stroke-linecap="round" stroke-linejoin="round"/>
<path d="M14 12.7415V5H20V22" stroke="black" stroke-linecap="round" stroke-linejoin="round"/>
<path d="M7 10V6H14" stroke="black" stroke-linecap="round" stroke-linejoin="round"/>
<path d="M9 6V4H12V6" stroke="black" stroke-linecap="round" stroke-linejoin="round"/>
<path d="M10.5 3.39303V2" stroke="black" stroke-linecap="round" stroke-linejoin="round"/>
<path d="M6 12.25V12" stroke="black" stroke-linecap="round" stroke-linejoin="round"/>
<path d="M8 12.25V12" stroke="black" stroke-linecap="round" stroke-linejoin="round"/>
<path d="M6 14.3301V14.0801" stroke="black" stroke-linecap="round" stroke-linejoin="round"/>
<path d="M8 14.3301V14.0801" stroke="black" stroke-linecap="round" stroke-linejoin="round"/>
<path d="M6 16.4111V16.1611" stroke="black" stroke-linecap="round" stroke-linejoin="round"/>
<path d="M8 16.4111V16.1611" stroke="black" stroke-linecap="round" stroke-linejoin="round"/>
<path d="M6 18.4922V18.2422" stroke="black" stroke-linecap="round" stroke-linejoin="round"/>
<path d="M8 18.4922V18.2422" stroke="black" stroke-linecap="round" stroke-linejoin="round"/>
<path d="M16 7.25V7" stroke="black" stroke-linecap="round" stroke-linejoin="round"/>
<path d="M18 7.25V7" stroke="black" stroke-linecap="round" stroke-linejoin="round"/>
<path d="M16 9.25V9" stroke="black" stroke-linecap="round" stroke-linejoin="round"/>
<path d="M18 9.25V9" stroke="black" stroke-linecap="round" stroke-linejoin="round"/>
<path d="M16 11.25V11" stroke="black" stroke-linecap="round" stroke-linejoin="round"/>
<path d="M18 11.25V11" stroke="black" stroke-linecap="round" stroke-linejoin="round"/>
<path d="M18 13.25V13" stroke="black" stroke-linecap="round" stroke-linejoin="round"/>
<path d="M18 15.25V15" stroke="black" stroke-linecap="round" stroke-linejoin="round"/>
<path d="M18 17.25V17" stroke="black" stroke-linecap="round" stroke-linejoin="round"/>
<path d="M18 19.25V19" stroke="black" stroke-linecap="round" stroke-linejoin="round"/>
<path d="M12 20V15" stroke="black" stroke-linecap="round" stroke-linejoin="round"/>
<path d="M14 20V15" stroke="black" stroke-linecap="round" stroke-linejoin="round"/>
<path d="M12.0557 8H9" stroke="black" stroke-linecap="round" stroke-linejoin="round"/>
<path d="M11.5 10H12" stroke="black" stroke-linecap="round" stroke-linejoin="round"/>
<path d="M6 21.5V20.5H8V21.5" stroke="black" stroke-linecap="round" stroke-linejoin="round"/>
</svg>
