<svg width="24" height="24" viewBox="0 0 24 24" fill="none" xmlns="http://www.w3.org/2000/svg">
<path d="M4 5V22H15V5" stroke="black" stroke-linecap="round" stroke-linejoin="round"/>
<rect x="6" y="7.5" width="0.5" height="0.5" stroke="black" stroke-linecap="round" stroke-linejoin="round"/>
<rect x="6" y="10.5" width="0.5" height="0.5" stroke="black" stroke-linecap="round" stroke-linejoin="round"/>
<rect x="6" y="13.5" width="0.5" height="0.5" stroke="black" stroke-linecap="round" stroke-linejoin="round"/>
<rect x="6" y="16.5" width="0.5" height="0.5" stroke="black" stroke-linecap="round" stroke-linejoin="round"/>
<rect x="9" y="7.5" width="0.5" height="0.5" stroke="black" stroke-linecap="round" stroke-linejoin="round"/>
<rect x="12" y="7.5" width="0.5" height="0.5" stroke="black" stroke-linecap="round" stroke-linejoin="round"/>
<rect x="9" y="10.5" width="0.5" height="0.5" stroke="black" stroke-linecap="round" stroke-linejoin="round"/>
<rect x="9" y="13.5" width="0.5" height="0.5" stroke="black" stroke-linecap="round" stroke-linejoin="round"/>
<rect x="9" y="16.5" width="0.5" height="0.5" stroke="black" stroke-linecap="round" stroke-linejoin="round"/>
<rect x="12" y="10.5" width="0.5" height="0.5" stroke="black" stroke-linecap="round" stroke-linejoin="round"/>
<rect x="12" y="13.5" width="0.5" height="0.5" stroke="black" stroke-linecap="round" stroke-linejoin="round"/>
<rect x="12" y="16.5" width="0.5" height="0.5" stroke="black" stroke-linecap="round" stroke-linejoin="round"/>
<rect x="8" y="19.5" width="3" height="2" stroke="black" stroke-linecap="round" stroke-linejoin="round"/>
<rect x="17" y="14" width="1" height="0.5" stroke="black" stroke-linecap="round" stroke-linejoin="round"/>
<rect x="17" y="16.5" width="1" height="0.5" stroke="black" stroke-linecap="round" stroke-linejoin="round"/>
<rect x="16.5" y="19.5" width="2" height="2" stroke="black" stroke-linecap="round" stroke-linejoin="round"/>
<path d="M20 12H15V21.2857V22H20V12Z" stroke="black" stroke-linecap="round" stroke-linejoin="round"/>
<path d="M7.5 5H3V3H16V5H11.5" stroke="black" stroke-linecap="round" stroke-linejoin="round"/>
<path d="M9.5486 4.5H9.4514C9.2021 4.5 9 4.7021 9 4.9514V5.0486C9 5.2979 9.2021 5.5 9.4514 5.5H9.5486C9.7979 5.5 10 5.2979 10 5.0486V4.9514C10 4.7021 9.7979 4.5 9.5486 4.5Z" fill="black"/>
</svg>
