<svg width="24" height="24" viewBox="0 0 24 24" fill="none" xmlns="http://www.w3.org/2000/svg">
<path d="M9.44804 2H19V22H5V6.89255L9.44804 2Z" stroke="black" stroke-linecap="round" stroke-linejoin="round"/>
<path d="M16.9999 14.7782L16.9999 14C16.9999 12.8954 16.1045 12 14.9999 12L10.3536 12M16.9999 14.7782L16.9999 16L17 17.2782M16.9999 14.7782L13.7073 14.7782L13.7073 16L13.7073 17.2782M13.7073 20L15 20C16.1045 20 16.9999 19.1046 17 18.0001L17 17.2782M13.7073 20L10.3536 20M13.7073 20L13.7073 17.2782M10.3536 20L9 20C7.89543 20 7 19.1046 7 18L7 17.2782M10.3536 20L10.3536 17.2782M10.3536 12L9 12C7.89543 12 7 12.8954 7 14V14L7 14.7782M10.3536 12L10.3536 14L10.3536 14.7782M10.3536 14.7782L7 14.7782M10.3536 14.7782L10.3536 17.2782M7 14.7782L7 17.2782M10.3536 17.2782L7 17.2782M13.7073 17.2782L17 17.2782" stroke="currentColor"/>
</svg>
