<svg width="24" height="24" viewBox="0 0 24 24" fill="none" xmlns="http://www.w3.org/2000/svg">
<path fill-rule="evenodd" clip-rule="evenodd" d="M3.00005 2.5C3.22658 2.5 3.4248 2.65229 3.48317 2.87117L3.91926 4.50649C3.94554 4.50222 3.97251 4.5 4 4.5H23C23.158 4.5 23.3068 4.57473 23.4011 4.70153C23.4955 4.82834 23.5243 4.99229 23.4789 5.14367L20.4789 15.1437C20.4155 15.3552 20.2208 15.5 20 15.5H6.85086L7.38419 17.5H9.49999H17.5H20.0001C20.2762 17.5 20.5001 17.7239 20.5001 18C20.5001 18.2761 20.2762 18.5 20.0001 18.5H19.2324C19.4026 18.7942 19.5 19.1357 19.5 19.5C19.5 20.6046 18.6046 21.5 17.5 21.5C16.3954 21.5 15.5 20.6046 15.5 19.5C15.5 19.1357 15.5974 18.7942 15.7676 18.5H11.2324C11.4026 18.7942 11.5 19.1357 11.5 19.5C11.5 20.6046 10.6046 21.5 9.49999 21.5C8.39542 21.5 7.5 20.6046 7.5 19.5C7.5 19.1357 7.59739 18.7942 7.76756 18.5H7.00005C6.77353 18.5 6.5753 18.3477 6.51694 18.1288L2.61591 3.5H1.00005C0.723911 3.5 0.500053 3.27614 0.500053 3C0.500053 2.72386 0.723911 2.5 1.00005 2.5H3.00005ZM9.49999 18.5C10.0523 18.5 10.5 18.9477 10.5 19.5C10.5 20.0523 10.0523 20.5 9.49999 20.5C8.94771 20.5 8.5 20.0523 8.5 19.5C8.5 18.9477 8.94771 18.5 9.49999 18.5ZM18.5 19.5C18.5 18.9477 18.0523 18.5 17.5 18.5C16.9477 18.5 16.5 18.9477 16.5 19.5C16.5 20.0523 16.9477 20.5 17.5 20.5C18.0523 20.5 18.5 20.0523 18.5 19.5ZM6.58556 14.5051L4.18419 5.5H22.328L19.628 14.5H6.65756C6.63311 14.5 6.60907 14.5018 6.58556 14.5051Z" fill="currentColor"/>
</svg>
