<svg width="72" height="72" viewBox="0 0 72 72" fill="none" xmlns="http://www.w3.org/2000/svg">
<path fill-rule="evenodd" clip-rule="evenodd" d="M4.60693 15.7217C4.60693 15.4455 4.83079 15.2217 5.10693 15.2217H46.7648C47.0409 15.2217 47.2648 15.4455 47.2648 15.7217V25.7999H57.9998C58.1598 25.7999 58.3102 25.8765 58.4043 26.006L66.9043 37.706C66.9663 37.7914 66.9998 37.8943 66.9998 37.9998V50.4998C66.9998 50.776 66.7759 50.9998 66.4998 50.9998H63.0633C62.7953 54.0142 60.2633 56.3774 57.1793 56.3774C54.051 56.3774 51.4907 53.946 51.2851 50.8698H46.7648H31.5019C31.1555 53.8024 28.6611 56.077 25.6354 56.077C22.6098 56.077 20.1154 53.8024 19.769 50.8698H5.10693C4.83079 50.8698 4.60693 50.6459 4.60693 50.3698V15.7217ZM51.3019 49.8698C51.6026 46.889 54.1192 44.5624 57.1793 44.5624C60.2837 44.5624 62.8288 46.957 63.0683 49.9998H65.9998V38.1623L57.745 26.7999H47.2648V49.8698H51.3019ZM46.2648 49.8698H31.5355C31.3794 46.7464 28.7976 44.262 25.6354 44.262C22.4733 44.262 19.8915 46.7464 19.7354 49.8698H5.60693V16.2217H46.2648V26.2999V49.8698ZM25.6354 45.262C22.9251 45.262 20.7279 47.4592 20.7279 50.1695C20.7279 52.8799 22.9251 55.077 25.6354 55.077C28.3458 55.077 30.543 52.8799 30.543 50.1695C30.543 47.4592 28.3458 45.262 25.6354 45.262ZM52.2717 50.4699C52.2717 47.7596 54.4689 45.5624 57.1793 45.5624C59.8896 45.5624 62.0868 47.7596 62.0868 50.4699C62.0868 53.1803 59.8896 55.3774 57.1793 55.3774C54.4689 55.3774 52.2717 53.1803 52.2717 50.4699ZM52.8174 30.4919C52.9114 30.3964 53.0397 30.3427 53.1737 30.3427H56.6786C56.839 30.3427 56.9897 30.4197 57.0837 30.5497L61.7903 37.0587C61.9003 37.2109 61.9158 37.412 61.8303 37.5792C61.7449 37.7465 61.5729 37.8517 61.3851 37.8517H53.2738C53.0007 37.8517 52.7781 37.6325 52.7739 37.3594L52.6738 30.8504C52.6717 30.7164 52.7234 30.5873 52.8174 30.4919ZM53.6814 31.3427L53.7662 36.8517H60.4065L56.4231 31.3427H53.6814ZM28.5395 31.2432L15.0208 20.7286L36.05 31.1431L15.0208 41.858L28.5395 31.2432Z" fill="currentColor"/>
</svg>
