<svg width="72" height="72" viewBox="0 0 72 72" fill="none" xmlns="http://www.w3.org/2000/svg">
<path d="M63.6002 51.25V16.65C63.6016 16.6316 63.5993 16.6131 63.5935 16.5956C63.5877 16.5781 63.5785 16.5619 63.5664 16.548C63.5543 16.534 63.5396 16.5226 63.5231 16.5144C63.5066 16.5062 63.4886 16.5013 63.4702 16.5H11.8202C11.7822 16.5025 11.7465 16.5195 11.7205 16.5473C11.6945 16.5752 11.6801 16.6119 11.6802 16.65V25.36M13.4202 28.32H10.7002M21.4302 51.25H29.8402V52.05H45.4202V51.25H66.6002C66.7102 51.25 66.8202 51.25 66.8202 51.37V54.87C66.8202 54.94 66.7102 54.99 66.6002 54.99H21.4302V51.25ZM10.9302 52.21C10.94 52.4335 11.0154 52.6492 11.1469 52.8302C11.2784 53.0111 11.4603 53.1494 11.6698 53.2278C11.8794 53.3061 12.1074 53.3211 12.3253 53.2708C12.5433 53.2205 12.7417 53.1072 12.8958 52.945C13.0498 52.7827 13.1527 52.5788 13.1917 52.3585C13.2306 52.1382 13.2039 51.9113 13.1148 51.706C13.0257 51.5008 12.8783 51.3263 12.6907 51.2044C12.5032 51.0824 12.2839 51.0183 12.0602 51.02C11.9078 51.0239 11.7578 51.0578 11.6185 51.1197C11.4792 51.1816 11.3536 51.2703 11.2486 51.3809C11.1437 51.4914 11.0615 51.6215 11.0069 51.7637C10.9523 51.906 10.9262 52.0577 10.9302 52.21Z" stroke="black" stroke-linecap="round" stroke-linejoin="round"/>
<path d="M18.52 26.6699H5.58C4.98353 26.6699 4.5 27.1535 4.5 27.7499V53.8399C4.5 54.4364 4.98353 54.9199 5.58 54.9199H18.52C19.1165 54.9199 19.6 54.4364 19.6 53.8399V27.7499C19.6 27.1535 19.1165 26.6699 18.52 26.6699Z" stroke="black" stroke-linecap="round" stroke-linejoin="round"/>
</svg>
