<svg width="72" height="72" viewBox="0 0 72 72" fill="none" xmlns="http://www.w3.org/2000/svg">
<path fill-rule="evenodd" clip-rule="evenodd" d="M9 8.5C8.72386 8.5 8.5 8.72386 8.5 9V63C8.5 63.2761 8.72386 63.5 9 63.5H36C36.2761 63.5 36.5 63.2761 36.5 63V50.85C36.5 50.5739 36.2761 50.35 36 50.35C35.7239 50.35 35.5 50.5739 35.5 50.85V62.5H9.5V9.5H35.5V21.15C35.5 21.4261 35.7239 21.65 36 21.65C36.2761 21.65 36.5 21.4261 36.5 21.15V9C36.5 8.72386 36.2761 8.5 36 8.5H9ZM61.8536 36.4325C61.9473 36.3387 62 36.2115 62 36.0789C62 35.9463 61.9473 35.8191 61.8536 35.7254L49.7746 23.6464C49.5794 23.4512 49.2628 23.4512 49.0675 23.6464C48.8722 23.8417 48.8722 24.1583 49.0675 24.3536L60.2929 35.5789H30C29.7239 35.5789 29.5 35.8028 29.5 36.0789C29.5 36.3551 29.7239 36.5789 30 36.5789H60.2929L49.0675 47.8043C48.8722 47.9996 48.8722 48.3162 49.0675 48.5114C49.2628 48.7067 49.5794 48.7067 49.7746 48.5114L61.8536 36.4325Z" fill="currentColor"/>
</svg>
