<svg width="24" height="24" viewBox="0 0 24 24" fill="none" xmlns="http://www.w3.org/2000/svg">
<path fill-rule="evenodd" clip-rule="evenodd" d="M2.5 3C2.5 2.72386 2.72386 2.5 3 2.5H12C12.2761 2.5 12.5 2.72386 12.5 3C12.5 3.27614 12.2761 3.5 12 3.5H3.5V20.5H12C12.2761 20.5 12.5 20.7239 12.5 21C12.5 21.2761 12.2761 21.5 12 21.5H3C2.72386 21.5 2.5 21.2761 2.5 21V3ZM20.9062 12.3799L15.222 18.0641C15.0267 18.2593 14.7101 18.2593 14.5149 18.0641C14.3196 17.8688 14.3196 17.5522 14.5149 17.357L19.3455 12.5263L8.23684 12.5263C7.9607 12.5263 7.73684 12.3025 7.73684 12.0263C7.73684 11.7502 7.9607 11.5263 8.23684 11.5263L19.3455 11.5263L14.5149 6.69566C14.3196 6.5004 14.3196 6.18381 14.5149 5.98855C14.7101 5.79329 15.0267 5.79329 15.222 5.98855L20.9062 11.6728C20.9541 11.7207 20.9903 11.776 21.0147 11.8349C21.0369 11.8885 21.0493 11.9453 21.0521 12.0023C21.0524 12.0103 21.0526 12.0183 21.0526 12.0263C21.0526 12.0941 21.0391 12.1588 21.0147 12.2177C20.9903 12.2767 20.9541 12.3319 20.9062 12.3799Z" fill="currentColor"/>
</svg>
