<svg width="72" height="72" viewBox="0 0 72 72" fill="none" xmlns="http://www.w3.org/2000/svg">
<path d="M55.1397 30.95C55.1397 31.4366 54.9954 31.9122 54.7251 32.3167C54.4548 32.7213 54.0706 33.0366 53.6211 33.2228C53.1716 33.409 52.677 33.4577 52.1998 33.3628C51.7226 33.2679 51.2843 33.0336 50.9402 32.6895C50.5962 32.3455 50.3619 31.9072 50.267 31.43C50.1721 30.9528 50.2208 30.4581 50.407 30.0086C50.5932 29.5591 50.9085 29.1749 51.313 28.9046C51.7176 28.6343 52.1932 28.49 52.6797 28.49C53.3129 28.4739 53.9269 28.7087 54.3877 29.1432C54.8485 29.5778 55.1188 30.177 55.1397 30.81V30.95Z" stroke="currentColor" stroke-linecap="round" stroke-linejoin="round"/>
<path d="M56.7197 41.1602V37.4502C56.7197 36.3893 56.2983 35.3719 55.5482 34.6218C54.798 33.8716 53.7806 33.4502 52.7197 33.4502C51.6589 33.4502 50.6414 33.8716 49.8913 34.6218C49.1412 35.3719 48.7197 36.3893 48.7197 37.4502V41.1602" stroke="currentColor" stroke-linecap="round" stroke-linejoin="round"/>
<path d="M38.85 8.41992H32.02" stroke="currentColor" stroke-miterlimit="10" stroke-linecap="round"/>
<path d="M52.63 47.24V64.43C52.6301 64.735 52.5692 65.0369 52.451 65.3181C52.3329 65.5992 52.1597 65.8539 51.9417 66.0672C51.7237 66.2805 51.4654 66.4482 51.1817 66.5603C50.8981 66.6724 50.5949 66.7267 50.29 66.72H20.29C19.9889 66.7213 19.6905 66.663 19.4121 66.5484C19.1337 66.4338 18.8807 66.2652 18.6678 66.0522C18.4549 65.8393 18.2863 65.5864 18.1716 65.3079C18.057 65.0295 17.9987 64.7311 18 64.43V7.29002C17.9987 6.98892 18.057 6.69055 18.1716 6.41211C18.2863 6.13368 18.4549 5.88071 18.6678 5.6678C18.8807 5.45489 19.1337 5.28626 19.4121 5.17164C19.6905 5.05703 19.9889 4.9987 20.29 5.00002H50.29C50.5916 4.99871 50.8905 5.05697 51.1694 5.17146C51.4484 5.28595 51.7021 5.45442 51.9158 5.6672C52.1295 5.87998 52.299 6.13287 52.4148 6.41136C52.5305 6.68985 52.59 6.98845 52.59 7.29002V22.46" stroke="currentColor" stroke-linecap="round" stroke-linejoin="round"/>
<path d="M35.3 63.0297C36.7083 63.0297 37.85 61.888 37.85 60.4797C37.85 59.0714 36.7083 57.9297 35.3 57.9297C33.8917 57.9297 32.75 59.0714 32.75 60.4797C32.75 61.888 33.8917 63.0297 35.3 63.0297Z" stroke="currentColor" stroke-linecap="round" stroke-linejoin="round"/>
<path d="M42.96 35.0396C42.958 36.9585 43.5252 38.8349 44.5898 40.4314C45.6545 42.0278 47.1687 43.2727 48.941 44.0084C50.7133 44.7441 52.6639 44.9376 54.5462 44.5644C56.4285 44.1913 58.1578 43.2683 59.5154 41.9121C60.8729 40.5559 61.7978 38.8276 62.1728 36.9457C62.5479 35.0638 62.3564 33.1129 61.6226 31.3399C60.8887 29.5669 59.6454 28.0513 58.05 26.9851C56.4547 25.9188 54.5789 25.3496 52.66 25.3496C51.3866 25.3483 50.1255 25.598 48.9487 26.0843C47.7719 26.5707 46.7025 27.2843 45.8016 28.1842C44.9008 29.0841 44.1861 30.1528 43.6985 31.3291C43.2109 32.5054 42.96 33.7663 42.96 35.0396V35.0396Z" stroke="currentColor" stroke-linecap="round" stroke-linejoin="round"/>
</svg>
