<svg width="72" height="72" viewBox="0 0 72 72" fill="none" xmlns="http://www.w3.org/2000/svg">
<path fill-rule="evenodd" clip-rule="evenodd" d="M31.0705 14.2856C31.0705 12.9802 31.334 11.3839 32.085 10.1322C32.8176 8.91115 34.0196 8 35.999 8C37.9785 8 39.1804 8.91115 39.9131 10.1322C40.6641 11.3839 40.9275 12.9802 40.9275 14.2856C40.9275 14.5344 41.1105 14.7454 41.3568 14.7806C44.4101 15.2168 48.0294 16.8569 50.8862 20.2081C53.7381 23.5536 55.8559 28.6355 55.8559 35.9996V46.8566C55.8559 49.7466 56.5135 52.3813 57.728 54.3109C58.2911 55.2055 58.9787 55.9537 59.7768 56.5H59.7548H59.6777H59.6H59.5215H59.4423H59.3624H59.2818H59.2005H59.1185H59.0358H58.9524H58.8683H58.7836H58.6982H58.6121H58.5253H58.4379H58.3498H58.2611H58.1717H58.0817H57.991H57.8996H57.8077H57.7151H57.6218H57.5279H57.4335H57.3383H57.2426H57.1463H57.0493H56.9518H56.8536H56.7549H56.6555H56.5556H56.4551H56.354H56.2523H56.15H56.0472H55.9438H55.8398H55.7353H55.6302H55.5246H55.4184H55.3116H55.2044H55.0966H54.9882H54.8794H54.77H54.66H54.5496H54.4386H54.3272H54.2152H54.1027H53.9897H53.8762H53.7623H53.6478H53.5328H53.4174H53.3015H53.1851H53.0683H52.951H52.8332H52.7149H52.5962H52.4771H52.3575H52.2374H52.1169H51.996H51.8747H51.7529H51.6307H51.508H51.385H51.2615H51.1376H51.0134H50.8887H50.7636H50.6381H50.5122H50.386H50.2593H50.1323H50.0049H49.8771H49.7489H49.6204H49.4915H49.3623H49.2327H49.1028H48.9725H48.8418H48.7109H48.5795H48.4479H48.3159H48.1836H48.051H47.9181H47.7848H47.6513H47.5174H47.3832H47.2488H47.114H46.9789H46.8436H46.708H46.5721H46.4359H46.2994H46.1627H46.0257H45.8885H45.7509H45.6132H45.4752H45.3369H45.1984H45.0597H44.9207H44.7815H44.642H44.5024H44.3625H44.2224H44.0821H43.9416H43.8008H43.6599H43.5188H43.3775H43.2359H43.0942H42.9524H42.8103H42.6681H42.5257H42.3831H42.2404H42.0975H41.9544H41.8112H41.6678H41.5243H41.3807H41.2369H41.093H40.9489H40.8047H40.6604H40.516H40.3715H40.2268H40.0821H39.9372H39.7922H39.6472H39.502H39.3568H39.2115H39.066H38.9206H38.775H38.6294H38.4837H38.3379H38.1921H38.0462H37.9002H37.7543H37.6082H37.4622H37.3161H37.1699H37.0237H36.8776H36.7313H36.5851H36.4388H36.2926H36.1463H36H35.8538H35.7075H35.5612H35.415H35.2687H35.1225H34.9763H34.8302H34.684H34.5379H34.3918H34.2458H34.0998H33.9539H33.808H33.6622H33.5164H33.3707H33.2251H33.0795H32.934H32.7886H32.6433H32.498H32.3529H32.2078H32.0629H31.918H31.7733H31.6286H31.4841H31.3396H31.1953H31.0512H30.9071H30.7632H30.6194H30.4758H30.3323H30.1889H30.0457H29.9026H29.7597H29.617H29.4744H29.332H29.1898H29.0477H28.9058H28.7641H28.6226H28.4813H28.3402H28.1992H28.0585H27.918H27.7777H27.6376H27.4977H27.358H27.2186H27.0794H26.9404H26.8017H26.6632H26.5249H26.3869H26.2491H26.1116H25.9744H25.8374H25.7006H25.5642H25.428H25.2921H25.1565H25.0211H24.8861H24.7513H24.6168H24.4827H24.3488H24.2152H24.082H23.9491H23.8164H23.6841H23.5522H23.4205H23.2892H23.1582H23.0276H22.8973H22.7674H22.6378H22.5085H22.3796H22.2511H22.123H21.9952H21.8678H21.7408H21.6141H21.4878H21.362H21.2365H21.1114H20.9867H20.8624H20.7385H20.6151H20.492H20.3694H20.2472H20.1254H20.004H19.8831H19.7626H19.6426H19.523H19.4038H19.2851H19.1669H19.0491H18.9318H18.8149H18.6985H18.5826H18.4672H18.3523H18.2378H18.1238H18.0103H17.8974H17.7849H17.6729H17.5614H17.4505H17.34H17.2301H17.1207H17.0118H16.9035H16.7957H16.6884H16.5817H16.4755H16.3699H16.2648H16.1602H16.0563H15.9529H15.85H15.7478H15.6461H15.545H15.4445H15.3445H15.2452H15.1464H15.0483H14.9507H14.8538H14.7574H14.6617H14.5666H14.4721H14.3782H14.285H14.1924H14.1004H14.0091H13.9184H13.8283H13.7389H13.6502H13.5621H13.4747H13.3879H13.3018H13.2164H13.1317H13.0476H12.9643H12.8816H12.7996H12.7183H12.6377H12.5578H12.4786H12.4001H12.3223H12.2644C12.8709 56.0969 13.4377 55.5688 13.94 54.9103C15.2785 53.1559 16.1422 50.5026 16.1422 46.8566V35.9996C16.1422 22.6614 24.1219 16.0852 30.6686 14.7759C30.9023 14.7292 31.0705 14.524 31.0705 14.2856ZM58.5743 53.7782C59.6585 55.5007 61.1762 56.5 63 56.5C63.2761 56.5 63.5 56.7239 63.5 57C63.5 57.2761 63.2761 57.5 63 57.5H62.9757H62.9504H62.9241H62.897H62.8688H62.8398H62.8098H62.7789H62.747H62.7142H62.6805H62.6459H62.6104H62.574H62.5367H62.4984H62.4593H62.4193H62.3784H62.3366H62.2939H62.2503H62.2059H62.1606H62.1145H62.0674H62.0195H61.9708H61.9212H61.8707H61.8195H61.7673H61.7144H61.6606H61.6059H61.5505H61.4942H61.4371H61.3792H61.3205H61.261H61.2006H61.1395H61.0776H61.0149H60.9514H60.8871H60.822H60.7561H60.6895H60.6221H60.554H60.4851H60.4154H60.345H60.2738H60.2018H60.1292H60.0558H59.9816H59.9067H59.8311H59.7548H59.6777H59.6H59.5215H59.4423H59.3624H59.2818H59.2005H59.1185H59.0358H58.9524H58.8683H58.7836H58.6982H58.6121H58.5253H58.4379H58.3498H58.2611H58.1717H58.0817H57.991H57.8996H57.8077H57.7151H57.6218H57.5279H57.4335H57.3383H57.2426H57.1463H57.0493H56.9518H56.8536H56.7549H56.6555H56.5556H56.4551H56.354H56.2523H56.15H56.0472H55.9438H55.8398H55.7353H55.6302H55.5246H55.4184H55.3116H55.2044H55.0966H54.9882H54.8794H54.77H54.66H54.5496H54.4386H54.3272H54.2152H54.1027H53.9897H53.8762H53.7623H53.6478H53.5328H53.4174H53.3015H53.1851H53.0683H52.951H52.8332H52.7149H52.5962H52.4771H52.3575H52.2374H52.1169H51.996H51.8747H51.7529H51.6307H51.508H51.385H51.2615H51.1376H51.0134H50.8887H50.7636H50.6381H50.5122H50.386H50.2593H50.1323H50.0049H49.8771H49.7489H49.6204H49.4915H49.3623H49.2327H49.1028H48.9725H48.8418H48.7109H48.5795H48.4479H48.3159H48.1836H48.051H47.9181H47.7848H47.6513H47.5174H47.3832H47.2488H47.114H46.9789H46.8436H46.708H46.5721H46.4359H46.2994H46.1627H46.0257H45.8885H45.7509H45.6132H45.4871C45.2271 62.5143 41.079 66.5 36 66.5C30.921 66.5 26.7729 62.5143 26.5129 57.5H26.3869H26.2491H26.1116H25.9744H25.8374H25.7006H25.5642H25.428H25.2921H25.1565H25.0211H24.8861H24.7513H24.6168H24.4827H24.3488H24.2152H24.082H23.9491H23.8164H23.6841H23.5522H23.4205H23.2892H23.1582H23.0276H22.8973H22.7674H22.6378H22.5085H22.3796H22.2511H22.123H21.9952H21.8678H21.7408H21.6141H21.4878H21.362H21.2365H21.1114H20.9867H20.8624H20.7385H20.6151H20.492H20.3694H20.2472H20.1254H20.004H19.8831H19.7626H19.6426H19.523H19.4038H19.2851H19.1669H19.0491H18.9318H18.8149H18.6985H18.5826H18.4672H18.3523H18.2378H18.1238H18.0103H17.8974H17.7849H17.6729H17.5614H17.4505H17.34H17.2301H17.1207H17.0118H16.9035H16.7957H16.6884H16.5817H16.4755H16.3699H16.2648H16.1602H16.0563H15.9529H15.85H15.7478H15.6461H15.545H15.4445H15.3445H15.2452H15.1464H15.0483H14.9507H14.8538H14.7574H14.6617H14.5666H14.4721H14.3782H14.285H14.1924H14.1004H14.0091H13.9184H13.8283H13.7389H13.6502H13.5621H13.4747H13.3879H13.3018H13.2164H13.1317H13.0476H12.9643H12.8816H12.7996H12.7183H12.6377H12.5578H12.4786H12.4001H12.3223H12.2452H12.1689H12.0933H12.0184H11.9443H11.8709H11.7982H11.7263H11.6551H11.5846H11.515H11.446H11.3779H11.3105H11.2439H11.178H11.113H11.0487H10.9852H10.9224H10.8605H10.7994H10.7391H10.6795H10.6208H10.5629H10.5058H10.4495H10.3941H10.3395H10.2857H10.2327H10.1806H10.1293H10.0788H10.0292H9.98048H9.93259H9.88556H9.8394H9.7941H9.74967H9.70611H9.66343H9.62164H9.58073H9.54071H9.50158H9.46334H9.42601H9.38959H9.35407H9.31946H9.28576H9.25299H9.22114H9.19022H9.16022H9.13116H9.10304H9.07586H9.04962H9.02433H9C8.72386 57.5 8.5 57.2761 8.5 57C8.5 56.7239 8.72386 56.5 9 56.5C10.4656 56.5 11.9818 55.8284 13.145 54.3038C14.3133 52.7724 15.1422 50.354 15.1422 46.8566V35.9996C15.1422 22.4528 23.141 15.4635 30.0782 13.8798C30.1282 12.5429 30.4322 10.9432 31.2275 9.61772C32.1234 8.12453 33.6357 7 35.999 7C38.3624 7 39.8747 8.12453 40.7706 9.61772C41.5614 10.9357 41.8665 12.525 41.919 13.8573C45.1032 14.4113 48.7515 16.1625 51.6472 19.5594C54.6762 23.1126 56.8559 28.4354 56.8559 35.9996V46.8566C56.8559 49.6099 57.4846 52.047 58.5743 53.7782ZM27.5145 57.5C27.7733 61.9617 31.4734 65.5 36 65.5C40.5266 65.5 44.2267 61.9617 44.4855 57.5H44.3625H44.2224H44.0821H43.9416H43.8008H43.6599H43.5188H43.3775H43.2359H43.0942H42.9524H42.8103H42.6681H42.5257H42.3831H42.2404H42.0975H41.9544H41.8112H41.6678H41.5243H41.3807H41.2369H41.093H40.9489H40.8047H40.6604H40.516H40.3715H40.2268H40.0821H39.9372H39.7922H39.6472H39.502H39.3568H39.2115H39.066H38.9206H38.775H38.6294H38.4837H38.3379H38.1921H38.0462H37.9002H37.7543H37.6082H37.4622H37.3161H37.1699H37.0237H36.8776H36.7313H36.5851H36.4388H36.2926H36.1463H36H35.8538H35.7075H35.5612H35.415H35.2687H35.1225H34.9763H34.8302H34.684H34.5379H34.3918H34.2458H34.0998H33.9539H33.808H33.6622H33.5164H33.3707H33.2251H33.0795H32.934H32.7886H32.6433H32.498H32.3529H32.2078H32.0629H31.918H31.7733H31.6286H31.4841H31.3396H31.1953H31.0512H30.9071H30.7632H30.6194H30.4758H30.3323H30.1889H30.0457H29.9026H29.7597H29.617H29.4744H29.332H29.1898H29.0477H28.9058H28.7641H28.6226H28.4813H28.3402H28.1992H28.0585H27.918H27.7777H27.6376H27.5145Z" fill="currentColor"/>
</svg>
