<svg width="72" height="72" viewBox="0 0 72 72" fill="none" xmlns="http://www.w3.org/2000/svg">
<path fill-rule="evenodd" clip-rule="evenodd" d="M4.9049 18.4883H4.36182L4.40661 19.0295L4.88708 24.8352L4.92504 25.2939H5.38537H7.7365L11.1853 52.9831L11.2399 53.4213H11.6815H60.509H60.953L61.0055 52.9803L64.3063 25.2339H66.775H67.2471L67.2742 24.7626L67.6045 19.017L67.6349 18.4883H67.1054H4.9049ZM5.8457 24.2939L5.44799 19.4883H66.5758L66.303 24.2339H63.8622H63.4182L63.3657 24.6748L60.0649 52.4213H12.1231L8.67425 24.7321L8.61967 24.2939H8.17809H5.8457ZM13.2035 24.7339C13.2035 24.4577 13.4273 24.2339 13.7035 24.2339H58.3669C58.6431 24.2339 58.8669 24.4577 58.8669 24.7339C58.8669 25.01 58.6431 25.2339 58.3669 25.2339H13.7035C13.4273 25.2339 13.2035 25.01 13.2035 24.7339ZM37.6416 29.2466C38.1298 29.2512 38.565 29.2632 38.7856 29.2934L38.8126 29.2971L38.839 29.3037C39.7001 29.519 40.4135 30.0918 40.8284 30.8608C40.9586 31.0969 41.2231 31.5428 41.46 31.9376C41.5257 32.0472 41.5889 32.1521 41.6458 32.2463L42.2238 31.9169L43.63 31.1153L42.9208 32.5703L41.1792 36.1438L41.029 36.4518L40.6876 36.423L36.7738 36.0927L35.1696 35.9573L36.5683 35.16L37.1503 34.8283C37.1087 34.7501 37.0621 34.6627 37.0109 34.5677C36.7866 34.1516 36.4769 33.5913 36.1342 33.0127C36.1029 32.9599 36.0714 32.9071 36.0397 32.8542L34.1568 36.1431L33.9073 36.579L33.4725 36.3275L29.839 34.2255L29.4056 33.9747L29.6569 33.5417L31.1376 30.9905L31.138 30.9898C31.4303 30.4831 31.9577 29.9528 32.5759 29.6307C32.9283 29.447 33.3376 29.3189 33.7619 29.3205L33.7611 29.2889L33.7613 29.2889L33.7619 29.2889L33.7642 29.2888L33.7734 29.2886L33.809 29.2878L33.9445 29.2848C34.0616 29.2822 34.2295 29.2787 34.4332 29.2748C34.8405 29.267 35.3916 29.2576 35.9659 29.2513C36.5396 29.245 37.1388 29.2418 37.6416 29.2466ZM35.4767 30.2575C35.6091 30.4145 35.7436 30.5888 35.8776 30.773C36.2535 31.2899 36.6438 31.9109 36.9946 32.5031C37.3463 33.0969 37.6628 33.6696 37.8912 34.0933C38.0055 34.3054 38.0979 34.4806 38.1619 34.6031C38.1939 34.6643 38.2189 34.7124 38.2358 34.7453L38.2553 34.783L38.2604 34.7929L38.2617 34.7956L38.2621 34.7963L38.2622 34.7965C38.2622 34.7966 38.2622 34.7966 37.8169 35.0239L38.2622 34.7966L38.4792 35.2218L38.4621 35.2316L40.4303 35.3977L41.3128 33.5872L41.296 33.5967L41.0434 33.1819L41.4704 32.9218L41.0434 33.1819L41.0433 33.1818L41.0432 33.1816L41.0428 33.1809L41.041 33.178L41.0341 33.1666L41.0077 33.1233L40.9118 32.9652C40.8314 32.8323 40.7212 32.6499 40.6025 32.4521C40.3671 32.0598 40.0919 31.5962 39.9514 31.3414L39.9491 31.3371C39.6677 30.8144 39.1914 30.4311 38.6241 30.281C38.4646 30.2629 38.1117 30.251 37.6321 30.2465C37.1393 30.2419 36.5479 30.245 35.9768 30.2512C35.807 30.2531 35.6393 30.2552 35.4767 30.2575ZM35.4372 31.8939C35.3131 31.7065 35.1896 31.5272 35.0688 31.3611C34.894 31.1207 34.7296 30.9145 34.5816 30.7535C34.4283 30.5868 34.3146 30.493 34.2434 30.4519C33.8981 30.2523 33.482 30.2861 33.0381 30.5175C32.5905 30.7507 32.2022 31.146 32.004 31.4899L32.0032 31.4912L30.7731 33.6106L33.5385 35.2104L35.4372 31.8939ZM31.752 35.6126L31.9 35.9154L33.6417 39.4789L34.3259 40.8787L32.9549 40.1384L32.362 39.8182C32.3117 39.8976 32.2551 39.9876 32.1935 40.0865C31.9424 40.4892 31.6083 41.038 31.2748 41.6246C31.2472 41.6732 31.2197 41.722 31.1922 41.7709H34.9141H35.4141V42.2709V46.475V46.975H34.9141H32.0113C31.4165 46.975 30.6917 46.7806 30.1041 46.4025C29.75 46.1746 29.4202 45.861 29.2125 45.4617L29.1921 45.4741L29.192 45.474L29.1917 45.4735L29.1905 45.4715L29.1857 45.4637L29.1672 45.4333L29.0969 45.3177C29.0362 45.2178 28.9493 45.0744 28.844 44.9003C28.6336 44.5521 28.3498 44.0805 28.0568 43.5873C27.764 43.0946 27.461 42.5785 27.2124 42.142C26.9703 41.7169 26.7628 41.3377 26.6766 41.1358L26.664 41.1062L26.6553 41.0752C26.417 40.2293 26.5591 39.3315 27.0117 38.5907C27.1417 38.3419 27.3881 37.8861 27.6019 37.4927L27.7737 37.177L27.1993 36.8496L25.7645 36.0318L27.4119 35.9164L31.4158 35.6362L31.752 35.6126ZM28.8864 37.2259L28.8864 37.2259L28.8863 37.2261L28.8859 37.2268L28.8843 37.2298L28.878 37.2413L28.8538 37.2855L28.7655 37.4472C28.6913 37.583 28.5898 37.7692 28.4805 37.9703C28.261 38.3741 28.013 38.833 27.8903 39.0685L27.8818 39.085L27.872 39.1008C27.5578 39.6084 27.4611 40.2117 27.6091 40.772C27.678 40.9235 27.8467 41.235 28.0814 41.6472C28.3255 42.0759 28.6249 42.5859 28.9165 43.0766C29.0155 43.2433 29.1136 43.4076 29.2081 43.5655C29.2782 43.3735 29.3623 43.1712 29.455 42.9647C29.7177 42.3801 30.0642 41.7309 30.4055 41.1305C30.7477 40.5284 31.0893 39.9674 31.3449 39.5574C31.4729 39.3522 31.5796 39.1844 31.6545 39.0676C31.6919 39.0092 31.7214 38.9636 31.7417 38.9324L31.7649 38.8966L31.771 38.8873L31.7726 38.8848L31.7731 38.8841L31.7732 38.8839C31.7733 38.8839 31.7733 38.8838 32.1915 39.1579L31.7733 38.8838L32.025 38.4997L32.059 38.5181L31.1495 36.6573L29.1199 36.7993L28.8864 37.2259L28.4478 36.9858L28.8864 37.2259ZM30.6564 42.7709C30.5517 42.9784 30.4541 43.1812 30.3672 43.3745C30.2451 43.6463 30.1477 43.8918 30.0817 44.1005C30.0132 44.3168 29.9888 44.4617 29.9888 44.5431C29.9888 44.9455 30.2258 45.2916 30.6453 45.5616C31.0687 45.8341 31.6051 45.975 32.0113 45.975H34.4141V42.7709H30.6564ZM44.1369 35.7871L43.8931 35.3597L43.4618 35.5966L39.8183 37.5986L39.374 37.8427L39.6242 38.2836L41.5325 41.6462C41.4606 41.6467 41.3888 41.647 41.3173 41.647C40.6444 41.6477 40.0041 41.6288 39.5315 41.6098C39.4203 41.6053 39.3184 41.6008 39.2278 41.5965V40.9496V39.3709L38.3189 40.6618L36.0567 43.8749L35.8595 44.155L36.0495 44.4401L38.2517 47.7433L39.1677 49.1174V47.466V46.8249H39.1678H39.1725H39.1772H39.1819H39.1866H39.1913H39.1961H39.2009H39.2057H39.2105H39.2153H39.2201H39.2249H39.2298H39.2346H39.2395H39.2444H39.2493H39.2542H39.2592H39.2641H39.269H39.274H39.279H39.284H39.289H39.294H39.299H39.304H39.3091H39.3141H39.3192H39.3243H39.3293H39.3344H39.3395H39.3447H39.3498H39.3549H39.3601H39.3652H39.3704H39.3756H39.3808H39.3859H39.3912H39.3964H39.4016H39.4068H39.4121H39.4173H39.4226H39.4278H39.4331H39.4384H39.4437H39.449H39.4543H39.4596H39.4649H39.4703H39.4756H39.4809H39.4863H39.4916H39.497H39.5024H39.5078H39.5131H39.5185H39.5239H39.5293H39.5348H39.5402H39.5456H39.551H39.5565H39.5619H39.5674H39.5728H39.5783H39.5837H39.5892H39.5947H39.6001H39.6056H39.6111H39.6166H39.6221H39.6276H39.6331H39.6386H39.6441H39.6496H39.6551H39.6607H39.6662H39.6717H39.6773H39.6828H39.6883H39.6939H39.6994H39.705H39.7105H39.7161H39.7216H39.7272H39.7327H39.7383H39.7438H39.7494H39.755H39.7605H39.7661H39.7717H39.7773H39.7828H39.7884H39.794H39.7995H39.8051H39.8107H39.8163H39.8218H39.8274H39.833H39.8386H39.8441H39.8497H39.8553H39.8609H39.8664H39.872H39.8776H39.8832H39.8887H39.8943H39.8999H39.9054H39.911H39.9165H39.9221H39.9277H39.9332H39.9388H39.9443H39.9499H39.9554H39.961H39.9665H39.972H39.9776H39.9831H39.9886H39.9942H39.9997H40.0052H40.0107H40.0162H40.0217H40.0272H40.0327H40.0382H40.0437H40.0492H40.0547H40.0602H40.0656H40.0711H40.0766H40.082H40.0875H40.0929H40.0984H40.1038H40.1092H40.1147H40.1201H40.1255H40.1309H40.1363H40.1417H40.1471H40.1525H40.1578H40.1632H40.1685H40.1739H40.1792H40.1846H40.1899H40.1952H40.2005H40.2059H40.2112H40.2164H40.2217H40.227H40.2323H40.2375H40.2428H40.248H40.2532H40.2585H40.2637H40.2689H40.2741H40.2793H40.2844H40.2896H40.2948H40.2999H40.305H40.3102H40.3153H40.3204H40.3255H40.3306H40.3357H40.3407H40.3458H40.3508H40.3558H40.3609H40.3659H40.3709H40.3759H40.3808H40.3858H40.3907H40.3957H40.4006H40.4055H40.4104H40.4153H40.4202H40.425H40.4299H40.4347H40.4396H40.4444H40.4492H40.454H40.4587H40.4635H40.4682H40.473H40.4777H40.4824H40.4871H40.4917H40.4964H40.501H40.5057H40.5103H40.5149H40.5195H40.524H40.5286H40.5331H40.5377H40.5422H40.5467H40.5511H40.5556H40.56H40.5645H40.5689H40.5733H40.5777H40.582H40.5864H40.5907H40.595H40.5993H40.6036H40.6078H40.6121H40.6163H40.6205H40.6247H40.6289H40.633H40.6372H40.6413H40.6454H40.6495H40.6535H40.6576H40.6616H40.6656H40.6696H40.6736H40.6775H40.6814H40.6854H40.6893H40.6931H40.697H40.7008H40.7046H40.7084H40.7122H40.7159H40.7197H40.7234H40.7271H40.7307H40.7344H40.738H40.7416H40.7452H40.7487H40.7523H40.7558H40.7593H40.7628H40.7662H40.7697H40.7731H40.7765H40.7798H40.7802C41.6658 46.8574 42.518 46.525 43.1453 45.8977L43.1675 45.8754L43.1868 45.8506C43.3224 45.6757 43.5507 45.3062 43.7997 44.8864C44.056 44.4543 44.3541 43.9349 44.6369 43.4358C44.9199 42.9363 45.1887 42.4552 45.3866 42.0991C45.4856 41.921 45.567 41.7741 45.6236 41.6716L45.6891 41.553L45.7063 41.5218L45.7107 41.5137L45.7118 41.5117L45.7121 41.5111L45.7122 41.511L45.69 41.4988C45.9194 41.1253 46.0209 40.6943 46.0413 40.2851C46.0761 39.587 45.8852 38.8636 45.6006 38.3537L45.5984 38.3496L44.1369 35.7871ZM43.2824 41.5688C43.0865 41.5878 42.8788 41.6028 42.6642 41.6142L40.7441 38.2309L43.5121 36.71L44.7285 38.8429C44.9238 39.1939 45.0677 39.7307 45.0425 40.2353C45.0175 40.7363 44.8362 41.1154 44.4851 41.3165C44.4135 41.3575 44.2751 41.4086 44.0536 41.4566C43.8397 41.5029 43.5785 41.5401 43.2824 41.5688ZM38.2278 42.5401V42.5283L37.0716 44.1705L38.1746 45.8249H38.6677H38.6678H38.6679H38.668H38.6682H38.6684H38.6686H38.6688H38.6691H38.6695H38.6699H38.6703H38.6707H38.6712H38.6717H38.6722H38.6728H38.6734H38.674H38.6747H38.6754H38.6762H38.6769H38.6777H38.6786H38.6795H38.6804H38.6813H38.6823H38.6833H38.6843H38.6854H38.6865H38.6876H38.6888H38.69H38.6912H38.6925H38.6938H38.6951H38.6964H38.6978H38.6992H38.7007H38.7022H38.7037H38.7052H38.7068H38.7084H38.71H38.7117H38.7134H38.7151H38.7168H38.7186H38.7204H38.7222H38.7241H38.726H38.7279H38.7299H38.7319H38.7339H38.7359H38.738H38.7401H38.7422H38.7443H38.7465H38.7487H38.751H38.7532H38.7555H38.7578H38.7602H38.7626H38.7649H38.7674H38.7698H38.7723H38.7748H38.7773H38.7799H38.7825H38.7851H38.7877H38.7904H38.7931H38.7958H38.7985H38.8013H38.8041H38.8069H38.8098H38.8126H38.8155H38.8184H38.8214H38.8243H38.8273H38.8303H38.8334H38.8364H38.8395H38.8426H38.8458H38.8489H38.8521H38.8553H38.8585H38.8618H38.8651H38.8684H38.8717H38.875H38.8784H38.8818H38.8852H38.8886H38.8921H38.8955H38.899H38.9025H38.9061H38.9096H38.9132H38.9168H38.9205H38.9241H38.9278H38.9315H38.9352H38.9389H38.9427H38.9464H38.9502H38.954H38.9579H38.9617H38.9656H38.9695H38.9734H38.9773H38.9813H38.9852H38.9892H38.9932H38.9972H39.0013H39.0054H39.0094H39.0135H39.0177H39.0218H39.0259H39.0301H39.0343H39.0385H39.0427H39.047H39.0513H39.0555H39.0598H39.0641H39.0685H39.0728H39.0772H39.0816H39.0859H39.0904H39.0948H39.0992H39.1037H39.1082H39.1127H39.1172H39.1217H39.1262H39.1308H39.1354H39.1399H39.1445H39.1492H39.1538H39.1584H39.1631H39.1678H39.1725H39.1772H39.1819H39.1866H39.1913H39.1961H39.2009H39.2057H39.2105H39.2153H39.2201H39.2249H39.2298H39.2346H39.2395H39.2444H39.2493H39.2542H39.2592H39.2641H39.269H39.274H39.279H39.284H39.289H39.294H39.299H39.304H39.3091H39.3141H39.3192H39.3243H39.3293H39.3344H39.3395H39.3447H39.3498H39.3549H39.3601H39.3652H39.3704H39.3756H39.3808H39.3859H39.3912H39.3964H39.4016H39.4068H39.4121H39.4173H39.4226H39.4278H39.4331H39.4384H39.4437H39.449H39.4543H39.4596H39.4649H39.4703H39.4756H39.4809H39.4863H39.4916H39.497H39.5024H39.5078H39.5131H39.5185H39.5239H39.5293H39.5348H39.5402H39.5456H39.551H39.5565H39.5619H39.5674H39.5728H39.5783H39.5837H39.5892H39.5947H39.6001H39.6056H39.6111H39.6166H39.6221H39.6276H39.6331H39.6386H39.6441H39.6496H39.6551H39.6607H39.6662H39.6717H39.6773H39.6828H39.6883H39.6939H39.6994H39.705H39.7105H39.7161H39.7216H39.7272H39.7327H39.7383H39.7438H39.7494H39.755H39.7605H39.7661H39.7717H39.7773H39.7828H39.7884H39.794H39.7995H39.8051H39.8107H39.8163H39.8218H39.8274H39.833H39.8386H39.8441H39.8497H39.8553H39.8609H39.8664H39.872H39.8776H39.8832H39.8887H39.8943H39.8999H39.9054H39.911H39.9165H39.9221H39.9277H39.9332H39.9388H39.9443H39.9499H39.9554H39.961H39.9665H39.972H39.9776H39.9831H39.9886H39.9942H39.9997H40.0052H40.0107H40.0162H40.0217H40.0272H40.0327H40.0382H40.0437H40.0492H40.0547H40.0602H40.0656H40.0711H40.0766H40.082H40.0875H40.0929H40.0984H40.1038H40.1092H40.1147H40.1201H40.1255H40.1309H40.1363H40.1417H40.1471H40.1525H40.1578H40.1632H40.1685H40.1739H40.1792H40.1846H40.1899H40.1952H40.2005H40.2059H40.2112H40.2164H40.2217H40.227H40.2323H40.2375H40.2428H40.248H40.2532H40.2585H40.2637H40.2689H40.2741H40.2793H40.2844H40.2896H40.2948H40.2999H40.305H40.3102H40.3153H40.3204H40.3255H40.3306H40.3357H40.3407H40.3458H40.3508H40.3558H40.3609H40.3659H40.3709H40.3759H40.3808H40.3858H40.3907H40.3957H40.4006H40.4055H40.4104H40.4153H40.4202H40.425H40.4299H40.4347H40.4396H40.4444H40.4492H40.454H40.4587H40.4635H40.4682H40.473H40.4777H40.4824H40.4871H40.4917H40.4964H40.501H40.5057H40.5103H40.5149H40.5195H40.524H40.5286H40.5331H40.5377H40.5422H40.5467H40.5511H40.5556H40.56H40.5645H40.5689H40.5733H40.5777H40.582H40.5864H40.5907H40.595H40.5993H40.6036H40.6078H40.6121H40.6163H40.6205H40.6247H40.6289H40.633H40.6372H40.6413H40.6454H40.6495H40.6535H40.6576H40.6616H40.6656H40.6696H40.6736H40.6775H40.6814H40.6854H40.6893H40.6931H40.697H40.7008H40.7046H40.7084H40.7122H40.7159H40.7197H40.7234H40.7271H40.7307H40.7344H40.738H40.7416H40.7452H40.7487H40.7523H40.7558H40.7593H40.7628H40.7662H40.7697H40.7731H40.7765H40.7798H40.7832H40.7865H40.7898H40.7998L40.8098 45.8253C41.4109 45.8493 41.9858 45.6299 42.4148 45.2136C42.5109 45.0828 42.6971 44.785 42.9396 44.3762C43.191 43.9525 43.4853 43.4397 43.7668 42.9428C43.856 42.7855 43.9437 42.63 44.0282 42.4796C43.8251 42.5145 43.6061 42.5421 43.3789 42.5642C42.7415 42.626 42.0072 42.6464 41.3182 42.647C40.6274 42.6477 39.9726 42.6284 39.4912 42.6089C39.2503 42.5992 39.0522 42.5895 38.9141 42.5821C38.845 42.5784 38.7909 42.5754 38.7539 42.5732L38.7114 42.5707L38.7003 42.57L38.6974 42.5698L38.6966 42.5697L38.6963 42.5697C38.6963 42.5697 38.6962 42.5697 38.7278 42.0707L38.6962 42.5697L38.2278 42.5401Z" fill="currentColor"/>
</svg>
