<svg width="24" height="24" viewBox="0 0 24 24" fill="none" xmlns="http://www.w3.org/2000/svg">
<path d="M4 11.5V8.5H21V10.0937" stroke="currentColor" stroke-miterlimit="10" stroke-linecap="round" stroke-linejoin="round"/>
<path d="M14.1743 6.33647C13.7161 5.82599 13.0511 5.50488 12.3112 5.50488C11.5183 5.50488 10.8115 5.87353 10.353 6.44877" stroke="black" stroke-linecap="round" stroke-linejoin="round"/>
<path d="M8.9272 5.03247C9.75284 4.09409 10.9627 3.50195 12.3108 3.50195C13.6057 3.50195 14.7729 4.0482 15.5947 4.92282" stroke="black" stroke-linecap="round" stroke-linejoin="round"/>
<path d="M17.0073 3.50235C15.823 2.26823 14.1569 1.5 12.3114 1.5C10.4051 1.5 8.69029 2.31963 7.50009 3.62571" stroke="black" stroke-linecap="round" stroke-linejoin="round"/>
<path d="M15.75 18.5H15.25" stroke="currentColor" stroke-miterlimit="10" stroke-linecap="round" stroke-linejoin="round"/>
<path d="M22.1424 12H17.8576C17.6601 12 17.5 12.154 17.5 12.3441V20.6559C17.5 20.846 17.6601 21 17.8576 21H22.1424C22.3399 21 22.5 20.846 22.5 20.6559V12.3441C22.5 12.154 22.3399 12 22.1424 12Z" stroke="black" stroke-linecap="round" stroke-linejoin="round"/>
<path d="M20.5 12.5H19.5" stroke="black" stroke-linecap="round" stroke-linejoin="round"/>
<circle cx="20" cy="19.5" r="0.5" fill="currentColor"/>
<path d="M13.5 20V14.0269C13.5 14.0269 13.5 14 13.4686 14H2.53143C2.5 14 2.5 14 2.5 14.0269V20" stroke="currentColor" stroke-miterlimit="10" stroke-linecap="round" stroke-linejoin="round"/>
<path d="M6.30151 20.0664V20.9696H9.69849V20.0664H14.4347C14.4673 20.0664 14.5 20.0664 14.5 20.0987V21.0341C14.5 21.0341 14.4673 21.0664 14.4347 21.0664H1.56533C1.53266 21.0664 1.5 21.0664 1.5 21.0341V20.0987C1.5 20.0987 1.53266 20.0664 1.56533 20.0664H6.30151Z" stroke="currentColor" stroke-miterlimit="10" stroke-linecap="round" stroke-linejoin="round"/>
</svg>
