<svg width="72" height="72" viewBox="0 0 72 72" fill="none" xmlns="http://www.w3.org/2000/svg">
<path fill-rule="evenodd" clip-rule="evenodd" d="M66.86 11.8545C67.0471 11.6514 67.0342 11.3351 66.8312 11.1479C66.6281 10.9608 66.3118 10.9737 66.1246 11.1768L35.8995 43.9772L5.67433 11.1768C5.48721 10.9737 5.17089 10.9608 4.96782 11.1479C4.76475 11.3351 4.75182 11.6514 4.93895 11.8545L35.2196 44.715L26.5941 54.0754H4.80664C4.5305 54.0754 4.30664 54.2993 4.30664 54.5754V59.9829C4.30664 60.2591 4.5305 60.4829 4.80664 60.4829H21.8303C21.97 60.4829 22.1033 60.4245 22.198 60.3218L27.1026 54.9993C27.1782 54.9519 27.2402 54.8848 27.2814 54.8052L35.8995 45.4529L49.601 60.3218C49.6957 60.4245 49.829 60.4829 49.9687 60.4829H66.9923C67.2685 60.4829 67.4923 60.2591 67.4923 59.9829V54.5754C67.4923 54.2993 67.2685 54.0754 66.9923 54.0754H45.2049L36.5794 44.715L66.86 11.8545ZM5.30664 55.0754H25.6726L21.6111 59.4829H5.30664V55.0754ZM50.1879 59.4829L46.1264 55.0754H66.4923V59.4829H50.1879Z" fill="currentColor"/>
</svg>
