<svg class="logo-mastercard" viewBox="0 0 24 15" fill="none" xmlns="http://www.w3.org/2000/svg">
    <path class="_svg-fill" d="M14.7945 12.8614H8.49512V1.54028H14.7945V12.8614Z" fill="#FF5F00"/>
    <path class="_svg-fill" d="M8.89872 7.20002C8.89872 4.90347 9.97398 2.85777 11.6484 1.53944C10.424 0.575417 8.87858 2.03825e-05 7.19908 2.03825e-05C3.22304 2.03825e-05 0 3.22352 0 7.20002C0 11.1765 3.22304 14.4 7.19908 14.4C8.87858 14.4 10.424 13.8246 11.6484 12.8606C9.97398 11.5423 8.89872 9.49657 8.89872 7.20002Z" fill="#EB001B"/>
    <path class="_svg-fill" d="M23.2905 7.20002C23.2905 11.1765 20.0675 14.4 16.0914 14.4C14.4119 14.4 12.8665 13.8246 11.6416 12.8606C13.3165 11.5423 14.3918 9.49657 14.3918 7.20002C14.3918 4.90347 13.3165 2.85777 11.6416 1.53944C12.8665 0.575417 14.4119 2.03825e-05 16.0914 2.03825e-05C20.0675 2.03825e-05 23.2905 3.22352 23.2905 7.20002Z" fill="#F79E1B"/>
    <path class="_svg-fill" d="M5.41736 7.24556C5.41736 6.93106 5.62346 6.6727 5.96023 6.6727C6.28201 6.6727 6.49924 6.91992 6.49924 7.24556C6.49924 7.57119 6.28201 7.81841 5.96023 7.81841C5.62346 7.81841 5.41736 7.56005 5.41736 7.24556ZM6.86601 7.24556V6.35092H6.47696V6.56815C6.35356 6.40705 6.16632 6.30593 5.91181 6.30593C5.41008 6.30593 5.01675 6.69926 5.01675 7.24556C5.01675 7.79228 5.41008 8.18518 5.91181 8.18518C6.16632 8.18518 6.35356 8.08406 6.47696 7.92296V8.14019H6.86601V7.24556ZM20.0131 7.24556C20.0131 6.93106 20.2191 6.6727 20.5559 6.6727C20.8781 6.6727 21.0949 6.91992 21.0949 7.24556C21.0949 7.57119 20.8781 7.81841 20.5559 7.81841C20.2191 7.81841 20.0131 7.56005 20.0131 7.24556ZM21.4621 7.24556V5.63238H21.0727V6.56815C20.9493 6.40705 20.762 6.30593 20.5075 6.30593C20.0058 6.30593 19.6124 6.69926 19.6124 7.24556C19.6124 7.79228 20.0058 8.18518 20.5075 8.18518C20.762 8.18518 20.9493 8.08406 21.0727 7.92296V8.14019H21.4621V7.24556ZM11.6952 6.65427C11.9459 6.65427 12.107 6.81152 12.1481 7.08831H11.2197C11.2612 6.82994 11.418 6.65427 11.6952 6.65427ZM11.703 6.30593C11.1785 6.30593 10.8118 6.68769 10.8118 7.24556C10.8118 7.81456 11.1935 8.18518 11.7291 8.18518C11.9986 8.18518 12.2454 8.11791 12.4626 7.93453L12.272 7.64617C12.122 7.76571 11.9309 7.83341 11.7514 7.83341C11.5007 7.83341 11.2724 7.7173 11.2162 7.39509H12.5449C12.5488 7.34667 12.5526 7.29783 12.5526 7.24556C12.5488 6.68769 12.2043 6.30593 11.703 6.30593ZM16.4007 7.24556C16.4007 6.93106 16.6068 6.6727 16.9435 6.6727C17.2653 6.6727 17.4825 6.91992 17.4825 7.24556C17.4825 7.57119 17.2653 7.81841 16.9435 7.81841C16.6068 7.81841 16.4007 7.56005 16.4007 7.24556ZM17.8493 7.24556V6.35092H17.4603V6.56815C17.3364 6.40705 17.1496 6.30593 16.8951 6.30593C16.3934 6.30593 16 6.69926 16 7.24556C16 7.79228 16.3934 8.18518 16.8951 8.18518C17.1496 8.18518 17.3364 8.08406 17.4603 7.92296V8.14019H17.8493V7.24556ZM14.2035 7.24556C14.2035 7.78842 14.5814 8.18518 15.1581 8.18518C15.4276 8.18518 15.6071 8.1252 15.8017 7.9718L15.6149 7.65731C15.4687 7.76229 15.3154 7.81841 15.1465 7.81841C14.8359 7.81456 14.6075 7.59004 14.6075 7.24556C14.6075 6.90107 14.8359 6.67655 15.1465 6.6727C15.3154 6.6727 15.4687 6.72883 15.6149 6.8338L15.8017 6.51931C15.6071 6.36592 15.4276 6.30593 15.1581 6.30593C14.5814 6.30593 14.2035 6.70269 14.2035 7.24556ZM19.2195 6.30593C18.995 6.30593 18.8489 6.41091 18.7478 6.56815V6.35092H18.3622V8.14019H18.7517V7.13715C18.7517 6.84108 18.8789 6.67655 19.1334 6.67655C19.2123 6.67655 19.2945 6.68769 19.3768 6.72154L19.4968 6.35478C19.4106 6.32093 19.2984 6.30593 19.2195 6.30593ZM8.79025 6.49317C8.60301 6.36977 8.34507 6.30593 8.06057 6.30593C7.60725 6.30593 7.31547 6.52316 7.31547 6.87879C7.31547 7.17057 7.5327 7.35053 7.93289 7.40666L8.1167 7.4328C8.33008 7.46279 8.43077 7.51892 8.43077 7.62003C8.43077 7.75843 8.28852 7.83727 8.02287 7.83727C7.75336 7.83727 7.55884 7.75115 7.42773 7.65003L7.24434 7.95295C7.45772 8.1102 7.72722 8.18518 8.01901 8.18518C8.53574 8.18518 8.83524 7.94181 8.83524 7.60118C8.83524 7.28669 8.59958 7.12216 8.2101 7.06603L8.02672 7.03946C7.85834 7.01718 7.72337 6.98376 7.72337 6.86379C7.72337 6.73268 7.85062 6.65427 8.064 6.65427C8.29237 6.65427 8.51346 6.7404 8.62186 6.80766L8.79025 6.49317ZM13.8102 6.30593C13.5856 6.30593 13.4395 6.41091 13.3388 6.56815V6.35092H12.9532V8.14019H13.3423V7.13715C13.3423 6.84108 13.4695 6.67655 13.724 6.67655C13.8029 6.67655 13.8851 6.68769 13.9674 6.72154L14.0874 6.35478C14.0013 6.32093 13.889 6.30593 13.8102 6.30593ZM10.49 6.35092H9.8537V5.80805H9.46037V6.35092H9.09746V6.70655H9.46037V7.52277C9.46037 7.93796 9.62147 8.18518 10.0816 8.18518C10.2505 8.18518 10.445 8.13291 10.5684 8.04679L10.4561 7.71344C10.34 7.78071 10.2128 7.81456 10.1116 7.81456C9.91711 7.81456 9.8537 7.69459 9.8537 7.51506V6.70655H10.49V6.35092ZM4.67269 8.14019V7.01718C4.67269 6.59429 4.40319 6.30979 3.96872 6.30593C3.74035 6.30207 3.50469 6.3732 3.33973 6.62428C3.21634 6.4259 3.02181 6.30593 2.74845 6.30593C2.55735 6.30593 2.37054 6.36206 2.22444 6.57158V6.35092H1.83496V8.14019H2.22786V7.14829C2.22786 6.83766 2.40011 6.6727 2.66618 6.6727C2.92455 6.6727 3.05523 6.84108 3.05523 7.14444V8.14019H3.44856V7.14829C3.44856 6.83766 3.62809 6.6727 3.88646 6.6727C4.1521 6.6727 4.27936 6.84108 4.27936 7.14444V8.14019H4.67269Z" fill="white"/>
</svg>