<svg class="logo-visa" viewBox="0 0 37 12" fill="none" xmlns="http://www.w3.org/2000/svg">
    <path class="_svg-fill" d="M15.8081 11.4527H12.8529L14.7013 0.858643H17.6562L15.8081 11.4527Z" fill="#00579F"/>
    <path class="_svg-fill" d="M26.5206 1.11772C25.9377 0.903363 25.0132 0.666687 23.8701 0.666687C20.9518 0.666687 18.8968 2.10921 18.8842 4.17158C18.8599 5.6932 20.3555 6.53834 21.4741 7.04569C22.6174 7.56413 23.006 7.90252 23.006 8.36464C22.9944 9.07436 22.0822 9.40152 21.2314 9.40152C20.0516 9.40152 19.4194 9.23285 18.4587 8.83799L18.0696 8.66872L17.656 11.0469C18.3491 11.3396 19.6261 11.5993 20.9518 11.6107C24.0526 11.6107 26.0712 10.1905 26.0951 7.9927C26.1069 6.7867 25.3172 5.86262 23.6146 5.1075C22.581 4.62276 21.9481 4.29591 21.9481 3.79994C21.9602 3.34906 22.4834 2.88724 23.6502 2.88724C24.6109 2.86462 25.3167 3.07868 25.8515 3.29289L26.1187 3.40538L26.5206 1.11772Z" fill="#00579F"/>
    <path class="_svg-fill" d="M30.4483 7.69962C30.6916 7.091 31.6281 4.73548 31.6281 4.73548C31.6158 4.7581 31.871 4.11563 32.0169 3.72122L32.2234 4.63407C32.2234 4.63407 32.783 7.16994 32.9045 7.69962C32.4427 7.69962 31.032 7.69962 30.4483 7.69962ZM34.096 0.858643H31.8102C31.1053 0.858643 30.5698 1.05008 30.2657 1.73764L25.8762 11.4526H28.9769C28.9769 11.4526 29.4874 10.145 29.5971 9.8634C29.9373 9.8634 32.9537 9.8634 33.3913 9.8634C33.4761 10.2353 33.7439 11.4526 33.7439 11.4526H36.4801L34.096 0.858643Z" fill="#00579F"/>
    <path class="_svg-fill" d="M10.3846 0.858643L7.49057 8.08279L7.17432 6.61765C6.63928 4.92707 4.96125 3.09028 3.08865 2.17699L5.7395 11.4415H8.86447L13.5094 0.858643H10.3846Z" fill="#00579F"/>
    <path class="_svg-fill" d="M4.80323 0.858643H0.0487017L6.10352e-05 1.0727C3.70889 1.95184 6.16517 4.07099 7.17435 6.6181L6.14077 1.74917C5.97061 1.07255 5.44768 0.880962 4.80323 0.858643Z" fill="#FAA61A"/>
</svg>
    