<svg fill="none" height="24" viewBox="0 0 24 24" width="24" xmlns="http://www.w3.org/2000/svg"><path clip-rule="evenodd" d="m12.2429 2.56292c-.151-.08389-.3347-.08389-.4857 0l-8.99998 5c-.19916.11065-.29834.34195-.24119.5625s.25618.37458.48402.37458h17.99995c.2279 0 .4269-.15403.4841-.37458.0571-.22055-.0421-.45185-.2412-.5625zm-.2429 1.00906 7.0705 3.92802h-14.14089zm6.5 6.42802c0-.27614-.2238-.5-.5-.5-.2761 0-.5.22386-.5.5v9c0 .2761.2239.5.5.5.2762 0 .5-.2239.5-.5zm-8.5-.5c.2762 0 .5.22386.5.5v9c0 .2761-.2238.5-.5.5-.2761 0-.49995-.2239-.49995-.5v-9c0-.27614.22385-.5.49995-.5zm4.5.5c0-.27614-.2238-.5-.5-.5-.2761 0-.5.22386-.5.5v9c0 .2761.2239.5.5.5.2762 0 .5-.2239.5-.5zm-8.49995-.5c.27614 0 .5.22386.5.5v9c0 .2761-.22386.5-.5.5-.27615 0-.5-.2239-.5-.5v-9c0-.27614.22385-.5.5-.5zm-3 11c-.27615 0-.5.2239-.5.5s.22385.5.5.5h17.99995c.2762 0 .5-.2239.5-.5s-.2238-.5-.5-.5z" fill="currentColor" fill-rule="evenodd"/></svg>