<svg fill="none" height="24" viewBox="0 0 24 24" width="24" xmlns="http://www.w3.org/2000/svg"><path clip-rule="evenodd" d="m3.5 2c0-.27614.22386-.5.5-.5h14c.2761 0 .5.22386.5.5v1.5h1.5c.2761 0 .5.22386.5.5v18c0 .2761-.2239.5-.5.5h-2-14c-.27614 0-.5-.2239-.5-.5zm15 18.7143v-16.2143h1v17h-1zm-1-18.2143v1.5 16.7143.7857h-13v-19zm-11.5 2.5c0-.55228.44772-1 1-1h8c.5523 0 1 .44772 1 1v2c0 .55228-.4477 1-1 1h-8c-.55228 0-1-.44772-1-1zm2 0h-1v1 1h1 6 1v-1-1h-1zm-1 6c-.55228 0-1 .4477-1 1v3c0 .5523.44772 1 1 1h2c.55228 0 1-.4477 1-1v-3c0-.5523-.44772-1-1-1zm0 1h1 1v1 1 1h-1-1v-1-1zm-1-2.5c0-.27614.22386-.5.5-.5h1c.27614 0 .5.22386.5.5s-.22386.5-.5.5h-1c-.27614 0-.5-.22386-.5-.5zm10 8c0 .2761-.2239.5-.5.5h-1c-.2761 0-.5-.2239-.5-.5s.2239-.5.5-.5h1c.2761 0 .5.2239.5.5zm-9.5 1.5c-.27614 0-.5.2239-.5.5s.22386.5.5.5h1c.27614 0 .5-.2239.5-.5s-.22386-.5-.5-.5zm2.5-9.5c0-.27614.22386-.5.5-.5h6c.2761 0 .5.22386.5.5s-.2239.5-.5.5h-6c-.27614 0-.5-.22386-.5-.5zm3.5 8.5c.2761 0 .5-.2239.5-.5s-.2239-.5-.5-.5h-6c-.27614 0-.5.2239-.5.5s.22386.5.5.5zm-3.5 1.5c0-.2761.22386-.5.5-.5h6c.2761 0 .5.2239.5.5s-.2239.5-.5.5h-6c-.27614 0-.5-.2239-.5-.5zm2.5-8.5c-.2761 0-.5.2239-.5.5s.2239.5.5.5h4c.2761 0 .5-.2239.5-.5s-.2239-.5-.5-.5zm-.5 4.5c0-.2761.2239-.5.5-.5h4c.2761 0 .5.2239.5.5s-.2239.5-.5.5h-4c-.2761 0-.5-.2239-.5-.5zm.5-2.5c-.2761 0-.5.2239-.5.5s.2239.5.5.5h1c.2761 0 .5-.2239.5-.5s-.2239-.5-.5-.5zm2.5.5c0-.2761.2239-.5.5-.5h1c.2761 0 .5.2239.5.5s-.2239.5-.5.5h-1c-.2761 0-.5-.2239-.5-.5z" fill="currentColor" fill-rule="evenodd"/></svg>