<svg fill="none" height="24" viewBox="0 0 24 24" width="24" xmlns="http://www.w3.org/2000/svg"><path clip-rule="evenodd" d="m8.92308 1.5c-.27615 0-.5.22386-.5.5v1.9h-4.11539-2.30769c-.27614 0-.5.22386-.5.5s.22386.5.5.5h1.84949l1.49856 17.1435c.02258.2583.23884.4565.4981.4565h12.30765c.2593 0 .4756-.1982.4981-.4565l1.4986-17.1435h1.8495c.2761 0 .5-.22386.5-.5s-.2239-.5-.5-.5h-2.3077-4.1154v-1.9c0-.27614-.2238-.5-.5-.5zm5.65382 2.4h-5.15382v-1.4h5.15382zm-8.27255 17.6-1.45104-16.6h4.06977 6.15382 4.0698l-1.4511 16.6zm3.19565-13.5c0-.27614-.22386-.5-.5-.5s-.5.22386-.5.5v10c0 .2761.22386.5.5.5s.5-.2239.5-.5zm3 0c0-.27614-.2239-.5-.5-.5s-.5.22386-.5.5v10c0 .2761.2239.5.5.5s.5-.2239.5-.5zm3 0c0-.27614-.2239-.5-.5-.5s-.5.22386-.5.5v10c0 .2761.2239.5.5.5s.5-.2239.5-.5z" fill="currentColor" fill-rule="evenodd"/></svg>