<svg fill="none" height="24" viewBox="0 0 24 24" width="24" xmlns="http://www.w3.org/2000/svg"><path clip-rule="evenodd" d="m4 2c-.27614 0-.5.22386-.5.5v19c0 .2761.22386.5.5.5h4 3 4 1.5 2 1.5c.2761 0 .5-.2239.5-.5v-10c0-.2761-.2239-.5-.5-.5h-4.5v-8.5c0-.27614-.2239-.5-.5-.5zm11.5 10v8.7857.2143h.5v-1.5c0-.2761.2239-.5.5-.5h2c.2761 0 .5.2239.5.5v1.5h.5v-9zm-1-.5v-8.5h-10v18h3v-1.5c0-.2761.22386-.5.5-.5h3c.2761 0 .5.2239.5.5v1.5h3v-.2143zm-4 8.5v1h-2v-1zm-4.5-16c-.27614 0-.5.22386-.5.5v.5c0 .27614.22386.5.5.5h.5c.27614 0 .5-.22386.5-.5v-.5c0-.27614-.22386-.5-.5-.5zm-.5 3.5c0-.27614.22386-.5.5-.5h.5c.27614 0 .5.22386.5.5v.5c0 .27614-.22386.5-.5.5h-.5c-.27614 0-.5-.22386-.5-.5zm.5 2.5c-.27614 0-.5.2239-.5.5v.5c0 .2761.22386.5.5.5h.5c.27614 0 .5-.2239.5-.5v-.5c0-.2761-.22386-.5-.5-.5zm-.5 3.5c0-.2761.22386-.5.5-.5h.5c.27614 0 .5.2239.5.5v.5c0 .2761-.22386.5-.5.5h-.5c-.27614 0-.5-.2239-.5-.5zm.5 2.5c-.27614 0-.5.2239-.5.5v.5c0 .2761.22386.5.5.5h.5c.27614 0 .5-.2239.5-.5v-.5c0-.2761-.22386-.5-.5-.5zm2.5-11.5c0-.27614.22386-.5.5-.5h.5c.27614 0 .5.22386.5.5v.5c0 .27614-.22386.5-.5.5h-.5c-.27614 0-.5-.22386-.5-.5zm3.5-.5c-.2761 0-.5.22386-.5.5v.5c0 .27614.2239.5.5.5h.5c.2761 0 .5-.22386.5-.5v-.5c0-.27614-.2239-.5-.5-.5zm-3.5 3.5c0-.27614.22386-.5.5-.5h.5c.27614 0 .5.22386.5.5v.5c0 .27614-.22386.5-.5.5h-.5c-.27614 0-.5-.22386-.5-.5zm3.5-.5c-.2761 0-.5.22386-.5.5v.5c0 .27614.2239.5.5.5h.5c.2761 0 .5-.22386.5-.5v-.5c0-.27614-.2239-.5-.5-.5zm-3.5 3.5c0-.2761.22386-.5.5-.5h.5c.27614 0 .5.2239.5.5v.5c0 .2761-.22386.5-.5.5h-.5c-.27614 0-.5-.2239-.5-.5zm.5 2.5c-.27614 0-.5.2239-.5.5v.5c0 .2761.22386.5.5.5h.5c.27614 0 .5-.2239.5-.5v-.5c0-.2761-.22386-.5-.5-.5zm-.5 3.5c0-.2761.22386-.5.5-.5h.5c.27614 0 .5.2239.5.5v.5c0 .2761-.22386.5-.5.5h-.5c-.27614 0-.5-.2239-.5-.5zm3.5-6.5c-.2761 0-.5.2239-.5.5v.5c0 .2761.2239.5.5.5h.5c.2761 0 .5-.2239.5-.5v-.5c0-.2761-.2239-.5-.5-.5zm-.5 3.5c0-.2761.2239-.5.5-.5h.5c.2761 0 .5.2239.5.5v.5c0 .2761-.2239.5-.5.5h-.5c-.2761 0-.5-.2239-.5-.5zm.5 2.5c-.2761 0-.5.2239-.5.5v.5c0 .2761.2239.5.5.5h.5c.2761 0 .5-.2239.5-.5v-.5c0-.2761-.2239-.5-.5-.5zm6 5h-1v-1h1zm-1.5-7.5c0-.2761.2239-.5.5-.5h1c.2761 0 .5.2239.5.5v.5c0 .2761-.2239.5-.5.5h-1c-.2761 0-.5-.2239-.5-.5zm0 3c0-.2761.2239-.5.5-.5h1c.2761 0 .5.2239.5.5v.5c0 .2761-.2239.5-.5.5h-1c-.2761 0-.5-.2239-.5-.5z" fill="currentColor" fill-rule="evenodd"/></svg>