<svg fill="none" height="24" viewBox="0 0 24 24" width="24" xmlns="http://www.w3.org/2000/svg"><path clip-rule="evenodd" d="m7.8254 2.53704c-.80332-.68856-2.08871-.55281-2.83679.26509l-.38429.30743c-.0144.01153-.02816.02384-.0412.03688l-1.41667 1.41667-.00677.00676c-.03672.03664-.10097.10074-.15426.17179-.02633.03511-.06422.08996-.09559.16153-.01422.01477-.02752.0304-.03983.04681-1.16146 1.54862-.95924 3.66614-.10425 5.7502.86435 2.1068 2.4491 4.326 4.31342 6.2327l-.00009.0001.00803.0078c1.90804 1.8657 4.14829 3.4499 6.26479 4.3138 2.0889.8526 4.2135 1.0603 5.7242-.1092.0167-.013.0325-.0269.0475-.0418l.0718-.0719c.006-.0034.0204-.0127.0499-.0323.0303-.0203.1064-.0723.17-.1632.0143-.0204.027-.0413.0381-.0625l1.3368-1.3368c.0131-.0131.0254-.0268.0369-.0412l.317-.3962c.8212-.8404.8458-2.039.1722-2.8249-.035-.0408-.0763-.0757-.1224-.1033l-3.2999-1.98c-.8266-.6752-2.0168-.4889-2.8109.3051l-1.195 1.195c-.0761.0302-.2038.0484-.4089.0134-.2445-.0418-.5484-.1514-.8973-.3308-.693-.3561-1.484-.9452-2.2082-1.6277-.68245-.7242-1.27163-1.5152-1.62773-2.2082-.17933-.3489-.28899-.6528-.33076-.8973-.03505-.2051-.01684-.3328.01337-.4089l1.19498-1.19502c.83004-.83.94554-2.00478.3194-2.95379l-1.99421-3.32367c-.02765-.04609-.06255-.08741-.10335-.12238zm-2.11577.95888c.40223-.4597 1.044-.49836 1.40908-.24293l1.95255 3.25426c.00408.0068.00832.0135.01272.0201.36612.54917.31275 1.20215-.18753 1.70243l-1.25 1.25c-.02891.0289-.05416.06125-.07519.0963-.20958.3493-.22616.75622-.16177 1.13312.065.3805.22097.785.42705 1.186.41303.8037 1.06992 1.6751 1.79996 2.4481.00654.0069.01327.0137.02019.0202.77301.73 1.64441 1.3869 2.44811 1.8.401.206.8055.362 1.186.427.3769.0644.7838.0478 1.1331-.1618.0351-.021.0674-.0462.0963-.0751l1.25-1.25c.5281-.5281 1.1488-.5145 1.4877-.224.0213.0183.0441.0347.0682.0491l3.2562 1.9538c.2773.3781.2819.9628-.1858 1.4306-.0131.0131-.0254.0268-.0369.0412l-.3161.3951-1.397 1.397c-.0244.0244-.046.051-.0646.0794-.0307.0225-.0659.0511-.1021.0873l-.06.0599c-1.0734.8114-2.7305.7637-4.71-.0443-1.9654-.8022-4.0985-2.2997-5.93955-4.0989-1.80061-1.8424-3.2976-3.9549-4.09933-5.9092-.80507-1.96232-.85862-3.6253-.0412-4.74321l.05717-.05717c.05843-.05843.10091-.12984.12463-.20745.01126-.01173.02442-.02493.04204-.04255l1.39708-1.39709.39505-.31603c.02308-.01847.04447-.03894.06394-.06118zm13.81057 1.69097c.1953-.19526.1953-.51185 0-.70711-.1952-.19526-.5118-.19526-.7071 0l-4.3131 4.31311v-1.54289c0-.27614-.2239-.5-.5-.5s-.5.22386-.5.5v2.75c0 .2761.2239.5.5.5h2.75c.2761 0 .5-.2239.5-.5 0-.27614-.2239-.5-.5-.5h-1.5429z" fill="currentColor" fill-rule="evenodd"/></svg>