<svg fill="none" height="24" viewBox="0 0 24 24" width="24" xmlns="http://www.w3.org/2000/svg"><path clip-rule="evenodd" d="m4.5 15.4091c0-4.9403 4.01948-8.9091 9-8.9091 4.9805 0 9 3.9688 9 8.9091 0 .2761-.2239.5-.5.5s-.5-.2239-.5-.5c0-4.3779-3.5616-7.9091-8-7.9091s-8 3.5312-8 7.9091v.3838l2.14645-2.1465c.19526-.1952.51184-.1952.7071 0 .19527.1953.19527.5119 0 .7072l-3 3c-.19526.1952-.51184.1952-.7071 0l-3-3c-.19527-.1953-.19527-.5119 0-.7072.19526-.1952.51184-.1952.7071 0l2.14645 2.1465z" fill="currentColor" fill-rule="evenodd"/></svg>