<svg fill="none" height="24" viewBox="0 0 24 24" width="24" xmlns="http://www.w3.org/2000/svg"><path clip-rule="evenodd" d="m12 22c5.5228 0 10-4.4772 10-10 0-5.52285-4.4772-10-10-10-5.52285 0-10 4.47715-10 10 0 5.5228 4.47715 10 10 10zm0 1c6.0751 0 11-4.9249 11-11 0-6.07513-4.9249-11-11-11-6.07513 0-11 4.92487-11 11 0 6.0751 4.92487 11 11 11zm4.2835-11.7089c-.1953.1952-.5119.1952-.7071 0l-3.0915-3.09156v8.48796c0 .2761-.2239.5-.5.5-.2762 0-.5-.2239-.5-.5v-8.47282l-3.07641 3.07642c-.19527.1952-.51185.1952-.70711 0-.19526-.1953-.19526-.5119 0-.7072l3.93752-3.93745c.1952-.19527.5118-.19526.7071 0l3.9375 3.93745c.1952.1953.1952.5119 0 .7072z" fill="currentColor" fill-rule="evenodd"/></svg>