<svg fill="none" height="24" viewBox="0 0 24 24" width="24" xmlns="http://www.w3.org/2000/svg"><path clip-rule="evenodd" d="m12 2.5c.2761 0 .5.22386.5.5v13.7929l5.1464-5.1465c.1953-.1952.5119-.1952.7072 0 .1952.1953.1952.5119 0 .7072l-6 6c-.1953.1952-.5119.1952-.7072 0l-5.99995-6c-.19527-.1953-.19527-.5119 0-.7072.19526-.1952.51184-.1952.7071 0l5.14645 5.1465v-13.7929c0-.27614.2239-.5.5-.5zm-8.5 18.5c0-.2761.22386-.5.5-.5h16c.2761 0 .5.2239.5.5s-.2239.5-.5.5h-16c-.27614 0-.5-.2239-.5-.5z" fill="currentColor" fill-rule="evenodd"/></svg>