<svg fill="none" height="24" viewBox="0 0 24 24" width="24" xmlns="http://www.w3.org/2000/svg"><path d="m4.98 15.4164 4.23 3.8334m5.04-14.05584 4.14 3.83343m-2.25-5.93268c.36-.45636.9-.73018 1.53-.82145s1.17.09127 1.62.45636l.99.91272c.45.45636.63 1.00399.72 1.55162 0 .63891-.27 1.18654-.72 1.6429-4.05 4.38104-8.01 8.85334-12.06 13.32574-.09.0912-.09.0912-.18.0912l-4.59 1.4604c-.45.0358-.45.0358-.45-.3651l.99-4.9287c0-.0913 0-.0913.09-.1825 1.74011-1.7647 10.17-11.04394 12.06-13.14319z" stroke="currentColor" stroke-miterlimit="10"/></svg>