<svg fill="none" height="24" viewBox="0 0 24 24" width="24" xmlns="http://www.w3.org/2000/svg"><path clip-rule="evenodd" d="m2.49976 5c-.27615 0-.5.22386-.5.5v13.0008c0 .1327.05276.26.14666.3538.09391.0937.22124.1464.35396.1462l18.99052-.0236c.2757-.0004.4991-.2239.4993-.4997l.009-12.97715c.0001-.13267-.0525-.25994-.1463-.35378s-.221-.14657-.3537-.14657zm.5 1.60943v10.72567l4.63405-4.399c.20027-.1901.51675-.1818.70686.0184.19012.2003.18188.5168-.01839.7069l-4.56964 4.3378 16.52096-.0205-4.421-4.3609c-.1966-.194-.1987-.5105-.0048-.7071s.5105-.1988.7071-.0049l4.4362 4.376.0074-10.66887-8.6675 7.67447c-.1893.1676-.4738.1675-.663 0zm17.18244-.60943h-16.3623l8.1797 7.2452z" fill="currentColor" fill-rule="evenodd"/></svg>