<svg fill="none" height="24" viewBox="0 0 24 24" width="24" xmlns="http://www.w3.org/2000/svg"><path clip-rule="evenodd" d="m2.24634 4.74646c-.27614 0-.5.22386-.5.5v13.50614c0 .1327.05276.26.14667.3538.0939.0938.22124.1464.35396.1462l19.49733-.0245c.2758-.0004.4992-.2239.4994-.4997l.0092-13.4816c.0001-.13266-.0525-.25993-.1463-.35377s-.221-.14657-.3537-.14657zm.5 1.61813v11.21441l4.77873-4.5902c.19915-.1913.51567-.1849.70696.0143.19129.1991.18492.5156-.01423.7069l-4.72761 4.541 17.04661-.0214-4.5733-4.5647c-.1954-.1951-.1957-.5117-.0006-.7071.195-.1955.5116-.1957.7071-.0007l4.5745 4.566.0077-11.15489-8.9189 7.99079c-.1899.1701-.4775.1701-.6674-.0001zm17.70116-.61813h-16.89254l8.44474 7.56874z" fill="currentColor" fill-rule="evenodd"/></svg>