<svg fill="none" height="24" viewBox="0 0 24 24" width="24" xmlns="http://www.w3.org/2000/svg"><path clip-rule="evenodd" d="m22 12c0 5.5228-4.4772 10-10 10-5.52285 0-10-4.4772-10-10 0-5.52285 4.47715-10 10-10 5.5228 0 10 4.47715 10 10zm1 0c0 6.0751-4.9249 11-11 11-6.07513 0-11-4.9249-11-11 0-6.07513 4.92487-11 11-11 6.0751 0 11 4.92487 11 11zm-10.85 3.4499c-.75 0-1.35.4501-1.35 1.2001s.45 1.1999 1.35 1.1999c.6 0 1.2001-.4499 1.2001-1.1999s-.6001-1.2001-1.2001-1.2001zm-1.0499-9.4499.4499 7.65h.9l.45-7.65z" fill="currentColor" fill-rule="evenodd"/></svg>