<svg fill="none" height="24" viewBox="0 0 24 24" width="24" xmlns="http://www.w3.org/2000/svg"><path clip-rule="evenodd" d="m13.5 4c-.2761 0-.5.22386-.5.5s.2239.5.5.5h4.7929l-6.6465 6.6464c-.1952.1953-.1952.5119 0 .7072.1953.1952.5119.1952.7072 0l6.6464-6.64649v4.79289c0 .2761.2239.5.5.5s.5-.2239.5-.5v-6c0-.27614-.2239-.5-.5-.5zm-8 2c0-.27614.22386-.5.5-.5h5.1429c.2761 0 .5.22386.5.5s-.2239.5-.5.5h-4.6429v11h11v-4.6423c0-.2761.2239-.5.5-.5s.5.2239.5.5v5.1423c0 .2761-.2239.5-.5.5h-12c-.27614 0-.5-.2239-.5-.5z" fill="currentColor" fill-rule="evenodd"/></svg>