<svg fill="none" height="24" viewBox="0 0 24 24" width="24" xmlns="http://www.w3.org/2000/svg"><path clip-rule="evenodd" d="m22.3536 1.64645c.1952.19526.1952.51184 0 .7071l-20.00005 20.00005c-.19526.1952-.51184.1952-.7071 0-.19527-.1953-.19527-.5119 0-.7072l4.30145-4.3014c-1.34996-1.0131-2.40191-2.2093-3.13367-3.1824-.40981-.545-.72214-1.024-.93283-1.3683-.1054-.1722-.18553-.3109-.23986-.4077-.02717-.0484-.0479-.0863-.06213-.1127l-.01645-.0307-.00456-.0087-.00136-.0026-.00045-.0008-.00016-.0004c-.00007-.0001-.00013-.0002.44357-.2307-.4437-.2305-.44361-.2307-.4435-.2309l.00029-.0005.00082-.0016.00266-.0051.00933-.0176c.008-.0149.01955-.0364.03464-.0638.03018-.0549.0745-.1339.13275-.2336.11647-.1993.28885-.4816.51543-.8192.45256-.67451 1.12459-1.57469 2.00304-2.47657 1.74912-1.79577 4.37037-3.65113 7.74454-3.65113 2.0154 0 3.7639.66312 5.2151 1.57775l4.4313-4.4313c.1953-.19527.5119-.19527.7072 0zm-20.3536 10.35355-.4437.2305c-.07507-.1445-.07507-.3165 0-.461zm7.19684 2.0961-2.53409 2.534c-1.30476-.9552-2.33154-2.114-3.04927-3.0685-.38768-.5156-.68228-.9676-.87915-1.2893-.06475-.1058-.11885-.1974-.16215-.2723l.02818-.0485c.10726-.1835.26869-.4481.48245-.7667.42812-.638 1.06291-1.48781 1.889-2.33593 1.65997-1.70423 4.03872-3.34887 7.02819-3.34887 1.7005 0 3.2018.53108 4.4884 1.30454l-2.3923 2.3923c-.5842-.43734-1.3102-.69684-2.0961-.69684-1.933 0-3.5 1.567-3.5 3.5 0 .7859.2595 1.5119.69684 2.0961zm.7173-.7174 3.46466-3.46456c-.3953-.26193-.869-.41414-1.3788-.41414-1.3807 0-2.5 1.1193-2.5 2.5 0 .5098.15221.9835.41414 1.3787zm8.72446-5.60722c.1909-.19957.5074-.20664.707-.01579 1.0079.96393 1.7796 1.96328 2.2991 2.72041.2602.3792.4582.6992.5919.9258.0668.1134.1177.2035.1523.2662.0173.0313.0306.0558.0397.0729l.0106.02.003.0057.001.0018.0003.0006.0001.0002c.0001.0001.0001.0002-.4436.2307.4437.2305.4436.2307.4435.2309l-.0003.0005-.0008.0016-.0027.0051-.0093.0176c-.008.0149-.0196.0364-.0346.0638-.0302.0549-.0745.1339-.1328.2336-.1165.1993-.2888.4816-.5154.8192-.4526.6745-1.1246 1.5747-2.0031 2.4766-1.7491 1.7957-4.3703 3.6511-7.7445 3.6511-1.2388 0-2.3786-.2508-3.41086-.6576-.25691-.1012-.3831-.3916-.28185-.6485s.39159-.3831.6485-.2818c.92754.3655 1.94321.5879 3.04421.5879 2.9895 0 5.3682-1.6446 7.0282-3.3489.8261-.8481 1.4609-1.6979 1.889-2.3359.2137-.3186.3752-.5832.4824-.7667l.0282-.0485c-.016-.0278-.0335-.0578-.0525-.09-.1236-.2095-.3094-.5101-.5551-.8682-.4923-.7173-1.2205-1.65947-2.1658-2.56339-.1995-.19085-.2066-.50735-.0158-.70693zm3.3614 4.22852.4437-.2305c.0751.1445.0751.3165 0 .461zm-6.5 0c0-.2761-.2239-.5-.5-.5s-.5.2239-.5.5c0 1.3807-1.1193 2.5-2.5 2.5-.2761 0-.5.2239-.5.5s.2239.5.5.5c1.933 0 3.5-1.567 3.5-3.5z" fill="currentColor" fill-rule="evenodd"/></svg>