<svg fill="none" height="24" viewBox="0 0 24 24" width="24" xmlns="http://www.w3.org/2000/svg"><path clip-rule="evenodd" d="m2 4.5c-.27614 0-.5.22386-.5.5v14c0 .2761.22386.5.5.5h20c.2761 0 .5-.2239.5-.5v-14c0-.27614-.2239-.5-.5-.5zm.5 14v-13h19v13zm7.7572-9.92875c-.1544-.09268-.34679-.0951-.50355-.00635-.15675.08875-.25365.25496-.25365.4351v6c0 .1801.0969.3463.25365.4351.15676.0888.34915.0863.50355-.0064l5-3c.1507-.0903.2428-.2531.2428-.4287s-.0921-.3384-.2428-.4287zm3.771 3.42875-3.5282 2.1169v-4.2338z" fill="currentColor" fill-rule="evenodd"/></svg>