<svg fill="none" height="24" viewBox="0 0 24 24" width="24" xmlns="http://www.w3.org/2000/svg"><path d="m22.986 9.23805c-.0555-.17439-.1901-.191-.3405-.191l-7.7753-.02491c-.1109.01661-.2217-.05813-.2375-.1744-.4197-1.37024-.8472-2.74048-1.2827-4.10241l-1.1006-3.5045c-.0396-.13287-.1029-.23253-.2296-.24083-.1901 0-.2534.11626-.293.26574-.7918 2.53287-1.5836 5.05744-2.36742 7.59031-.01583.10796-.11085.191-.2217.17439-2.58913.00831-5.18618.01661-7.77531.02491-.04751-.0166-.10293-.0166-.15044 0-.07918.03322-.15044.09135-.20586.16609-.015837.08305 0 .1744.03959.24914.03959.05813.08709.09965.14252.13287 2.09822 1.61105 4.18853 3.21385 6.28676 4.81665.08709.0498.12668.1577.08709.2491-.34838 1.1128-.68885 2.2173-1.02931 3.3301-.46716 1.528-.93431 3.056-1.40146 4.5841-.03167.0747-.03167.1661-.00792.2408.07126.1993.25337.2242.45132.0664 2.09822-1.611 4.18853-3.2138 6.27884-4.8249.0792-.083.1979-.083.2771 0 1.7974 1.3869 3.5868 2.7654 5.3921 4.144l.9422.7225c.0871.083.2217.0913.3167.0166.095-.0748.1346-.1993.095-.3156-.0079-.0415-.0237-.0747-.0317-.1163-.7997-2.6076-1.6073-5.2235-2.407-7.8311-.0475-.0914-.0158-.2076.0713-.2574 1.8053-1.3786 3.6026-2.7571 5.392-4.1357l.9027-.68925c.1187-.09965.2375-.191.1821-.3654z" stroke="currentColor" stroke-linecap="round" stroke-linejoin="round"/></svg>