<svg fill="none" height="24" viewBox="0 0 24 24" width="24" xmlns="http://www.w3.org/2000/svg"><path clip-rule="evenodd" d="m8.44 1.5h-.02301c-1.11951 0-1.99087 0-2.68945.05801-.70934.05891-1.28518.1802-1.80192.44863-.8219.42694-1.49204 1.09708-1.91898 1.91898-.26843.51674-.38972 1.09258-.44863 1.80192-.05801.69858-.05801 1.56994-.05801 2.68945v.02301 7.12.023c0 1.1195 0 1.9909.05801 2.6895.05891.7093.1802 1.2851.44863 1.8019.42694.8219 1.09708 1.492 1.91898 1.919.51674.2684 1.09258.3897 1.80192.4486.69854.058 1.56985.058 2.68927.058h.00014.02305 7.12.0231.0001c1.1194 0 1.9907 0 2.6893-.058.7093-.0589 1.2851-.1802 1.8019-.4486.8219-.427 1.492-1.0971 1.919-1.919.2684-.5168.3897-1.0926.4486-1.8019.058-.6986.058-1.5699.058-2.6893v-.0001-.0231-7.12-.02305-.00014c0-1.11942 0-1.99073-.058-2.68927-.0589-.70934-.1802-1.28518-.4486-1.80192-.427-.8219-1.0971-1.49204-1.919-1.91898-.5168-.26843-1.0926-.38972-1.8019-.44863-.6986-.05801-1.57-.05801-2.6895-.05801h-.023zm-4.05341 1.39405c.35021-.18192.77733-.28579 1.42371-.33947.65237-.05418 1.48233-.05458 2.6297-.05458h7.12c1.1474 0 1.9773.0004 2.6297.05458.6464.05368 1.0735.15755 1.4237.33947.6393.33207 1.1605.85329 1.4925 1.49254.182.35021.2858.77733.3395 1.42371.0542.65237.0546 1.48233.0546 2.6297v7.12c0 1.1474-.0004 1.9773-.0546 2.6297-.0537.6464-.1575 1.0735-.3395 1.4237-.332.6393-.8532 1.1605-1.4925 1.4925-.3502.182-.7773.2858-1.4237.3395-.6524.0542-1.4823.0546-2.6297.0546h-7.12c-1.14737 0-1.97733-.0004-2.6297-.0546-.64638-.0537-1.0735-.1575-1.42371-.3395-.63925-.332-1.16047-.8532-1.49254-1.4925-.18192-.3502-.28579-.7773-.33947-1.4237-.05418-.6524-.05458-1.4823-.05458-2.6297v-7.12c0-1.14737.0004-1.97733.05458-2.6297.05368-.64638.15755-1.0735.33947-1.42371.33207-.63925.85329-1.16047 1.49254-1.49254zm.62313 2.10595 4.21359 7-4.22331 7 7-7 7 7-4.2136-7 4.2136-7-7 7z" fill="currentColor" fill-rule="evenodd"/></svg>