<svg fill="none" height="24" viewBox="0 0 24 24" width="24" xmlns="http://www.w3.org/2000/svg"><path clip-rule="evenodd" d="m12 3.5c-1.3807 0-2.5 1.11929-2.5 2.5 0 .7991.37498 1.51002.9573 1.96731l-2.14055 4.28119-3.04128-2.2119c.14416-.31598.22453-.66724.22453-1.0366 0-1.38071-1.11929-2.5-2.5-2.5s-2.5 1.11929-2.5 2.5c0 1.3807 1.11929 2.5 2.5 2.5.02485 0 .04963-.0004.07432-.0011l1.42568 6.0591v2.442c0 .1569.07365.3047.1989.3992.12526.0945.2876.1247.43846.0816l2.60446-.7442c2.78308-.7951 5.73328-.7951 8.51638 0l2.6044.7442c.1509.0431.3132.0129.4385-.0816s.1989-.2423.1989-.3992v-2.442l1.4257-6.0591c.0247.0007.0494.0011.0743.0011 1.3807 0 2.5-1.1193 2.5-2.5 0-1.38071-1.1193-2.5-2.5-2.5s-2.5 1.11929-2.5 2.5c0 .36936.0804.72062.2245 1.0366l-3.0412 2.2119-2.1406-4.28119c.5823-.45729.9573-1.16821.9573-1.96731 0-1.38071-1.1193-2.5-2.5-2.5zm-1.5 2.5c0-.82843.6716-1.5 1.5-1.5s1.5.67157 1.5 1.5c0 .58651-.3365 1.09533-.8293 1.34221-.2468.12362-.3467.42379-.2233.67064l2.6054 5.21075c.0657.1315.186.2273.3287.2622.1428.0348.2937.005.4126-.0814l3.8824-2.8236c.1073-.078.1792-.1955.1998-.3266.0207-.1311-.0116-.26495-.0898-.37219-.1803-.24749-.2865-.55161-.2865-.88201 0-.82843.6716-1.5 1.5-1.5s1.5.67157 1.5 1.5-.6716 1.5-1.5 1.5c-.119 0-.2341-.0138-.3441-.0395-.2687-.063-.5376.1036-.6008.3723l-1.4531 6.1755-1.7496-.5384c-3.1618-.9728-6.543-.9728-9.70482 0l-1.74963.5384-1.45306-6.1755c-.06321-.2687-.33212-.4353-.60081-.3723-.11.0257-.22512.0395-.34408.0395-.82843 0-1.5-.67157-1.5-1.5s.67157-1.5 1.5-1.5 1.5.67157 1.5 1.5c0 .3304-.10624.63452-.28654.88201-.07813.10724-.11043.24109-.08979.37219s.09253.2486.19983.3266l3.88241 2.8236c.11887.0864.26975.1162.41254.0814.14279-.0349.26303-.1307.32876-.2622l2.60539-5.21075c.1234-.24685.0235-.54702-.2233-.67064-.4928-.24688-.8293-.7557-.8293-1.34221zm-5 12.0001v1.337l1.9671-.562c2.9627-.8465 6.1031-.8465 9.0658 0l1.9671.562v-1.337c-.0486 0-.0981-.0072-.147-.0222l-1.7947-.5522c-2.9701-.9139-6.1465-.9139-9.11663 0l-1.79463.5522c-.04892.015-.09839.0222-.14704.0222z" fill="currentColor" fill-rule="evenodd"/></svg>