<svg fill="none" height="24" viewBox="0 0 24 24" width="24" xmlns="http://www.w3.org/2000/svg"><path clip-rule="evenodd" d="m4.5 2c0-.27614.22386-.5.5-.5h2c.27614 0 .5.22386.5.5v1.5h.5c.27614 0 .5.22386.5.5v4c0 1.20948-.85888 2.2184-2 2.45v8.55c0 1.3807 1.11929 2.5 2.5 2.5 1.3807 0 2.5-1.1193 2.5-2.5v-14c0-1.933 1.567-3.5 3.5-3.5s3.5 1.567 3.5 3.5v8.55c1.1411.2316 2 1.2405 2 2.45v4c0 .2761-.2239.5-.5.5h-.5v1.5c0 .2761-.2239.5-.5.5h-2c-.2761 0-.5-.2239-.5-.5v-1.5h-.5c-.2761 0-.5-.2239-.5-.5v-4c0-1.2095.8589-2.2184 2-2.45v-8.55c0-1.38071-1.1193-2.5-2.5-2.5s-2.5 1.11929-2.5 2.5v14c0 1.933-1.567 3.5-3.5 3.5s-3.5-1.567-3.5-3.5v-8.55c-1.14112-.2316-2-1.24052-2-2.45v-4c0-.27614.22386-.5.5-.5h.5zm1.5 7.5c.82843 0 1.5-.67157 1.5-1.5v-3.5h-.5-2-.5v3.5c0 .82843.67157 1.5 1.5 1.5zm.5-7v1h-1v-1zm11 19v-1h1v1zm.5-7c-.8284 0-1.5.6716-1.5 1.5v3.5h.5 2 .5v-3.5c0-.8284-.6716-1.5-1.5-1.5z" fill="currentColor" fill-rule="evenodd"/></svg>