<svg fill="none" height="24" viewBox="0 0 24 24" width="24" xmlns="http://www.w3.org/2000/svg"><path clip-rule="evenodd" d="m2.5 12c0-2.47386 2.02614-4.5 4.5-4.5h3.125c.2761 0 .5-.22386.5-.5s-.2239-.5-.5-.5h-3.125c-3.02614 0-5.5 2.47386-5.5 5.5 0 3.0261 2.47386 5.5 5.5 5.5h3.125c.2761 0 .5-.2239.5-.5s-.2239-.5-.5-.5h-3.125c-2.47386 0-4.5-2.0261-4.5-4.5zm11.375-5.5c-.2761 0-.5.22386-.5.5s.2239.5.5.5h3.125c2.4739 0 4.5 2.02614 4.5 4.5 0 2.4739-2.0261 4.5-4.5 4.5h-3.125c-.2761 0-.5.2239-.5.5s.2239.5.5.5h3.125c3.0261 0 5.5-2.4739 5.5-5.5 0-3.02614-2.4739-5.5-5.5-5.5zm-6.875 5c-.27614 0-.5.2239-.5.5s.22386.5.5.5h10c.2761 0 .5-.2239.5-.5s-.2239-.5-.5-.5z" fill="currentColor" fill-rule="evenodd"/></svg>