<svg fill="none" height="24" viewBox="0 0 24 24" width="24" xmlns="http://www.w3.org/2000/svg"><path clip-rule="evenodd" d="m13.193 3.61212c-.3346-.06349-.7776-.11178-1.3314-.11205-1.133-.00607-2.2316.39157-3.05242 1.1194-.82288.72966-1.30143 1.73523-1.30917 2.79976h-.00001v.00364 2.07713h-.75c-1.21937 0-2.25.9473-2.25 2.1667v6.6666c0 1.2194 1.03063 2.1667 2.25 2.1667h10.5c1.2194 0 2.25-.9473 2.25-2.1667v-6.6666c0-1.2194-1.0306-2.1667-2.25-2.1667h-.75v-2.07713h.0001l-.0002-.01155c-.0179-.77536-.2809-1.52521-.7512-2.1622-.465-.62978-1.1124-1.1225-1.8631-1.42872-.1527-.07676-.391-.15104-.6926-.20828zm2.307 5.88788v-2.07113c-.0141-.55987-.2043-1.1097-.5558-1.58579-.3532-.47837-.8558-.86366-1.4546-1.10414l-.0276-.01111-.0262-.0143c.0003.00012.0003.00012 0 0-.0014-.00069-.0102-.0051-.0285-.01245-.0207-.00828-.0495-.0187-.0871-.03045-.0751-.02354-.1793-.05055-.3137-.07604-.2684-.05095-.6493-.09434-1.1466-.09452l-.0026-.00001c-.9009-.00508-1.758.31199-2.38466.86763-.6244.55366-.96659 1.29502-.97264 2.05707v2.07524zm-8 1h-.75c-.71362 0-1.25.545-1.25 1.1667v6.6666c0 .6217.53638 1.1667 1.25 1.1667h10.5c.7136 0 1.25-.545 1.25-1.1667v-6.6666c0-.6217-.5364-1.1667-1.25-1.1667h-.75-.5-8z" fill="currentColor" fill-rule="evenodd"/></svg>