<svg fill="none" height="24" viewBox="0 0 24 24" width="24" xmlns="http://www.w3.org/2000/svg"><path clip-rule="evenodd" d="m5.5 3c0-1.38071 1.11929-2.5 2.5-2.5h2 4 2c1.3807 0 2.5 1.11929 2.5 2.5v18c0 1.3807-1.1193 2.5-2.5 2.5h-8c-1.38071 0-2.5-1.1193-2.5-2.5zm2.5-1.5h1.5v.5c0 .82843.6716 1.5 1.5 1.5h2c.8284 0 1.5-.67157 1.5-1.5v-.5h1.5c.8284 0 1.5.67157 1.5 1.5v18c0 .8284-.6716 1.5-1.5 1.5h-8c-.82843 0-1.5-.6716-1.5-1.5v-18c0-.82843.67157-1.5 1.5-1.5zm2.5 0h3v.5c0 .27614-.2239.5-.5.5h-2c-.2761 0-.5-.22386-.5-.5zm1 18.5c0-.2761.2239-.5.5-.5s.5.2239.5.5-.2239.5-.5.5-.5-.2239-.5-.5zm.5-1.5c-.8284 0-1.5.6716-1.5 1.5s.6716 1.5 1.5 1.5 1.5-.6716 1.5-1.5-.6716-1.5-1.5-1.5z" fill="currentColor" fill-rule="evenodd"/></svg>