<svg width="24" height="24" viewBox="0 0 24 24" fill="none" xmlns="http://www.w3.org/2000/svg">
<g >
<path d="M11.1911 11.3129C11.1452 11.2507 10.9087 10.8409 10.8098 10.7145C10.711 10.5881 10.5999 10.4577 10.4786 10.3231C10.3573 10.1886 10.2349 10.0581 10.1126 9.9368C9.99029 9.8155 9.8904 9.71866 9.80681 9.64629C9.60761 9.47699 9.37835 9.34663 9.131 9.262C8.88563 9.1893 8.63051 9.15492 8.37465 9.16007H3.72243V6.05824H10.5295V5.1123H2.74897V10.107H8.30024C8.40879 10.108 8.51713 10.1168 8.62439 10.1335C8.73806 10.1503 8.84782 10.1873 8.94854 10.2426C9.07885 10.3236 9.20319 10.4139 9.32059 10.5127C9.45414 10.6242 9.58077 10.7437 9.69979 10.8705C9.82018 10.9997 9.93284 11.1358 10.0372 11.2782C10.1346 11.4115 10.2225 11.5515 10.3002 11.6972C10.3457 11.7956 10.3756 11.9005 10.3889 12.0081C10.4021 12.1161 10.4092 12.8796 10.4092 12.9785V13.8164C10.409 13.9159 10.4022 14.0154 10.3889 14.114C10.377 14.2089 10.3469 14.3007 10.3002 14.3841C10.2217 14.5313 10.1338 14.6733 10.0372 14.8092C9.93241 14.9594 9.81979 15.104 9.69979 15.2424C9.58118 15.3783 9.45456 15.507 9.32059 15.6277C9.20788 15.7324 9.08296 15.8231 8.94854 15.8978C8.84777 15.9529 8.738 15.9894 8.62439 16.0059C8.51721 16.0234 8.40884 16.0326 8.30024 16.0334H5.37171C5.28776 16.0323 5.20398 16.0255 5.12095 16.013C5.02857 15.9999 4.93942 15.9699 4.85796 15.9243C4.67947 15.8233 4.51382 15.7012 4.36461 15.5604C4.19568 15.4049 4.03541 15.2402 3.8845 15.0671C3.73874 14.8979 3.59807 14.7215 3.46454 14.5319H2.29639C2.35653 14.6339 2.42278 14.7358 2.4921 14.8377C2.645 15.0681 2.81013 15.2913 2.98545 15.5074C3.1587 15.7215 3.34383 15.9257 3.53997 16.119C3.71174 16.2895 3.89948 16.4431 4.1006 16.5777C4.2864 16.6885 4.48108 16.7836 4.68264 16.8621C4.88488 16.9419 5.10028 16.9831 5.31768 16.9834H8.32267C8.58352 16.9837 8.84293 16.9449 9.09226 16.8683C9.33383 16.7986 9.55907 16.6815 9.75483 16.5237C9.864 16.4355 9.96782 16.3409 10.0657 16.2403L10.4582 15.8326C10.5846 15.6889 10.6987 15.5513 10.8027 15.4249C10.8824 15.3269 10.9569 15.2248 11.0259 15.1191C11.1497 14.9355 11.2411 14.7321 11.2961 14.5177C11.3508 14.2987 11.3778 14.0737 11.3766 13.848V12.898C11.3766 12.4331 11.4255 11.6748 11.1911 11.3129Z" fill="currentColor"/>
<path d="M20.6651 12.1048C20.5554 11.8987 20.4289 11.702 20.2869 11.5167C20.1334 11.3128 19.9733 11.1167 19.8068 10.9285C19.6505 10.7487 19.4833 10.5785 19.3064 10.4188C19.1668 10.2899 19.0152 10.1745 18.8538 10.0743C18.772 10.0288 18.6825 9.99872 18.5898 9.98562C18.5071 9.97309 18.4236 9.96628 18.34 9.96523H15.5705C15.4108 9.96466 15.2532 10.002 15.1108 10.0743C14.9544 10.1666 14.8051 10.2705 14.6643 10.3852C14.4818 10.5303 14.3079 10.6858 14.1434 10.851C13.9681 11.0264 13.8009 11.2098 13.644 11.3984C13.5013 11.5653 13.3766 11.7467 13.2719 11.9397C13.2216 12.0258 13.1939 12.1233 13.1914 12.2231V16.3666C13.1914 16.4472 13.1914 16.5287 13.1975 16.6103C13.2038 16.6957 13.2292 16.7786 13.2719 16.8529C13.3766 17.0458 13.5013 17.2272 13.644 17.3941C13.8009 17.5827 13.9681 17.7652 14.1434 17.9415C14.3188 18.1178 14.4931 18.2748 14.6643 18.4145C14.8015 18.5324 14.9513 18.6349 15.1108 18.7203C15.1881 18.7644 15.2727 18.7945 15.3605 18.8089C15.4387 18.8218 15.5178 18.8286 15.597 18.8293H18.3135C18.4819 18.8317 18.6485 18.7943 18.7997 18.7203C18.9513 18.6351 19.0958 18.538 19.2319 18.4298C19.4095 18.2924 19.5796 18.1458 19.7416 17.9904C19.9129 17.8293 20.0756 17.6592 20.2288 17.4808C20.373 17.314 20.4997 17.133 20.607 16.9405C20.6514 16.8608 20.6811 16.7738 20.6947 16.6836C20.7077 16.5986 20.7145 16.5128 20.7151 16.4268V14.7653H16.7723V13.8152H21.6926V15.0486L21.711 16.6001C21.7149 16.8469 21.6395 17.0884 21.4959 17.2891L20.9342 18.073C20.6881 18.3894 20.4119 18.6813 20.1096 18.9445C19.8578 19.1565 19.6815 19.2982 19.5826 19.3706C19.2437 19.6374 18.8243 19.7811 18.393 19.7783H15.4614C15.252 19.7732 15.0451 19.7319 14.8498 19.656C14.637 19.5821 14.4322 19.4872 14.2382 19.3726C14.0892 19.2773 13.9508 19.1662 13.8254 19.0414C13.6593 18.8844 13.488 18.7121 13.3157 18.5317C13.1435 18.3513 12.9783 18.1668 12.8295 17.9914C12.7123 17.8581 12.606 17.7157 12.5115 17.5654C12.4023 17.4006 12.3246 17.2171 12.2821 17.0241C12.2366 16.82 12.214 16.6114 12.2149 16.4023V12.4565C12.2146 12.2427 12.2371 12.0294 12.2821 11.8204C12.323 11.6231 12.4008 11.4353 12.5115 11.2669C12.6075 11.1136 12.7163 10.9687 12.8367 10.8337L13.3463 10.2935C13.5176 10.1134 13.6909 9.94349 13.8662 9.78379C13.9997 9.65658 14.142 9.53905 14.2923 9.43212C14.4641 9.31038 14.6504 9.2104 14.8468 9.13448C15.0423 9.0613 15.2496 9.02468 15.4584 9.02643H18.4144C18.6226 9.031 18.8289 9.06743 19.026 9.13448C19.2438 9.20218 19.45 9.30254 19.6376 9.43212C19.8456 9.58446 20.0421 9.75173 20.2258 9.93261C20.4212 10.1245 20.6041 10.3288 20.7732 10.5442C20.9444 10.761 21.1021 10.9774 21.2461 11.1935C21.3909 11.4096 21.5214 11.6176 21.6386 11.8153L20.6651 12.1048Z" fill="currentColor"/>
<path d="M13.3657 23.0928V23.0928L12.3892 23.0571C12.3883 22.848 12.4109 22.6394 12.4565 22.4353C12.4989 22.2423 12.5766 22.0588 12.6858 21.894C12.7803 21.7437 12.8866 21.6013 13.0038 21.468C13.1527 21.2926 13.3178 21.1081 13.4901 20.9277C13.6623 20.7473 13.8336 20.575 13.9997 20.4181C14.1251 20.2932 14.2635 20.1821 14.4126 20.0868C14.6065 19.9722 14.8114 19.8773 15.0242 19.8034C15.2194 19.7275 15.4263 19.6862 15.6358 19.6811H18.5673C18.9986 19.6783 19.418 19.822 19.7569 20.0888C19.8558 20.1612 20.0321 20.3029 20.2839 20.5149C20.5862 20.7781 20.8624 21.07 21.1085 21.3864L21.6702 22.1703C21.8139 22.371 21.9209 22.7858 21.9169 23.0326H20.8894C20.8889 22.9466 20.882 22.8608 20.869 22.7758C20.8554 22.6856 20.8257 22.5986 20.7813 22.5189C20.674 22.3264 20.5473 22.1454 20.4032 21.9786C20.2499 21.8002 20.0872 21.6301 19.9159 21.469C19.7539 21.3136 19.5838 21.167 19.4063 21.0297C19.2702 20.9215 19.1256 20.8243 18.9741 20.7391C18.8228 20.6651 18.6562 20.6277 18.4878 20.6301H15.7713C15.6921 20.6308 15.613 20.6377 15.5348 20.6505C15.447 20.6649 15.3624 20.695 15.2851 20.7391C15.1256 20.8245 14.9759 20.927 14.8386 21.0449C14.6674 21.1846 14.4931 21.3416 14.3178 21.5179C14.1424 21.6943 13.9753 21.8767 13.8183 22.0653C13.6756 22.2322 13.5509 22.4136 13.4462 22.6066C13.4035 22.6808 13.3781 22.7637 13.3718 22.8492C13.3657 22.9307 13.3657 23.0122 13.3657 23.0928Z" fill="url(#paint0_linear)"/>
<path d="M3.25438 20.3701V20.3701L2.27786 20.3344C2.277 20.1253 2.29957 19.9168 2.34513 19.7126C2.38755 19.5196 2.46531 19.3361 2.57448 19.1714C2.66894 19.0211 2.77529 18.8786 2.89251 18.7453C3.04133 18.57 3.20647 18.3855 3.37873 18.2051C3.551 18.0246 3.72225 17.8524 3.8884 17.6954C4.01379 17.5706 4.15219 17.4595 4.30123 17.3641C4.49515 17.2495 4.70003 17.1546 4.91283 17.0807C5.10808 17.0049 5.31502 16.9635 5.52442 16.9584H8.45602C8.88729 16.9556 9.30671 17.0994 9.64558 17.3662C9.74445 17.4385 9.9208 17.5802 10.1726 17.7922C10.4749 18.0555 10.7511 18.3473 10.9972 18.6638L11.5589 19.4476C11.7025 19.6483 11.8096 20.0632 11.8056 20.31H10.7781C10.7775 20.224 10.7707 20.1381 10.7577 20.0531C10.7441 19.9629 10.7144 19.8759 10.67 19.7962C10.5627 19.6037 10.436 19.4227 10.2918 19.256C10.1386 19.0776 9.97592 18.9075 9.80459 18.7463C9.6426 18.591 9.47247 18.4443 9.29493 18.307C9.15883 18.1988 9.01431 18.1016 8.86273 18.0165C8.71147 17.9425 8.5449 17.9051 8.37651 17.9074H5.65999C5.58076 17.9082 5.50171 17.915 5.42351 17.9278C5.33566 17.9423 5.25109 17.9723 5.17377 18.0165C5.01424 18.1018 4.86453 18.2044 4.72731 18.3223C4.55606 18.4619 4.38176 18.6189 4.20643 18.7953C4.03111 18.9716 3.86394 19.1541 3.70696 19.3426C3.5643 19.5095 3.4396 19.6909 3.3349 19.8839C3.29221 19.9582 3.26678 20.0411 3.26049 20.1265C3.25438 20.208 3.25438 20.2896 3.25438 20.3701Z" fill="url(#paint1_linear)"/>
</g>
<defs>
<linearGradient id="paint0_linear" x1="16.8614" y1="19.6809" x2="16.8614" y2="22.4031" gradientUnits="userSpaceOnUse">
<stop stop-color="currentColor" stop-opacity="0.08" offset="0"/>
<stop offset="1" stop-color="currentColor" stop-opacity="0"/>
</linearGradient>
<linearGradient id="paint1_linear" x1="6.75005" y1="16.9582" x2="6.75005" y2="19.6804" gradientUnits="userSpaceOnUse">
<stop stop-color="currentColor" stop-opacity="0.08" offset="0"/>
<stop offset="1" stop-color="currentColor" stop-opacity="0" />
</linearGradient>
</defs>
</svg>
