<svg fill="none" height="24" viewBox="0 0 24 24" width="24" xmlns="http://www.w3.org/2000/svg"><path clip-rule="evenodd" d="m10.6902 4.76187c0-.4007.0825-.86602.2906-1.21297.1898-.31631.487-.5489 1.0189-.5489.5318 0 .829.23259 1.0188.5489.2082.34695.2907.81227.2907 1.21297 0 .24883.1829.45979.4293.49498.9422.1346 2.0734.64381 2.9699 1.69543.8916 1.04593 1.5769 2.65956 1.5769 5.04762v3.619c0 1.0089.2288 1.953.6753 2.6623.0475.0754.0976.1485.1505.2188h-.0302-.0321-.0324-.0325-.0327-.0329-.0331-.0333-.0335-.0337-.0339-.0341-.0343-.0345-.0346-.0349-.035-.0352-.0354-.0356-.0357-.036-.0361-.0363-.0364-.0367-.0368-.037-.0371-.0374-.0375-.0376-.0379-.0379-.0382-.0383-.0385-.0386-.0388-.039-.0391-.0392-.0395-.0395-.0397-.0399-.04-.0402-.0403-.0404-.0406-.0408-.0409-.041-.0411-.0413-.0414-.0416-.0417-.0418-.042-.0421-.0422-.0423-.0425-.0426-.0427-.0429-.0429-.0431-.0432-.0433-.0434-.0436-.0436-.0438-.0439-.044-.0441-.0442-.0443-.0444-.0445-.0447-.0447-.0448-.0449-.0451-.0451-.0452-.0453-.0454-.0455-.0455-.0457-.0457-.0459-.0459-.046-.0461-.0462-.0462-.0463-.0464-.0465-.0466-.0466-.0467-.0468-.0468-.0469-.047-.047-.0471-.0472-.0473-.0472-.0474-.0474-.0475-.0475-.0476-.0476-.0477-.0477-.0478-.0479-.0478-.048-.0479-.0481-.048-.0481-.0482-.0481-.0483-.0482-.0483-.0483-.0484-.0484-.0484-.0484-.0485-.0485-.0485-.0485-.0486-.0486-.0486-.0486-.0487-.0486-.0487-.0487-.0487-.0487-.0488-.0487-.0487-.0488-.0487-.0488-.0487-.0488-.0487-.0488-.0488-.0487-.0488-.0487-.0487-.0487-.0488-.0487-.0487-.0486-.0487-.0486-.0487-.0486-.0486-.0485-.0486-.0485-.0485-.0485-.0484-.0484-.0484-.0484-.0483-.0483-.0482-.0482-.0482-.0482-.0481-.048-.048-.048-.0479-.0479-.0478-.0478-.0478-.04766-.04763-.04758-.04753-.04747-.04741-.04735-.0473-.04723-.04717-.04711-.04704-.04697-.04691-.04684-.04677-.0467-.04663-.04655-.04648-.04641-.04632-.04625-.04617-.04609-.046-.04592-.04584-.04575-.04566-.04558-.04548-.0454-.0453-.04521-.04511-.04502-.04492-.04483-.04472-.04462-.04452-.04442-.04431-.04421-.0441-.04399-.04388-.04377-.04366-.04354-.04344-.04331-.0432-.04308-.04296-.04284-.04271-.0426-.04247-.04234-.04222-.04209-.04195-.04183-.0417-.04156-.04143-.04129-.04116-.04101-.04088-.04074-.04059-.04046-.0403-.04017-.04001-.03987-.03971-.03957-.03942-.03926-.0391-.03896-.03879-.03864-.03847-.03832-.03815-.038-.03782-.03766-.0375-.03732-.03716-.03699-.03681-.03664-.03647-.03629-.03612-.03593-.03576-.03558-.03539-.03521-.03503-.03484-.03466-.03446-.03428-.03409-.03389-.03371-.03351-.03331-.03311-.03292-.03272-.03252-.03231-.03212-.00317c.50032-.659.79809-1.6199.79809-2.8811v-3.619c0-4.29079 2.55122-6.34315 4.57414-6.74774.2337-.04674.402-.25195.402-.49029zm9.1167 12.98663c.3161.5022.7264.7515 1.1931.7515.2761 0 .5.2239.5.5s-.2239.5-.5.5h-.0081-.0084-.0088-.009-.0094-.0097-.01-.0103-.0106-.011-.0112-.0115-.0119-.0121-.0124-.0128-.013-.0134-.0136-.0139-.0143-.0145-.0148-.0151-.0154-.0157-.0159-.0163-.0165-.0168-.0171-.0174-.0176-.018-.0182-.0185-.0187-.0191-.0193-.0195-.0199-.0201-.0204-.0206-.0209-.0212-.0214-.0217-.0219-.0223-.0224-.0227-.023-.0232-.0235-.0237-.024-.0242-.0245-.0247-.025-.0252-.0254-.0257-.0259-.0262-.0264-.0266-.0269-.0271-.0273-.0276-.0278-.028-.0283-.0284-.0287-.029-.0291-.0294-.0295-.0298-.03-.0303-.0304-.0307-.0308-.0311-.0313-.0315-.0317-.0319-.0321-.0324-.0325-.0327-.0329-.0331-.0333-.0335-.0337-.0339-.0341-.0343-.0345-.0346-.0349-.035-.0352-.0354-.0356-.0357-.036-.0361-.0363-.0364-.0367-.0368-.037-.0371-.0374-.0375-.0376-.0379-.0379-.0382-.0383-.0385-.0386-.0388-.039-.0391-.0392-.0395-.0395-.0397-.0399-.04-.0402-.0403-.0404-.0406-.0408-.0409-.041-.0411-.0413-.0414-.0416-.0417-.0418-.042-.0421-.0422-.0423-.0425-.0426-.0427-.0429-.0429-.0431-.0432-.0433-.0434-.0436-.0436-.0438-.0439-.044-.0441-.0442-.0443-.0444-.0445-.0447-.0447-.0448-.0449-.0451-.0451-.0452-.0453-.0454-.014c-.2427 1.6961-1.7014 3-3.4646 3s-3.22194-1.3039-3.46456-3h-.01404-.0454-.0453-.04521-.04511-.04502-.04492-.04483-.04472-.04462-.04452-.04442-.04431-.04421-.0441-.04399-.04388-.04377-.04366-.04354-.04344-.04331-.0432-.04308-.04296-.04284-.04271-.0426-.04247-.04234-.04222-.04209-.04195-.04183-.0417-.04156-.04143-.04129-.04116-.04101-.04088-.04074-.04059-.04046-.0403-.04017-.04001-.03987-.03971-.03957-.03942-.03926-.0391-.03896-.03879-.03864-.03847-.03832-.03815-.038-.03782-.03766-.0375-.03732-.03716-.03699-.03681-.03664-.03647-.03629-.03612-.03593-.03576-.03558-.03539-.03521-.03503-.03484-.03466-.03446-.03428-.03409-.03389-.03371-.03351-.03331-.03311-.03292-.03272-.03252-.03231-.03212-.03191-.0317-.0315-.03129-.03108-.03087-.03065-.03045-.03023-.03001-.0298-.02958-.02936-.02915-.02891-.0287-.02847-.02825-.02802-.02779-.02756-.02734-.0271-.02687-.02663-.0264-.02616-.02593-.02568-.02545-.0252-.02496-.02472-.02447-.02422-.02398-.02373-.02347-.02323-.02297-.02272-.02246-.02221-.02195-.02169-.02143-.02117-.0209-.02065-.02037-.02011-.01984-.01958-.0193-.01903-.01876-.01849-.01821-.01793-.01765-.01738-.0171-.01681-.01653-.01625-.01597-.01567-.01539-.0151-.01481-.01452-.01423-.01393-.01363-.01334-.01305-.01274-.01245-.01214-.01184-.01153-.01124-.01092-.01062-.0103-.01-.00969-.00937-.00906-.00875-.00843-.00811c-.27614 0-.5-.2239-.5-.5s.22386-.5.5-.5c.37996 0 .78912-.1716 1.11664-.6009.3327-.4361.59742-1.164.59742-2.2802v-3.619c0-4.51625 2.59365-6.97239 4.99624-7.63729.04298-.42721.16107-.90826.413-1.3282.3531-.58844.9606-1.03441 1.8764-1.03441.9157 0 1.5233.44597 1.8763 1.03441.248.41325.3663.88568.4109 1.30774 1.0679.24189 2.2401.85595 3.1825 1.9614 1.0687 1.25365 1.8159 3.10822 1.8159 5.69635v3.619c0 .8722.2 1.6186.5216 2.1296zm-10.25689 1.7515c.23163 1.1411 1.24049 2 2.44999 2s2.2184-.8589 2.45-2h-.038-.0473-.0472-.0474-.0474-.0475-.0475-.0476-.0476-.0477-.0477-.0478-.0479-.0478-.048-.0479-.0481-.048-.0481-.0482-.0481-.0483-.0482-.0483-.0483-.0484-.0484-.0484-.0484-.0485-.0485-.0485-.0485-.0486-.0486-.0486-.0486-.0487-.0486-.0487-.0487-.0487-.0487-.0488-.0487-.0487-.0488-.0487-.0488-.0487-.0488-.0487-.0488-.0488-.0487-.0488-.0487-.0487-.0487-.0488-.0487-.0487-.0486-.0487-.0486-.0487-.0486-.0486-.0485-.0486-.0485-.0485-.0485-.0484-.0484-.0484-.0484-.0483-.0483-.0482-.0482-.0482-.0482-.0481-.048-.048-.048-.0479-.0479-.0478-.0478-.0478-.04766-.04763-.04758-.04753-.04747-.04741-.04735-.0473-.04723z" fill="currentColor" fill-rule="evenodd"/></svg>