<svg fill="none" height="24" viewBox="0 0 24 24" width="24" xmlns="http://www.w3.org/2000/svg"><path clip-rule="evenodd" d="m2.5 3c0-.27614.22386-.5.5-.5h7c.2761 0 .5.22386.5.5s-.2239.5-.5.5h-6.5v17h6.5c.2761 0 .5.2239.5.5s-.2239.5-.5.5h-7c-.27614 0-.5-.2239-.5-.5zm18.8536 9.3536-6 6c-.1953.1952-.5119.1952-.7072 0-.1952-.1953-.1952-.5119 0-.7072l5.1465-5.1464h-11.7929c-.27614 0-.5-.2239-.5-.5s.22386-.5.5-.5h11.7929l-5.1465-5.14645c-.1952-.19526-.1952-.51184 0-.7071.1953-.19527.5119-.19527.7072 0l5.9999 5.99995h.0001c.0479.048.0841.1032.1085.1622s.0379.1236.0379.1914-.0135.1324-.0379.1914-.0606.1142-.1085.1622z" fill="currentColor" fill-rule="evenodd"/></svg>