<svg fill="none" height="24" viewBox="0 0 24 24" width="24" xmlns="http://www.w3.org/2000/svg"><path clip-rule="evenodd" d="m5 9c0-3.86599 3.13401-7 7-7 3.866 0 7 3.13401 7 7 0 1.924-.9352 4.0734-2.3579 6.2826-1.3145 2.0413-3.0062 4.0756-4.6421 5.9568-1.6359-1.8812-3.32759-3.9155-4.64212-5.9568-1.42267-2.2092-2.35788-4.3586-2.35788-6.2826zm7-8c-4.41828 0-8 3.58172-8 8 0 2.2181 1.06479 4.5687 2.51712 6.824 1.45936 2.2662 3.3563 4.5049 5.10658 6.5053.095.1085.2321.1707.3763.1707s.2813-.0622.3763-.1707c1.7503-2.0004 3.6472-4.2391 5.1066-6.5053 1.4523-2.2553 2.5171-4.6059 2.5171-6.824 0-4.41828-3.5817-8-8-8zm-2 8c0-1.10457.8954-2 2-2s2 .89543 2 2c0 1.1046-.8954 2-2 2s-2-.8954-2-2zm2-3c-1.6569 0-3 1.34315-3 3 0 1.6569 1.3431 3 3 3s3-1.3431 3-3c0-1.65685-1.3431-3-3-3z" fill="currentColor" fill-rule="evenodd"/></svg>