<svg fill="none" height="24" viewBox="0 0 24 24" width="24" xmlns="http://www.w3.org/2000/svg"><path clip-rule="evenodd" d="m6.5 4c0-.27614.22386-.5.5-.5h10c.2761 0 .5.22386.5.5v6.5h4.5c.2761 0 .5.2239.5.5v8c0 .2761-.2239.5-.5.5h-2.5v1.5c0 .2761-.2239.5-.5.5h-14c-.27614 0-.5-.2239-.5-.5v-1.5h-2.5c-.27614 0-.5-.2239-.5-.5v-8c0-.2761.22386-.5.5-.5h4.5zm-1 15v1.5h13v-1.5-1.5h-13zm14-.5v-1.5c0-.2761-.2239-.5-.5-.5h-14c-.27614 0-.5.2239-.5.5v1.5h-2v-7h4.5 10 4.5v7zm-3-14v6h-9v-6z" fill="currentColor" fill-rule="evenodd"/></svg>