<svg fill="none" height="24" viewBox="0 0 24 24" width="24" xmlns="http://www.w3.org/2000/svg"><path clip-rule="evenodd" d="m12 2.96512c-4.98986 0-9.03491 4.04505-9.03491 9.03488 0 3.3514 1.82475 6.2766 4.53491 7.8363v-3.8363c0-1.7992 1.05594-3.3518 2.5819-4.0719-.95275-.6254-1.5819-1.7033-1.5819-2.9281 0-1.933 1.567-3.5 3.5-3.5s3.5 1.567 3.5 3.5c0 1.2248-.6292 2.3027-1.5819 2.9281 1.526.7201 2.5819 2.2727 2.5819 4.0719v3.8362c2.7101-1.5597 4.5349-4.4848 4.5349-7.8362 0-4.98983-4.0451-9.03488-9.0349-9.03488zm3.5 17.36678v-4.3319c0-1.933-1.567-3.5-3.5-3.5s-3.5 1.567-3.5 3.5v4.332c1.07642.4527 2.259.7029 3.5.7029s2.4236-.2502 3.5-.703zm-3.5-8.8319c1.3807 0 2.5-1.1193 2.5-2.5 0-1.38071-1.1193-2.5-2.5-2.5s-2.5 1.11929-2.5 2.5c0 1.3807 1.1193 2.5 2.5 2.5zm-10.03491.5c0-5.54211 4.49277-10.03488 10.03491-10.03488 5.5421 0 10.0349 4.49277 10.0349 10.03488 0 5.5421-4.4928 10.0349-10.0349 10.0349-5.54214 0-10.03491-4.4928-10.03491-10.0349z" fill="currentColor" fill-rule="evenodd"/></svg>