<svg fill="none" height="24" viewBox="0 0 24 24" width="24" xmlns="http://www.w3.org/2000/svg"><path clip-rule="evenodd" d="m18 12c0 3.3137-2.6863 6-6 6-3.31371 0-6-2.6863-6-6 0-3.31371 2.68629-6 6-6 3.3137 0 6 2.68629 6 6zm1 0c0 3.866-3.134 7-7 7-3.86599 0-7-3.134-7-7 0-3.86599 3.13401-7 7-7 3.866 0 7 3.13401 7 7zm-5.9907.1341c.4955-.455 1.0382-.9532 1.0382-1.7616 0-1.04999-.7875-1.74999-1.925-1.74999-1.3125 0-2.1.87499-2.1 2.01249h.7875c0-.7.4375-1.22502 1.225-1.22502.7 0 1.225.35001 1.225 1.05002 0 .5392-.413.9015-.8474 1.2826-.4819.4227-.9901.8686-.9901 1.6049v.175h.7875v-.175c0-.4794.383-.8311.7993-1.2134zm-1.2368 3.4884c.35 0 .7-.2625.7-.7 0-.35-.2625-.7-.7-.7-.35 0-.7.2625-.7.7s.35.7.7.7z" fill="currentColor" fill-rule="evenodd"/></svg>