<svg fill="none" height="24" viewBox="0 0 24 24" width="24" xmlns="http://www.w3.org/2000/svg"><path clip-rule="evenodd" d="m13.7802 2.49999-.0031.00002-5.73348.03496c-1.21367-.03774-2.29715.63615-2.83519 1.71224l-.0005.001-3.11623 6.26749-.00028.0005c-.44965.8998-.45824 1.9344-.00746 2.8132l2.51247 6.2463.00466.0116.00524.0113c.49964 1.0826 1.61449 1.8246 2.81807 1.8661l.00862.0003h.00861 5.60307c.0836 0 .1653-.0033.2451-.0097v.0447c.5012 0 1.5261-.18 2.5502-.4057 1.0405-.2293 2.159-.5235 2.8716-.7793l.0085-.0031.0083-.0033c.4917-.1967.8223-.5836 1.0054-1.0278l2.7925-5.5502.0006-.0012c.4539-.9077.4587-1.9529-.0043-2.8369l.0001-.0001-.0065-.0116-2.3415-4.19384c-.0945-.18372-.2449-.35602-.3995-.50783-.1642-.16126-.364-.32894-.582-.49742-.436-.33698-.9755-.70066-1.516-1.05222-.2713-.17645-.5455-.35156-.8095-.52l-.038-.02423-.0001-.00004c-.251-.16014-.4918-.31375-.7143-.4583-.2977-.1934-.5496-.36235-.7424-.50197-.0519-.05378-.1062-.10491-.1634-.15299-.3823-.32162-.8447-.47196-1.4293-.47197zm.6581 1.14645-.008.00907c.0764.06725.1688.14058.2735.21859.1407.16134.2796.38836.4484.712l2.9366 6.3627.0053.0114.0058.0111c.3061.5845.3122 1.2869-.0004 1.918l-3.4974 6.4001-.0044.008-.0041.0082c-.2108.4217-.4231.7059-.6581.8862-.2234.1714-.4988.2732-.8908.2732h-5.594c-.82048-.0315-1.5892-.5444-1.93143-1.2747l-2.51648-6.2563-.00934-.0232-.01162-.0222c-.3074-.5868-.31224-1.2926.00429-1.9257l.0005-.001 3.11624-6.26747.00022-.00045c.37097-.74153 1.10363-1.18729 1.91665-1.15926l.01014.00035.01014-.00006 5.74019-.03501h.0014c.3033.00018.5035.05609.6567.14644zm2.0231 1.3901c.2222.14183.4476.28624.6706.43124.5363.34883 1.0474.69429 1.4497 1.00517.2011.15545.3673.29639.4929.41966.1319.12952.1918.21361.2116.25317l.0051.01019.0055.00995 2.3429 4.19618c.3044.5856.3083 1.2887-.007 1.9196l-.0002.0005-2.801 5.567-.0097.0191-.0079.0199c-.0977.2443-.2522.4075-.4495.4889-.654.2338-1.7189.5157-2.7396.7406-.1315.029-.2609.0567-.3876.0831.0884-.1397.1701-.287.2467-.4397l3.4977-6.4007.0043-.008.0041-.0082c.4519-.9038.4587-1.9438.0018-2.8253z" fill="currentColor" fill-rule="evenodd"/></svg>