<svg fill="none" height="24" viewBox="0 0 24 24" width="24" xmlns="http://www.w3.org/2000/svg"><path clip-rule="evenodd" d="m3.50122 10.2003c0-3.69974 2.99925-6.69899 6.69898-6.69899 3.6998 0 6.6991 2.99925 6.6991 6.69899 0 3.6998-2.9993 6.699-6.6991 6.699-3.69973 0-6.69898-2.9992-6.69898-6.699zm6.69898-7.69899c-4.25201 0-7.69898 3.44697-7.69898 7.69899 0 4.2521 3.44697 7.699 7.69898 7.699 1.9613 0 3.7512-.7333 5.1107-1.9407l5.3323 5.3918c.1942.1964.5107.1981.7071.0039.1963-.1941.1981-.5107.0039-.7071l-5.3401-5.3996c1.1743-1.3515 1.8852-3.1163 1.8852-5.0473 0-4.25202-3.447-7.69899-7.6991-7.69899z" fill="currentColor" fill-rule="evenodd"/></svg>