<svg fill="none" height="24" viewBox="0 0 24 24" width="24" xmlns="http://www.w3.org/2000/svg"><path clip-rule="evenodd" d="m2.5 10c0-4.14214 3.35786-7.5 7.5-7.5 4.1421 0 7.5 3.35786 7.5 7.5 0 4.1421-3.3579 7.5-7.5 7.5-4.14214 0-7.5-3.3579-7.5-7.5zm7.5-8.5c-4.69442 0-8.5 3.80558-8.5 8.5 0 4.6944 3.80558 8.5 8.5 8.5 2.1842 0 4.176-.8239 5.6816-2.1778l5.9629 6.0294c.1941.1963.5107.1981.7071.0039.1963-.1942.1981-.5107.0039-.7071l-5.9706-6.0372c1.3166-1.497 2.1151-3.4609 2.1151-5.6112 0-4.69442-3.8056-8.5-8.5-8.5z" fill="currentColor" fill-rule="evenodd"/></svg>