<svg fill="none" height="24" viewBox="0 0 24 24" width="24" xmlns="http://www.w3.org/2000/svg"><path clip-rule="evenodd" d="m12.4484 1.77869c-.0843-.17065-.2581-.27869-.4484-.27869s-.3641.10804-.4483.27869l-2.97382 6.02454-6.65018.97203c-.18828.02752-.34462.15952-.40331.34052-.05869.18101-.00955.37963.12676.5124l4.8116 4.68652-1.13554 6.6208c-.03217.1876.04495.3772.19894.489.15399.1119.35813.1266.52659.038l5.94726-3.1276 5.9473 3.1276c.1684.0886.3726.0739.5266-.038.154-.1118.2311-.3014.1989-.489l-1.1355-6.6208 4.8116-4.68652c.1363-.13277.1854-.33139.1267-.5124-.0586-.181-.215-.313-.4033-.34052l-6.6502-.97203z" fill="currentColor" fill-rule="evenodd"/></svg>