<svg fill="none" height="24" viewBox="0 0 24 24" width="24" xmlns="http://www.w3.org/2000/svg"><path clip-rule="evenodd" d="m11.9484 1.77869c-.0843-.17065-.2581-.27868-.4484-.27868s-.3641.10803-.4483.27868l-2.9738 6.02455-6.65019.97202c-.18828.02752-.34462.15953-.4033.34053-.058693.181-.00956.37963.12675.5124l4.81161 4.68651-1.13555 6.6208c-.03217.1876.04495.3772.19894.489.15399.1119.35814.1266.52659.038l5.94725-3.1276 5.9473 3.1276c.1685.0886.3726.0739.5266-.038.154-.1118.2311-.3014.1989-.489l-1.1355-6.6208 4.8116-4.68651c.1363-.13277.1854-.3314.1268-.5124-.0587-.181-.2151-.31301-.4034-.34053l-6.6501-.97202zm-.4484 15.49131c.08 0 .1599.0192.2328.0575l5.2831 2.7783-1.0087-5.8813c-.0278-.1622.026-.3278.144-.4427l4.2746-4.16349-5.9081-.86356c-.1627-.02378-.3033-.12601-.376-.27343l-2.6417-5.35169v.00003z" fill="currentColor" fill-rule="evenodd"/></svg>