<svg fill="none" height="24" viewBox="0 0 24 24" width="24" xmlns="http://www.w3.org/2000/svg"><path clip-rule="evenodd" d="m21.7741 5.34753c-1.4131-.81644-5.3513-2.54649-9.7539-.15192-.8865-.52697-2.39079-.95401-4.03587-1.06366-1.84872-.12322-3.98425.14597-5.7664 1.2203-.15009.09049-.24186.25295-.24186.42821v12.91874c0 .1743.09072.336.23944.4268.14871.0908.33398.0976.48898.018 1.16404-.5978 4.51829-1.9796 9.09591.0137.139.0605.2979.0547.4321-.0158 1.4436-.7582 5.4453-1.9651 9.0526-.0034.1549.0842.3428.0807.4944-.0095.1516-.0901.2445-.2534.2445-.4298v-12.91874c0-.17857-.0953-.3436-.2499-.43293zm-9.2741.72551c3.7202-2.02095 7.067-.77378 8.524.00183v11.82363c-3.6355-1.5883-7.4064-.5325-9.0408.2501-4.12084-1.7193-7.33877-.9186-9.00713-.2302v-11.84854c1.50436-.82139 3.30788-1.04902 4.94175-.94012 1.56829.10453 2.89208.51222 3.58218.91974v10.56972c0 .2761.2238.5.5.5.2761 0 .5-.2239.5-.5z" fill="currentColor" fill-rule="evenodd"/></svg>