<svg fill="none" height="24" viewBox="0 0 24 24" width="24" xmlns="http://www.w3.org/2000/svg"><path clip-rule="evenodd" d="m14.8697 3c0-.27614-.2239-.5-.5-.5-.2762 0-.5.22386-.5.5v13.7649c0 .2761.2238.5.5.5.2761 0 .5-.2239.5-.5v-5.603l5.7697 6.0071c.1913.1992.5078.2056.707.0143.1991-.1913.2055-.5078.0142-.707l-6.2898-6.54866 6.2821-6.54847c.1912-.19928.1846-.51579-.0147-.70696-.1992-.19117-.5158-.1846-.7069.01468l-5.7616 6.00584zm-4.0812 7.8023c0-.2761-.2238-.5-.5-.5-.2761 0-.49999.2239-.49999.5v5.5113h-5.91075l6.10327-10.29322c.14087-.23753.06247-.54425-.17507-.68509-.23752-.14084-.54425-.06246-.68509.17506l-6.55095 11.04825c-.09164.1545-.09331.3463-.00438.5025.08893.1561.25479.2525.43446.2525h6.78851v3.6864c0 .2762.22389.5.49999.5.2762 0 .5-.2238.5-.5v-3.6864h1.1338c.2761 0 .5-.2239.5-.5 0-.2762-.2239-.5-.5-.5h-1.1338z" fill="currentColor" fill-rule="evenodd"/></svg>