<svg fill="none" height="24" viewBox="0 0 24 24" width="24" xmlns="http://www.w3.org/2000/svg"><path clip-rule="evenodd" d="m5.35359 4.64645c-.19526-.19526-.51184-.19526-.70711 0-.19526.19527-.19526.51185 0 .70711l6.64642 6.64644-6.64642 6.6465c-.19526.1952-.19526.5118 0 .7071.19527.1952.51185.1952.70711 0l6.64641-6.6465 6.6465 6.6465c.1952.1952.5118.1952.7071 0 .1953-.1953.1953-.5119 0-.7071l-6.6465-6.6465 6.6465-6.64644c.1953-.19526.1953-.51184 0-.70711-.1953-.19526-.5119-.19526-.7071 0l-6.6465 6.64645z" fill="currentColor" fill-rule="evenodd"/></svg>