<svg fill="none" width="109" height="16" viewBox="0 0 109 16" xmlns="http://www.w3.org/2000/svg">
    <g fill="#231f20">
        <path d="m59.6798 7.23082c-.5378-.32858-1.1-.61875-1.682-.86818-.8469-.36091-1.6527-.80501-2.4046-1.32521-.213-.19261-.3583-.44424-.4156-.71989s-.0237-.56161.096-.81809c.1123-.17927.2744-.32485.4681-.42038s.4113-.13721.6283-.12036c0 0 1.1547.05705 1.1547.91106v1.09316h3.732l-.0071-1.71854s.298-2.877268-4.5631-3.004975c0 0-3.8712-.227728-4.9675 1.751395 0 0-.4787.45512-.4787 1.99291v1.11099c.0128.75123.251 1.48294.6859 2.10725.3845.44889.8433.8338 1.3581 1.13927 0 0 1.9382.99684 3.0938 1.56719 0 0 1.173.63998 1.0191 1.65848-.0258.2882-.1686.5551-.3976.7428-.2289.1878-.5256.2813-.8258.2604-.2842-.0115-.5522-.1303-.7457-.3308-.1934-.2005-.2966-.4663-.2871-.7395v-1.33h-4.1174v1.8751s-.1618 3.3447 5.1432 3.3447c0 0 5.0419.0992 5.2586-3.4326v-1.4232c.0443-.65042-.0943-1.30036-.4015-1.88155-.3071-.58119-.7714-1.07218-1.3441-1.42143z"/>
        <path d="m39.8932.797852-1.2968 7.705958h-.3031l-1.2393-7.705958h-6.471l-.3238 13.954248h3.8311l.0455-10.6221h.3015l2.031 10.6221h4.0304l2.0061-10.6221h.2671l.0919 10.6221h3.8517l-.4148-13.954248z"/>
        <path d="m17.0879.797852-2.5498 13.954248h4.1248l1.5098-10.8301h.3392l1.5089 10.8301h4.1239l-2.548-13.954248z"/>
        <path d="m103.682 7.04596v2.08275h.867v2.23369c0 1.0942-.892 1.1144-.892 1.1144-.145.0155-.292-.0009-.429-.0481-.137-.0471-.262-.1237-.364-.224-.102-.1002-.179-.2215-.225-.3545-.046-.1331-.059-.2745-.04-.4135v-7.7463c0-.79806.992-.84076.992-.84076.131-.00553.26.01556.381.06186.121.04631.231.11678.321.20675.091.08997.161.19739.205.31516.044.11776.061.24319.051.36799v1.16179h3.976c.126-2.29104-.35-2.84737-.35-2.84737-.964-2.0790805-4.553-1.961279-4.553-1.961279-5.5997 0-4.9237 4.133679-4.9237 4.133679v7.48998c0 3.8729 5.5827 3.4799 5.6767 3.4752 2.455-.2612 3.169-1.0105 3.169-1.0105.407-.291.711-.6967.868-1.1608.153-.5369.238-1.0892.255-1.6453v-4.39084z"/>
        <path d="m90.7591 9.33664h-.1684l-3.9427-8.538788h-4.6358v13.954248h3.759l-.2293-8.53961h.1709l4.0827 8.53961h4.5688v-13.954248h-3.8818z"/>
        <path d="m72.4772 11.3484s.1007 1.1731-1.0246 1.1731c-.1542.0184-.3107.0033-.4581-.0441-.1473-.0475-.2817-.1262-.3932-.2302s-.1973-.2307-.2511-.3709c-.0538-.1401-.0742-.29-.0596-.4387l.0105-10.639748h-4.325v10.506848s-.4163 4.0155 5.4791 4.0155c0 0 5.1394.0585 5.1394-3.8313v-10.691024h-4.1174z"/>
        <path d="m9.10168 7.23076c-.55378-.32547-1.12935-.61538-1.72295-.86783-.85379-.35945-1.66621-.8036-2.42404-1.32521-.21522-.19096-.36282-.44191-.42207-.71762-.05925-.2757-.02718-.56232.09171-.81961 0 0 .12797-.54096.95735-.54096 0 0 1.01768.05652 1.01768.91054v1.09314h3.99834l-.0077-1.71909s.2961-2.877274-4.56326-3.004427c0 0-.36579-.008733-.90294.017243 0 0-2.94359.158989-3.99588 1.710764-.00594.01121.02079.02355.01485.03384-.342256.60549-.480099 1.29831-.394425 1.98246v1.11099c-.036888.74602.173996 1.48399.602175 2.10725.36035.45578.80678.84227 1.31594 1.13927 0 0 1.91615.99651 3.07224 1.5665 0 0 1.16356.64019 1.00941 1.65929-.03543.2897-.1852.5552-.4184.7419-.2332.1866-.53204.2801-.83488.2612-.28777-.0088-.56042-.1259-.75918-.3261-.19875-.2002-.30769-.4675-.30333-.7442v-1.33h-4.117358v1.8752s-.052928 3.3446 5.250918 3.3446c0 0 4.93412.0992 5.36752-3.4326v-1.4227c.0175-.65588-.142-1.30489-.463-1.88387s-.79256-1.06818-1.36872-1.41997z"/>
    </g>
</svg>