<svg xmlns="http://www.w3.org/2000/svg" viewBox="0 0 24 24">
    <path fill="none" stroke="#231f20"
          stroke-width=".99"
          stroke-linecap="round"
          stroke-linejoin="round"
          stroke-miterlimit="10"
          d="M16.1 15.3l-1.5 1.5c-1 .6-3.2-.7-5-2.4-1.7-1.8-3-4-2.4-5l1.5-1.5c.8-.8.9-1.9.3-2.8l-2.4-4C5.9.5 4.7.6 4 1.4l-.5.4-1.7 1.7c-.1.1-.2.2-.2.3l-.1.1c-2.4 3.2.6 9.1 5 13.6 4.5 4.4 10.5 7.4 13.6 5l.1-.1c.1-.1.2-.1.2-.2l1.7-1.7.4-.5c.8-.8.8-1.9.2-2.6l-4-2.4c-.7-.6-1.8-.5-2.6.3z"/>
    <!--<path class="st0" d="M17.7 9.6h-3.3V6.3m0 3.3l6.2-6.2"/>-->
</svg>