<?xml version="1.0" encoding="utf-8"?>
<!-- Generator: Adobe Illustrator 23.0.1, SVG Export Plug-In . SVG Version: 6.00 Build 0)  -->
<svg version="1.1" xmlns="http://www.w3.org/2000/svg" xmlns:xlink="http://www.w3.org/1999/xlink" x="0px" y="0px"
	 viewBox="0 0 129.7 41.5" style="enable-background:new 0 0 129.7 41.5;" xml:space="preserve">
<style type="text/css">
	.st0{display:none;}
	.st1{display:inline;fill:#820B0B;stroke:#000000;stroke-miterlimit:10;}
	.st2{fill:#FFFFFF;}
	.st3{display:inline;fill:#FFD200;}
	.st4{display:inline;}
</style>
<g id="Layer_2" class="st0">
	<rect x="-34.7" y="-36.9" class="st1" width="272.5" height="142.6"/>
</g>
<g id="Groupe_397">
	<path class="st2" d="M17.1,34.4V22.2h-14v12.3H0V7h3.1v12.1h14V7h3.1v27.4H17.1z"/>
	<path class="st2" d="M29.1,34.4V7H46v3.1H32.2v9h12.1v3.1H32.2v9.2H46v3.1L29.1,34.4z"/>
	<path class="st2" d="M54.7,34.4V7h3.1v24.3h13v3.1L54.7,34.4z"/>
	<path class="st2" d="M89.6,5.8l9,15l-9,15l15-15L89.6,5.8z"/>
	<path class="st2" d="M119.6,5.8l-15,15l15,15l-9-15L119.6,5.8z"/>
	<rect x="78.8" y="7" class="st2" width="3.2" height="27.4"/>
	<rect x="128.6" class="st2" width="1.1" height="41.5"/>
</g>
<g class="st0">
	<path class="st3" d="M170.3,34.4h-27.4V7h27.4L170.3,34.4z"/>
	<g transform="translate(150.29 14.071)" class="st4">
		<path d="M8.5,6.6L0,13.3l13.3-6.7L0,0L8.5,6.6z"/>
	</g>
</g>
</svg>
