<svg xmlns="http://www.w3.org/2000/svg" viewBox="0 0 170.31 41.47">
    <defs>
        <style>
            .cls-1 {
            fill: #fff;
            }

            .cls-2 {
            fill: #ffd200;
            }
        </style>
    </defs>
    <path class="cls-1"
          d="M17.119,38.316V26.057H3.139V38.316H0V10.91H3.139V23h13.98V10.91h3.094V38.316Z"
          transform="translate(0 -3.878)"/>
    <path class="cls-1"
          d="M45.14,38.326V10.92H62.008v3.075H48.26v9H60.313v3.055H48.26v9.2H62.008v3.075Z"
          transform="translate(-16.045 -3.882)"/>
    <path class="cls-1" d="M84.81,38.326V10.92h3.113V35.252h13.033v3.075Z"
          transform="translate(-30.146 -3.882)"/>
    <path class="cls-1" d="M139.04,9l9.037,15L139.04,39,154.045,24Z"
          transform="translate(-49.422 -3.199)"/>
    <path class="cls-1" d="M177.325,9,162.32,24,177.325,39,168.289,24Z"
          transform="translate(-57.697 -3.199)"/>
    <rect class="cls-1" width="3.191" height="27.406"
          transform="translate(78.809 7.038)"/>
    <path class="cls-2" d="M249.116,38.316H221.71V10.91h27.406Z"
          transform="translate(-78.807 -3.878)"/>
    <rect class="cls-1" width="1.07" height="41.47"
          transform="translate(128.594)"/>
    <g transform="translate(150.29 14.071)">
        <path d="M241.7,28.437l-8.534,6.729,13.271-6.748L233.183,21.83Z"
              transform="translate(-233.17 -21.83)"/>
    </g>
</svg>
