<svg width="72" height="72" viewBox="0 0 72 72" fill="none" xmlns="http://www.w3.org/2000/svg">
<path fill-rule="evenodd" clip-rule="evenodd" d="M54 9H15V63H54V60.2143V12V11V9ZM15 64H54H55H57H58V63V12V11H57H55V9V8H54H15H14V9V63V64H15ZM55 60.2143V12H57V63H55V60.2143ZM48 15.21H21V29.21H48V15.21ZM21 14.21H20V15.21V29.21V30.21H21H48H49V29.21V15.21V14.21H48H21ZM21 39.21H33V53.21H21V39.21ZM20 38.21H21H33H34V39.21V53.21V54.21H33H21H20V53.21V39.21V38.21ZM20 34.5H34V33.5H20V34.5ZM49 59.21H20V58.21H49V59.21ZM37 34.5L49 34.5V33.5L37 33.5V34.5ZM49 39.21H41V38.21H49V39.21ZM37 39.21H39V38.21H37V39.21ZM49 44.21H37V43.21H49V44.21ZM37 49.21H49V48.21H37V49.21ZM42 54.21H37V53.21H42V54.21ZM44 54.21H49V53.21H44V54.21Z" fill="currentColor"/>
</svg>
