<svg width="72" height="72" viewBox="0 0 72 72" fill="none" xmlns="http://www.w3.org/2000/svg">
<path d="M18.4022 55.7542C15.1908 53.7533 12.453 51.0781 10.3785 47.9138C8.30395 44.7496 6.94234 41.172 6.38801 37.4292C5.83369 33.6863 6.09992 29.8677 7.16825 26.238C8.23658 22.6083 10.0815 19.2543 12.575 16.4086C15.0685 13.5628 18.1511 11.2933 21.609 9.75741C25.0669 8.22151 28.8175 7.45595 32.6007 7.51379C36.3839 7.57163 40.1093 8.45148 43.5187 10.0924C46.928 11.7332 49.9398 14.0959 52.3452 17.0165" stroke="currentColor" stroke-miterlimit="10" stroke-linecap="round"/>
<path d="M63.3057 63.8926L67.3096 59.5884M67.3096 59.5884L63.3057 55.2842M67.3096 59.5884H50" stroke="currentColor" stroke-miterlimit="10" stroke-linecap="round"/>
<path d="M61.9746 24.8845L55.5884 22.1318L53.2061 28.5281" stroke="currentColor" stroke-miterlimit="10" stroke-linecap="round"/>
<path d="M6 59.5875H32.1054C36.4334 59.5974 40.696 58.5307 44.5091 56.4834C48.3223 54.436 51.5664 51.4724 53.9493 47.8594C56.3322 44.2464 57.779 40.0974 58.1594 35.7861C58.5399 31.4748 57.842 27.1366 56.1287 23.1621L55.6383 22.0811C57.5866 26.0662 58.4868 30.4823 58.254 34.9121C58.0211 39.342 56.6629 43.6393 54.3075 47.3983C51.9521 51.1573 48.6774 54.2538 44.7926 56.3953C40.9079 58.5368 36.5413 59.6527 32.1054 59.6376" stroke="currentColor" stroke-miterlimit="10" stroke-linecap="round"/>
</svg>
