<svg width="24" height="24" viewBox="0 0 24 24" fill="none" xmlns="http://www.w3.org/2000/svg">
<path d="M14.7827 5.91124C15.4874 5.10002 15.8372 4.05736 15.7585 3.00293C14.6778 3.10214 13.6789 3.59949 12.9707 4.39093C12.6193 4.76961 12.35 5.21185 12.1783 5.69181C12.0067 6.17176 11.9362 6.67981 11.9711 7.18627C12.51 7.19577 13.044 7.08569 13.5316 6.86456C14.0192 6.64344 14.4473 6.31723 14.7827 5.91123" stroke="currentColor"/>
<path d="M15.7463 7.38682C14.1935 7.29784 12.8733 8.23457 12.1318 8.23457C11.3898 8.23457 10.2543 7.43166 9.02611 7.4533C8.22728 7.47276 7.44765 7.69297 6.7647 8.09205C6.08175 8.49113 5.51925 9.05518 5.1331 9.72815C3.46461 12.4945 4.69279 16.5979 6.3153 18.8509C7.10323 19.9656 8.05282 21.1929 9.30405 21.1488C10.4863 21.1042 10.9496 20.4124 12.3866 20.4124C13.8226 20.4124 14.24 21.1488 15.4914 21.1265C16.7892 21.1042 17.6005 20.0113 18.3885 18.8956C18.9473 18.1053 19.3842 17.2414 19.6857 16.3307C18.9401 16.0174 18.3048 15.5031 17.8567 14.85C17.4085 14.1968 17.1666 13.4327 17.1602 12.6501C17.1702 11.9553 17.3624 11.2742 17.7188 10.6699C18.0753 10.0655 18.5845 9.55743 19.1994 9.19275C18.8065 8.65694 18.2907 8.21533 17.6919 7.90216C17.0931 7.58899 16.4274 7.41265 15.7463 7.38683" stroke="currentColor"/>

</svg>
