<svg width="72" height="72" viewBox="0 0 72 72" fill="none" xmlns="http://www.w3.org/2000/svg">
<path fill-rule="evenodd" clip-rule="evenodd" d="M9.5 15.2341C9.5 12.0859 12.0859 9.5 15.2341 9.5H56.7658C59.914 9.5 62.4999 12.0859 62.4999 15.2341V56.7658C62.4999 59.914 59.914 62.4999 56.7658 62.4999H15.2341C12.0859 62.4999 9.5 59.914 9.5 56.7658V15.2341ZM15.2341 8.5C11.5336 8.5 8.5 11.5336 8.5 15.2341V56.7658C8.5 60.4663 11.5336 63.4999 15.2341 63.4999H56.7658C60.4663 63.4999 63.4999 60.4663 63.4999 56.7658V15.2341C63.4999 11.5336 60.4663 8.5 56.7658 8.5H15.2341ZM50 29.4167C50.3402 29.4167 50.6741 29.3902 51 29.3392V47.5883L29 51.8927V25.4539L43.6663 24.0346C44.161 27.0865 46.8084 29.4167 50 29.4167ZM50 16.5833C47.4536 16.5833 45.2537 18.0666 44.217 20.2162L37.1482 18.0225L37.0554 17.9937L36.9585 18.0017L18.9585 19.5017L18.5 19.5399V20V43.5V43.7151L18.6561 43.863L28.1561 52.863L28.3432 53.0402L28.596 52.9907L51.596 48.4907L52 48.4117V48V29.0988C54.5645 28.2584 56.4167 25.8455 56.4167 23C56.4167 19.4562 53.5438 16.5833 50 16.5833ZM43.7763 21.1265L43.82 21.2674C43.6658 21.8185 43.5833 22.3996 43.5833 23L43.5834 23.038L28.6006 24.4879L20.7498 20.3559L36.9446 19.0063L43.7763 21.1265ZM50.2083 19.5C50.4845 19.5 50.7083 19.7239 50.7083 20V22.7083H53C53.2761 22.7083 53.5 22.9322 53.5 23.2083C53.5 23.4845 53.2761 23.7083 53 23.7083H50.7083V26C50.7083 26.2761 50.4845 26.5 50.2083 26.5C49.9322 26.5 49.7083 26.2761 49.7083 26V23.7083H47C46.7239 23.7083 46.5 23.4845 46.5 23.2083C46.5 22.9322 46.7239 22.7083 47 22.7083H49.7083V20C49.7083 19.7239 49.9322 19.5 50.2083 19.5ZM19.5 20.8282L28 25.3019V51.3376L19.5 43.2849V20.8282ZM41 36.5L33 30L46.5 35.5L33 46L41 36.5Z" fill="currentColor"/>
</svg>
