<svg width="72" height="72" viewBox="0 0 72 72" fill="none" xmlns="http://www.w3.org/2000/svg">
<path fill-rule="evenodd" clip-rule="evenodd" d="M15.2341 9.5C12.0859 9.5 9.5 12.0859 9.5 15.2341V56.7658C9.5 59.914 12.0859 62.4999 15.2341 62.4999H56.7658C59.914 62.4999 62.4999 59.914 62.4999 56.7658V15.2341C62.4999 12.0859 59.914 9.5 56.7658 9.5H15.2341ZM8.5 15.2341C8.5 11.5336 11.5336 8.5 15.2341 8.5H56.7658C60.4663 8.5 63.4999 11.5336 63.4999 15.2341V56.7658C63.4999 60.4663 60.4663 63.4999 56.7658 63.4999H15.2341C11.5336 63.4999 8.5 60.4663 8.5 56.7658V15.2341ZM24.3216 24.2352C24.5206 24.0798 24.8043 24.0972 24.9828 24.2757L36.0439 35.3368L47.105 24.2757C47.2835 24.0972 47.5672 24.0798 47.7662 24.2352C47.9653 24.3906 48.0172 24.67 47.8873 24.8865L41.1928 36.0439L47.8873 47.2013C48.0172 47.4178 47.9653 47.6972 47.7662 47.8526C47.5672 48.008 47.2835 47.9906 47.105 47.8121L36.0439 36.751L24.9828 47.8121C24.8043 47.9906 24.5206 48.008 24.3216 47.8526C24.1225 47.6972 24.0706 47.4178 24.2005 47.2013L30.895 36.0439L24.2005 24.8865C24.0706 24.67 24.1225 24.3906 24.3216 24.2352ZM27.1477 27.8548L31.9068 35.7866C32.0018 35.945 32.0018 36.1428 31.9068 36.3011L27.1477 44.233L35.3368 36.0439L27.1477 27.8548ZM44.9401 44.233L36.751 36.0439L44.9401 27.8548L40.181 35.7867C40.086 35.945 40.086 36.1428 40.181 36.3011L44.9401 44.233Z" fill="currentColor"/>
</svg>
