<svg width="72" height="72" viewBox="0 0 72 72" fill="none" xmlns="http://www.w3.org/2000/svg">
<path fill-rule="evenodd" clip-rule="evenodd" d="M9 26.2499C9 25.9296 9.25967 25.6699 9.58 25.6699H22.52C22.8403 25.6699 23.1 25.9296 23.1 26.2499V52.3399C23.1 52.6602 22.8403 52.9199 22.52 52.9199H9.58C9.25967 52.9199 9 52.6602 9 52.3399V26.2499ZM9.58 24.6699C8.70739 24.6699 8 25.3773 8 26.2499V52.3399C8 53.2125 8.70739 53.9199 9.58 53.9199H22.52C23.3926 53.9199 24.1 53.2125 24.1 52.3399V26.2499C24.1 25.3773 23.3926 24.6699 22.52 24.6699H9.58ZM14.7002 26.3199C14.4241 26.3199 14.2002 26.5438 14.2002 26.8199C14.2002 27.0961 14.4241 27.3199 14.7002 27.3199H17.4202C17.6963 27.3199 17.9202 27.0961 17.9202 26.8199C17.9202 26.5438 17.6963 26.3199 17.4202 26.3199H14.7002ZM16.0563 49.0199L16.0563 49.0199L16.0475 49.0201C15.8294 49.0257 15.6147 49.0741 15.4154 49.1627C15.2161 49.2513 15.0362 49.3783 14.8861 49.5365C14.7359 49.6947 14.6183 49.8808 14.5402 50.0844C14.462 50.288 14.4247 50.505 14.4304 50.723L14.4303 50.723L14.4307 50.7319C14.4448 51.0534 14.5532 51.3637 14.7424 51.624C14.9317 51.8844 15.1933 52.0833 15.4947 52.196C15.7962 52.3087 16.1241 52.3303 16.4377 52.2579C16.7513 52.1856 17.0367 52.0226 17.2584 51.7892C17.48 51.5558 17.628 51.2624 17.6841 50.9454C17.7401 50.6285 17.7016 50.3021 17.5735 50.0069C17.4453 49.7117 17.2332 49.4607 16.9634 49.2852C16.6936 49.1097 16.3781 49.0174 16.0563 49.0199ZM15.8217 50.0765C15.8996 50.0418 15.9834 50.0226 16.0686 50.0199C16.1926 50.0198 16.3141 50.0557 16.4181 50.1234C16.5234 50.1919 16.6062 50.2898 16.6562 50.4051C16.7062 50.5203 16.7212 50.6477 16.6993 50.7713C16.6775 50.895 16.6197 51.0095 16.5332 51.1006C16.4467 51.1917 16.3354 51.2553 16.213 51.2835C16.0906 51.3117 15.9626 51.3033 15.845 51.2594C15.7273 51.2154 15.6252 51.1377 15.5514 51.0361C15.4784 50.9357 15.4362 50.8163 15.4299 50.6924C15.4283 50.6072 15.4431 50.5225 15.4737 50.4429C15.5048 50.362 15.5515 50.2879 15.6112 50.2251C15.6709 50.1622 15.7424 50.1117 15.8217 50.0765Z" fill="currentColor"/>
<path fill-rule="evenodd" clip-rule="evenodd" d="M17.5 23.4297L17.5 20.4297C17.5 20.1535 17.7239 19.9297 18 19.9297L57.5 19.9297V52.9297H25.5C25.2239 52.9297 25 53.1535 25 53.4297C25 53.7058 25.2239 53.9297 25.5 53.9297H58L62 53.9297C62.8284 53.9297 63.5 53.2581 63.5 52.4297V20.4297C63.5 19.6013 62.8284 18.9297 62 18.9297L58 18.9297L18 18.9297C17.1716 18.9297 16.5 19.6013 16.5 20.4297V23.4297C16.5 23.7058 16.7239 23.9297 17 23.9297C17.2761 23.9297 17.5 23.7058 17.5 23.4297ZM58.5 52.9297V19.9297L62 19.9297C62.2761 19.9297 62.5 20.1535 62.5 20.4297V52.4297C62.5 52.7058 62.2761 52.9297 62 52.9297L58.5 52.9297ZM60.5 36.9297C60.2239 36.9297 60 36.7058 60 36.4297C60 36.1535 60.2239 35.9297 60.5 35.9297C60.7761 35.9297 61 36.1535 61 36.4297C61 36.7058 60.7761 36.9297 60.5 36.9297ZM59 36.4297C59 37.2581 59.6716 37.9297 60.5 37.9297C61.3284 37.9297 62 37.2581 62 36.4297C62 35.6013 61.3284 34.9297 60.5 34.9297C59.6716 34.9297 59 35.6013 59 36.4297Z" fill="currentColor"/>
</svg>
