<svg width="72" height="72" viewBox="0 0 72 72" fill="none" xmlns="http://www.w3.org/2000/svg">
<path fill-rule="evenodd" clip-rule="evenodd" d="M12.4126 5.20508C12.4126 4.92894 12.6365 4.70508 12.9126 4.70508H48.247C48.3849 4.70508 48.5167 4.76206 48.6112 4.86254L59.2015 16.1235C59.2887 16.2162 59.3373 16.3387 59.3373 16.466V66.4346C59.3373 66.7108 59.1134 66.9346 58.8373 66.9346H12.9126C12.6365 66.9346 12.4126 66.7108 12.4126 66.4346V5.20508ZM13.4126 5.70508V65.9346H58.3373V16.966H49.247C48.4185 16.966 47.747 16.2945 47.747 15.466V5.70508H13.4126ZM48.747 6.46658L57.6807 15.966H49.247C48.9708 15.966 48.747 15.7422 48.747 15.466V6.46658ZM33.8503 28.2585C33.8578 28.2582 33.8654 28.258 33.873 28.258H35.5451V26.3957C35.5451 26.1195 35.769 25.8957 36.0451 25.8957C36.3212 25.8957 36.5451 26.1195 36.5451 26.3957V28.258H37.6166C37.6242 28.258 37.6318 28.2582 37.6393 28.2585C38.1628 28.2823 38.671 28.4366 39.1184 28.6956C39.1286 28.7016 39.1386 28.7079 39.1484 28.7145C39.7885 29.1484 40.3357 29.6867 40.8025 30.2809C41.0437 30.5878 41.2519 30.9167 41.4271 31.267C41.5506 31.514 41.4505 31.8144 41.2035 31.9379C40.9565 32.0614 40.6562 31.9612 40.5327 31.7143C40.3875 31.424 40.2154 31.1523 40.0162 30.8987C39.606 30.3766 39.1371 29.9177 38.6023 29.5525C38.2959 29.3781 37.9527 29.2756 37.6047 29.258H36.5451V35.5545L40.1374 36.4302C40.1438 36.4317 40.1501 36.4334 40.1564 36.4352L40.1677 36.4386C40.6015 36.5738 40.9797 36.7719 41.253 37.0628C41.5373 37.3655 41.6801 37.7395 41.6801 38.1571V39.757C41.7024 40.2599 41.5632 40.7548 41.3052 41.1726C41.2944 41.1901 41.2825 41.2069 41.2696 41.2229C40.7488 41.8713 40.1435 42.4338 39.4657 42.9104C39.4564 42.9169 39.4468 42.9232 39.437 42.9291C38.977 43.2075 38.4535 43.3479 37.9396 43.3712C37.932 43.3716 37.9245 43.3717 37.9169 43.3717H36.5451V45.244C36.5451 45.5202 36.3212 45.744 36.0451 45.744C35.769 45.744 35.5451 45.5202 35.5451 45.244V43.3717H33.8329L33.8225 43.3716L33.8107 43.3712C33.2885 43.348 32.7567 43.2086 32.2877 42.932C32.2775 42.926 32.2675 42.9197 32.2578 42.913C31.6334 42.4823 31.0759 41.946 30.6153 41.3466C30.3752 41.0408 30.1709 40.7172 29.9912 40.3895C29.8584 40.1474 29.9471 39.8434 30.1892 39.7107C30.4313 39.5779 30.7353 39.6665 30.868 39.9087C31.0282 40.2008 31.2038 40.477 31.4034 40.731L31.4068 40.7354L31.4068 40.7354C31.803 41.2514 32.2805 41.7114 32.8104 42.0793C33.1161 42.256 33.4755 42.3538 33.8445 42.3717H35.5451V36.3324L35.0211 36.1994L35.0199 36.1991L32.0416 35.4346C30.9098 35.2571 30.0773 34.2815 30.0998 33.1271V31.9028C30.0775 31.3999 30.2167 30.9049 30.4747 30.4872C30.4848 30.4708 30.4959 30.455 30.5078 30.4399C31.0298 29.7795 31.6451 29.2074 32.3199 28.7223C32.3306 28.7147 32.3416 28.7074 32.3528 28.7006C32.8129 28.4222 33.3364 28.2819 33.8503 28.2585ZM35.5451 35.3007V29.258H33.8849C33.5282 29.2758 33.1812 29.3723 32.8868 29.5464C32.2954 29.9736 31.7621 30.4706 31.3113 31.0361C31.1606 31.29 31.0849 31.5815 31.0992 31.8661C31.0994 31.8704 31.0995 31.8748 31.0996 31.8791C31.0997 31.8831 31.0998 31.8871 31.0998 31.891V33.1322V33.1432L31.0997 33.1432C31.0853 33.7985 31.559 34.3547 32.2128 34.4491C32.2306 34.4517 32.2482 34.4552 32.2656 34.4597L35.2673 35.2301L35.2685 35.2305L35.5451 35.3007ZM36.5451 36.5838V42.3717H37.905C38.2625 42.3539 38.6104 42.257 38.9052 42.082C39.4937 41.6663 40.0177 41.1796 40.4695 40.622C40.6196 40.3685 40.6949 40.0776 40.6807 39.7937C40.6803 39.7854 40.6801 39.777 40.6801 39.7687V38.1571C40.6801 37.9842 40.6277 37.8577 40.5241 37.7475C40.4112 37.6273 40.213 37.502 39.8846 37.3978L36.5451 36.5838Z" fill="currentColor"/>
</svg>
