<svg width="72" height="72" viewBox="0 0 72 72" fill="none" xmlns="http://www.w3.org/2000/svg">
<path d="M14.9209 52.5728V18.125" stroke="currentColor" stroke-linecap="round" stroke-linejoin="round"/>
<path d="M39.3544 61.7861H34.8481" stroke="currentColor" stroke-linecap="round" stroke-linejoin="round"/>
<path d="M30.4421 20.1277H42.6591C43.4602 20.1277 44.3615 19.9274 45.0624 19.627C45.8636 19.2265 46.164 18.2251 45.8636 17.424C45.8636 17.3238 45.7634 17.3238 45.7634 17.2237L42.3587 11.6159C41.7579 10.6145 40.6563 10.0137 39.5548 10.0137H21.4296C20.228 10.0137 19.2266 10.6145 18.6257 11.6159L15.221 17.2237C14.7203 17.9247 14.9206 19.0262 15.6216 19.5269L15.8218 19.627C16.5228 20.0276 17.4241 20.2279 18.2252 20.1277H30.4421Z" stroke="currentColor" stroke-linecap="round" stroke-linejoin="round"/>
<path d="M46.064 25.9358V18.125" stroke="currentColor" stroke-linecap="round" stroke-linejoin="round"/>
<path d="M51.0707 27.9385H41.7578V61.8856H51.0707V27.9385Z" stroke="currentColor" stroke-linecap="round" stroke-linejoin="round"/>
<path d="M45.0625 31.3438H47.7663" stroke="currentColor" stroke-linecap="round" stroke-linejoin="round"/>
<path d="M43.6606 49.3682H44.1606" stroke="currentColor" stroke-linecap="round" stroke-linejoin="round"/>
<path d="M46.1641 49.3682H46.6641" stroke="currentColor" stroke-linecap="round" stroke-linejoin="round"/>
<path d="M43.6606 52.873H44.1606" stroke="currentColor" stroke-linecap="round" stroke-linejoin="round"/>
<path d="M46.1641 52.873H46.6641" stroke="currentColor" stroke-linecap="round" stroke-linejoin="round"/>
<path d="M43.6606 56.4785H44.1606" stroke="currentColor" stroke-linecap="round" stroke-linejoin="round"/>
<path d="M46.1641 56.4785H46.6641" stroke="currentColor" stroke-linecap="round" stroke-linejoin="round"/>
<path d="M48.5674 49.3682H49.0674" stroke="currentColor" stroke-linecap="round" stroke-linejoin="round"/>
<path d="M48.5674 52.873H49.0674" stroke="currentColor" stroke-linecap="round" stroke-linejoin="round"/>
<path d="M48.5674 56.4785H49.0674" stroke="currentColor" stroke-linecap="round" stroke-linejoin="round"/>
<path d="M46.3642 45.9638C46.9726 45.9638 47.4658 45.4706 47.4658 44.8623C47.4658 44.2539 46.9726 43.7607 46.3642 43.7607C45.7559 43.7607 45.2627 44.2539 45.2627 44.8623C45.2627 45.4706 45.7559 45.9638 46.3642 45.9638Z" stroke="currentColor" stroke-linecap="round" stroke-linejoin="round"/>
<path d="M63.6884 52.2725H59.1822C58.8818 52.2725 58.5813 52.4727 58.4812 52.673L56.2781 56.5784C56.0779 56.8789 56.0779 57.1793 56.2781 57.4797L58.4812 61.3851C58.6815 61.6855 58.8818 61.7857 59.1822 61.7857H63.6884C63.9888 61.7857 64.2893 61.5854 64.4895 61.3851L66.6926 57.4797C66.8929 57.1793 66.8929 56.8789 66.6926 56.5784L64.4895 52.673C64.2893 52.4727 63.9888 52.2725 63.6884 52.2725Z" stroke="currentColor" stroke-linecap="round" stroke-linejoin="round"/>
<path d="M35.2487 57.3799L32.4448 61.786H8.21112L5.40723 57.3799" stroke="currentColor" stroke-linecap="round" stroke-linejoin="round"/>
<path d="M5.40723 57.3795L8.51154 54.6758H32.1444L35.2487 57.3795" stroke="currentColor" stroke-linecap="round" stroke-linejoin="round"/>
</svg>
