<svg width="72" height="72" viewBox="0 0 72 72" fill="none" xmlns="http://www.w3.org/2000/svg">
<path fill-rule="evenodd" clip-rule="evenodd" d="M22.124 6.10509C19.7379 4.36976 16.3578 4.66659 14.468 6.95136L13.1093 8.01894C13.0936 8.03125 13.0787 8.04447 13.0646 8.05855L8.45825 12.6649C8.2907 12.8325 8.13969 13.011 8.02697 13.1882C7.95906 13.2949 7.88684 13.4289 7.84553 13.5781L7.65713 13.7665C7.64019 13.7834 7.62448 13.8016 7.61014 13.8208C4.19539 18.3913 4.67198 24.7703 7.39783 31.4209C10.1326 38.0934 15.1827 45.1805 21.1715 51.3203L21.1714 51.3204L21.1803 51.3291C27.3216 57.3194 34.5088 62.3936 41.2297 65.1528C47.9211 67.8999 54.3119 68.4116 58.6889 64.9838C58.7048 64.9713 58.7199 64.9579 58.7342 64.9437L59.0346 64.6433C59.122 64.5559 59.1867 64.5113 59.2643 64.4578L59.2645 64.4576C59.2866 64.4424 59.3097 64.4265 59.3347 64.4087C59.3838 64.3736 59.4775 64.3052 59.5526 64.2001C59.5897 64.1482 59.6183 64.0934 59.6391 64.0366L64.1455 59.4322C64.1539 59.4236 64.162 59.4147 64.1698 59.4054L65.2499 58.129C67.4328 56.1394 67.6359 52.7501 65.779 50.4563C65.7424 50.4111 65.6981 50.3726 65.6482 50.3425L54.8622 43.851C52.5361 41.9932 49.1572 42.4555 47.2009 44.7203L43.1561 48.6665C42.625 48.9606 41.8945 49.0419 40.9677 48.8825C40.0163 48.7188 38.9115 48.3098 37.7173 47.6974C35.3337 46.475 32.6727 44.4833 30.2966 42.2077C28.018 39.7791 26.0254 37.1168 24.8028 34.7449C24.1903 33.5566 23.7816 32.4613 23.6181 31.5183C23.4592 30.6018 23.5396 29.8781 23.8327 29.3472L27.8871 25.2928C30.1525 23.1313 30.5969 19.6634 28.7579 17.051L22.2583 6.25163C22.2238 6.19429 22.1781 6.14446 22.124 6.10509ZM15.2088 7.62517C16.7107 5.76989 19.4567 5.46393 21.4551 6.85639L27.9105 17.5823C27.9169 17.593 27.9237 17.6034 27.9309 17.6135C29.4827 19.8043 29.1251 22.7329 27.193 24.573L27.1929 24.5729L27.1843 24.5815L23.0786 28.6872C23.049 28.7168 23.0233 28.7499 23.002 28.7859C22.518 29.6025 22.4464 30.6141 22.6328 31.6891C22.8198 32.7676 23.2748 33.9631 23.914 35.2031C25.1932 37.6848 27.2526 40.4261 29.5766 42.9017C29.5826 42.9082 29.5888 42.9144 29.5952 42.9205C32.0233 45.2475 34.766 47.3077 37.261 48.5872C38.5076 49.2265 39.7123 49.6812 40.7981 49.868C41.8797 50.0541 42.8977 49.9829 43.7148 49.4987C43.749 49.4785 43.7806 49.4542 43.8091 49.4265L47.9148 45.4209C47.9254 45.4105 47.9356 45.3997 47.9452 45.3884C49.5884 43.4714 52.3878 43.1343 54.2608 44.6505C54.2787 44.6651 54.2977 44.6784 54.3175 44.6903L65.0552 51.1528C66.5377 53.054 66.3327 55.8092 64.5552 57.409C64.5384 57.4242 64.5226 57.4404 64.508 57.4577L63.4182 58.7457L58.8244 63.4393C58.7723 63.4925 58.7332 63.5562 58.7093 63.6253C58.6275 63.6812 58.4818 63.7819 58.3275 63.9362L58.0488 64.2149C54.1142 67.2763 48.1984 66.9328 41.6095 64.2277C35.0385 61.5301 27.9578 56.5421 21.8831 50.6177C15.9572 44.5415 10.9952 37.561 8.32313 31.0417C5.64763 24.5139 5.31844 18.5882 8.38999 14.4478L8.66466 14.1732C8.75356 14.0843 8.80552 13.9653 8.81068 13.8402L8.81377 13.8317C8.8223 13.8095 8.83958 13.7738 8.87063 13.725C8.93314 13.6268 9.03249 13.5049 9.16535 13.3721L13.7506 8.7868L15.1291 7.70373C15.1585 7.68061 15.1852 7.65426 15.2088 7.62517ZM60.1361 13.0716C60.3314 12.8764 60.3314 12.5598 60.1361 12.3645C59.9409 12.1693 59.6243 12.1693 59.429 12.3645L43.4592 28.3343V20.6291C43.4592 20.3529 43.2354 20.1291 42.9592 20.1291C42.6831 20.1291 42.4592 20.3529 42.4592 20.6291V29.5415C42.4592 29.8176 42.6831 30.0415 42.9592 30.0415H51.8716C52.1477 30.0415 52.3716 29.8176 52.3716 29.5415C52.3716 29.2653 52.1477 29.0415 51.8716 29.0415H44.1663L60.1361 13.0716Z" fill="currentColor"/>
</svg>
