<svg width="72" height="72" viewBox="0 0 72 72" fill="none" xmlns="http://www.w3.org/2000/svg">
<path fill-rule="evenodd" clip-rule="evenodd" d="M7.5 16C7.22386 16 7 16.2239 7 16.5V22.6777C7 22.9539 7.22386 23.1777 7.5 23.1777C7.77614 23.1777 8 22.9539 8 22.6777V17H63V56H39.5764C39.3002 56 39.0764 56.2239 39.0764 56.5C39.0764 56.7761 39.3002 57 39.5764 57H63.5C63.7761 57 64 56.7761 64 56.5V16.5C64 16.2239 63.7761 16 63.5 16H7.5ZM7.5 29C7.22386 29 7 29.2239 7 29.5C7 29.7761 7.22386 30 7.5 30C22.1355 30 34 41.8645 34 56.5C34 56.7761 34.2239 57 34.5 57C34.7761 57 35 56.7761 35 56.5C35 41.3122 22.6878 29 7.5 29ZM7 40.5C7 40.2239 7.22386 40 7.5 40C16.6127 40 24 47.3873 24 56.5C24 56.7761 23.7761 57 23.5 57C23.2239 57 23 56.7761 23 56.5C23 47.9396 16.0604 41 7.5 41C7.22386 41 7 40.7761 7 40.5ZM7.5 50C7.22386 50 7 50.2239 7 50.5C7 50.7761 7.22386 51 7.5 51C10.5376 51 13 53.4624 13 56.5C13 56.7761 13.2239 57 13.5 57C13.7761 57 14 56.7761 14 56.5C14 52.9101 11.0899 50 7.5 50Z" fill="currentColor"/>
</svg>
