<svg width="72" height="72" viewBox="0 0 72 72" fill="none" xmlns="http://www.w3.org/2000/svg">
<path fill-rule="evenodd" clip-rule="evenodd" d="M15.8872 9.28363C17.7779 7.17301 21.0218 6.87522 22.9681 8.5325C23.0091 8.56737 23.0442 8.60863 23.072 8.65468L28.9845 18.4437C30.592 20.8484 30.3124 23.8031 28.1751 25.9262L24.5226 29.5546C24.2614 30.0218 24.1857 30.6647 24.3274 31.4886C24.4736 32.3389 24.8432 33.3295 25.4 34.4058C26.511 36.5534 28.3244 38.9608 30.3947 41.14C32.5884 43.1966 35.0121 44.9983 37.1746 46.1022C38.2583 46.6554 39.2563 47.0229 40.1135 47.1684C40.9447 47.3095 41.5943 47.2342 42.0666 46.9735L45.7193 43.3449C47.8192 41.259 50.8044 40.9107 52.7746 42.5561L62.6038 48.4146C62.6499 48.4421 62.6913 48.4768 62.7264 48.5175C64.3818 50.436 64.3559 53.4151 62.227 55.5482L61.2576 56.752C61.246 56.7663 61.2336 56.7801 61.2206 56.7931L57.1367 60.8499C57.1149 60.9151 57.0836 60.9776 57.0422 61.0364C56.9604 61.1524 56.8586 61.2245 56.7978 61.2648C56.7485 61.2974 56.7114 61.3201 56.681 61.3388C56.6202 61.376 56.586 61.397 56.535 61.4476L56.2884 61.6926C56.2734 61.7074 56.2575 61.7213 56.2408 61.7342C52.2001 64.8418 46.3624 64.3925 40.2735 61.9237C34.157 59.4437 27.6309 54.8694 22.049 49.4478L22.0409 49.4399L22.041 49.4398C16.5846 43.8964 11.979 37.4745 9.48155 31.4274C6.99354 25.403 6.5456 19.6068 9.66796 15.4712C9.68223 15.4523 9.69782 15.4345 9.71462 15.4178L9.84681 15.2865C9.89537 15.1101 9.98871 14.9647 10.0687 14.8588C10.1829 14.7075 10.3278 14.5636 10.4428 14.4494L10.4544 14.4379L14.6468 10.2733C14.6599 10.2603 14.6736 10.248 14.6881 10.2366L15.8872 9.28363ZM22.2596 9.24387C20.7539 8.02539 18.1529 8.22401 16.6074 9.9786C16.5879 10.0008 16.5664 10.0212 16.5433 10.0396L15.3319 11.0022L11.1592 15.1473C11.0293 15.2763 10.9336 15.3728 10.8668 15.4613C10.8304 15.5095 10.8173 15.5366 10.8133 15.546C10.8086 15.6725 10.7561 15.7927 10.666 15.8822L10.4449 16.1018C7.67129 19.8044 7.96786 25.1425 10.4058 31.0457C12.84 36.9397 17.3572 43.2549 22.7498 48.7343C28.2643 54.0898 34.6834 58.5781 40.6493 60.997C46.6305 63.4221 52.0025 63.712 55.6064 60.9605L55.8302 60.7382C55.9222 60.6468 56.012 60.5806 56.0877 60.5306C56.1245 60.5062 56.159 60.4849 56.1854 60.4687C56.1892 60.4664 56.1927 60.4642 56.1961 60.4622C56.2196 60.382 56.2631 60.3082 56.3235 60.2482L60.4961 56.1032L61.4652 54.8999C61.4768 54.8855 61.4891 54.8718 61.5022 54.8588C63.2755 53.0972 63.2685 50.7391 62.02 49.2308L52.2275 43.3942C52.2035 43.3799 52.1807 43.3636 52.1594 43.3454C50.6766 42.0829 48.2582 42.2324 46.4241 44.0544L42.725 47.729C42.696 47.7578 42.6637 47.7829 42.6286 47.8038C41.8716 48.255 40.9348 48.3221 39.9462 48.1543C38.9538 47.9859 37.8556 47.5726 36.7199 46.9928C34.4468 45.8324 31.9427 43.9635 29.7001 41.8595C29.6932 41.853 29.6864 41.8463 29.6799 41.8394C27.5619 39.6117 25.6803 37.1239 24.5118 34.8653C23.9281 33.7369 23.5116 32.6452 23.3419 31.6581C23.1727 30.6745 23.2403 29.7415 23.6956 28.9876C23.7168 28.9526 23.7422 28.9202 23.7713 28.8914L27.4704 25.2168C29.2758 23.4233 29.4916 20.9938 28.1474 18.9908C28.143 18.9842 28.1387 18.9775 28.1346 18.9707L22.2596 9.24387Z" fill="currentColor"/>
</svg>
