<svg width="72" height="72" viewBox="0 0 72 72" fill="none" xmlns="http://www.w3.org/2000/svg">
<path d="M64.7158 35.8048C64.7158 51.6646 51.8589 64.5215 35.9992 64.5215C21.9445 64.5215 10.2481 54.4247 7.76767 41.089M64.7158 35.8048L59.4316 41.089M64.7158 35.8048L70 41.089M7.28253 35.8048C7.28253 19.9451 20.1394 7.0882 35.9992 7.0882C50.5035 7.0882 62.4964 17.8415 64.4403 31.8107M7.28253 35.8048L2.62024 31.1425M7.28253 35.8048L11.9448 31.1425" stroke="currentColor" stroke-linecap="round" stroke-linejoin="round"/>
<path fill-rule="evenodd" clip-rule="evenodd" d="M36.7478 21.2925C36.7478 21.0164 36.5239 20.7925 36.2478 20.7925C35.9717 20.7925 35.7478 21.0164 35.7478 21.2925V24.4602H32.8754C32.8678 24.4602 32.8603 24.4604 32.8527 24.4607C32.0955 24.4951 31.3286 24.7018 30.6584 25.1074C30.6471 25.1143 30.6361 25.1215 30.6255 25.1292C29.5966 25.8686 28.6605 26.7394 27.8675 27.7428C27.8556 27.7579 27.8445 27.7737 27.8344 27.79C27.4602 28.3959 27.2602 29.1122 27.2936 29.8364V31.7462C27.26 33.4042 28.4579 34.8059 30.0877 35.0551L34.7248 36.2453L34.726 36.2456L35.7478 36.5051V46.3727H32.8247C32.2067 46.3437 31.5986 46.1795 31.0774 45.8758C30.2267 45.2866 29.4614 44.55 28.8273 43.7242L28.8274 43.7242L28.8239 43.7198C28.5026 43.3109 28.222 42.8688 27.9678 42.4052C27.835 42.1631 27.5311 42.0744 27.289 42.2072C27.0468 42.34 26.9582 42.6439 27.091 42.886C27.3647 43.3851 27.6741 43.8746 28.0358 44.3354C28.7342 45.2445 29.5794 46.0574 30.5246 46.7093C30.5344 46.716 30.5443 46.7224 30.5545 46.7284C31.2392 47.1321 32.02 47.3379 32.7911 47.3722C32.7985 47.3725 32.8059 47.3727 32.8133 47.3727H35.7478V50.5558C35.7478 50.832 35.9717 51.0558 36.2478 51.0558C36.5239 51.0558 36.7478 50.832 36.7478 50.5558V47.3727H39.1539C39.1615 47.3727 39.169 47.3725 39.1766 47.3722C39.9338 47.3378 40.7008 47.1311 41.3709 46.7254C41.3807 46.7195 41.3903 46.7133 41.3996 46.7067C42.4314 45.9812 43.352 45.1256 44.1438 44.1398C44.1567 44.1238 44.1686 44.1069 44.1794 44.0894C44.5536 43.4836 44.7536 42.7673 44.7202 42.043V39.553C44.7202 38.9722 44.5235 38.4599 44.132 38.0431C43.7515 37.6381 43.2129 37.3501 42.5662 37.1486C42.5562 37.1454 42.5461 37.1426 42.5359 37.1401L36.928 35.7731L36.7478 35.7274V25.4602H38.6759C39.2672 25.4889 39.848 25.6632 40.3646 25.9592C41.2258 26.5456 41.9768 27.2812 42.6304 28.1131C42.9513 28.5215 43.2285 28.9592 43.4622 29.4264C43.5857 29.6734 43.886 29.7735 44.133 29.65C44.38 29.5265 44.4801 29.2262 44.3566 28.9792C44.0929 28.4519 43.7796 27.957 43.4167 27.4952C42.7065 26.5914 41.8773 25.7765 40.9109 25.1213C40.9011 25.1147 40.891 25.1084 40.8808 25.1025C40.2233 24.7218 39.4772 24.4955 38.7104 24.4607C38.7068 24.4605 38.7032 24.4604 38.6997 24.4603C38.6957 24.4602 38.6917 24.4602 38.6877 24.4602H36.7478V21.2925ZM35.7478 25.4602H32.8871C32.2871 25.4891 31.6969 25.652 31.1926 25.9531C30.2469 26.6349 29.3926 27.4307 28.6706 28.3394C28.4039 28.7814 28.2677 29.294 28.293 29.7995C28.2934 29.8078 28.2936 29.8161 28.2936 29.8244V31.7515V31.7625L28.2935 31.7625C28.268 32.921 29.1068 33.9032 30.2583 34.0695C30.2761 34.0721 30.2938 34.0756 30.3112 34.0801L34.9722 35.2764L34.9734 35.2767L35.7478 35.4734V25.4602ZM36.7478 36.7585V46.3727H39.1422C39.7431 46.3437 40.3341 46.1804 40.8388 45.8785C41.7817 45.2137 42.6211 44.4337 43.3441 43.5384C43.6102 43.0968 43.7461 42.5848 43.7208 42.08C43.7204 42.0717 43.7202 42.0634 43.7202 42.055V39.553C43.7202 39.2169 43.6139 38.9521 43.4031 38.7278C43.1834 38.4939 42.8251 38.2786 42.2834 38.1079L36.7478 36.7585Z" fill="currentColor"/>
</svg>
