<svg width="24" height="24" viewBox="0 0 24 24" fill="none" xmlns="http://www.w3.org/2000/svg">
<path fill-rule="evenodd" clip-rule="evenodd" d="M2.5 5C2.22386 5 2 5.22386 2 5.5V18.5008C2 18.6335 2.05276 18.7608 2.14667 18.8546C2.24057 18.9483 2.36791 19.001 2.50062 19.0008L21.4911 18.9772C21.7669 18.9768 21.9903 18.7533 21.9905 18.4775L21.9995 5.50035C21.9996 5.36768 21.9469 5.24041 21.8531 5.14657C21.7594 5.05273 21.6321 5 21.4995 5H2.5ZM3 6.60943V17.3351L7.63405 12.9361C7.83433 12.746 8.1508 12.7543 8.34092 12.9545C8.53103 13.1548 8.5228 13.4713 8.32252 13.6614L3.75288 17.9992L20.2738 17.9787L15.8529 13.6178C15.6563 13.4238 15.6541 13.1073 15.8481 12.9107C16.042 12.7141 16.3586 12.7119 16.5551 12.9058L20.9913 17.2818L20.9987 6.61293L12.3312 14.2874C12.142 14.455 11.8574 14.4549 11.6682 14.2874L3 6.60943ZM20.1825 6H3.82014L11.9998 13.2452L20.1825 6Z" fill="currentColor"/>
</svg>
