<svg width="72" height="72" viewBox="0 0 72 72" fill="none" xmlns="http://www.w3.org/2000/svg">
<path fill-rule="evenodd" clip-rule="evenodd" d="M5.40723 13.5C5.13108 13.5 4.90723 13.7239 4.90723 14V53.6551C4.90723 53.9312 5.13108 54.1551 5.40723 54.1551H32.0449V57.3609H18.6256C18.3494 57.3609 18.1256 57.5848 18.1256 57.8609C18.1256 58.1371 18.3494 58.3609 18.6256 58.3609H32.5449H38.8537H52.773C53.0492 58.3609 53.273 58.1371 53.273 57.8609C53.273 57.5848 53.0492 57.3609 52.773 57.3609H39.3537V54.1551H66.6923C66.9685 54.1551 67.1923 53.9312 67.1923 53.6551V14C67.1923 13.7239 66.9685 13.5 66.6923 13.5H5.40723ZM38.3537 54.1551H33.0449V57.3609H38.3537V54.1551ZM5.90723 53.1551V14.5H66.1923V53.1551H5.90723ZM22.1365 21.0033L22.9227 20.3992L35.9314 33.4005L48.9402 20.3991L49.7264 21.0033L42.1442 34.0998L49.7266 47.2271L48.9402 47.8309L35.9315 34.8296L22.9227 47.8309L22.1362 47.2272L29.7187 34.0999L22.1365 21.0033ZM36.6388 34.1227L46.9618 44.4398L41.1337 34.3496L40.9891 34.0993L41.1339 33.849L46.9514 23.8006L36.6387 34.1074L36.6464 34.115L36.6388 34.1227ZM24.9115 23.8006L30.729 33.8491L30.8738 34.0993L30.7292 34.3497L24.9011 44.4398L35.2242 34.1227L35.2165 34.115L35.2241 34.1074L24.9115 23.8006Z" fill="currentColor"/>
</svg>
