<svg width="72" height="72" viewBox="0 0 72 72" fill="none" xmlns="http://www.w3.org/2000/svg">
<path fill-rule="evenodd" clip-rule="evenodd" d="M5.97559 35.7948C5.97559 19.1546 19.4651 5.66504 36.1054 5.66504C52.7456 5.66504 66.2351 19.1546 66.2351 35.7948C66.2351 52.435 52.7456 65.9246 36.1054 65.9246C19.4651 65.9246 5.97559 52.435 5.97559 35.7948ZM36.1054 4.66504C18.9129 4.66504 4.97559 18.6023 4.97559 35.7948C4.97559 52.9873 18.9129 66.9246 36.1054 66.9246C53.2979 66.9246 67.2351 52.9873 67.2351 35.7948C67.2351 18.6023 53.2979 4.66504 36.1054 4.66504ZM45.8943 41.0399C45.8943 40.7638 45.6705 40.5399 45.3943 40.5399C45.1182 40.5399 44.8943 40.7638 44.8943 41.0399C44.8943 43.2576 43.7756 45.0917 42.1186 46.3865C40.4555 47.6861 38.2768 48.4176 36.2455 48.4176C34.2197 48.4176 32.04 47.6521 30.3725 46.3479C28.7076 45.0457 27.5966 43.2446 27.5966 41.1801C27.5966 40.9039 27.3727 40.6801 27.0966 40.6801C26.8204 40.6801 26.5966 40.9039 26.5966 41.1801C26.5966 43.6299 27.9178 45.6975 29.7564 47.1356C31.4547 48.4638 33.6311 49.2874 35.7355 49.4034V58.5069C35.7355 58.783 35.9593 59.0069 36.2355 59.0069C36.5116 59.0069 36.7355 58.783 36.7355 58.5069V49.405C38.8414 49.298 41.027 48.5087 42.7343 47.1745C44.5808 45.7316 45.8943 43.6269 45.8943 41.0399ZM29.6586 22.7822C29.6586 19.1245 32.6278 16.1552 36.2855 16.1552C39.9536 16.1552 42.9224 19.1249 42.9224 22.7822V38.8778C42.9224 42.5355 39.9532 45.5047 36.2955 45.5047H36.2855C32.6278 45.5047 29.6586 42.5355 29.6586 38.8778V22.7822ZM36.2855 15.1552C32.0755 15.1552 28.6586 18.5722 28.6586 22.7822V38.8778C28.6586 43.0878 32.0755 46.5047 36.2855 46.5047H36.2955C40.5055 46.5047 43.9224 43.0878 43.9224 38.8778V22.7822C43.9224 18.5717 40.505 15.1552 36.2855 15.1552Z" fill="currentColor"/>
</svg>
