<svg width="72" height="72" viewBox="0 0 72 72" fill="none" xmlns="http://www.w3.org/2000/svg">
<path d="M36.0148 47.4466H15.4148C9.88939 47.4466 4.25391 44.6639 4.25391 37.577C4.25391 30.9205 11.571 27.9977 11.571 27.9977C11.571 27.9977 11.0605 22.5123 15.1345 18.9889C19.7189 15.0651 25.6047 16.8468 25.6047 16.8468C26.4453 13.9729 28.2214 11.4619 30.6512 9.71207C33.081 7.96222 36.0255 7.07371 39.0177 7.18744C50.619 7.18744 52.2205 17.4174 52.2205 17.4174C52.2205 17.4174 56.6248 17.6576 58.9371 20.4203C59.6196 21.3168 60.1052 22.3472 60.3622 23.4442C60.6192 24.5413 60.6418 25.6801 60.4285 26.7865C62.2959 27.7974 63.8494 29.3021 64.9192 31.1364C65.989 32.9706 66.5339 35.0636 66.4944 37.1866C66.4944 45.4546 58.877 47.5367 55.734 47.5367C52.5909 47.5367 36.0148 47.4466 36.0148 47.4466Z" stroke="currentColor" stroke-miterlimit="10"/>
<path d="M16.9365 53.292H4.68457V65.5439H16.9365V53.292Z" stroke="currentColor" stroke-miterlimit="10"/>
<path d="M42.2412 53.292H29.9893V65.5439H42.2412V53.292Z" stroke="currentColor" stroke-miterlimit="10"/>
<path d="M66.895 53.292H54.6431V65.5439H66.895V53.292Z" stroke="currentColor" stroke-miterlimit="10"/>
<path d="M35.9248 47.5967V53.072" stroke="currentColor" stroke-miterlimit="10"/>
<path d="M23.9231 47.5967V59.4382H17.0664" stroke="currentColor" stroke-miterlimit="10"/>
<path d="M48.3271 47.5967V59.4382H54.8535" stroke="currentColor" stroke-miterlimit="10"/>
</svg>
