<svg width="72" height="72" viewBox="0 0 72 72" fill="none" xmlns="http://www.w3.org/2000/svg">
<path fill-rule="evenodd" clip-rule="evenodd" d="M24.6242 4.88477C24.9003 4.88477 25.1242 5.10862 25.1242 5.38477V11.1308H31.6215V5.38477C31.6215 5.10862 31.8453 4.88477 32.1215 4.88477C32.3976 4.88477 32.6215 5.10862 32.6215 5.38477V11.1308H39.1188V5.38477C39.1188 5.10862 39.3427 4.88477 39.6188 4.88477C39.8949 4.88477 40.1188 5.10862 40.1188 5.38477V11.1308H46.6161V5.38477C46.6161 5.10862 46.8399 4.88477 47.1161 4.88477C47.3922 4.88477 47.6161 5.10862 47.6161 5.38477V11.1308H59.6082C59.8844 11.1308 60.1082 11.3547 60.1082 11.6308V23.633H65.8543C66.1304 23.633 66.3543 23.8568 66.3543 24.133C66.3543 24.4091 66.1304 24.633 65.8543 24.633H60.1082V31.1303H65.8543C66.1304 31.1303 66.3543 31.3541 66.3543 31.6303C66.3543 31.9064 66.1304 32.1303 65.8543 32.1303H60.1082V39.8788H65.8543C66.1304 39.8788 66.3543 40.1026 66.3543 40.3788C66.3543 40.6549 66.1304 40.8788 65.8543 40.8788H60.1082V47.3761H65.8543C66.1304 47.3761 66.3543 47.5999 66.3543 47.8761C66.3543 48.1522 66.1304 48.3761 65.8543 48.3761H60.1082V59.117C60.1082 59.3931 59.8844 59.617 59.6082 59.617H12.1221C11.8459 59.617 11.6221 59.3931 11.6221 59.117V48.3761H5.87598C5.59983 48.3761 5.37598 48.1522 5.37598 47.8761C5.37598 47.5999 5.59983 47.3761 5.87598 47.3761H11.6221V40.8788H5.87598C5.59983 40.8788 5.37598 40.6549 5.37598 40.3788C5.37598 40.1026 5.59983 39.8788 5.87598 39.8788H11.6221V32.1303H5.87598C5.59983 32.1303 5.37598 31.9064 5.37598 31.6303C5.37598 31.3541 5.59983 31.1303 5.87598 31.1303H11.6221V24.633H5.87598C5.59983 24.633 5.37598 24.4091 5.37598 24.133C5.37598 23.8568 5.59983 23.633 5.87598 23.633H11.6221V11.6308C11.6221 11.3547 11.8459 11.1308 12.1221 11.1308H24.1242V5.38477C24.1242 5.10862 24.3481 4.88477 24.6242 4.88477ZM24.6212 12.1308H12.6221V58.617H59.1082V47.8805C59.1082 47.879 59.1082 47.8776 59.1082 47.8761C59.1082 47.8746 59.1082 47.8731 59.1082 47.8717V40.3832C59.1082 40.3817 59.1082 40.3803 59.1082 40.3788C59.1082 40.3773 59.1082 40.3758 59.1082 40.3744V31.6347C59.1082 31.6332 59.1082 31.6318 59.1082 31.6303C59.1082 31.6288 59.1082 31.6273 59.1082 31.6259V24.1374C59.1082 24.1359 59.1082 24.1345 59.1082 24.133C59.1082 24.1315 59.1082 24.13 59.1082 24.1286V12.1308H47.119C47.1181 12.1308 47.1171 12.1308 47.1161 12.1308C47.1151 12.1308 47.1141 12.1308 47.1131 12.1308H39.6218C39.6208 12.1308 39.6198 12.1308 39.6188 12.1308C39.6178 12.1308 39.6168 12.1308 39.6158 12.1308H32.1245C32.1235 12.1308 32.1225 12.1308 32.1215 12.1308C32.1205 12.1308 32.1195 12.1308 32.1185 12.1308H24.6272C24.6262 12.1308 24.6252 12.1308 24.6242 12.1308C24.6232 12.1308 24.6222 12.1308 24.6212 12.1308ZM25.1242 60.3682C25.1242 60.0921 24.9003 59.8682 24.6242 59.8682C24.3481 59.8682 24.1242 60.0921 24.1242 60.3682V66.6143C24.1242 66.8904 24.3481 67.1143 24.6242 67.1143C24.9003 67.1143 25.1242 66.8904 25.1242 66.6143V60.3682ZM32.6215 60.3682C32.6215 60.0921 32.3976 59.8682 32.1215 59.8682C31.8453 59.8682 31.6215 60.0921 31.6215 60.3682V66.6143C31.6215 66.8904 31.8453 67.1143 32.1215 67.1143C32.3976 67.1143 32.6215 66.8904 32.6215 66.6143V60.3682ZM39.6188 59.8682C39.8949 59.8682 40.1188 60.0921 40.1188 60.3682V66.6143C40.1188 66.8904 39.8949 67.1143 39.6188 67.1143C39.3427 67.1143 39.1188 66.8904 39.1188 66.6143V60.3682C39.1188 60.0921 39.3427 59.8682 39.6188 59.8682ZM47.6161 60.3682C47.6161 60.0921 47.3922 59.8682 47.1161 59.8682C46.8399 59.8682 46.6161 60.0921 46.6161 60.3682V66.6143C46.6161 66.8904 46.8399 67.1143 47.1161 67.1143C47.3922 67.1143 47.6161 66.8904 47.6161 66.6143V60.3682ZM39.1188 51.6197C39.1188 51.3436 39.3427 51.1197 39.6188 51.1197H47.1161C47.3922 51.1197 47.6161 51.3436 47.6161 51.6197C47.6161 51.8958 47.3922 52.1197 47.1161 52.1197H39.6188C39.3427 52.1197 39.1188 51.8958 39.1188 51.6197ZM44.6136 19.8793C44.3375 19.8793 44.1136 20.1032 44.1136 20.3793C44.1136 20.6555 44.3375 20.8793 44.6136 20.8793H51.6109V26.6254C51.6109 26.9016 51.8348 27.1254 52.1109 27.1254C52.3871 27.1254 52.6109 26.9016 52.6109 26.6254V20.3793C52.6109 20.1032 52.3871 19.8793 52.1109 19.8793H44.6136ZM19.6194 33.6227C19.8955 33.6227 20.1194 33.8466 20.1194 34.1227V41.62C20.1194 41.8961 19.8955 42.12 19.6194 42.12C19.3432 42.12 19.1194 41.8961 19.1194 41.62V34.1227C19.1194 33.8466 19.3432 33.6227 19.6194 33.6227Z" fill="currentColor"/>
</svg>
