<svg width="72" height="72" viewBox="0 0 72 72" fill="none" xmlns="http://www.w3.org/2000/svg">
<path d="M38.85 8.41992H32.02" stroke="currentColor" stroke-miterlimit="10" stroke-linecap="round"/>
<path d="M42.8799 35.0396C42.8799 36.9561 43.4482 38.8296 44.5129 40.4231C45.5777 42.0166 47.0911 43.2586 48.8617 43.992C50.6323 44.7254 52.5806 44.9173 54.4603 44.5434C56.34 44.1695 58.0666 43.2466 59.4217 41.8915C60.7769 40.5363 61.6998 38.8097 62.0737 36.93C62.4476 35.0504 62.2557 33.102 61.5223 31.3314C60.7889 29.5608 59.5469 28.0474 57.9534 26.9827C56.3598 25.9179 54.4864 25.3496 52.5699 25.3496C49.9999 25.3496 47.5352 26.3705 45.718 28.1877C43.9008 30.005 42.8799 32.4697 42.8799 35.0396V35.0396Z" stroke="currentColor" stroke-linecap="round" stroke-linejoin="round"/>
<path d="M52.63 47.24V64.43C52.6301 64.735 52.5692 65.0369 52.451 65.3181C52.3329 65.5992 52.1597 65.8539 51.9417 66.0672C51.7237 66.2805 51.4654 66.4482 51.1817 66.5603C50.8981 66.6724 50.5949 66.7267 50.29 66.72H20.29C19.9889 66.7213 19.6905 66.663 19.4121 66.5484C19.1337 66.4338 18.8807 66.2652 18.6678 66.0522C18.4549 65.8393 18.2863 65.5864 18.1716 65.3079C18.057 65.0295 17.9987 64.7311 18 64.43V7.29002C17.9987 6.98892 18.057 6.69055 18.1716 6.41211C18.2863 6.13368 18.4549 5.88071 18.6678 5.6678C18.8807 5.45489 19.1337 5.28626 19.4121 5.17164C19.6905 5.05703 19.9889 4.9987 20.29 5.00002H50.29C50.5916 4.99871 50.8905 5.05697 51.1694 5.17146C51.4484 5.28595 51.7021 5.45442 51.9158 5.6672C52.1295 5.87998 52.299 6.13287 52.4148 6.41136C52.5305 6.68985 52.59 6.98845 52.59 7.29002V22.46" stroke="currentColor" stroke-linecap="round" stroke-linejoin="round"/>
<path d="M35.3 63.0297C36.7083 63.0297 37.85 61.888 37.85 60.4797C37.85 59.0714 36.7083 57.9297 35.3 57.9297C33.8917 57.9297 32.75 59.0714 32.75 60.4797C32.75 61.888 33.8917 63.0297 35.3 63.0297Z" stroke="currentColor" stroke-linecap="round" stroke-linejoin="round"/>
<path d="M51.5598 34.9399C51.5618 35.4569 51.4102 35.9629 51.1241 36.3937C50.8381 36.8244 50.4306 37.1605 49.9533 37.3593C49.4759 37.558 48.9503 37.6106 48.4431 37.5102C47.9359 37.4098 47.4699 37.161 47.1043 36.7954C46.7387 36.4298 46.4899 35.9638 46.3895 35.4566C46.2891 34.9494 46.3416 34.4238 46.5404 33.9464C46.7392 33.4691 47.0753 33.0616 47.506 32.7756C47.9368 32.4895 48.4428 32.3379 48.9598 32.3399C49.6494 32.3399 50.3107 32.6138 50.7983 33.1014C51.2859 33.589 51.5598 34.2503 51.5598 34.9399V34.9399Z" stroke="currentColor" stroke-linecap="round" stroke-linejoin="round"/>
<path d="M58.72 34.9398C58.722 35.4565 58.5706 35.9621 58.285 36.3926C57.9994 36.8231 57.5925 37.1592 57.1157 37.3583C56.639 37.5574 56.1139 37.6105 55.607 37.5109C55.1 37.4113 54.634 37.1635 54.268 36.7989C53.902 36.4343 53.6524 35.9693 53.5509 35.4627C53.4494 34.9562 53.5005 34.4309 53.6977 33.9534C53.895 33.4759 54.2295 33.0676 54.6589 32.7804C55.0883 32.4932 55.5933 32.3398 56.11 32.3398C56.8005 32.3398 57.4628 32.6134 57.952 33.1008C58.4412 33.5881 58.7173 34.2494 58.72 34.9398Z" stroke="currentColor" stroke-linecap="round" stroke-linejoin="round"/>
<path d="M48.8501 37.54H55.8401" stroke="currentColor" stroke-linecap="round" stroke-linejoin="round"/>
</svg>
