<svg width="24" height="24" viewBox="0 0 24 24" fill="none" xmlns="http://www.w3.org/2000/svg">
<circle cx="12" cy="12" r="10.5" transform="rotate(90 12 12)" stroke="currentColor"/>
<path fill-rule="evenodd" clip-rule="evenodd" d="M18.2684 9.07342C18.2899 9.09024 18.3182 9.11287 18.3467 9.13799C19.866 10.4463 20.0376 12.7375 18.7308 14.2583C18.6917 14.3038 18.6461 14.3406 18.5965 14.3684C17.9509 15.08 17.0297 15.5371 16.0014 15.571C15.9643 15.5799 15.9256 15.5847 15.8858 15.5847C14.5779 15.5873 13.3657 14.9038 12.688 13.7871C12.5447 13.551 12.6199 13.2435 12.856 13.1002C13.0921 12.957 13.3996 13.0322 13.5429 13.2682C14.0214 14.0567 14.8627 14.5495 15.7788 14.5829C15.8109 14.5765 15.844 14.5731 15.878 14.5731C17.3524 14.5731 18.5477 13.3778 18.5477 11.9033C18.5477 10.8371 17.9227 9.91684 17.019 9.489L13.4578 10.6735L13.4581 10.6732L17.0189 9.48896C16.673 9.32519 16.2862 9.23359 15.878 9.23359C15.8639 9.23359 15.8499 9.233 15.8361 9.23186C15.6999 9.2386 15.5621 9.25679 15.4235 9.2875C14.8029 9.42501 14.1123 9.82641 13.4581 10.6732L11.9542 11.1733C12.8708 9.46359 14.0243 8.57327 15.2072 8.31118C16.3798 8.05134 17.4871 8.43103 18.2684 9.07342ZM13.4578 10.6735C13.2453 10.9486 13.0366 11.2708 12.8354 11.6462L12.8352 11.6466C12.7914 11.728 12.7404 11.829 12.6818 11.9449C12.428 12.4471 12.0329 13.2291 11.4744 13.9159C10.7759 14.7748 9.7561 15.5735 8.31518 15.5735C8.30806 15.5735 8.30097 15.5733 8.29392 15.5731C7.22183 15.5684 6.25866 15.1046 5.59049 14.3683C5.54403 14.3422 5.50098 14.3083 5.46337 14.2665C5.43746 14.2377 5.41326 14.208 5.39729 14.1884L5.3902 14.1797L5.38915 14.1784C4.12486 12.6225 4.3625 10.3391 5.9178 9.07522L5.91786 9.07517C6.54944 8.5618 7.29424 8.28578 8.04473 8.24306C8.13253 8.23678 8.22119 8.23359 8.3106 8.23359C8.3376 8.23359 8.3641 8.23573 8.38994 8.23985C9.61378 8.28674 10.8088 8.95372 11.5071 10.2232C11.6402 10.4652 11.5519 10.7692 11.31 10.9023C11.068 11.0354 10.764 10.9471 10.6309 10.7052C10.0674 9.68082 9.08862 9.19199 8.12048 9.24024C6.73454 9.33757 5.64059 10.4909 5.63863 11.9014C5.63879 13.3761 6.83228 14.5712 8.30679 14.5731H8.30837C8.31497 14.5731 8.32153 14.5732 8.32807 14.5735C9.34528 14.5688 10.1044 14.0156 10.6986 13.2849C11.1804 12.6924 11.5112 12.0402 11.7673 11.5354C11.8342 11.4035 11.896 11.2818 11.954 11.1737L13.4578 10.6735Z" fill="currentColor"/>
</svg>
