<svg width="72" height="72" viewBox="0 0 72 72" fill="none" xmlns="http://www.w3.org/2000/svg">
<path d="M37.73 24.3398H33.04" stroke="currentColor" stroke-miterlimit="10" stroke-linecap="round"/>
<path d="M47.1902 23.5703C47.1916 23.3624 47.1516 23.1564 47.0727 22.9641C46.9937 22.7718 46.8774 22.5971 46.7304 22.4501C46.5834 22.3031 46.4087 22.1868 46.2164 22.1078C46.0241 22.0289 45.8181 21.9889 45.6102 21.9903H25.0302C24.8224 21.9889 24.6163 22.0289 24.424 22.1078C24.2317 22.1868 24.057 22.3031 23.91 22.4501C23.7631 22.5971 23.6467 22.7718 23.5678 22.9641C23.4889 23.1564 23.4489 23.3624 23.4502 23.5703V62.8003C23.4502 63.0073 23.4912 63.2123 23.5707 63.4034C23.6502 63.5945 23.7667 63.7681 23.9136 63.914C24.0604 64.0599 24.2347 64.1753 24.4263 64.2536C24.618 64.332 24.8232 64.3716 25.0302 64.3703H45.6102C45.8172 64.3716 46.0225 64.332 46.2141 64.2536C46.4057 64.1753 46.58 64.0599 46.7269 63.914C46.8737 63.7681 46.9902 63.5945 47.0698 63.4034C47.1493 63.2123 47.1902 63.0073 47.1902 62.8003V23.5703Z" stroke="currentColor" stroke-linecap="round" stroke-linejoin="round"/>
<path d="M35.29 61.8398C36.2565 61.8398 37.04 61.0563 37.04 60.0898C37.04 59.1233 36.2565 58.3398 35.29 58.3398C34.3235 58.3398 33.54 59.1233 33.54 60.0898C33.54 61.0563 34.3235 61.8398 35.29 61.8398Z" stroke="currentColor" stroke-linecap="round" stroke-linejoin="round"/>
<path d="M19.2798 10.3496H14.5898" stroke="currentColor" stroke-miterlimit="10" stroke-linecap="round"/>
<path d="M28.74 19.64V9.58003C28.7414 9.37302 28.7017 9.16778 28.6234 8.97615C28.5451 8.78451 28.4297 8.61025 28.2837 8.4634C28.1378 8.31656 27.9643 8.20001 27.7732 8.12049C27.582 8.04097 27.3771 8.00003 27.17 8.00003H6.58003C6.37217 7.9987 6.16612 8.03866 5.97382 8.1176C5.78153 8.19653 5.60682 8.31286 5.45984 8.45984C5.31286 8.60682 5.19653 8.78153 5.1176 8.97382C5.03867 9.16612 4.9987 9.37217 5.00003 9.58003V48.81C5.00003 49.0171 5.04097 49.222 5.12049 49.4132C5.20002 49.6043 5.31656 49.7778 5.4634 49.9237C5.61025 50.0697 5.78451 50.1851 5.97615 50.2634C6.16778 50.3417 6.37302 50.3814 6.58003 50.38H21.19" stroke="currentColor" stroke-linecap="round" stroke-linejoin="round"/>
<path d="M16.8398 47.8496C17.8063 47.8496 18.5898 47.0661 18.5898 46.0996C18.5898 45.1331 17.8063 44.3496 16.8398 44.3496C15.8733 44.3496 15.0898 45.1331 15.0898 46.0996C15.0898 47.0661 15.8733 47.8496 16.8398 47.8496Z" stroke="currentColor" stroke-linecap="round" stroke-linejoin="round"/>
<path d="M56.8802 10.3496H52.2002" stroke="currentColor" stroke-miterlimit="10" stroke-linecap="round"/>
<path d="M49.3499 50.38H64.7699C64.9769 50.3814 65.1821 50.3417 65.3738 50.2634C65.5654 50.1851 65.7397 50.0697 65.8865 49.9237C66.0334 49.7778 66.1499 49.6043 66.2294 49.4132C66.309 49.222 66.3499 49.0171 66.3499 48.81V9.58003C66.3512 9.37217 66.3113 9.16612 66.2323 8.97382C66.1534 8.78153 66.0371 8.60682 65.8901 8.45984C65.7431 8.31286 65.5684 8.19653 65.3761 8.1176C65.1838 8.03866 64.9778 7.9987 64.7699 8.00003H44.1799C43.9729 8.00003 43.7679 8.04097 43.5768 8.12049C43.3856 8.20001 43.2121 8.31656 43.0662 8.4634C42.9203 8.61025 42.8048 8.78451 42.7265 8.97615C42.6482 9.16778 42.6086 9.37302 42.6099 9.58003V19.64" stroke="currentColor" stroke-linecap="round" stroke-linejoin="round"/>
<path d="M54.4502 47.8496C55.4167 47.8496 56.2002 47.0661 56.2002 46.0996C56.2002 45.1331 55.4167 44.3496 54.4502 44.3496C53.4837 44.3496 52.7002 45.1331 52.7002 46.0996C52.7002 47.0661 53.4837 47.8496 54.4502 47.8496Z" stroke="currentColor" stroke-linecap="round" stroke-linejoin="round"/>
<path d="M39.5298 34.8399C39.5298 35.6311 39.2952 36.4044 38.8557 37.0622C38.4161 37.72 37.7914 38.2327 37.0605 38.5355C36.3296 38.8382 35.5254 38.9174 34.7494 38.7631C33.9735 38.6087 33.2608 38.2278 32.7014 37.6684C32.142 37.109 31.761 36.3962 31.6066 35.6203C31.4523 34.8444 31.5315 34.0401 31.8343 33.3092C32.137 32.5783 32.6497 31.9536 33.3075 31.5141C33.9653 31.0745 34.7387 30.8399 35.5298 30.8399C36.5618 30.8157 37.5615 31.2006 38.3109 31.9106C39.0602 32.6206 39.4984 33.5981 39.5298 34.6299V34.8599V34.8399Z" stroke="currentColor" stroke-linecap="round" stroke-linejoin="round"/>
<path d="M42.0898 51.5403V45.4603C42.0925 43.7381 41.4116 42.0853 40.1966 40.8647C38.9817 39.6441 37.332 38.9556 35.6098 38.9503C34.7564 38.945 33.9102 39.1084 33.1201 39.4311C32.3299 39.7538 31.6113 40.2294 31.0055 40.8305C30.3996 41.4317 29.9185 42.1467 29.5898 42.9343C29.261 43.722 29.0911 44.5668 29.0898 45.4203V45.4203V51.5003" stroke="currentColor" stroke-linecap="round" stroke-linejoin="round"/>
<path d="M20.8398 19.0404C20.8398 19.8315 20.6052 20.6049 20.1657 21.2627C19.7262 21.9205 19.1015 22.4332 18.3706 22.7359C17.6397 23.0387 16.8354 23.1179 16.0595 22.9635C15.2836 22.8092 14.5708 22.4282 14.0114 21.8688C13.452 21.3094 13.071 20.5967 12.9167 19.8207C12.7624 19.0448 12.8416 18.2406 13.1443 17.5097C13.4471 16.7787 13.9598 16.154 14.6176 15.7145C15.2754 15.275 16.0487 15.0404 16.8398 15.0404V15.0404C17.8726 15.0135 18.8738 15.3975 19.6238 16.108C20.3737 16.8186 20.8111 17.7977 20.8398 18.8304V19.0604V19.0404Z" stroke="currentColor" stroke-linecap="round" stroke-linejoin="round"/>
<path d="M21.0502 24.6102C19.8901 23.6712 18.4427 23.1593 16.9502 23.1602C16.0966 23.1576 15.2508 23.3231 14.4612 23.6473C13.6716 23.9715 12.9536 24.4481 12.3481 25.0498C11.7427 25.6516 11.2617 26.3666 10.9326 27.1543C10.6035 27.9419 10.4328 28.7866 10.4302 29.6402V29.6402V35.7202" stroke="currentColor" stroke-linecap="round" stroke-linejoin="round"/>
<path d="M50.6802 19.0404C50.6802 19.8315 50.9148 20.6049 51.3543 21.2627C51.7938 21.9205 52.4185 22.4332 53.1494 22.7359C53.8803 23.0387 54.6846 23.1179 55.4605 22.9635C56.2365 22.8092 56.9492 22.4282 57.5086 21.8688C58.068 21.3094 58.449 20.5967 58.6033 19.8207C58.7577 19.0448 58.6784 18.2406 58.3757 17.5097C58.0729 16.7787 57.5603 16.154 56.9025 15.7145C56.2447 15.275 55.4713 15.0404 54.6802 15.0404C53.6474 15.0135 52.6462 15.3975 51.8963 16.108C51.1463 16.8186 50.709 17.7977 50.6802 18.8304V19.0604V19.0404Z" stroke="currentColor" stroke-linecap="round" stroke-linejoin="round"/>
<path d="M50.4702 24.6102C51.6208 23.6819 53.0519 23.1707 54.5302 23.1602V23.1602C55.3838 23.1576 56.2296 23.3231 57.0192 23.6473C57.8088 23.9715 58.5268 24.4481 59.1323 25.0498C59.7377 25.6516 60.2187 26.3666 60.5478 27.1543C60.8769 27.9419 61.0476 28.7866 61.0502 29.6402V29.6402V35.7202" stroke="currentColor" stroke-linecap="round" stroke-linejoin="round"/>
</svg>
