<svg width="72" height="72" viewBox="0 0 72 72" fill="none" xmlns="http://www.w3.org/2000/svg">
<path fill-rule="evenodd" clip-rule="evenodd" d="M36 6.5C19.7076 6.5 6.5 19.7076 6.5 36C6.5 52.2924 19.7076 65.5 36 65.5C52.2924 65.5 65.5 52.2924 65.5 36C65.5 19.7076 52.2924 6.5 36 6.5ZM5.5 36C5.5 19.1553 19.1553 5.5 36 5.5C52.8447 5.5 66.5 19.1553 66.5 36C66.5 52.8447 52.8447 66.5 36 66.5C19.1553 66.5 5.5 52.8447 5.5 36ZM38.8363 32.8502C41.005 31.7968 42.5 29.573 42.5 27C42.5 23.4101 39.5899 20.5 36 20.5C32.4101 20.5 29.5 23.4101 29.5 27C29.5 29.6429 31.0773 31.9174 33.3419 32.9334C28.8401 34.1758 25.5 38.265 25.5 43.1599V43.2601V52.7733C25.5 53.0494 25.7239 53.2733 26 53.2733C26.2761 53.2733 26.5 53.0494 26.5 52.7733V43.2601V43.1599C26.5 37.8347 30.8761 33.5459 36.2142 33.5459H36.3143C41.6396 33.5459 45.9284 37.922 45.9284 43.2601V52.7733C45.9284 53.0494 46.1522 53.2733 46.4284 53.2733C46.7045 53.2733 46.9284 53.0494 46.9284 52.7733V43.2601C46.9284 38.2506 43.4969 33.9973 38.8363 32.8502ZM30.5 27C30.5 23.9624 32.9624 21.5 36 21.5C39.0376 21.5 41.5 23.9624 41.5 27C41.5 30.0376 39.0376 32.5 36 32.5C32.9624 32.5 30.5 30.0376 30.5 27Z" fill="currentColor"/>
</svg>
