<svg width="72" height="72" viewBox="0 0 72 72" fill="none" xmlns="http://www.w3.org/2000/svg">
<path d="M42.9498 6.97228C44.0675 8.06173 44.0675 9.8274 42.9498 10.9168M28.5334 6.97228C27.4158 8.06173 27.4158 9.8274 28.5334 10.9168M48.1999 66.77L28.0168 53.9314L40.9118 44.6429M31.0692 44.6617L43.9735 53.9314L23.7905 66.7606L33.2857 37.9277M38.7047 37.9277L48.1999 66.7606M46.237 5C48.4722 7.1789 48.4722 10.7008 46.237 12.8797M25.7065 5C23.4712 7.1789 23.4712 10.7008 25.7065 12.8797M36.0281 13.1615V20.6749M32.8067 9.54564C32.8067 11.255 34.2342 12.6449 35.9905 12.6449C37.7468 12.6449 39.1743 11.255 39.1743 9.54564C39.1743 7.82694 37.7468 6.43695 35.9905 6.43695C34.2342 6.43695 32.8067 7.82694 32.8067 9.54564ZM33.2105 38.5194H38.8456V20.6749H33.2105V38.5194Z" stroke="currentColor" stroke-miterlimit="10" stroke-linecap="round" stroke-linejoin="round"/>
</svg>
