<svg width="72" height="72" viewBox="0 0 72 72" fill="none" xmlns="http://www.w3.org/2000/svg">
<path fill-rule="evenodd" clip-rule="evenodd" d="M4.90527 16.0957C4.90527 15.8196 5.12913 15.5957 5.40527 15.5957H31.6308C31.9069 15.5957 32.1308 15.8196 32.1308 16.0957V34.0431C32.1308 34.3193 31.9069 34.5431 31.6308 34.5431H5.40527C5.12913 34.5431 4.90527 34.3193 4.90527 34.0431V16.0957ZM5.90527 33.092V17.7596L18.4215 28.5454C18.6119 28.7095 18.8945 28.7067 19.0817 28.5389L31.1308 17.7343V32.9679L24.8216 26.8574C24.6233 26.6652 24.3067 26.6703 24.1146 26.8687C23.9225 27.067 23.9275 27.3836 24.1259 27.5757L30.2873 33.5431H6.90678L13.6226 27.6422C13.83 27.4599 13.8505 27.144 13.6682 26.9365C13.4859 26.7291 13.17 26.7087 12.9625 26.891L5.90527 33.092ZM6.08656 16.5957H30.9026L18.7413 27.501L6.08656 16.5957ZM40.1229 22.884C47.3653 15.6124 59.1303 15.5931 66.3918 22.8352L66.4164 22.8597L66.4414 22.8847C66.6367 23.08 66.9532 23.08 67.1485 22.8847C67.3438 22.6895 67.3438 22.3729 67.1485 22.1776L67.1235 22.1526L67.0985 22.1276L67.098 22.1271C59.445 14.4947 47.0465 14.5154 39.4144 22.1783C39.2195 22.374 39.2202 22.6906 39.4158 22.8854C39.6115 23.0803 39.9281 23.0797 40.1229 22.884ZM62.2877 25.7186C57.2977 20.7382 49.2161 20.7387 44.2366 25.7279C44.0415 25.9234 43.7249 25.9237 43.5295 25.7286C43.334 25.5335 43.3337 25.217 43.5288 25.0215C48.8993 19.6406 57.614 19.6411 62.9941 25.0108L62.9945 25.0112L63.0045 25.0212C63.1998 25.2165 63.1997 25.5331 63.0045 25.7283C62.8092 25.9235 62.4926 25.9235 62.2973 25.7282L62.2877 25.7186ZM47.6501 28.7207C50.7476 25.6137 55.7858 25.6129 58.8941 28.7212C59.0893 28.9165 59.4059 28.9165 59.6012 28.7212C59.7965 28.5259 59.7965 28.2093 59.6012 28.0141C56.103 24.5159 50.4308 24.5151 46.9419 28.0146C46.747 28.2102 46.7474 28.5268 46.943 28.7217C47.1386 28.9167 47.4551 28.9162 47.6501 28.7207ZM50.9139 31.7429C52.2092 30.439 54.3241 30.4373 55.6309 31.7441C55.8262 31.9394 56.1428 31.9394 56.338 31.7441C56.5333 31.5488 56.5333 31.2323 56.338 31.037C54.642 29.3409 51.8921 29.3392 50.2045 31.0382C50.0099 31.2341 50.0109 31.5507 50.2068 31.7453C50.4027 31.9399 50.7193 31.9388 50.9139 31.7429ZM53.3017 34.5031C53.4618 34.5031 53.5917 34.3733 53.5917 34.2131C53.5917 34.0529 53.4618 33.9231 53.3017 33.9231C53.1415 33.9231 53.0117 34.0529 53.0117 34.2131C53.0117 34.3733 53.1415 34.5031 53.3017 34.5031ZM52.5917 34.2131C52.5917 33.821 52.9095 33.5031 53.3017 33.5031C53.6938 33.5031 54.0117 33.821 54.0117 34.2131C54.0117 34.6052 53.6938 34.9231 53.3017 34.9231C52.9095 34.9231 52.5917 34.6052 52.5917 34.2131ZM61.1503 40.0581C61.3576 40.0494 61.5278 40.2067 61.5403 40.402V40.4294V51.1097C61.5403 51.3141 61.3738 51.4806 61.1695 51.4806H57.8663C57.5901 51.4806 57.3663 51.7044 57.3663 51.9806V54.9107L54.1493 51.6305C54.0553 51.5346 53.9266 51.4806 53.7923 51.4806H46.3113C46.1022 51.4741 45.9407 51.3126 45.9342 51.1035V40.4356C45.9408 40.2231 46.114 40.0585 46.3151 40.0585H61.1295C61.1364 40.0585 61.1433 40.0584 61.1503 40.0581ZM62.5399 40.3685C62.5083 39.6105 61.866 39.0336 61.1202 39.0585H46.3151C45.5565 39.0585 44.9499 39.6725 44.9343 40.4189L44.9342 40.4189V40.4294V51.1097H44.9341L44.9343 51.1202C44.9499 51.8686 45.5462 52.4649 46.2946 52.4805L46.2946 52.4806H46.305H53.5824L57.5093 56.4847C57.6515 56.6297 57.8674 56.6743 58.0554 56.5975C58.2434 56.5207 58.3663 56.3377 58.3663 56.1346V52.4806H61.1695C61.9261 52.4806 62.5403 51.8664 62.5403 51.1097V40.4294V40.3893C62.5403 40.3824 62.5402 40.3754 62.5399 40.3685ZM48.3365 47.3466V45.5839H50.0992V47.3466H48.3365ZM48.1569 44.5839C47.7005 44.5839 47.3365 44.9479 47.3365 45.4042V47.5263C47.3365 47.9826 47.7005 48.3466 48.1569 48.3466H50.2789C50.7352 48.3466 51.0992 47.9826 51.0992 47.5263V45.4042C51.0992 44.9479 50.7352 44.5839 50.2789 44.5839H48.1569ZM52.8409 45.5839V47.3466H54.6036V45.5839H52.8409ZM51.8409 45.4042C51.8409 44.9479 52.2049 44.5839 52.6613 44.5839H54.7833C55.2396 44.5839 55.6036 44.9479 55.6036 45.4042V47.5263C55.6036 47.9826 55.2396 48.3466 54.7833 48.3466H52.6613C52.2049 48.3466 51.8409 47.9826 51.8409 47.5263V45.4042ZM57.3352 47.3466V45.5839H59.0979V47.3466H57.3352ZM57.1555 44.5839C56.6992 44.5839 56.3352 44.9479 56.3352 45.4042V47.5263C56.3352 47.9826 56.6992 48.3466 57.1555 48.3466H59.2776C59.7339 48.3466 60.0979 47.9826 60.0979 47.5263V45.4042C60.0979 44.9479 59.7339 44.5839 59.2776 44.5839H57.1555ZM6.5 47.4954C6.5 44.7386 8.73854 42.5001 11.4953 42.5001C14.2522 42.5001 16.4907 44.7386 16.4907 47.4954C16.4907 50.2522 14.2522 52.4907 11.4953 52.4907C8.73854 52.4907 6.5 50.2522 6.5 47.4954ZM11.4953 41.5001C8.18625 41.5001 5.5 44.1863 5.5 47.4954C5.5 50.5303 7.75946 53.0412 10.6866 53.4366C10.7588 53.477 10.842 53.5001 10.9307 53.5001H26.1154C26.1492 53.5001 26.1822 53.4967 26.2141 53.4903C26.2379 53.4906 26.2617 53.4907 26.2855 53.4907C29.5946 53.4907 32.2808 50.8045 32.2808 47.4954C32.2808 44.1863 29.5946 41.5001 26.2855 41.5001C22.9764 41.5001 20.2902 44.1863 20.2902 47.4954C20.2902 49.5853 21.3617 51.4268 22.9849 52.5001H14.796C16.4192 51.4268 17.4907 49.5853 17.4907 47.4954C17.4907 44.1863 14.8044 41.5001 11.4953 41.5001ZM21.2902 47.4954C21.2902 44.7386 23.5287 42.5001 26.2855 42.5001C29.0423 42.5001 31.2808 44.7386 31.2808 47.4954C31.2808 50.2522 29.0423 52.4907 26.2855 52.4907C23.5287 52.4907 21.2902 50.2522 21.2902 47.4954Z" fill="currentColor"/>
</svg>
