<svg width="72" height="72" viewBox="0 0 72 72" fill="none" xmlns="http://www.w3.org/2000/svg">
<path fill-rule="evenodd" clip-rule="evenodd" d="M15.427 16.3191C26.3654 8.34528 41.7007 10.7978 49.5738 21.7384C49.7351 21.9626 49.6842 22.275 49.46 22.4363C49.2359 22.5976 48.9234 22.5467 48.7621 22.3225C41.2139 11.8334 26.5074 9.47923 16.016 17.1271C5.524 24.7756 3.2701 39.384 10.8187 49.7756C18.3688 60.1693 33.0772 62.6188 43.5661 54.9727C48.6671 51.2449 52.097 45.656 52.9788 39.3851C53.0173 39.1116 53.2701 38.9211 53.5436 38.9596C53.817 38.998 54.0075 39.2509 53.9691 39.5243C53.0485 46.0709 49.4687 51.8978 44.1556 55.7805L44.1551 55.7808C33.2142 63.7565 17.8809 61.1991 10.0096 50.3633C2.13677 39.5253 4.48926 24.2924 15.427 16.3191ZM22.562 22.1734C29.2541 18.6818 37.5029 20.5225 42.1635 26.5424C42.3325 26.7608 42.6466 26.8007 42.8649 26.6317C43.0833 26.4626 43.1232 26.1486 42.9542 25.9302C38.0015 19.533 29.227 17.5684 22.0999 21.2865C13.9456 25.5189 10.7438 35.5333 14.9774 43.6906C19.2095 51.8453 29.2242 55.0473 37.3816 50.8136C42.4857 48.1647 45.6495 43.2504 46.2643 37.9441L58.4925 38.9746L60.4543 42.1134C60.4698 42.1394 60.4876 42.164 60.5074 42.1867C60.5352 42.2186 60.5665 42.2464 60.6003 42.2697C60.6664 42.3154 60.7444 42.3457 60.8292 42.355C60.8392 42.3561 60.8492 42.3569 60.8593 42.3574L67.2381 42.7556C67.3424 42.7672 67.4512 42.7462 67.5484 42.6885C67.7335 42.5786 67.8218 42.3681 67.7851 42.1681C67.7733 42.1035 67.7491 42.043 67.7148 41.9893L66.0147 39.126L68.1546 36.8969C68.2469 36.8008 68.2931 36.6773 68.2939 36.5537C68.296 36.2898 68.0911 36.0674 67.8245 36.051L64.8141 35.866C64.7524 35.8502 64.6883 35.8464 64.6256 35.8544L61.3192 35.6513C61.313 35.6508 61.3068 35.6505 61.3006 35.6503C61.2289 35.648 61.1601 35.661 61.0973 35.6865C61.0418 35.7089 60.9896 35.7416 60.9436 35.7846C60.9357 35.792 60.928 35.7996 60.9206 35.8075L58.8173 37.9984L46.3493 36.9478C46.5071 34.0847 45.9233 31.1428 44.5047 28.4093C44.3775 28.1642 44.0757 28.0687 43.8306 28.1959C43.5855 28.3231 43.4899 28.6249 43.6171 28.87C44.9451 31.4288 45.4947 34.1825 45.3522 36.8637L38.1165 36.254C38.1408 35.161 37.9485 34.0431 37.5154 32.9602C37.4128 32.7038 37.1218 32.5791 36.8654 32.6817C36.609 32.7842 36.4843 33.0752 36.5869 33.3316C36.9604 34.2654 37.1306 35.2278 37.1178 36.1698L31.3003 35.6796L54.6177 20.8835L57.8878 22.1916C57.9008 22.197 57.914 22.2018 57.9274 22.2061C58.0692 22.2518 58.2185 22.2306 58.3387 22.1582C58.3468 22.1533 58.3549 22.1481 58.3628 22.1427L63.76 18.5446C63.8129 18.5103 63.8597 18.4658 63.8971 18.4126C63.924 18.3743 63.9451 18.3327 63.9602 18.2892C63.9876 18.2103 63.9942 18.129 63.9825 18.0514C63.9744 17.9962 63.9568 17.9417 63.9293 17.8902C63.8912 17.8184 63.8354 17.7556 63.7653 17.7089C63.733 17.6874 63.6985 17.6699 63.6625 17.6565L60.6239 16.4947L60.9773 13.3983C60.9968 13.2781 60.9727 13.1504 60.8997 13.041C60.8064 12.9011 60.6547 12.8233 60.4985 12.8186C60.4868 12.8182 60.4751 12.8183 60.4636 12.8187C60.3633 12.8225 60.2692 12.8564 60.1913 12.9124L54.8153 16.4964C54.6928 16.5711 54.6033 16.6977 54.5808 16.8507L54.1157 20.0177L29.6733 35.5276C29.6557 35.5388 29.639 35.5509 29.6232 35.5639C29.4198 35.6131 29.2613 35.7879 29.2428 36.008C29.2196 36.2831 29.4238 36.525 29.699 36.5482L37.0353 37.1664C36.661 39.6187 35.0413 41.803 32.5595 42.7957C28.8074 44.2966 24.5938 42.5146 23.0953 38.7683C21.5945 35.0162 23.3765 30.8027 27.1228 29.3042C29.9317 28.1806 33.1214 28.9279 35.1877 31.0882C35.3786 31.2877 35.6951 31.2948 35.8947 31.1039C36.0942 30.913 36.1012 30.5965 35.9104 30.397C33.5706 27.9508 29.9508 27.0959 26.7514 28.3757C22.4865 30.0816 20.4632 34.8806 22.1669 39.1397C23.8728 43.4045 28.6718 45.4278 32.9308 43.7242C35.7788 42.585 37.6273 40.0665 38.0337 37.2505L45.2671 37.8601C44.681 42.8352 41.7102 47.4405 36.921 49.9261C29.2565 53.9038 19.8441 50.8972 15.8649 43.2299C11.8871 35.5654 14.8938 26.1531 22.5611 22.1739L22.562 22.1734ZM66.3801 41.7001L65.092 39.5307L63.1892 39.3704L64.5469 41.5857L66.3801 41.7001ZM63.3274 41.5095L61.9524 39.2662L59.7373 39.0795L61.172 41.375L63.3274 41.5095ZM64.8818 36.8721L66.6858 36.9829L65.195 38.5359L63.4275 38.3869L64.8818 36.8721ZM61.4852 36.6633L63.5728 36.7916L62.145 38.2789L60.0998 38.1065L61.4852 36.6633ZM51.1077 24.192C50.9741 23.9503 50.6699 23.8626 50.4282 23.9962C50.1865 24.1298 50.0989 24.434 50.2325 24.6757C52.294 28.4061 53.3706 32.6211 53.1748 36.9285C53.1622 37.2044 53.3757 37.4381 53.6516 37.4507C53.9274 37.4632 54.1612 37.2498 54.1737 36.9739C54.3785 32.469 53.252 28.0721 51.1077 24.192ZM57.5408 19.0286L55.6587 20.2229L58.0219 21.1681L59.8473 19.9512L57.5408 19.0286ZM60.139 17.3799L62.4048 18.2462L60.857 19.278L58.5819 18.368L60.139 17.3799ZM59.8642 14.3323L58.3518 15.3406L58.0188 17.5409L59.6135 16.529L59.8642 14.3323ZM57.2269 16.0905L55.5378 17.2166L55.2303 19.3104L56.9 18.2509L57.2269 16.0905Z" fill="currentColor"/>
</svg>
