<svg width="72" height="72" viewBox="0 0 72 72" fill="none" xmlns="http://www.w3.org/2000/svg">
<path fill-rule="evenodd" clip-rule="evenodd" d="M40.456 7.61133L40.4532 7.61134L22.9317 7.71147L22.9302 7.71147C19.7387 7.71202 16.7649 9.51939 15.2778 12.3874L15.2777 12.3874L15.2735 12.3959L5.76126 31.6207L5.76078 31.6216C4.58982 33.9643 4.59228 36.8242 5.75151 39.2577L13.6574 58.372C13.6601 58.3785 13.663 58.385 13.666 58.3914C15.0532 61.3793 18.0373 63.1849 21.3234 63.1871L38.4416 63.5876L38.4416 63.5877H38.4533C38.6745 63.5877 38.8897 63.5795 39.0992 63.5631C39.165 63.5846 39.2363 63.5928 39.3096 63.5846C44.753 62.9798 50.1941 61.7705 55.432 60.0581C55.4554 60.0504 55.4782 60.041 55.5002 60.03C56.6079 59.4762 57.4884 58.4888 57.9355 57.3861L66.5378 40.3815L66.5379 40.3816L66.5427 40.3716C67.7095 37.9319 67.7095 35.0696 66.5427 32.63C66.5379 32.62 66.5328 32.6102 66.5274 32.6006L59.3231 19.7928C59.1097 19.3715 58.7386 18.9304 58.286 18.4867C57.823 18.033 57.2462 17.5493 56.5969 17.0499C55.2984 16.051 53.6787 14.9653 52.0307 13.9C51.2056 13.3667 50.3707 12.8368 49.563 12.3241L49.5582 12.3211C48.7515 11.809 47.9725 11.3146 47.2542 10.8492C46.1566 10.1381 45.2202 9.50707 44.5511 8.99458C44.4707 8.9191 44.3884 8.84649 44.3038 8.77683C44.2067 8.69687 44.1072 8.62121 44.0051 8.54978C44.0009 8.54609 43.9968 8.54241 43.9927 8.53874C43.9543 8.50464 43.9121 8.47752 43.8678 8.45728C42.9794 7.88191 41.8932 7.61134 40.456 7.61133ZM43.3899 9.34031C42.6923 8.86688 41.7953 8.61152 40.4575 8.61134L40.456 8.61134L22.9346 8.71147L22.9317 8.71147C20.117 8.71147 17.4849 10.307 16.1677 12.8436L6.65662 32.066L6.65569 32.0679C5.62604 34.1272 5.62175 36.6687 6.65954 38.8386C6.66342 38.8467 6.66707 38.8549 6.67051 38.8632L14.5774 57.9798C15.7948 60.5923 18.4129 62.1871 21.3295 62.1871H21.3412L21.3412 62.1873L38.459 62.5877C39.8603 62.5867 40.925 62.2155 41.8035 61.5398C42.6952 60.8538 43.4299 59.8273 44.1145 58.458C44.1172 58.4526 44.12 58.4473 44.1229 58.442L54.8334 38.8227C55.8591 36.7649 55.862 34.2272 54.8256 32.06L54.8235 32.0557L45.7137 12.5347C45.0872 11.2823 44.5518 10.38 43.9002 9.75538C43.7107 9.6092 43.5397 9.47051 43.3899 9.34031ZM46.2473 11.3868C46.3686 11.6141 46.4893 11.8499 46.6112 12.0936L46.6172 12.1057L46.6171 12.1057L55.7277 31.6286L55.7288 31.6308C56.893 34.0668 56.8969 36.9318 55.7238 39.2779C55.7211 39.2833 55.7184 39.2886 55.7155 39.2939L45.0049 58.9133C44.348 60.2256 43.6069 61.3214 42.6717 62.1225C46.8662 61.4579 51.0359 60.4411 55.085 59.1194C55.9583 58.6722 56.6631 57.8748 57.0154 56.9938C57.0209 56.9802 57.0269 56.9668 57.0335 56.9538L65.6429 39.9352C66.6745 37.7744 66.6761 35.2381 65.6476 33.0761L58.4458 20.273C58.4436 20.269 58.4414 20.265 58.4393 20.2609C58.4376 20.2578 58.436 20.2547 58.4344 20.2515C58.2963 19.9753 58.016 19.6224 57.586 19.2009C57.1622 18.7855 56.6194 18.3288 55.9872 17.8425C54.7229 16.8699 53.1319 15.8026 51.4878 14.7399C50.6668 14.2092 49.8354 13.6814 49.0271 13.1684L49.02 13.1639C48.215 12.653 47.4327 12.1564 46.7104 11.6885C46.5535 11.5868 46.3989 11.4862 46.2473 11.3868Z" fill="currentColor"/>
</svg>
