<svg width="72" height="72" viewBox="0 0 72 72" fill="none" xmlns="http://www.w3.org/2000/svg">
<path d="M36.4505 57.9802V65.3905M36.1501 6.10742C35.4491 6.10742 28.0389 16.2215 28.0389 25.1338C28.0389 34.0462 32.3448 34.7472 33.0458 45.4621C33.0458 45.8626 33.0458 47.2646 33.0458 47.2646C33.0458 47.9656 32.8455 48.3661 32.445 48.3661C32.0444 48.3661 31.8441 47.9656 31.8441 47.2646C31.8441 41.9572 30.4422 38.8529 28.0389 36.049C24.8344 32.2437 21.2294 31.0421 16.5229 31.0421C10.8149 31.0421 6.1084 34.2465 6.1084 40.0546C6.1084 45.5622 12.6174 50.1686 17.5243 50.1686C17.9248 50.1686 16.7231 45.6624 21.1293 45.6624C24.534 45.6624 28.0389 50.3689 28.0389 53.5733C28.0389 54.4746 27.5382 54.9753 26.8372 54.9753H24.0333C23.3323 54.9753 22.8316 55.476 22.7315 56.177V57.1784C22.7315 57.8793 23.3323 58.0796 23.9332 58.0796M36.1501 5.60742C36.8511 5.60742 44.1612 15.7215 44.1612 24.6338C44.1612 33.5462 39.8553 34.2472 39.1543 44.9621C39.1543 45.3626 39.1543 46.7646 39.1543 46.7646C39.1543 47.4656 39.3546 47.8661 39.7551 47.8661C40.1557 47.8661 40.3559 47.4656 40.3559 46.7646C40.3559 41.4572 41.7579 38.3529 44.1612 35.549C47.3657 31.7437 50.9707 30.5421 55.6772 30.5421C61.3852 30.5421 66.0917 33.7465 66.0917 39.5546C66.0917 44.9621 59.5826 49.6686 54.6758 49.6686C54.2753 49.6686 55.4769 45.1624 51.0708 45.1624C47.7662 45.1624 44.1612 49.8689 44.1612 53.0733C44.1612 53.8745 44.6619 54.5754 45.3629 54.8759H48.1668C49.1682 54.8759 49.4686 55.3765 49.4686 56.0775V56.7785C49.4686 57.4795 48.8678 57.9802 48.2669 58.0803H23.6327" stroke="currentColor" stroke-linecap="round" stroke-linejoin="round"/>
</svg>
