<svg width="72" height="72" viewBox="0 0 72 72" fill="none" xmlns="http://www.w3.org/2000/svg">
<path fill-rule="evenodd" clip-rule="evenodd" d="M28.0352 6C28.0352 5.72386 28.259 5.5 28.5352 5.5H43.4629C43.7391 5.5 43.9629 5.72386 43.9629 6V66C43.9629 66.2762 43.7391 66.5 43.4629 66.5H28.5352C28.259 66.5 28.0352 66.2762 28.0352 66V6ZM29.4076 6.5L30.2864 8H41.7132L42.591 6.5H29.4076ZM42.9629 7.8443L42.4314 8.75254C42.3417 8.90581 42.1775 9 41.9999 9H29.9999C29.8224 9 29.6582 8.9059 29.5685 8.75276L29.0352 7.84249V65.5H42.9629V7.8443ZM33.4286 13.3195C33.4286 13.0433 33.6524 12.8195 33.9286 12.8195H37.8772C38.1534 12.8195 38.3772 13.0433 38.3772 13.3195C38.3772 13.5956 38.1534 13.8195 37.8772 13.8195H33.9286C33.6524 13.8195 33.4286 13.5956 33.4286 13.3195ZM31.9061 43.1565C31.63 43.1565 31.4061 43.3804 31.4061 43.6565C31.4061 43.9326 31.63 44.1565 31.9061 44.1565H32.6766C32.9527 44.1565 33.1766 43.9326 33.1766 43.6565C33.1766 43.3804 32.9527 43.1565 32.6766 43.1565H31.9061ZM35.0658 43.6565C35.0658 43.3804 35.2897 43.1565 35.5658 43.1565H36.3363C36.6124 43.1565 36.8363 43.3804 36.8363 43.6565C36.8363 43.9326 36.6124 44.1565 36.3363 44.1565H35.5658C35.2897 44.1565 35.0658 43.9326 35.0658 43.6565ZM39.3218 43.1565C39.0456 43.1565 38.8218 43.3804 38.8218 43.6565C38.8218 43.9326 39.0456 44.1565 39.3218 44.1565H40.0922C40.3684 44.1565 40.5922 43.9326 40.5922 43.6565C40.5922 43.3804 40.3684 43.1565 40.0922 43.1565H39.3218ZM31.406 48.9535C31.406 48.6773 31.6299 48.4535 31.906 48.4535H32.6765C32.9526 48.4535 33.1765 48.6773 33.1765 48.9535C33.1765 49.2296 32.9526 49.4535 32.6765 49.4535H31.906C31.6299 49.4535 31.406 49.2296 31.406 48.9535ZM35.5657 48.4535C35.2895 48.4535 35.0657 48.6773 35.0657 48.9535C35.0657 49.2296 35.2895 49.4535 35.5657 49.4535H36.3361C36.6123 49.4535 36.8361 49.2296 36.8361 48.9535C36.8361 48.6773 36.6123 48.4535 36.3361 48.4535H35.5657ZM38.8217 48.9535C38.8217 48.6773 39.0455 48.4535 39.3217 48.4535H40.0921C40.3683 48.4535 40.5921 48.6773 40.5921 48.9535C40.5921 49.2296 40.3683 49.4535 40.0921 49.4535H39.3217C39.0455 49.4535 38.8217 49.2296 38.8217 48.9535ZM31.906 53.8467C31.6299 53.8467 31.406 54.0706 31.406 54.3467C31.406 54.6229 31.6299 54.8467 31.906 54.8467H32.6765C32.9526 54.8467 33.1765 54.6229 33.1765 54.3467C33.1765 54.0706 32.9526 53.8467 32.6765 53.8467H31.906ZM35.0657 54.3467C35.0657 54.0706 35.2895 53.8467 35.5657 53.8467H36.3361C36.6123 53.8467 36.8361 54.0706 36.8361 54.3467C36.8361 54.6229 36.6123 54.8467 36.3361 54.8467H35.5657C35.2895 54.8467 35.0657 54.6229 35.0657 54.3467ZM39.3217 53.8467C39.0455 53.8467 38.8217 54.0706 38.8217 54.3467C38.8217 54.6229 39.0455 54.8467 39.3217 54.8467H40.0921C40.3683 54.8467 40.5921 54.6229 40.5921 54.3467C40.5921 54.0706 40.3683 53.8467 40.0921 53.8467H39.3217ZM35.0658 59.5474C35.0658 59.2712 35.2897 59.0474 35.5658 59.0474H36.3363C36.6124 59.0474 36.8363 59.2712 36.8363 59.5474C36.8363 59.8235 36.6124 60.0474 36.3363 60.0474H35.5658C35.2897 60.0474 35.0658 59.8235 35.0658 59.5474ZM34.8137 36.915C34.8137 36.2869 35.3229 35.7777 35.951 35.7777C36.579 35.7777 37.0882 36.2869 37.0882 36.915C37.0882 37.543 36.579 38.0522 35.951 38.0522C35.3229 38.0522 34.8137 37.543 34.8137 36.915ZM35.951 34.7777C34.7706 34.7777 33.8137 35.7346 33.8137 36.915C33.8137 38.0953 34.7706 39.0522 35.951 39.0522C37.1313 39.0522 38.0882 38.0953 38.0882 36.915C38.0882 35.7346 37.1313 34.7777 35.951 34.7777Z" fill="currentColor"/>
</svg>
