<svg width="24" height="24" viewBox="0 0 24 24" fill="none" xmlns="http://www.w3.org/2000/svg">
<path fill-rule="evenodd" clip-rule="evenodd" d="M13 3.5C8.29146 3.5 4.50004 7.29143 4.50004 12V12.7929L2.35355 10.6464C2.15829 10.4512 1.84171 10.4512 1.64645 10.6464C1.45118 10.8417 1.45118 11.1583 1.64645 11.3536L4.64645 14.3536C4.74021 14.4473 4.86739 14.5 5 14.5C5.13261 14.5 5.25979 14.4473 5.35355 14.3536L8.35355 11.3536C8.54882 11.1583 8.54882 10.8417 8.35355 10.6464C8.15829 10.4512 7.84171 10.4512 7.64645 10.6464L5.50004 12.7929V12C5.50004 7.84371 8.84375 4.5 13 4.5C17.1563 4.5 20.5 7.84371 20.5 12C20.5 16.1563 17.1563 19.5 13 19.5C10.9792 19.5 9.15803 18.6941 7.73197 17.2681C7.53671 17.0728 7.22012 17.0728 7.02486 17.2681C6.8296 17.4633 6.8296 17.7799 7.02486 17.9752C8.62583 19.5761 10.6966 20.5 13 20.5C17.7086 20.5 21.5 16.7086 21.5 12C21.5 7.29143 17.7086 3.5 13 3.5Z" fill="currentColor"/>
</svg>
