<svg width="72" height="72" viewBox="0 0 72 72" fill="none" xmlns="http://www.w3.org/2000/svg">
<path fill-rule="evenodd" clip-rule="evenodd" d="M39.8894 10.4735C40.0528 10.5602 40.1549 10.7301 40.1549 10.915V31.4435V38.253V58.7815C40.1549 58.9665 40.0528 59.1363 39.8894 59.2231C39.7261 59.3098 39.5282 59.2994 39.3749 59.1958L20.9761 46.7641H5.20703C4.93089 46.7641 4.70703 46.5403 4.70703 46.2641V34.8483V23.4324C4.70703 23.1563 4.93089 22.9324 5.20703 22.9324H20.9761L39.3749 10.5007C39.5282 10.3972 39.7261 10.3867 39.8894 10.4735ZM39.1549 38.253V31.4435V11.8563L21.8295 23.5627V46.1339L39.1549 57.8402V38.253ZM20.8295 23.9324H5.70703V34.8483V45.7641H20.8295V23.9324ZM59.9485 16.2822C59.7603 16.0801 59.4439 16.0689 59.2418 16.2571C59.0397 16.4453 59.0285 16.7617 59.2167 16.9637C68.5502 26.985 68.5525 42.5107 59.215 52.6345C59.0278 52.8374 59.0406 53.1538 59.2436 53.341C59.4466 53.5282 59.7629 53.5154 59.9501 53.3124C69.6391 42.8076 69.6414 26.6893 59.9485 16.2822ZM51.2394 26.1992C51.053 25.9955 50.7367 25.9814 50.533 26.1678C50.3292 26.3542 50.3152 26.6705 50.5016 26.8743C54.6328 31.3897 54.6328 38.2067 50.5016 42.7222C50.3152 42.9259 50.3292 43.2422 50.533 43.4286C50.7367 43.615 51.053 43.6009 51.2394 43.3972C55.7202 38.4996 55.7202 31.0968 51.2394 26.1992Z" fill="currentColor"/>
</svg>
