<svg width="72" height="72" viewBox="0 0 72 72" fill="none" xmlns="http://www.w3.org/2000/svg">
<path fill-rule="evenodd" clip-rule="evenodd" d="M40.2858 9.98222C40.4457 10.0673 40.5456 10.2337 40.5456 10.4148V31.1436V38.1533V58.8821C40.5456 59.0633 40.4457 59.2296 40.2858 59.3147C40.1259 59.3998 39.9321 59.3897 39.7818 59.2885L21.18 46.7546H5.30738C5.03676 46.7546 4.81738 46.5352 4.81738 46.2646V34.6485V23.0323C4.81738 22.7617 5.03676 22.5423 5.30738 22.5423H21.18L39.7818 10.0084C39.9321 9.90722 40.1259 9.89714 40.2858 9.98222ZM39.5656 38.1533V31.1436V11.3358L22.0199 23.1581V46.1389L39.5656 57.9611V38.1533ZM21.0399 23.5223H5.79738V34.6485V45.7746H21.0399V23.5223ZM49.8239 25.1983C49.6375 25.0021 49.3273 24.9942 49.1312 25.1806C48.935 25.367 48.9271 25.6772 49.1135 25.8733L57.4047 34.5984L49.1135 43.3234C48.9271 43.5196 48.935 43.8298 49.1312 44.0162C49.3273 44.2026 49.6375 44.1947 49.8239 43.9985L58.0807 35.3097L66.3374 43.9985C66.5238 44.1947 66.834 44.2026 67.0302 44.0162C67.2263 43.8298 67.2342 43.5196 67.0478 43.3234L58.7566 34.5984L67.0478 25.8733C67.2342 25.6772 67.2263 25.367 67.0302 25.1806C66.834 24.9942 66.5238 25.0021 66.3374 25.1983L58.0807 33.8871L49.8239 25.1983Z" fill="currentColor"/>
</svg>
