<svg width="72" height="72" viewBox="0 0 72 72" fill="none" xmlns="http://www.w3.org/2000/svg">
<path fill-rule="evenodd" clip-rule="evenodd" d="M9.10059 8.5C8.82444 8.5 8.60059 8.72386 8.60059 9V62.9199C8.60059 63.196 8.82444 63.4199 9.10059 63.4199H63.0205C63.2966 63.4199 63.5205 63.196 63.5205 62.9199V9C63.5205 8.72386 63.2966 8.5 63.0205 8.5H9.10059ZM9.60059 62.4199V9.5H62.5205V62.4199H9.60059ZM25.7015 22.8339C25.4779 22.7086 25.1958 22.7726 25.0482 22.9822C24.9007 23.1917 24.9354 23.4789 25.1287 23.6472L39.7814 36.402L24.9904 49.1068C24.796 49.2738 24.7593 49.5606 24.9053 49.7711C25.0513 49.9816 25.3328 50.0477 25.5573 49.9242L49.2292 36.8954C49.3883 36.8078 49.4874 36.6408 49.4881 36.4592C49.4888 36.2776 49.391 36.1099 49.2326 36.0211L25.7015 22.8339ZM40.8741 36.0274L29.4436 26.0773L47.9583 36.4534L29.3019 46.7217L40.8716 36.7838C40.9817 36.6892 41.0453 36.5513 41.0458 36.4061C41.0463 36.2609 40.9836 36.1227 40.8741 36.0274Z" fill="currentColor"/>
</svg>
