<svg width="72" height="72" viewBox="0 0 72 72" fill="none" xmlns="http://www.w3.org/2000/svg">
<path fill-rule="evenodd" clip-rule="evenodd" d="M13.4318 28.4385L13.4331 28.4385H58.4769H58.4777C59.6286 28.4404 60.7392 28.8623 61.601 29.6251L61.2696 29.9995L61.6036 29.6274L61.6038 29.6276L61.6045 29.6282L61.6072 29.6307L61.6181 29.6405L61.6606 29.6786L61.8219 29.8235C61.9608 29.9484 62.1595 30.1272 62.3984 30.3426C62.8763 30.7733 63.5153 31.3506 64.1598 31.9369C64.804 32.5228 65.4549 33.1189 65.9561 33.5866C66.2063 33.8201 66.4213 34.0236 66.5802 34.1786C66.6592 34.2558 66.7272 34.3237 66.7796 34.3787L66.7813 34.3804C66.8175 34.4184 66.8883 34.4925 66.9321 34.5647C66.9383 34.575 66.9442 34.5854 66.9496 34.5961C67.1018 34.8928 67.1811 35.2215 67.1811 35.5549C67.1811 35.884 67.1038 36.2084 66.9556 36.5021C66.877 36.6733 66.604 37.1765 66.2589 37.8023C65.8954 38.4616 65.4328 39.2911 64.9778 40.1034C64.5227 40.9159 64.0749 41.7121 63.7408 42.3051C63.5738 42.6016 63.4352 42.8473 63.3384 43.0189L63.2261 43.2179L63.1965 43.2702L63.1889 43.2836L63.187 43.287L63.1865 43.2879L63.1864 43.2881L62.751 43.0422L63.1864 43.2882L63.1806 43.2981L63.1735 43.3097C62.9489 43.6643 62.6387 43.9568 62.2714 44.1601C61.9042 44.3634 61.4916 44.4711 61.0718 44.4731L61.0694 44.4731H35.1042V44.4331H33.5126H33.5022L33.4973 44.4331H10.9985C10.5757 44.4455 10.1567 44.3505 9.78053 44.157C9.4018 43.9622 9.07908 43.6739 8.84294 43.3194C8.83615 43.3092 8.82974 43.2988 8.82372 43.2882L9.25904 43.0422L8.82368 43.2881L8.82356 43.2879L8.82308 43.287L8.82117 43.2836L8.8136 43.2702L8.78404 43.2179L8.6714 43.0186L8.2657 42.3007C7.92789 41.7029 7.47246 40.8972 7.00203 40.0652C6.06156 38.4018 5.0624 36.6358 4.8217 36.2146C4.60107 35.833 4.53338 35.3819 4.63231 34.9523C4.72831 34.5354 4.97424 34.169 5.32249 33.9223C5.65253 33.6208 6.87599 32.5665 8.01877 31.5857C8.61024 31.0781 9.18446 30.5865 9.61078 30.2219L10.1231 29.7838L10.2655 29.6622L10.3029 29.6302L10.3124 29.6221L10.3126 29.6219C11.1742 28.8621 12.2829 28.4414 13.4318 28.4385ZM61.0681 43.4731H42.1637L65.4299 37.2348L65.3832 37.3195C65.0213 37.9759 64.56 38.803 64.1053 39.6148C63.6508 40.4263 63.2033 41.2217 62.8695 41.8143C62.7027 42.1105 62.5642 42.3561 62.4674 42.5275L62.3553 42.7262L62.3258 42.7784L62.3223 42.7845C62.188 42.993 62.0042 43.1651 61.7871 43.2852C61.5669 43.4071 61.3197 43.4717 61.0681 43.4731ZM66.124 35.9051C66.1101 35.9464 66.0938 35.987 66.075 36.0265L38.4516 43.4331L36.9159 43.4331H33.5678L5.85813 36.014C5.84232 35.9862 5.82725 35.9596 5.81295 35.9345L66.124 35.9051ZM65.8929 34.9052L5.71064 34.9345C5.76402 34.8537 5.83318 34.7834 5.91492 34.7284C5.93632 34.7139 5.95657 34.6979 5.97549 34.6803C6.24158 34.4336 7.48186 33.3643 8.67003 32.3446C9.26096 31.8375 9.83474 31.3462 10.2608 30.9818L10.7727 30.5441L10.915 30.4225L10.9523 30.3906L10.9619 30.3825L10.9643 30.3804L10.9649 30.3799L10.965 30.3798L10.6404 29.9995L10.9651 30.3798L10.9714 30.3742C11.6513 29.7735 12.5266 29.4409 13.4338 29.4385H58.4765C59.3836 29.4401 60.2589 29.7727 60.9382 30.3739L60.9393 30.3749L60.9501 30.3846L60.9924 30.4226L61.1533 30.5672C61.292 30.6918 61.4903 30.8703 61.7289 31.0853C62.2061 31.5155 62.8439 32.0917 63.4869 32.6766C64.1302 33.2618 64.7774 33.8544 65.2738 34.3177C65.5223 34.5496 65.7309 34.7471 65.8816 34.8942C65.8854 34.8979 65.8892 34.9016 65.8929 34.9052ZM6.54965 37.2344L29.7014 43.4331H10.9907L10.9743 43.4333C10.7188 43.4417 10.4653 43.3847 10.238 43.2678C10.0157 43.1534 9.82554 42.9854 9.68468 42.7791L9.68424 42.7783L9.65467 42.726L9.54202 42.5266L9.13629 41.8087C8.79845 41.2109 8.34299 40.4051 7.87251 39.573C7.41444 38.7628 6.94182 37.9272 6.54965 37.2344ZM37.7367 32.4619C37.7367 32.6053 37.6798 32.7428 37.5784 32.8441C37.4771 32.9455 37.3396 33.0024 37.1962 33.0024H34.6938C34.5521 33.0025 34.4162 32.9469 34.3151 32.8477C34.214 32.7485 34.1559 32.6135 34.1533 32.4719C34.1559 32.3303 34.214 32.1954 34.3151 32.0962C34.4162 31.997 34.5521 31.9414 34.6938 31.9414H37.1962C37.3362 31.9413 37.4707 31.9955 37.5715 32.0926C37.6723 32.1897 37.7316 32.3221 37.7367 32.4619Z" fill="currentColor"/>
</svg>
