<svg width="72" height="72" viewBox="0 0 72 72" fill="none" xmlns="http://www.w3.org/2000/svg">
<path fill-rule="evenodd" clip-rule="evenodd" d="M44.7622 5.50684C32.8158 5.50684 23.1314 15.1912 23.1314 27.1376C23.1314 33.0423 25.4974 38.3944 29.333 42.2977C29.3915 42.3221 29.4464 42.3581 29.494 42.4057C29.5417 42.4534 29.5777 42.5082 29.6021 42.5668C33.5053 46.4024 38.8574 48.7683 44.7622 48.7683C56.7085 48.7683 66.3929 39.0839 66.3929 27.1376C66.3929 15.1912 56.7085 5.50684 44.7622 5.50684ZM29.1173 43.4896C33.1813 47.379 38.6927 49.7683 44.7622 49.7683C57.2608 49.7683 67.3929 39.6362 67.3929 27.1376C67.3929 14.639 57.2608 4.50684 44.7622 4.50684C32.2636 4.50684 22.1314 14.639 22.1314 27.1376C22.1314 33.207 24.5208 38.7184 28.4102 42.7825L4.95382 66.2388C4.75856 66.4341 4.75856 66.7507 4.95382 66.9459C5.14908 67.1412 5.46566 67.1412 5.66093 66.9459L29.1173 43.4896ZM45.5633 10.5138C36.4264 10.5138 28.9395 18.0006 28.9395 27.1376C28.9395 27.4137 28.7156 27.6376 28.4395 27.6376C28.1634 27.6376 27.9395 27.4137 27.9395 27.1376C27.9395 17.4484 35.8741 9.51379 45.5633 9.51379C45.8394 9.51379 46.0633 9.73765 46.0633 10.0138C46.0633 10.2899 45.8394 10.5138 45.5633 10.5138Z" fill="currentColor"/>
</svg>
