<svg width="72" height="72" viewBox="0 0 72 72" fill="none" xmlns="http://www.w3.org/2000/svg">
<path d="M67.1933 28.3398C66.993 27.8391 66.6926 27.8391 66.1919 27.8391L44.1613 27.739C43.7607 27.739 43.5605 27.6388 43.4603 27.2383C42.2587 23.5331 41.057 19.828 39.8553 16.1228L36.751 6.60962C36.6509 6.30921 36.4506 6.00879 36.05 6.00879C35.5493 6.00879 35.3491 6.30921 35.2489 6.70976C33.0459 13.6194 30.7427 20.4288 28.5396 27.2383C28.5396 27.5387 28.2392 27.739 27.9388 27.739C20.6286 27.739 13.2183 27.739 5.80803 27.8391C5.70789 27.8391 5.50761 27.8391 5.40748 27.8391C5.2072 27.9392 5.00692 28.0394 4.80664 28.2397C4.80664 28.4399 4.80664 28.7404 4.90678 28.9406C5.00692 29.1409 5.10706 29.2411 5.30734 29.3412L23.1321 42.3593C23.4325 42.4594 23.5326 42.7598 23.3324 43.0602C22.331 46.0644 21.4297 49.0686 20.4283 52.0728C19.1265 56.1785 17.7246 60.2842 16.4228 64.49C16.3226 64.6903 16.3226 64.8906 16.4228 65.191C16.6231 65.6917 17.1237 65.7918 17.7246 65.3913L35.5493 52.3732C35.7496 52.1729 36.1502 52.1729 36.3505 52.3732C41.4575 56.1785 46.5646 59.8836 51.6717 63.5888L54.3755 65.5915C54.6759 65.7918 54.9763 65.7918 55.2767 65.5915C55.5772 65.3913 55.6773 65.0908 55.5772 64.6903C55.5772 64.5902 55.477 64.49 55.477 64.3899C53.1738 57.3801 50.9708 50.2703 48.6676 43.1604C48.5674 42.9601 48.5674 42.5596 48.8678 42.4594L64.1891 31.2438L66.7927 29.3412C67.0931 29.0408 67.3936 28.8405 67.1933 28.3398Z" stroke="currentColor" stroke-linecap="round" stroke-linejoin="round"/>
</svg>
