<svg width="72" height="72" viewBox="0 0 72 72" fill="none" xmlns="http://www.w3.org/2000/svg">
<path fill-rule="evenodd" clip-rule="evenodd" d="M63.1138 24.1934C63.2046 24.2641 63.3111 24.3492 63.4104 24.4373C69.5229 29.6927 70.216 38.905 64.9621 45.0191C64.8785 45.1163 64.7657 45.1736 64.6478 45.189C61.9913 48.2763 58.0797 50.2526 53.7048 50.326C53.6381 50.3593 53.5628 50.3781 53.4832 50.3782C48.2125 50.3886 43.3257 47.6342 40.5926 43.1308C40.4494 42.8948 40.5246 42.5872 40.7607 42.444C40.9967 42.3007 41.3042 42.3759 41.4475 42.612C43.9573 46.7475 48.4114 49.3023 53.2371 49.3766C53.3023 49.3455 53.3751 49.3282 53.4521 49.3282C61.0536 49.3282 67.2159 43.1658 67.2159 35.5643C67.2159 27.9628 61.0536 21.8004 53.4521 21.8004C53.4104 21.8004 53.37 21.7953 53.3313 21.7857C52.5733 21.8143 51.8036 21.9107 51.0278 22.0826C46.6962 23.0424 42.0783 26.3758 38.2175 33.5784L38.2173 33.5788C37.9964 33.9901 37.748 34.4808 37.4694 35.0312C36.3198 37.3025 34.6554 40.5909 32.2778 43.5147C29.3128 47.1608 25.173 50.3282 19.419 50.3282L19.4035 50.3279L19.3888 50.3282H19.3788H19.3781C14.9061 50.3225 10.9016 48.3315 8.19699 45.1894C8.08155 45.1752 7.97052 45.1209 7.88661 45.0276C7.80174 44.9333 7.72411 44.8381 7.65049 44.7478L7.65042 44.7477L7.65037 44.7477L7.65036 44.7477L7.65033 44.7476L7.61102 44.6995L7.60996 44.6982C2.53084 38.4477 3.4847 29.2743 9.73462 24.1956C12.2926 22.1163 15.3092 21.0008 18.347 20.8373C18.6944 20.8128 19.0452 20.8004 19.3988 20.8004C19.4496 20.8004 19.4986 20.808 19.5448 20.8221C24.5181 20.9637 29.3939 23.656 32.2493 28.847C32.3823 29.089 32.2941 29.393 32.0521 29.5261C31.8102 29.6592 31.5061 29.5709 31.3731 29.329C28.489 24.0857 23.426 21.5729 18.4221 21.8345C11.2762 22.3347 5.63433 28.2814 5.62492 35.5546C5.62493 35.8785 5.63611 36.1999 5.6581 36.5182L5.36517 36.2447L5.36517 36.2448L5.6581 36.5182C6.15212 43.6701 12.1014 49.3186 19.3788 49.3282L5.6581 36.5182L5.6581 36.5182L19.3794 49.3282L19.3888 49.3282L19.4042 49.3284L19.419 49.3282C24.7558 49.3282 28.6388 46.4047 31.5019 42.8838C33.803 40.0542 35.403 36.8956 36.5549 34.6217L36.555 34.6216C36.8419 34.0551 37.1011 33.5435 37.3364 33.1055C41.2931 25.7242 46.1193 22.146 50.8115 21.1063C55.4934 20.0689 59.9464 21.5814 63.1138 24.1934Z" fill="currentColor"/>
</svg>
