<svg width="24" height="24" viewBox="0 0 24 24" fill="none" xmlns="http://www.w3.org/2000/svg">
<path d="M7.33272 19.0003V15.6597C7.36465 14.0241 6.15122 12.667 4.68232 12.667C3.1815 12.7018 2 14.0241 2 15.6597V19.0003H7.33272Z" stroke="currentColor" stroke-width="0.98" stroke-linecap="round" stroke-linejoin="round"/>
<path d="M6.33229 10.9838C6.36557 11.8727 5.60007 12.6346 4.66816 12.6663C3.70297 12.6346 2.93747 11.8409 3.00404 10.9203C3.03732 10.0632 3.76953 9.36475 4.66816 9.33301C5.60007 9.33301 6.33229 10.0314 6.33229 10.9203C6.33229 10.9203 6.33229 10.9521 6.33229 10.9838Z" stroke="currentColor" stroke-width="0.98" stroke-linecap="round" stroke-linejoin="round"/>
<path d="M15.3328 19V14.2491C15.3656 11.9405 13.5953 10.0335 11.3333 10C9.07121 10.0335 7.30092 11.9405 7.3337 14.2491V19H15.3328V19Z" stroke="currentColor" stroke-width="0.98" stroke-linecap="round" stroke-linejoin="round"/>
<path d="M13.666 7.66634C13.6975 8.92275 12.6573 9.93984 11.3333 9.99967C10.0094 9.96976 8.96918 8.92275 9.0007 7.66634C8.96918 6.40993 10.0094 5.39284 11.3333 5.33301C12.6257 5.33301 13.666 6.32019 13.666 7.51677V7.66634Z" stroke="currentColor" stroke-width="0.98" stroke-linecap="round" stroke-linejoin="round"/>
<path d="M21.9978 19.0003V15.1348C22.0637 13.2687 20.6121 11.7358 18.7645 11.6692C16.9169 11.6025 15.3992 13.0688 15.3333 14.9349C15.3333 15.0015 15.3333 15.0682 15.3333 15.1348V19.0003H21.9978V19.0003Z" stroke="currentColor" stroke-width="0.98" stroke-linecap="round" stroke-linejoin="round"/>
<path d="M20.6661 9.66699C20.6932 10.7439 19.8015 11.6157 18.6667 11.667C17.532 11.6414 16.6403 10.7439 16.6673 9.66699C16.6403 8.59007 17.532 7.71827 18.6667 7.66699C19.7745 7.66699 20.6661 8.51315 20.6661 9.53879V9.66699Z" stroke="currentColor" stroke-width="0.98" stroke-linecap="round" stroke-linejoin="round"/>
</svg>
