<svg width="72" height="72" viewBox="0 0 72 72" fill="none" xmlns="http://www.w3.org/2000/svg">
<path fill-rule="evenodd" clip-rule="evenodd" d="M6 16.5C5.72386 16.5 5.5 16.7239 5.5 17V55C5.5 55.2761 5.72386 55.5 6 55.5H66C66.2761 55.5 66.5 55.2761 66.5 55V17C66.5 16.7239 66.2761 16.5 66 16.5H6ZM6.5 54.5V17.5H65.5V54.5H6.5ZM18.0475 28.7184C17.7714 28.7184 17.5475 28.9423 17.5475 29.2184C17.5475 29.4946 17.7714 29.7184 18.0475 29.7184H24.7849L19.0049 42.2417C18.8892 42.4925 18.9987 42.7895 19.2494 42.9053C19.5001 43.021 19.7972 42.9115 19.9129 42.6608L25.9788 29.518C26.0169 29.4354 26.0306 29.3477 26.0228 29.2631C26.0241 29.2484 26.0248 29.2335 26.0248 29.2184C26.0248 28.9423 25.801 28.7184 25.5248 28.7184H18.0475ZM29.9946 30.1363C30.7337 29.8091 31.569 29.7724 32.334 30.0336C33.0989 30.2948 33.7374 30.8346 34.122 31.5455C34.5067 32.2565 34.6093 33.0862 34.4094 33.8694C34.4033 33.8935 34.399 33.9177 34.3965 33.9417C34.2139 34.4548 33.9331 34.9271 33.57 35.3322C33.5198 35.3586 33.4733 35.394 33.4329 35.4384L27.5504 41.9061C27.4328 41.9976 27.3571 42.1405 27.3571 42.3011C27.3571 42.5773 27.5809 42.8011 27.8571 42.8011H27.8643H27.8695H34.8739C35.15 42.8011 35.3739 42.5773 35.3739 42.3011C35.3739 42.025 35.15 41.8011 34.8739 41.8011H28.9977L34.0436 36.2532C34.0856 36.2301 34.125 36.2005 34.1603 36.1644C34.7061 35.6064 35.1189 34.9324 35.3678 34.1925C35.3831 34.1471 35.3915 34.1009 35.3936 34.0553C35.6349 33.0465 35.4958 31.9832 35.0015 31.0697C34.4972 30.1375 33.6601 29.4297 32.6571 29.0872C31.6541 28.7448 30.5589 28.7929 29.5898 29.2219C28.6207 29.651 27.8489 30.4295 27.4282 31.4023C27.3186 31.6557 27.4352 31.95 27.6886 32.0597C27.9421 32.1693 28.2364 32.0527 28.346 31.7992C28.6669 31.0573 29.2555 30.4636 29.9946 30.1363ZM40.7436 30.5C40.3036 30.5 39.8681 30.5896 39.4637 30.7632C39.0593 30.9369 38.6945 31.191 38.3915 31.5101C38.0885 31.8292 37.8535 32.2067 37.701 32.6195C37.5485 33.0323 37.4816 33.4718 37.5043 33.9113C37.5048 33.9199 37.505 33.9285 37.505 33.9372V38.942C37.505 38.9506 37.5048 38.9593 37.5043 38.9679C37.4816 39.4074 37.5485 39.8469 37.701 40.2597C37.8535 40.6725 38.0885 41.0499 38.3915 41.3691C38.6945 41.6882 39.0593 41.9423 39.4637 42.116C39.8681 42.2896 40.3036 42.3792 40.7436 42.3792C41.1837 42.3792 41.6192 42.2896 42.0236 42.116C42.4279 41.9423 42.7927 41.6882 43.0958 41.3691C43.3988 41.0499 43.6337 40.6725 43.7862 40.2597C43.9388 39.8469 44.0057 39.4074 43.9829 38.9679C43.9825 38.9593 43.9823 38.9506 43.9823 38.942V33.9372L43.9825 33.9234L43.9829 33.9113C44.0057 33.4718 43.9388 33.0323 43.7862 32.6195C43.6337 32.2067 43.3988 31.8292 43.0958 31.5101C42.7927 31.191 42.4279 30.9369 42.0236 30.7632C41.6192 30.5896 41.1837 30.5 40.7436 30.5ZM39.0691 29.8443C39.5982 29.6172 40.1679 29.5 40.7436 29.5C41.3194 29.5 41.8891 29.6172 42.4182 29.8443C42.9472 30.0715 43.4245 30.404 43.8209 30.8215C44.2174 31.239 44.5247 31.7328 44.7243 32.2729C44.9223 32.8088 45.01 33.3791 44.9823 33.9497V38.9295C45.01 39.5 44.9223 40.0704 44.7243 40.6063C44.5247 41.1463 44.2174 41.6401 43.8209 42.0577C43.4245 42.4752 42.9472 42.8076 42.4182 43.0348C41.8891 43.262 41.3194 43.3792 40.7436 43.3792C40.1679 43.3792 39.5982 43.262 39.0691 43.0348C38.5401 42.8076 38.0628 42.4752 37.6664 42.0577C37.2699 41.6401 36.9625 41.1463 36.763 40.6063C36.565 40.0704 36.4773 39.5 36.505 38.9295V33.9497C36.4773 33.3791 36.565 32.8088 36.763 32.2729C36.9625 31.7328 37.2699 31.239 37.6664 30.8215C38.0628 30.404 38.5401 30.0715 39.0691 29.8443ZM50.7593 33.2397C49.9291 33.2397 49.1291 33.5514 48.5178 34.1132C48.4937 34.1353 48.47 34.1578 48.4466 34.1806V33.8829C48.4466 33.6068 48.2227 33.3829 47.9466 33.3829C47.6705 33.3829 47.4466 33.6068 47.4466 33.8829V46.0347C47.4466 46.3109 47.6705 46.5347 47.9466 46.5347C48.2227 46.5347 48.4466 46.3109 48.4466 46.0347V42.3438C48.47 42.3666 48.4937 42.3891 48.5178 42.4112C49.1291 42.973 49.9291 43.2847 50.7593 43.2847C51.5896 43.2847 52.3896 42.973 53.0009 42.4112C53.6122 41.8494 53.9903 41.0785 54.0603 40.2512C54.0615 40.2372 54.062 40.2232 54.062 40.2091V36.3153C54.062 36.3012 54.0615 36.2872 54.0603 36.2732C53.9903 35.4459 53.6122 34.675 53.0009 34.1132C52.3896 33.5514 51.5896 33.2397 50.7593 33.2397ZM49.1944 34.8495C49.6212 34.4573 50.1797 34.2397 50.7593 34.2397C51.339 34.2397 51.8975 34.4573 52.3242 34.8495C52.7461 35.2372 53.0089 35.7675 53.062 36.3374V40.1869C53.0089 40.7569 52.7461 41.2872 52.3242 41.6749C51.8975 42.0671 51.339 42.2847 50.7593 42.2847C50.1797 42.2847 49.6212 42.0671 49.1944 41.6749C48.7726 41.2872 48.5098 40.7569 48.4566 40.1869V36.3374C48.5098 35.7675 48.7726 35.2372 49.1944 34.8495Z" fill="currentColor"/>
</svg>
