<svg width="72" height="72" viewBox="0 0 72 72" fill="none" xmlns="http://www.w3.org/2000/svg">
<path d="M66 17H6V55H66V17Z" stroke="currentColor" stroke-linecap="round" stroke-linejoin="round"/>
<path fill-rule="evenodd" clip-rule="evenodd" d="M18.0244 29.1406C18.0244 28.9465 17.912 28.77 17.7362 28.6877C17.5604 28.6055 17.3529 28.6324 17.2039 28.7568L13.1796 32.1163C12.9676 32.2933 12.9392 32.6086 13.1162 32.8206C13.2931 33.0326 13.6085 33.061 13.8204 32.884L17.0244 30.2094V42.1587C17.0244 42.4349 17.2482 42.6587 17.5244 42.6587C17.8005 42.6587 18.0244 42.4349 18.0244 42.1587V29.1406ZM35.8498 29.8409C34.6238 29.8409 33.646 30.8187 33.646 32.0447C33.646 33.2706 34.6238 34.2484 35.8498 34.2484C37.0757 34.2484 38.0535 33.2706 38.0535 32.0447C38.0535 30.8187 37.0757 29.8409 35.8498 29.8409ZM32.646 32.0447C32.646 30.2664 34.0716 28.8409 35.8498 28.8409C37.628 28.8409 39.0535 30.2664 39.0535 32.0447C39.0535 33.1798 38.4726 34.1713 37.5899 34.7399C39.0295 35.4159 40.0549 36.8909 40.0549 38.5537C40.0549 40.8326 38.1287 42.7588 35.8498 42.7588C33.5709 42.7588 31.6447 40.8326 31.6447 38.5537C31.6447 36.8909 32.6701 35.416 34.1097 34.7399C33.227 34.1713 32.646 33.1798 32.646 32.0447ZM46.0889 29.9404C47.8171 29.854 49.3767 31.2426 49.4694 32.9589V32.9594V32.96V32.9606V32.9613V32.9619V32.9626V32.9632V32.9638V32.9645V32.9652V32.9658V32.9665V32.9671V32.9678V32.9684V32.9691V32.9698V32.9704V32.9711V32.9718V32.9725V32.9731V32.9738V32.9745V32.9752V32.9759V32.9765V32.9772V32.9779V32.9786V32.9793V32.98V32.9807V32.9814V32.9821V32.9828V32.9835V32.9842V32.9849V32.9856V32.9863V32.987V32.9878V32.9885V32.9892V32.9899V32.9906V32.9914V32.9921V32.9928V32.9935V32.9943V32.995V32.9957V32.9965V32.9972V32.9979V32.9987V32.9994V33.0002V33.0009V33.0016V33.0024V33.0031V33.0039V33.0046V33.0054V33.0062V33.0069V33.0077V33.0084V33.0092V33.0099V33.0107V33.0115V33.0122V33.013V33.0138V33.0145V33.0153V33.0161V33.0169V33.0176V33.0184V33.0192V33.02V33.0208V33.0215V33.0223V33.0231V33.0239V33.0247V33.0255V33.0263V33.0271V33.0279V33.0286V33.0294V33.0302V33.031V33.0318V33.0326V33.0334V33.0342V33.035V33.0359V33.0367V33.0375V33.0383V33.0391V33.0399V33.0407V33.0415V33.0423V33.0431V33.044V33.0448V33.0456V33.0464V33.0472V33.0481V33.0489V33.0497V33.0505V33.0514V33.0522V33.053V33.0538V33.0547V33.0555V33.0563V33.0572V33.058V33.0588V33.0597V33.0605V33.0613V33.0622V33.063V33.0639V33.0647V33.0655V33.0664V33.0672V33.0681V33.0689V33.0697V33.0706V33.0714V33.0723V33.0731V33.074V33.0748V33.0757V33.0765V33.0774V33.0782V33.0791V33.0799V33.0808V33.0817V33.0825V33.0834V33.0842V33.0851V33.0859V33.0868V33.0877V33.0885V33.0894V33.0902V33.0911V33.092V33.0928V33.0937V33.0946V33.0954V33.0963V33.0972V33.098V33.0989V33.0998V33.1006V33.1015V33.1024V33.1032V33.1041V33.105V33.1058V33.1067V33.1076V33.1085V33.1093V33.1102V33.1111V33.1119V33.1128V33.1137V33.1146V33.1154V33.1163V33.1172V33.1181V33.1189V33.1198V33.1207V33.1216V33.1224V33.1233V33.1242V33.1251V33.126V33.1268V33.1277V33.1286V33.1295V33.1303V33.1312V33.1321V33.133V33.1339V33.1347V33.1356V33.1365V33.1374V33.1383V33.1391V33.14V33.1409V33.1418V33.1427V33.1435V33.1444V33.1453V33.1462V33.1471V33.1479V33.1488V33.1497V33.1506V33.1515V33.1523V33.1532V33.1541V33.155V33.1559V33.1567V33.1576V33.1585V33.1594V33.1603V33.1611V33.162V33.1629V33.1638V33.1647V33.1655V33.1664V33.1673V33.1682V33.169V33.1699V33.1708V33.1717V33.1725V33.1734V33.1743V33.1752V33.176V33.1769V33.1778V33.1787V33.1795V33.1804V33.1813V33.1822V33.183V33.1839V33.1848V33.1857V33.1865V33.1874V33.1883V33.1891V33.19V33.1909V33.1917V33.1926V33.1935V33.1943V33.1952V33.1961V33.1969V33.1978V33.1987V33.1995V33.2004V33.2013V33.2021V33.203V33.2038V33.2047V33.2056V33.2064V33.2073V33.2081V33.209V33.2099V33.2107V33.2116V33.2124V33.2133V33.2141V33.215V33.2158V33.2167V33.2175V33.2184V33.2192V33.2201V33.2209V33.2218V33.2226V33.2235V33.2243V33.2251V33.226V33.2268V33.2277V33.2285V33.2294V33.2302V33.231V33.2319V33.2327V33.2335V33.2344V33.2352V33.236V33.2369V33.2377V33.2385V33.2394V33.2402V33.241V33.2418V33.2427V33.2435V33.2443V33.2451V33.2459V33.2468V33.2476V33.2484V33.2492V33.25V33.2508V33.2517V33.2525V33.2533V33.2541V33.2549V33.2557V33.2565V33.2573V33.2581V33.2589V33.2597V33.2605V33.2613V33.2621V33.2629V33.2637V33.2645V33.2653V33.2661V33.2669V33.2677V33.2685V33.2693V33.27V33.2708V33.2716V33.2724V33.2732V33.2739V33.2747V33.2755V33.2763V33.277V33.2778V33.2786V33.2794V33.2801V33.2809V33.2817V33.2824V33.2832V33.2839V33.2847V33.2855V33.2862V33.287V33.2877V33.2885V33.2892V33.29V33.2907V33.2915V33.2922V33.2929V33.2937V33.2944V33.2952V33.2959V33.2966V33.2974V33.2981V33.2988V33.2996V33.3003V33.301V33.3017V33.3025V33.3032V33.3039V33.3046V33.3053V33.306V33.3067V33.3075V33.3082V33.3089V33.3096V33.3103V33.311V33.3117V33.3124V33.3131V33.3138V33.3144V33.3151V33.3158V33.3165V33.3172V33.3179V33.3186V33.3192V33.3199V33.3206V33.3213V33.3219V33.3226V33.3233V33.3239V33.3246V33.3252V33.3259V33.3266V33.3272V33.3279V33.3285V33.3292V33.3298V33.3305V33.3311V33.3317V33.3324V33.333V33.3336V33.3343V33.3349V33.3355V33.3362V33.3368V33.3374V33.338V33.3386V33.3393V33.3399V33.3405V33.3411V33.3417V33.3423V33.3429V33.3435V33.3441V33.3447V33.3453V33.3459V33.3465V38.2533C49.4694 38.2616 49.4696 38.2699 49.47 38.2782C49.5566 40.0105 48.1614 41.5732 46.4396 41.6593C44.7114 41.7457 43.1518 40.3571 43.0591 38.6409V38.6404V38.6397V38.6391V38.6385V38.6378V38.6372V38.6365V38.6359V38.6352V38.6346V38.6339V38.6333V38.6326V38.632V38.6313V38.6306V38.63V38.6293V38.6286V38.6279V38.6273V38.6266V38.6259V38.6252V38.6246V38.6239V38.6232V38.6225V38.6218V38.6211V38.6204V38.6197V38.619V38.6183V38.6176V38.6169V38.6162V38.6155V38.6148V38.6141V38.6134V38.6127V38.612V38.6113V38.6105V38.6098V38.6091V38.6084V38.6077V38.6069V38.6062V38.6055V38.6047V38.604V38.6033V38.6025V38.6018V38.6011V38.6003V38.5996V38.5988V38.5981V38.5973V38.5966V38.5958V38.5951V38.5943V38.5936V38.5928V38.5921V38.5913V38.5905V38.5898V38.589V38.5883V38.5875V38.5867V38.586V38.5852V38.5844V38.5836V38.5829V38.5821V38.5813V38.5805V38.5798V38.579V38.5782V38.5774V38.5766V38.5758V38.575V38.5743V38.5735V38.5727V38.5719V38.5711V38.5703V38.5695V38.5687V38.5679V38.5671V38.5663V38.5655V38.5647V38.5639V38.5631V38.5623V38.5615V38.5607V38.5598V38.559V38.5582V38.5574V38.5566V38.5558V38.555V38.5541V38.5533V38.5525V38.5517V38.5509V38.55V38.5492V38.5484V38.5476V38.5467V38.5459V38.5451V38.5442V38.5434V38.5426V38.5417V38.5409V38.5401V38.5392V38.5384V38.5376V38.5367V38.5359V38.535V38.5342V38.5334V38.5325V38.5317V38.5308V38.53V38.5291V38.5283V38.5274V38.5266V38.5257V38.5249V38.524V38.5232V38.5223V38.5215V38.5206V38.5198V38.5189V38.5181V38.5172V38.5164V38.5155V38.5146V38.5138V38.5129V38.5121V38.5112V38.5104V38.5095V38.5086V38.5078V38.5069V38.506V38.5052V38.5043V38.5034V38.5026V38.5017V38.5008V38.5V38.4991V38.4982V38.4974V38.4965V38.4956V38.4948V38.4939V38.493V38.4922V38.4913V38.4904V38.4895V38.4887V38.4878V38.4869V38.486V38.4852V38.4843V38.4834V38.4825V38.4817V38.4808V38.4799V38.479V38.4782V38.4773V38.4764V38.4755V38.4747V38.4738V38.4729V38.472V38.4711V38.4703V38.4694V38.4685V38.4676V38.4667V38.4659V38.465V38.4641V38.4632V38.4624V38.4615V38.4606V38.4597V38.4588V38.458V38.4571V38.4562V38.4553V38.4544V38.4536V38.4527V38.4518V38.4509V38.45V38.4492V38.4483V38.4474V38.4465V38.4456V38.4448V38.4439V38.443V38.4421V38.4412V38.4404V38.4395V38.4386V38.4377V38.4368V38.436V38.4351V38.4342V38.4333V38.4324V38.4316V38.4307V38.4298V38.4289V38.4281V38.4272V38.4263V38.4254V38.4246V38.4237V38.4228V38.4219V38.4211V38.4202V38.4193V38.4184V38.4176V38.4167V38.4158V38.415V38.4141V38.4132V38.4123V38.4115V38.4106V38.4097V38.4089V38.408V38.4071V38.4063V38.4054V38.4045V38.4037V38.4028V38.4019V38.4011V38.4002V38.3993V38.3985V38.3976V38.3968V38.3959V38.395V38.3942V38.3933V38.3925V38.3916V38.3907V38.3899V38.389V38.3882V38.3873V38.3865V38.3856V38.3848V38.3839V38.3831V38.3822V38.3814V38.3805V38.3797V38.3788V38.378V38.3771V38.3763V38.3754V38.3746V38.3737V38.3729V38.3721V38.3712V38.3704V38.3695V38.3687V38.3679V38.367V38.3662V38.3654V38.3645V38.3637V38.3629V38.362V38.3612V38.3604V38.3596V38.3587V38.3579V38.3571V38.3563V38.3554V38.3546V38.3538V38.353V38.3521V38.3513V38.3505V38.3497V38.3489V38.3481V38.3473V38.3465V38.3456V38.3448V38.344V38.3432V38.3424V38.3416V38.3408V38.34V38.3392V38.3384V38.3376V38.3368V38.336V38.3352V38.3344V38.3336V38.3328V38.3321V38.3313V38.3305V38.3297V38.3289V38.3281V38.3273V38.3266V38.3258V38.325V38.3242V38.3235V38.3227V38.3219V38.3211V38.3204V38.3196V38.3188V38.3181V38.3173V38.3166V38.3158V38.315V38.3143V38.3135V38.3128V38.312V38.3113V38.3105V38.3098V38.309V38.3083V38.3075V38.3068V38.306V38.3053V38.3046V38.3038V38.3031V38.3024V38.3016V38.3009V38.3002V38.2995V38.2987V38.298V38.2973V38.2966V38.2958V38.2951V38.2944V38.2937V38.293V38.2923V38.2916V38.2909V38.2902V38.2895V38.2888V38.2881V38.2874V38.2867V38.286V38.2853V38.2846V38.2839V38.2832V38.2825V38.2819V38.2812V38.2805V38.2798V38.2792V38.2785V38.2778V38.2771V38.2765V38.2758V38.2752V38.2745V38.2738V38.2732V38.2725V38.2719V38.2712V38.2706V38.2699V38.2693V38.2686V38.268V38.2674V38.2667V38.2661V38.2655V38.2648V38.2642V38.2636V38.2629V38.2623V38.2617V38.2611V38.2605V38.2599V38.2593V38.2586V38.258V38.2574V38.2568V38.2562V38.2556V38.255V38.2545V38.2539V38.2533V33.3465C43.0591 33.3381 43.0589 33.3298 43.0585 33.3215C42.9719 31.5893 44.3672 30.0265 46.0889 29.9404ZM50.4688 32.9209C50.3546 30.6372 48.3124 28.828 46.039 28.9417C43.7595 29.0556 41.9529 31.0904 42.0591 33.3585V38.2533V38.2539V38.2545V38.255V38.2556V38.2562V38.2568V38.2574V38.258V38.2586V38.2593V38.2599V38.2605V38.2611V38.2617V38.2623V38.2629V38.2636V38.2642V38.2648V38.2655V38.2661V38.2667V38.2674V38.268V38.2686V38.2693V38.2699V38.2706V38.2712V38.2719V38.2725V38.2732V38.2738V38.2745V38.2752V38.2758V38.2765V38.2771V38.2778V38.2785V38.2792V38.2798V38.2805V38.2812V38.2819V38.2825V38.2832V38.2839V38.2846V38.2853V38.286V38.2867V38.2874V38.2881V38.2888V38.2895V38.2902V38.2909V38.2916V38.2923V38.293V38.2937V38.2944V38.2951V38.2958V38.2966V38.2973V38.298V38.2987V38.2995V38.3002V38.3009V38.3016V38.3024V38.3031V38.3038V38.3046V38.3053V38.306V38.3068V38.3075V38.3083V38.309V38.3098V38.3105V38.3113V38.312V38.3128V38.3135V38.3143V38.315V38.3158V38.3166V38.3173V38.3181V38.3188V38.3196V38.3204V38.3211V38.3219V38.3227V38.3235V38.3242V38.325V38.3258V38.3266V38.3273V38.3281V38.3289V38.3297V38.3305V38.3313V38.3321V38.3328V38.3336V38.3344V38.3352V38.336V38.3368V38.3376V38.3384V38.3392V38.34V38.3408V38.3416V38.3424V38.3432V38.344V38.3448V38.3456V38.3465V38.3473V38.3481V38.3489V38.3497V38.3505V38.3513V38.3521V38.353V38.3538V38.3546V38.3554V38.3563V38.3571V38.3579V38.3587V38.3596V38.3604V38.3612V38.362V38.3629V38.3637V38.3645V38.3654V38.3662V38.367V38.3679V38.3687V38.3695V38.3704V38.3712V38.3721V38.3729V38.3737V38.3746V38.3754V38.3763V38.3771V38.378V38.3788V38.3797V38.3805V38.3814V38.3822V38.3831V38.3839V38.3848V38.3856V38.3865V38.3873V38.3882V38.389V38.3899V38.3907V38.3916V38.3925V38.3933V38.3942V38.395V38.3959V38.3968V38.3976V38.3985V38.3993V38.4002V38.4011V38.4019V38.4028V38.4037V38.4045V38.4054V38.4063V38.4071V38.408V38.4089V38.4097V38.4106V38.4115V38.4123V38.4132V38.4141V38.415V38.4158V38.4167V38.4176V38.4184V38.4193V38.4202V38.4211V38.4219V38.4228V38.4237V38.4246V38.4254V38.4263V38.4272V38.4281V38.4289V38.4298V38.4307V38.4316V38.4324V38.4333V38.4342V38.4351V38.436V38.4368V38.4377V38.4386V38.4395V38.4404V38.4412V38.4421V38.443V38.4439V38.4448V38.4456V38.4465V38.4474V38.4483V38.4492V38.45V38.4509V38.4518V38.4527V38.4536V38.4544V38.4553V38.4562V38.4571V38.458V38.4588V38.4597V38.4606V38.4615V38.4624V38.4632V38.4641V38.465V38.4659V38.4667V38.4676V38.4685V38.4694V38.4703V38.4711V38.472V38.4729V38.4738V38.4747V38.4755V38.4764V38.4773V38.4782V38.479V38.4799V38.4808V38.4817V38.4825V38.4834V38.4843V38.4852V38.486V38.4869V38.4878V38.4887V38.4895V38.4904V38.4913V38.4922V38.493V38.4939V38.4948V38.4956V38.4965V38.4974V38.4982V38.4991V38.5V38.5008V38.5017V38.5026V38.5034V38.5043V38.5052V38.506V38.5069V38.5078V38.5086V38.5095V38.5104V38.5112V38.5121V38.5129V38.5138V38.5146V38.5155V38.5164V38.5172V38.5181V38.5189V38.5198V38.5206V38.5215V38.5223V38.5232V38.524V38.5249V38.5257V38.5266V38.5274V38.5283V38.5291V38.53V38.5308V38.5317V38.5325V38.5334V38.5342V38.535V38.5359V38.5367V38.5376V38.5384V38.5392V38.5401V38.5409V38.5417V38.5426V38.5434V38.5442V38.5451V38.5459V38.5467V38.5476V38.5484V38.5492V38.55V38.5509V38.5517V38.5525V38.5533V38.5541V38.555V38.5558V38.5566V38.5574V38.5582V38.559V38.5598V38.5607V38.5615V38.5623V38.5631V38.5639V38.5647V38.5655V38.5663V38.5671V38.5679V38.5687V38.5695V38.5703V38.5711V38.5719V38.5727V38.5735V38.5743V38.575V38.5758V38.5766V38.5774V38.5782V38.579V38.5798V38.5805V38.5813V38.5821V38.5829V38.5836V38.5844V38.5852V38.586V38.5867V38.5875V38.5883V38.589V38.5898V38.5905V38.5913V38.5921V38.5928V38.5936V38.5943V38.5951V38.5958V38.5966V38.5973V38.5981V38.5988V38.5996V38.6003V38.6011V38.6018V38.6025V38.6033V38.604V38.6047V38.6055V38.6062V38.6069V38.6077V38.6084V38.6091V38.6098V38.6105V38.6113V38.612V38.6127V38.6134V38.6141V38.6148V38.6155V38.6162V38.6169V38.6176V38.6183V38.619V38.6197V38.6204V38.6211V38.6218V38.6225V38.6232V38.6239V38.6246V38.6252V38.6259V38.6266V38.6273V38.6279V38.6286V38.6293V38.63V38.6306V38.6313V38.632V38.6326V38.6333V38.6339V38.6346V38.6352V38.6359V38.6365V38.6372V38.6378V38.6385V38.6391V38.6397V38.6404V38.641V38.6416V38.6423V38.6429V38.6435V38.6442V38.6448V38.6454V38.646V38.6466V38.6472V38.6478V38.6485V38.6491V38.6497V38.6503V38.6509V38.6515V38.6521V38.6527V38.6532V38.6538L42.0594 38.6707L42.0597 38.6788C42.1739 40.9626 44.2162 42.7717 46.4895 42.6581C48.769 42.5441 50.5756 40.5094 50.4694 38.2412V33.3465V33.3459V33.3453V33.3447V33.3441V33.3435V33.3429V33.3423V33.3417V33.3411V33.3405V33.3399V33.3393V33.3386V33.338V33.3374V33.3368V33.3362V33.3355V33.3349V33.3343V33.3336V33.333V33.3324V33.3317V33.3311V33.3305V33.3298V33.3292V33.3285V33.3279V33.3272V33.3266V33.3259V33.3252V33.3246V33.3239V33.3233V33.3226V33.3219V33.3213V33.3206V33.3199V33.3192V33.3186V33.3179V33.3172V33.3165V33.3158V33.3151V33.3144V33.3138V33.3131V33.3124V33.3117V33.311V33.3103V33.3096V33.3089V33.3082V33.3075V33.3067V33.306V33.3053V33.3046V33.3039V33.3032V33.3025V33.3017V33.301V33.3003V33.2996V33.2988V33.2981V33.2974V33.2966V33.2959V33.2952V33.2944V33.2937V33.2929V33.2922V33.2915V33.2907V33.29V33.2892V33.2885V33.2877V33.287V33.2862V33.2855V33.2847V33.2839V33.2832V33.2824V33.2817V33.2809V33.2801V33.2794V33.2786V33.2778V33.277V33.2763V33.2755V33.2747V33.2739V33.2732V33.2724V33.2716V33.2708V33.27V33.2693V33.2685V33.2677V33.2669V33.2661V33.2653V33.2645V33.2637V33.2629V33.2621V33.2613V33.2605V33.2597V33.2589V33.2581V33.2573V33.2565V33.2557V33.2549V33.2541V33.2533V33.2525V33.2517V33.2508V33.25V33.2492V33.2484V33.2476V33.2468V33.2459V33.2451V33.2443V33.2435V33.2427V33.2418V33.241V33.2402V33.2394V33.2385V33.2377V33.2369V33.236V33.2352V33.2344V33.2335V33.2327V33.2319V33.231V33.2302V33.2294V33.2285V33.2277V33.2268V33.226V33.2251V33.2243V33.2235V33.2226V33.2218V33.2209V33.2201V33.2192V33.2184V33.2175V33.2167V33.2158V33.215V33.2141V33.2133V33.2124V33.2116V33.2107V33.2099V33.209V33.2081V33.2073V33.2064V33.2056V33.2047V33.2038V33.203V33.2021V33.2013V33.2004V33.1995V33.1987V33.1978V33.1969V33.1961V33.1952V33.1943V33.1935V33.1926V33.1917V33.1909V33.19V33.1891V33.1883V33.1874V33.1865V33.1857V33.1848V33.1839V33.183V33.1822V33.1813V33.1804V33.1795V33.1787V33.1778V33.1769V33.176V33.1752V33.1743V33.1734V33.1725V33.1717V33.1708V33.1699V33.169V33.1682V33.1673V33.1664V33.1655V33.1647V33.1638V33.1629V33.162V33.1611V33.1603V33.1594V33.1585V33.1576V33.1567V33.1559V33.155V33.1541V33.1532V33.1523V33.1515V33.1506V33.1497V33.1488V33.1479V33.1471V33.1462V33.1453V33.1444V33.1435V33.1427V33.1418V33.1409V33.14V33.1391V33.1383V33.1374V33.1365V33.1356V33.1347V33.1339V33.133V33.1321V33.1312V33.1303V33.1295V33.1286V33.1277V33.1268V33.126V33.1251V33.1242V33.1233V33.1224V33.1216V33.1207V33.1198V33.1189V33.1181V33.1172V33.1163V33.1154V33.1146V33.1137V33.1128V33.1119V33.1111V33.1102V33.1093V33.1085V33.1076V33.1067V33.1058V33.105V33.1041V33.1032V33.1024V33.1015V33.1006V33.0998V33.0989V33.098V33.0972V33.0963V33.0954V33.0946V33.0937V33.0928V33.092V33.0911V33.0902V33.0894V33.0885V33.0877V33.0868V33.0859V33.0851V33.0842V33.0834V33.0825V33.0817V33.0808V33.0799V33.0791V33.0782V33.0774V33.0765V33.0757V33.0748V33.074V33.0731V33.0723V33.0714V33.0706V33.0697V33.0689V33.0681V33.0672V33.0664V33.0655V33.0647V33.0639V33.063V33.0622V33.0613V33.0605V33.0597V33.0588V33.058V33.0572V33.0563V33.0555V33.0547V33.0538V33.053V33.0522V33.0514V33.0505V33.0497V33.0489V33.0481V33.0472V33.0464V33.0456V33.0448V33.044V33.0431V33.0423V33.0415V33.0407V33.0399V33.0391V33.0383V33.0375V33.0367V33.0359V33.035V33.0342V33.0334V33.0326V33.0318V33.031V33.0302V33.0294V33.0286V33.0279V33.0271V33.0263V33.0255V33.0247V33.0239V33.0231V33.0223V33.0215V33.0208V33.02V33.0192V33.0184V33.0176V33.0169V33.0161V33.0153V33.0145V33.0138V33.013V33.0122V33.0115V33.0107V33.0099V33.0092V33.0084V33.0077V33.0069V33.0062V33.0054V33.0046V33.0039V33.0031V33.0024V33.0016V33.0009V33.0002V32.9994V32.9987V32.9979V32.9972V32.9965V32.9957V32.995V32.9943V32.9935V32.9928V32.9921V32.9914V32.9906V32.9899V32.9892V32.9885V32.9878V32.987V32.9863V32.9856V32.9849V32.9842V32.9835V32.9828V32.9821V32.9814V32.9807V32.98V32.9793V32.9786V32.9779V32.9772V32.9765V32.9759V32.9752V32.9745V32.9738V32.9731V32.9725V32.9718V32.9711V32.9704V32.9698V32.9691V32.9684V32.9678V32.9671V32.9665V32.9658V32.9652V32.9645V32.9638V32.9632V32.9626V32.9619V32.9613V32.9606V32.96V32.9594V32.9587V32.9581V32.9575V32.9568V32.9562V32.9556V32.955V32.9543V32.9537V32.9531V32.9525V32.9519V32.9513V32.9507V32.9501V32.9495V32.9489V32.9483V32.9477V32.9471V32.9465V32.9459C50.4694 32.9376 50.4692 32.9293 50.4688 32.9209ZM53.2733 33.5002C53.2733 33.224 53.0494 33.0002 52.7733 33.0002C52.4971 33.0002 52.2733 33.224 52.2733 33.5002V36.4508V40.2561V47.0002C52.2733 47.2763 52.4971 47.5002 52.7733 47.5002C53.0494 47.5002 53.2733 47.2763 53.2733 47.0002V42.3902C53.9369 43.0239 54.86 43.3812 55.8283 43.2571C57.4839 43.1314 58.6618 41.8236 58.7795 40.2944C58.7804 40.2816 58.7809 40.2688 58.7809 40.2561V36.4508C58.7809 36.4397 58.7806 36.4286 58.7798 36.4175C58.6617 34.645 57.0215 33.2196 55.2259 33.4497C54.4502 33.5086 53.7794 33.827 53.2733 34.3061V33.5002ZM55.7114 42.2639C54.5138 42.4236 53.3638 41.4578 53.2733 40.2385V36.4709C53.3634 35.4092 54.1786 34.527 55.3124 34.446C55.3226 34.4453 55.3327 34.4443 55.3428 34.4429C56.5404 34.2832 57.6904 35.249 57.7809 36.4683V40.2359C57.6908 41.2976 56.8757 42.1798 55.7418 42.2608C55.7317 42.2615 55.7215 42.2626 55.7114 42.2639ZM32.6447 38.5537C32.6447 36.827 34.1232 35.3485 35.8498 35.3485C37.5764 35.3485 39.0549 36.827 39.0549 38.5537C39.0549 40.2803 37.5764 41.7588 35.8498 41.7588C34.1232 41.7588 32.6447 40.2803 32.6447 38.5537ZM29.041 32.9589C28.9483 31.2426 27.3888 29.854 25.6606 29.9404C23.9388 30.0265 22.5435 31.5893 22.6301 33.3215C22.6305 33.3298 22.6307 33.3381 22.6307 33.3465V38.2533V38.2539V38.2545V38.2551V38.2556V38.2562V38.2568V38.2574V38.258V38.2587V38.2593V38.2599V38.2605V38.2611V38.2617V38.2623V38.263V38.2636V38.2642V38.2648V38.2655V38.2661V38.2667V38.2674V38.268V38.2686V38.2693V38.2699V38.2706V38.2712V38.2719V38.2725V38.2732V38.2738V38.2745V38.2752V38.2758V38.2765V38.2772V38.2778V38.2785V38.2792V38.2798V38.2805V38.2812V38.2819V38.2826V38.2832V38.2839V38.2846V38.2853V38.286V38.2867V38.2874V38.2881V38.2888V38.2895V38.2902V38.2909V38.2916V38.2923V38.293V38.2937V38.2944V38.2951V38.2959V38.2966V38.2973V38.298V38.2987V38.2995V38.3002V38.3009V38.3016V38.3024V38.3031V38.3038V38.3046V38.3053V38.3061V38.3068V38.3075V38.3083V38.309V38.3098V38.3105V38.3113V38.312V38.3128V38.3135V38.3143V38.315V38.3158V38.3166V38.3173V38.3181V38.3189V38.3196V38.3204V38.3212V38.3219V38.3227V38.3235V38.3242V38.325V38.3258V38.3266V38.3274V38.3281V38.3289V38.3297V38.3305V38.3313V38.3321V38.3329V38.3336V38.3344V38.3352V38.336V38.3368V38.3376V38.3384V38.3392V38.34V38.3408V38.3416V38.3424V38.3432V38.344V38.3448V38.3456V38.3465V38.3473V38.3481V38.3489V38.3497V38.3505V38.3513V38.3522V38.353V38.3538V38.3546V38.3554V38.3563V38.3571V38.3579V38.3587V38.3596V38.3604V38.3612V38.362V38.3629V38.3637V38.3645V38.3654V38.3662V38.367V38.3679V38.3687V38.3695V38.3704V38.3712V38.3721V38.3729V38.3737V38.3746V38.3754V38.3763V38.3771V38.378V38.3788V38.3797V38.3805V38.3814V38.3822V38.3831V38.3839V38.3848V38.3856V38.3865V38.3873V38.3882V38.389V38.3899V38.3907V38.3916V38.3925V38.3933V38.3942V38.395V38.3959V38.3968V38.3976V38.3985V38.3993V38.4002V38.4011V38.4019V38.4028V38.4037V38.4045V38.4054V38.4063V38.4071V38.408V38.4089V38.4097V38.4106V38.4115V38.4123V38.4132V38.4141V38.415V38.4158V38.4167V38.4176V38.4184V38.4193V38.4202V38.4211V38.4219V38.4228V38.4237V38.4246V38.4254V38.4263V38.4272V38.4281V38.4289V38.4298V38.4307V38.4316V38.4325V38.4333V38.4342V38.4351V38.436V38.4368V38.4377V38.4386V38.4395V38.4404V38.4412V38.4421V38.443V38.4439V38.4448V38.4456V38.4465V38.4474V38.4483V38.4492V38.45V38.4509V38.4518V38.4527V38.4536V38.4544V38.4553V38.4562V38.4571V38.458V38.4588V38.4597V38.4606V38.4615V38.4624V38.4632V38.4641V38.465V38.4659V38.4668V38.4676V38.4685V38.4694V38.4703V38.4711V38.472V38.4729V38.4738V38.4747V38.4755V38.4764V38.4773V38.4782V38.479V38.4799V38.4808V38.4817V38.4825V38.4834V38.4843V38.4852V38.486V38.4869V38.4878V38.4887V38.4895V38.4904V38.4913V38.4922V38.493V38.4939V38.4948V38.4956V38.4965V38.4974V38.4982V38.4991V38.5V38.5009V38.5017V38.5026V38.5034V38.5043V38.5052V38.506V38.5069V38.5078V38.5086V38.5095V38.5104V38.5112V38.5121V38.5129V38.5138V38.5147V38.5155V38.5164V38.5172V38.5181V38.5189V38.5198V38.5206V38.5215V38.5224V38.5232V38.5241V38.5249V38.5258V38.5266V38.5275V38.5283V38.5291V38.53V38.5308V38.5317V38.5325V38.5334V38.5342V38.5351V38.5359V38.5367V38.5376V38.5384V38.5392V38.5401V38.5409V38.5417V38.5426V38.5434V38.5442V38.5451V38.5459V38.5467V38.5476V38.5484V38.5492V38.55V38.5509V38.5517V38.5525V38.5533V38.5541V38.555V38.5558V38.5566V38.5574V38.5582V38.559V38.5598V38.5607V38.5615V38.5623V38.5631V38.5639V38.5647V38.5655V38.5663V38.5671V38.5679V38.5687V38.5695V38.5703V38.5711V38.5719V38.5727V38.5735V38.5743V38.5751V38.5758V38.5766V38.5774V38.5782V38.579V38.5798V38.5805V38.5813V38.5821V38.5829V38.5836V38.5844V38.5852V38.586V38.5867V38.5875V38.5883V38.589V38.5898V38.5906V38.5913V38.5921V38.5928V38.5936V38.5943V38.5951V38.5958V38.5966V38.5973V38.5981V38.5988V38.5996V38.6003V38.6011V38.6018V38.6025V38.6033V38.604V38.6047V38.6055V38.6062V38.6069V38.6077V38.6084V38.6091V38.6098V38.6105V38.6113V38.612V38.6127V38.6134V38.6141V38.6148V38.6155V38.6162V38.6169V38.6176V38.6183V38.619V38.6197V38.6204V38.6211V38.6218V38.6225V38.6232V38.6239V38.6246V38.6252V38.6259V38.6266V38.6273V38.628V38.6286V38.6293V38.63V38.6306V38.6313V38.632V38.6326V38.6333V38.6339V38.6346V38.6352V38.6359V38.6365V38.6372V38.6378V38.6385V38.6391V38.6398V38.6404V38.6409C22.7235 40.3571 24.283 41.7457 26.0112 41.6593C27.733 41.5732 29.1283 40.0105 29.0417 38.2783C29.0412 38.2699 29.041 38.2616 29.041 38.2533V33.3465V33.3459V33.3453V33.3447V33.3441V33.3435V33.3429V33.3423V33.3417V33.3411V33.3405V33.3399V33.3393V33.3386V33.338V33.3374V33.3368V33.3362V33.3355V33.3349V33.3343V33.3337V33.333V33.3324V33.3317V33.3311V33.3305V33.3298V33.3292V33.3285V33.3279V33.3272V33.3266V33.3259V33.3253V33.3246V33.3239V33.3233V33.3226V33.3219V33.3213V33.3206V33.3199V33.3192V33.3186V33.3179V33.3172V33.3165V33.3158V33.3151V33.3144V33.3138V33.3131V33.3124V33.3117V33.311V33.3103V33.3096V33.3089V33.3082V33.3075V33.3067V33.306V33.3053V33.3046V33.3039V33.3032V33.3025V33.3017V33.301V33.3003V33.2996V33.2988V33.2981V33.2974V33.2966V33.2959V33.2952V33.2944V33.2937V33.293V33.2922V33.2915V33.2907V33.29V33.2892V33.2885V33.2877V33.287V33.2862V33.2855V33.2847V33.2839V33.2832V33.2824V33.2817V33.2809V33.2801V33.2794V33.2786V33.2778V33.2771V33.2763V33.2755V33.2747V33.274V33.2732V33.2724V33.2716V33.2708V33.27V33.2693V33.2685V33.2677V33.2669V33.2661V33.2653V33.2645V33.2637V33.2629V33.2621V33.2613V33.2605V33.2597V33.2589V33.2581V33.2573V33.2565V33.2557V33.2549V33.2541V33.2533V33.2525V33.2517V33.2509V33.25V33.2492V33.2484V33.2476V33.2468V33.246V33.2451V33.2443V33.2435V33.2427V33.2418V33.241V33.2402V33.2394V33.2385V33.2377V33.2369V33.236V33.2352V33.2344V33.2335V33.2327V33.2319V33.231V33.2302V33.2294V33.2285V33.2277V33.2268V33.226V33.2252V33.2243V33.2235V33.2226V33.2218V33.2209V33.2201V33.2192V33.2184V33.2175V33.2167V33.2158V33.215V33.2141V33.2133V33.2124V33.2116V33.2107V33.2099V33.209V33.2081V33.2073V33.2064V33.2056V33.2047V33.2038V33.203V33.2021V33.2013V33.2004V33.1995V33.1987V33.1978V33.1969V33.1961V33.1952V33.1943V33.1935V33.1926V33.1917V33.1909V33.19V33.1891V33.1883V33.1874V33.1865V33.1857V33.1848V33.1839V33.183V33.1822V33.1813V33.1804V33.1796V33.1787V33.1778V33.1769V33.1761V33.1752V33.1743V33.1734V33.1726V33.1717V33.1708V33.1699V33.169V33.1682V33.1673V33.1664V33.1655V33.1647V33.1638V33.1629V33.162V33.1611V33.1603V33.1594V33.1585V33.1576V33.1567V33.1559V33.155V33.1541V33.1532V33.1523V33.1515V33.1506V33.1497V33.1488V33.1479V33.1471V33.1462V33.1453V33.1444V33.1435V33.1427V33.1418V33.1409V33.14V33.1391V33.1383V33.1374V33.1365V33.1356V33.1348V33.1339V33.133V33.1321V33.1312V33.1304V33.1295V33.1286V33.1277V33.1268V33.126V33.1251V33.1242V33.1233V33.1225V33.1216V33.1207V33.1198V33.1189V33.1181V33.1172V33.1163V33.1154V33.1146V33.1137V33.1128V33.112V33.1111V33.1102V33.1093V33.1085V33.1076V33.1067V33.1058V33.105V33.1041V33.1032V33.1024V33.1015V33.1006V33.0998V33.0989V33.098V33.0972V33.0963V33.0954V33.0946V33.0937V33.0928V33.092V33.0911V33.0903V33.0894V33.0885V33.0877V33.0868V33.086V33.0851V33.0842V33.0834V33.0825V33.0817V33.0808V33.08V33.0791V33.0782V33.0774V33.0765V33.0757V33.0748V33.074V33.0731V33.0723V33.0714V33.0706V33.0698V33.0689V33.0681V33.0672V33.0664V33.0655V33.0647V33.0639V33.063V33.0622V33.0613V33.0605V33.0597V33.0588V33.058V33.0572V33.0563V33.0555V33.0547V33.0538V33.053V33.0522V33.0514V33.0505V33.0497V33.0489V33.0481V33.0472V33.0464V33.0456V33.0448V33.044V33.0432V33.0423V33.0415V33.0407V33.0399V33.0391V33.0383V33.0375V33.0367V33.0359V33.0351V33.0342V33.0334V33.0326V33.0318V33.031V33.0302V33.0294V33.0287V33.0279V33.0271V33.0263V33.0255V33.0247V33.0239V33.0231V33.0223V33.0216V33.0208V33.02V33.0192V33.0184V33.0177V33.0169V33.0161V33.0153V33.0146V33.0138V33.013V33.0122V33.0115V33.0107V33.01V33.0092V33.0084V33.0077V33.0069V33.0062V33.0054V33.0047V33.0039V33.0031V33.0024V33.0017V33.0009V33.0002V32.9994V32.9987V32.9979V32.9972V32.9965V32.9957V32.995V32.9943V32.9935V32.9928V32.9921V32.9914V32.9906V32.9899V32.9892V32.9885V32.9878V32.9871V32.9863V32.9856V32.9849V32.9842V32.9835V32.9828V32.9821V32.9814V32.9807V32.98V32.9793V32.9786V32.9779V32.9772V32.9766V32.9759V32.9752V32.9745V32.9738V32.9731V32.9725V32.9718V32.9711V32.9704V32.9698V32.9691V32.9685V32.9678V32.9671V32.9665V32.9658V32.9652V32.9645V32.9639V32.9632V32.9626V32.9619V32.9613V32.9606V32.96V32.9594V32.9589ZM25.6106 28.9417C27.884 28.828 29.9262 30.6372 30.0404 32.9209C30.0408 32.9293 30.041 32.9376 30.041 32.9459V32.9465V32.9471V32.9477V32.9483V32.9489V32.9495V32.9501V32.9507V32.9513V32.9519V32.9525V32.9531V32.9537V32.9543V32.955V32.9556V32.9562V32.9568V32.9575V32.9581V32.9587V32.9594V32.96V32.9606V32.9613V32.9619V32.9626V32.9632V32.9639V32.9645V32.9652V32.9658V32.9665V32.9671V32.9678V32.9685V32.9691V32.9698V32.9704V32.9711V32.9718V32.9725V32.9731V32.9738V32.9745V32.9752V32.9759V32.9766V32.9772V32.9779V32.9786V32.9793V32.98V32.9807V32.9814V32.9821V32.9828V32.9835V32.9842V32.9849V32.9856V32.9863V32.9871V32.9878V32.9885V32.9892V32.9899V32.9906V32.9914V32.9921V32.9928V32.9935V32.9943V32.995V32.9957V32.9965V32.9972V32.9979V32.9987V32.9994V33.0002V33.0009V33.0017V33.0024V33.0031V33.0039V33.0047V33.0054V33.0062V33.0069V33.0077V33.0084V33.0092V33.01V33.0107V33.0115V33.0122V33.013V33.0138V33.0146V33.0153V33.0161V33.0169V33.0177V33.0184V33.0192V33.02V33.0208V33.0216V33.0223V33.0231V33.0239V33.0247V33.0255V33.0263V33.0271V33.0279V33.0287V33.0294V33.0302V33.031V33.0318V33.0326V33.0334V33.0342V33.0351V33.0359V33.0367V33.0375V33.0383V33.0391V33.0399V33.0407V33.0415V33.0423V33.0432V33.044V33.0448V33.0456V33.0464V33.0472V33.0481V33.0489V33.0497V33.0505V33.0514V33.0522V33.053V33.0538V33.0547V33.0555V33.0563V33.0572V33.058V33.0588V33.0597V33.0605V33.0613V33.0622V33.063V33.0639V33.0647V33.0655V33.0664V33.0672V33.0681V33.0689V33.0698V33.0706V33.0714V33.0723V33.0731V33.074V33.0748V33.0757V33.0765V33.0774V33.0782V33.0791V33.08V33.0808V33.0817V33.0825V33.0834V33.0842V33.0851V33.086V33.0868V33.0877V33.0885V33.0894V33.0903V33.0911V33.092V33.0928V33.0937V33.0946V33.0954V33.0963V33.0972V33.098V33.0989V33.0998V33.1006V33.1015V33.1024V33.1032V33.1041V33.105V33.1058V33.1067V33.1076V33.1085V33.1093V33.1102V33.1111V33.112V33.1128V33.1137V33.1146V33.1154V33.1163V33.1172V33.1181V33.1189V33.1198V33.1207V33.1216V33.1225V33.1233V33.1242V33.1251V33.126V33.1268V33.1277V33.1286V33.1295V33.1304V33.1312V33.1321V33.133V33.1339V33.1348V33.1356V33.1365V33.1374V33.1383V33.1391V33.14V33.1409V33.1418V33.1427V33.1435V33.1444V33.1453V33.1462V33.1471V33.1479V33.1488V33.1497V33.1506V33.1515V33.1523V33.1532V33.1541V33.155V33.1559V33.1567V33.1576V33.1585V33.1594V33.1603V33.1611V33.162V33.1629V33.1638V33.1647V33.1655V33.1664V33.1673V33.1682V33.169V33.1699V33.1708V33.1717V33.1726V33.1734V33.1743V33.1752V33.1761V33.1769V33.1778V33.1787V33.1796V33.1804V33.1813V33.1822V33.183V33.1839V33.1848V33.1857V33.1865V33.1874V33.1883V33.1891V33.19V33.1909V33.1917V33.1926V33.1935V33.1943V33.1952V33.1961V33.1969V33.1978V33.1987V33.1995V33.2004V33.2013V33.2021V33.203V33.2038V33.2047V33.2056V33.2064V33.2073V33.2081V33.209V33.2099V33.2107V33.2116V33.2124V33.2133V33.2141V33.215V33.2158V33.2167V33.2175V33.2184V33.2192V33.2201V33.2209V33.2218V33.2226V33.2235V33.2243V33.2252V33.226V33.2268V33.2277V33.2285V33.2294V33.2302V33.231V33.2319V33.2327V33.2335V33.2344V33.2352V33.236V33.2369V33.2377V33.2385V33.2394V33.2402V33.241V33.2418V33.2427V33.2435V33.2443V33.2451V33.246V33.2468V33.2476V33.2484V33.2492V33.25V33.2509V33.2517V33.2525V33.2533V33.2541V33.2549V33.2557V33.2565V33.2573V33.2581V33.2589V33.2597V33.2605V33.2613V33.2621V33.2629V33.2637V33.2645V33.2653V33.2661V33.2669V33.2677V33.2685V33.2693V33.27V33.2708V33.2716V33.2724V33.2732V33.274V33.2747V33.2755V33.2763V33.2771V33.2778V33.2786V33.2794V33.2801V33.2809V33.2817V33.2824V33.2832V33.2839V33.2847V33.2855V33.2862V33.287V33.2877V33.2885V33.2892V33.29V33.2907V33.2915V33.2922V33.293V33.2937V33.2944V33.2952V33.2959V33.2966V33.2974V33.2981V33.2988V33.2996V33.3003V33.301V33.3017V33.3025V33.3032V33.3039V33.3046V33.3053V33.306V33.3067V33.3075V33.3082V33.3089V33.3096V33.3103V33.311V33.3117V33.3124V33.3131V33.3138V33.3144V33.3151V33.3158V33.3165V33.3172V33.3179V33.3186V33.3192V33.3199V33.3206V33.3213V33.3219V33.3226V33.3233V33.3239V33.3246V33.3253V33.3259V33.3266V33.3272V33.3279V33.3285V33.3292V33.3298V33.3305V33.3311V33.3317V33.3324V33.333V33.3337V33.3343V33.3349V33.3355V33.3362V33.3368V33.3374V33.338V33.3386V33.3393V33.3399V33.3405V33.3411V33.3417V33.3423V33.3429V33.3435V33.3441V33.3447V33.3453V33.3459V33.3465V38.2412C30.1472 40.5094 28.3406 42.5441 26.0611 42.6581C23.7878 42.7717 21.7456 40.9626 21.6314 38.6788C21.631 38.6705 21.6307 38.6622 21.6307 38.6538V38.6532V38.6527V38.6521V38.6515V38.6509V38.6503V38.6497V38.6491V38.6485V38.6479V38.6472V38.6466V38.646V38.6454V38.6448V38.6442V38.6435V38.6429V38.6423V38.6417V38.641V38.6404V38.6398V38.6391V38.6385V38.6378V38.6372V38.6365V38.6359V38.6352V38.6346V38.6339V38.6333V38.6326V38.632V38.6313V38.6306V38.63V38.6293V38.6286V38.628V38.6273V38.6266V38.6259V38.6252V38.6246V38.6239V38.6232V38.6225V38.6218V38.6211V38.6204V38.6197V38.619V38.6183V38.6176V38.6169V38.6162V38.6155V38.6148V38.6141V38.6134V38.6127V38.612V38.6113V38.6105V38.6098V38.6091V38.6084V38.6077V38.6069V38.6062V38.6055V38.6047V38.604V38.6033V38.6025V38.6018V38.6011V38.6003V38.5996V38.5988V38.5981V38.5973V38.5966V38.5958V38.5951V38.5943V38.5936V38.5928V38.5921V38.5913V38.5906V38.5898V38.589V38.5883V38.5875V38.5867V38.586V38.5852V38.5844V38.5836V38.5829V38.5821V38.5813V38.5805V38.5798V38.579V38.5782V38.5774V38.5766V38.5758V38.5751V38.5743V38.5735V38.5727V38.5719V38.5711V38.5703V38.5695V38.5687V38.5679V38.5671V38.5663V38.5655V38.5647V38.5639V38.5631V38.5623V38.5615V38.5607V38.5598V38.559V38.5582V38.5574V38.5566V38.5558V38.555V38.5541V38.5533V38.5525V38.5517V38.5509V38.55V38.5492V38.5484V38.5476V38.5467V38.5459V38.5451V38.5442V38.5434V38.5426V38.5417V38.5409V38.5401V38.5392V38.5384V38.5376V38.5367V38.5359V38.5351V38.5342V38.5334V38.5325V38.5317V38.5308V38.53V38.5291V38.5283V38.5275V38.5266V38.5258V38.5249V38.5241V38.5232V38.5224V38.5215V38.5206V38.5198V38.5189V38.5181V38.5172V38.5164V38.5155V38.5147V38.5138V38.5129V38.5121V38.5112V38.5104V38.5095V38.5086V38.5078V38.5069V38.506V38.5052V38.5043V38.5034V38.5026V38.5017V38.5009V38.5V38.4991V38.4982V38.4974V38.4965V38.4956V38.4948V38.4939V38.493V38.4922V38.4913V38.4904V38.4895V38.4887V38.4878V38.4869V38.486V38.4852V38.4843V38.4834V38.4825V38.4817V38.4808V38.4799V38.479V38.4782V38.4773V38.4764V38.4755V38.4747V38.4738V38.4729V38.472V38.4711V38.4703V38.4694V38.4685V38.4676V38.4668V38.4659V38.465V38.4641V38.4632V38.4624V38.4615V38.4606V38.4597V38.4588V38.458V38.4571V38.4562V38.4553V38.4544V38.4536V38.4527V38.4518V38.4509V38.45V38.4492V38.4483V38.4474V38.4465V38.4456V38.4448V38.4439V38.443V38.4421V38.4412V38.4404V38.4395V38.4386V38.4377V38.4368V38.436V38.4351V38.4342V38.4333V38.4325V38.4316V38.4307V38.4298V38.4289V38.4281V38.4272V38.4263V38.4254V38.4246V38.4237V38.4228V38.4219V38.4211V38.4202V38.4193V38.4184V38.4176V38.4167V38.4158V38.415V38.4141V38.4132V38.4123V38.4115V38.4106V38.4097V38.4089V38.408V38.4071V38.4063V38.4054V38.4045V38.4037V38.4028V38.4019V38.4011V38.4002V38.3993V38.3985V38.3976V38.3968V38.3959V38.395V38.3942V38.3933V38.3925V38.3916V38.3907V38.3899V38.389V38.3882V38.3873V38.3865V38.3856V38.3848V38.3839V38.3831V38.3822V38.3814V38.3805V38.3797V38.3788V38.378V38.3771V38.3763V38.3754V38.3746V38.3737V38.3729V38.3721V38.3712V38.3704V38.3695V38.3687V38.3679V38.367V38.3662V38.3654V38.3645V38.3637V38.3629V38.362V38.3612V38.3604V38.3596V38.3587V38.3579V38.3571V38.3563V38.3554V38.3546V38.3538V38.353V38.3522V38.3513V38.3505V38.3497V38.3489V38.3481V38.3473V38.3465V38.3456V38.3448V38.344V38.3432V38.3424V38.3416V38.3408V38.34V38.3392V38.3384V38.3376V38.3368V38.336V38.3352V38.3344V38.3336V38.3329V38.3321V38.3313V38.3305V38.3297V38.3289V38.3281V38.3274V38.3266V38.3258V38.325V38.3242V38.3235V38.3227V38.3219V38.3212V38.3204V38.3196V38.3189V38.3181V38.3173V38.3166V38.3158V38.315V38.3143V38.3135V38.3128V38.312V38.3113V38.3105V38.3098V38.309V38.3083V38.3075V38.3068V38.3061V38.3053V38.3046V38.3038V38.3031V38.3024V38.3016V38.3009V38.3002V38.2995V38.2987V38.298V38.2973V38.2966V38.2959V38.2951V38.2944V38.2937V38.293V38.2923V38.2916V38.2909V38.2902V38.2895V38.2888V38.2881V38.2874V38.2867V38.286V38.2853V38.2846V38.2839V38.2832V38.2826V38.2819V38.2812V38.2805V38.2798V38.2792V38.2785V38.2778V38.2772V38.2765V38.2758V38.2752V38.2745V38.2738V38.2732V38.2725V38.2719V38.2712V38.2706V38.2699V38.2693V38.2686V38.268V38.2674V38.2667V38.2661V38.2655V38.2648V38.2642V38.2636V38.263V38.2623V38.2617V38.2611V38.2605V38.2599V38.2593V38.2587V38.258V38.2574V38.2568V38.2562V38.2556V38.2551V38.2545V38.2539V38.2533V33.3585C21.5245 31.0904 23.3312 29.0556 25.6106 28.9417Z" fill="currentColor"/>
</svg>
