<svg width="72" height="72" viewBox="0 0 72 72" fill="none" xmlns="http://www.w3.org/2000/svg">
<path fill-rule="evenodd" clip-rule="evenodd" d="M67.544 6.56563C67.741 6.37208 67.7438 6.05551 67.5502 5.85855C67.3567 5.66158 67.0401 5.6588 66.8432 5.85234L44.5615 27.7465V6.70898C44.5615 6.43284 44.3377 6.20898 44.0615 6.20898C43.7854 6.20898 43.5615 6.43284 43.5615 6.70898V51.1707C43.5615 51.4469 43.7854 51.6707 44.0615 51.6707C44.3377 51.6707 44.5615 51.4469 44.5615 51.1707V30.0345L66.8432 51.9286C67.0401 52.1222 67.3567 52.1194 67.5502 51.9224C67.7438 51.7255 67.741 51.4089 67.544 51.2153L44.8241 28.8905L67.544 6.56563Z" fill="currentColor"/>
<path fill-rule="evenodd" clip-rule="evenodd" d="M32 23.21C32 29.2851 27.0751 34.21 21 34.21C14.9249 34.21 10 29.2851 10 23.21C10 17.1348 14.9249 12.21 21 12.21C27.0751 12.21 32 17.1348 32 23.21ZM24.6799 34.6352C29.5071 33.0816 33 28.5537 33 23.21C33 16.5825 27.6274 11.21 21 11.21C14.3726 11.21 9 16.5825 9 23.21C9 28.5537 12.4929 33.0816 17.3201 34.6352C10.2573 36.2976 5 42.6398 5 50.21C5 59.0465 12.1634 66.21 21 66.21C29.8366 66.21 37 59.0465 37 50.21C37 42.6398 31.7427 36.2976 24.6799 34.6352ZM21 35.21C12.7157 35.21 6 41.9257 6 50.21C6 58.4942 12.7157 65.21 21 65.21C29.2843 65.21 36 58.4942 36 50.21C36 41.9257 29.2843 35.21 21 35.21Z" fill="currentColor"/>
</svg>
