<svg fill="none" height="35" viewBox="0 0 110 35" width="110" xmlns="http://www.w3.org/2000/svg" xmlns:xlink="http://www.w3.org/1999/xlink"><clipPath id="a"><path d="m.866699.299805h108.867v33.925h-108.867z"/></clipPath><g clip-path="url(#a)" fill="#000"><path d="m26.1888 18.3261c-.0449-4.2928 3.8498-6.3553 4.0249-6.4535-2.1921-2.91783-5.5971-3.31887-6.81-3.36388-2.8974-.27009-5.6556 1.55508-7.129 1.55508s-3.742-1.51825-6.1452-1.47324c-3.16251.04092-6.0779 1.67374-7.70854 4.25184-3.279249 5.1809-.83553 12.8744 2.36735 17.0853 1.56776 2.0584 3.4275 4.3788 5.88019 4.2928 2.3629-.0859 3.2523-1.3914 6.1003-1.3914s3.6521 1.3914 6.1452 1.3505c2.5381-.045 4.1463-2.1034 5.7005-4.17 1.7879-2.394 2.5291-4.7062 2.574-4.8289-.0584-.0205-4.9458-1.727-4.9997-6.8546z"/><path d="m21.5035 5.71798c1.3027-1.43639 2.1787-3.42933 1.9406-5.418175-1.8732.069568-4.1417 1.137655-5.4849 2.574045-1.2039 1.26861-2.2595 3.29838-1.972 5.2463 2.0798.14732 4.2181-.96987 5.5163-2.40217zm21.113 16.82742-2.1562 5.9543h-2.7716l7.0571-18.9227h3.2343l7.0841 18.9227h-2.866l-2.2191-5.9543zm6.8101-1.9111-2.0305-5.4468c-.4627-1.2358-.7681-2.3571-1.0781-3.4539h-.0584c-.3099 1.1213-.6468 2.2713-1.0466 3.4253l-2.0305 5.4714zm7.7399-1.289c0-1.7392-.0584-3.147-.1258-4.4361h2.4348l.1257 2.3326h.0584c1.1096-1.6573 2.866-2.6395 5.3008-2.6395 3.6071 0 6.3159 2.7787 6.3159 6.9078 0 4.8862-3.2658 7.2965-6.7786 7.2965-1.9721 0-3.6971-.7857-4.591-2.132h-.0584v7.3824h-2.6818zm2.6773 3.6216c0 .3684.0584.6998.1258 1.0108.4941 1.7106 2.1248 2.8933 4.0699 2.8933 2.8659 0 4.5325-2.1321 4.5325-5.2504 0-2.7255-1.5722-5.0499-4.4382-5.0499-1.8463 0-3.5712 1.2072-4.1013 3.061-.0944.307-.1842.6753-.1842 1.0108zm14.2356-3.6216c0-1.7392-.0584-3.147-.1258-4.4361h2.4347l.1258 2.3326h.0584c1.1096-1.6573 2.866-2.6395 5.3007-2.6395 3.6072 0 6.3159 2.7787 6.3159 6.9078 0 4.8862-3.2657 7.2965-6.7786 7.2965-1.972 0-3.697-.7857-4.5909-2.132h-.0584v7.3824h-2.6818zm2.6818 3.6216c0 .3684.0584.6998.1257 1.0108.4942 1.7106 2.1248 2.8933 4.0699 2.8933 2.866 0 4.5326-2.1321 4.5326-5.2504 0-2.7255-1.5723-5.0499-4.4383-5.0499-1.8462 0-3.5712 1.2072-4.1013 3.061-.0943.307-.1841.6753-.1841 1.0108zm14.2355-14.40069h2.7133v19.92939h-2.7133zm8.1667 13.58639c.0584 3.3393 2.4036 4.7184 5.1116 4.7184 1.941 0 3.113-.3069 4.129-.6998l.462 1.7679c-.952.3928-2.587.843-4.959.843-4.5909 0-7.3356-2.75-7.3356-6.8505s2.6504-7.3293 6.9946-7.3293c4.869 0 6.163 3.9 6.163 6.4003 0 .5075-.059.8963-.094 1.15zm7.9506-1.7679c.032-1.5714-.709-4.0145-3.759-4.0145-2.745 0-3.9445 2.3039-4.1602 4.0145z"/></g></svg>