<svg fill="none" height="34" viewBox="0 0 108 34" width="108" xmlns="http://www.w3.org/2000/svg" xmlns:xlink="http://www.w3.org/1999/xlink"><clipPath id="a"><path d="m.333313.775391h107.333v32.45h-107.333z"/></clipPath><g clip-path="url(#a)"><path d="m13.5517.779297h.9544c3.3137.066723 6.5733 1.301103 8.9145 3.486303-.8645.81736-1.7469 1.60136-2.5933 2.41872-1.3147-1.10094-2.8995-1.95166-4.6283-2.25192-2.5573-.50042-5.3127-.05004-7.45572 1.30111-2.34116 1.41787-3.92595 3.81992-4.26812 6.38879-.37819 2.5355.3962 5.2044 2.17908 7.1727 1.71085 1.9183 4.32216 3.1194 7.02346 3.2028 2.5213.1334 5.1506-.5839 6.9875-2.2186 1.4407-1.151 2.1071-2.9025 2.3232-4.6039-2.9895 0-5.979.0167-8.9685 0v-3.4363h12.5883c.6483 3.6865-.2882 7.84-3.3137 10.4756-2.017 1.8683-4.8084 2.9692-7.6538 3.1861-2.7554.2502-5.6008-.2336-8.04999-1.468-2.93546-1.4512-5.27662-3.9033-6.42919-6.7891-1.0805406-2.6522-1.0985496-5.6548-.09005-8.32371.91846-2.4354 2.68333-4.58723 4.95246-6.08851 2.17908-1.48459 4.82637-2.301955 7.52777-2.452083z" fill="#3c84fc"/><path d="m85.7678 1.64551h3.8539v23.82029c-1.2787 0-2.5753.0166-3.8539-.0167.018-7.9234 0-15.86351 0-23.80359z" fill="#3eb03f"/><path d="m35.1806 9.90285c2.3772-.41702 4.9525.05005 6.9155 1.36785 1.7828 1.1676 3.0255 3.0025 3.4036 5.0042.4863 2.3187-.126 4.8542-1.7468 6.6891-1.7469 2.0517-4.6103 3.1526-7.4017 2.9858-2.5573-.1334-5.0425-1.3178-6.5553-3.2527-1.7108-2.1352-2.125-5.071-1.1886-7.5731.9365-2.6857 3.5838-4.7374 6.5733-5.22115zm.5403 3.16935c-.9725.2335-1.873.7507-2.5213 1.4846-1.7468 1.935-1.6388 5.0877.2882 6.8892 1.0985 1.0342 2.7553 1.518 4.2861 1.2344 1.4227-.2335 2.6653-1.1176 3.3497-2.2853 1.1886-1.985.8464-4.7207-.9725-6.272-1.1706-1.0008-2.8814-1.4179-4.4302-1.0509z" fill="#f73b25"/><path d="m54.2701 9.90311c2.7194-.48375 5.6908.21689 7.7258 1.98499 3.3137 2.7524 3.6739 7.9067.8465 11.0761-1.7109 2.0017-4.4843 3.1026-7.2216 2.9859-2.6113-.0667-5.1866-1.2678-6.7354-3.2528-1.7468-2.1852-2.125-5.1877-1.1345-7.7399.9905-2.6022 3.5837-4.5872 6.5192-5.05429zm.5403 3.16939c-.9725.2335-1.873.7506-2.5213 1.4679-1.7288 1.9016-1.6568 5.0042.1981 6.8224 1.0986 1.0843 2.8094 1.6181 4.3942 1.3178 1.4047-.2502 2.6653-1.1176 3.3497-2.2852 1.1706-2.0017.8284-4.7374-1.0085-6.2887-1.1706-1.0009-2.8815-1.4012-4.4122-1.0342z" fill="#fbbc2e"/><path d="m70.4602 10.8701c2.071-1.20098 4.8264-1.5346 7.0595-.5004.7023.2836 1.2786.7673 1.8369 1.2511.018-.4504 0-.9175.018-1.3845 1.2066.0166 2.4132 0 3.6378.0166v14.7126c-.018 2.2185-.6303 4.5705-2.3592 6.1886-1.8909 1.7848-4.7904 2.3353-7.4017 1.9683-2.7913-.3837-5.2226-2.2686-6.3031-4.654 1.0805-.4837 2.2151-.8674 3.3317-1.3177.6303 1.3678 1.9089 2.5354 3.5117 2.8023s3.4577-.1001 4.5022-1.3344c1.1166-1.2678 1.1166-3.0026 1.0626-4.5539-.8284.7506-1.7829 1.4179-2.9355 1.6681-2.5032.6505-5.2586-.1501-7.1856-1.7181-1.9449-1.568-3.0975-3.9868-2.9894-6.3888.054-2.719 1.7108-5.3379 4.2141-6.7558zm3.7278 2.1352c-1.0985.1668-2.1251.7339-2.8274 1.5179-1.6928 1.8683-1.6928 4.8542.018 6.6891.9725 1.0842 2.5393 1.6847 4.052 1.5346 1.4227-.1334 2.7374-.9675 3.4397-2.1185 1.1886-1.9516.9905-4.6039-.6123-6.3053-.9905-1.0509-2.5753-1.568-4.07-1.3178z" fill="#3c84fc"/><path d="m94.25 11.7205c2.1611-1.86822 5.4927-2.5021 8.266-1.5179 2.629.9174 4.304 3.2361 5.151 5.6214-3.908 1.5013-7.7982 2.9859-11.7062 4.4872.5403.9508 1.3687 1.8182 2.4853 2.1685 1.5669.5171 3.4399.3336 4.7539-.6339.523-.367.937-.8507 1.333-1.3178.991.6172 1.981 1.2177 2.972 1.8349-1.405 1.9517-3.764 3.3195-6.304 3.5364-2.8089.3169-5.7984-.684-7.6173-2.719-2.9895-3.2027-2.7014-8.574.6663-11.4598zm1.927 3.086c-.6123.8173-.8645 1.8182-.8465 2.8024 2.6113-1.0009 5.2225-2.0017 7.8335-3.0193-.432-.9341-1.476-1.5012-2.539-1.6514-1.7107-.2835-3.4936.5672-4.448 1.8683z" fill="#f73b25"/></g></svg>