<svg fill="none" height="27" viewBox="0 0 125 27" width="125" xmlns="http://www.w3.org/2000/svg"><path d="m52.4908 14.5585h-6.2797v-5.2587h-2.781v13.0355h2.781v-5.2935h6.2797v5.2935h2.781v-13.0355h-2.781z" fill="#262729"/><path d="m68.1565 16.7609c0 2.1191-1.107 3.2514-3.1157 3.2514s-3.1365-1.1634-3.1365-3.3409v-7.36414h-2.7745v7.45734c0 3.6665 2.142 5.7695 5.881 5.7695 3.7704 0 5.9333-2.1415 5.9333-5.8776v-7.3567h-2.7876z" fill="#262729"/><path d="m100.297 18.2638-3.113-8.96497h-2.2688l-3.1117 8.96497-3.0281-8.95751h-2.9601l4.7767 13.02921h2.3028l3.1169-8.5585 3.1157 8.5585h2.3226l4.765-13.02921h-2.883z" fill="#262729"/><path d="m111.2 16.7262h5.058v-2.3752h-5.058v-2.6672h7.343v-2.37521h-10.086v13.01811h10.35v-2.374h-7.607z" fill="#262729"/><path d="m124.867 9.2998h-2.743v13.0181h2.743z" fill="#262729"/><path d="m82.7062 19.6146 1.2311 2.7132h2.9144l-5.9817-12.95218-.0535-.07582h-2.4309l-6.0378 13.0267h2.8386l1.1644-2.523.0836-.1902zm-3.1365-7.0162 1.9826 4.3626h-.0066l.1307.3032h-4.2082l.1307-.3032z" fill="#262729"/><g fill="#cf0a2c"><path d="m4.9498 14.4741c2.74448 2.5504 9.4096 5.772 10.9557 6.5028.0242.011.0513.0146.0778.0103.0264-.0042.0508-.016.0699-.0339.018-.0151.0306-.0352.036-.0575s.0033-.0457-.006-.0668c-4.2082-8.7512-9.94805-15.39567-10.02908-15.49013h-.00915c-.10193.09321-3.14439 2.89345-2.92352 5.69993.12154 2.1564 1.82835 3.4353 1.82835 3.4353z"/><path d="m9.13316 26.5434c1.45584-.3455 4.75184-2.5343 5.83924-3.275.0836-.0734.0536-.1318.0536-.1318-.0069-.0239-.0212-.0454-.041-.0615-.0198-.0162-.0442-.0264-.0701-.0292h-.2536l-10.84721.3604v.0125c1.19319 2.0321 3.21366 3.6094 5.31907 3.1246z"/><path d="m4.64398 21.8209c.67705.2547 1.3928.4041 2.11978.4425.16598.0285 6.59194 0 8.31444 0 .0237-.0026.0463-.0104.0661-.023.0198-.0125.0361-.0294.0476-.0491.0536-.0821-.0418-.1566-.0418-.1566-4.8682-3.1321-14.307885-7.9322-14.307885-7.9322-.511769 1.5039-.405304 3.1363.297955 4.5685.70325 1.4322 1.95104 2.5577 3.49205 3.1499z"/><path d="m10.5289 7.70158c.9802 4.13762 5.8 10.93742 6.8351 12.36432.0732.0708.1307.0447.1307.0447.0311-.0063.0587-.0231.0778-.0473.019-.0243.028-.0543.0254-.0844 1.5944-15.18196-1.6741-19.206439-1.6741-19.206439-.4823.039772-1.7839.321909-1.7839.321909-.8459.20574-1.6228.61301-2.2573 1.1834s-1.1058 1.28509-1.3694 2.0767c-.53449 1.59587.0157 3.34711.0157 3.34711z"/><path d="m19.51 19.9913c.0002.0252.0084.0497.0236.0703.0151.0207.0365.0364.0613.0453.0296.0105.0621.0105.0917 0 .0295-.0105.0541-.0308.0691-.0572 1.0638-1.4641 5.8549-8.2267 6.8298-12.34937 0 0 .5228-1.99608.0183-3.3471 0 0-.724-2.57527-3.6593-3.25637 0 0-.8469-.202596-1.7447-.324399-.0013.002486-3.2868 4.028209-1.6898 19.218839z"/><path d="m22.095 23.1276c-.0064.0253-.0059.0518.0017.0769.0076.025.0219.0478.0414.066 1.0612.7234 4.2775 2.8661 5.8275 3.2813 0 0 2.8647.9321 5.3583-3.1408l-11.0969-.3729s-.1045.0211-.132.0895z"/><path d="m21.976 22.0234c-.0249.0167-.0438.0404-.0539.0678-.01.0275-.0108.0572-.0023.0851 0 0 .0445.0783.1137.0783 1.7434 0 8.3459.0099 8.5132-.0187.6542-.0489 1.2972-.1896 1.908-.4176 0 0 2.3524-.7109 3.5666-3.2514.6525-1.4175.7403-3.0123.247-4.4868 0 0-9.4189 4.8137-14.2923 7.9433z"/><path d="m21.0521 20.7857c-.0134.0276-.0177.0584-.0124.0883.0054.03.0202.0577.0424.0795.0216.0149.0472.0237.0738.0252.0267.0016.0532-.0042.0765-.0165 1.5866-.7458 8.1943-3.9512 10.9309-6.4904 0 0 1.7329-1.3262 1.8296-3.4527.2013-2.95564-2.9222-5.69-2.9222-5.69s-5.7895 6.6631-10.0186 15.4566z"/></g></svg>