<svg fill="none" height="35" viewBox="0 0 77 35" width="77" xmlns="http://www.w3.org/2000/svg"><path d="m18.248 34.7513c3.5452.0008 7.011-1.0097 9.9592-2.9037 2.9481-1.894 5.2463-4.5864 6.6037-7.7368 1.3575-3.1504 1.7133-6.6173 1.0225-9.9622-.6908-3.345-2.3972-6.41774-4.9034-8.82976-2.5062-2.41203-5.6997-4.05498-9.1766-4.721091-3.4769-.6661134-7.0811-.325472-10.3567.978851-3.27565 1.30432-6.07566 3.51373-8.04596 6.34885-1.97029 2.83515-3.022383 6.16865-3.023225 9.57895v.006c.0026 4.5714 1.891405 8.9549 5.251515 12.1876s7.91677 5.0502 12.66897 5.0533" fill="#c81e5d"/><g fill="#fff"><path d="m17.5033 9.88965v15.20815h5.0165v-1.4623h-3.4964v-13.74585z"/><path d="m12.5212 14.0699c.4257.0001.842-.1211 1.196-.3485.3541-.2273.6301-.5506.7932-.9289.1631-.3782.206-.7946.1231-1.1962-.0829-.4017-.2877-.7708-.5886-1.0605s-.6843-.487-1.1018-.56712c-.4175-.08007-.8503-.03926-1.2437.11732-.3934.1565-.7297.4217-.9664.7621-.2366.3404-.3631.7407-.3632 1.1502v.005c.0025.5479.2301 1.0725.6331 1.4596s.9488.6053 1.5183.607"/><path d="m18.9689 3.08813c-.1964-.00512-.5365-.00512-.721-.00512-2.9579.01651-5.8445.87514-8.29582 2.46762-2.45131 1.59248-4.35757 3.84751-5.47841 6.48077-1.12085 2.6332-1.4061 5.5267-.81977 8.3157.58632 2.7889 2.01796 5.3484 4.11439 7.3558 2.09643 2.0073 4.76381 3.3726 7.66571 3.9236 2.902.5511 5.9086.2633 8.6407-.8271s5.0674-2.9346 6.7115-5.3001c1.6441-2.3654 2.5232-5.1461 2.5267-7.9915v-.5985h-10.7931v1.316h9.2985s-.0064.1556-.0064.1857c-.1836 2.5429-1.1354 4.9787-2.7385 7.0083-1.6031 2.0295-3.7877 3.5644-6.2852 4.4159-2.4975.8516-5.1992.9827-7.7732.3773-2.5739-.6053-4.908-1.9208-6.71532-3.7848-1.80735-1.864-3.00926-4.1953-3.45805-6.7075-.44879-2.5121-.12491-5.0956.93185-7.4331 1.05676-2.33747 2.80035-4.32707 5.01652-5.72431 2.2162-1.39724 4.8084-2.14126 7.4582-2.14063.161 0 .5429.00789.721.01126z"/></g><path d="m45.1701 8.86621h5.3206v13.01469h7.7528v4.2407h-13.1023l.0005-17.25539" fill="#595a5a"/><path d="m71.7913 24.3901c-.5476.7235-1.2769 1.3018-2.1198 1.6807-.8429.379-1.7718.5463-2.7001.4864-4.667 0-7.6983-3.5723-7.6983-9.0734 0-5.5963 3.4427-9.03615 9.067-9.03615 2.035-.06138 4.0324.53676 5.6716 1.69845 1.5066 1.1498 2.0819 2.2296 2.3217 4.5693h-5.5507c-.0468-.6149-.3396-1.1884-.8169-1.5998-.4774-.4115-1.102-.6288-1.7425-.6063-2.127 0-3.375 1.8948-3.375 5.0606 0 3.2082 1.2964 5.1168 3.4694 5.1168 1.7482 0 2.7269-.9522 3.1335-2.9994h-3.4789v-3.6558h8.3609v10.09h-4.5606v-1.7547" fill="#595a5a"/></svg>