<svg width="181" height="40" viewBox="0 0 181 40" fill="none" xmlns="http://www.w3.org/2000/svg"><path d="M40 0H0v40h40V0Z" class="fill-brand"/><path d="m10.805 10.265 19.35 9.623-19.373 9.845 12.461-9.816-12.438-9.652Z" fill="#050504"/><path d="M57.055 14.616 53.598 3.74h-2.631l4.63 14.045h2.885l4.65-14.045h-2.604l-3.473 10.875ZM95.587 15.437h-6.37v-3.443h5.92V9.635h-5.92V6.09h6.37V3.741h-8.838v14.045h8.838v-2.35ZM80.78 17.365a7.356 7.356 0 0 0 1.74-1.642 2.36 2.36 0 0 0 .354-1.34V7.197a2.208 2.208 0 0 0-.372-1.341c-.284-.402-1.175-1.41-1.695-1.711a2.81 2.81 0 0 0-1.438-.405h-6.43v14.047h6.43a3.007 3.007 0 0 0 1.41-.423Zm-5.374-1.928V6.09h3.73a.657.657 0 0 1 .214.021c.422.26.778.616 1.038 1.038a.4.4 0 0 1 .019.118v7.069c0 .273-.705.89-1.038 1.075a.498.498 0 0 1-.155.019l-3.808.007ZM68.614 3.741h-2.467v14.054h2.467V3.741ZM160.8 3.741v9.446l-4.826-9.446h-2.652v14.045h2.465V8.461l4.865 9.325h2.613V3.741H160.8ZM136.047 17.788l-2.791-5.725a2.27 2.27 0 0 0 .608-.335c.47-.365.896-.781 1.272-1.242.282-.426.43-.927.423-1.438V6.983a2.589 2.589 0 0 0-.423-1.433c-.373-.478-.8-.91-1.272-1.29a3.003 3.003 0 0 0-1.664-.521h-6.604v14.05h2.465v-5.534h2.7l2.613 5.55 2.673-.017Zm-2.955-8.759a.21.21 0 0 1-.03.098c-.185.321-.654.772-.862.772h-4.139V6.09h4.256c.232.02.609.49.745.753a.37.37 0 0 1 .03.158v2.027ZM147.523 4.067a2.969 2.969 0 0 0-1.457-.423h-3.579a2.934 2.934 0 0 0-1.457.423c-.49.282-1.431 1.29-1.713 1.693a2.333 2.333 0 0 0-.373 1.34v7.36c-.013.471.117.935.373 1.33.282.403 1.223 1.42 1.713 1.693.44.269.942.417 1.457.43h3.572a2.974 2.974 0 0 0 1.457-.43c.49-.273 1.41-1.29 1.713-1.693.256-.395.387-.858.375-1.33V7.1a2.346 2.346 0 0 0-.384-1.34c-.294-.403-1.214-1.41-1.697-1.693Zm-.37 10.364a.208.208 0 0 1-.03.097c-.275.398-.624.74-1.027 1.008a.403.403 0 0 1-.118.019h-3.394a.31.31 0 0 1-.118-.019 3.708 3.708 0 0 1-1.036-1.008.232.232 0 0 1-.021-.097V7.168a.394.394 0 0 1 .021-.118 3.813 3.813 0 0 1 1.036-1.027c.021-.027.118-.027.118-.027h3.387a.231.231 0 0 1 .118.027 3.94 3.94 0 0 1 1.027 1.027c.03.03.03.118.03.118l.007 7.263ZM122.257 3.741h-10.082v2.35h3.809v11.707h2.465V6.09h3.808V3.741ZM109.525 15.79c.25-.397.379-.86.37-1.33V7.1a2.417 2.417 0 0 0-.37-1.34c-.305-.403-1.225-1.41-1.725-1.693a2.973 2.973 0 0 0-1.435-.423h-3.584a2.923 2.923 0 0 0-1.46.423c-.497.282-1.438 1.29-1.71 1.693-.261.398-.395.865-.384 1.34v7.36c-.01.473.124.936.383 1.33.273.403 1.214 1.42 1.711 1.693.44.27.944.418 1.46.43h3.584a2.985 2.985 0 0 0 1.447-.43c.488-.273 1.408-1.297 1.713-1.693Zm-2.097-1.36a.321.321 0 0 1-.018.098 3.84 3.84 0 0 1-1.045 1.008.415.415 0 0 1-.118.019h-3.379a.325.325 0 0 1-.115-.019 3.66 3.66 0 0 1-1.031-1.008.168.168 0 0 1-.028-.097V7.168c0-.04.01-.081.028-.118a3.76 3.76 0 0 1 1.031-1.027c.028-.027.115-.027.115-.027h3.388a.231.231 0 0 1 .118.027c.406.275.757.623 1.036 1.027a.337.337 0 0 1 .018.118v7.263ZM59.999 22.635a2.488 2.488 0 0 0-1.427-.463h-6.356v14.121h6.356c.51 0 1.009-.157 1.427-.45.435-.375.83-.795 1.18-1.251.23-.361.346-.784.332-1.212v-2.003a2.27 2.27 0 0 0-.333-1.26 8.026 8.026 0 0 0-.895-.966c.325-.297.624-.62.895-.967a2.27 2.27 0 0 0 .333-1.26v-1.803a2.261 2.261 0 0 0-.333-1.258c-.35-.45-.744-.861-1.18-1.228Zm-6.354 7.205h4.934a.86.86 0 0 1 .36.065c.447.288.82.676 1.088 1.135a.838.838 0 0 1 .067.36v1.922a.856.856 0 0 1-.065.358c-.27.46-.643.849-1.092 1.136a.72.72 0 0 1-.381.09h-4.911V29.84Zm5.295-1.443a.865.865 0 0 1-.36.09h-4.935v-4.95h4.911a.738.738 0 0 1 .384.09 3.51 3.51 0 0 1 1.087 1.156.838.838 0 0 1 .067.36v1.735a.992.992 0 0 1-.065.384 3.416 3.416 0 0 1-1.096 1.135h.007ZM72.876 33.204a.633.633 0 0 1-.09.29 4.798 4.798 0 0 1-1.42 1.465.56.56 0 0 1-.287.065h-2.904a.572.572 0 0 1-.291-.067 4.939 4.939 0 0 1-1.462-1.464.634.634 0 0 1-.09-.289V22.161H64.91V33.26c-.008.402.1.799.31 1.142a8.042 8.042 0 0 0 1.602 1.619c.373.229.798.36 1.235.379h3.14c.43-.02.847-.151 1.212-.38a8.117 8.117 0 0 0 1.605-1.618c.202-.345.301-.742.284-1.142v-11.1h-1.422v11.044ZM86.218 29.424l-6.396-1.78a1.07 1.07 0 0 1-.694-1.023v-1.477a.616.616 0 0 1 .09-.287 4.373 4.373 0 0 1 1.441-1.35.571.571 0 0 1 .287-.065h3.304c.1-.005.2.019.289.067a4.51 4.51 0 0 1 1.42 1.468c.063.094.116.194.16.298l.01.026 1.423-.416-.014-.035a5.48 5.48 0 0 0-.543-.925c-.273-.368-.925-1.156-1.462-1.485a2.518 2.518 0 0 0-1.211-.379H80.83c-.43.02-.847.151-1.212.38A8.162 8.162 0 0 0 78 24.09c-.202.351-.301.752-.287 1.157V26.7c0 1.07.608 1.988 1.478 2.233l6.418 1.758c.45.118.727.647.727 1.07v1.499c.001.1-.021.199-.065.289a4.624 4.624 0 0 1-1.466 1.387.489.489 0 0 1-.264.065h-3.743a.657.657 0 0 1-.315-.067 4.751 4.751 0 0 1-1.415-1.464.962.962 0 0 1-.16-.27v-.026l-1.398.39.013.035c.144.325.318.635.52.925.271.368.926 1.157 1.462 1.485.373.229.798.36 1.235.38h3.89c.429-.021.846-.152 1.21-.38a8.044 8.044 0 0 0 1.62-1.619c.201-.35.3-.751.286-1.156v-1.593c-.005-1.054-.631-1.963-1.528-2.217ZM92.426 22.16h-1.424v14.124h1.424V22.161ZM103.865 34.169l-6.007-11.992-.01-.016h-1.856v14.12h1.376V24.389l6.055 11.878.01.016h1.808V22.16h-1.376v12.008ZM108.827 36.282h8.123v-1.376h-6.701V29.91h6.35v-1.375h-6.35v-4.997h6.701V22.16h-8.123v14.12ZM128.588 29.424l-6.396-1.78a1.077 1.077 0 0 1-.694-1.023v-1.477a.61.61 0 0 1 .091-.287 4.352 4.352 0 0 1 1.442-1.35.56.56 0 0 1 .287-.065h3.302a.563.563 0 0 1 .291.067 4.525 4.525 0 0 1 1.42 1.463c.063.094.117.194.16.299l.011.025 1.388-.407h.034l-.014-.034a5.627 5.627 0 0 0-.543-.925c-.271-.368-.925-1.157-1.461-1.485a2.513 2.513 0 0 0-1.212-.38h-3.491c-.43.021-.847.152-1.212.38a8.213 8.213 0 0 0-1.619 1.651 2.165 2.165 0 0 0-.284 1.156v1.452c0 1.07.606 1.989 1.475 2.234l6.421 1.757c.447.118.724.648.724 1.07v1.5a.63.63 0 0 1-.065.288 4.61 4.61 0 0 1-1.466 1.388.482.482 0 0 1-.263.064h-3.746a.67.67 0 0 1-.315-.067 4.78 4.78 0 0 1-1.415-1.463 1.011 1.011 0 0 1-.157-.27v-.026l-1.399.39.016.035c.143.324.316.634.518.925.273.368.925 1.156 1.462 1.484.372.23.797.36 1.234.38h3.892c.43-.021.847-.152 1.212-.38a8.1 8.1 0 0 0 1.618-1.618c.202-.351.301-.752.287-1.156v-1.593c-.009-1.06-.634-1.968-1.533-2.222ZM141.872 29.424l-6.398-1.78a1.07 1.07 0 0 1-.694-1.023v-1.477a.608.608 0 0 1 .088-.287 4.378 4.378 0 0 1 1.443-1.35.564.564 0 0 1 .286-.065h3.295a.56.56 0 0 1 .289.067c.58.373 1.066.874 1.423 1.463.063.094.116.194.159.299v.025l1.387-.407h.035l-.014-.034a5.446 5.446 0 0 0-.543-.925c-.271-.368-.925-1.157-1.461-1.485a2.513 2.513 0 0 0-1.212-.38h-3.492a2.517 2.517 0 0 0-1.195.38 8.208 8.208 0 0 0-1.619 1.651c-.202.351-.301.752-.286 1.156v1.452c0 1.07.605 1.989 1.475 2.234l6.421 1.757c.449.118.726.648.726 1.07v1.5c.002.1-.021.199-.067.288a4.61 4.61 0 0 1-1.466 1.388.483.483 0 0 1-.264.064h-3.739a.652.652 0 0 1-.312-.067 4.76 4.76 0 0 1-1.417-1.463 1.09 1.09 0 0 1-.157-.27v-.026l-1.388.39.014.035c.144.324.317.633.518.925.273.368.925 1.156 1.461 1.484.374.23.8.36 1.238.38h3.889c.429-.02.847-.151 1.211-.38a8.052 8.052 0 0 0 1.619-1.618c.201-.351.3-.752.284-1.156v-1.593c-.016-1.06-.64-1.968-1.537-2.222Z" fill="currentColor"/></svg>