<svg width="156" height="48" viewBox="0 0 156 48" fill="none" xmlns="http://www.w3.org/2000/svg">
    <path d="M48 0H0V48H48V0Z" class="fill-brand"/>
    <path d="M12.9664 12.3184L36.1868 23.865L12.9385 35.6798L27.8918 23.9007L12.9664 12.3184Z" fill="#050504"/>
    <path d="M64.4581 19.9879L61.9268 11.9905H60L63.3897 22.3215H65.5028L68.9078 11.9905H67.0013L64.4581 19.9879Z" fill="currentColor"/>
    <path d="M91.7183 9.22656H89.7475L88.4437 10.9172H90.0912L91.7183 9.22656Z" fill="currentColor"/>
    <path d="M92.7223 20.5935H88.0576V18.0609H92.3921V16.3243H88.0576V13.7186H92.7223V11.9905H86.251V22.3215H92.7223V20.5935Z" fill="currentColor"/>
    <path d="M81.8793 22.012C82.3671 21.6814 82.7977 21.2729 83.1542 20.8027C83.3369 20.5079 83.4272 20.1648 83.4133 19.8179V14.5316C83.4304 14.1824 83.3348 13.837 83.1407 13.5468C82.9324 13.2508 82.2805 12.5092 81.8996 12.2864C81.5813 12.0948 81.2175 11.9925 80.8464 11.9905H76.1377V22.3232H80.8464C81.211 22.3066 81.5658 22.1997 81.8793 22.012V22.012ZM77.9443 20.5935V13.7186H80.6754C80.7284 13.7149 80.7816 13.7201 80.8329 13.7339C81.1424 13.9257 81.4028 14.1879 81.5931 14.4993C81.6019 14.5273 81.6065 14.5566 81.6066 14.586V19.7889C81.6066 19.9879 81.0902 20.4421 80.8464 20.5798C80.8095 20.5903 80.7713 20.5949 80.733 20.5935H77.9443Z" fill="currentColor"/>
    <path d="M72.9714 11.9905H71.1648V22.3283H72.9714V11.9905Z" fill="currentColor"/>
    <path d="M140.475 11.9905V18.9385L136.941 11.9905H134.999V22.3215H136.804V15.4602L140.367 22.3215H142.28V11.9905H140.475Z" fill="currentColor"/>
    <path d="M122.35 22.3232L120.306 18.1102C120.466 18.0526 120.617 17.9699 120.751 17.8653C121.094 17.5965 121.407 17.2902 121.682 16.9519C121.89 16.6381 121.998 16.2687 121.992 15.8923V14.3751C121.994 14.0012 121.886 13.6351 121.682 13.3223C121.409 12.971 121.097 12.6525 120.751 12.3732C120.391 12.1274 119.967 11.9942 119.532 11.9905H114.696V22.3232H116.501V18.2412H118.479L120.392 22.3232H122.35ZM120.186 15.8787C120.184 15.9039 120.177 15.9284 120.164 15.9501C120.028 16.1882 119.685 16.5199 119.532 16.5199H116.501V13.7186H119.618C119.788 13.7339 120.064 14.0774 120.164 14.273C120.179 14.3095 120.187 14.349 120.186 14.3887V15.8787Z" fill="currentColor"/>
    <path d="M130.753 12.2285C130.43 12.035 130.062 11.9283 129.686 11.9189H127.065C126.689 11.9272 126.321 12.0339 125.998 12.2285C125.639 12.4377 124.95 13.1776 124.744 13.4752C124.555 13.768 124.46 14.1115 124.471 14.46V19.8739C124.461 20.2202 124.556 20.5614 124.744 20.8519C124.95 21.1495 125.639 21.8962 125.998 22.0986C126.32 22.2955 126.688 22.4045 127.065 22.415H129.681C130.058 22.403 130.425 22.2941 130.748 22.0986C131.107 21.8962 131.781 21.1495 132.002 20.8519C132.19 20.5612 132.286 20.2202 132.277 19.8739V14.46C132.286 14.1126 132.19 13.7705 132.002 13.4786C131.781 13.1776 131.107 12.4377 130.753 12.2285ZM130.482 19.8535C130.481 19.8788 130.473 19.9034 130.46 19.9249C130.258 20.2178 130.003 20.4694 129.708 20.6665C129.68 20.6753 129.651 20.6799 129.622 20.6801H127.136C127.107 20.6813 127.077 20.6767 127.05 20.6665C126.751 20.4718 126.493 20.2198 126.291 19.9249C126.281 19.9025 126.276 19.8781 126.276 19.8535V14.5094C126.276 14.4804 126.281 14.4516 126.291 14.4243C126.493 14.1254 126.751 13.8684 127.05 13.6674C127.065 13.647 127.136 13.647 127.136 13.647H129.617C129.647 13.646 129.677 13.653 129.703 13.6674C129.998 13.8706 130.253 14.1273 130.455 14.4243C130.477 14.4464 130.477 14.5094 130.477 14.5094L130.482 19.8535Z" fill="currentColor"/>
    <path d="M112.251 11.9905H104.869V13.7186H107.658V22.3283H109.463V13.7186H112.251V11.9905Z" fill="currentColor"/>
    <path d="M102.929 20.8519C103.112 20.5594 103.206 20.2194 103.2 19.8739V14.46C103.207 14.1122 103.113 13.7698 102.929 13.4752C102.705 13.1776 102.031 12.4377 101.666 12.2285C101.347 12.0379 100.985 11.9315 100.614 11.9189H97.9898C97.6128 11.9264 97.2444 12.0332 96.9214 12.2285C96.5506 12.4377 95.8733 13.1776 95.6685 13.4786C95.4775 13.7707 95.3795 14.1141 95.3874 14.4634V19.8739C95.3805 20.2209 95.4785 20.5619 95.6685 20.8519C95.8683 21.1495 96.5574 21.8962 96.9214 22.0986C97.2439 22.2961 97.6123 22.4052 97.9898 22.415H100.614C100.989 22.4018 101.353 22.2929 101.674 22.0986C102.031 21.8962 102.705 21.1495 102.929 20.8519ZM101.393 19.8535C101.392 19.8779 101.388 19.902 101.38 19.9249C101.174 20.2189 100.914 20.4706 100.614 20.6665C100.586 20.6752 100.557 20.6798 100.528 20.6801H98.0542C98.0253 20.6807 97.9967 20.6761 97.9695 20.6665C97.6714 20.472 97.4147 20.2199 97.2143 19.9249C97.2008 19.9036 97.1937 19.8788 97.194 19.8535V14.5094C97.1944 14.4799 97.2014 14.4508 97.2143 14.4243C97.4148 14.1252 97.6713 13.8682 97.9695 13.6674C97.9898 13.647 98.0542 13.647 98.0542 13.647H100.535C100.565 13.646 100.595 13.653 100.621 13.6674C100.918 13.8702 101.176 14.1269 101.38 14.4243C101.389 14.4516 101.394 14.4804 101.393 14.5094V19.8535Z" fill="currentColor"/>
    <path d="M79.1193 35.913H80.1589V31.2424H84.788V30.2406H80.1589V26.577H85.0386V25.5684H79.1193V35.913Z" fill="currentColor"/>
    <path d="M70.4841 35.913H71.522V31.2424H76.1461V30.2406H71.522V26.577H76.4035V25.5684H70.4841V35.913Z" fill="currentColor"/>
    <path d="M65.0084 25.5684H63.4388L60 35.8773V35.913H61.087L61.876 33.5233H66.5814L67.3416 35.8926V35.913H68.4523L65.0152 25.5837L65.0084 25.5684ZM64.3125 26.5991L66.2563 32.5164H62.1927L64.1195 26.5991H64.3125Z" fill="currentColor"/>
    <path d="M125.724 30.8889L121.059 29.586C120.907 29.5307 120.776 29.4286 120.685 29.2943C120.594 29.16 120.547 29.0002 120.551 28.8377V27.7661C120.555 27.6921 120.577 27.6202 120.616 27.5569C120.884 27.1473 121.245 26.807 121.669 26.5636C121.733 26.5312 121.805 26.5165 121.877 26.5211H124.285C124.357 26.5169 124.429 26.5341 124.491 26.5704C124.913 26.8435 125.267 27.2108 125.524 27.6437C125.569 27.712 125.608 27.7843 125.639 27.8597L125.653 27.8818L126.669 27.579H126.698L126.682 27.5569C126.572 27.3189 126.44 27.0912 126.29 26.8766C126.088 26.6112 125.612 26.0261 125.221 25.7897C124.954 25.6264 124.651 25.5323 124.339 25.5159H121.799C121.487 25.5303 121.183 25.6245 120.917 25.7897C120.466 26.1335 120.067 26.5408 119.732 26.999C119.581 27.2558 119.509 27.5516 119.524 27.8495V28.9074C119.524 29.6915 119.96 30.3684 120.599 30.5487L125.277 31.8363C125.616 31.923 125.809 32.2972 125.809 32.6153V33.7191C125.807 33.7918 125.79 33.8632 125.758 33.9283C125.481 34.343 125.117 34.6914 124.691 34.9489C124.631 34.9797 124.564 34.9943 124.496 34.9914H121.787C121.709 34.9952 121.631 34.9806 121.559 34.9489C121.142 34.6662 120.79 34.2981 120.526 33.8688C120.477 33.8111 120.438 33.7455 120.411 33.6749V33.6528L119.414 33.9352H119.385L119.4 33.9641C119.505 34.1988 119.633 34.4227 119.781 34.6325C119.974 34.8995 120.458 35.4744 120.841 35.7211C121.114 35.8868 121.424 35.9825 121.743 36H124.583C124.895 35.9849 125.199 35.8888 125.463 35.7211C125.916 35.3863 126.315 34.9849 126.648 34.5305C126.804 34.2752 126.88 33.9789 126.865 33.68V32.5149C126.836 31.7376 126.378 31.076 125.724 30.8889Z" fill="currentColor"/>
    <path d="M110.788 35.913H116.708V34.8993H111.828V31.2424H116.452V30.2406H111.828V26.577H116.708V25.5684H110.788V35.913Z" fill="currentColor"/>
    <path d="M106.611 31.0337C106.935 30.7665 107.228 30.4648 107.487 30.1339C107.663 29.8675 107.755 29.5539 107.751 29.2341V27.7204C107.754 27.3986 107.662 27.0832 107.487 26.8138C107.227 26.4785 106.934 26.1707 106.611 25.8953C106.314 25.6773 105.956 25.5583 105.587 25.5552H100.953V35.9134H101.992V31.3636H104.515L107.031 35.8998V35.9134H108.217L105.665 31.3636C106.008 31.3585 106.339 31.2428 106.611 31.0337ZM101.996 26.5757H105.572C105.668 26.5657 105.765 26.5834 105.851 26.6267C106.189 26.8411 106.471 27.1325 106.676 27.4772C106.708 27.5699 106.72 27.6686 106.71 27.7663V29.2052C106.718 29.3003 106.706 29.396 106.674 29.4859C106.467 29.8192 106.185 30.0985 105.85 30.3006C105.764 30.3469 105.667 30.3693 105.57 30.3652H101.996V26.5757Z" fill="currentColor"/>
    <path d="M97.8831 25.5684H96.8435V35.913H97.8831V25.5684Z" fill="currentColor"/>
    <path d="M91.3679 25.5684H89.7983L86.3578 35.8773V35.913H87.4465L88.2355 33.5233H92.9442L93.7113 35.8926V35.913H94.822L91.3747 25.5837L91.3679 25.5684ZM90.672 26.5991L92.6158 32.5164H88.5521L90.479 26.5991H90.672Z" fill="currentColor"/>
</svg>