<svg xmlns="http://www.w3.org/2000/svg" width="156" height="48" fill="none" viewBox="0 0 156 48">
  <path d="M48 0H0v48h48V0Z" class="fill-brand"/>
  <path fill="#050504" d="m12.966 12.318 23.22 11.547L12.939 35.68 27.892 23.9 12.966 12.319Z"/>
  <path fill="currentColor" d="m64.458 19.988-2.531-7.997H60l3.39 10.33h2.113l3.405-10.33H67l-2.543 7.997Zm27.26-10.761h-1.97l-1.304 1.69h1.647l1.627-1.69Zm1.004 11.366h-4.664v-2.532h4.334v-1.737h-4.334V13.72h4.664v-1.73h-6.471v10.33h6.471v-1.728ZM81.88 22.012c.487-.33.918-.74 1.274-1.21.183-.294.273-.637.26-.984v-5.286a1.628 1.628 0 0 0-.273-.985c-.209-.296-.86-1.038-1.241-1.26a2.064 2.064 0 0 0-1.054-.296h-4.708v10.332h4.708c.365-.016.72-.123 1.033-.311Zm-3.936-1.419V13.72h2.731a.478.478 0 0 1 .158.015c.31.192.57.454.76.765a.293.293 0 0 1 .014.087v5.203c0 .199-.517.653-.76.79a.365.365 0 0 1-.114.014h-2.789Zm-4.973-8.603h-1.806v10.338h1.806V11.991Zm67.504 0v6.949l-3.534-6.948h-1.942v10.33h1.805v-6.86l3.563 6.86h1.913v-10.33h-1.805ZM122.35 22.323l-2.044-4.213c.16-.057.311-.14.445-.245a5.85 5.85 0 0 0 .931-.913c.208-.314.316-.683.31-1.06v-1.517a1.909 1.909 0 0 0-.31-1.053 5.766 5.766 0 0 0-.931-.949 2.194 2.194 0 0 0-1.219-.382h-4.836v10.332h1.805v-4.082h1.978l1.913 4.082h1.958Zm-2.164-6.444a.163.163 0 0 1-.022.071c-.136.238-.479.57-.632.57h-3.031v-2.801h3.117c.17.015.446.358.546.554a.286.286 0 0 1 .022.116v1.49Zm10.567-3.65a2.184 2.184 0 0 0-1.067-.31h-2.621a2.16 2.16 0 0 0-1.067.31c-.359.209-1.048.949-1.254 1.246a1.716 1.716 0 0 0-.273.985v5.414c-.01.346.085.687.273.978.206.297.895 1.044 1.254 1.247.322.197.69.305 1.067.316h2.616c.377-.012.744-.12 1.067-.316.359-.203 1.033-.95 1.254-1.247a1.72 1.72 0 0 0 .275-.978V14.46a1.73 1.73 0 0 0-.275-.981c-.221-.301-.895-1.041-1.249-1.25Zm-.271 7.625a.15.15 0 0 1-.022.07 2.81 2.81 0 0 1-.752.742.294.294 0 0 1-.086.014h-2.486a.22.22 0 0 1-.086-.014 2.718 2.718 0 0 1-.759-.741.175.175 0 0 1-.015-.072V14.51a.25.25 0 0 1 .015-.085c.202-.299.46-.556.759-.757.015-.02.086-.02.086-.02h2.481a.17.17 0 0 1 .086.02c.295.204.55.46.752.757.022.022.022.085.022.085l.005 5.345Zm-18.231-7.864h-7.382v1.729h2.789v8.61h1.805v-8.61h2.788V11.99Zm-9.322 8.862c.183-.293.277-.633.271-.978V14.46a1.791 1.791 0 0 0-.271-.985c-.224-.297-.898-1.037-1.263-1.246a2.196 2.196 0 0 0-1.052-.31H97.99a2.147 2.147 0 0 0-1.069.31c-.37.209-1.048.949-1.253 1.25a1.728 1.728 0 0 0-.28.984v5.41c-.008.348.09.689.28.979.2.297.89 1.044 1.253 1.247.323.197.691.306 1.069.316h2.624a2.194 2.194 0 0 0 1.06-.316c.357-.203 1.031-.95 1.255-1.247Zm-1.536-.998a.247.247 0 0 1-.013.07 2.814 2.814 0 0 1-.766.742.3.3 0 0 1-.086.014h-2.474a.24.24 0 0 1-.085-.014 2.69 2.69 0 0 1-.755-.741.13.13 0 0 1-.02-.072V14.51a.2.2 0 0 1 .02-.085c.2-.299.457-.556.755-.757.02-.02.085-.02.085-.02h2.481a.17.17 0 0 1 .086.02c.297.203.555.46.759.757a.245.245 0 0 1 .013.085v5.345ZM79.12 35.913h1.039v-4.67h4.629V30.24h-4.63v-3.664h4.88v-1.009H79.12v10.345Zm-8.636 0h1.038v-4.67h4.624V30.24h-4.624v-3.664h4.881v-1.009h-5.919v10.345Zm-5.476-10.345h-1.57L60 35.878v.035h1.087l.789-2.39h4.705l.76 2.37v.02h1.111l-3.437-10.33-.007-.015Zm-.695 1.031 1.943 5.917h-4.063L64.12 26.6h.192Zm61.411 4.29-4.665-1.303a.77.77 0 0 1-.508-.748v-1.072a.444.444 0 0 1 .065-.21 3.105 3.105 0 0 1 1.053-.992.404.404 0 0 1 .208-.043h2.408a.366.366 0 0 1 .206.05 3.263 3.263 0 0 1 1.148 1.289l.014.022 1.016-.303h.029l-.016-.022a4.443 4.443 0 0 0-.392-.68c-.202-.266-.678-.85-1.069-1.087a1.88 1.88 0 0 0-.882-.274h-2.54a1.833 1.833 0 0 0-.882.274 5.88 5.88 0 0 0-1.185 1.209 1.526 1.526 0 0 0-.208.85v1.058c0 .785.436 1.461 1.075 1.642l4.678 1.287c.339.087.532.461.532.78v1.103a.505.505 0 0 1-.051.21 3.396 3.396 0 0 1-1.067 1.02.39.39 0 0 1-.195.042h-2.709a.505.505 0 0 1-.228-.042 3.554 3.554 0 0 1-1.033-1.08.67.67 0 0 1-.115-.194v-.022l-.997.282h-.029l.015.03c.105.234.233.458.381.667.193.268.677.842 1.06 1.09.273.165.583.26.902.278h2.84c.312-.015.616-.111.88-.279a5.583 5.583 0 0 0 1.185-1.19c.156-.256.232-.552.217-.851v-1.165c-.029-.777-.487-1.439-1.141-1.626Zm-14.936 5.024h5.92v-1.014h-4.88v-3.657h4.624v-1.001h-4.624v-3.664h4.88v-1.009h-5.92v10.345Zm-4.177-4.879c.324-.267.617-.57.876-.9.176-.267.268-.58.264-.9V27.72a1.637 1.637 0 0 0-.264-.906 6.194 6.194 0 0 0-.876-.919 1.755 1.755 0 0 0-1.024-.34h-4.634v10.358h1.039v-4.55h2.523l2.516 4.537v.013h1.186l-2.552-4.55a1.59 1.59 0 0 0 .946-.33Zm-4.615-4.458h3.576a.505.505 0 0 1 .279.05c.338.215.62.506.825.851a.676.676 0 0 1 .034.29v1.438a.67.67 0 0 1-.036.28 2.476 2.476 0 0 1-.824.816.543.543 0 0 1-.28.064h-3.574v-3.79Zm-4.113-1.008h-1.04v10.345h1.04V25.568Zm-6.515 0h-1.57l-3.44 10.31v.035h1.088l.79-2.39h4.708l.767 2.37v.02h1.111l-3.447-10.33-.007-.015Zm-.696 1.031 1.944 5.917h-4.064L90.48 26.6h.193Z"/>
</svg>
