<svg fill="none" viewBox="0 0 256 72" xmlns="http://www.w3.org/2000/svg">
    <path class="fill-brand" d="m72 0h-72v72h72z"/>
    <path fill="#000" d="m19.4496 18.4777 34.8306 17.32-34.8725 17.7222 22.43-17.6688z"/>
    <g class="fill-highlight-on-reversed">
        <path d="m97.6942 38.5331h-3.3406l-5.3319-16.2132h3.0359l3.9826 12.5571 4.0148-12.5571h3.015z"/>
        <path d="m106.53 38.5331v-16.2132h2.851v16.2132z"/>
        <path d="m124.974 36.1501c-.327.4897-1.415 1.5778-2.002 1.8934-.436.2393-1.056.4896-1.633.4896h-7.432v-16.2132h7.432c.512 0 1.197.1632 1.654.457.599.3482 1.633 1.5125 1.948 1.9804.348.4896.435 1.0337.435 1.5451v8.3025c0 .4897-.076 1.0555-.402 1.5452zm-3.82-.3264s.164 0 .185-.0327c.381-.2176 1.197-.9249 1.197-1.2514v-8.161s0-.0762-.032-.1306c-.327-.544-.871-1.0337-1.197-1.1969-.022-.0327-.185-.0327-.24-.0327h-4.309v10.7944h4.396z"/>
        <path d="m129.903 38.5331v-16.2132h10.196v2.7094h-7.345v4.0914h6.834v2.7095h-6.834v3.9826h7.345v2.7094h-10.196z"/>
        <path d="m156.182 36.2263c-.349.457-1.415 1.6213-1.981 1.9478-.435.272-1.11.4896-1.686.4896h-4.124c-.599 0-1.252-.2176-1.687-.4896-.566-.3265-1.654-1.4908-1.98-1.9478-.316-.4897-.425-1.0337-.425-1.5452v-8.4875c0-.5114.109-1.0554.435-1.5451.327-.457 1.415-1.6213 1.981-1.9478.435-.272 1.088-.4896 1.686-.4896h4.125c.565 0 1.251.2176 1.686.4896.566.3265 1.621 1.4908 1.981 1.9478.326.4897.435 1.0337.435 1.5451v8.4875c-.011.5115-.12 1.0555-.446 1.5452zm-9.032-1.5669s0 .0761.022.1088c.326.4896.892 1.0011 1.197 1.1643.054.0217.109.0217.13.0217h3.907s.076 0 .141-.0217c.294-.1632.871-.6747 1.197-1.1643.033-.0544.033-.1088.033-.1088v-8.3787s0-.1088-.033-.1306c-.326-.4896-.892-1.0337-1.197-1.1969-.054-.0218-.109-.0218-.141-.0218h-3.907s-.108 0-.13.0218c-.294.1632-.871.7073-1.197 1.1969-.022.0544-.022.1306-.022.1306z"/>
        <path d="m166.486 25.0293v13.5038h-2.851v-13.5038h-4.396v-2.7094h11.632v2.7094z"/>
        <path d="m185.496 30.1c-.239.3482-1.088 1.1644-1.469 1.4364-.218.1632-.457.2938-.707.3808l3.232 6.6159h-3.091l-3.014-6.3982h-3.123v6.3982h-2.851v-16.2132h7.617c.653 0 1.382.2176 1.926.5984.381.2721 1.219 1.1426 1.469 1.4908.327.4896.49 1.0881.49 1.654v2.383c.011.5985-.152 1.1643-.479 1.6539zm-2.361-4.0152s0-.1414-.033-.185c-.163-.2938-.598-.8378-.87-.8705h-4.908v4.3961h4.777c.24 0 .784-.5114 1.001-.8923 0 0 .033-.0544.033-.1088z"/>
        <path d="m202.079 36.2263c-.348.457-1.414 1.6213-1.98 1.9478-.435.272-1.11.4896-1.687.4896h-4.124c-.598 0-1.251-.2176-1.686-.4896-.566-.3265-1.654-1.4908-1.981-1.9478-.326-.4897-.435-1.0337-.435-1.5452v-8.4875c0-.5114.109-1.0554.435-1.5451.327-.457 1.415-1.6213 1.981-1.9478.435-.272 1.088-.4896 1.686-.4896h4.124c.566 0 1.252.2176 1.687.4896.566.3265 1.621 1.4908 1.98 1.9478.327.4897.436 1.0337.436 1.5451v8.4875c0 .5115-.109 1.0555-.436 1.5452zm-9.031-1.5669s0 .0761.032.1088c.327.4896.893 1.0011 1.197 1.1643.055.0217.109.0217.142.0217h3.906s.087 0 .142-.0217c.294-.1632.87-.6747 1.197-1.1643.032-.0544.032-.1088.032-.1088v-8.3787s0-.1088-.032-.1306c-.327-.4896-.893-1.0337-1.197-1.1969-.055-.0218-.109-.0218-.142-.0218h-3.906s-.109 0-.142.0218c-.293.1632-.87.7073-1.197 1.1969-.032.0544-.032.1306-.032.1306z"/>
        <path d="m215.202 38.5331-5.615-10.7617v10.7617h-2.85v-16.2132h3.068l5.561 10.9031v-10.9031h2.85v16.2132z"/>
        <path d="m138.858 18h-3.101l-2.056 2.6551h2.589z"/>
    </g>
    <g class="fill-neutral">
        <path d="m96.8128 53.8107-.8052-2.3939h-4.6355l-.8161 2.3939h-1.556l3.7214-10.6964h1.926l3.7324 10.6964zm-3.1229-9.1948-1.8499 5.4407h3.7106z"/>
        <path d="m103.07 44.333c-.077 0-.218 0-.272.0326-.196.1088-.719.555-.729.7835v.1632.8161h2.154v1.3058h-2.154v6.3873h-1.393v-6.3873h-1.2625v-1.3058h1.2625v-.8596c0-.37.076-.7291.283-1.0338.141-.1958.587-.6637.859-.8596.348-.2176.805-.3482 1.241-.3482h1.447v1.3058z"/>
        <path d="m109.881 44.3329c-.076 0-.217 0-.272.0327-.196.1088-.718.5549-.729.7834v.1633.8161h2.155v1.3057h-2.155v6.3874h-1.393v-6.3874h-1.262v-1.3057h1.262v-.8597c0-.3699.077-.729.283-1.0337.142-.1959.588-.6638.86-.8596.337-.2285.805-.3591 1.23-.3591h1.447v1.3058h-1.426z"/>
        <path d="m118.325 53.8106-.087-.6093c-.359.3155-.903.7072-1.393.7072h-1.567c-.424 0-.892-.1305-1.207-.359-.272-.1959-.697-.642-.838-.8379-.218-.2829-.305-.642-.305-1.012v-.3373c0-.37.087-.7291.305-1.012.141-.1958.566-.642.838-.8378.315-.2285.783-.3374 1.207-.3374h2.884v-.8705c0-.0544 0-.1414-.054-.2285-.142-.2285-.479-.5332-.729-.6637-.077-.0327-.109-.0544-.218-.0544h-1.676c-.315 0-.642.3808-.816.6093-.087.1088-.228.3156-.228.3156l-1.306-.3918c.217-.5114.805-1.2296 1.175-1.5016.337-.2285.805-.3373 1.23-.3373h1.643c.424 0 .914.1306 1.229.3591.272.1958.718.642.86.8378.218.3047.283.6747.283 1.0338v4.1349l.141 1.4037h-1.371zm-.163-3.3841h-2.873c-.108 0-.163.0218-.217.0326-.251.1415-.61.4788-.729.7291-.022.0326-.033.0653-.033.1741v.3047c0 .1088.022.1414.033.1741.119.2503.478.5549.729.6964.054.0218.109.0544.217.0544h1.502c.076 0 .12-.0218.163-.0326.305-.1415.958-.5332 1.208-.8923z"/>
        <path d="m121.818 44.5397v-1.5887h1.6v1.5887zm.109 9.2709v-7.6822h1.393v7.6822z"/>
        <path d="m130.523 48.2829c-.195-.37-.62-.9467-1.055-.9467h-.958c-.37 0-1.229.6964-1.403.9685v5.5059h-1.393v-6.2568l-.131-1.4254h1.371l.087.6202c.359-.3373.893-.7181 1.404-.7181h.979c.425 0 .893.1088 1.208.3373.414.2829.98 1.0011 1.197 1.5125z"/>
        <path d="m139.098 53.5495c-.316.2285-.784.3591-1.208.3591h-1.763c-.424 0-.914-.1306-1.229-.3591-.272-.1959-.718-.6638-.86-.8596-.218-.283-.305-.642-.305-1.0229v-3.4059c0-.3699.087-.729.305-1.0119.142-.1959.588-.6638.86-.8597.326-.2285.805-.359 1.229-.359h1.785c.424 0 .914.1305 1.229.359.272.1959.719.6638.86.8597.218.3046.283.6637.283 1.0119v2.296h-5.158v1.0664c0 .1088.022.1632.033.1959.109.1958.424.5658.729.7181.076.0327.141.0544.228.0544h1.807c.109 0 .141-.0217.217-.0544.251-.1306.61-.4788.729-.7181l.109-.1959 1.306.4244c-.239.5549-.74 1.1969-1.186 1.5016zm-.207-5.2448c0-.0327 0-.1633-.022-.1959-.13-.2503-.522-.5876-.772-.7073-.076-.0326-.109-.0544-.218-.0544h-1.763c-.054 0-.163.0218-.217.0544-.359.1959-.62.4461-.751.7073-.022.0218-.033.0871-.033.1959v1.0011h3.765v-1.0011z"/>
        <path d="m147.857 48.3264c-.217-.3917-.674-.9793-1.055-.9793h-1.904c-.087 0-.174.0218-.218.0327-.316.1632-.468.3373-.642.6093-.033.0544-.054.1197-.054.2285v.5115c0 .1958.174.4134.467.4243l2.96.2177c.958.0761 1.763.8052 1.763 1.7519v.6093c0 .37-.109.7073-.316 1.012-.141.2176-.522.6202-.783.8052-.337.2285-.783.3591-1.208.3591h-2.143c-.425 0-.871-.1306-1.208-.3591-.414-.2829-.925-.9249-1.208-1.4799l1.338-.4461c.174.3591.588.8161.838.9467.033.0217.12.0326.218.0326h2.154c.37 0 .718-.4135.893-.6746.032-.0544.054-.1306.054-.2285v-.5876c0-.1959-.196-.4135-.479-.4244l-2.96-.1959c-.968-.0653-1.751-.8052-1.751-1.7519v-.5114c0-.3808.087-.7182.304-1.0228.142-.2177.523-.6203.784-.8053.337-.2285.783-.359 1.208-.359h1.849c.425 0 .871.1305 1.208.359.425.3047.925.9141 1.23 1.4799z"/>
    </g>
</svg>