<svg fill="none" height="26" viewBox="0 0 117 26" width="117" xmlns="http://www.w3.org/2000/svg">
    <path class="fill-brand" d="m25.67 0h-25.67v25.66h25.67z"/>
    <path fill="#000" d="m14.9099 12.82-7.99999 6.3 12.42999-6.32-12.40999-6.18z"/>
    <g class="fill-highlight-on-reversed">
        <path d="m38.62 13.18h-2.14l-3.48-10.43h2l2.57 8.07 2.58-8.07h1.94z"/>
        <path d="m44.3101 13.18v-10.43h1.83v10.43z"/>
        <path d="m56.17 11.64c-.359.4785-.7949.8941-1.2899 1.23-.3213.1832-.6808.2893-1.05.31h-4.7801v-10.43h4.7801c.3727.00134.7384.1014 1.0599.29.481.36205.9056.7934 1.2601 1.28.2019.29293.3004.64481.2799 1v5.34c.012.3452-.0785.6861-.26.98zm-2.46-.21h.1201c.25-.14.7699-.6.7699-.81v-5.26c.0064-.02629.0064-.05371 0-.08-.1894-.3161-.4539-.58058-.7699-.77 0 0-.12 0-.1501 0h-2.7999v6.94z"/>
        <path d="m59.34 13.18v-10.43h6.56v1.74h-4.73v2.64h4.4v1.74h-4.4v2.56h4.73v1.75z"/>
        <path d="m76.24 11.7c-.3538.4777-.7709.9049-1.24 1.27-.3255.1999-.6981.3103-1.08.32h-2.68c-.3823-.0068-.7556-.1174-1.08-.32-.4836-.354-.9145-.7749-1.28-1.25-.1901-.2983-.2875-.6463-.28-1v-5.47997c-.0106-.35406.0871-.70293.28-1 .3618-.48411.7931-.91207 1.28-1.27.3273-.19465.6993-.30143 1.08-.31h2.65c.3905.00613.7729.1129 1.11.31.481.35766.9086.78191 1.27 1.26.193.29707.2907.64594.28 1v5.45997c.0007.3602-.1074.7122-.31 1.01zm-5.8-1v.07c.2032.2996.4652.5548.77.75.0294.0086.0606.0086.09 0h2.51c.0297.006.0603.006.09 0 .3015-.196.56-.4512.76-.75.006-.0229.006-.047 0-.07v-5.40997s0-.07 0-.08c-.2002-.30412-.4585-.56578-.76-.77-.0295-.00762-.0605-.00762-.09 0h-2.5s-.07 0-.09 0c-.3049.2034-.5666.46509-.77.77-.0033.02657-.0033.05344 0 .08z"/>
        <path d="m82.87 4.49v8.69h-1.87v-8.69h-2.79v-1.74h7.49v1.74z"/>
        <path d="m95.1 7.75c-.2749.34655-.5905.65878-.94.93-.1365.10312-.2883.18411-.45.24l2.08 4.26h-2l-1.93-4.12h-2v4.12h-1.86v-10.43h4.9c.4413.00453.8719.13649 1.24.38.3527.29404.6683.62983.94 1 .2092.31759.3205.68968.32 1.07v1.49c.0075.37528-.097.7443-.3 1.06zm-1.51-2.58c.0069-.0397.0069-.0803 0-.12-.1-.19-.38-.54-.56-.56h-3.18v2.83h3.07c.16 0 .51-.33.65-.58.0059-.02296.0059-.04704 0-.07z"/>
        <path d="m105.77 11.7c-.368.4749-.795.9016-1.27 1.27-.329.1999-.705.3102-1.09.32h-2.65c-.382-.0083-.755-.1188-1.0801-.32-.4806-.3541-.9082-.7751-1.27-1.25-.1901-.2983-.2875-.6463-.28-1v-5.47997c-.0106-.35406.0871-.70293.28-1 .3581-.48396.7861-.91198 1.27-1.27.3281-.19341.6991-.3001 1.0801-.31h2.65c.383.01123.758.11777 1.09.31.476.36303.903.7866 1.27 1.26.193.29707.291.64594.28 1v5.45997c.009.3571-.088.7088-.28 1.01zm-5.8101-1v.07c.2001.2988.4591.554.7601.75.029.0077.06.0077.09 0h2.51c.03.0069.06.0069.09 0 .305-.1952.567-.4504.77-.75.006-.0229.006-.047 0-.07v-5.40997s0-.07 0-.08c-.203-.30491-.465-.5666-.77-.77-.029-.00861-.061-.00861-.09 0h-2.51s-.07 0-.09 0c-.302.20422-.56.46588-.7601.77-.0063.02629-.0063.05372 0 .08z"/>
        <path d="m114.22 13.18-3.61-6.93v6.93h-1.84v-10.43h2l3.57 7v-7h1.83v10.43z"/>
    </g>
    <g class="fill-neutral">
        <path d="m38.91 22.16c-.1802.2252-.3847.4298-.61.61-.2231.1552-.4881.2389-.7599.24h-3.2401v-6.88h3.2401c.2729.0034.5383.0906.7599.25.2274.1741.4322.3756.61.6.1316.1944.1981.4255.19.66v.84c-.0073.198-.0608.3916-.1563.5653-.0955.1736-.2303.3225-.3937.4347.1696.1177.3081.2747.4039.4575s.1459.3861.1461.5925v.95c.0117.2412-.055.4798-.19.68zm-.75-4.51c.0098-.036.0098-.074 0-.11-.09-.16-.39-.52-.61-.52h-2.3099v2.07h2.3c.2 0 .51-.35.59-.51.008-.0396.008-.0804 0-.12zm0 2.93c.0081-.0396.0081-.0804 0-.12-.1175-.1975-.2825-.3625-.48-.48h-2.4399v2.15h2.28c.22 0 .53-.35.61-.51.0085-.0362.0085-.0738 0-.11z"/>
        <path d="m44.0599 22.9699v-.4c-.2387.2499-.5569.4089-.9.45h-.86c-.2802.0024-.5549-.0775-.79-.23-.2005-.1653-.3846-.3495-.55-.55-.1274-.1958-.1903-.4266-.18-.66v-3.51h.89v3.53c-.0046.0433-.0046.0868 0 .13.1307.191.3013.3514.5.47.0426.0115.0874.0115.13 0h.82c.341-.1139.645-.3178.88-.59v-3.54h.9v4l.1.9z"/>
        <path d="m49.8901 19.48c-.13-.26-.43-.63-.67-.63h-1.22-.14c-.1747.0831-.3183.2197-.41.39-.0142.049-.0142.101 0 .15v.33c.0072.0752.0418.1452.097.1968.0552.0515.1274.0811.203.0832l1.91.13c.2957.0123.576.1353.7854.3446.2093.2093.3323.4897.3446.7854v.39c.001.232-.0688.4587-.2.65-.1464.195-.3179.3699-.51.52-.2316.1522-.503.2322-.78.23h-1.43c-.2769.001-.548-.0789-.78-.23-.3179-.2643-.5826-.5867-.78-.95l.86-.29c.1285.2437.3137.4529.54.61h.14 1.39c.24 0 .46-.26.57-.44.0168-.0451.0168-.0948 0-.14v-.34c-.0075-.0769-.0435-.1482-.1008-.2s-.132-.0803-.2092-.08l-1.91-.13c-.2947-.0076-.5752-.128-.7836-.3364s-.3289-.4889-.3364-.7836v-.33c-.0035-.234.0626-.4637.19-.66.1467-.1918.3181-.3633.51-.51.2408-.1761.5316-.2707.83-.27h1.19c.277-.0022.5484.0779.78.23.331.2537.6009.5783.79.95z"/>
        <path d="m52.33 17.04v-1h1v1zm.07 6v-4.97h.89v4.9z"/>
        <path d="m58.1301 22.97v-3.5c.0053-.0432.0053-.0869 0-.13-.1217-.1951-.2901-.3566-.4901-.47-.0463-.0081-.0936-.0081-.14 0h-.82c-.3375.1209-.6399.3236-.88.59v3.51h-.8999v-4l-.1001-.91h.9001v.4c.2341-.2522.5488-.4148.8899-.46h.8601c.2805-.0049.5559.0753.79.23.2052.16.3899.3447.55.55.1313.1907.1979.4185.1899.65v3.54z"/>
        <path d="m64.1099 22.84c-.2315.1521-.5029.2322-.78.23h-1.14c-.2801.0024-.5548-.0776-.79-.23-.2004-.1654-.3846-.3496-.55-.55-.1341-.1932-.2009-.4251-.19-.66v-2.19c-.0141-.2322.053-.4621.19-.65.1601-.2052.3448-.39.55-.55.2352-.1524.5099-.2324.79-.23h1.15c.2806-.0048.556.0753.79.23.2053.16.39.3448.55.55.1314.1907.198.4185.19.65v1.53h-3.32v.69c-.0081.0429-.0081.087 0 .13.1202.1866.2809.3438.47.46.0496.0094.1005.0094.15 0h1.16c.046.0114.0941.0114.14 0 .1915-.1132.3527-.2711.47-.46l.07-.13.84.28c-.1736.3533-.4269.6614-.74.9zm-.11-3.37c.0054-.0432.0054-.0869 0-.13-.1219-.1922-.2905-.3505-.49-.46-.0459-.0115-.094-.0115-.14 0h-1.18c-.0428-.0092-.0871-.0092-.13 0-.2051.1016-.3756.2616-.49.46-.0105.0427-.0105.0873 0 .13v.64h2.43z"/>
        <path d="m69.87 19.48c-.14-.26-.44-.63-.68-.63h-1.19-.14c-.175.0862-.321.2218-.42.39-.0136.0491-.0136.1009 0 .15v.33c.0051.076.039.1473.0947.1993s.1291.0809.2053.0807l1.9.13c.2968.0121.5783.1348.7892.3438.211.2091.3361.4895.3508.7862v.39c.0029.2338-.0708.4621-.21.65-.1398.1972-.3084.3725-.5.52-.232.1511-.5031.231-.78.23h-1.44c-.2768.001-.5479-.0789-.78-.23-.3206-.2616-.5858-.5846-.78-.95l.86-.29c.1286.2436.3138.4528.54.61h.14 1.39c.24 0 .45-.26.57-.44.0128-.0458.0128-.0942 0-.14v-.34c-.0074-.0769-.0434-.1483-.1007-.2001-.0574-.0518-.132-.0803-.2093-.0799l-1.9-.13c-.2946-.0076-.5751-.128-.7835-.3365-.2084-.2084-.3289-.4889-.3365-.7835v-.33c-.008-.2346.0585-.4656.19-.66.1414-.1964.3136-.3687.51-.51.243-.1795.538-.2744.84-.27h1.19c.2769-.001.548.0789.78.23.3264.2584.5955.5819.79.95z"/>
        <path d="m75.59 19.48c-.13-.26-.43-.63-.67-.63h-1.23-.14c-.1713.0878-.3137.2232-.41.39-.0136.0491-.0136.1009 0 .15v.33c.005.0743.0374.1442.091.196.0536.0517.1245.0817.199.084l1.91.13c.2958.0123.5761.1353.7854.3446s.3323.4896.3446.7854v.39c.0058.2326-.0644.4608-.2.65-.1437.1973-.3155.3725-.51.52-.2315.1521-.5029.2322-.78.23h-1.4c-.2772.0034-.549-.0767-.78-.23-.3228-.2594-.5883-.5829-.78-.95l.86-.29c.1224.2478.3088.4584.54.61h.13 1.39c.24 0 .46-.26.57-.44.0169-.0452.0169-.0949 0-.14v-.34c-.0075-.0769-.0434-.1483-.1007-.2001-.0574-.0518-.132-.0803-.2093-.0799l-1.91-.13c-.2938-.01-.573-.1312-.7809-.3391s-.3291-.487-.3391-.7809v-.33c-.0044-.2356.0656-.4665.2-.66.1403-.194.3089-.3659.5-.51.232-.1511.5032-.231.78-.23h1.19c.2772-.0034.549.0767.78.23.3315.2559.6043.5798.8.95z"/>
    </g>
</svg>