<svg fill="none" height="16" viewBox="0 0 121 16" width="121" xmlns="http://www.w3.org/2000/svg">
    <g class="fill-logo1">
        <path d="m8.14215 15.4922h-3.09831l-4.9704757-15.121747h2.8242257l3.70931 11.707847 3.732-11.707847h2.7974z"/>
        <path d="m16.3604 15.4922v-15.121747h2.648v15.121747z"/>
        <path d="m33.5087 13.2665c-.5205.6891-1.151 1.2872-1.866 1.77-.4607.2716-.9799.4279-1.5136.4557h-6.9096v-15.121747h6.9096c.5413.004597 1.0717.152902 1.5373.429832.6917.523315 1.3037 1.144985 1.8165 1.845405.2858.42392.4272.92921.4029 1.44036v7.73905c.0182.5072-.1129 1.0086-.3771 1.4414zm-3.5558-.3037s.1515 0 .1762-.0248c.3534-.2067 1.1097-.8597 1.1097-1.1635v-7.61096c0-.04323-.0084-.08605-.0247-.12605-.2749-.45566-.6556-.83783-1.1097-1.11386-.0734-.0221-.1503-.03051-.2267-.0248h-4.0092v10.06497z"/>
        <path d="m38.0948 15.4922v-15.121747h9.4794v2.528377h-6.8344v3.82306h6.3532v2.52838h-6.3542v3.71973h6.8344v2.5294z"/>
        <path d="m62.5289 13.343c-.53.6862-1.1489 1.2984-1.8403 1.8206-.4742.2827-1.0126.4392-1.564.4546h-3.833c-.5521-.0117-1.0914-.1684-1.5641-.4546-.6976-.5149-1.3174-1.1281-1.8402-1.8206-.2762-.4307-.4169-.9347-.4039-1.4466v-7.91473c-.0121-.50982.1286-1.01157.4039-1.44036.5226-.69271 1.1424-1.30593 1.8402-1.820596.4726-.286508 1.012-.443631 1.5641-.455669h3.833c.5515.015784 1.0899.172636 1.564.455669.6916.521906 1.3105 1.134196 1.8403 1.820596.275.42888.4153.93063.4029 1.44036v7.91473c.0133.5118-.127 1.0158-.4029 1.4466zm-8.3965-1.4672s0 .0754.0248.1033c.2962.4309.6731.8001 1.1097 1.087.0394.018.0824.0265.1257.0248h3.631c.0431-.0002.0857-.0086.1257-.0248.4368-.2866.8137-.6558 1.1097-1.087.0155-.0323.0239-.0675.0247-.1033v-7.81353s0-.10333-.0247-.12606c-.2963-.43835-.6729-.81632-1.1097-1.11385-.0395-.01778-.0825-.02627-.1257-.0248h-3.631s-.1031 0-.1257.0248c-.4367.29776-.8132.67569-1.1097 1.11385-.0161.04008-.0245.08285-.0248.12606z"/>
        <path d="m72.1092 2.89883v12.59337h-2.648v-12.59337h-4.0844v-2.528377h10.8188v2.528377z"/>
        <path d="m89.7934 7.62805c-.4023.49736-.8588.94791-1.3612 1.34324-.1988.15175-.4203.27102-.6563.35337l3.0004 6.16754h-2.8747l-2.7985-5.96398h-2.8994v5.96808h-2.648v-15.125847h7.0858c.6382.005788 1.2608.19905 1.7907.555891.5034.411916.9599.878336 1.3612 1.390766.2977.45899.4556.99507.4543 1.54265v2.22461c.0051.54843-.1531 1.08591-.4543 1.54368zm-2.1927-3.74246c.0011-.05991-.0076-.11959-.0257-.17668-.1505-.27795-.5544-.78425-.8058-.81008h-4.5645v4.09687h4.4378c.2267 0 .7316-.48046.9325-.83384.0159-.03218.0246-.06743.0257-.10333z"/>
        <path d="m105.209 13.343c-.53.6864-1.149 1.2987-1.841 1.8206-.474.2827-1.012.4392-1.564.4546h-3.8327c-.5521-.0117-1.0914-.1684-1.5641-.4546-.6978-.5147-1.3176-1.1279-1.8402-1.8206-.2762-.4307-.4169-.9347-.4039-1.4466v-7.91473c-.0121-.50982.1286-1.01157.4039-1.44036.5223-.69292 1.1422-1.30617 1.8402-1.820596.4726-.286508 1.0119-.443631 1.5641-.455669h3.8327c.552.015784 1.09.172636 1.564.455669.692.521686 1.311 1.133996 1.841 1.820596.275.42879.416.93054.403 1.44036v7.91473c.013.5119-.127 1.0159-.403 1.4466zm-8.3969-1.4672s0 .0754.0247.1033c.296.4309.6725.8 1.1087 1.087.0397.0181.0832.0266.1268.0248h3.6307c.043-.0001.086-.0085.126-.0248.437-.2866.814-.6558 1.11-1.087.015-.0323.024-.0675.024-.1033v-7.81353s0-.10333-.024-.12606c-.297-.43835-.673-.81632-1.11-1.11385-.039-.01785-.082-.02634-.126-.0248h-3.6307s-.1031 0-.1268.0248c-.4363.29782-.8125.67575-1.1087 1.11385-.0163.04001-.0247.08282-.0247.12606z"/>
        <path d="m117.42 15.4922-5.219-10.03915v10.03915h-2.648v-15.121747h2.85l5.169 10.165147v-10.165147h2.647v15.121747z"/>
    </g>
</svg>