<svg xmlns="http://www.w3.org/2000/svg" width="256" height="72" fill="none" viewBox="0 0 256 72">
  <path d="M72 0H0v72h72V0Z" class="fill-brand"/>
  <path fill="#050504" d="m19.45 18.478 34.83 17.32L19.408 53.52l22.43-17.669L19.45 18.478Z"/>
  <path fill="currentColor" d="m96.691 30.058-3.799-11.951H90l5.088 15.435h3.171l5.111-15.435h-2.862l-3.817 11.951Zm42.348.902h-7.001v-3.784h6.506v-2.592h-6.506V20.69h7.001v-2.582h-9.713v15.435h9.713V30.96Zm-16.274 2.12a8.081 8.081 0 0 0 1.913-1.804 2.59 2.59 0 0 0 .389-1.474v-7.896a2.425 2.425 0 0 0-.409-1.474c-.312-.442-1.291-1.55-1.863-1.88a3.085 3.085 0 0 0-1.58-.445h-7.068v15.438h7.068a3.303 3.303 0 0 0 1.55-.465Zm-5.906-2.12V20.69h4.099a.724.724 0 0 1 .236.023c.464.286.855.677 1.141 1.14a.44.44 0 0 1 .021.13v7.769c0 .3-.775.978-1.141 1.181a.552.552 0 0 1-.171.02l-4.185.008Zm-7.464-12.853h-2.711v15.446h2.711V18.107Zm101.316 0v10.38l-5.304-10.38h-2.915v15.435h2.709V23.293l5.347 10.25h2.872V18.106h-2.709Zm-27.204 15.438-3.068-6.292a2.51 2.51 0 0 0 .669-.368 8.714 8.714 0 0 0 1.397-1.365c.311-.468.473-1.02.465-1.58v-2.27a2.853 2.853 0 0 0-.465-1.576 8.7 8.7 0 0 0-1.397-1.418 3.305 3.305 0 0 0-1.83-.571h-7.258v15.44h2.709v-6.081h2.968l2.872 6.1 2.938-.019Zm-3.248-9.626a.237.237 0 0 1-.033.107c-.203.353-.719.849-.948.849h-4.549v-4.186h4.679c.254.023.668.539.818.828a.426.426 0 0 1 .033.173v2.229Zm15.86-5.454a3.26 3.26 0 0 0-1.601-.465h-3.934a3.224 3.224 0 0 0-1.601.465c-.539.31-1.573 1.418-1.883 1.86a2.563 2.563 0 0 0-.409 1.474v8.09a2.555 2.555 0 0 0 .409 1.46c.31.442 1.344 1.56 1.883 1.86a3.228 3.228 0 0 0 1.601.473h3.926a3.269 3.269 0 0 0 1.601-.472c.539-.3 1.55-1.419 1.883-1.86.281-.435.425-.945.412-1.462V21.8a2.578 2.578 0 0 0-.422-1.474c-.323-.442-1.334-1.55-1.865-1.86Zm-.407 11.39a.224.224 0 0 1-.033.107 4.184 4.184 0 0 1-1.128 1.108.441.441 0 0 1-.13.02h-3.73a.337.337 0 0 1-.13-.02 4.06 4.06 0 0 1-1.138-1.108.246.246 0 0 1-.023-.107v-7.982c0-.044.008-.088.023-.13a4.17 4.17 0 0 1 1.138-1.128c.023-.03.13-.03.13-.03h3.723a.25.25 0 0 1 .129.03c.443.303.826.685 1.129 1.128.033.033.033.13.033.13l.007 7.982ZM168.35 18.107h-11.08v2.582h4.186v12.866h2.709V20.69h4.185v-2.582ZM154.358 31.35c.275-.438.416-.946.407-1.462V21.8a2.665 2.665 0 0 0-.407-1.474c-.335-.442-1.347-1.55-1.896-1.86a3.267 3.267 0 0 0-1.578-.465h-3.939a3.207 3.207 0 0 0-1.603.465c-.547.31-1.581 1.418-1.881 1.86a2.578 2.578 0 0 0-.422 1.474v8.09c-.01.518.138 1.027.422 1.46.3.442 1.334 1.56 1.881 1.86a3.21 3.21 0 0 0 1.603.473h3.939a3.28 3.28 0 0 0 1.591-.472c.536-.3 1.548-1.426 1.883-1.86Zm-2.305-1.495a.352.352 0 0 1-.02.107 4.222 4.222 0 0 1-1.149 1.108.445.445 0 0 1-.129.02h-3.713a.355.355 0 0 1-.127-.02 4.026 4.026 0 0 1-1.134-1.108.192.192 0 0 1-.03-.107v-7.982a.322.322 0 0 1 .03-.13c.301-.446.686-.83 1.134-1.128.03-.03.127-.03.127-.03h3.723a.25.25 0 0 1 .129.03 4.32 4.32 0 0 1 1.139 1.128.38.38 0 0 1 .02.13v7.982Zm-52.127 9.016a2.735 2.735 0 0 0-1.568-.508h-6.986v15.52h6.986c.561 0 1.11-.173 1.568-.496a9.066 9.066 0 0 0 1.296-1.374c.255-.397.382-.861.366-1.332v-2.2a2.493 2.493 0 0 0-.366-1.386 8.833 8.833 0 0 0-.983-1.062 8.9 8.9 0 0 0 .983-1.062c.255-.416.382-.898.366-1.385v-1.983a2.484 2.484 0 0 0-.366-1.382 9 9 0 0 0-1.296-1.35Zm-6.983 7.92h5.423a.945.945 0 0 1 .396.07c.49.317.9.744 1.195 1.248.053.125.079.26.073.396v2.112a.937.937 0 0 1-.07.394 3.711 3.711 0 0 1-1.2 1.248.793.793 0 0 1-.42.1h-5.397V46.79Zm5.82-1.587a.95.95 0 0 1-.397.1h-5.423v-5.441h5.398a.811.811 0 0 1 .421.099c.49.327.899.761 1.195 1.27.053.126.079.26.073.397v1.906c.005.144-.019.287-.07.422a3.753 3.753 0 0 1-1.205 1.247h.007Zm15.316 5.284a.701.701 0 0 1-.099.318 5.276 5.276 0 0 1-1.561 1.61.614.614 0 0 1-.315.072h-3.192a.627.627 0 0 1-.32-.074 5.43 5.43 0 0 1-1.606-1.608.701.701 0 0 1-.099-.318V38.351h-1.563v12.198c-.009.443.109.878.341 1.255a8.806 8.806 0 0 0 1.761 1.78c.409.251.876.394 1.357.416h3.451a2.756 2.756 0 0 0 1.331-.417 8.902 8.902 0 0 0 1.764-1.779c.223-.38.331-.815.313-1.255V38.351h-1.563v12.137Zm14.663-4.155-7.029-1.957a1.179 1.179 0 0 1-.763-1.123v-1.624a.689.689 0 0 1 .099-.315 4.811 4.811 0 0 1 1.584-1.484.626.626 0 0 1 .315-.072h3.631a.608.608 0 0 1 .318.074 4.96 4.96 0 0 1 1.56 1.614c.07.103.129.213.176.328l.012.027 1.563-.457-.015-.038a5.986 5.986 0 0 0-.597-1.017c-.3-.404-1.017-1.27-1.606-1.631a2.77 2.77 0 0 0-1.332-.417h-3.837a2.76 2.76 0 0 0-1.332.417 8.974 8.974 0 0 0-1.779 1.814 2.375 2.375 0 0 0-.315 1.271v1.596c0 1.177.668 2.186 1.624 2.455l7.054 1.931c.493.13.798.712.798 1.177v1.647a.686.686 0 0 1-.071.317 5.078 5.078 0 0 1-1.611 1.525.536.536 0 0 1-.29.071h-4.114a.725.725 0 0 1-.346-.074 5.226 5.226 0 0 1-1.555-1.608 1.07 1.07 0 0 1-.175-.297v-.028l-1.538.43.016.037c.157.357.348.697.571 1.017.298.404 1.017 1.27 1.607 1.631.409.252.876.395 1.357.417h4.274a2.753 2.753 0 0 0 1.332-.417 8.88 8.88 0 0 0 1.779-1.779c.221-.385.331-.826.315-1.27V48.77c-.005-1.16-.694-2.158-1.68-2.437Zm6.823-7.983H134v15.523h1.565V38.351Zm12.572 13.198-6.602-13.18-.01-.017h-2.041v15.52h1.512V40.797l6.656 13.055.01.017h1.987V38.35h-1.512v13.198Zm5.454 2.322h8.927v-1.512h-7.364v-5.491h6.978v-1.512h-6.978v-5.492h7.364V38.35h-8.927v15.52Zm21.717-7.537-7.029-1.957a1.183 1.183 0 0 1-.762-1.123v-1.624a.666.666 0 0 1 .099-.315c.408-.61.95-1.118 1.586-1.484a.614.614 0 0 1 .315-.072h3.629a.62.62 0 0 1 .32.074c.636.41 1.169.96 1.56 1.609.07.103.129.212.176.328l.012.028 1.525-.448h.038l-.015-.038a6.175 6.175 0 0 0-.597-1.016c-.298-.404-1.017-1.271-1.606-1.632a2.763 2.763 0 0 0-1.332-.417h-3.837a2.763 2.763 0 0 0-1.332.417 9.061 9.061 0 0 0-1.779 1.815 2.374 2.374 0 0 0-.312 1.27v1.596c0 1.177.665 2.186 1.621 2.455l7.057 1.931c.491.13.796.712.796 1.177v1.647a.7.7 0 0 1-.072.317 5.059 5.059 0 0 1-1.611 1.525.53.53 0 0 1-.289.071h-4.117a.735.735 0 0 1-.346-.073 5.252 5.252 0 0 1-1.555-1.609 1.107 1.107 0 0 1-.173-.297v-.028l-1.538.43.018.037c.157.357.348.697.57 1.017.299.404 1.016 1.27 1.606 1.631a2.83 2.83 0 0 0 1.357.417h4.277a2.76 2.76 0 0 0 1.331-.417 8.882 8.882 0 0 0 1.779-1.779c.222-.385.331-.825.315-1.27v-1.751c-.01-1.164-.696-2.163-1.685-2.442Zm14.6 0-7.032-1.957a1.175 1.175 0 0 1-.762-1.123v-1.624a.675.675 0 0 1 .096-.315 4.815 4.815 0 0 1 1.586-1.484.623.623 0 0 1 .315-.072h3.622c.11-.004.22.021.317.074.637.41 1.171.96 1.563 1.609.07.103.129.212.176.328v.028l1.524-.448h.038l-.015-.038a5.994 5.994 0 0 0-.597-1.016c-.297-.404-1.017-1.271-1.606-1.632a2.76 2.76 0 0 0-1.332-.417h-3.837a2.77 2.77 0 0 0-1.314.417 9.03 9.03 0 0 0-1.779 1.815 2.376 2.376 0 0 0-.315 1.27v1.596c0 1.177.666 2.186 1.621 2.455l7.058 1.931c.493.13.797.712.797 1.177v1.647a.661.661 0 0 1-.073.317 5.07 5.07 0 0 1-1.611 1.525.533.533 0 0 1-.29.071h-4.109a.714.714 0 0 1-.343-.073 5.22 5.22 0 0 1-1.558-1.609c-.072-.09-.13-.19-.173-.297v-.028l-1.525.43.015.037a6.3 6.3 0 0 0 .57 1.017c.3.404 1.016 1.27 1.606 1.631.41.252.878.395 1.359.417h4.275a2.756 2.756 0 0 0 1.331-.417 8.83 8.83 0 0 0 1.779-1.779c.221-.386.33-.826.313-1.27v-1.751c-.018-1.164-.704-2.163-1.69-2.442Z"/>
</svg>
