<svg width="156" height="48" viewBox="0 0 156 48" fill="none" xmlns="http://www.w3.org/2000/svg">
    <path d="M48 0H0V48H48V0Z" class="fill-brand"/>
    <path d="M12.9664 12.3184L36.1868 23.865L12.9385 35.6798L27.8918 23.9007L12.9664 12.3184Z" fill="#050504"/>
    <path d="M64.4608 20.0391L61.928 12.0713H60L63.3918 22.3618H65.5061L68.9131 12.0713H67.0055L64.4608 20.0391Z" fill="currentColor"/>
    <path d="M92.6929 20.6405H88.0254V18.1178H92.3625V16.3898H88.0254V13.7926H92.6929V12.0713H86.2177V22.3618H92.6929V20.6405Z" fill="currentColor"/>
    <path d="M81.8433 22.0534C82.3313 21.7248 82.7622 21.3185 83.119 20.8506C83.3018 20.5564 83.3921 20.2141 83.3782 19.8679V14.6041C83.3956 14.2557 83.2999 13.911 83.1054 13.6215C82.897 13.3267 82.2448 12.588 81.8636 12.3678C81.5455 12.1756 81.1814 12.0732 80.8098 12.0713H76.0983V22.3635H80.8098C81.1747 22.3474 81.5298 22.2409 81.8433 22.0534ZM77.906 20.6405V13.7926H80.6387C80.6917 13.7889 80.7449 13.7941 80.7963 13.8078C81.1056 13.9987 81.3661 14.2592 81.5569 14.5685C81.5658 14.5965 81.5703 14.6256 81.5705 14.6549V19.8341C81.5705 20.034 81.0538 20.4863 80.8098 20.6219C80.7729 20.6323 80.7346 20.6369 80.6963 20.6354L77.906 20.6405Z" fill="currentColor"/>
    <path d="M72.9301 12.0713H71.1224V22.3686H72.9301V12.0713Z" fill="currentColor"/>
    <path d="M140.474 12.0713V18.992L136.938 12.0713H134.995V22.3618H136.801V15.5291L140.366 22.3618H142.28V12.0713H140.474Z" fill="currentColor"/>
    <path d="M122.338 22.3635L120.293 18.1687C120.453 18.11 120.603 18.0271 120.738 17.923C121.082 17.6557 121.395 17.3506 121.67 17.0132C121.877 16.7011 121.985 16.3339 121.98 15.9594V14.4465C121.982 14.0736 121.874 13.7083 121.67 13.3961C121.397 13.0463 121.084 12.729 120.738 12.4508C120.378 12.2059 119.954 12.0733 119.519 12.0696H114.68V22.3635H116.486V18.3093H118.465L120.379 22.3753L122.338 22.3635ZM120.173 15.9459C120.171 15.971 120.163 15.9954 120.15 16.017C120.015 16.2525 119.671 16.5829 119.519 16.5829H116.486V13.7926H119.605C119.774 13.8078 120.051 14.1517 120.15 14.3449C120.166 14.3812 120.174 14.4205 120.173 14.4601V15.9459Z" fill="currentColor"/>
    <path d="M130.746 12.31C130.423 12.1159 130.055 12.0091 129.679 12H127.056C126.679 12.0079 126.311 12.1148 125.989 12.31C125.629 12.5167 124.94 13.2554 124.733 13.5502C124.545 13.8424 124.449 14.1852 124.46 14.5328V19.9254C124.451 20.2702 124.546 20.6099 124.733 20.8996C124.94 21.1944 125.629 21.9398 125.989 22.1397C126.311 22.3365 126.679 22.4452 127.056 22.4548H129.673C130.051 22.444 130.418 22.3354 130.741 22.1397C131.1 21.9398 131.774 21.1944 131.996 20.8996C132.184 20.6098 132.279 20.2703 132.271 19.9254V14.5328C132.279 14.1843 132.18 13.8417 131.989 13.5502C131.774 13.2554 131.1 12.5167 130.746 12.31ZM130.475 19.9034C130.474 19.9286 130.466 19.9531 130.453 19.9745C130.251 20.2662 129.996 20.5169 129.701 20.7132C129.673 20.722 129.643 20.7266 129.614 20.7268H127.127C127.098 20.728 127.068 20.7234 127.041 20.7132C126.742 20.5193 126.484 20.2683 126.282 19.9745C126.272 19.9522 126.266 19.9279 126.266 19.9034V14.5819C126.267 14.5525 126.272 14.5233 126.282 14.4955C126.484 14.1982 126.742 13.9428 127.041 13.7433C127.056 13.723 127.127 13.723 127.127 13.723H129.609C129.639 13.722 129.669 13.729 129.695 13.7433C129.991 13.9452 130.246 14.2003 130.448 14.4955C130.47 14.5176 130.47 14.5819 130.47 14.5819L130.475 19.9034Z" fill="currentColor"/>
    <path d="M112.234 12.0713H104.847V13.7926H107.637V22.3703H109.443V13.7926H112.234V12.0713Z" fill="currentColor"/>
    <path d="M102.905 20.8996C103.088 20.6081 103.183 20.2696 103.176 19.9254V14.5328C103.184 14.1858 103.09 13.8442 102.905 13.5502C102.682 13.2554 102.007 12.5167 101.642 12.31C101.323 12.1187 100.961 12.012 100.589 12H97.9634C97.586 12.0072 97.2171 12.1142 96.8944 12.31C96.5301 12.5167 95.8406 13.2554 95.6407 13.5502C95.4496 13.8417 95.3515 14.1843 95.3595 14.5328V19.9254C95.3529 20.271 95.451 20.6106 95.6407 20.8996C95.8406 21.1944 96.5301 21.9398 96.8944 22.1397C97.2167 22.3373 97.5855 22.446 97.9634 22.4548H100.589C100.964 22.4425 101.329 22.334 101.65 22.1397C102.007 21.9398 102.682 21.1893 102.905 20.8996ZM101.369 19.9034C101.368 19.9277 101.364 19.9517 101.355 19.9745C101.149 20.2674 100.889 20.5181 100.589 20.7132C100.561 20.7219 100.532 20.7265 100.503 20.7268H98.0278C97.999 20.7274 97.9703 20.7228 97.9431 20.7132C97.6448 20.5195 97.3879 20.2684 97.1875 19.9745C97.1739 19.9533 97.1668 19.9286 97.1672 19.9034V14.5819C97.1676 14.552 97.1746 14.5225 97.1875 14.4955C97.3881 14.1981 97.6448 13.9426 97.9431 13.7433C97.9634 13.723 98.0278 13.723 98.0278 13.723H100.51C100.54 13.722 100.57 13.729 100.596 13.7433C100.894 13.9445 101.151 14.1996 101.355 14.4955C101.365 14.5233 101.369 14.5526 101.369 14.5819V19.9034Z" fill="currentColor"/>
    <path d="M66.6176 25.9143C66.3123 25.6965 65.9472 25.5782 65.5722 25.5754H60.9149V35.9218H65.5722C65.9464 35.9219 66.3114 35.8065 66.6176 35.5915C66.9367 35.3169 67.2263 35.0097 67.4816 34.6749C67.651 34.4106 67.7361 34.101 67.7256 33.7872V32.32C67.7362 31.995 67.6514 31.674 67.4816 31.3967C67.2828 31.143 67.0635 30.9062 66.826 30.6885C67.0635 30.4708 67.2828 30.234 67.4816 29.9803C67.6514 29.703 67.7362 29.382 67.7256 29.057V27.7355C67.7363 27.411 67.6515 27.0906 67.4816 26.8139C67.2256 26.4848 66.9361 26.1833 66.6176 25.9143ZM61.9619 31.1934H65.5773C65.6678 31.19 65.758 31.2062 65.8416 31.2408C66.1686 31.4518 66.4414 31.7368 66.6379 32.0727C66.6736 32.156 66.6904 32.2463 66.687 32.3369V33.7448C66.6902 33.8347 66.6741 33.9243 66.6396 34.0074C66.4423 34.3438 66.1683 34.6288 65.8399 34.8393C65.7546 34.8867 65.6579 34.9095 65.5604 34.9053H61.9619V31.1934ZM65.8416 30.1362C65.7594 30.1771 65.6692 30.1997 65.5773 30.2023H61.9619V26.575H65.5604C65.6584 26.5711 65.7556 26.5939 65.8416 26.6411C66.1682 26.859 66.4406 27.1487 66.6379 27.4882C66.6736 27.5716 66.6904 27.6618 66.687 27.7525V29.0231C66.6899 29.1191 66.6738 29.2147 66.6396 29.3043C66.4405 29.6405 66.1655 29.9254 65.8365 30.1362H65.8416Z" fill="currentColor"/>
    <path d="M76.0525 33.6586C76.048 33.7335 76.0253 33.8061 75.9865 33.8704C75.7208 34.2989 75.366 34.6652 74.9462 34.9445C74.8817 34.9787 74.8092 34.9951 74.7362 34.9919H72.6083C72.534 34.9948 72.4603 34.9778 72.3948 34.9428C71.9662 34.6649 71.6013 34.2994 71.3241 33.8704C71.2852 33.8061 71.2626 33.7335 71.258 33.6586V25.5671H70.2161V33.6992C70.2097 33.9942 70.2885 34.2848 70.4431 34.5362C70.7762 34.9852 71.1715 35.3845 71.6171 35.7221C71.8903 35.8899 72.2016 35.9855 72.5218 36H74.8226C75.1374 35.9849 75.4431 35.8892 75.7103 35.7221C76.1561 35.3841 76.5519 34.9848 76.8861 34.5362C77.0346 34.2831 77.107 33.9925 77.0945 33.6992V25.5671H76.0525V33.6586Z" fill="currentColor"/>
    <path d="M85.8279 30.8884L81.1418 29.5839C80.9901 29.5269 80.8598 29.4243 80.7688 29.2902C80.6778 29.1561 80.6305 28.9971 80.6336 28.8351V27.7525C80.6379 27.6781 80.6606 27.6059 80.6996 27.5424C80.9714 27.1364 81.3325 26.798 81.7551 26.553C81.8198 26.5191 81.8922 26.5028 81.9652 26.5056H84.3862C84.4599 26.5024 84.5331 26.5194 84.598 26.5547C85.0224 26.8291 85.3783 27.1971 85.6382 27.6305C85.6846 27.6991 85.7237 27.7724 85.7551 27.8491L85.7636 27.8677L86.8055 27.5627L86.7953 27.5373C86.6851 27.299 86.5518 27.072 86.3972 26.8597C86.1973 26.5903 85.7195 26.0126 85.3265 25.772C85.0591 25.6051 84.7535 25.5094 84.4387 25.4941H81.8805C81.5657 25.5092 81.26 25.6049 80.9927 25.772C80.542 26.1169 80.1427 26.5242 79.8068 26.9816C79.6588 27.2388 79.586 27.5323 79.5967 27.8287V28.8927C79.5967 29.6771 80.0423 30.3497 80.6793 30.5293L85.3824 31.8169C85.711 31.9033 85.9143 32.2912 85.9143 32.6013V33.6991C85.9156 33.7725 85.8993 33.845 85.8669 33.9109C85.5881 34.3247 85.2213 34.6718 84.7928 34.9274C84.7342 34.9611 84.6672 34.9776 84.5997 34.9748H81.8568C81.7771 34.9778 81.6979 34.9609 81.6264 34.9257C81.2073 34.6473 80.8536 34.2815 80.5895 33.8533C80.54 33.794 80.5005 33.7271 80.4726 33.655V33.6364L79.4476 33.9227L79.4578 33.9481C79.5625 34.1859 79.6902 34.4128 79.839 34.6258C80.0372 34.8952 80.5167 35.4729 80.9097 35.7135C81.1829 35.8813 81.4942 35.9769 81.8144 35.9913H84.664C84.9789 35.9766 85.2847 35.8809 85.5518 35.7135C86.0016 35.3767 86.401 34.9774 86.7377 34.5276C86.8857 34.2704 86.9585 33.9769 86.9478 33.6805V32.5132C86.9444 31.7406 86.4853 31.0748 85.8279 30.8884Z" fill="currentColor"/>
    <path d="M90.3769 25.5671H89.3333V35.9152H90.3769V25.5671Z" fill="currentColor"/>
    <path d="M98.7581 34.3651L94.3566 25.579L94.3498 25.5671H92.9894V35.9135H93.9974V27.1986L98.4345 35.9017L98.4413 35.9135H99.7662V25.5671H98.7581V34.3651Z" fill="currentColor"/>
    <path d="M102.394 35.9135H108.345V34.9055H103.436V31.2444H108.088V30.2363H103.436V26.5752H108.345V25.5671H102.394V35.9135Z" fill="currentColor"/>
    <path d="M116.872 30.8885L112.186 29.5839C112.035 29.5267 111.904 29.424 111.813 29.29C111.722 29.156 111.675 28.9971 111.678 28.8351V27.7525C111.682 27.6781 111.705 27.6059 111.744 27.5424C112.016 27.136 112.378 26.7975 112.801 26.553C112.866 26.5188 112.938 26.5024 113.011 26.5056H115.431C115.505 26.5025 115.579 26.5195 115.644 26.5547C116.068 26.8285 116.423 27.1953 116.684 27.6272C116.731 27.6958 116.77 27.769 116.801 27.8457L116.81 27.8643L117.826 27.5662H117.852L117.841 27.5407C117.73 27.3028 117.597 27.0758 117.443 26.8631C117.245 26.5937 116.766 26.016 116.372 25.7754C116.105 25.6083 115.8 25.5126 115.485 25.4976H112.927C112.612 25.5126 112.306 25.6083 112.039 25.7754C111.588 26.1208 111.189 26.528 110.853 26.9851C110.705 27.2424 110.633 27.5358 110.644 27.8321V28.8961C110.644 29.6805 111.088 30.3531 111.725 30.5327L116.43 31.8203C116.757 31.9067 116.96 32.2946 116.96 32.6047V33.7025C116.962 33.7759 116.945 33.8485 116.913 33.9143C116.634 34.3283 116.268 34.6754 115.839 34.9308C115.78 34.9647 115.713 34.9812 115.646 34.9782H112.901C112.821 34.9809 112.742 34.964 112.671 34.9291C112.252 34.6503 111.898 34.2845 111.634 33.8567C111.585 33.797 111.546 33.7301 111.519 33.6585V33.6398L110.494 33.9261L110.506 33.9516C110.61 34.189 110.737 34.416 110.885 34.6292C111.085 34.8986 111.563 35.4763 111.956 35.7169C112.229 35.8847 112.54 35.9803 112.86 35.9947H115.712C116.027 35.9795 116.332 35.8838 116.6 35.7169C117.049 35.3798 117.448 34.9805 117.785 34.531C117.933 34.2738 118.006 33.9803 117.996 33.6839V32.5166C117.989 31.7406 117.531 31.0748 116.872 30.8885Z" fill="currentColor"/>
    <path d="M126.605 30.8885L121.918 29.5839C121.766 29.5269 121.636 29.4243 121.545 29.2902C121.454 29.1561 121.406 28.9971 121.409 28.8351V27.7525C121.413 27.6782 121.435 27.6061 121.474 27.5424C121.746 27.1364 122.108 26.798 122.531 26.553C122.595 26.519 122.668 26.5027 122.741 26.5056H125.155C125.229 26.5027 125.302 26.5197 125.367 26.5547C125.791 26.8284 126.148 27.1952 126.409 27.6272C126.455 27.6958 126.494 27.769 126.526 27.8457V27.8643L127.542 27.5662H127.568L127.557 27.5407C127.447 27.3024 127.314 27.0754 127.159 26.8631C126.961 26.5937 126.482 26.016 126.089 25.7754C125.821 25.6083 125.516 25.5126 125.201 25.4976H122.643C122.332 25.5148 122.031 25.6104 121.767 25.7754C121.316 26.1207 120.917 26.5279 120.581 26.9851C120.433 27.2422 120.36 27.5357 120.371 27.8321V28.8961C120.371 29.6805 120.815 30.3531 121.452 30.5327L126.156 31.8203C126.485 31.9067 126.688 32.2946 126.688 32.6047V33.7025C126.69 33.7761 126.673 33.8489 126.639 33.9143C126.361 34.3283 125.994 34.6754 125.565 34.9308C125.507 34.9647 125.44 34.9812 125.372 34.9782H122.632C122.553 34.9811 122.475 34.9642 122.404 34.9291C121.984 34.6508 121.63 34.285 121.365 33.8567C121.318 33.7965 121.279 33.7297 121.25 33.6585V33.6398L120.234 33.9261L120.244 33.9516C120.349 34.1887 120.476 34.4156 120.623 34.6292C120.823 34.8986 121.301 35.4763 121.694 35.7169C121.968 35.8847 122.28 35.9803 122.6 35.9947H125.45C125.765 35.9797 126.07 35.884 126.338 35.7169C126.787 35.3801 127.187 34.9808 127.524 34.531C127.671 34.2737 127.743 33.9802 127.732 33.6839V32.5166C127.72 31.7406 127.263 31.0748 126.605 30.8885Z" fill="currentColor"/>
</svg>