<svg width="109" height="24" viewBox="0 0 109 24" fill="none" xmlns="http://www.w3.org/2000/svg"><path d="M24 0H0v24h24V0Z" class="fill-brand"/><path d="m6.483 6.16 11.61 5.772L6.47 17.84l7.477-5.89-7.463-5.79Z" fill="#050504"/><path d="M34.233 8.77 32.16 2.244H30.58l2.778 8.427h1.731l2.79-8.427h-1.562l-2.084 6.524ZM57.352 9.262H53.53V7.196h3.552V5.781H53.53V3.654h3.822v-1.41H52.05v8.428h5.302v-1.41ZM48.468 10.419c.4-.27.752-.602 1.044-.985.15-.241.224-.521.212-.805V4.32a1.325 1.325 0 0 0-.223-.805c-.17-.241-.705-.846-1.017-1.027a1.685 1.685 0 0 0-.863-.242h-3.858v8.428h3.858c.299-.013.59-.1.846-.254Zm-3.225-1.157V3.654h2.238a.394.394 0 0 1 .13.013c.252.156.466.37.622.623a.24.24 0 0 1 .011.07v4.242c0 .163-.423.534-.623.645a.3.3 0 0 1-.093.01l-2.285.005ZM41.169 2.245h-1.48v8.432h1.48V2.245ZM96.48 2.245v5.667l-2.895-5.667h-1.592v8.427h1.48V5.076l2.918 5.596h1.568V2.245H96.48ZM81.628 10.673l-1.674-3.435a1.37 1.37 0 0 0 .365-.202c.281-.218.537-.468.763-.745.17-.255.258-.556.254-.862v-1.24a1.56 1.56 0 0 0-.254-.86 4.73 4.73 0 0 0-.763-.774c-.295-.2-.643-.309-1-.312h-3.962v8.43h1.48v-3.32h1.62l1.568 3.33 1.603-.01Zm-1.773-5.256a.13.13 0 0 1-.018.059c-.11.193-.392.463-.517.463h-2.484V3.654h2.555c.138.013.364.294.446.452.013.03.02.062.018.095v1.216ZM88.514 2.44a1.78 1.78 0 0 0-.874-.254h-2.148c-.309.007-.61.094-.874.254-.294.17-.859.774-1.028 1.016a1.4 1.4 0 0 0-.223.804v4.416c-.008.283.07.56.223.798.17.242.734.852 1.028 1.016.264.16.565.25.874.258h2.144c.308-.01.61-.098.874-.258.294-.164.846-.774 1.028-1.016.153-.237.231-.515.224-.798V4.26a1.41 1.41 0 0 0-.23-.804c-.176-.242-.728-.847-1.018-1.016Zm-.222 6.218a.123.123 0 0 1-.018.059 2.29 2.29 0 0 1-.616.604.24.24 0 0 1-.071.012H85.55a.183.183 0 0 1-.07-.012 2.22 2.22 0 0 1-.622-.604.14.14 0 0 1-.012-.059V4.301c0-.024.004-.048.012-.071.166-.244.377-.453.622-.616.012-.017.07-.017.07-.017h2.033c.025 0 .049.005.07.017.242.165.451.374.617.616.018.018.018.07.018.07l.004 4.358ZM73.354 2.245h-6.049v1.41h2.285v7.023h1.48V3.654h2.284v-1.41ZM65.715 9.474c.15-.239.227-.516.222-.798V4.26a1.455 1.455 0 0 0-.222-.804c-.183-.242-.735-.847-1.035-1.016a1.785 1.785 0 0 0-.861-.254h-2.15c-.31.006-.612.094-.876.254-.298.17-.863.774-1.027 1.016a1.41 1.41 0 0 0-.23.804v4.416c-.005.283.075.561.23.798.164.242.729.852 1.027 1.016.264.161.566.25.875.258h2.15a1.79 1.79 0 0 0 .87-.258c.292-.164.844-.779 1.027-1.016Zm-1.258-.816c0 .02-.004.04-.011.059-.169.24-.382.445-.627.604a.246.246 0 0 1-.071.012H61.72a.196.196 0 0 1-.07-.012 2.198 2.198 0 0 1-.618-.604.105.105 0 0 1-.017-.059V4.301a.17.17 0 0 1 .017-.071 2.26 2.26 0 0 1 .619-.616c.016-.017.069-.017.069-.017h2.033c.024 0 .049.005.07.017.244.165.455.374.622.616a.205.205 0 0 1 .01.07v4.358ZM36 13.58a1.493 1.493 0 0 0-.857-.277H31.33v8.473h3.814c.307 0 .605-.095.856-.27.262-.226.499-.477.708-.751a1.27 1.27 0 0 0 .2-.727v-1.202a1.363 1.363 0 0 0-.2-.756 4.816 4.816 0 0 0-.537-.58c.194-.178.374-.372.537-.58.139-.227.208-.49.2-.756v-1.082a1.358 1.358 0 0 0-.2-.755 4.911 4.911 0 0 0-.708-.736Zm-3.813 4.324h2.96a.516.516 0 0 1 .217.039c.268.172.49.406.652.68.03.069.043.143.04.217v1.153a.514.514 0 0 1-.039.215 2.027 2.027 0 0 1-.655.681.432.432 0 0 1-.229.054h-2.946v-3.04Zm3.177-.866a.519.519 0 0 1-.217.054h-2.96v-2.97h2.947c.08-.003.16.015.23.054.267.178.49.416.652.694.03.068.043.142.04.216v1.04a.595.595 0 0 1-.039.23 2.05 2.05 0 0 1-.657.682h.004ZM43.725 19.922a.38.38 0 0 1-.054.174c-.217.35-.508.65-.852.88a.336.336 0 0 1-.172.038h-1.742a.343.343 0 0 1-.175-.04 2.964 2.964 0 0 1-.877-.878.38.38 0 0 1-.054-.174v-6.626h-.853v6.66c-.005.241.06.48.186.685.273.368.596.695.961.971.224.138.479.216.741.228h1.884c.258-.012.508-.09.727-.228.365-.277.69-.603.963-.97a1.25 1.25 0 0 0 .17-.686v-6.66h-.853v6.626ZM51.73 17.654l-3.837-1.068a.643.643 0 0 1-.416-.613v-.887a.369.369 0 0 1 .054-.172c.223-.332.518-.61.864-.81a.342.342 0 0 1 .172-.04h1.983c.06-.002.12.012.173.041a2.706 2.706 0 0 1 .948 1.06l.007.015.853-.25-.008-.02c-.09-.196-.2-.381-.326-.555-.164-.22-.555-.694-.877-.89a1.51 1.51 0 0 0-.727-.228h-2.095c-.258.012-.508.09-.727.227-.37.282-.696.616-.971.99-.121.211-.18.452-.172.694v.872c0 .642.365 1.193.886 1.34l3.852 1.054c.269.071.435.389.435.643v.899a.379.379 0 0 1-.038.173 2.776 2.776 0 0 1-.88.832.293.293 0 0 1-.158.04h-2.246a.394.394 0 0 1-.19-.041 2.85 2.85 0 0 1-.848-.878.576.576 0 0 1-.096-.163v-.015l-.84.235.01.02c.085.195.19.381.311.556.163.22.555.693.877.89.224.138.479.216.74.228h2.334c.258-.012.509-.09.727-.228.369-.276.696-.603.972-.971.12-.21.18-.45.172-.694v-.956c-.003-.632-.38-1.178-.918-1.33ZM55.456 13.296H54.6v8.474h.855v-8.474ZM62.319 20.501l-3.604-7.195-.006-.01h-1.114v8.473h.825v-7.137l3.634 7.127.005.01h1.085v-8.473h-.825v7.205ZM65.296 21.769h4.874v-.825h-4.02v-2.999h3.81v-.825h-3.81v-2.998h4.02v-.826h-4.874v8.473ZM77.153 17.654l-3.838-1.068a.644.644 0 0 1-.416-.614v-.886a.369.369 0 0 1 .054-.172c.223-.333.519-.61.866-.81a.335.335 0 0 1 .172-.04h1.981a.339.339 0 0 1 .175.041c.347.224.638.524.852.878a.99.99 0 0 1 .095.18l.007.014.833-.244h.02l-.008-.02c-.09-.196-.2-.381-.326-.556-.162-.22-.555-.693-.877-.89a1.506 1.506 0 0 0-.727-.228h-2.095c-.257.013-.508.09-.727.228a4.934 4.934 0 0 0-.97.99c-.121.211-.18.451-.171.694v.871c0 .643.363 1.193.885 1.34l3.852 1.055c.268.07.435.388.435.642v.9a.379.379 0 0 1-.04.173 2.766 2.766 0 0 1-.879.832.29.29 0 0 1-.158.039h-2.247a.4.4 0 0 1-.189-.04 2.865 2.865 0 0 1-.85-.879.6.6 0 0 1-.093-.162v-.015l-.84.234.01.021c.086.195.19.38.31.555.164.22.556.694.877.89.224.138.48.216.741.228h2.335a1.51 1.51 0 0 0 .727-.227c.368-.276.695-.603.971-.971.122-.21.181-.451.172-.694v-.956c-.005-.635-.38-1.18-.92-1.333ZM85.123 17.654l-3.839-1.068a.642.642 0 0 1-.416-.614v-.886a.368.368 0 0 1 .053-.172c.223-.333.519-.61.865-.81a.34.34 0 0 1 .172-.04h1.977c.06-.002.12.012.174.041.347.224.64.524.853.878.038.056.07.116.096.18v.014l.832-.244h.021l-.008-.02c-.09-.196-.2-.382-.326-.556-.163-.22-.555-.693-.877-.89a1.506 1.506 0 0 0-.727-.228h-2.095a1.51 1.51 0 0 0-.717.228 4.922 4.922 0 0 0-.971.99c-.122.21-.181.451-.172.694v.871c0 .643.363 1.193.885 1.34l3.852 1.055c.27.07.436.388.436.642v.9a.363.363 0 0 1-.04.173 2.766 2.766 0 0 1-.88.832.29.29 0 0 1-.158.039H81.87a.39.39 0 0 1-.188-.04 2.854 2.854 0 0 1-.85-.879.655.655 0 0 1-.094-.162v-.015l-.833.234.008.021c.087.194.19.38.311.555.164.22.555.694.877.89.224.138.48.216.742.228h2.334c.258-.012.508-.09.727-.227.368-.276.695-.603.971-.971.12-.211.18-.451.17-.694v-.956c-.01-.635-.384-1.18-.922-1.333Z" fill="currentColor"/></svg>