<svg xmlns="http://www.w3.org/2000/svg" width="256" height="72" fill="none" viewBox="0 0 256 72">
  <path d="M72 0H0v72h72z" class="fill-brand"/>
  <path fill="#000" d="m19.45 18.478 34.83 17.32L19.408 53.52l22.43-17.669z"/>
  <path d="M100.142 43.492h-3.098l-4.97-15.122h2.824l3.709 11.708 3.732-11.708h2.797zm8.218 0V28.37h2.648v15.122zm17.149-2.225a7.84 7.84 0 0 1-1.866 1.77 3.33 3.33 0 0 1-1.514.455h-6.91V28.371h6.91a3.056 3.056 0 0 1 1.537.43 8.926 8.926 0 0 1 1.817 1.845c.286.424.427.929.403 1.44v7.74a2.592 2.592 0 0 1-.377 1.44zm-3.556-.304s.151 0 .176-.025c.354-.207 1.11-.86 1.11-1.163v-7.611a.34.34 0 0 0-.025-.126 3.298 3.298 0 0 0-1.11-1.114.621.621 0 0 0-.226-.025h-4.009v10.065zm8.142 2.529V28.37h9.479v2.53h-6.834v3.823h6.353v2.528h-6.354v3.72h6.834v2.53zm24.434-2.149a9.761 9.761 0 0 1-1.84 1.82 3.234 3.234 0 0 1-1.564.455h-3.833a3.153 3.153 0 0 1-1.565-.454 9.03 9.03 0 0 1-1.84-1.821 2.561 2.561 0 0 1-.404-1.447v-7.914a2.557 2.557 0 0 1 .404-1.44 9.02 9.02 0 0 1 1.84-1.821 3.152 3.152 0 0 1 1.565-.456h3.833c.551.016 1.09.173 1.564.456a9.746 9.746 0 0 1 1.84 1.82c.275.43.415.93.403 1.44v7.915a2.56 2.56 0 0 1-.403 1.447zm-8.397-1.467s0 .075.025.103c.296.431.673.8 1.11 1.087a.275.275 0 0 0 .126.025h3.631a.336.336 0 0 0 .125-.025 4.022 4.022 0 0 0 1.11-1.087.264.264 0 0 0 .025-.103v-7.814s0-.103-.025-.126a4.174 4.174 0 0 0-1.11-1.114.278.278 0 0 0-.125-.024h-3.631s-.103 0-.126.024a4.194 4.194 0 0 0-1.11 1.114.363.363 0 0 0-.025.126zm17.977-8.977v12.593h-2.648V30.9h-4.084v-2.53h10.819v2.528zm17.684 4.729a8.518 8.518 0 0 1-1.361 1.343 2.37 2.37 0 0 1-.656.354l3 6.167h-2.874l-2.799-5.964h-2.899v5.968h-2.648V28.371h7.085a3.257 3.257 0 0 1 1.791.555c.504.412.96.879 1.361 1.391.298.46.456.995.455 1.543v2.224a2.757 2.757 0 0 1-.455 1.544zm-2.192-3.742a.557.557 0 0 0-.026-.177c-.15-.278-.554-.784-.806-.81h-4.564v4.097h4.438c.226 0 .731-.48.932-.834a.248.248 0 0 0 .026-.103zm17.608 9.457a9.722 9.722 0 0 1-1.841 1.82 3.228 3.228 0 0 1-1.564.455h-3.833a3.15 3.15 0 0 1-1.564-.454 8.994 8.994 0 0 1-1.84-1.821 2.561 2.561 0 0 1-.404-1.447v-7.914a2.557 2.557 0 0 1 .404-1.44 8.957 8.957 0 0 1 1.84-1.821 3.151 3.151 0 0 1 1.564-.456h3.833a3.23 3.23 0 0 1 1.564.456 9.71 9.71 0 0 1 1.841 1.82c.275.43.416.93.403 1.44v7.915a2.56 2.56 0 0 1-.403 1.447zm-8.397-1.467s0 .075.025.103c.296.431.672.8 1.109 1.087a.275.275 0 0 0 .126.025h3.631a.337.337 0 0 0 .126-.025 4.022 4.022 0 0 0 1.11-1.087.246.246 0 0 0 .024-.103v-7.814s0-.103-.024-.126a4.188 4.188 0 0 0-1.11-1.114.277.277 0 0 0-.126-.024h-3.631s-.103 0-.126.024a4.177 4.177 0 0 0-1.109 1.114.34.34 0 0 0-.025.126zm20.608 3.616-5.219-10.039v10.04h-2.648V28.37h2.85l5.169 10.166V28.37h2.647v15.122zm-70.996-19.148h-2.891l-1.911 2.48h2.41z" class="fill-neutral"/>
</svg>
