<svg xmlns="http://www.w3.org/2000/svg" width="109" height="24" fill="none" viewBox="0 0 109 24">
  <path d="M24 0H0v24h24V0Z" class="fill-brand"/>
  <path fill="#050504" d="m6.483 6.16 11.61 5.772L6.47 17.84l7.477-5.89-7.463-5.79Z"/>
  <path fill="currentColor" d="m34.22 8.774-2.074-6.52h-1.578l2.776 8.423h1.731l2.789-8.424h-1.562L34.22 8.774ZM56.507 0h-1.615l-1.067 1.378h1.349L56.507 0Zm.822 9.268h-3.82V7.203h3.55V5.787h-3.55V3.662h3.82V2.253h-5.3v8.424h5.3v-1.41Zm-8.881 1.157c.4-.27.752-.603 1.044-.987.15-.24.224-.52.213-.803v-4.31a1.323 1.323 0 0 0-.224-.803c-.17-.241-.704-.846-1.016-1.027a1.696 1.696 0 0 0-.863-.242h-3.857v8.425h3.857c.299-.013.59-.1.846-.254Zm-3.223-1.157V3.662h2.237a.394.394 0 0 1 .129.013c.253.156.467.37.623.624a.236.236 0 0 1 .01.07v4.243c0 .162-.422.532-.622.645a.3.3 0 0 1-.093.01h-2.284Zm-4.073-7.015h-1.48v8.43h1.48v-8.43Zm55.289 0V7.92l-2.894-5.666h-1.59v8.424h1.478V5.082l2.917 5.595h1.567V2.253h-1.478Zm-14.846 8.425-1.674-3.435c.132-.047.255-.114.365-.2.281-.219.537-.468.763-.744.17-.256.258-.557.254-.864V4.198a1.557 1.557 0 0 0-.254-.859 4.728 4.728 0 0 0-.763-.774 1.803 1.803 0 0 0-.998-.312h-3.961v8.425h1.478V7.35h1.62l1.567 3.328h1.603Zm-1.772-5.254a.13.13 0 0 1-.018.058c-.11.194-.392.464-.517.464h-2.483V3.662h2.553c.14.013.365.293.447.453.013.03.019.061.018.094v1.215Zm8.655-2.976a1.793 1.793 0 0 0-.874-.253h-2.146a1.77 1.77 0 0 0-.874.253c-.294.17-.859.774-1.028 1.016a1.395 1.395 0 0 0-.223.803v4.414a1.4 1.4 0 0 0 .223.798c.17.243.734.851 1.028 1.016.264.16.565.25.874.258H87.6c.309-.01.61-.098.874-.258.294-.165.846-.773 1.027-1.016.154-.237.233-.515.225-.798V4.267a1.404 1.404 0 0 0-.225-.8c-.181-.245-.733-.849-1.023-1.02Zm-.222 6.217a.123.123 0 0 1-.018.058 2.288 2.288 0 0 1-.616.605.24.24 0 0 1-.07.01h-2.036a.183.183 0 0 1-.07-.01 2.218 2.218 0 0 1-.622-.605.14.14 0 0 1-.013-.058V4.307c0-.023.005-.047.013-.069a2.29 2.29 0 0 1 .621-.617c.013-.017.07-.017.07-.017h2.032c.025 0 .05.005.071.017.242.166.45.375.616.617.018.018.018.07.018.07l.004 4.357ZM73.324 2.253h-6.046v1.41h2.284v7.02h1.478v-7.02h2.284v-1.41Zm-7.635 7.226c.15-.239.227-.516.222-.798V4.267a1.449 1.449 0 0 0-.222-.803c-.183-.242-.735-.846-1.035-1.016a1.803 1.803 0 0 0-.861-.253h-2.15a1.76 1.76 0 0 0-.875.253c-.303.17-.858.774-1.026 1.019a1.406 1.406 0 0 0-.23.803v4.411a1.4 1.4 0 0 0 .23.798c.164.243.728.851 1.026 1.016.264.161.566.25.875.258h2.15a1.8 1.8 0 0 0 .868-.258c.293-.165.845-.773 1.028-1.016Zm-1.258-.814c0 .02-.004.04-.011.058-.169.24-.382.445-.627.605a.245.245 0 0 1-.07.01h-2.027a.196.196 0 0 1-.07-.01 2.198 2.198 0 0 1-.618-.605.105.105 0 0 1-.016-.058V4.307c0-.024.006-.047.016-.069.164-.244.374-.453.619-.617.016-.017.07-.017.07-.017h2.03c.025 0 .05.005.071.017.244.165.455.375.622.617a.195.195 0 0 1 .01.07v4.357ZM46.188 21.759h.851v-3.808h3.791v-.817h-3.79v-2.987h3.997v-.822h-4.849v8.434Zm-7.073 0h.85v-3.808h3.787v-.817h-3.787v-2.987h3.998v-.822h-4.848v8.434Zm-4.485-8.434h-1.286l-2.816 8.405v.029h.89l.646-1.948h3.854l.623 1.931v.017h.91l-2.816-8.422-.005-.012Zm-.57.84 1.592 4.825h-3.328l1.578-4.825h.158Zm50.3 3.497L80.537 16.6a.63.63 0 0 1-.415-.61v-.874a.365.365 0 0 1 .052-.17c.22-.334.516-.612.863-.81a.333.333 0 0 1 .17-.035h1.972c.06-.003.118.01.17.04a2.67 2.67 0 0 1 .94 1.052l.01.018.833-.247h.024l-.013-.018a3.603 3.603 0 0 0-.322-.555c-.165-.216-.554-.694-.875-.886a1.544 1.544 0 0 0-.722-.224h-2.08a1.507 1.507 0 0 0-.723.224c-.37.28-.696.612-.97.986a1.24 1.24 0 0 0-.171.693v.863c0 .64.357 1.191.88 1.338l3.832 1.05c.277.07.436.376.436.635v.9a.4.4 0 0 1-.042.17 2.773 2.773 0 0 1-.874.833.32.32 0 0 1-.16.034h-2.218a.416.416 0 0 1-.187-.034c-.341-.23-.63-.53-.846-.88a.555.555 0 0 1-.095-.159v-.018l-.816.23h-.024l.013.024c.085.191.19.374.311.545.159.218.555.686.869.887.224.135.478.213.739.228h2.325c.256-.013.505-.09.722-.228.37-.273.697-.6.97-.97.128-.209.19-.45.178-.694v-.95c-.024-.634-.4-1.173-.935-1.326Zm-12.234 4.097h4.849v-.826h-3.997V17.95h3.787v-.817h-3.787v-2.987h3.997v-.822h-4.849v8.434Zm-3.421-3.979c.265-.218.505-.463.717-.733.144-.217.22-.473.216-.734V15.08a1.328 1.328 0 0 0-.216-.74 5.08 5.08 0 0 0-.717-.748 1.445 1.445 0 0 0-.839-.277H64.07v8.445h.852v-3.71h2.066l2.06 3.699v.011h.972l-2.09-3.71c.28-.004.552-.098.775-.269Zm-3.78-3.634h2.928a.415.415 0 0 1 .23.041c.276.175.507.413.675.694a.542.542 0 0 1 .027.235v1.174a.54.54 0 0 1-.029.228c-.169.272-.4.5-.675.665a.444.444 0 0 1-.229.052h-2.927v-3.09Zm-3.369-.821h-.851v8.434h.851v-8.434Zm-5.336 0h-1.286l-2.818 8.405v.029h.892l.646-1.948h3.857l.628 1.931v.017h.91l-2.824-8.422-.005-.012Zm-.57.84 1.592 4.825h-3.329l1.579-4.825h.158Z"/>
</svg>
