<svg width="256" height="72" viewBox="0 0 256 72" fill="none" xmlns="http://www.w3.org/2000/svg"><path d="M72 0H0v72h72V0Z" class="fill-brand"/><path d="m19.45 18.478 34.83 17.32L19.408 53.52l22.43-17.669L19.45 18.478Z" fill="#050504"/><path d="M96.687 29.982 92.89 17.986H90l5.085 15.497h3.17l5.107-15.497h-2.86l-3.815 11.996ZM137.578 13.84h-2.957l-1.955 2.536h2.471l2.441-2.536ZM139.083 30.89h-6.997v-3.798h6.502v-2.605h-6.502v-3.909h6.997v-2.592h-9.707v15.497h9.707V30.89ZM122.819 33.018a8.084 8.084 0 0 0 1.912-1.814c.274-.442.41-.956.389-1.477v-7.93a2.441 2.441 0 0 0-.409-1.477c-.312-.443-1.29-1.556-1.862-1.89a3.093 3.093 0 0 0-1.579-.444h-7.063v15.5h7.063a3.31 3.31 0 0 0 1.549-.468Zm-5.903-2.128V20.578h4.097a.716.716 0 0 1 .236.023c.465.288.855.681 1.141 1.148.013.042.02.086.02.13v7.805c0 .298-.775.98-1.14 1.186a.552.552 0 0 1-.171.02h-4.183ZM109.457 17.986h-2.71v15.507h2.71V17.986ZM210.713 17.986v10.422l-5.301-10.422h-2.913v15.497h2.707V23.19l5.344 10.292h2.87V17.986h-2.707ZM183.524 33.485l-3.065-6.32c.24-.086.466-.21.668-.367a8.822 8.822 0 0 0 1.397-1.37c.31-.47.472-1.024.464-1.59v-2.275a2.871 2.871 0 0 0-.464-1.58 8.723 8.723 0 0 0-1.397-1.423 3.292 3.292 0 0 0-1.829-.574h-7.253v15.5h2.707v-6.124h2.966l2.87 6.123h2.936Zm-3.246-9.667a.227.227 0 0 1-.033.107c-.203.358-.718.855-.947.855h-4.546v-4.202h4.676c.254.023.668.538.817.832a.398.398 0 0 1 .033.173v2.235ZM196.129 18.343a3.274 3.274 0 0 0-1.6-.464h-3.931a3.24 3.24 0 0 0-1.601.464c-.538.314-1.572 1.424-1.881 1.87-.283.44-.426.955-.409 1.477v8.121c-.016.52.127 1.032.409 1.467.309.447 1.343 1.567 1.881 1.87a3.245 3.245 0 0 0 1.601.475h3.923a3.29 3.29 0 0 0 1.6-.475c.539-.303 1.55-1.423 1.882-1.87.282-.436.425-.947.412-1.467v-8.12a2.59 2.59 0 0 0-.412-1.473c-.332-.451-1.343-1.56-1.874-1.875Zm-.406 11.438a.226.226 0 0 1-.033.107c-.302.44-.685.817-1.128 1.112a.432.432 0 0 1-.129.02h-3.729a.329.329 0 0 1-.129-.02 4.068 4.068 0 0 1-1.138-1.112.264.264 0 0 1-.023-.107v-8.016a.37.37 0 0 1 .023-.128 4.198 4.198 0 0 1 1.138-1.135c.023-.031.129-.031.129-.031h3.721c.045-.002.09.01.129.03.443.305.826.69 1.128 1.136.033.033.033.128.033.128l.008 8.016ZM168.377 17.986h-11.073v2.592h4.183v12.915h2.707V20.578h4.183v-2.592ZM154.393 31.278c.275-.438.416-.948.407-1.467v-8.12a2.675 2.675 0 0 0-.407-1.478c-.335-.446-1.346-1.556-1.894-1.87a3.294 3.294 0 0 0-1.578-.464h-3.936a3.221 3.221 0 0 0-1.603.464c-.556.314-1.572 1.424-1.879 1.875a2.587 2.587 0 0 0-.422 1.478v8.115c-.01.52.137 1.032.422 1.467.299.447 1.333 1.567 1.879 1.87.484.297 1.036.46 1.603.475h3.936a3.29 3.29 0 0 0 1.59-.475c.536-.303 1.547-1.423 1.882-1.87Zm-2.303-1.497a.328.328 0 0 1-.021.107c-.308.44-.698.818-1.148 1.112a.445.445 0 0 1-.129.02h-3.711a.356.356 0 0 1-.127-.02 4.026 4.026 0 0 1-1.132-1.112.194.194 0 0 1-.031-.107v-8.016a.298.298 0 0 1 .031-.128c.3-.449.685-.834 1.132-1.135.031-.031.127-.031.127-.031h3.721c.045-.002.09.01.13.03.446.305.831.69 1.137 1.136.015.04.022.084.021.128v8.016ZM118.679 53.87h1.559v-7.006h6.944V45.36h-6.944v-5.495h7.32v-1.513h-8.879V53.87ZM105.726 53.87h1.557v-7.006h6.936V45.36h-6.936v-5.495h7.322v-1.513h-8.879V53.87ZM97.513 38.353h-2.355L90 53.816v.054h1.63l1.184-3.585h7.058l1.14 3.554v.03h1.666l-5.155-15.493-.01-.023Zm-1.044 1.546 2.915 8.876H93.29l2.89-8.876h.29ZM188.586 46.334l-6.997-1.955a1.16 1.16 0 0 1-.762-1.122v-1.608a.671.671 0 0 1 .097-.313 4.67 4.67 0 0 1 1.579-1.49.613.613 0 0 1 .313-.064h3.611a.556.556 0 0 1 .31.074 4.9 4.9 0 0 1 1.549 1.61c.067.102.125.21.173.324l.02.033 1.524-.454h.043l-.022-.033a6.671 6.671 0 0 0-.59-1.021c-.302-.398-1.016-1.276-1.602-1.63a2.82 2.82 0 0 0-1.324-.411h-3.809a2.747 2.747 0 0 0-1.323.41 8.846 8.846 0 0 0-1.778 1.815 2.29 2.29 0 0 0-.313 1.275v1.587c0 1.176.656 2.192 1.613 2.462l7.018 1.931c.507.13.797.692.797 1.169v1.656a.742.742 0 0 1-.076.314 5.095 5.095 0 0 1-1.6 1.53.585.585 0 0 1-.292.064h-4.064a.76.76 0 0 1-.343-.064 5.357 5.357 0 0 1-1.549-1.62 1.028 1.028 0 0 1-.173-.29v-.034l-1.496.424h-.043l.023.043c.157.352.349.688.571 1.003.29.4 1.016 1.263 1.59 1.633.411.248.876.392 1.354.418h4.259a2.712 2.712 0 0 0 1.321-.418 8.396 8.396 0 0 0 1.778-1.786c.233-.383.346-.828.325-1.276v-1.748c-.043-1.165-.732-2.158-1.712-2.438ZM166.183 53.87h8.879v-1.52h-7.32v-5.486h6.936V45.36h-6.936v-5.495h7.32v-1.513h-8.879V53.87ZM159.917 46.55c.485-.4.925-.853 1.313-1.35.264-.399.403-.87.396-1.349v-2.27a2.447 2.447 0 0 0-.396-1.36 9.354 9.354 0 0 0-1.313-1.378 2.637 2.637 0 0 0-1.536-.51h-6.952V53.87h1.56v-6.825h3.784l3.774 6.805v.02h1.778l-3.828-6.825a2.388 2.388 0 0 0 1.42-.495Zm-6.923-6.686h5.364a.76.76 0 0 1 .419.076c.506.322.93.759 1.237 1.276.048.139.065.287.05.433v2.159a.987.987 0 0 1-.053.42c-.31.5-.734.92-1.237 1.223a.808.808 0 0 1-.419.097h-5.361v-5.684ZM146.825 38.353h-1.56V53.87h1.56V38.353ZM137.052 38.353h-2.355l-5.16 15.463v.054h1.633l1.183-3.585h7.063l1.151 3.554v.03h1.666l-5.171-15.493-.01-.023Zm-1.044 1.546 2.916 8.876h-6.096l2.89-8.876h.29Z" fill="currentColor"/></svg>