<svg fill="none" height="36" viewBox="0 0 130 36" width="130" xmlns="http://www.w3.org/2000/svg">
    <g class="fill-logo1">
        <path d="m8.15121 35.8107-.80522-2.3939h-4.63547l-.8161 2.3939h-1.556041l3.721431-10.6964h1.92601l3.73231 10.6964zm-3.12295-9.1948-1.84984 5.4407h3.71055z"/>
        <path d="m14.408 26.333c-.0762 0-.2177 0-.2721.0326-.1958.1088-.7181.555-.729.7835v.1632.8161h2.1545v1.3058h-2.1545v6.3873h-1.3928v-6.3873h-1.2623v-1.3058h1.2623v-.8596c0-.37.0761-.7291.2829-1.0338.1414-.1958.5876-.6637.8596-.8596.3482-.2176.8052-.3482 1.2405-.3482h1.4472v1.3058z"/>
        <path d="m21.2197 26.3329c-.0761 0-.2176 0-.272.0327-.1959.1088-.7182.5549-.729.7834v.1633.8161h2.1545v1.3057h-2.1545v6.3874h-1.3929v-6.3874h-1.2622v-1.3057h1.2622v-.8597c0-.3699.0762-.729.283-1.0337.1414-.1959.5876-.6638.8596-.8596.3373-.2285.8052-.3591 1.2296-.3591h1.4472v1.3058h-1.4255z"/>
        <path d="m29.6636 35.8106-.087-.6094c-.3591.3156-.9032.7073-1.3928.7073h-1.5669c-.4244 0-.8923-.1305-1.2079-.3591-.272-.1958-.6964-.642-.8378-.8378-.2177-.2829-.3047-.642-.3047-1.012v-.3373c0-.37.087-.7291.3047-1.012.1414-.1958.5658-.642.8378-.8379.3156-.2285.7835-.3373 1.2079-.3373h2.8835v-.8705c0-.0544 0-.1414-.0544-.2285-.1414-.2285-.4788-.5332-.729-.6638-.0762-.0326-.1088-.0544-.2177-.0544h-1.6757c-.3156 0-.642.3809-.8161.6094-.0871.1088-.2285.3156-.2285.3156l-1.3058-.3918c.2177-.5114.8053-1.2296 1.1752-1.5016.3373-.2285.8052-.3373 1.2296-.3373h1.6431c.4244 0 .914.1305 1.2296.3591.272.1958.7182.642.8596.8378.2177.3047.2829.6747.2829 1.0338v4.1349l.1415 1.4037h-1.3711zm-.1632-3.3841h-2.8727c-.1088 0-.1632.0217-.2176.0326-.2503.1415-.6093.4788-.729.7291-.0218.0326-.0327.0653-.0327.1741v.3047c0 .1088.0218.1414.0327.1741.1197.2502.4787.5549.729.6964.0544.0217.1088.0544.2176.0544h1.5017c.0761 0 .1197-.0218.1632-.0327.3047-.1414.9576-.5331 1.2078-.8922z"/>
        <path d="m33.1566 26.5397v-1.5887h1.5996v1.5887zm.1088 9.2709v-7.6822h1.3929v7.6822z"/>
        <path d="m41.8618 30.2829c-.1959-.37-.6203-.9467-1.0555-.9467h-.9576c-.3699 0-1.2296.6964-1.4037.9685v5.5059h-1.3928v-6.2568l-.1306-1.4254h1.3711l.087.6202c.3591-.3373.8923-.7181 1.4037-.7181h.9794c.4243 0 .8922.1088 1.2078.3373.4135.2829.9793 1.0011 1.1969 1.5125z"/>
        <path d="m50.4363 35.5495c-.3156.2285-.7835.3591-1.2078.3591h-1.7628c-.4244 0-.9141-.1306-1.2296-.3591-.272-.1959-.7182-.6638-.8596-.8596-.2177-.283-.3047-.642-.3047-1.0229v-3.4059c0-.3699.087-.729.3047-1.0119.1414-.1959.5876-.6638.8596-.8597.3264-.2285.8052-.359 1.2296-.359h1.7845c.4244 0 .9141.1305 1.2296.359.2721.1959.7182.6638.8597.8597.2176.3046.2829.6637.2829 1.0119v2.296h-5.1578v1.0664c0 .1088.0218.1632.0326.1959.1089.1958.4244.5658.7291.7181.0762.0327.1415.0544.2285.0544h1.8063c.1088 0 .1415-.0217.2176-.0544.2503-.1306.6094-.4788.7291-.7181l.1088-.1959 1.3058.4244c-.2394.5549-.74 1.1969-1.1861 1.5016zm-.2067-5.2448c0-.0327 0-.1633-.0218-.1959-.1306-.2503-.5223-.5876-.7726-.7073-.0762-.0326-.1088-.0544-.2176-.0544h-1.7628c-.0544 0-.1632.0218-.2176.0544-.3591.1959-.6203.4461-.7508.7073-.0218.0218-.0327.0871-.0327.1959v1.0011h3.765v-1.0011z"/>
        <path d="m59.1957 30.3264c-.2176-.3917-.6746-.9793-1.0554-.9793h-1.9043c-.087 0-.1741.0218-.2176.0327-.3156.1632-.4679.3373-.642.6093-.0327.0544-.0544.1197-.0544.2285v.5115c0 .1958.1741.4134.4679.4243l2.9597.2177c.9576.0761 1.7628.8052 1.7628 1.7519v.6093c0 .37-.1088.7073-.3156 1.012-.1414.2176-.5223.6202-.7834.8052-.3373.2285-.7835.3591-1.2079.3591h-2.1436c-.4244 0-.8705-.1306-1.2078-.3591-.4135-.2829-.9249-.9249-1.2079-1.4799l1.3385-.4461c.1741.3591.5875.8161.8378.9467.0327.0217.1197.0326.2177.0326h2.1545c.3699 0 .7181-.4135.8922-.6746.0327-.0544.0544-.1306.0544-.2285v-.5876c0-.1959-.1958-.4135-.4787-.4244l-2.9598-.1959c-.9684-.0653-1.7519-.8052-1.7519-1.7519v-.5114c0-.3808.0871-.7182.3047-1.0228.1415-.2177.5223-.6203.7835-.8053.3373-.2285.7834-.359 1.2078-.359h1.8498c.4244 0 .8705.1305 1.2079.359.4243.3047.9249.9141 1.2296 1.4799z"/>
    </g>
    <g class="fill-logo2">
        <path d="m9.03257 20.5331h-3.34059l-5.331873-16.21325h3.035913l3.98258 12.55715 4.0152-12.55715h3.0142z"/>
        <path d="m17.8683 20.5331v-16.21325h2.8509v16.21325z"/>
        <path d="m36.3122 18.1501c-.3264.4897-1.4146 1.5778-2.0022 1.8934-.4352.2393-1.0554.4896-1.6322.4896h-7.432v-16.21325h7.432c.5115 0 1.197.16323 1.654.45702.5985.34821 1.6322 1.51252 1.9478 1.98041.3482.48967.4352 1.03374.4352 1.54516v8.30246c0 .4897-.0761 1.0555-.4026 1.5452zm-3.8193-.3264s.1632 0 .1849-.0327c.3809-.2176 1.197-.9249 1.197-1.2514v-8.16099s0-.07617-.0327-.13058c-.3264-.54406-.8705-1.03373-1.1969-1.19695-.0218-.03264-.185-.03264-.2394-.03264h-4.309v10.79436h4.3961z"/>
        <path d="m41.2415 20.5331v-16.21325h10.1958v2.70947h-7.3449v4.09138h6.8335v2.7095h-6.8335v3.9826h7.3449v2.7094h-10.1958z"/>
        <path d="m67.52 18.2263c-.3482.457-1.4145 1.6213-1.9804 1.9478-.4352.272-1.1099.4896-1.6866.4896h-4.124c-.5985 0-1.2514-.2176-1.6866-.4896-.5659-.3265-1.654-1.4908-1.9805-1.9478-.3155-.4897-.4243-1.0337-.4243-1.5452v-8.48745c0-.51143.1088-1.0555.4352-1.54516.3265-.45702 1.4146-1.62133 1.9804-1.94777.4353-.27203 1.0882-.48966 1.6867-.48966h4.124c.5658 0 1.2514.21763 1.6866.48966.5658.32644 1.6213 1.49075 1.9804 1.94777.3265.48966.4353 1.03373.4353 1.54516v8.48745c-.0109.5115-.1197 1.0555-.4462 1.5452zm-9.0315-1.5669s0 .0761.0218.1088c.3264.4896.8922 1.0011 1.1969 1.1643.0544.0217.1088.0217.1306.0217h3.9064s.0762 0 .1415-.0217c.2938-.1632.8705-.6747 1.1969-1.1643.0327-.0544.0327-.1088.0327-.1088v-8.3787s0-.10882-.0327-.13058c-.3264-.48966-.8923-1.03373-1.1969-1.19695-.0544-.02176-.1089-.02176-.1415-.02176h-3.9064s-.1088 0-.1306.02176c-.2938.16322-.8705.70729-1.1969 1.19695-.0218.05441-.0218.13058-.0218.13058z"/>
        <path d="m77.8246 7.02932v13.50378h-2.8509v-13.50378h-4.3961v-2.70947h11.6322v2.70947z"/>
        <path d="m96.8345 12.1c-.2394.3482-1.0882 1.1644-1.469 1.4364-.2176.1632-.457.2938-.7073.3808l3.2318 6.6159h-3.0903l-3.0142-6.3982h-3.1229v6.3982h-2.851v-16.21325h7.617c.6529 0 1.3819.21763 1.926.59848.3809.27204 1.2187 1.14255 1.469 1.49075.3265.48966.4897 1.08814.4897 1.65397v2.38305c.0109.5985-.1524 1.1643-.4788 1.6539zm-2.3613-4.01519s0-.14145-.0326-.18498c-.1632-.2938-.5985-.83787-.8705-.87051h-4.9075v4.39608h4.7769c.2394 0 .7835-.5114 1.0011-.8923 0 0 .0326-.0544.0326-.1088z"/>
        <path d="m113.418 18.2263c-.348.457-1.415 1.6213-1.981 1.9478-.435.272-1.11.4896-1.686.4896h-4.124c-.599 0-1.252-.2176-1.687-.4896-.566-.3265-1.654-1.4908-1.98-1.9478-.327-.4897-.436-1.0337-.436-1.5452v-8.48745c0-.51143.109-1.0555.436-1.54516.326-.45702 1.414-1.62133 1.98-1.94777.435-.27203 1.088-.48966 1.687-.48966h4.124c.566 0 1.251.21763 1.686.48966.566.32644 1.622 1.49075 1.981 1.94777.326.48966.435 1.03373.435 1.54516v8.48745c0 .5115-.109 1.0555-.435 1.5452zm-9.032-1.5669s0 .0761.033.1088c.326.4896.892 1.0011 1.197 1.1643.054.0217.109.0217.141.0217h3.907s.087 0 .141-.0217c.294-.1632.871-.6747 1.197-1.1643.033-.0544.033-.1088.033-.1088v-8.3787s0-.10882-.033-.13058c-.326-.48966-.892-1.03373-1.197-1.19695-.054-.02176-.109-.02176-.141-.02176h-3.907s-.109 0-.141.02176c-.294.16322-.871.70729-1.197 1.19695-.033.05441-.033.13058-.033.13058z"/>
        <path d="m126.541 20.5331-5.615-10.76167v10.76167h-2.851v-16.21325h3.068l5.561 10.90315v-10.90315h2.851v16.21325z"/>
        <path d="m50.1968 0h-3.1012l-2.0565 2.65506h2.5897z"/>
    </g>
</svg>