<svg width="213" height="40" viewBox="0 0 213 40" fill="none" xmlns="http://www.w3.org/2000/svg" class="color-highlight-on-reversed">
<path d="M110.515 39.4068H116.913V9.74575H110.515V39.4068ZM110.515 6.51331H116.925V0.108948H110.502L110.515 6.51331Z" fill="current-color"/>
<path d="M147.567 39.4068H153.965V9.74575H147.567V39.4068ZM147.567 6.51331H153.971V0.108948H147.561L147.567 6.51331Z" fill="currentColor"/>
<path d="M129.286 0.127136H122.815V39.3826H129.286V0.127136Z" fill="currentColor"/>
<path d="M35.3754 0.127136H28.9044V39.3826H35.3754V0.127136Z" fill="currentColor"/>
<path d="M141.659 0.127136H135.188V39.3826H141.659V0.127136Z" fill="currentColor"/>
<path d="M165.303 31.6102C165.866 32.4506 166.627 33.1405 167.518 33.6199C167.65 33.6852 167.791 33.7301 167.936 33.753H174.939C175.63 33.753 177.27 32.4455 177.682 31.937C177.762 31.852 177.833 31.7586 177.893 31.6586L183.505 33.3656C182.815 35.0242 180.079 37.5061 178.971 38.2688C177.575 39.1506 175.948 39.5973 174.298 39.5521H168.335C166.545 39.5713 164.788 39.0663 163.281 38.0993C162.037 37.1092 160.921 35.9685 159.958 34.7034C159.093 33.4636 158.656 31.9764 158.711 30.4661V18.6925C158.657 17.1823 159.094 15.6954 159.958 14.4552C160.816 13.2624 161.835 12.1931 162.984 11.2772C164.58 10.2379 166.432 9.65971 168.335 9.60654H174.661C176.438 9.66921 178.164 10.22 179.649 11.1985C181.273 12.3826 182.59 13.9396 183.487 15.7385L177.561 17.5545C177.442 17.3872 177.31 17.2293 177.167 17.0823C176.755 16.5981 175.545 15.6235 174.849 15.6235H167.936C167.79 15.6476 167.649 15.6946 167.518 15.7627C166.627 16.2398 165.867 16.9277 165.303 17.7663C165.208 17.9754 165.161 18.2027 165.163 18.4322V31.1925C165.172 31.3417 165.22 31.4859 165.303 31.6102Z" fill="currentColor"/>
<path d="M6.71915 31.6102C7.28289 32.4506 8.04344 33.1405 8.93464 33.6199C9.06629 33.6852 9.20714 33.7301 9.35232 33.753H16.3438C17.04 33.753 18.6744 32.4455 19.092 31.937C19.1685 31.8503 19.2374 31.7572 19.2978 31.6586L24.9153 33.3656C24.2131 35.0484 21.4831 37.5303 20.3753 38.293C18.9775 39.1756 17.3487 39.6223 15.6961 39.5763H9.73367C7.94633 39.599 6.19141 39.0982 4.68525 38.1356C3.43795 37.1472 2.31946 36.0063 1.35595 34.7397C0.495872 33.4982 0.0605539 32.0118 0.115029 30.5024V18.6925C0.0614255 17.1833 0.496665 15.6971 1.35595 14.4552C2.21346 13.2614 3.23199 12.1919 4.38258 11.2772C5.97556 10.2369 7.82575 9.65862 9.72762 9.60654H16.0654C17.8406 9.67032 19.564 10.2211 21.0472 11.1985C22.6787 12.3817 24.003 13.9384 24.9092 15.7385L18.977 17.5545C18.8594 17.388 18.7299 17.2302 18.5896 17.0823C18.1719 16.5981 16.9613 15.6235 16.2712 15.6235H9.35232C9.20664 15.6476 9.06568 15.6946 8.93464 15.7627C8.04371 16.2398 7.28308 16.9277 6.71915 17.7663C6.62456 17.9754 6.57704 18.2027 6.57992 18.4322V31.1925C6.58814 31.3417 6.63622 31.4859 6.71915 31.6102Z" fill="currentColor"/>
<path d="M193.335 31.477C193.335 32.0823 194.849 33.1416 195.72 33.6441C195.859 33.6988 196.007 33.7236 196.156 33.7167H202.815C202.966 33.7001 203.112 33.6528 203.245 33.5775C203.898 33.2143 205.563 32.0581 205.636 31.477V18.3111C205.637 18.1627 205.612 18.0153 205.563 17.8753C204.935 16.9474 204.12 16.16 203.172 15.563C203.062 15.5051 202.938 15.4798 202.815 15.4903H196.156C196.031 15.479 195.905 15.5042 195.793 15.563C194.829 16.1374 194.012 16.9292 193.408 17.8753C193.359 18.0153 193.334 18.1627 193.335 18.3111V31.477ZM210.89 34.8366C209.943 36.067 208.847 37.1751 207.627 38.1356C206.151 39.0837 204.43 39.5783 202.676 39.5581H196.295C194.564 39.578 192.866 39.0828 191.417 38.1356C190.177 37.1701 189.063 36.0537 188.099 34.8123C187.274 33.599 186.868 32.1494 186.943 30.684V18.5048C186.868 17.0376 187.274 15.5858 188.099 14.3705C189.067 13.1523 190.181 12.0584 191.417 11.1138C192.861 10.149 194.558 9.63108 196.295 9.62469H202.664C204.428 9.62834 206.152 10.1458 207.627 11.1138C208.84 12.0619 209.932 13.1557 210.878 14.3705C211.702 15.5862 212.106 17.0381 212.028 18.5048V30.7022C212.105 32.1669 211.701 33.6166 210.878 34.8305" fill="currentColor"/>
<path d="M57.8935 39.4007V38.0266C56.6829 38.9104 55.6296 39.6731 54.0678 39.6731H49.31C47.5578 39.6932 45.8382 39.1986 44.3645 38.2506C43.1443 37.2833 42.0502 36.1668 41.1078 34.9274C40.2687 33.716 39.844 32.2656 39.8971 30.793V10.115H46.3439V31.3015C46.3375 31.4616 46.36 31.6215 46.4105 31.7736C47.0017 32.6045 47.7631 33.2999 48.6441 33.8136C48.7636 33.8752 48.8972 33.9044 49.0315 33.8983H53.8741C54.5521 33.8983 56.9916 32.7785 57.8753 31.8281V10.115H64.3584V39.4007H57.8935Z" fill="currentColor"/>
<path d="M93.6986 35.109C92.757 36.3472 91.6651 37.4635 90.448 38.4322C89.0067 39.4089 87.3041 39.9279 85.563 39.9213H80.5449C78.9226 39.9213 77.7483 39.1162 76.5255 38.1659V39.5823H70.0969V0.308716H76.5739V11.5012C77.7181 10.5903 79.1105 10.046 80.5691 9.93947H85.5872C87.3203 9.92058 89.0202 10.4156 90.4722 11.362C91.6897 12.3303 92.7817 13.4466 93.7228 14.6852C94.5589 15.923 94.9826 17.3933 94.9335 18.8862V30.8717C94.9737 32.3783 94.542 33.8598 93.6986 35.109ZM88.6381 18.9952C88.6392 18.8788 88.6166 18.7634 88.5715 18.6562C88.0119 17.7694 87.2739 17.0087 86.4044 16.4225C86.3378 16.3499 86.132 16.3499 85.9262 16.3499H81.247C80.4359 16.3499 77.4759 17.5605 76.5497 19.3765V30.9988C77.4274 32.0157 80.5085 33.8983 81.247 33.8983H85.9928C86.1381 33.8847 86.2787 33.8392 86.4044 33.7651C87.2715 33.2037 88.01 32.4652 88.5715 31.5981C88.6214 31.4668 88.644 31.3267 88.6381 31.1864V18.9952Z" fill="currentColor"/>
</svg>
