<svg fill="none" height="40" viewBox="0 0 210 40" width="210" xmlns="http://www.w3.org/2000/svg">
    <path class="fill-brand" d="m40 0h-40v40h40z"/>
    <path fill="#000" d="m10.8052 10.2654 19.3504 9.6222-19.3736 9.8456 12.4611-9.8159z"/>
    <g class="fill-neutral">
        <path d="m61.6003 29.3652h-3.8838l-6.2305-18.9021h3.5402l4.6496 14.6348 4.6781-14.6348h3.5066z"/>
        <path d="m71.9019 29.3652v-18.9021h3.3193v18.9021z"/>
        <path d="m93.3975 26.5832c-.6524.8613-1.4428 1.6089-2.339 2.2124-.5775.3395-1.2283.5349-1.8973.5696h-8.6613v-18.9021h8.6613c.6785.0057 1.3434.1911 1.927.5373.8671.6541 1.6342 1.4312 2.277 2.3067.3583.5299.5354 1.1615.505 1.8005v9.6738c.0229.634-.1415 1.2607-.4727 1.8018zm-4.4572-.3797s.1899 0 .2209-.031c.443-.2583 1.391-1.0746 1.391-1.4543v-9.5138c0-.054-.0105-.1075-.031-.1575-.3445-.5696-.8218-1.0473-1.391-1.3924-.0921-.0276-.1884-.0381-.2842-.031h-5.0255v12.5813z"/>
        <path d="m99.1462 29.3652v-18.9021h11.8828v3.1604h-8.567v4.7789h7.964v3.1604h-7.966v4.6497h8.567v3.1618z"/>
        <path d="m129.775 26.6787c-.665.8578-1.44 1.6231-2.307 2.2758-.595.3534-1.269.549-1.961.5683h-4.804c-.692-.0146-1.368-.2106-1.961-.5683-.874-.6436-1.651-1.4101-2.307-2.2758-.346-.5383-.522-1.1683-.506-1.8082v-9.8934c-.015-.6373.161-1.2645.506-1.8005.655-.8659 1.432-1.6324 2.307-2.2757.592-.3582 1.269-.5546 1.961-.5696h4.804c.692.0197 1.367.2158 1.961.5696.867.6524 1.643 1.4177 2.307 2.2757.344.5361.52 1.1633.505 1.8005v9.8934c.016.6398-.159 1.2698-.505 1.8082zm-10.525-1.834s0 .0943.031.1292c.371.5386.843 1.0001 1.391 1.3587.049.0225.103.0331.157.031h4.552c.054-.0002.107-.0107.157-.031.548-.3583 1.02-.8198 1.391-1.3587.02-.0404.03-.0844.031-.1292v-9.7669s0-.1291-.031-.1575c-.371-.548-.843-1.0204-1.391-1.3924-.049-.0222-.103-.0328-.157-.031h-4.552s-.129 0-.157.031c-.548.3722-1.02.8447-1.391 1.3924-.021.0501-.031.1035-.031.1575z"/>
        <path d="m141.784 13.6235v15.7417h-3.32v-15.7417h-5.119v-3.1604h13.561v3.1604z"/>
        <path d="m163.951 19.5351c-.504.6217-1.076 1.1849-1.706 1.679-.249.1897-.527.3388-.823.4417l3.761 7.7094h-3.603l-3.508-7.4549h-3.635v7.4601h-3.319v-18.9073h8.882c.8.0072 1.581.2488 2.245.6948.631.5149 1.203 1.098 1.706 1.7385.373.5737.571 1.2438.57 1.9283v2.7808c.006.6855-.192 1.3574-.57 1.9296zm-2.748-4.6781c.001-.0749-.01-.1495-.033-.2209-.188-.3474-.695-.9803-1.01-1.0126h-5.721v5.1211h5.562c.285 0 .917-.6005 1.169-1.0423.02-.0402.031-.0843.033-.1291z"/>
        <path d="m183.274 26.6787c-.664.858-1.44 1.6234-2.307 2.2758-.594.3534-1.269.549-1.96.5683h-4.805c-.692-.0146-1.368-.2106-1.96-.5683-.875-.6433-1.652-1.4099-2.307-2.2758-.346-.5383-.523-1.1683-.506-1.8082v-9.8934c-.016-.6373.161-1.2645.506-1.8005.655-.8661 1.432-1.6327 2.307-2.2757.592-.3582 1.268-.5546 1.96-.5696h4.805c.691.0197 1.366.2158 1.96.5696.868.6521 1.643 1.4175 2.307 2.2757.345.536.522 1.1632.506 1.8005v9.8934c.017.6399-.16 1.2699-.506 1.8082zm-10.525-1.834s0 .0943.031.1292c.371.5385.843 1 1.39 1.3587.05.0227.104.0333.159.031h4.551c.054-.0001.108-.0106.158-.031.547-.3583 1.02-.8198 1.391-1.3587.019-.0404.03-.0844.031-.1292v-9.7669s0-.1291-.031-.1575c-.372-.548-.844-1.0204-1.391-1.3924-.05-.0223-.104-.0329-.158-.031h-4.551s-.129 0-.159.031c-.547.3723-1.019.8447-1.39 1.3924-.02.05-.031.1035-.031.1575z"/>
        <path d="m198.582 29.3652-6.543-12.5489v12.5489h-3.32v-18.9021h3.573l6.48 12.7065v-12.7065h3.318v18.9021z"/>
        <path d="m109.587 5.42975h-3.624l-2.396 3.09978h3.021z"/>
    </g>
</svg>