<svg fill="none" height=72 width='256'  viewBox="0 0 256 72" xmlns="http://www.w3.org/2000/svg">
    <path class="fill-brand" d="m72 0h-72v72h72z"/>
    <path fill="#000" d="m19.4496 18.4777 34.8306 17.3199-34.8725 17.7222 22.43-17.6687z"/>
    <g class="fill-neutral">
        <path d="m100.142 43.4922h-3.0982l-4.9704-15.1217h2.8242l3.7093 11.7078 3.7321-11.7078h2.797z"/>
        <path d="m108.36 43.4922v-15.1217h2.648v15.1217z"/>
        <path d="m125.509 41.2665c-.521.6891-1.151 1.2872-1.866 1.77-.461.2716-.98.4279-1.514.4557h-6.91v-15.1217h6.91c.541.0046 1.072.1529 1.537.4298.692.5233 1.304 1.145 1.817 1.8454.286.4239.427.9292.403 1.4403v7.7391c.018.5072-.113 1.0086-.377 1.4414zm-3.556-.3037s.151 0 .176-.0248c.354-.2067 1.11-.8597 1.11-1.1635v-7.611c0-.0432-.009-.086-.025-.126-.275-.4557-.656-.8378-1.11-1.1139-.073-.0221-.15-.0305-.226-.0248h-4.009v10.065z"/>
        <path d="m130.095 43.4922v-15.1217h9.479v2.5283h-6.834v3.8231h6.353v2.5284h-6.354v3.7197h6.834v2.5294z"/>
        <path d="m154.529 41.343c-.53.6862-1.149 1.2984-1.84 1.8206-.475.2827-1.013.4392-1.564.4546h-3.833c-.552-.0117-1.092-.1684-1.565-.4546-.697-.5149-1.317-1.1281-1.84-1.8206-.276-.4307-.417-.9347-.404-1.4466v-7.9147c-.012-.5099.129-1.0116.404-1.4404.523-.6927 1.143-1.3059 1.84-1.8206.473-.2865 1.012-.4436 1.565-.4557h3.833c.551.0158 1.09.1727 1.564.4557.691.5219 1.31 1.1342 1.84 1.8206.275.4289.415.9306.403 1.4404v7.9147c.013.5118-.127 1.0158-.403 1.4466zm-8.397-1.4672s0 .0754.025.1033c.296.4309.673.8001 1.11 1.087.039.018.082.0265.126.0248h3.631c.043-.0002.085-.0086.125-.0248.437-.2866.814-.6558 1.11-1.087.015-.0323.024-.0675.025-.1033v-7.8135s0-.1034-.025-.1261c-.296-.4383-.673-.8163-1.11-1.1138-.039-.0178-.082-.0263-.125-.0248h-3.631s-.103 0-.126.0248c-.437.2977-.813.6757-1.11 1.1138-.016.0401-.024.0829-.025.1261z"/>
        <path d="m164.109 30.8988v12.5934h-2.648v-12.5934h-4.084v-2.5283h10.819v2.5283z"/>
        <path d="m181.793 35.6281c-.402.4973-.858.9479-1.361 1.3432-.199.1517-.42.271-.656.3534l3 6.1675h-2.874l-2.799-5.964h-2.899v5.9681h-2.648v-15.1258h7.085c.639.0057 1.261.199 1.791.5558.504.412.96.8784 1.361 1.3908.298.459.456.9951.455 1.5427v2.2246c.005.5484-.153 1.0859-.455 1.5437zm-2.192-3.7425c.001-.0599-.008-.1196-.026-.1767-.15-.2779-.554-.7842-.806-.8101h-4.564v4.0969h4.438c.226 0 .731-.4805.932-.8338.016-.0322.025-.0675.026-.1034z"/>
        <path d="m197.209 41.343c-.53.6864-1.149 1.2987-1.841 1.8206-.474.2827-1.012.4392-1.564.4546h-3.833c-.552-.0117-1.091-.1684-1.564-.4546-.698-.5147-1.317-1.1279-1.84-1.8206-.276-.4307-.417-.9347-.404-1.4466v-7.9147c-.012-.5099.129-1.0116.404-1.4404.522-.6929 1.142-1.3062 1.84-1.8206.473-.2865 1.012-.4436 1.564-.4557h3.833c.552.0158 1.09.1727 1.564.4557.692.5217 1.311 1.134 1.841 1.8206.275.4288.416.9305.403 1.4404v7.9147c.013.5119-.127 1.0159-.403 1.4466zm-8.397-1.4672s0 .0754.025.1033c.296.4309.672.8 1.109 1.087.039.0181.083.0266.126.0248h3.631c.043-.0001.086-.0085.126-.0248.437-.2866.814-.6558 1.11-1.087.015-.0323.024-.0675.024-.1033v-7.8135s0-.1034-.024-.1261c-.297-.4383-.673-.8163-1.11-1.1138-.039-.0179-.082-.0264-.126-.0248h-3.631s-.103 0-.126.0248c-.437.2978-.813.6757-1.109 1.1138-.016.04-.025.0828-.025.1261z"/>
        <path d="m209.42 43.4922-5.219-10.0392v10.0392h-2.648v-15.1217h2.85l5.169 10.1651v-10.1651h2.647v15.1217z"/>
        <path d="m138.424 24.3438h-2.891l-1.911 2.4798h2.41z"/>
    </g>
</svg>