<svg width="181" height="40" fill="none" xmlns="http://www.w3.org/2000/svg"><path d="M40 0H0v40h40V0Z" class="fill-brand"/><path d="m10.805 10.265 19.35 9.623-19.373 9.845 12.461-9.816-12.438-9.652Z" fill="#050504"/><path d="M57.032 14.624 53.577 3.756h-2.63l4.627 14.039h2.884l4.648-14.04h-2.602l-3.472 10.869ZM94.178 0h-2.69l-1.78 2.297h2.249L94.177 0ZM95.548 15.447h-6.367v-3.442h5.917v-2.36H89.18v-3.54h6.367v-2.35h-8.834v14.04h8.834v-2.348ZM80.747 17.374a7.362 7.362 0 0 0 1.74-1.643c.25-.4.373-.867.354-1.338V7.209a2.205 2.205 0 0 0-.372-1.338c-.285-.402-1.174-1.41-1.695-1.713-.434-.26-.93-.4-1.437-.402h-6.428v14.041h6.428a3.02 3.02 0 0 0 1.41-.423Zm-5.372-1.927V6.104h3.728a.657.657 0 0 1 .215.021c.423.26.778.617 1.038 1.04a.403.403 0 0 1 .019.118v7.07c0 .27-.705.888-1.038 1.075a.497.497 0 0 1-.155.019h-3.807ZM68.587 3.756H66.12v14.048h2.466V3.756ZM160.735 3.756v9.442l-4.824-9.442h-2.651v14.039h2.464V8.47l4.863 9.324h2.612V3.755h-2.464ZM135.992 17.797l-2.789-5.725c.218-.078.424-.19.607-.333a8.008 8.008 0 0 0 1.272-1.241c.282-.426.43-.928.423-1.44V6.996a2.596 2.596 0 0 0-.423-1.43 7.89 7.89 0 0 0-1.272-1.29 3.004 3.004 0 0 0-1.664-.52h-6.601v14.041h2.464V12.25h2.7l2.611 5.547h2.672Zm-2.954-8.757a.21.21 0 0 1-.03.097c-.185.323-.654.774-.862.774h-4.137V6.104h4.255c.231.021.608.488.744.754.022.05.032.103.03.157V9.04ZM147.463 4.08a2.986 2.986 0 0 0-1.456-.421h-3.578a2.957 2.957 0 0 0-1.456.42c-.49.285-1.431 1.29-1.712 1.695a2.324 2.324 0 0 0-.373 1.338v7.357c-.014.47.116.934.373 1.33.281.404 1.222 1.418 1.712 1.693.44.268.942.416 1.456.43H146a3.007 3.007 0 0 0 1.457-.43c.49-.275 1.409-1.29 1.712-1.694.256-.395.387-.858.375-1.329V7.112a2.342 2.342 0 0 0-.375-1.334c-.303-.409-1.222-1.414-1.706-1.698Zm-.369 10.361a.208.208 0 0 1-.03.097c-.275.398-.624.74-1.027 1.008a.4.4 0 0 1-.118.019h-3.393a.3.3 0 0 1-.117-.019 3.695 3.695 0 0 1-1.036-1.008.232.232 0 0 1-.021-.097V7.18a.378.378 0 0 1 .021-.115 3.81 3.81 0 0 1 1.036-1.029c.02-.028.117-.028.117-.028h3.387a.228.228 0 0 1 .117.028c.403.276.751.625 1.027 1.029.03.03.03.115.03.115l.007 7.262ZM122.207 3.756H112.13v2.348h3.807v11.7h2.464v-11.7h3.806V3.756ZM109.481 15.798c.25-.397.379-.86.37-1.329V7.112a2.415 2.415 0 0 0-.37-1.338c-.305-.405-1.225-1.41-1.724-1.694a3.003 3.003 0 0 0-1.435-.421h-3.583a2.937 2.937 0 0 0-1.458.42c-.507.285-1.431 1.29-1.71 1.7-.261.396-.395.863-.385 1.338v7.352c-.009.472.125.935.384 1.33.273.404 1.214 1.418 1.711 1.693.44.269.943.417 1.458.43h3.583a3.005 3.005 0 0 0 1.447-.43c.487-.275 1.407-1.29 1.712-1.694Zm-2.096-1.357a.293.293 0 0 1-.019.097c-.28.4-.635.742-1.044 1.008a.415.415 0 0 1-.118.019h-3.377a.33.33 0 0 1-.116-.019 3.671 3.671 0 0 1-1.031-1.008.175.175 0 0 1-.027-.097V7.18c0-.04.01-.08.027-.115a3.785 3.785 0 0 1 1.031-1.029c.028-.028.116-.028.116-.028h3.386a.231.231 0 0 1 .118.028c.406.276.757.624 1.035 1.029.013.037.02.076.019.115v7.262ZM76.98 36.265h1.418v-6.347h6.32v-1.361h-6.32v-4.98h6.662v-1.37h-8.08v14.058ZM65.191 36.265h1.417v-6.347h6.312v-1.361h-6.312v-4.98h6.664v-1.37h-8.08v14.058ZM57.717 22.207h-2.143l-4.694 14.01v.048h1.483l1.078-3.248h6.423l1.038 3.22v.028h1.516l-4.692-14.037-.01-.02Zm-.95 1.4 2.653 8.042h-5.547l2.63-8.041h.264ZM140.599 29.437l-6.368-1.77a1.048 1.048 0 0 1-.693-1.017v-1.456a.609.609 0 0 1 .087-.285 4.245 4.245 0 0 1 1.438-1.35.558.558 0 0 1 .284-.057h3.287a.504.504 0 0 1 .282.067c.576.37 1.059.87 1.41 1.458.061.093.114.191.157.294l.019.03 1.386-.412h.04l-.021-.03a6.008 6.008 0 0 0-.536-.924c-.275-.36-.925-1.156-1.459-1.477a2.57 2.57 0 0 0-1.204-.372h-3.467a2.51 2.51 0 0 0-1.204.372 8.015 8.015 0 0 0-1.618 1.643c-.206.35-.305.751-.284 1.156v1.438c0 1.065.596 1.985 1.467 2.23l6.387 1.75c.462.118.725.626.725 1.058v1.5a.668.668 0 0 1-.069.285 4.628 4.628 0 0 1-1.456 1.386.535.535 0 0 1-.266.058h-3.698a.692.692 0 0 1-.312-.058 4.847 4.847 0 0 1-1.41-1.467.908.908 0 0 1-.157-.264v-.03l-1.362.384h-.039l.021.04c.143.318.317.623.52.908.263.362.924 1.144 1.447 1.479.373.225.796.355 1.232.379h3.876c.427-.02.841-.151 1.202-.38.617-.454 1.163-1 1.618-1.617.212-.347.315-.75.296-1.156v-1.583c-.04-1.056-.666-1.955-1.558-2.21ZM120.21 36.265h8.081v-1.378h-6.661v-4.97h6.312v-1.36h-6.312v-4.98h6.661v-1.37h-8.081v14.058ZM114.508 29.634a7.83 7.83 0 0 0 1.195-1.223c.241-.362.367-.788.361-1.223v-2.057a2.209 2.209 0 0 0-.361-1.232 8.418 8.418 0 0 0-1.195-1.248 2.406 2.406 0 0 0-1.398-.462h-6.326v14.076h1.419v-6.183h3.444l3.435 6.164v.019h1.618l-3.484-6.183a2.178 2.178 0 0 0 1.292-.448Zm-6.3-6.058h4.881a.696.696 0 0 1 .382.07c.46.29.846.686 1.125 1.155.044.126.06.26.046.393v1.955a.899.899 0 0 1-.048.381 3.364 3.364 0 0 1-1.126 1.108.738.738 0 0 1-.381.087h-4.879v-5.15ZM102.593 22.207h-1.419v14.058h1.419V22.207ZM93.7 22.207h-2.143l-4.697 14.01v.048h1.486l1.077-3.248h6.428l1.047 3.22v.028h1.517l-4.706-14.037-.01-.02Zm-.95 1.4 2.653 8.042h-5.547l2.63-8.041h.263Z" fill="currentColor"/></svg>