<svg fill="none" height="26" viewBox="0 0 117 26" width="117" xmlns="http://www.w3.org/2000/svg">
    <path class="fill-brand" d="m25.67.0300293h-25.67v25.6599707h25.67z"/>
    <path fill="#000" d="m14.9099 12.85-7.99999 6.3 12.42999-6.32-12.40999-6.17998z"/>
    <g class="fill-highlight-on-reversed">
        <path d="m38.62 13.21h-2.14l-3.48-10.42997h2l2.57 8.06997 2.58-8.06997h1.94z"/>
        <path d="m44.3101 13.21v-10.42997h1.83v10.42997z"/>
        <path d="m56.17 11.67c-.359.4785-.7949.8942-1.2899 1.23-.3213.1832-.6808.2893-1.05.31h-4.7801v-10.42997h4.7801c.3727.00134.7384.1014 1.0599.29.481.36205.9056.7934 1.2601 1.28.2019.29293.3004.64481.2799 1v5.33997c.012.3452-.0785.6862-.26.98zm-2.46-.21h.1201c.25-.14.7699-.6.7699-.81v-5.25997c.0064-.02629.0064-.05371 0-.08-.1894-.3161-.4539-.58058-.7699-.77 0 0-.12 0-.1501 0h-2.7999v6.93997z"/>
        <path d="m59.34 13.21v-10.42997h6.56v1.74h-4.73v2.64h4.4v1.74h-4.4v2.55997h4.73v1.75z"/>
        <path d="m76.24 11.7299c-.3538.4777-.7709.9049-1.24 1.27-.3255.1999-.6981.3103-1.08.32h-2.68c-.3823-.0068-.7556-.1174-1.08-.32-.4836-.354-.9145-.7749-1.28-1.25-.1901-.2983-.2875-.6463-.28-1v-5.47996c-.0106-.35406.0871-.70294.28-1 .3618-.48411.7931-.91207 1.28-1.27.3273-.19465.6993-.30143 1.08-.31h2.65c.3905.00613.7729.1129 1.11.31.481.35766.9086.78191 1.27 1.26.193.29706.2907.64594.28 1v5.45996c.0007.3602-.1074.7122-.31 1.01zm-5.8-1v.07c.2032.2997.4652.5548.77.75.0294.0087.0606.0087.09 0h2.51c.0297.006.0603.006.09 0 .3015-.196.56-.4512.76-.75.006-.0229.006-.047 0-.07v-5.40996s0-.07 0-.08c-.2002-.30412-.4585-.56578-.76-.77-.0295-.00762-.0605-.00762-.09 0h-2.5s-.07 0-.09 0c-.3049.2034-.5666.46508-.77.77-.0033.02656-.0033.05344 0 .08z"/>
        <path d="m82.87 4.52003v8.68997h-1.87v-8.68997h-2.79v-1.74h7.49v1.74z"/>
        <path d="m95.1 7.78003c-.2749.34654-.5905.65878-.94.93-.1365.10312-.2883.18411-.45.24l2.08 4.25997h-2l-1.93-4.11997h-2v4.11997h-1.86v-10.42997h4.9c.4413.00453.8719.13649 1.24.38.3527.29404.6683.62983.94 1 .2092.31759.3205.68968.32 1.07v1.49c.0075.37528-.097.7443-.3 1.06zm-1.51-2.58c.0069-.0397.0069-.0803 0-.12-.1-.19-.38-.54-.56-.56h-3.18v2.83h3.07c.16 0 .51-.33.65-.58.0059-.02296.0059-.04704 0-.07z"/>
        <path d="m105.77 11.7299c-.368.4749-.795.9016-1.27 1.27-.329.1999-.705.3102-1.09.32h-2.65c-.382-.0083-.755-.1188-1.0801-.32-.4806-.3541-.9082-.775-1.27-1.25-.1901-.2983-.2875-.6463-.28-1v-5.47996c-.0106-.35406.0871-.70294.28-1 .3581-.48397.7861-.91198 1.27-1.27.3281-.19341.6991-.3001 1.0801-.31h2.65c.383.01123.758.11777 1.09.31.476.36302.903.78659 1.27 1.26.193.29706.291.64594.28 1v5.45996c.009.3571-.088.7089-.28 1.01zm-5.8101-1v.07c.2001.2988.4591.554.7601.75.029.0077.06.0077.09 0h2.51c.03.0069.06.0069.09 0 .305-.1952.567-.4503.77-.75.006-.0229.006-.047 0-.07v-5.40996s0-.07 0-.08c-.203-.30492-.465-.5666-.77-.77-.029-.00861-.061-.00861-.09 0h-2.51s-.07 0-.09 0c-.302.20422-.56.46588-.7601.77-.0063.02629-.0063.05371 0 .08z"/>
        <path d="m114.22 13.21-3.61-6.92997v6.92997h-1.84v-10.42997h2l3.57 7v-7h1.83v10.42997z"/>
        <path d="m65.1 0h-2l-1.32 1.71h1.67z"/>
    </g>
    <g class="fill-neutral">
        <path d="m38.05 23-.51-1.54h-3l-.54 1.54h-1l2.39-6.88h1.24l2.43 6.88zm-2-5.92-1.19 3.5h2.39z"/>
        <path d="m42.08 16.94c-.0561-.0111-.1139-.0111-.17 0-.13.07-.46.36-.47.5v.64h1.39v.83h-1.39v4.09h-.9v-4.07h-.81v-.83h.81v-.55c-.0109-.238.0558-.4732.19-.67.16-.2052.3448-.39.55-.55.2346-.1535.5096-.2336.79-.23h.93v.84z"/>
        <path d="m46.4601 16.94c-.0562-.0097-.1137-.0097-.17 0-.13.07-.46.36-.47.5v.64h1.39v.83h-1.39v4.09h-.89v-4.07h-.82v-.83h.82v-.55c-.0146-.237.0486-.4723.18-.67.1628-.2028.3472-.3873.55-.55.2358-.1508.5101-.2307.79-.23h.93v.84z"/>
        <path d="m51.8901 23-.06-.39c-.239.244-.5518.4022-.89.45h-1c-.2774.0054-.5498-.075-.78-.23-.1971-.162-.378-.3428-.54-.54-.1405-.1866-.2113-.4166-.2-.65v-.22c-.0058-.2357.0643-.4671.2-.66.162-.1971.3429-.378.54-.54.2342-.144.5052-.217.78-.21h1.86v-.57c.0148-.0489.0148-.101 0-.15-.1244-.1723-.2848-.3156-.47-.42-.0458-.0128-.0942-.0128-.14 0h-1.12c-.21 0-.42.24-.53.39-.055.0628-.1052.1296-.15.2l-.84-.25c.1755-.3858.4352-.7275.76-1 .2373-.1453.5119-.2183.79-.21h1.06c.2802-.0023.5549.0776.79.23.2048.1568.3896.3381.55.54.1286.1953.1917.4265.18.66v2.66l.09.91zm-.1-2.18h-1.85-.14c-.1896.1198-.3502.2804-.47.47-.0083.0396-.0083.0805 0 .12v.19c-.0097.0394-.0097.0806 0 .12.1206.1837.2813.3376.47.45.0464.0079.0937.0079.14 0h1 .11c.2963-.139.5616-.3363.78-.58z"/>
        <path d="m54.14 17.0699v-1h1v1zm.07 6v-4.97h.89v4.9z"/>
        <path d="m59.7401 19.48c-.13-.24-.4-.6-.68-.6h-.62c-.3559.1107-.6698.3269-.9.62v3.5h-.9v-4l-.08-.91h.88l.06.4c.2381-.2577.5612-.421.91-.46h.59c.276-.0058.5476.0708.78.22.3304.2694.594.6116.77 1z"/>
        <path d="m65.26 22.87c-.2315.1521-.503.2322-.78.23h-1.14c-.2802.0024-.5549-.0776-.79-.23-.2005-.1654-.3846-.3496-.55-.55-.137-.1923-.2073-.4241-.2-.66v-2.19c-.0113-.2334.0594-.4634.2-.65.1601-.2052.3448-.39.55-.55.2351-.1524.5098-.2324.79-.23h1.15c.2802-.0024.5549.0776.79.23.2052.16.3899.3448.55.55.1285.1916.1916.4196.18.65v1.53h-3.31v.69c-.0081.0429-.0081.087 0 .13.1202.1866.2808.3438.47.46.0495.0102.1005.0102.15 0h1.18c.046.0114.094.0114.14 0 .1914-.1132.3527-.2711.47-.46l.07-.13.83.28c-.1789.3527-.4353.6604-.75.9zm-.14-3.37c.0053-.0432.0053-.0869 0-.13-.1257-.1926-.2976-.3508-.5-.46-.0424-.0125-.0876-.0125-.13 0h-1.15c-.0463-.0085-.0937-.0085-.14 0-.2025.1017-.3697.262-.48.46-.0106.0427-.0106.0873 0 .13v.64h2.42z"/>
        <path d="m70.8901 19.51c-.14-.26-.44-.63-.68-.63h-1.21-.14c-.1747.0831-.3183.2197-.41.39-.0185.0483-.0185.1017 0 .15v.33c.0072.0752.0418.1452.097.1968.0552.0515.1274.0811.203.0832l1.9.13c.2967.0121.5782.1348.7892.3439.2109.2091.336.4895.3508.7861v.39c.0029.2338-.0709.4621-.21.65-.1399.1973-.3084.3725-.5.52-.2321.1511-.5032.231-.78.23h-1.43c-.2769.001-.548-.0789-.78-.23-.3207-.2616-.5858-.5846-.78-.95l.86-.29c.1285.2437.3137.4529.54.61h.14 1.39c.24 0 .46-.26.57-.44.0128-.0458.0128-.0942 0-.14v-.34c-.0075-.0769-.0434-.1482-.1008-.2-.0573-.0518-.132-.0804-.2092-.08l-1.9-.13c-.2947-.0076-.5752-.128-.7836-.3364-.2084-.2085-.3288-.4889-.3364-.7836v-.33c-.0081-.2345.0584-.4656.19-.66.1413-.1964.3135-.3687.51-.51.2374-.1754.5248-.27.82-.27h1.19c.2768-.001.5479.0789.78.23.3283.2565.5977.5804.79.95z"/>
    </g>
</svg>