<svg xmlns="http://www.w3.org/2000/svg" width="156" height="48" fill="none" viewBox="0 0 156 48">
  <path d="M48 0H0v48h48V0Z" class="fill-brand"/>
  <path fill="#000" d="m12.966 12.318 23.22 11.547L12.939 35.68 27.892 23.9 12.966 12.319Z"/>
  <path d="M66.785 29.15h-2.13l-3.417-10.395h1.942l2.55 8.049 2.566-8.05h1.923l-3.434 10.397Zm5.65 0V18.756h1.82V29.15h-1.82Zm11.79-1.53a5.384 5.384 0 0 1-1.283 1.218 2.282 2.282 0 0 1-1.04.313H77.15V18.755h4.75c.372.003.737.105 1.057.295.476.36.896.787 1.249 1.269.197.291.294.639.277.99v5.32a1.78 1.78 0 0 1-.26.992Zm-2.445-.208s.104 0 .121-.017c.243-.142.763-.591.763-.8v-5.233a.23.23 0 0 0-.017-.086 2.267 2.267 0 0 0-.763-.766.432.432 0 0 0-.156-.017h-2.756v6.92l2.808-.001Zm5.598 1.738V18.756h6.517v1.738h-4.699v2.628h4.368v1.739h-4.369v2.557h4.699v1.739l-6.516-.005Zm16.798-1.477a6.7 6.7 0 0 1-1.265 1.252 2.22 2.22 0 0 1-1.075.312h-2.635a2.165 2.165 0 0 1-1.076-.312 6.197 6.197 0 0 1-1.265-1.252 1.76 1.76 0 0 1-.278-.994v-5.442c-.008-.35.089-.695.278-.99a6.18 6.18 0 0 1 1.265-1.252 2.165 2.165 0 0 1 1.076-.313h2.635c.379.011.749.119 1.075.313.475.36.901.78 1.265 1.252.189.295.286.64.277.99v5.442c.009.352-.087.698-.277.994Zm-5.772-1.008s0 .051.017.07c.203.297.462.55.762.748a.19.19 0 0 0 .087.017h2.496c.03 0 .059-.006.087-.017.3-.197.559-.451.763-.748a.193.193 0 0 0 .017-.07v-5.372s0-.071-.017-.087a2.881 2.881 0 0 0-.763-.766.196.196 0 0 0-.087-.017H99.27s-.07 0-.087.017c-.3.205-.559.465-.762.766a.236.236 0 0 0-.017.087v5.372Zm12.359-6.172v8.658h-1.821v-8.658h-2.808v-1.738h7.438v1.738h-2.809Zm12.157 3.251c-.276.342-.59.652-.935.924a1.629 1.629 0 0 1-.452.243l2.063 4.24h-1.976l-1.924-4.1h-1.993v4.103h-1.821v-10.4h4.872c.438.005.866.137 1.231.383.346.283.66.604.935.956.205.316.314.684.313 1.06v1.53c.003.377-.105.747-.313 1.061Zm-1.507-2.573a.359.359 0 0 0-.018-.121c-.103-.191-.381-.54-.554-.557h-3.138v2.817h3.051c.156 0 .503-.33.641-.574a.175.175 0 0 0 .018-.07V21.17Zm12.105 6.502a6.662 6.662 0 0 1-1.265 1.252 2.22 2.22 0 0 1-1.075.312h-2.635a2.166 2.166 0 0 1-1.076-.312 6.216 6.216 0 0 1-1.265-1.252 1.758 1.758 0 0 1-.277-.994v-5.442c-.009-.35.088-.695.277-.99a6.183 6.183 0 0 1 1.265-1.252 2.167 2.167 0 0 1 1.076-.313h2.635c.379.011.749.119 1.075.313.476.36.901.78 1.265 1.252.19.295.286.64.278.99v5.442c.009.352-.088.698-.278.994Zm-5.772-1.008s0 .051.017.07c.203.297.462.55.762.748a.188.188 0 0 0 .087.017h2.497a.233.233 0 0 0 .086-.017c.3-.197.559-.451.763-.748a.193.193 0 0 0 .017-.07v-5.372s0-.071-.017-.087a2.881 2.881 0 0 0-.763-.766.193.193 0 0 0-.086-.017h-2.497s-.071 0-.087.017c-.3.205-.559.465-.762.766a.234.234 0 0 0-.017.087v5.372Zm14.168 2.485-3.588-6.901v6.902h-1.821V18.755h1.959l3.554 6.988v-6.988h1.82V29.15h-1.924Z" class="fill-neutral"/>
</svg>
