<svg xmlns="http://www.w3.org/2000/svg" width="156" height="48" fill="none" viewBox="0 0 156 48">
  <path d="M48 0H0v48h48V0Z" class="fill-brand"/>
  <path fill="#050504" d="m12.966 12.318 23.22 11.547L12.939 35.68 27.892 23.9 12.966 12.319Z"/>
  <path fill="currentColor" d="m64.46 20.04-2.532-7.969H60l3.392 10.29h2.114l3.407-10.29h-1.907L64.46 20.04Zm28.233.6h-4.668v-2.522h4.337V16.39h-4.337v-2.597h4.668V12.07h-6.475v10.29h6.475v-1.72Zm-10.85 1.413a5.39 5.39 0 0 0 1.276-1.202 1.73 1.73 0 0 0 .26-.983v-5.264a1.617 1.617 0 0 0-.274-.982c-.208-.295-.86-1.034-1.241-1.254a2.058 2.058 0 0 0-1.054-.297h-4.712v10.292h4.712c.365-.016.72-.122 1.033-.31Zm-3.937-1.413v-6.847h2.733a.482.482 0 0 1 .157.015c.31.19.57.451.76.76a.292.292 0 0 1 .014.087v5.18c0 .199-.516.651-.76.787a.366.366 0 0 1-.114.013l-2.79.005Zm-4.976-8.569h-1.808V22.37h1.808v-10.3Zm67.544 0v6.921l-3.536-6.92h-1.943v10.29h1.806v-6.833l3.565 6.833h1.914v-10.29h-1.806Zm-18.136 10.292-2.045-4.194c.16-.059.31-.142.445-.246.344-.267.657-.572.932-.91.207-.312.315-.68.31-1.054v-1.512a1.902 1.902 0 0 0-.31-1.05 5.764 5.764 0 0 0-.932-.946 2.2 2.2 0 0 0-1.219-.381h-4.839v10.293h1.806V18.31h1.979l1.914 4.066 1.959-.012Zm-2.165-6.417a.163.163 0 0 1-.023.071c-.135.236-.479.566-.631.566h-3.033v-2.79h3.119c.169.015.446.359.545.552a.269.269 0 0 1 .023.115v1.486Zm10.573-3.636a2.175 2.175 0 0 0-1.067-.31h-2.623a2.145 2.145 0 0 0-1.067.31c-.36.207-1.049.945-1.256 1.24a1.717 1.717 0 0 0-.273.983v5.392c-.009.345.086.685.273.975.207.294.896 1.04 1.256 1.24.322.197.69.305 1.067.315h2.617c.378-.011.745-.12 1.068-.315.359-.2 1.033-.946 1.255-1.24.188-.29.283-.63.275-.975v-5.392a1.722 1.722 0 0 0-.282-.983c-.215-.295-.889-1.033-1.243-1.24Zm-.271 7.593a.15.15 0 0 1-.022.072 2.805 2.805 0 0 1-.752.738.3.3 0 0 1-.087.014h-2.487a.22.22 0 0 1-.086-.014 2.711 2.711 0 0 1-.759-.739.175.175 0 0 1-.016-.07v-5.322a.283.283 0 0 1 .016-.087 2.79 2.79 0 0 1 .759-.752c.015-.02.086-.02.086-.02h2.482a.17.17 0 0 1 .086.02c.296.202.551.457.753.752.022.023.022.087.022.087l.005 5.321Zm-18.241-7.832h-7.387v1.722h2.79v8.577h1.806v-8.577h2.791V12.07Zm-9.329 8.829c.183-.292.278-.63.271-.975v-5.392a1.768 1.768 0 0 0-.271-.983c-.223-.295-.898-1.033-1.263-1.24a2.183 2.183 0 0 0-1.053-.31h-2.626a2.14 2.14 0 0 0-1.069.31c-.364.207-1.053.945-1.253 1.24a1.72 1.72 0 0 0-.282.983v5.392a1.72 1.72 0 0 0 .282.975c.2.294.89 1.04 1.253 1.24a2.14 2.14 0 0 0 1.07.315h2.625c.375-.012.74-.121 1.061-.315.357-.2 1.032-.95 1.255-1.24Zm-1.536-.997a.217.217 0 0 1-.014.072 2.808 2.808 0 0 1-.766.738.3.3 0 0 1-.086.014h-2.475a.24.24 0 0 1-.085-.014 2.683 2.683 0 0 1-.755-.739.128.128 0 0 1-.02-.07v-5.322c0-.03.007-.06.02-.087.2-.297.457-.552.755-.752.02-.02.085-.02.085-.02h2.482a.17.17 0 0 1 .086.02c.298.201.555.457.759.752a.26.26 0 0 1 .014.087v5.321Zm-34.751 6.011a1.824 1.824 0 0 0-1.046-.339h-4.657v10.347h4.657c.374 0 .74-.115 1.046-.33.319-.275.608-.582.864-.917a1.55 1.55 0 0 0 .244-.888V32.32a1.664 1.664 0 0 0-.244-.923 5.884 5.884 0 0 0-.656-.708 5.87 5.87 0 0 0 .656-.709c.17-.277.254-.598.244-.923v-1.322a1.657 1.657 0 0 0-.244-.921 5.997 5.997 0 0 0-.864-.9Zm-4.656 5.28h3.615a.63.63 0 0 1 .265.047c.327.21.6.496.796.832a.613.613 0 0 1 .049.264v1.408a.627.627 0 0 1-.047.262 2.476 2.476 0 0 1-.8.832.528.528 0 0 1-.28.066h-3.598v-3.712Zm3.88-1.058a.634.634 0 0 1-.265.066h-3.615v-3.627h3.598a.54.54 0 0 1 .282.066c.326.218.599.508.796.847a.613.613 0 0 1 .049.265v1.27a.727.727 0 0 1-.047.281c-.2.337-.475.621-.803.832h.005Zm10.21 3.523a.464.464 0 0 1-.066.211c-.265.429-.62.795-1.04 1.075a.41.41 0 0 1-.21.047h-2.128a.418.418 0 0 1-.213-.05 3.619 3.619 0 0 1-1.07-1.072.464.464 0 0 1-.067-.211v-8.092h-1.042V33.7c-.006.295.073.586.227.837.333.45.728.849 1.174 1.186.273.168.585.264.905.278h2.3a1.83 1.83 0 0 0 .888-.278 5.946 5.946 0 0 0 1.176-1.186c.149-.253.221-.544.209-.837v-8.132h-1.043v8.092Zm9.776-2.771-4.686-1.304a.784.784 0 0 1-.508-.749v-1.082a.451.451 0 0 1 .066-.21 3.204 3.204 0 0 1 1.055-.99.418.418 0 0 1 .21-.047h2.421a.406.406 0 0 1 .212.049 3.3 3.3 0 0 1 1.04 1.076c.047.068.086.141.117.218l.009.019 1.041-.305-.01-.026a4.01 4.01 0 0 0-.398-.677c-.2-.27-.678-.847-1.07-1.088a1.846 1.846 0 0 0-.888-.278H81.88a1.83 1.83 0 0 0-.888.278c-.451.345-.85.752-1.186 1.21-.148.257-.221.55-.21.847v1.064c0 .784.445 1.457 1.082 1.636l4.703 1.288c.329.086.532.474.532.784V33.7a.461.461 0 0 1-.047.212c-.279.414-.646.76-1.074 1.016a.358.358 0 0 1-.193.048h-2.743a.48.48 0 0 1-.23-.05 3.481 3.481 0 0 1-1.037-1.072.708.708 0 0 1-.117-.198v-.019l-1.025.287.01.025c.105.238.232.465.381.678.198.27.678.847 1.07 1.088.274.167.585.263.905.277h2.85c.315-.014.62-.11.888-.277.45-.337.849-.737 1.186-1.186.148-.258.22-.551.21-.847v-1.168c-.004-.772-.463-1.438-1.12-1.625Zm4.549-5.321h-1.044v10.348h1.044V25.567Zm8.381 8.798-4.401-8.786-.007-.012h-1.36v10.346h1.007V27.2l4.438 8.703.006.011h1.325V25.567h-1.008v8.798Zm3.636 1.548h5.951v-1.007h-4.909v-3.662h4.652v-1.008h-4.652v-3.66h4.909v-1.009h-5.951v10.346Zm14.478-5.024-4.686-1.305a.79.79 0 0 1-.508-.749v-1.082a.448.448 0 0 1 .066-.21 3.198 3.198 0 0 1 1.057-.99.411.411 0 0 1 .21-.047h2.42a.412.412 0 0 1 .213.049c.424.273.779.64 1.04 1.072.047.069.086.142.117.219l.009.018 1.016-.298h.026l-.011-.025a4.14 4.14 0 0 0-.398-.678c-.198-.27-.677-.847-1.071-1.088a1.835 1.835 0 0 0-.887-.277h-2.558a1.84 1.84 0 0 0-.888.277c-.451.346-.85.753-1.186 1.21a1.58 1.58 0 0 0-.209.847v1.064c0 .784.444 1.457 1.081 1.637l4.705 1.287c.327.087.53.475.53.785v1.098a.457.457 0 0 1-.047.211 3.38 3.38 0 0 1-1.074 1.017.356.356 0 0 1-.193.047h-2.745a.484.484 0 0 1-.23-.049 3.49 3.49 0 0 1-1.037-1.072.705.705 0 0 1-.115-.199v-.018l-1.025.286.012.026c.104.237.231.464.379.677.2.27.678.847 1.071 1.088.273.168.584.263.904.278h2.852c.315-.015.62-.111.888-.278a5.934 5.934 0 0 0 1.185-1.186c.148-.257.221-.55.211-.847v-1.167c-.007-.776-.465-1.442-1.124-1.629Zm9.733 0-4.687-1.305a.783.783 0 0 1-.509-.749v-1.082a.448.448 0 0 1 .065-.21 3.207 3.207 0 0 1 1.057-.99.414.414 0 0 1 .21-.047h2.414a.413.413 0 0 1 .212.049c.424.273.781.64 1.042 1.072.046.069.085.142.117.219v.018l1.016-.298h.026l-.011-.025a3.97 3.97 0 0 0-.398-.678c-.198-.27-.677-.847-1.07-1.088a1.843 1.843 0 0 0-.888-.277h-2.558a1.844 1.844 0 0 0-.876.277c-.451.346-.85.753-1.186 1.21a1.58 1.58 0 0 0-.21.847v1.064c0 .784.444 1.457 1.081 1.637l4.704 1.287c.329.087.532.475.532.785v1.098a.434.434 0 0 1-.049.211 3.37 3.37 0 0 1-1.074 1.017.352.352 0 0 1-.193.047h-2.74a.474.474 0 0 1-.228-.049 3.486 3.486 0 0 1-1.039-1.072.834.834 0 0 1-.115-.199v-.018l-1.016.286.01.026c.105.237.232.464.379.677.2.27.678.847 1.071 1.088a1.9 1.9 0 0 0 .906.278h2.85c.315-.015.62-.111.888-.278a5.923 5.923 0 0 0 1.186-1.186c.147-.257.219-.55.208-.847v-1.167c-.012-.776-.469-1.442-1.127-1.629Z"/>
</svg>
