<svg fill="none" height="48" viewBox="0 0 156 48" width="156" xmlns="http://www.w3.org/2000/svg">
    <path class="fill-brand" d="m48 0h-48v48h48z"/>
    <path fill="#000" d="m12.9664 12.3185 23.2204 11.5466-23.2483 11.8148 14.9533-11.7791z"/>
    <g class="fill-neutral">
        <path d="m66.7852 29.1508h-2.1301l-3.4172-10.3962h1.9417l2.5501 8.0492 2.5658-8.0492h1.9232z"/>
        <path d="m72.4352 29.1508v-10.3962h1.8205v10.3962z"/>
        <path d="m84.2247 27.6207c-.3578.4737-.7913.8849-1.2829 1.2169-.3167.1867-.6736.2941-1.0406.3132h-4.7503v-10.3962h4.7503c.3722.0032.7368.1052 1.0569.2955.4756.3598.8963.7872 1.2489 1.2688.1965.2914.2937.6388.277.9902v5.3206c.0125.3487-.0777.6934-.2593.991zm-2.4446-.2088s.1041 0 .1211-.0171c.243-.1421.763-.591.763-.7999v-5.2325c0-.0297-.0058-.0592-.017-.0867-.189-.3132-.4508-.576-.763-.7658-.0504-.0151-.1033-.0209-.1558-.017h-2.7563v6.9197z"/>
        <path d="m87.3777 29.1508v-10.3962h6.5171v1.7383h-4.6987v2.6284h4.3678v1.7382h-4.3685v2.5573h4.6986v1.739z"/>
        <path d="m104.176 27.6733c-.364.4717-.79.8927-1.265 1.2516-.326.1944-.696.302-1.075.3126h-2.6355c-.3795-.008-.7503-.1158-1.0753-.3126-.4796-.354-.9057-.7755-1.2652-1.2516-.1898-.2961-.2866-.6426-.2776-.9945v-5.4414c-.0083-.3505.0884-.6955.2776-.9903.3593-.4762.7855-.8978 1.2652-1.2516.3249-.197.6957-.305 1.0753-.3133h2.6355c.379.0108.749.1187 1.075.3133.475.3588.901.7797 1.265 1.2516.189.2949.286.6398.277.9903v5.4414c.009.3518-.087.6983-.277.9945zm-5.7724-1.0087s0 .0518.017.071c.2037.2963.4628.5501.7629.7473.0271.0124.0567.0182.0864.017h2.4961c.03-.0001.059-.0058.087-.017.3-.197.559-.4509.763-.7473.01-.0222.016-.0464.017-.071v-5.3718s0-.0711-.017-.0867c-.204-.3013-.463-.5612-.763-.7658-.027-.0122-.057-.018-.087-.017h-2.4961s-.0708 0-.0864.017c-.3002.2048-.5591.4646-.7629.7658-.0111.0276-.0168.057-.017.0867z"/>
        <path d="m110.763 20.4929v8.6579h-1.821v-8.6579h-2.808v-1.7383h7.438v1.7383z"/>
        <path d="m122.92 23.7442c-.276.342-.59.6517-.935.9235-.137.1043-.289.1863-.452.243l2.063 4.2401h-1.976l-1.924-4.1002h-1.994v4.1031h-1.82v-10.3991h4.871c.439.004.867.1369 1.232.3822.346.2832.66.6039.935.9562.205.3155.314.6841.313 1.0605v1.5295c.003.377-.106.7465-.313 1.0612zm-1.507-2.5729c.001-.0412-.005-.0822-.018-.1215-.103-.1911-.381-.5391-.554-.5569h-3.138v2.8166h3.051c.156 0 .503-.3303.641-.5733.011-.0221.017-.0463.018-.071z"/>
        <path d="m133.518 27.6733c-.364.4719-.789.8928-1.265 1.2516-.326.1944-.696.302-1.075.3126h-2.635c-.38-.008-.751-.1158-1.076-.3126-.479-.3538-.905-.7754-1.265-1.2516-.19-.2961-.286-.6426-.277-.9945v-5.4414c-.009-.3505.088-.6955.277-.9903.359-.4764.786-.898 1.265-1.2516.325-.197.696-.305 1.076-.3133h2.635c.379.0108.749.1187 1.075.3133.476.3586.901.7796 1.265 1.2516.19.2948.286.6398.278.9903v5.4414c.009.3519-.088.6984-.278.9945zm-5.772-1.0087s0 .0518.017.071c.203.2962.462.55.762.7473.027.0125.057.0183.087.017h2.497c.029 0 .058-.0058.086-.017.3-.197.559-.4509.763-.7473.01-.0222.016-.0464.017-.071v-5.3718s0-.0711-.017-.0867c-.204-.3013-.463-.5612-.763-.7658-.027-.0122-.057-.0181-.086-.017h-2.497s-.071 0-.087.017c-.3.2048-.559.4646-.762.7658-.011.0275-.017.057-.017.0867z"/>
        <path d="m141.914 29.1508-3.589-6.9019v6.9019h-1.82v-10.3962h1.959l3.554 6.9886v-6.9886h1.82v10.3962z"/>
    </g>
</svg>