<svg fill="none" height="72" viewBox="0 0 256 72" width="256" xmlns="http://www.w3.org/2000/svg">
    <path class="fill-brand" d="m72 0h-72v72h72z"/>
    <path fill="#000" d="m19.4496 18.4777 34.8306 17.32-34.8725 17.7222 22.43-17.6688z"/>
    <g class="fill-highlight-on-reversed">
        <path d="m98.0326 38.5331h-3.3406l-5.3319-16.2132h3.0359l3.9826 12.5571 4.0154-12.5571h3.014z"/>
        <path d="m106.868 38.5331v-16.2132h2.851v16.2132z"/>
        <path d="m125.312 36.1501c-.326.4897-1.414 1.5778-2.002 1.8934-.435.2393-1.055.4896-1.632.4896h-7.432v-16.2132h7.432c.511 0 1.197.1632 1.654.457.598.3482 1.632 1.5125 1.948 1.9804.348.4896.435 1.0337.435 1.5451v8.3025c0 .4897-.076 1.0555-.403 1.5452zm-3.819-.3264s.163 0 .185-.0327c.381-.2176 1.197-.9249 1.197-1.2514v-8.161s0-.0762-.033-.1306c-.326-.544-.87-1.0337-1.197-1.1969-.022-.0327-.185-.0327-.239-.0327h-4.309v10.7944h4.396z"/>
        <path d="m130.241 38.5331v-16.2132h10.196v2.7094h-7.345v4.0914h6.834v2.7095h-6.834v3.9826h7.345v2.7094h-10.196z"/>
        <path d="m156.52 36.2263c-.348.457-1.415 1.6213-1.98 1.9478-.436.272-1.11.4896-1.687.4896h-4.124c-.598 0-1.251-.2176-1.687-.4896-.565-.3265-1.654-1.4908-1.98-1.9478-.316-.4897-.424-1.0337-.424-1.5452v-8.4875c0-.5114.108-1.0554.435-1.5451.326-.457 1.414-1.6213 1.98-1.9478.435-.272 1.088-.4896 1.687-.4896h4.124c.566 0 1.251.2176 1.687.4896.565.3265 1.621 1.4908 1.98 1.9478.326.4897.435 1.0337.435 1.5451v8.4875c-.011.5115-.12 1.0555-.446 1.5452zm-9.032-1.5669s0 .0761.022.1088c.327.4896.893 1.0011 1.197 1.1643.055.0217.109.0217.131.0217h3.906s.076 0 .142-.0217c.293-.1632.87-.6747 1.197-1.1643.032-.0544.032-.1088.032-.1088v-8.3787s0-.1088-.032-.1306c-.327-.4896-.893-1.0337-1.197-1.1969-.055-.0218-.109-.0218-.142-.0218h-3.906s-.109 0-.131.0218c-.294.1632-.87.7073-1.197 1.1969-.022.0544-.022.1306-.022.1306z"/>
        <path d="m166.825 25.0293v13.5038h-2.851v-13.5038h-4.396v-2.7094h11.632v2.7094z"/>
        <path d="m185.834 30.1c-.239.3482-1.088 1.1644-1.469 1.4364-.217.1632-.457.2938-.707.3808l3.232 6.6159h-3.09l-3.014-6.3982h-3.123v6.3982h-2.851v-16.2132h7.617c.652 0 1.382.2176 1.926.5984.38.2721 1.218 1.1426 1.469 1.4908.326.4896.489 1.0881.489 1.654v2.383c.011.5985-.152 1.1643-.479 1.6539zm-2.361-4.0152s0-.1414-.032-.185c-.164-.2938-.599-.8378-.871-.8705h-4.907v4.3961h4.776c.24 0 .784-.5114 1.002-.8923 0 0 .032-.0544.032-.1088z"/>
        <path d="m202.418 36.2263c-.348.457-1.415 1.6213-1.981 1.9478-.435.272-1.11.4896-1.686.4896h-4.124c-.599 0-1.252-.2176-1.687-.4896-.566-.3265-1.654-1.4908-1.98-1.9478-.327-.4897-.436-1.0337-.436-1.5452v-8.4875c0-.5114.109-1.0554.436-1.5451.326-.457 1.414-1.6213 1.98-1.9478.435-.272 1.088-.4896 1.687-.4896h4.124c.566 0 1.251.2176 1.686.4896.566.3265 1.622 1.4908 1.981 1.9478.326.4897.435 1.0337.435 1.5451v8.4875c0 .5115-.109 1.0555-.435 1.5452zm-9.032-1.5669s0 .0761.033.1088c.326.4896.892 1.0011 1.197 1.1643.054.0217.109.0217.141.0217h3.907s.087 0 .141-.0217c.294-.1632.871-.6747 1.197-1.1643.033-.0544.033-.1088.033-.1088v-8.3787s0-.1088-.033-.1306c-.326-.4896-.892-1.0337-1.197-1.1969-.054-.0218-.109-.0218-.141-.0218h-3.907s-.109 0-.141.0218c-.294.1632-.871.7073-1.197 1.1969-.033.0544-.033.1306-.033.1306z"/>
        <path d="m215.541 38.5331-5.615-10.7617v10.7617h-2.851v-16.2132h3.068l5.561 10.9031v-10.9031h2.851v16.2132z"/>
    </g>
    <g class="fill-neutral">
        <path d="m98.2181 52.2006c-.1418.2182-.6981.7745-.949.949-.3272.2291-.7854.3709-1.1999.3709h-5.0395v-10.7227h5.0395c.4254 0 .8727.1636 1.1999.3927.2509.1745.8072.7199.949.9272.2182.3054.2836.6763.2836 1.0363v1.3089c0 .7854-.3163 1.1236-.8617 1.6253.5345.5018.8617.84.8617 1.6254v1.4835c0 .3599-.0873.6981-.2836 1.0035zm-1.189-7.0248c0-.0873-.0218-.1636-.0327-.1745-.1418-.2509-.6109-.8072-.949-.8072h-3.5561v3.2178h3.5779c.3272 0 .8072-.5344.9272-.7853.0218-.0328.0327-.1091.0327-.1964zm0 4.5596c0-.0873-.0218-.1418-.0327-.1746-.12-.2508-.5018-.6217-.7527-.7526-.0218-.0218-.0872-.0218-.1745-.0218h-3.5779v3.3378h3.5561c.3381 0 .8181-.5344.949-.7853.0218-.0328.0327-.0873.0327-.1746z"/>
        <path d="m106.246 53.5205-.076-.6218c-.36.3164-.894.6982-1.396.6982h-1.342c-.425 0-.916-.1309-1.232-.36-.273-.1964-.72-.6654-.862-.8618-.218-.3054-.284-.6654-.284-1.0144v-5.5413h1.396v5.5086c0 .0327 0 .1636.022.1963.142.2509.524.6109.764.7309.076.0327.109.0327.218.0327h1.265c.338 0 1.2-.6763 1.375-.9163v-5.5631h1.396v6.2721l.142 1.429h-1.386z"/>
        <path d="m115.322 48.0118c-.218-.3927-.676-.9817-1.058-.9817h-1.909c-.087 0-.174.0218-.218.0327-.316.1636-.469.3381-.644.6109-.032.0545-.054.1199-.054.229v.5127c0 .1963.174.4145.469.4254l2.967.2182c.96.0763 1.767.8072 1.767 1.7562v.6108c0 .3709-.109.7091-.316 1.0145-.142.2182-.524.6218-.786.8072-.338.2291-.785.36-1.211.36h-2.148c-.426 0-.873-.1309-1.211-.36-.415-.2836-.927-.9272-1.211-1.4835l1.342-.4472c.174.3599.589.8181.84.949.032.0218.13.0327.218.0327h2.159c.371 0 .72-.4145.895-.6763.033-.0546.055-.1309.055-.2291v-.589c0-.1964-.197-.4145-.48-.4254l-2.967-.1964c-.971-.0654-1.757-.8072-1.757-1.7562v-.5127c0-.3818.088-.7199.306-1.0253.142-.2182.523-.6218.785-.8072.338-.2291.786-.36 1.211-.36h1.854c.426 0 .873.1309 1.211.36.426.3054.927.9163 1.233 1.4835z"/>
        <path d="m119.118 44.2267v-1.5925h1.604v1.5925zm.109 9.2937v-7.7011h1.396v7.7011z"/>
        <path d="m128.161 53.5204v-5.5195c0-.0327 0-.1636-.022-.1963-.12-.2509-.513-.6109-.764-.7309-.032-.0218-.109-.0327-.218-.0327h-1.265c-.338 0-1.2.6981-1.374.9272v5.5631h-1.397v-6.2721l-.142-1.429h1.397l.076.6218c.36-.3164.895-.72 1.396-.72h1.342c.425 0 .916.1309 1.233.36.272.1963.72.6654.861.8617.219.3055.284.6654.284 1.0145v5.5631h-1.407z"/>
        <path d="m137.476 53.2477c-.316.2291-.785.36-1.21.36h-1.768c-.425 0-.916-.1309-1.232-.36-.273-.1963-.72-.6654-.862-.8617-.218-.2836-.305-.6436-.305-1.0254v-3.4142c0-.3709.087-.7309.305-1.0145.142-.1963.589-.6654.862-.8617.327-.2291.807-.36 1.232-.36h1.789c.426 0 .917.1309 1.233.36.273.1963.72.6654.862.8617.218.3054.283.6654.283 1.0145v2.3016h-5.17v1.069c0 .109.022.1636.033.1963.109.1964.425.5672.73.7199.077.0328.142.0546.23.0546h1.81c.109 0 .142-.0218.218-.0546.251-.1308.611-.4799.731-.7199l.109-.1963 1.309.4254c-.24.5672-.741 1.2108-1.189 1.5053zm-.218-5.2468c0-.0327 0-.1636-.022-.1963-.12-.2509-.523-.5891-.763-.7091-.077-.0327-.109-.0545-.218-.0545h-1.767c-.055 0-.164.0218-.219.0545-.36.1964-.621.4473-.752.7091-.022.0218-.033.0872-.033.1963v1.0036h3.774z"/>
        <path d="m146.454 48.0118c-.219-.3927-.677-.9817-1.058-.9817h-1.909c-.088 0-.175.0218-.219.0327-.316.1636-.469.3381-.643.6109-.033.0545-.055.1199-.055.229v.5127c0 .1963.175.4145.469.4254l2.967.2182c.96.0763 1.768.8072 1.768 1.7562v.6108c0 .3709-.11.7091-.317 1.0145-.142.2182-.523.6218-.785.8072-.338.2291-.786.36-1.211.36h-2.149c-.425 0-.873-.1309-1.211-.36-.414-.2836-.927-.9272-1.21-1.4835l1.341-.4472c.175.3599.589.8181.84.949.033.0218.131.0327.218.0327h2.16c.371 0 .72-.4145.895-.6763.032-.0546.054-.1309.054-.2291v-.589c0-.1964-.196-.4145-.48-.4254l-2.967-.1964c-.971-.0654-1.756-.8072-1.756-1.7562v-.5127c0-.3818.087-.7199.305-1.0253.142-.2182.524-.6218.786-.8072.338-.2291.785-.36 1.211-.36h1.854c.425 0 .873.1309 1.211.36.425.3054.927.9163 1.232 1.4835z"/>
        <path d="m155.377 48.0118c-.219-.3927-.677-.9817-1.059-.9817h-1.908c-.088 0-.175.0218-.219.0327-.316.1636-.469.3381-.643.6109-.033.0545-.055.1199-.055.229v.5127c0 .1963.175.4145.469.4254l2.967.2182c.96.0763 1.767.8072 1.767 1.7562v.6108c0 .3709-.109.7091-.316 1.0145-.142.2182-.513.6218-.785.8072-.338.2291-.786.36-1.222.36h-2.149c-.425 0-.873-.1309-1.211-.36-.414-.2836-.927-.9272-1.211-1.4835l1.342-.4472c.175.3599.589.8181.84.949.033.0218.131.0327.218.0327h2.16c.371 0 .72-.4145.895-.6763.032-.0546.054-.1309.054-.2291v-.589c0-.1964-.196-.4145-.48-.4254l-2.967-.1964c-.96-.0654-1.756-.8072-1.756-1.7562v-.5127c0-.3818.087-.7199.305-1.0253.142-.2182.524-.6218.786-.8072.338-.2291.785-.36 1.211-.36h1.854c.425 0 .873.1309 1.211.36.425.3054.927.9163 1.232 1.4835z"/>
    </g>
</svg>