<svg xmlns="http://www.w3.org/2000/svg" width="126" height="24" fill="none" viewBox="0 0 126 24">
  <path d="M24 0H0v24h24z" class="fill-brand"/>
  <path fill="#000" d="m6.483 6.16 11.61 5.773L6.47 17.84l7.477-5.89z"/>
  <path d="M36.96 17.62h-2.33L30.89 6.277h2.125l2.79 8.78 2.806-8.78h2.104zm6.181 0V6.277h1.992v11.341zm12.897-1.67a5.885 5.885 0 0 1-1.403 1.327 2.499 2.499 0 0 1-1.138.342H48.3V6.278h5.197c.407.003.806.115 1.156.322.52.393.98.859 1.366 1.384.215.318.321.697.303 1.08v5.805c.014.38-.085.756-.284 1.08zm-2.674-.228s.114 0 .133-.019c.266-.154.834-.644.834-.872V9.123a.251.251 0 0 0-.018-.095 2.474 2.474 0 0 0-.835-.835.471.471 0 0 0-.17-.019h-3.016v7.549zm6.124 1.898V6.277h7.13v1.896h-5.141v2.867h4.778v1.897h-4.779v2.79h5.14v1.897zm18.377-1.613a7.32 7.32 0 0 1-1.384 1.366 2.42 2.42 0 0 1-1.177.34h-2.882a2.374 2.374 0 0 1-1.177-.34 6.77 6.77 0 0 1-1.384-1.366 1.916 1.916 0 0 1-.304-1.085V8.986a1.914 1.914 0 0 1 .304-1.08c.393-.52.86-.98 1.384-1.365a2.374 2.374 0 0 1 1.177-.342h2.882c.415.012.82.13 1.177.342.52.391.985.85 1.384 1.365.207.322.312.698.303 1.08v5.936c.01.384-.096.762-.303 1.085zm-6.315-1.1s0 .056.018.077c.223.324.507.6.835.816.03.013.062.02.094.018h2.731a.254.254 0 0 0 .095-.018 3.02 3.02 0 0 0 .835-.816.19.19 0 0 0 .018-.077v-5.86s0-.078-.018-.095a3.14 3.14 0 0 0-.835-.835.214.214 0 0 0-.095-.019h-2.73s-.078 0-.095.019a3.146 3.146 0 0 0-.835.835.258.258 0 0 0-.018.095zm13.52-6.733v9.445h-1.99V8.174h-3.072V6.278h8.137v1.896zm13.3 3.547a6.43 6.43 0 0 1-1.023 1.008c-.15.113-.316.203-.494.265l2.257 4.625h-2.162l-2.105-4.473h-2.18v4.476H90.67V6.278H96c.48.004.948.15 1.347.417a6.69 6.69 0 0 1 1.024 1.043c.224.344.342.746.341 1.157v1.668c.004.412-.115.815-.341 1.158zm-1.649-2.807a.414.414 0 0 0-.019-.132c-.113-.209-.417-.589-.606-.608h-3.433v3.073h3.338c.17 0 .55-.36.701-.626a.187.187 0 0 0 .02-.077zm13.243 7.093a7.265 7.265 0 0 1-1.384 1.366c-.356.212-.761.33-1.176.34h-2.883a2.371 2.371 0 0 1-1.176-.34 6.744 6.744 0 0 1-1.384-1.366 1.912 1.912 0 0 1-.304-1.085V8.986a1.913 1.913 0 0 1 .304-1.08c.393-.52.859-.98 1.384-1.365a2.372 2.372 0 0 1 1.176-.342h2.883c.415.012.82.13 1.176.342.521.39.986.85 1.384 1.365.207.322.313.698.304 1.08v5.936c.01.384-.096.762-.304 1.085zm-6.315-1.1s0 .056.019.077c.223.324.506.6.834.816.03.013.062.02.095.018h2.731a.25.25 0 0 0 .095-.018c.328-.215.612-.492.834-.816a.19.19 0 0 0 .019-.077v-5.86s0-.078-.019-.095a3.147 3.147 0 0 0-.834-.835.213.213 0 0 0-.095-.019h-2.731s-.077 0-.095.019a3.153 3.153 0 0 0-.834.835.256.256 0 0 0-.019.095zm15.5 2.713-3.926-7.53v7.53h-1.991V6.277h2.143l3.888 7.624V6.278h1.991v11.341zM65.752 3.258h-2.174l-1.438 1.86h1.813z" class="fill-neutral"/>
</svg>
