<?xml version="1.0" encoding="utf-8"?>
<!-- Generator: Adobe Illustrator 23.0.2, SVG Export Plug-In . SVG Version: 6.00 Build 0)  -->
<svg version="1.1" xmlns="http://www.w3.org/2000/svg" xmlns:xlink="http://www.w3.org/1999/xlink" x="0px" y="0px"
	 viewBox="0 0 20.3 20.3" style="enable-background:new 0 0 20.3 20.3;" xml:space="preserve">
<style type="text/css">
	.st0{fill:none;stroke:#FFFFFF;}
	.st1{fill:#FFFFFF;}
	.st2{clip-path:url(#SVGID_2_);fill:none;stroke:#FFFFFF;}
	.st3{clip-path:url(#SVGID_4_);fill:none;stroke:#FFFFFF;}
</style>
<g>
	<g transform="rotate(45 7.162 17.291)">
		<circle cx="4.2" cy="10.1" r="10.1"/>
		<circle class="st0" cx="4.2" cy="10.1" r="9.6"/>
	</g>
	<g>
		<g transform="rotate(-90 12.375 2.439)">
			<path class="st1" d="M4.2-4.3h0.9v8.8H4.2V-4.3z"/>
			<g>
				<g>
					<defs>
						<rect x="4.2" y="-4.2" width="0.9" height="8.8"/>
					</defs>
					<clipPath>
						<use xlink:href="#SVGID_1_"  style="overflow:visible;"/>
					</clipPath>
					<path class="st2" d="M4.2-3.8h0.9 M4.7-4.3v8.8 M5.1,4H4.2 M4.6,4.5v-8.8"/>
				</g>
			</g>
		</g>
		<g transform="translate(13.885 9.988)">
			<path d="M-4.2-4.2h0.9v8.8h-0.9V-4.2z"/>
			<g>
				<g>
					<defs>
						<rect x="-4.2" y="-4.2" width="0.9" height="8.8"/>
					</defs>
					<clipPath >
						<use xlink:href="#SVGID_3_"  style="overflow:visible;"/>
					</clipPath>
					<path class="st3" d="M-4.2-3.7h0.9 M-3.7-4.2v8.8 M-3.3,4.1h-0.9 M-3.8,4.6v-8.8"/>
				</g>
			</g>
		</g>
	</g>
</g>
</svg>
