<svg xmlns="http://www.w3.org/2000/svg" width="54" height="54" viewBox="0 0 54 54">
    <g transform="translate(-1075.088 -997)">
        <rect width="54" height="54" rx="11.424" transform="translate(1075.088 997)"
              fill="#ffd200"/>
        <g>
            <g>
                <g>
                    <path
                          d="M1105.1,1023.865a.406.406,0,0,1-.29-.121,3.851,3.851,0,0,0-5.448,0,.41.41,0,0,1-.58-.579,4.669,4.669,0,0,1,6.608,0,.41.41,0,0,1-.29.7Z"/>
                    <path
                          d="M1108.725,1020.507a.409.409,0,0,1-.29-.12,8.969,8.969,0,0,0-12.694,0,.41.41,0,0,1-.58-.58,9.784,9.784,0,0,1,13.854,0,.41.41,0,0,1-.29.7Z"/>
                    <path
                          d="M1112.51,1017.182a.409.409,0,0,1-.29-.12,14.311,14.311,0,0,0-20.264,0,.41.41,0,0,1-.58-.579,15.129,15.129,0,0,1,21.424,0,.41.41,0,0,1-.29.7Z"/>
                    <path
                          d="M1117.089,1014.023a.409.409,0,0,1-.29-.12,20.778,20.778,0,0,0-29.422,0,.41.41,0,0,1-.58-.58,21.6,21.6,0,0,1,30.582,0,.41.41,0,0,1-.29.7Z"/>
                </g>
                <g>
                    <path
                          d="M1105.1,1023.865a.406.406,0,0,1-.29-.121,3.851,3.851,0,0,0-5.448,0,.41.41,0,0,1-.58-.579,4.669,4.669,0,0,1,6.608,0,.41.41,0,0,1-.29.7Z"/>
                    <path
                          d="M1108.725,1020.507a.409.409,0,0,1-.29-.12,8.969,8.969,0,0,0-12.694,0,.41.41,0,0,1-.58-.58,9.784,9.784,0,0,1,13.854,0,.41.41,0,0,1-.29.7Z"/>
                    <path
                          d="M1112.51,1017.182a.409.409,0,0,1-.29-.12,14.311,14.311,0,0,0-20.264,0,.41.41,0,0,1-.58-.579,15.129,15.129,0,0,1,21.424,0,.41.41,0,0,1-.29.7Z"/>
                    <path
                          d="M1117.089,1014.023a.409.409,0,0,1-.29-.12,20.778,20.778,0,0,0-29.422,0,.41.41,0,0,1-.58-.58,21.6,21.6,0,0,1,30.582,0,.41.41,0,0,1-.29.7Z"/>
                    <path
                          d="M1105.1,1023.865a.406.406,0,0,1-.29-.121,3.851,3.851,0,0,0-5.448,0,.41.41,0,0,1-.58-.579,4.669,4.669,0,0,1,6.608,0,.41.41,0,0,1-.29.7Z"/>
                    <path
                          d="M1108.725,1020.507a.409.409,0,0,1-.29-.12,8.969,8.969,0,0,0-12.694,0,.41.41,0,0,1-.58-.58,9.784,9.784,0,0,1,13.854,0,.41.41,0,0,1-.29.7Z"/>
                    <path
                          d="M1112.51,1017.182a.409.409,0,0,1-.29-.12,14.311,14.311,0,0,0-20.264,0,.41.41,0,0,1-.58-.579,15.129,15.129,0,0,1,21.424,0,.41.41,0,0,1-.29.7Z"/>
                    <path
                          d="M1117.089,1014.023a.409.409,0,0,1-.29-.12,20.778,20.778,0,0,0-29.422,0,.41.41,0,0,1-.58-.58,21.6,21.6,0,0,1,30.582,0,.41.41,0,0,1-.29.7Z"/>
                    <path
                          d="M1105.1,1023.865a.406.406,0,0,1-.29-.121,3.851,3.851,0,0,0-5.448,0,.41.41,0,0,1-.58-.579,4.669,4.669,0,0,1,6.608,0,.41.41,0,0,1-.29.7Z"/>
                    <path
                          d="M1108.725,1020.507a.409.409,0,0,1-.29-.12,8.969,8.969,0,0,0-12.694,0,.41.41,0,0,1-.58-.58,9.784,9.784,0,0,1,13.854,0,.41.41,0,0,1-.29.7Z"/>
                    <path
                          d="M1112.51,1017.182a.409.409,0,0,1-.29-.12,14.311,14.311,0,0,0-20.264,0,.41.41,0,0,1-.58-.579,15.129,15.129,0,0,1,21.424,0,.41.41,0,0,1-.29.7Z"/>
                    <path
                          d="M1117.089,1014.023a.409.409,0,0,1-.29-.12,20.778,20.778,0,0,0-29.422,0,.41.41,0,0,1-.58-.58,21.6,21.6,0,0,1,30.582,0,.41.41,0,0,1-.29.7Z"/>
                </g>
            </g>
            <g>
                <path d="M1094.718,1026.884l4.092,7.056-4.1,7.076h.3l7.074-7.076-7.057-7.056Z"/>
                <path d="M1105.371,1033.94l4.087-7.056h-.31l-7.056,7.056,7.074,7.075h.3Z"/>
            </g>
        </g>
    </g>
</svg>
