<svg width="24" height="24" viewBox="0 0 24 24" fill="none" xmlns="http://www.w3.org/2000/svg">
<path fill-rule="evenodd" clip-rule="evenodd" d="M4 1.5C3.72386 1.5 3.5 1.72386 3.5 2V22C3.5 22.2761 3.72386 22.5 4 22.5H18H20C20.2761 22.5 20.5 22.2761 20.5 22V4C20.5 3.72386 20.2761 3.5 20 3.5H18.5V2C18.5 1.72386 18.2761 1.5 18 1.5H4ZM18.5 4.5V20.7143V21.5H19.5V4.5H18.5ZM17.5 4V2.5H4.5V21.5H17.5V20.7143V4ZM7 5H15V8H7V5ZM6 4H7H15H16V5V8V9H15H7H6V8V5V4ZM7 13V16H9V13H7ZM7 12H6V13V16V17H7H9H10V16V13V12H9H7ZM6 11V10H8V11H6ZM15 11H16V10H15V11ZM14 11H9V10H14V11ZM13 13L16 13V12L13 12V13ZM12 13H11V12H12V13ZM11 17L16 17V16L11 16V17ZM14 15V14L16 14V15L14 15ZM11 15L13 15V14L11 14V15ZM16.0001 19H13.0001V18H16.0001V19ZM6 18V19L12 19V18L6 18Z" fill="black"/>
</svg>
