<svg xmlns="http://www.w3.org/2000/svg" width="40.92" height="40.562" viewBox="0 0 40.92 40.562">
    <g transform="translate(-1080.145 696.743)">
        <g transform="translate(1080.644 -696.243)">
            <rect width="39.92" height="35.398"
                  transform="translate(0 4.164)" stroke-width="1" stroke="#000" stroke-linecap="round"
                  stroke-linejoin="round" fill="none"/>
            <path d="M1091.793-689.185c-.632,0-1.155-1.249-1.262-2.892-.015-.207-.021-.419-.021-.635,0-1.953.573-3.531,1.283-3.531s1.283,1.578,1.283,3.531c0,.216-.006.428-.021.635"
                  transform="translate(-1076.012 696.243)" fill="none" stroke="#000" stroke-linecap="round"
                  stroke-linejoin="round" stroke-width="1"/>
            <path d="M1086.412-689.185c-.629,0-1.155-1.249-1.262-2.892-.015-.207-.021-.419-.021-.635,0-1.953.575-3.531,1.283-3.531s1.284,1.578,1.284,3.531q0,.324-.022.635"
                  transform="translate(-1078.539 696.243)" fill="none" stroke="#000" stroke-linecap="round"
                  stroke-linejoin="round" stroke-width="1"/>
            <path d="M1102.32-689.185c-.632,0-1.155-1.249-1.262-2.892-.015-.207-.021-.419-.021-.635,0-1.953.573-3.531,1.283-3.531s1.285,1.578,1.285,3.531q0,.324-.022.635"
                  transform="translate(-1071.069 696.243)" fill="none" stroke="#000" stroke-linecap="round"
                  stroke-linejoin="round" stroke-width="1"/>
            <path d="M1096.94-689.185c-.63,0-1.155-1.249-1.262-2.892q-.022-.311-.022-.635c0-1.953.576-3.531,1.284-3.531s1.283,1.578,1.283,3.531c0,.216-.006.428-.021.635"
                  transform="translate(-1073.596 696.243)" fill="none" stroke="#000" stroke-linecap="round"
                  stroke-linejoin="round" stroke-width="1"/>
            <line x2="39.92" transform="translate(0 11.081)" fill="none"
                  stroke="#000" stroke-linecap="round" stroke-linejoin="round" stroke-width="1"/>
        </g>
        <path d="M1091.772-667.746l4.457,4.457,12.747-12.747"
              transform="translate(1 -2)" fill="none" stroke="#000" stroke-width="1"/>
    </g>
</svg>