<svg xmlns="http://www.w3.org/2000/svg" width="10.607" height="14.687">
    <path d="M10.175 13.822h-.9v-2.129c0-2.218-1.942-3.69-3.048-4.35 1.107-.66 3.048-2.132 3.048-4.35V.864h.9a.432.432 0 1 0 0-.864H.432a.432.432 0 1 0 0 .864h.9v2.128c0 2.218 1.942 3.691 3.048 4.35-1.107.66-3.048 2.132-3.048 4.35v2.129h-.9a.432.432 0 1 0 0 .864h9.743a.432.432 0 0 0 0-.864zM2.199 2.993V.864h6.207v2.128c0 2.135-2.424 3.523-3.1 3.87-.682-.346-3.107-1.735-3.107-3.869zm3.1 4.83c.68.347 3.1 1.734 3.1 3.87v2.129H2.2v-2.129c-.001-2.135 2.424-3.523 3.103-3.87z"/>
</svg>