<?xml version="1.0" encoding="utf-8"?>
<!-- Generator: Adobe Illustrator 23.0.1, SVG Export Plug-In . SVG Version: 6.00 Build 0)  -->
<svg version="1.1" xmlns="http://www.w3.org/2000/svg" xmlns:xlink="http://www.w3.org/1999/xlink" x="0px" y="0px"
	 viewBox="0 0 16 16" style="enable-background:new 0 0 16 16;" xml:space="preserve">
<style type="text/css">
	.st0{fill:none;}
	.st1{fill:#9B9B9B;}
	.st2{enable-background:new    ;}
</style>
<g transform="translate(-101.06 -960.06)">
	<g transform="translate(101.06 960.06)">
		<path class="st0" d="M8,0c4.4,0,8,3.6,8,8s-3.6,8-8,8s-8-3.6-8-8C0,3.6,3.6,0,8,0C8,0,8,0,8,0z"/>
		<path class="st1" d="M8,1C4.1,1,1,4.1,1,8s3.1,7,7,7s7-3.1,7-7S11.9,1,8,1 M8,0c4.4,0,8,3.6,8,8s-3.6,8-8,8s-8-3.6-8-8S3.6,0,8,0z
			"/>
	</g>
	<g class="st2">
		<path class="st1" d="M111.4,966.2c0,1.7-2.1,2.2-2.1,3.4v0.2h-0.9v-0.2c0-1.6,2.1-2,2.1-3.3c0-0.8-0.6-1.2-1.4-1.2
			c-0.9,0-1.4,0.6-1.4,1.4h-0.9c0-1.3,0.9-2.3,2.4-2.3C110.5,964.2,111.4,965,111.4,966.2z M109.6,971.4c0,0.5-0.4,0.8-0.8,0.8
			s-0.8-0.3-0.8-0.8c0-0.5,0.4-0.8,0.8-0.8C109.3,970.6,109.6,971,109.6,971.4z"/>
	</g>
</g>
</svg>
