<svg xmlns:xlink="http://www.w3.org/1999/xlink" viewBox="0 0 66.5 63.8">
    <g fill="none" stroke="#12110f" stroke-linecap="round" stroke-linejoin="round" stroke-width=".5">
        <path d="M65.6 11L61 15.7l-2.9 2.9-4-1.1-4-1.1-1.1-4-1.1-4 2.9-2.9L55.6 1"/>
        <path d="M11.3 13.7l15.6 15.6"/>
        <path d="M.3 6.8L5 2l11.2 6.8L7.1 18 .3 6.8z"/>
        <path d="M65.6 11c2.3 7.9-2.2 16.3-10.1 18.6s-16.3-2.2-18.6-10.1S39.1 3.2 47 .9c2.7-.8 5.5-.8 8.2-.1"/>
        <path d="M37.6 22.9L4.4 56.1a4.4 4.4 0 0 0 0 6.2 4.4 4.4 0 0 0 6.2 0l33.2-33.2"/>
        <path d="M39.4 35.8l20.3 20.3a4.4 4.4 0 0 1 0 6.2 4.4 4.4 0 0 1-6.2 0L33.2 41.9"/>
    </g>
</svg>