<svg xmlns="http://www.w3.org/2000/svg" viewBox="0 0 15.8 19.2">
    <path fill="none" stroke="#010101" stroke-width=".348" stroke-linecap="round" stroke-linejoin="round"
          d="M15.2 2.6L8.2.2h-.4l-7 2.4c-.4.1-.6.4-.6.7v7.9c0 .5.1.9.3 1.3 2 4.2 7.2 6.4 7.2 6.4H8.3s5.1-2.2 7-6.5c.2-.4.3-.9.3-1.3v-8c0-.1-.2-.4-.4-.5z"/>

    <path fill="none" stroke="#010101" stroke-width=".348" stroke-linecap="round" stroke-linejoin="round" d="M5.1 7.9h5.7v4.6H5.1V7.9z"/>

    <path d="M6.4 7.9V6.8c0-.8.6-1.5 1.4-1.5H8c.8 0 1.5.7 1.5 1.5v1.1" fill="none" stroke="#010101"
          stroke-width=".348" stroke-linecap="round" stroke-linejoin="round"/>
</svg>