<?xml version="1.0" encoding="utf-8"?>
<!-- Generator: Adobe Illustrator 23.0.1, SVG Export Plug-In . SVG Version: 6.00 Build 0)  -->
<svg version="1.1" id="Calque_1" xmlns="http://www.w3.org/2000/svg" xmlns:xlink="http://www.w3.org/1999/xlink" x="0px" y="0px"
	 viewBox="0 0 24 24" style="enable-background:new 0 0 24 24;" xml:space="preserve">
<style type="text/css">
	.st0{fill:none;stroke:#000000;stroke-width:0.75;stroke-miterlimit:10;}
	.st1{fill:none;stroke:#000000;stroke-width:0.75;stroke-linecap:round;stroke-linejoin:round;stroke-miterlimit:10;}
</style>
<path class="st0" d="M19.6,7.8v12.9c0,0.5-0.4,0.9-0.9,0.9H5.5c-0.5,0-0.9-0.4-0.9-0.9V3.5C4.6,3,5,2.6,5.5,2.6h8.8"/>
<path class="st1" d="M19.6,7.8h-4.4c-0.5,0-0.9-0.4-0.9-0.9V2.6L19.6,7.8z"/>
<path class="st0" d="M9.6,15.8c0,0-0.8,2-1.9,2.5s-1.4-1.9,3.3-3.1c3.8-1,4.7-0.9,4.7-0.9s1.2-0.1,1.2,0.6c0,0.8-0.9,0.9-1.9,0.4
	c-1-0.5-2.7-1.1-4.3-4.5c-0.9-2.7,0.8-2.9,1.3-1.9C12.6,9.8,9.9,15.1,9.6,15.8z"/>
</svg>
