<svg id="LOGO" xmlns="http://www.w3.org/2000/svg" viewBox="0 0 1245.20956 199.20451">
  <defs>
    <style>
      .cls-1 {
        fill: #231f20;
      }
    </style>
  </defs>
  <title>Videotron_4c_C-U_FR</title>
  <g id="FR">
    <g>
      <path class="cls-1" d="M83.63052,197.901H51.48628L0,41.61449H29.27288L67.68831,162.61671,106.37238,41.61449h29.00424Z"/>
      <path class="cls-1" d="M168.81122,197.901V41.61449h27.44526V197.901Z"/>
      <path class="cls-1" d="M346.51837,174.90366c-3.13559,4.70339-13.59051,15.15831-19.33763,18.2939-4.17932,2.3517-10.19508,4.70339-15.68237,4.70339H239.89056V41.61449h71.60781a31.85431,31.85431,0,0,1,15.94221,4.448c5.75152,3.391,15.68237,14.62984,18.818,19.0778,3.39543,4.70339,4.17932,9.92645,4.17932,14.89407v79.97526C350.43786,164.713,349.654,170.20027,346.51837,174.90366Zm-36.84763-3.13559s1.5678,0,1.82763-.26424c3.65966-2.08746,11.503-8.88712,11.503-12.02271V80.81822a3.44229,3.44229,0,0,0-.26424-1.30356c-3.13559-5.23186-8.36305-9.93525-11.49865-11.503a6.41161,6.41161,0,0,0-2.3517-.26424H267.33141V171.76806Z"/>
      <path class="cls-1" d="M394.06313,197.901V41.61449H492.3323V67.74738H421.50839v39.468h65.85628v26.13289H421.50839v38.41983H492.3323V197.901Z"/>
      <path class="cls-1" d="M647.29758,175.68756c-3.39983,4.43916-13.59932,15.678-19.0778,18.81356a33.532,33.532,0,0,1-16.20644,4.70339h-39.7234a32.70168,32.70168,0,0,1-16.20644-4.70339c-5.48729-3.13559-15.94221-14.37441-19.0778-18.81356a26.39447,26.39447,0,0,1-4.18373-14.89407V78.98619a26.39447,26.39447,0,0,1,4.18373-14.89407c3.13559-4.43916,13.59051-15.678,19.0778-18.81356a32.70168,32.70168,0,0,1,16.20644-4.70339h39.7234a33.532,33.532,0,0,1,16.20644,4.70339c5.47848,3.13559,15.678,14.37441,19.0778,18.81356a26.384,26.384,0,0,1,4.17492,14.89407v81.8073A26.384,26.384,0,0,1,647.29758,175.68756Zm-87.03035-15.15831s0,.7839.2554,1.04813c3.13562,4.70339,8.63172,9.66221,11.50308,11.23881a2.89359,2.89359,0,0,0,1.30356.25543h37.63594a3.60979,3.60979,0,0,0,1.31237-.25543c2.87136-1.5766,8.35865-6.53542,11.49424-11.23881a2.60725,2.60725,0,0,0,.26424-1.04813V79.77009s0-1.03933-.26424-1.30356c-3.13559-4.70339-8.62288-9.93525-11.49424-11.503a2.92657,2.92657,0,0,0-1.31237-.25543H573.32927s-1.03933,0-1.30356.25543c-2.87136,1.5678-8.36746,6.79966-11.50308,11.503a3.548,3.548,0,0,0-.2554,1.30356Z"/>
      <path class="cls-1" d="M746.58846,67.74738V197.901H719.1432V67.74738H676.80387V41.61449H788.92778V67.74738Z"/>
      <path class="cls-1" d="M929.871,116.62213c-2.3517,3.39983-10.45492,11.23881-14.11017,13.85475a24.50627,24.50627,0,0,1-6.79966,3.65526L940.06165,197.901H910.27351l-29.01305-61.68136H851.20808V197.901H823.76282V41.61449h73.43984A33.83251,33.83251,0,0,1,915.7608,47.366c3.65526,2.61593,11.75848,10.97458,14.11017,14.37441a29.12245,29.12245,0,0,1,4.70339,15.94221v22.99729A28.49137,28.49137,0,0,1,929.871,116.62213ZM907.13792,77.94686a5.82976,5.82976,0,0,0-.26424-1.832c-1.5678-2.87136-5.75152-8.10322-8.35865-8.36746h-47.307V110.0867h45.99458c2.3517,0,7.58356-4.96763,9.671-8.62288a2.66482,2.66482,0,0,0,.26424-1.04813Z"/>
      <path class="cls-1" d="M1089.63653,175.68756c-3.39983,4.43916-13.59051,15.678-19.0778,18.81356a33.532,33.532,0,0,1-16.20644,4.70339h-39.7234a32.70168,32.70168,0,0,1-16.20644-4.70339c-5.48729-3.13559-15.94221-14.37441-19.0778-18.81356a26.39447,26.39447,0,0,1-4.18373-14.89407V78.98619a26.39447,26.39447,0,0,1,4.18373-14.89407c3.13559-4.43916,13.59051-15.678,19.0778-18.81356a32.70168,32.70168,0,0,1,16.20644-4.70339h39.7234a33.532,33.532,0,0,1,16.20644,4.70339c5.48729,3.13559,15.678,14.37441,19.0778,18.81356a26.39447,26.39447,0,0,1,4.18373,14.89407v81.8073A26.39447,26.39447,0,0,1,1089.63653,175.68756Zm-87.03035-15.15831s0,.7839.26424,1.04813c3.13559,4.70339,8.62288,9.66221,11.49424,11.23881a2.90759,2.90759,0,0,0,1.31237.25543h37.62713a3.58229,3.58229,0,0,0,1.31237-.25543c2.87136-1.5766,8.35865-6.53542,11.49424-11.23881a2.60725,2.60725,0,0,0,.26423-1.04813V79.77009s0-1.03933-.26423-1.30356c-3.13559-4.70339-8.62288-9.93525-11.49424-11.503a2.90759,2.90759,0,0,0-1.31237-.25543H1015.677s-1.04813,0-1.31237.25543c-2.87136,1.5678-8.35865,6.79966-11.49424,11.503a3.44228,3.44228,0,0,0-.26424,1.30356Z"/>
      <path class="cls-1" d="M1216.20532,197.901,1162.10751,94.1445V197.901h-27.44526V41.61449H1164.195l53.57814,105.06v-105.06h27.43645V197.901Z"/>
    </g>
    <polygon class="cls-1" points="480.392 0 450.423 0 430.617 25.581 455.599 25.581 480.392 0"/>
  </g>
</svg>
