<svg data-name="Group 2008" xmlns="http://www.w3.org/2000/svg" width="156.468" height="30.97" viewBox="0 0 156.468 30.97">
  <rect data-name="Rectangle 1690" width="30.97" height="30.97" transform="translate(0 0)" fill="#ffd200"/>
  <g data-name="Group 2005" transform="translate(8.344 7.948)">
    <path data-name="Path 1269" d="M47.479,46.157l14.982,7.45-15,7.623,9.648-7.6Z" transform="translate(-47.457 -46.157)"/>
  </g>
  <g data-name="Group 2007" transform="translate(39.863 4.204)">
    <g data-name="Group 2006" transform="translate(0 3.799)">
      <path data-name="Path 1270" d="M92.607,60.972H89.6L84.776,46.337h2.741l3.6,11.331,3.622-11.331h2.715Z" transform="translate(-84.776 -46.239)"/>
      <path data-name="Path 1271" d="M103.492,60.972V46.337h2.57V60.972Z" transform="translate(-87.685 -46.239)"/>
      <path data-name="Path 1272" d="M121.359,58.818a7.592,7.592,0,0,1-1.811,1.713,3.229,3.229,0,0,1-1.469.441h-6.706V46.337h6.706a2.974,2.974,0,0,1,1.492.416,8.65,8.65,0,0,1,1.763,1.786,2.294,2.294,0,0,1,.391,1.394v7.49A2.5,2.5,0,0,1,121.359,58.818Zm-3.451-.294s.147,0,.171-.024c.343-.2,1.077-.832,1.077-1.126V50.008a.322.322,0,0,0-.024-.122,3.193,3.193,0,0,0-1.077-1.078.608.608,0,0,0-.22-.024h-3.891v9.741Z" transform="translate(-88.909 -46.239)"/>
      <path data-name="Path 1273" d="M128.467,60.972V46.337h9.2v2.447h-6.633v3.7H137.2v2.447h-6.167v3.6h6.633v2.448Z" transform="translate(-91.566 -46.239)"/>
      <path data-name="Path 1274" d="M154.572,58.874a9.449,9.449,0,0,1-1.786,1.762,3.142,3.142,0,0,1-1.518.44h-3.72a3.062,3.062,0,0,1-1.518-.44,8.734,8.734,0,0,1-1.786-1.762,2.472,2.472,0,0,1-.392-1.4v-7.66a2.467,2.467,0,0,1,.392-1.394,8.713,8.713,0,0,1,1.786-1.762,3.063,3.063,0,0,1,1.518-.441h3.72a3.143,3.143,0,0,1,1.518.441,9.424,9.424,0,0,1,1.786,1.762,2.466,2.466,0,0,1,.391,1.394v7.66A2.471,2.471,0,0,1,154.572,58.874Zm-8.149-1.42s0,.073.024.1a3.914,3.914,0,0,0,1.077,1.052.268.268,0,0,0,.122.024h3.524a.328.328,0,0,0,.122-.024,3.9,3.9,0,0,0,1.077-1.052.244.244,0,0,0,.024-.1V49.892s0-.1-.024-.122a4.05,4.05,0,0,0-1.077-1.078.275.275,0,0,0-.122-.024h-3.524s-.1,0-.122.024a4.062,4.062,0,0,0-1.077,1.078.332.332,0,0,0-.024.122Z" transform="translate(-93.957 -46.221)"/>
      <path data-name="Path 1275" d="M166.351,48.784V60.972h-2.57V48.784h-3.964V46.337h10.5v2.447Z" transform="translate(-96.438 -46.239)"/>
      <path data-name="Path 1276" d="M186.046,53.361a8.291,8.291,0,0,1-1.321,1.3,2.3,2.3,0,0,1-.637.342L187,60.972h-2.79L181.494,55.2H178.68v5.776h-2.57V46.337h6.877a3.169,3.169,0,0,1,1.738.538,8.563,8.563,0,0,1,1.321,1.346,2.726,2.726,0,0,1,.441,1.493v2.153A2.668,2.668,0,0,1,186.046,53.361Zm-2.128-3.622a.532.532,0,0,0-.025-.171c-.146-.269-.538-.759-.782-.784h-4.43v3.965h4.307c.22,0,.71-.465.905-.807a.242.242,0,0,0,.025-.1Z" transform="translate(-98.97 -46.239)"/>
      <path data-name="Path 1277" d="M203.616,58.874a9.423,9.423,0,0,1-1.786,1.762,3.142,3.142,0,0,1-1.518.44h-3.72a3.062,3.062,0,0,1-1.518-.44,8.713,8.713,0,0,1-1.786-1.762,2.472,2.472,0,0,1-.392-1.4v-7.66a2.467,2.467,0,0,1,.392-1.394,8.692,8.692,0,0,1,1.786-1.762,3.063,3.063,0,0,1,1.518-.441h3.72a3.143,3.143,0,0,1,1.518.441,9.4,9.4,0,0,1,1.786,1.762,2.467,2.467,0,0,1,.392,1.394v7.66A2.472,2.472,0,0,1,203.616,58.874Zm-8.149-1.42s0,.073.024.1a3.912,3.912,0,0,0,1.076,1.052.269.269,0,0,0,.123.024h3.524a.325.325,0,0,0,.122-.024,3.9,3.9,0,0,0,1.077-1.052.244.244,0,0,0,.024-.1V49.892s0-.1-.024-.122a4.05,4.05,0,0,0-1.077-1.078.273.273,0,0,0-.122-.024H196.69s-.1,0-.123.024a4.06,4.06,0,0,0-1.076,1.078.322.322,0,0,0-.024.122Z" transform="translate(-101.579 -46.221)"/>
      <path data-name="Path 1278" d="M218.216,60.972l-5.066-9.716v9.716h-2.57V46.337h2.766l5.017,9.838V46.337h2.569V60.972Z" transform="translate(-104.327 -46.239)"/>
    </g>
    <path data-name="Path 1279" d="M137.181,41.723h-2.806l-1.855,2.4h2.339Z" transform="translate(-92.196 -41.723)"/>
  </g>
</svg>
