<?xml version="1.0" encoding="utf-8"?>
<!-- Generator: Adobe Illustrator 23.0.1, SVG Export Plug-In . SVG Version: 6.00 Build 0)  -->
<svg version="1.1" xmlns="http://www.w3.org/2000/svg" xmlns:xlink="http://www.w3.org/1999/xlink" x="0px" y="0px"
	 viewBox="0 0 40.6 41.5" style="enable-background:new 0 0 40.6 41.5;" xml:space="preserve">
<style type="text/css">
	.st0{display:none;}
	.st1{display:inline;fill:#820B0B;stroke:#000000;stroke-miterlimit:10;}
	.st2{display:inline;fill:#FFFFFF;}
	.st3{fill:#FFD200;}
</style>
<g class="st0">
	<rect x="-164.4" y="-36.9" class="st1" width="272.5" height="142.6"/>
</g>
<g class="st0">
	<path class="st2" d="M-112.5,34.4V22.2h-14v12.3h-3.1V7h3.1v12.1h14V7h3.1v27.4H-112.5z"/>
	<path class="st2" d="M-100.6,34.4V7h16.9v3.1h-13.7v9h12.1v3.1h-12.1v9.2h13.7v3.1L-100.6,34.4z"/>
	<path class="st2" d="M-75,34.4V7h3.1v24.3h13v3.1L-75,34.4z"/>
	<path class="st2" d="M-40,5.8l9,15l-9,15l15-15L-40,5.8z"/>
	<path class="st2" d="M-10,5.8l-15,15l15,15l-9-15L-10,5.8z"/>
	<rect x="-50.9" y="7" class="st2" width="3.2" height="27.4"/>
	<rect x="-1.1" class="st2" width="1.1" height="41.5"/>
</g>
<g>
	<path class="st3" d="M40.6,34.4H13.2V7h27.4L40.6,34.4z"/>
	<g transform="translate(150.29 14.071)">
		<path d="M-121.1,6.6l-8.5,6.7l13.3-6.7L-129.7,0L-121.1,6.6z"/>
	</g>
</g>
</svg>
