<svg width="148" height="72" viewBox="0 0 148 72" fill="none" xmlns="http://www.w3.org/2000/svg">
<path d="M83.376 31L82.6514 28.6211H79.0078L78.2832 31H76L79.5273 20.9648H82.1182L85.6592 31H83.376ZM82.1455 26.8438C81.4756 24.6882 81.0973 23.4691 81.0107 23.1865C80.9287 22.904 80.8695 22.6807 80.833 22.5166C80.6826 23.0999 80.252 24.5423 79.541 26.8438H82.1455ZM90.957 31.1367C90.0592 31.1367 89.3551 30.8109 88.8447 30.1592H88.7354C88.8083 30.7972 88.8447 31.1663 88.8447 31.2666V34.3633H86.7598V23.3574H88.4551L88.749 24.3486H88.8447C89.3324 23.5921 90.0547 23.2139 91.0117 23.2139C91.9141 23.2139 92.6204 23.5625 93.1309 24.2598C93.6413 24.957 93.8965 25.9255 93.8965 27.165C93.8965 27.9808 93.7757 28.6895 93.5342 29.291C93.2972 29.8926 92.9577 30.3506 92.5156 30.665C92.0736 30.9795 91.554 31.1367 90.957 31.1367ZM90.3418 24.8818C89.8268 24.8818 89.4508 25.0413 89.2139 25.3604C88.9769 25.6748 88.8538 26.1966 88.8447 26.9258V27.1514C88.8447 27.9717 88.9655 28.5596 89.207 28.915C89.4531 29.2705 89.8405 29.4482 90.3691 29.4482C91.3034 29.4482 91.7705 28.6781 91.7705 27.1377C91.7705 26.3857 91.6543 25.8229 91.4219 25.4492C91.194 25.071 90.834 24.8818 90.3418 24.8818ZM99.8164 31.1367C98.9186 31.1367 98.2145 30.8109 97.7041 30.1592H97.5947C97.6676 30.7972 97.7041 31.1663 97.7041 31.2666V34.3633H95.6191V23.3574H97.3145L97.6084 24.3486H97.7041C98.1917 23.5921 98.9141 23.2139 99.8711 23.2139C100.773 23.2139 101.48 23.5625 101.99 24.2598C102.501 24.957 102.756 25.9255 102.756 27.165C102.756 27.9808 102.635 28.6895 102.394 29.291C102.157 29.8926 101.817 30.3506 101.375 30.665C100.933 30.9795 100.413 31.1367 99.8164 31.1367ZM99.2012 24.8818C98.6862 24.8818 98.3102 25.0413 98.0732 25.3604C97.8363 25.6748 97.7132 26.1966 97.7041 26.9258V27.1514C97.7041 27.9717 97.8249 28.5596 98.0664 28.915C98.3125 29.2705 98.6999 29.4482 99.2285 29.4482C100.163 29.4482 100.63 28.6781 100.63 27.1377C100.63 26.3857 100.514 25.8229 100.281 25.4492C100.053 25.071 99.6934 24.8818 99.2012 24.8818ZM106.563 31H104.479V20.3633H106.563V31ZM108.669 21.3818C108.669 20.7028 109.047 20.3633 109.804 20.3633C110.56 20.3633 110.938 20.7028 110.938 21.3818C110.938 21.7054 110.843 21.9583 110.651 22.1406C110.465 22.3184 110.182 22.4072 109.804 22.4072C109.047 22.4072 108.669 22.0654 108.669 21.3818ZM110.843 31H108.758V23.3574H110.843V31ZM85.4473 51H83.335V46.6865H79.377V51H77.2578V41.0059H79.377V44.9229H83.335V41.0059H85.4473V51ZM90.9775 44.6973C90.5355 44.6973 90.1891 44.8385 89.9385 45.1211C89.6878 45.3991 89.5443 45.7956 89.5078 46.3105H92.4336C92.4245 45.7956 92.29 45.3991 92.0303 45.1211C91.7705 44.8385 91.4196 44.6973 90.9775 44.6973ZM91.2715 51.1367C90.041 51.1367 89.0794 50.7972 88.3867 50.1182C87.694 49.4391 87.3477 48.4775 87.3477 47.2334C87.3477 45.9528 87.6667 44.9639 88.3047 44.2666C88.9473 43.5648 89.8337 43.2139 90.9639 43.2139C92.0439 43.2139 92.8848 43.5215 93.4863 44.1367C94.0879 44.752 94.3887 45.6019 94.3887 46.6865V47.6982H89.46C89.4827 48.2907 89.6582 48.7533 89.9863 49.0859C90.3145 49.4186 90.7747 49.585 91.3672 49.585C91.8275 49.585 92.2627 49.5371 92.6729 49.4414C93.083 49.3457 93.5114 49.193 93.958 48.9834V50.5967C93.5934 50.779 93.2038 50.9134 92.7891 51C92.3743 51.0911 91.8685 51.1367 91.2715 51.1367ZM98.1689 51H96.084V40.3633H98.1689V51ZM100.274 41.3818C100.274 40.7028 100.653 40.3633 101.409 40.3633C102.166 40.3633 102.544 40.7028 102.544 41.3818C102.544 41.7054 102.448 41.9583 102.257 42.1406C102.07 42.3184 101.787 42.4072 101.409 42.4072C100.653 42.4072 100.274 42.0654 100.274 41.3818ZM102.448 51H100.363V43.3574H102.448V51ZM106.208 47.0967L103.747 43.3574H106.112L107.596 45.791L109.093 43.3574H111.458L108.97 47.0967L111.574 51H109.202L107.596 48.3818L105.982 51H103.617L106.208 47.0967ZM120.393 51H118.273V42.7695H115.56V41.0059H123.106V42.7695H120.393V51ZM127.646 44.6973C127.203 44.6973 126.857 44.8385 126.606 45.1211C126.356 45.3991 126.212 45.7956 126.176 46.3105H129.102C129.092 45.7956 128.958 45.3991 128.698 45.1211C128.438 44.8385 128.088 44.6973 127.646 44.6973ZM127.939 51.1367C126.709 51.1367 125.747 50.7972 125.055 50.1182C124.362 49.4391 124.016 48.4775 124.016 47.2334C124.016 45.9528 124.335 44.9639 124.973 44.2666C125.615 43.5648 126.502 43.2139 127.632 43.2139C128.712 43.2139 129.553 43.5215 130.154 44.1367C130.756 44.752 131.057 45.6019 131.057 46.6865V47.6982H126.128C126.151 48.2907 126.326 48.7533 126.654 49.0859C126.982 49.4186 127.443 49.585 128.035 49.585C128.495 49.585 128.931 49.5371 129.341 49.4414C129.751 49.3457 130.179 49.193 130.626 48.9834V50.5967C130.261 50.779 129.872 50.9134 129.457 51C129.042 51.0911 128.536 51.1367 127.939 51.1367ZM126.442 42.5166V42.332C127.226 41.4206 127.762 40.7347 128.049 40.2744H130.387V40.418C130.15 40.6549 129.744 41.0081 129.17 41.4775C128.6 41.9424 128.154 42.2887 127.83 42.5166H126.442ZM134.837 51H132.752V40.3633H134.837V51ZM140.196 44.6973C139.754 44.6973 139.408 44.8385 139.157 45.1211C138.907 45.3991 138.763 45.7956 138.727 46.3105H141.652C141.643 45.7956 141.509 45.3991 141.249 45.1211C140.989 44.8385 140.638 44.6973 140.196 44.6973ZM140.49 51.1367C139.26 51.1367 138.298 50.7972 137.605 50.1182C136.913 49.4391 136.566 48.4775 136.566 47.2334C136.566 45.9528 136.885 44.9639 137.523 44.2666C138.166 43.5648 139.052 43.2139 140.183 43.2139C141.263 43.2139 142.104 43.5215 142.705 44.1367C143.307 44.752 143.607 45.6019 143.607 46.6865V47.6982H138.679C138.701 48.2907 138.877 48.7533 139.205 49.0859C139.533 49.4186 139.993 49.585 140.586 49.585C141.046 49.585 141.481 49.5371 141.892 49.4414C142.302 49.3457 142.73 49.193 143.177 48.9834V50.5967C142.812 50.779 142.423 50.9134 142.008 51C141.593 51.0911 141.087 51.1367 140.49 51.1367ZM138.993 42.5166V42.332C139.777 41.4206 140.312 40.7347 140.6 40.2744H142.938V40.418C142.701 40.6549 142.295 41.0081 141.721 41.4775C141.151 41.9424 140.704 42.2887 140.381 42.5166H138.993Z" fill="#050504"/>
<path fill-rule="evenodd" clip-rule="evenodd" d="M8.79028 24.821C8.79028 24.5449 9.01414 24.321 9.29028 24.321H25.1666C25.4428 24.321 25.6666 24.5449 25.6666 24.821V46.1958V52.3126C25.6666 52.5887 25.4428 52.8126 25.1666 52.8126H9.29028C9.01414 52.8126 8.79028 52.5887 8.79028 52.3126V28.876V24.821ZM24.6666 45.6958V29.376H9.79028V45.6958H24.6666ZM9.79028 46.6958H24.6666V51.8126H9.79028V46.6958ZM9.79028 28.376H24.6666V25.321H9.79028V28.376ZM15.5944 26.8829C15.5944 26.6068 15.8183 26.3829 16.0944 26.3829H18.2938C18.5699 26.3829 18.7938 26.6068 18.7938 26.8829C18.7938 27.159 18.5699 27.3829 18.2938 27.3829H16.0944C15.8183 27.3829 15.5944 27.159 15.5944 26.8829ZM17.1941 47.6889C16.7712 47.6889 16.3799 47.832 16.0931 48.1188C15.8063 48.4056 15.6632 48.7969 15.6632 49.2198C15.6632 49.6427 15.8063 50.034 16.0931 50.3208C16.3799 50.6076 16.7712 50.7507 17.1941 50.7507C17.4852 50.7507 17.7863 50.6402 18.0299 50.4778C18.2679 50.3191 18.5013 50.0771 18.6186 49.7561C18.6615 49.6653 18.6928 49.5748 18.7096 49.4738C18.7252 49.3802 18.7251 49.2909 18.725 49.2316L18.725 49.2198C18.725 48.7969 18.5819 48.4056 18.2951 48.1188C18.0083 47.832 17.617 47.6889 17.1941 47.6889ZM16.6632 49.2198C16.6632 49.0242 16.7262 48.9 16.8002 48.8259L17.7234 49.3079C17.7222 49.3112 17.7185 49.321 17.7091 49.3399C17.6985 49.361 17.6894 49.3829 17.682 49.4053C17.6573 49.4794 17.5895 49.5695 17.4752 49.6457C17.3579 49.7239 17.2467 49.7507 17.1941 49.7507C16.9984 49.7507 16.8743 49.6877 16.8002 49.6137C16.7262 49.5397 16.6632 49.4155 16.6632 49.2198Z" fill="#070706"/>
<path fill-rule="evenodd" clip-rule="evenodd" d="M14.6052 23.073C14.3291 23.073 14.1052 22.8491 14.1052 22.573L14.1052 18.6386C14.1052 18.3625 14.3291 18.1386 14.6052 18.1386L61.8173 18.1386L67.4378 18.1386C67.714 18.1386 67.9378 18.3625 67.9378 18.6386L67.9378 52.3616C67.9378 52.4942 67.8851 52.6214 67.7914 52.7151C67.6976 52.8089 67.5704 52.8616 67.4378 52.8616L61.8189 52.8616C61.8183 52.8616 61.8178 52.8616 61.8173 52.8616C61.8168 52.8616 61.8163 52.8616 61.8158 52.8616L27.5323 52.8616C27.2562 52.8616 27.0323 52.6377 27.0323 52.3616C27.0323 52.0854 27.2562 51.8616 27.5323 51.8616L61.3173 51.8616L61.3173 19.1386L15.1052 19.1386L15.1052 22.573C15.1052 22.8491 14.8814 23.073 14.6052 23.073ZM62.3173 19.1386L62.3173 51.8616L66.9378 51.8616L66.9378 19.1386L62.3173 19.1386ZM63.541 36.3683C63.2684 36.0956 63.1333 35.7246 63.1333 35.326C63.1333 34.9274 63.2684 34.5564 63.541 34.2837C63.8136 34.0111 64.1846 33.8761 64.5833 33.8761L64.5944 33.8761C64.6488 33.876 64.7341 33.8758 64.8238 33.8908C64.9205 33.9069 65.0069 33.9368 65.0925 33.9771C65.3973 34.089 65.6258 34.3102 65.7751 34.5341C65.928 34.7635 66.0332 35.0484 66.0332 35.326C66.0332 35.7246 65.8981 36.0956 65.6255 36.3683C65.3529 36.6409 64.9819 36.7759 64.5833 36.7759C64.1846 36.7759 63.8136 36.6409 63.541 36.3683ZM64.2481 35.6612C64.308 35.721 64.4119 35.7759 64.5833 35.7759C64.7546 35.7759 64.8586 35.721 64.9184 35.6612C64.9783 35.6013 65.0332 35.4974 65.0332 35.326C65.0332 35.287 65.0117 35.1919 64.943 35.0888C64.8762 34.9886 64.7997 34.933 64.7418 34.9137C64.7193 34.9063 64.6975 34.8972 64.6763 34.8866C64.6663 34.8816 64.6596 34.8786 64.6557 34.877L64.6491 34.8767C64.6349 34.8761 64.6174 34.8761 64.5833 34.8761C64.4119 34.8761 64.308 34.931 64.2481 34.9909C64.1883 35.0507 64.1333 35.1546 64.1333 35.326C64.1333 35.4974 64.1883 35.6013 64.2481 35.6612Z" fill="#070706"/>
</svg>
