<svg width="148" height="72" viewBox="0 0 148 72" fill="none" xmlns="http://www.w3.org/2000/svg">
<path d="M85.4473 31H83.335V26.6865H79.377V31H77.2578V21.0059H79.377V24.9229H83.335V21.0059H85.4473V31ZM90.9775 24.6973C90.5355 24.6973 90.1891 24.8385 89.9385 25.1211C89.6878 25.3991 89.5443 25.7956 89.5078 26.3105H92.4336C92.4245 25.7956 92.29 25.3991 92.0303 25.1211C91.7705 24.8385 91.4196 24.6973 90.9775 24.6973ZM91.2715 31.1367C90.041 31.1367 89.0794 30.7972 88.3867 30.1182C87.694 29.4391 87.3477 28.4775 87.3477 27.2334C87.3477 25.9528 87.6667 24.9639 88.3047 24.2666C88.9473 23.5648 89.8337 23.2139 90.9639 23.2139C92.0439 23.2139 92.8848 23.5215 93.4863 24.1367C94.0879 24.752 94.3887 25.6019 94.3887 26.6865V27.6982H89.46C89.4827 28.2907 89.6582 28.7533 89.9863 29.0859C90.3145 29.4186 90.7747 29.585 91.3672 29.585C91.8275 29.585 92.2627 29.5371 92.6729 29.4414C93.083 29.3457 93.5114 29.193 93.958 28.9834V30.5967C93.5934 30.779 93.2038 30.9134 92.7891 31C92.3743 31.0911 91.8685 31.1367 91.2715 31.1367ZM98.1689 31H96.084V20.3633H98.1689V31ZM100.274 21.3818C100.274 20.7028 100.653 20.3633 101.409 20.3633C102.166 20.3633 102.544 20.7028 102.544 21.3818C102.544 21.7054 102.448 21.9583 102.257 22.1406C102.07 22.3184 101.787 22.4072 101.409 22.4072C100.653 22.4072 100.274 22.0654 100.274 21.3818ZM102.448 31H100.363V23.3574H102.448V31ZM106.208 27.0967L103.747 23.3574H106.112L107.596 25.791L109.093 23.3574H111.458L108.97 27.0967L111.574 31H109.202L107.596 28.3818L105.982 31H103.617L106.208 27.0967ZM120.393 31H118.273V22.7695H115.56V21.0059H123.106V22.7695H120.393V31ZM130.346 21.0059H132.485L129.088 31H126.777L123.387 21.0059H125.526L127.406 26.9531C127.511 27.304 127.618 27.7142 127.728 28.1836C127.841 28.6484 127.912 28.972 127.939 29.1543C127.99 28.735 128.16 28.0013 128.452 26.9531L130.346 21.0059ZM83.376 51L82.6514 48.6211H79.0078L78.2832 51H76L79.5273 40.9648H82.1182L85.6592 51H83.376ZM82.1455 46.8438C81.4756 44.6882 81.0973 43.4691 81.0107 43.1865C80.9287 42.904 80.8695 42.6807 80.833 42.5166C80.6826 43.0999 80.252 44.5423 79.541 46.8438H82.1455ZM90.957 51.1367C90.0592 51.1367 89.3551 50.8109 88.8447 50.1592H88.7354C88.8083 50.7972 88.8447 51.1663 88.8447 51.2666V54.3633H86.7598V43.3574H88.4551L88.749 44.3486H88.8447C89.3324 43.5921 90.0547 43.2139 91.0117 43.2139C91.9141 43.2139 92.6204 43.5625 93.1309 44.2598C93.6413 44.957 93.8965 45.9255 93.8965 47.165C93.8965 47.9808 93.7757 48.6895 93.5342 49.291C93.2972 49.8926 92.9577 50.3506 92.5156 50.665C92.0736 50.9795 91.554 51.1367 90.957 51.1367ZM90.3418 44.8818C89.8268 44.8818 89.4508 45.0413 89.2139 45.3604C88.9769 45.6748 88.8538 46.1966 88.8447 46.9258V47.1514C88.8447 47.9717 88.9655 48.5596 89.207 48.915C89.4531 49.2705 89.8405 49.4482 90.3691 49.4482C91.3034 49.4482 91.7705 48.6781 91.7705 47.1377C91.7705 46.3857 91.6543 45.8229 91.4219 45.4492C91.194 45.071 90.834 44.8818 90.3418 44.8818ZM99.8164 51.1367C98.9186 51.1367 98.2145 50.8109 97.7041 50.1592H97.5947C97.6676 50.7972 97.7041 51.1663 97.7041 51.2666V54.3633H95.6191V43.3574H97.3145L97.6084 44.3486H97.7041C98.1917 43.5921 98.9141 43.2139 99.8711 43.2139C100.773 43.2139 101.48 43.5625 101.99 44.2598C102.501 44.957 102.756 45.9255 102.756 47.165C102.756 47.9808 102.635 48.6895 102.394 49.291C102.157 49.8926 101.817 50.3506 101.375 50.665C100.933 50.9795 100.413 51.1367 99.8164 51.1367ZM99.2012 44.8818C98.6862 44.8818 98.3102 45.0413 98.0732 45.3604C97.8363 45.6748 97.7132 46.1966 97.7041 46.9258V47.1514C97.7041 47.9717 97.8249 48.5596 98.0664 48.915C98.3125 49.2705 98.6999 49.4482 99.2285 49.4482C100.163 49.4482 100.63 48.6781 100.63 47.1377C100.63 46.3857 100.514 45.8229 100.281 45.4492C100.053 45.071 99.6934 44.8818 99.2012 44.8818Z" fill="#050504"/>
<path fill-rule="evenodd" clip-rule="evenodd" d="M8.79028 24.821C8.79028 24.5449 9.01414 24.321 9.29028 24.321H25.1666C25.4428 24.321 25.6666 24.5449 25.6666 24.821V46.1958V52.3126C25.6666 52.5887 25.4428 52.8126 25.1666 52.8126H9.29028C9.01414 52.8126 8.79028 52.5887 8.79028 52.3126V28.876V24.821ZM24.6666 45.6958V29.376H9.79028V45.6958H24.6666ZM9.79028 46.6958H24.6666V51.8126H9.79028V46.6958ZM9.79028 28.376H24.6666V25.321H9.79028V28.376ZM15.5944 26.8829C15.5944 26.6068 15.8183 26.3829 16.0944 26.3829H18.2938C18.5699 26.3829 18.7938 26.6068 18.7938 26.8829C18.7938 27.159 18.5699 27.3829 18.2938 27.3829H16.0944C15.8183 27.3829 15.5944 27.159 15.5944 26.8829ZM17.1941 47.6889C16.7712 47.6889 16.3799 47.832 16.0931 48.1188C15.8063 48.4056 15.6632 48.7969 15.6632 49.2198C15.6632 49.6427 15.8063 50.034 16.0931 50.3208C16.3799 50.6076 16.7712 50.7507 17.1941 50.7507C17.4852 50.7507 17.7863 50.6402 18.0299 50.4778C18.2679 50.3191 18.5013 50.0771 18.6186 49.7561C18.6615 49.6653 18.6928 49.5748 18.7096 49.4738C18.7252 49.3802 18.7251 49.2909 18.725 49.2316L18.725 49.2198C18.725 48.7969 18.5819 48.4056 18.2951 48.1188C18.0083 47.832 17.617 47.6889 17.1941 47.6889ZM16.6632 49.2198C16.6632 49.0242 16.7262 48.9 16.8002 48.8259L17.7234 49.3079C17.7222 49.3112 17.7185 49.321 17.7091 49.3399C17.6985 49.361 17.6894 49.3829 17.682 49.4053C17.6573 49.4794 17.5895 49.5695 17.4752 49.6457C17.3579 49.7239 17.2467 49.7507 17.1941 49.7507C16.9984 49.7507 16.8743 49.6877 16.8002 49.6137C16.7262 49.5397 16.6632 49.4155 16.6632 49.2198Z" fill="#070706"/>
<path fill-rule="evenodd" clip-rule="evenodd" d="M14.6052 23.073C14.3291 23.073 14.1052 22.8491 14.1052 22.573L14.1052 18.6386C14.1052 18.3625 14.3291 18.1386 14.6052 18.1386L61.8173 18.1386L67.4378 18.1386C67.714 18.1386 67.9378 18.3625 67.9378 18.6386L67.9378 52.3616C67.9378 52.4942 67.8851 52.6214 67.7914 52.7151C67.6976 52.8089 67.5704 52.8616 67.4378 52.8616L61.8189 52.8616C61.8183 52.8616 61.8178 52.8616 61.8173 52.8616C61.8168 52.8616 61.8163 52.8616 61.8158 52.8616L27.5323 52.8616C27.2562 52.8616 27.0323 52.6377 27.0323 52.3616C27.0323 52.0854 27.2562 51.8616 27.5323 51.8616L61.3173 51.8616L61.3173 19.1386L15.1052 19.1386L15.1052 22.573C15.1052 22.8491 14.8814 23.073 14.6052 23.073ZM62.3173 19.1386L62.3173 51.8616L66.9378 51.8616L66.9378 19.1386L62.3173 19.1386ZM63.541 36.3683C63.2684 36.0956 63.1333 35.7246 63.1333 35.326C63.1333 34.9274 63.2684 34.5564 63.541 34.2837C63.8136 34.0111 64.1846 33.8761 64.5833 33.8761L64.5944 33.8761C64.6488 33.876 64.7341 33.8758 64.8238 33.8908C64.9205 33.9069 65.0069 33.9368 65.0925 33.9771C65.3973 34.089 65.6258 34.3102 65.7751 34.5341C65.928 34.7635 66.0332 35.0484 66.0332 35.326C66.0332 35.7246 65.8981 36.0956 65.6255 36.3683C65.3529 36.6409 64.9819 36.7759 64.5833 36.7759C64.1846 36.7759 63.8136 36.6409 63.541 36.3683ZM64.2481 35.6612C64.308 35.721 64.4119 35.7759 64.5833 35.7759C64.7546 35.7759 64.8586 35.721 64.9184 35.6612C64.9783 35.6013 65.0332 35.4974 65.0332 35.326C65.0332 35.287 65.0117 35.1919 64.943 35.0888C64.8762 34.9886 64.7997 34.933 64.7418 34.9137C64.7193 34.9063 64.6975 34.8972 64.6763 34.8866C64.6663 34.8816 64.6596 34.8786 64.6557 34.877L64.6491 34.8767C64.6349 34.8761 64.6174 34.8761 64.5833 34.8761C64.4119 34.8761 64.308 34.931 64.2481 34.9909C64.1883 35.0507 64.1333 35.1546 64.1333 35.326C64.1333 35.4974 64.1883 35.6013 64.2481 35.6612Z" fill="#070706"/>
</svg>
