<svg width="148" height="72" viewBox="0 0 148 72" fill="none" xmlns="http://www.w3.org/2000/svg">
<path d="M93.4473 31H91.335V26.6865H87.377V31H85.2578V21.0059H87.377V24.9229H91.335V21.0059H93.4473V31ZM98.9775 24.6973C98.5355 24.6973 98.1891 24.8385 97.9385 25.1211C97.6878 25.3991 97.5443 25.7956 97.5078 26.3105H100.434C100.424 25.7956 100.29 25.3991 100.03 25.1211C99.7705 24.8385 99.4196 24.6973 98.9775 24.6973ZM99.2715 31.1367C98.041 31.1367 97.0794 30.7972 96.3867 30.1182C95.694 29.4391 95.3477 28.4775 95.3477 27.2334C95.3477 25.9528 95.6667 24.9639 96.3047 24.2666C96.9473 23.5648 97.8337 23.2139 98.9639 23.2139C100.044 23.2139 100.885 23.5215 101.486 24.1367C102.088 24.752 102.389 25.6019 102.389 26.6865V27.6982H97.46C97.4827 28.2907 97.6582 28.7533 97.9863 29.0859C98.3145 29.4186 98.7747 29.585 99.3672 29.585C99.8275 29.585 100.263 29.5371 100.673 29.4414C101.083 29.3457 101.511 29.193 101.958 28.9834V30.5967C101.593 30.779 101.204 30.9134 100.789 31C100.374 31.0911 99.8685 31.1367 99.2715 31.1367ZM106.169 31H104.084V20.3633H106.169V31ZM108.274 21.3818C108.274 20.7028 108.653 20.3633 109.409 20.3633C110.166 20.3633 110.544 20.7028 110.544 21.3818C110.544 21.7054 110.448 21.9583 110.257 22.1406C110.07 22.3184 109.787 22.4072 109.409 22.4072C108.653 22.4072 108.274 22.0654 108.274 21.3818ZM110.448 31H108.363V23.3574H110.448V31ZM114.208 27.0967L111.747 23.3574H114.112L115.596 25.791L117.093 23.3574H119.458L116.97 27.0967L119.574 31H117.202L115.596 28.3818L113.982 31H111.617L114.208 27.0967ZM89.1133 51H86.9941V42.7695H84.2803V41.0059H91.8271V42.7695H89.1133V51ZM99.0664 41.0059H101.206L97.8086 51H95.498L92.1074 41.0059H94.2471L96.127 46.9531C96.2318 47.304 96.3389 47.7142 96.4482 48.1836C96.5622 48.6484 96.6328 48.972 96.6602 49.1543C96.7103 48.735 96.8812 48.0013 97.1729 46.9531L99.0664 41.0059Z" fill="#050504"/>
<path d="M33.3 25L38.8 34.6L33.3 44.2H33.7001L43.3 34.6L33.7001 25H33.3Z" stroke="#1D1D1B" stroke-miterlimit="10"/>
<path d="M47.8 34.6L53.4001 25H52.9001L43.3 34.6L53 44.2H53.4001L47.8 34.6Z" stroke="#1D1D1B" stroke-miterlimit="10"/>
<path d="M45.6489 51.7001V48.6001" stroke="#1D1D1B" stroke-linecap="round" stroke-linejoin="round"/>
<path d="M40.949 51.7001V48.6001" stroke="#1D1D1B" stroke-linecap="round" stroke-linejoin="round"/>
<path d="M76.4002 39H73.2002V51.7H76.4002V39Z" stroke="#1D1D1B" stroke-linecap="round" stroke-linejoin="round"/>
<path d="M75.5002 40H74.0002C73.8504 40 73.2665 39.2327 73.2002 39.1C73.2002 39 73.2002 39 73.3002 39H76.3002C76.4002 39 76.4002 39.1 76.4002 39.1L75.5002 40Z" stroke="#1D1D1B" stroke-linecap="round" stroke-linejoin="round"/>
<path d="M74.4001 41.5H75.2001" stroke="#1D1D1B" stroke-linecap="round" stroke-linejoin="round"/>
<path d="M74.3003 46.9819H74.4003" stroke="#1D1D1B" stroke-linecap="round" stroke-linejoin="round"/>
<path d="M75.1084 46.9819H75.2084" stroke="#1D1D1B" stroke-linecap="round" stroke-linejoin="round"/>
<path d="M74.3003 48.157H74.4003" stroke="#1D1D1B" stroke-linecap="round" stroke-linejoin="round"/>
<path d="M75.1084 48.157H75.2084" stroke="#1D1D1B" stroke-linecap="round" stroke-linejoin="round"/>
<path d="M74.3003 49.2319H74.4003" stroke="#1D1D1B" stroke-linecap="round" stroke-linejoin="round"/>
<path d="M75.1084 49.2319H75.2084" stroke="#1D1D1B" stroke-linecap="round" stroke-linejoin="round"/>
<path d="M74.7544 50.363H74.8544" stroke="#1D1D1B" stroke-linecap="round" stroke-linejoin="round"/>
<path d="M74.8001 46C75.0211 46 75.2001 45.8209 75.2001 45.5999C75.2001 45.379 75.0211 45.2 74.8001 45.2C74.5792 45.2 74.4001 45.379 74.4001 45.5999C74.4001 45.8209 74.5792 46 74.8001 46Z" stroke="#1D1D1B" stroke-linecap="round" stroke-linejoin="round"/>
<path d="M54 49.0819L55.9 47.4819H70.1L71.9 49.0819L70.2 51.7819H55.6L54 49.0819Z" stroke="#1D1D1B" stroke-linecap="round" stroke-linejoin="round"/>
<path d="M52.5001 48.6H22.9001H19.6001V20.3H67.1001V45.5" stroke="#1D1D1B" stroke-linecap="round" stroke-linejoin="round"/>
<path d="M29.1001 51.7002H53.3001" stroke="#1D1D1B" stroke-linecap="round" stroke-linejoin="round"/>
</svg>
