<svg xmlns="http://www.w3.org/2000/svg" xmlns:xlink="http://www.w3.org/1999/xlink" version="1.1" id="Calque_1" x="0px" y="0px" viewBox="0 0 60 60" style="enable-background:new 0 0 60 60;" xml:space="preserve">
<style type="text/css">
	.st0{fill:none;}
	.st1{fill:none;stroke:#231F20;stroke-linecap:round;stroke-linejoin:round;}
</style>
<title>res-telephony-ico</title>
<g id="Carré_alpha">
	<rect class="st0" width="60" height="60"/>
</g>
<g id="telephonie">
	<g>
		<line class="st1" x1="22.2" y1="17.5" x2="38.1" y2="17.5"/>
		<rect x="21.6" y="9.4" class="st1" width="17" height="40.2"/>
		<line class="st1" x1="22.5" y1="25.6" x2="38.4" y2="25.6"/>
		<line class="st1" x1="28.3" y1="13.5" x2="31.8" y2="13.5"/>
		<g>
			<g>
				<line class="st1" x1="34.4" y1="42.5" x2="35.4" y2="42.5"/>
			</g>
			<g>
				<line class="st1" x1="29.5" y1="42.5" x2="30.5" y2="42.5"/>
			</g>
			<g>
				<line class="st1" x1="24.5" y1="42.5" x2="25.6" y2="42.5"/>
			</g>
		</g>
		<g>
			<g>
				<line class="st1" x1="34.4" y1="36.6" x2="35.4" y2="36.6"/>
			</g>
			<g>
				<line class="st1" x1="29.5" y1="36.6" x2="30.5" y2="36.6"/>
			</g>
			<g>
				<line class="st1" x1="24.5" y1="36.6" x2="25.6" y2="36.6"/>
			</g>
		</g>
		<g>
			<g>
				<line class="st1" x1="34.4" y1="30.6" x2="35.4" y2="30.6"/>
			</g>
			<g>
				<line class="st1" x1="29.5" y1="30.6" x2="30.5" y2="30.6"/>
			</g>
			<g>
				<line class="st1" x1="24.5" y1="30.6" x2="25.6" y2="30.6"/>
			</g>
		</g>
		<polyline class="st1" points="41.4,47.5 43.5,47.5 43.5,54.5 16.5,54.5 16.5,47.5 18.5,47.5   "/>
	</g>
</g>
</svg>