<svg xmlns="http://www.w3.org/2000/svg" xmlns:xlink="http://www.w3.org/1999/xlink" version="1.1" id="Calque_1" x="0px" y="0px" viewBox="0 0 60 60" style="enable-background:new 0 0 60 60;" xml:space="preserve">
<style type="text/css">
	.st0{fill:none;stroke:#020202;stroke-linecap:round;stroke-linejoin:round;}
	.st1{fill:none;}
</style>
<title>res-packages-ico</title>
<g id="multi-produit">
	<g>
		<line class="st0" x1="47.3" y1="47.5" x2="43.1" y2="47.5"/>
		<polyline class="st0" points="8.5,20.5 8.5,13.5 55.5,13.5 55.5,26.5   "/>
		<line class="st0" x1="47.2" y1="43.5" x2="42.3" y2="43.5"/>
		<rect x="50.4" y="29.6" class="st0" width="9" height="17.9"/>
		<path class="st0" d="M50.6,44.3"/>
		<polyline class="st0" points="36.5,43.5 36.5,23.5 3.5,23.5 3.5,43.5   "/>
		<polygon class="st0" points="13.5,43.5 13.5,44.5 25.5,44.5 25.5,43.5 39.5,43.5 39.5,47.5 0.5,47.5 0.5,43.5   "/>
		<line class="st0" x1="50.4" y1="33.6" x2="59.4" y2="33.6"/>
		<line class="st0" x1="50.6" y1="43.5" x2="59.4" y2="43.5"/>
		<line class="st0" x1="54.5" y1="31.5" x2="55.5" y2="31.5"/>
	</g>
</g>
<rect class="st1" width="60" height="60"/>
</svg>