<svg width="72" height="72" fill="none" xmlns="http://www.w3.org/2000/svg"><path d="M60.837 12.391V2.165H50.752M21.248 2.165H11.163v10.226M50.752 52.534h10.085V42.307M11.163 42.307v10.227h10.085M21.352 18.216v18.197M25.014 18.286v18.197M28.676 18.219v12.357M32.338 18.219v12.357M36 18.286v14.818M39.662 18.219v12.357M43.324 18.219v12.357M46.986 18.286v18.197M50.648 18.286v18.197M32.267 38.008h8.231c.902 0 1.633.742 1.633 1.656v0c0 .915-.73 1.656-1.633 1.656h-8.23a1.645 1.645 0 01-1.634-1.656v0c0-.914.731-1.656 1.633-1.656z" stroke="#010101" stroke-linecap="round" stroke-linejoin="round"/><path d="M47.163 40.261h7.646V14.438H17.191v25.823h8.56" stroke="#010101" stroke-linecap="round" stroke-linejoin="round"/><path d="M36.506 66.816a4.587 4.587 0 01-3.26-1.372 4.716 4.716 0 01-1.353-3.306V50.695c0-1.41-.064-2.792-.939-3.89l-1.672-2.1a7.14 7.14 0 01-1.546-4.436v-2.144c0-.701.276-1.373.764-1.869a2.592 2.592 0 011.843-.775h12.22c.692 0 1.355.28 1.844.775.489.496.764 1.168.765 1.869v2.144a7.145 7.145 0 01-1.547 4.437l-1.672 2.1c-.875 1.097-.834 2.479-.834 3.89v11.442a4.717 4.717 0 01-1.353 3.306 4.587 4.587 0 01-3.26 1.372zM53.749 70.794l-9.255-.013c-4.724-.003-8.338.83-8.336-3.96" stroke="#010101" stroke-linecap="round" stroke-linejoin="round"/><path d="M31.913 50.693h9.19" stroke="#010101" stroke-miterlimit="10"/></svg>