<svg width="156" height="48" viewBox="0 0 156 48" fill="none" xmlns="http://www.w3.org/2000/svg">
  <path d="M48 0H0V48H48V0Z" fill="currentColor" class="fill-brand"/>
  <path d="M12.9664 12.3184L36.1868 23.865L12.9385 35.6798L27.8918 23.9007L12.9664 12.3184Z" fill="currentColor" class="fill-neutral"/>
  <path d="M64.5419 35.8739L64.0051 34.2779H60.9148L60.3707 35.8739H59.3334L61.8143 28.7429H63.0983L65.5865 35.8739H64.5419ZM62.46 29.744L61.2267 33.3711H63.7004L62.46 29.744Z" fill="currentColor" class="fill-neutral"/>
  <path d="M68.7131 29.5553C68.6623 29.5553 68.568 29.5553 68.5317 29.5771C68.4011 29.6496 68.0529 29.9471 68.0457 30.0994C68.0457 30.1357 68.0457 30.1719 68.0457 30.2082V30.7523H69.482V31.6228H68.0457V35.881H67.1171V31.6228H66.2756V30.7523H67.1171V30.1792C67.1171 29.9325 67.1679 29.6932 67.3057 29.49C67.4 29.3595 67.6975 29.0475 67.8788 28.917C68.111 28.7719 68.4156 28.6848 68.7058 28.6848H69.6706V29.5553H68.7131Z" fill="currentColor" class="fill-neutral"/>
  <path d="M73.2542 29.5553C73.2034 29.5553 73.1091 29.5553 73.0728 29.577C72.9423 29.6496 72.5941 29.947 72.5868 30.0993C72.5868 30.1356 72.5868 30.1719 72.5868 30.2081V30.7522H74.0232V31.6227H72.5868V35.881H71.6583V31.6227H70.8168V30.7522H71.6583V30.1791C71.6583 29.9325 71.709 29.6931 71.8469 29.49C71.9412 29.3594 72.2386 29.0475 72.42 28.9169C72.6448 28.7645 72.9568 28.6775 73.2397 28.6775H74.2045V29.548H73.2542V29.5553Z" fill="currentColor" class="fill-neutral"/>
  <path d="M78.8835 35.8737L78.8255 35.4675C78.5861 35.6778 78.2234 35.939 77.8969 35.939H76.8523C76.5694 35.939 76.2575 35.8519 76.0471 35.6996C75.8657 35.569 75.5828 35.2716 75.4885 35.141C75.3434 34.9524 75.2854 34.713 75.2854 34.4664V34.2415C75.2854 33.9948 75.3434 33.7555 75.4885 33.5668C75.5828 33.4363 75.8657 33.1388 76.0471 33.0083C76.2575 32.8559 76.5694 32.7834 76.8523 32.7834H78.7747V32.203C78.7747 32.1668 78.7747 32.1087 78.7384 32.0507C78.6441 31.8984 78.4192 31.6952 78.2524 31.6082C78.2016 31.5864 78.1798 31.5719 78.1073 31.5719H76.9901C76.7798 31.5719 76.5621 31.8258 76.4461 31.9782C76.388 32.0507 76.2937 32.1885 76.2937 32.1885L75.4232 31.9274C75.5683 31.5864 75.96 31.1077 76.2067 30.9263C76.4316 30.774 76.7435 30.7014 77.0264 30.7014H78.1218C78.4047 30.7014 78.7312 30.7885 78.9415 30.9408C79.1229 31.0714 79.4203 31.3688 79.5146 31.4994C79.6597 31.7025 79.7032 31.9491 79.7032 32.1885V34.9452L79.7975 35.881H78.8835V35.8737ZM78.7747 33.6176H76.8596C76.787 33.6176 76.7508 33.6321 76.7145 33.6394C76.5476 33.7337 76.3083 33.9586 76.2285 34.1254C76.2139 34.1472 76.2067 34.169 76.2067 34.2415V34.4446C76.2067 34.5172 76.2212 34.5389 76.2285 34.5607C76.3083 34.7275 76.5476 34.9306 76.7145 35.025C76.7508 35.0395 76.787 35.0612 76.8596 35.0612H77.8607C77.9114 35.0612 77.9405 35.0467 77.9695 35.0395C78.1726 34.9452 78.6079 34.684 78.7747 34.4446V33.6176Z" fill="currentColor" class="fill-neutral"/>
  <path d="M81.2122 29.6932V28.634H82.2785V29.6932H81.2122ZM81.2847 35.8738V30.7523H82.2132V35.8738H81.2847Z" fill="currentColor" class="fill-neutral"/>
  <path d="M87.0156 32.1886C86.885 31.942 86.6021 31.5575 86.3119 31.5575H85.6736C85.4269 31.5575 84.8538 32.0218 84.7378 32.2032V35.8738H83.8092V31.7026L83.7222 30.7523H84.6362L84.6942 31.1658C84.9336 30.9409 85.2891 30.687 85.63 30.687H86.2829C86.5658 30.687 86.8778 30.7596 87.0881 30.9119C87.3638 31.1005 87.741 31.5793 87.8861 31.9202L87.0156 32.1886Z" fill="currentColor" class="fill-neutral"/>
  <path d="M92.732 35.6997C92.5216 35.852 92.2097 35.9391 91.9268 35.9391H90.7516C90.4687 35.9391 90.1422 35.852 89.9318 35.6997C89.7505 35.5691 89.4531 35.2572 89.3588 35.1266C89.2137 34.938 89.1556 34.6986 89.1556 34.4447V32.1741C89.1556 31.9275 89.2137 31.6881 89.3588 31.4995C89.4531 31.3689 89.7505 31.057 89.9318 30.9264C90.1495 30.7741 90.4687 30.687 90.7516 30.687H91.9413C92.2242 30.687 92.5506 30.7741 92.761 30.9264C92.9424 31.057 93.2398 31.3689 93.3341 31.4995C93.4792 31.7026 93.5227 31.942 93.5227 32.1741V33.7048H90.0842V34.4157C90.0842 34.4882 90.0987 34.5245 90.1059 34.5463C90.1785 34.6769 90.3889 34.9235 90.592 35.0251C90.6428 35.0468 90.6863 35.0613 90.7443 35.0613H91.9485C92.0211 35.0613 92.0428 35.0468 92.0936 35.0251C92.2605 34.938 92.4999 34.7059 92.5796 34.5463L92.6522 34.4157L93.5227 34.6986C93.3631 35.0686 93.0294 35.4966 92.732 35.6997ZM92.5942 32.2032C92.5942 32.1814 92.5942 32.0943 92.5796 32.0726C92.4926 31.9057 92.2314 31.6808 92.0646 31.601C92.0138 31.5793 91.9921 31.5648 91.9195 31.5648H90.7443C90.7081 31.5648 90.6355 31.5793 90.5992 31.601C90.3598 31.7316 90.1857 31.8985 90.0987 32.0726C90.0842 32.0871 90.0769 32.1306 90.0769 32.2032V32.8705H92.5869V32.2032H92.5942Z" fill="currentColor" class="fill-neutral"/>
  <path d="M98.5716 32.2177C98.4265 31.9566 98.1219 31.5648 97.868 31.5648H96.5985C96.5404 31.5648 96.4824 31.5794 96.4534 31.5866C96.243 31.6954 96.1414 31.8115 96.0254 31.9928C96.0036 32.0291 95.9891 32.0726 95.9891 32.1452V32.4861C95.9891 32.6167 96.1052 32.7618 96.301 32.7691L98.2742 32.9141C98.9126 32.9649 99.4494 33.451 99.4494 34.0821V34.4883C99.4494 34.735 99.3768 34.9598 99.239 35.163C99.1447 35.308 98.8908 35.5764 98.7167 35.6998C98.4918 35.8521 98.1944 35.9392 97.9115 35.9392H96.4824C96.1995 35.9392 95.9021 35.8521 95.6772 35.6998C95.4015 35.5112 95.0606 35.0832 94.8719 34.7132L95.7642 34.4158C95.8803 34.6552 96.156 34.9598 96.3228 35.0469C96.3446 35.0614 96.4026 35.0687 96.4679 35.0687H97.9042C98.1509 35.0687 98.383 34.793 98.4991 34.6189C98.5208 34.5826 98.5354 34.5318 98.5354 34.4665V34.0748C98.5354 33.9442 98.4048 33.7992 98.2162 33.7919L96.243 33.6613C95.5974 33.6178 95.0751 33.1245 95.0751 32.4934V32.1524C95.0751 31.8985 95.1331 31.6737 95.2782 31.4705C95.3725 31.3255 95.6264 31.057 95.8005 30.9337C96.0254 30.7814 96.3228 30.6943 96.6057 30.6943H97.8389C98.1219 30.6943 98.4193 30.7814 98.6442 30.9337C98.9271 31.1368 99.2608 31.5431 99.4639 31.9203L98.5716 32.2177Z" fill="currentColor" class="fill-neutral"/>
  <path d="M65.1294 25.6887H62.9024L59.3478 14.8799H61.3717L64.0268 23.2513L66.7036 14.8799H68.713L65.1294 25.6887Z" fill="currentColor" class="fill-highlight-on-reversed"/>
  <path d="M71.0199 25.6887V14.8799H72.9205V25.6887H71.0199Z" fill="currentColor" class="fill-highlight-on-reversed"/>
  <path d="M83.3159 24.1C83.0983 24.4265 82.3729 25.1519 81.9812 25.3623C81.691 25.5219 81.2775 25.6887 80.893 25.6887H75.9384V14.8799H80.893C81.234 14.8799 81.691 14.9887 81.9957 15.1846C82.3946 15.4167 83.0838 16.1929 83.2942 16.5048C83.5263 16.8313 83.5843 17.194 83.5843 17.5349V23.0699C83.5843 23.3964 83.5336 23.7736 83.3159 24.1ZM80.7697 23.8824C80.7697 23.8824 80.8785 23.8824 80.893 23.8607C81.1469 23.7156 81.691 23.244 81.691 23.0264V17.5857C81.691 17.5857 81.691 17.5349 81.6692 17.4987C81.4516 17.136 81.0889 16.8095 80.8713 16.7007C80.8567 16.6789 80.7479 16.6789 80.7117 16.6789H77.839V23.8752H80.7697V23.8824Z" fill="currentColor" class="fill-highlight-on-reversed"/>
  <path d="M86.6021 25.6887V14.8799H93.3993V16.6862H88.5027V19.4138H93.0583V21.2201H88.5027V23.8752H93.3993V25.6815H86.6021V25.6887Z" fill="currentColor" class="fill-highlight-on-reversed"/>
  <path d="M104.121 24.1509C103.889 24.4555 103.178 25.2317 102.801 25.4494C102.511 25.6307 102.061 25.7758 101.676 25.7758H98.9271C98.5281 25.7758 98.0928 25.6307 97.8027 25.4494C97.4254 25.2317 96.7 24.4555 96.4824 24.1509C96.272 23.8244 96.1995 23.4617 96.1995 23.1208V17.4624C96.1995 17.1215 96.272 16.7588 96.4896 16.4323C96.7073 16.1276 97.4327 15.3514 97.8099 15.1338C98.1001 14.9525 98.5353 14.8074 98.9343 14.8074H101.684C102.061 14.8074 102.518 14.9525 102.808 15.1338C103.185 15.3514 103.889 16.1276 104.128 16.4323C104.346 16.7588 104.419 17.1215 104.419 17.4624V23.1208C104.411 23.4617 104.339 23.8244 104.121 24.1509ZM98.1001 23.1062C98.1001 23.1062 98.1001 23.157 98.1146 23.1788C98.3322 23.5052 98.7094 23.8462 98.9126 23.955C98.9488 23.9695 98.9851 23.9695 98.9996 23.9695H101.604C101.604 23.9695 101.655 23.9695 101.698 23.955C101.894 23.8462 102.279 23.5052 102.496 23.1788C102.518 23.1425 102.518 23.1062 102.518 23.1062V17.5205C102.518 17.5205 102.518 17.4479 102.496 17.4334C102.279 17.107 101.901 16.7443 101.698 16.6354C101.662 16.6209 101.626 16.6209 101.604 16.6209H98.9996C98.9996 16.6209 98.9271 16.6209 98.9126 16.6354C98.7167 16.7443 98.3322 17.107 98.1146 17.4334C98.1001 17.4697 98.1001 17.5205 98.1001 17.5205V23.1062Z" fill="currentColor" class="fill-highlight-on-reversed"/>
  <path d="M110.991 16.6862V25.6887H109.09V16.6862H106.16V14.8799H113.914V16.6862H110.991Z" fill="currentColor" class="fill-highlight-on-reversed"/>
  <path d="M123.664 20.0667C123.505 20.2988 122.939 20.8429 122.685 21.0242C122.54 21.1331 122.38 21.2201 122.213 21.2781L124.368 25.6887H122.308L120.298 21.4232H118.216V25.6887H116.316V14.8799H121.394C121.829 14.8799 122.315 15.025 122.678 15.2789C122.931 15.4602 123.49 16.0406 123.657 16.2727C123.874 16.5991 123.983 16.9981 123.983 17.3753V18.964C123.991 19.363 123.882 19.7402 123.664 20.0667ZM122.09 17.3899C122.09 17.3899 122.09 17.2956 122.068 17.2665C121.959 17.0707 121.669 16.708 121.488 16.6862H118.216V19.6169H121.401C121.56 19.6169 121.923 19.276 122.068 19.0221C122.068 19.0221 122.09 18.9858 122.09 18.9495V17.3899Z" fill="currentColor" class="fill-highlight-on-reversed"/>
  <path d="M134.72 24.1509C134.487 24.4555 133.776 25.2317 133.399 25.4494C133.109 25.6307 132.659 25.7758 132.275 25.7758H129.526C129.127 25.7758 128.691 25.6307 128.401 25.4494C128.024 25.2317 127.298 24.4555 127.081 24.1509C126.863 23.8244 126.791 23.4617 126.791 23.1208V17.4624C126.791 17.1215 126.863 16.7588 127.081 16.4323C127.298 16.1276 128.024 15.3514 128.401 15.1338C128.691 14.9525 129.127 14.8074 129.526 14.8074H132.275C132.652 14.8074 133.109 14.9525 133.399 15.1338C133.776 15.3514 134.48 16.1276 134.72 16.4323C134.937 16.7588 135.01 17.1215 135.01 17.4624V23.1208C135.01 23.4617 134.937 23.8244 134.72 24.1509ZM128.699 23.1062C128.699 23.1062 128.699 23.157 128.72 23.1788C128.938 23.5052 129.315 23.8462 129.518 23.955C129.555 23.9695 129.591 23.9695 129.613 23.9695H132.217C132.217 23.9695 132.275 23.9695 132.311 23.955C132.507 23.8462 132.891 23.5052 133.109 23.1788C133.131 23.1425 133.131 23.1062 133.131 23.1062V17.5205C133.131 17.5205 133.131 17.4479 133.109 17.4334C132.891 17.107 132.514 16.7443 132.311 16.6354C132.275 16.6209 132.239 16.6209 132.217 16.6209H129.613C129.613 16.6209 129.54 16.6209 129.518 16.6354C129.322 16.7443 128.938 17.107 128.72 17.4334C128.699 17.4697 128.699 17.5205 128.699 17.5205V23.1062Z" fill="currentColor" class="fill-highlight-on-reversed"/>
  <path d="M143.468 25.6887L139.725 18.5143V25.6887H137.824V14.8799H139.87L143.577 22.1486V14.8799H145.478V25.6887H143.468Z" fill="currentColor" class="fill-highlight-on-reversed"/>
  <path d="M92.5723 12H90.5048L89.1338 13.77H90.8603L92.5723 12Z" fill="currentColor" class="fill-highlight-on-reversed"/>
</svg>
