<svg viewBox="0 0 256 72" fill="none" xmlns="http://www.w3.org/2000/svg">
    <path d="M72 0H0V72H72V0Z" class="fill-brand" />
    <path d="M19.4495 18.4777L54.2801 35.7976L19.4077 53.5198L41.8377 35.8511L19.4495 18.4777Z" fill="currentColor" class="fill-neutral" />
    <path d="M100.142 43.4922H97.0438L92.0734 28.3705H94.8976L98.6069 40.0783L102.339 28.3705H105.136L100.142 43.4922Z" fill="currentColor" />
    <path d="M108.36 43.4922V28.3705H111.008V43.4922H108.36Z" fill="currentColor" />
    <path d="M125.509 41.2666C124.988 41.9556 124.358 42.5537 123.643 43.0365C123.182 43.3081 122.663 43.4644 122.129 43.4922H115.219V28.3705H122.129C122.67 28.3751 123.201 28.5234 123.666 28.8003C124.358 29.3236 124.97 29.9453 125.483 30.6457C125.769 31.0696 125.91 31.5749 125.886 32.0861V39.8252C125.904 40.3324 125.773 40.8337 125.509 41.2666ZM121.953 40.9628C121.953 40.9628 122.104 40.9628 122.129 40.938C122.482 40.7313 123.239 40.0783 123.239 39.7746V32.1636C123.239 32.1203 123.23 32.0775 123.214 32.0375C122.939 31.5819 122.558 31.1997 122.104 30.9237C122.031 30.9016 121.954 30.8932 121.878 30.8989H117.869V40.9638L121.953 40.9628Z" fill="currentColor" />
    <path d="M130.095 43.4922V28.3705H139.574V30.8989H132.74V34.7219H139.093V37.2503H132.739V40.97H139.573V43.4994L130.095 43.4922Z" fill="currentColor" />
    <path d="M154.529 41.3431C153.999 42.0293 153.38 42.6415 152.689 43.1637C152.214 43.4464 151.676 43.6029 151.125 43.6183H147.292C146.74 43.6066 146.2 43.4499 145.728 43.1637C145.03 42.6488 144.41 42.0356 143.887 41.3431C143.611 40.9124 143.47 40.4084 143.483 39.8965V31.9818C143.471 31.4719 143.612 30.9702 143.887 30.5414C144.41 29.8487 145.03 29.2355 145.728 28.7208C146.2 28.4343 146.739 28.2772 147.292 28.2651H151.125C151.676 28.2809 152.215 28.4378 152.689 28.7208C153.38 29.2427 153.999 29.855 154.529 30.5414C154.804 30.9703 154.944 31.472 154.932 31.9818V39.8965C154.945 40.4083 154.805 40.9123 154.529 41.3431ZM146.132 39.8759C146.132 39.8759 146.132 39.9513 146.157 39.9792C146.453 40.4101 146.83 40.7793 147.267 41.0662C147.306 41.0842 147.349 41.0927 147.393 41.091H151.024C151.067 41.0908 151.109 41.0824 151.149 41.0662C151.586 40.7796 151.963 40.4103 152.259 39.9792C152.274 39.9469 152.283 39.9117 152.284 39.8759V32.0624C152.284 32.0624 152.284 31.959 152.259 31.9363C151.963 31.498 151.586 31.12 151.149 30.8225C151.11 30.8047 151.067 30.7962 151.024 30.7977H147.393C147.393 30.7977 147.29 30.7977 147.267 30.8225C146.83 31.1202 146.454 31.4981 146.157 31.9363C146.141 31.9764 146.133 32.0192 146.132 32.0624V39.8759Z" fill="currentColor" />
    <path d="M164.109 30.8989V43.4922H161.461V30.8989H157.377V28.3705H168.196V30.8989H164.109Z" fill="currentColor" />
    <path d="M181.793 35.6281C181.391 36.1254 180.935 36.576 180.432 36.9713C180.233 37.1231 180.012 37.2423 179.776 37.3247L182.776 43.4922H179.902L177.103 37.5282H174.204V43.4963H171.556V28.3705H178.641C179.28 28.3763 179.902 28.5695 180.432 28.9264C180.936 29.3383 181.392 29.8047 181.793 30.3171C182.091 30.7761 182.249 31.3122 182.248 31.8598V34.0844C182.253 34.6328 182.095 35.1703 181.793 35.6281ZM179.601 31.8856C179.602 31.8257 179.593 31.766 179.575 31.7089C179.425 31.431 179.021 30.9247 178.769 30.8989H174.205V34.9957H178.643C178.869 34.9957 179.374 34.5153 179.575 34.1619C179.591 34.1297 179.6 34.0945 179.601 34.0586V31.8856Z" fill="currentColor" />
    <path d="M197.209 41.3431C196.679 42.0295 196.06 42.6418 195.368 43.1637C194.894 43.4464 194.356 43.6029 193.804 43.6183H189.971C189.419 43.6066 188.88 43.4499 188.407 43.1637C187.709 42.649 187.09 42.0358 186.567 41.3431C186.291 40.9124 186.15 40.4084 186.163 39.8965V31.9818C186.151 31.4719 186.292 30.9702 186.567 30.5414C187.089 29.8485 187.709 29.2352 188.407 28.7208C188.88 28.4343 189.419 28.2772 189.971 28.2651H193.804C194.356 28.2809 194.894 28.4378 195.368 28.7208C196.06 29.2425 196.679 29.8548 197.209 30.5414C197.484 30.9702 197.625 31.4719 197.612 31.9818V39.8965C197.625 40.4084 197.485 40.9124 197.209 41.3431ZM188.812 39.8759C188.812 39.8759 188.812 39.9513 188.837 39.9792C189.133 40.41 189.509 40.7792 189.946 41.0662C189.985 41.0843 190.029 41.0928 190.072 41.091H193.703C193.746 41.0909 193.789 41.0825 193.829 41.0662C194.266 40.7796 194.643 40.4103 194.939 39.9792C194.954 39.9469 194.963 39.9117 194.963 39.8759V32.0624C194.963 32.0624 194.963 31.959 194.939 31.9363C194.642 31.498 194.266 31.12 193.829 30.8225C193.79 30.8046 193.747 30.7961 193.703 30.7977H190.072C190.072 30.7977 189.969 30.7977 189.946 30.8225C189.509 31.1203 189.133 31.4982 188.837 31.9363C188.821 31.9763 188.812 32.0191 188.812 32.0624V39.8759Z" fill="currentColor" />
    <path d="M209.42 43.4922L204.201 33.4531V43.4922H201.553V28.3705H204.403L209.572 38.5357V28.3705H212.219V43.4922H209.42Z" fill="currentColor" />
    <path d="M138.424 24.3439H135.533L133.622 26.8237H136.032L138.424 24.3439Z" fill="currentColor" />
</svg>
