<svg width="216" height="72" viewBox="0 0 216 72" fill="none" xmlns="http://www.w3.org/2000/svg">
<path d="M72 0H0V72H72V0Z" fill="currentColor" class="fill-brand"/>
<path d="M19.4496 18.4777L54.2802 35.7976L19.4077 53.5198L41.8377 35.8511L19.4496 18.4777Z" fill="currentColor" class="fill-neutral"/>
<path d="M101.464 43V28.648H98.608L95.296 35.728L91.936 28.648H89.056V43H91.576V33.208L94.432 39.472H96.088L98.944 33.184V43H101.464ZM113.587 32.632H111.043L108.595 39.664L106.171 32.632H103.483L107.299 43H107.515L106.075 46.888H108.499L113.587 32.632ZM132.188 43L127.196 28.648H124.268L119.252 43H121.94L122.996 39.952H128.444L129.5 43H132.188ZM127.652 37.552H123.788L125.732 31.888L127.652 37.552ZM136.24 39.952V35.68C136.24 35.68 136.24 35.608 136.288 35.536C136.456 35.248 136.768 35.008 137.056 34.84C137.056 34.84 137.152 34.792 137.2 34.792H139.528C139.768 34.792 140.272 35.248 140.416 35.416C140.416 35.416 140.44 35.44 140.488 35.512L142.72 34.84C142.456 34.192 141.664 33.4 141.184 33.064C140.728 32.752 140.032 32.512 139.456 32.512H137.176C136.576 32.512 135.904 32.68 135.424 33.016C135.064 33.28 134.464 33.904 134.272 34.192C133.936 34.648 133.84 35.176 133.84 35.656V39.976C133.84 40.456 133.936 40.984 134.272 41.44C134.464 41.728 135.064 42.352 135.424 42.616C135.904 42.952 136.576 43.12 137.176 43.12H139.48C140.056 43.12 140.752 42.88 141.208 42.568C141.592 42.304 142.504 41.368 142.744 40.792L140.512 40.12C140.464 40.192 140.44 40.216 140.44 40.216C140.296 40.384 139.792 40.84 139.552 40.84H137.2C137.152 40.84 137.056 40.792 137.056 40.792C136.768 40.624 136.456 40.384 136.288 40.096C136.24 40.024 136.24 39.952 136.24 39.952ZM147.49 39.952V35.68C147.49 35.68 147.49 35.608 147.538 35.536C147.706 35.248 148.018 35.008 148.306 34.84C148.306 34.84 148.402 34.792 148.45 34.792H150.778C151.018 34.792 151.522 35.248 151.666 35.416C151.666 35.416 151.69 35.44 151.738 35.512L153.97 34.84C153.706 34.192 152.914 33.4 152.434 33.064C151.978 32.752 151.282 32.512 150.706 32.512H148.426C147.826 32.512 147.154 32.68 146.674 33.016C146.314 33.28 145.714 33.904 145.522 34.192C145.186 34.648 145.09 35.176 145.09 35.656V39.976C145.09 40.456 145.186 40.984 145.522 41.44C145.714 41.728 146.314 42.352 146.674 42.616C147.154 42.952 147.826 43.12 148.426 43.12H150.73C151.306 43.12 152.002 42.88 152.458 42.568C152.842 42.304 153.754 41.368 153.994 40.792L151.762 40.12C151.714 40.192 151.69 40.216 151.69 40.216C151.546 40.384 151.042 40.84 150.802 40.84H148.45C148.402 40.84 148.306 40.792 148.306 40.792C148.018 40.624 147.706 40.384 147.538 40.096C147.49 40.024 147.49 39.952 147.49 39.952ZM165.22 39.976V35.656C165.22 35.176 165.148 34.648 164.812 34.192C164.62 33.904 164.02 33.304 163.66 33.04C163.18 32.704 162.508 32.512 161.908 32.512H159.652C159.052 32.512 158.404 32.704 157.924 33.04C157.564 33.304 156.94 33.904 156.748 34.192C156.412 34.648 156.34 35.176 156.34 35.656V39.976C156.34 40.456 156.412 40.984 156.748 41.44C156.94 41.728 157.564 42.352 157.924 42.616C158.404 42.952 159.052 43.12 159.652 43.12H161.908C162.508 43.12 163.18 42.952 163.66 42.616C164.02 42.352 164.62 41.728 164.812 41.44C165.148 40.984 165.22 40.456 165.22 39.976ZM158.74 35.728C158.74 35.728 158.74 35.632 158.764 35.584C158.932 35.296 159.268 34.984 159.556 34.816C159.604 34.792 159.628 34.792 159.676 34.792H161.884C161.932 34.792 161.956 34.792 162.004 34.816C162.292 34.984 162.652 35.344 162.796 35.584C162.82 35.656 162.82 35.704 162.82 35.728V40.096C162.796 40.288 162.244 40.672 162.028 40.792C161.98 40.816 161.932 40.84 161.884 40.84H159.676C159.58 40.84 159.532 40.816 159.532 40.816C159.244 40.648 158.74 40.288 158.74 40.096V35.728ZM176.918 43L176.702 40.864V32.632H174.302V39.856C173.99 40.192 173.126 40.816 172.886 40.816H171.182C171.11 40.816 171.086 40.816 171.038 40.792C170.774 40.624 170.39 40.336 170.246 40.072C170.222 40.024 170.222 39.928 170.222 39.904V32.632H167.822V39.952C167.822 40.432 167.918 40.96 168.254 41.416C168.446 41.704 169.046 42.328 169.406 42.592C169.886 42.928 170.558 43.096 171.158 43.096H172.958C173.51 43.096 174.038 42.712 174.47 42.4L174.566 43H176.918ZM188.685 43V35.656C188.685 35.176 188.589 34.648 188.253 34.192C188.061 33.904 187.461 33.304 187.101 33.04C186.621 32.704 185.949 32.512 185.349 32.512H183.573C183.021 32.512 182.493 32.872 182.061 33.184L181.941 32.632H179.589L179.829 34.768V43H182.229V35.776C182.541 35.44 183.189 34.792 183.645 34.792H185.325C185.397 34.792 185.493 34.792 185.517 34.816C185.781 34.984 186.117 35.296 186.261 35.56C186.285 35.608 186.285 35.68 186.285 35.704V43H188.685ZM194.688 34.912H197.664V32.632H194.688V28.648H192.288V32.632H190.68V34.912H192.288V39.808C192.288 40.336 192.432 40.864 192.744 41.32C192.936 41.584 193.512 42.232 193.896 42.496C194.376 42.832 195.024 43 195.624 43H197.64V40.72H195.648C195.312 40.72 194.856 40.192 194.712 39.928C194.688 39.88 194.688 39.784 194.688 39.784V34.912Z" fill="currentColor"/>
</svg>
