<svg width="169" height="48" viewBox="0 0 169 48" fill="none" xmlns="http://www.w3.org/2000/svg">
<path d="M48 0H0V48H48V0Z" fill="currentColor" class="fill-brand"/>
<path d="M12.9664 12.3185L36.1868 23.8651L12.9385 35.6799L27.8918 23.9008L12.9664 12.3185Z" fill="currentColor" class="fill-neutral"/>
<path d="M75.22 30V18.04H72.84L70.08 23.94L67.28 18.04H64.88V30H66.98V21.84L69.36 27.06H70.74L73.12 21.82V30H75.22ZM84.9227 21.36H82.8027L80.7627 27.22L78.7427 21.36H76.5027L79.6827 30H79.8627L78.6627 33.24H80.6827L84.9227 21.36ZM99.6234 30L95.4634 18.04H93.0234L88.8434 30H91.0834L91.9634 27.46H96.5034L97.3834 30H99.6234ZM95.8434 25.46H92.6234L94.2434 20.74L95.8434 25.46ZM102.6 27.46V23.9C102.6 23.9 102.6 23.84 102.64 23.78C102.78 23.54 103.04 23.34 103.28 23.2C103.28 23.2 103.36 23.16 103.4 23.16H105.34C105.54 23.16 105.96 23.54 106.08 23.68C106.08 23.68 106.1 23.7 106.14 23.76L108 23.2C107.78 22.66 107.12 22 106.72 21.72C106.34 21.46 105.76 21.26 105.28 21.26H103.38C102.88 21.26 102.32 21.4 101.92 21.68C101.62 21.9 101.12 22.42 100.96 22.66C100.68 23.04 100.6 23.48 100.6 23.88V27.48C100.6 27.88 100.68 28.32 100.96 28.7C101.12 28.94 101.62 29.46 101.92 29.68C102.32 29.96 102.88 30.1 103.38 30.1H105.3C105.78 30.1 106.36 29.9 106.74 29.64C107.06 29.42 107.82 28.64 108.02 28.16L106.16 27.6C106.12 27.66 106.1 27.68 106.1 27.68C105.98 27.82 105.56 28.2 105.36 28.2H103.4C103.36 28.2 103.28 28.16 103.28 28.16C103.04 28.02 102.78 27.82 102.64 27.58C102.6 27.52 102.6 27.46 102.6 27.46ZM111.575 27.46V23.9C111.575 23.9 111.575 23.84 111.615 23.78C111.755 23.54 112.015 23.34 112.255 23.2C112.255 23.2 112.335 23.16 112.375 23.16H114.315C114.515 23.16 114.935 23.54 115.055 23.68C115.055 23.68 115.075 23.7 115.115 23.76L116.975 23.2C116.755 22.66 116.095 22 115.695 21.72C115.315 21.46 114.735 21.26 114.255 21.26H112.355C111.855 21.26 111.295 21.4 110.895 21.68C110.595 21.9 110.095 22.42 109.935 22.66C109.655 23.04 109.575 23.48 109.575 23.88V27.48C109.575 27.88 109.655 28.32 109.935 28.7C110.095 28.94 110.595 29.46 110.895 29.68C111.295 29.96 111.855 30.1 112.355 30.1H114.275C114.755 30.1 115.335 29.9 115.715 29.64C116.035 29.42 116.795 28.64 116.995 28.16L115.135 27.6C115.095 27.66 115.075 27.68 115.075 27.68C114.955 27.82 114.535 28.2 114.335 28.2H112.375C112.335 28.2 112.255 28.16 112.255 28.16C112.015 28.02 111.755 27.82 111.615 27.58C111.575 27.52 111.575 27.46 111.575 27.46ZM125.95 27.48V23.88C125.95 23.48 125.89 23.04 125.61 22.66C125.45 22.42 124.95 21.92 124.65 21.7C124.25 21.42 123.69 21.26 123.19 21.26H121.31C120.81 21.26 120.27 21.42 119.87 21.7C119.57 21.92 119.05 22.42 118.89 22.66C118.61 23.04 118.55 23.48 118.55 23.88V27.48C118.55 27.88 118.61 28.32 118.89 28.7C119.05 28.94 119.57 29.46 119.87 29.68C120.27 29.96 120.81 30.1 121.31 30.1H123.19C123.69 30.1 124.25 29.96 124.65 29.68C124.95 29.46 125.45 28.94 125.61 28.7C125.89 28.32 125.95 27.88 125.95 27.48ZM120.55 23.94C120.55 23.94 120.55 23.86 120.57 23.82C120.71 23.58 120.99 23.32 121.23 23.18C121.27 23.16 121.29 23.16 121.33 23.16H123.17C123.21 23.16 123.23 23.16 123.27 23.18C123.51 23.32 123.81 23.62 123.93 23.82C123.95 23.88 123.95 23.92 123.95 23.94V27.58C123.93 27.74 123.47 28.06 123.29 28.16C123.25 28.18 123.21 28.2 123.17 28.2H121.33C121.25 28.2 121.21 28.18 121.21 28.18C120.97 28.04 120.55 27.74 120.55 27.58V23.94ZM135.298 30L135.118 28.22V21.36H133.118V27.38C132.858 27.66 132.138 28.18 131.938 28.18H130.518C130.458 28.18 130.438 28.18 130.398 28.16C130.178 28.02 129.858 27.78 129.738 27.56C129.718 27.52 129.718 27.44 129.718 27.42V21.36H127.718V27.46C127.718 27.86 127.798 28.3 128.078 28.68C128.238 28.92 128.738 29.44 129.038 29.66C129.438 29.94 129.998 30.08 130.498 30.08H131.998C132.458 30.08 132.898 29.76 133.258 29.5L133.338 30H135.298ZM144.704 30V23.88C144.704 23.48 144.624 23.04 144.344 22.66C144.184 22.42 143.684 21.92 143.384 21.7C142.984 21.42 142.424 21.26 141.924 21.26H140.444C139.984 21.26 139.544 21.56 139.184 21.82L139.084 21.36H137.124L137.324 23.14V30H139.324V23.98C139.584 23.7 140.124 23.16 140.504 23.16H141.904C141.964 23.16 142.044 23.16 142.064 23.18C142.284 23.32 142.564 23.58 142.684 23.8C142.704 23.84 142.704 23.9 142.704 23.92V30H144.704ZM149.306 23.26H151.786V21.36H149.306V18.04H147.306V21.36H145.966V23.26H147.306V27.34C147.306 27.78 147.426 28.22 147.686 28.6C147.846 28.82 148.326 29.36 148.646 29.58C149.046 29.86 149.586 30 150.086 30H151.766V28.1H150.106C149.826 28.1 149.446 27.66 149.326 27.44C149.306 27.4 149.306 27.32 149.306 27.32V23.26Z" fill="currentColor"/>
</svg>
