<svg width="156" height="48" viewBox="0 0 156 48" fill="none" xmlns="http://www.w3.org/2000/svg">
  <path d="M48 0H0V48H48V0Z" fill="currentColor" class="fill-brand"/>
  <path d="M12.9664 12.3184L36.1868 23.865L12.9385 35.6798L27.8918 23.9007L12.9664 12.3184Z" fill="currentColor" class="fill-neutral"/>
  <path d="M65.355 25.6887H63.1279L59.5734 14.8799H61.5973L64.2524 23.2513L66.9292 14.8799H68.9386L65.355 25.6887Z" fill="currentColor" class="fill-highlight-on-reversed"/>
  <path d="M71.2455 25.6887V14.8799H73.1461V25.6887H71.2455Z" fill="currentColor" class="fill-highlight-on-reversed"/>
  <path d="M83.5415 24.1C83.3239 24.4265 82.5985 25.1519 82.2067 25.3623C81.9166 25.5219 81.5031 25.6887 81.1186 25.6887H76.1639V14.8799H81.1186C81.4595 14.8799 81.9166 14.9887 82.2212 15.1846C82.6202 15.4167 83.3094 16.1929 83.5198 16.5048C83.7519 16.8313 83.8099 17.194 83.8099 17.5349V23.0699C83.8099 23.3964 83.7591 23.7736 83.5415 24.1ZM80.9953 23.8824C80.9953 23.8824 81.1041 23.8824 81.1186 23.8607C81.3725 23.7156 81.9166 23.244 81.9166 23.0264V17.5857C81.9166 17.5857 81.9166 17.5349 81.8948 17.4987C81.6772 17.136 81.3145 16.8095 81.0968 16.7007C81.0823 16.6789 80.9735 16.6789 80.9372 16.6789H78.0646V23.8752H80.9953V23.8824Z" fill="currentColor" class="fill-highlight-on-reversed"/>
  <path d="M86.8276 25.6887V14.8799H93.6249V16.6862H88.7283V19.4138H93.2839V21.2201H88.7283V23.8752H93.6249V25.6815H86.8276V25.6887Z" fill="currentColor" class="fill-highlight-on-reversed"/>
  <path d="M104.347 24.1509C104.115 24.4555 103.404 25.2317 103.026 25.4494C102.736 25.6307 102.286 25.7758 101.902 25.7758H99.1527C98.7537 25.7758 98.3184 25.6307 98.0282 25.4494C97.651 25.2317 96.9256 24.4555 96.708 24.1509C96.4976 23.8244 96.425 23.4617 96.425 23.1208V17.4624C96.425 17.1215 96.4976 16.7588 96.7152 16.4323C96.9328 16.1276 97.6583 15.3514 98.0355 15.1338C98.3257 14.9525 98.7609 14.8074 99.1599 14.8074H101.909C102.286 14.8074 102.744 14.9525 103.034 15.1338C103.411 15.3514 104.115 16.1276 104.354 16.4323C104.572 16.7588 104.644 17.1215 104.644 17.4624V23.1208C104.637 23.4617 104.564 23.8244 104.347 24.1509ZM98.3257 23.1062C98.3257 23.1062 98.3257 23.157 98.3402 23.1788C98.5578 23.5052 98.935 23.8462 99.1381 23.955C99.1744 23.9695 99.2107 23.9695 99.2252 23.9695H101.829C101.829 23.9695 101.88 23.9695 101.924 23.955C102.12 23.8462 102.504 23.5052 102.722 23.1788C102.744 23.1425 102.744 23.1062 102.744 23.1062V17.5205C102.744 17.5205 102.744 17.4479 102.722 17.4334C102.504 17.107 102.127 16.7443 101.924 16.6354C101.888 16.6209 101.851 16.6209 101.829 16.6209H99.2252C99.2252 16.6209 99.1526 16.6209 99.1381 16.6354C98.9423 16.7443 98.5578 17.107 98.3402 17.4334C98.3257 17.4697 98.3257 17.5205 98.3257 17.5205V23.1062Z" fill="currentColor" class="fill-highlight-on-reversed"/>
  <path d="M111.216 16.6862V25.6887H109.316V16.6862H106.385V14.8799H114.14V16.6862H111.216Z" fill="currentColor" class="fill-highlight-on-reversed"/>
  <path d="M123.89 20.0667C123.73 20.2988 123.164 20.8429 122.91 21.0242C122.765 21.1331 122.606 21.2201 122.439 21.2781L124.593 25.6887H122.533L120.524 21.4232H118.442V25.6887H116.541V14.8799H121.619C122.054 14.8799 122.54 15.025 122.903 15.2789C123.157 15.4602 123.715 16.0406 123.882 16.2727C124.1 16.5991 124.209 16.9981 124.209 17.3753V18.964C124.216 19.363 124.107 19.7402 123.89 20.0667ZM122.315 17.3899C122.315 17.3899 122.315 17.2956 122.294 17.2665C122.185 17.0707 121.895 16.708 121.713 16.6862H118.442V19.6169H121.626C121.786 19.6169 122.149 19.276 122.294 19.0221C122.294 19.0221 122.315 18.9858 122.315 18.9495V17.3899Z" fill="currentColor" class="fill-highlight-on-reversed"/>
  <path d="M134.945 24.1509C134.713 24.4555 134.002 25.2317 133.625 25.4494C133.335 25.6307 132.885 25.7758 132.501 25.7758H129.751C129.352 25.7758 128.917 25.6307 128.627 25.4494C128.25 25.2317 127.524 24.4555 127.307 24.1509C127.089 23.8244 127.016 23.4617 127.016 23.1208V17.4624C127.016 17.1215 127.089 16.7588 127.307 16.4323C127.524 16.1276 128.25 15.3514 128.627 15.1338C128.917 14.9525 129.352 14.8074 129.751 14.8074H132.501C132.878 14.8074 133.335 14.9525 133.625 15.1338C134.002 15.3514 134.706 16.1276 134.945 16.4323C135.163 16.7588 135.235 17.1215 135.235 17.4624V23.1208C135.235 23.4617 135.163 23.8244 134.945 24.1509ZM128.924 23.1062C128.924 23.1062 128.924 23.157 128.946 23.1788C129.164 23.5052 129.541 23.8462 129.744 23.955C129.78 23.9695 129.816 23.9695 129.838 23.9695H132.443C132.443 23.9695 132.501 23.9695 132.537 23.955C132.733 23.8462 133.117 23.5052 133.335 23.1788C133.357 23.1425 133.357 23.1062 133.357 23.1062V17.5205C133.357 17.5205 133.357 17.4479 133.335 17.4334C133.117 17.107 132.74 16.7443 132.537 16.6354C132.501 16.6209 132.464 16.6209 132.443 16.6209H129.838C129.838 16.6209 129.766 16.6209 129.744 16.6354C129.548 16.7443 129.164 17.107 128.946 17.4334C128.924 17.4697 128.924 17.5205 128.924 17.5205V23.1062Z" fill="currentColor" class="fill-highlight-on-reversed"/>
  <path d="M143.694 25.6887L139.951 18.5143V25.6887H138.05V14.8799H140.096L143.803 22.1486V14.8799H145.703V25.6887H143.694Z" fill="currentColor" class="fill-highlight-on-reversed"/>
  <path d="M65.4787 34.8005C65.3842 34.9459 65.0133 35.3168 64.846 35.4332C64.6279 35.5859 64.3224 35.6804 64.0461 35.6804H60.6864V28.532H64.0461C64.3297 28.532 64.6279 28.6411 64.846 28.7938C65.0133 28.9101 65.3842 29.2737 65.4787 29.4119C65.6241 29.6155 65.6678 29.8628 65.6678 30.1027V30.9754C65.6678 31.499 65.4569 31.7244 65.0933 32.0589C65.4496 32.3934 65.6678 32.6189 65.6678 33.1425V34.1315C65.6678 34.3715 65.6096 34.5969 65.4787 34.8005ZM64.686 30.1173C64.686 30.0591 64.6715 30.0082 64.6642 30.0009C64.5697 29.8337 64.257 29.4628 64.0316 29.4628H61.6609V31.6081H64.0461C64.2643 31.6081 64.5842 31.2517 64.6642 31.0845C64.6788 31.0627 64.686 31.0118 64.686 30.9536V30.1173ZM64.686 33.157C64.686 33.0988 64.6715 33.0625 64.6642 33.0407C64.5842 32.8734 64.3297 32.6262 64.1624 32.5389C64.1479 32.5243 64.1043 32.5243 64.0461 32.5243H61.6609V34.7496H64.0316C64.257 34.7496 64.577 34.3933 64.6642 34.226C64.6788 34.2042 64.686 34.1678 64.686 34.1097V33.157Z" fill="currentColor" class="fill-neutral"/>
  <path d="M70.8309 35.6804L70.78 35.2659C70.54 35.4768 70.1837 35.7313 69.8492 35.7313H68.9547C68.6711 35.7313 68.3438 35.6441 68.133 35.4913C67.9512 35.3604 67.653 35.0477 67.5585 34.9168C67.413 34.7132 67.3694 34.4732 67.3694 34.2405V30.5463H68.3002V34.2187C68.3002 34.2405 68.3002 34.3278 68.3148 34.3496C68.4093 34.5169 68.6638 34.7569 68.8238 34.8369C68.8747 34.8587 68.8965 34.8587 68.9692 34.8587H69.8128C70.0382 34.8587 70.6127 34.4078 70.7291 34.2478V30.5391H71.6599V34.7205L71.7544 35.6731H70.8309V35.6804Z" fill="currentColor" class="fill-neutral"/>
  <path d="M76.8814 32.0078C76.7359 31.7461 76.4305 31.3534 76.176 31.3534H74.9034C74.8452 31.3534 74.787 31.3679 74.7579 31.3752C74.547 31.4843 74.4452 31.6006 74.3289 31.7824C74.307 31.8188 74.2925 31.8624 74.2925 31.9351V32.2769C74.2925 32.4078 74.4089 32.5533 74.6052 32.5605L76.5832 32.706C77.2231 32.7569 77.7613 33.2441 77.7613 33.8768V34.284C77.7613 34.5313 77.6886 34.7567 77.5504 34.9603C77.4559 35.1057 77.2013 35.3748 77.0268 35.4984C76.8014 35.6512 76.5032 35.7384 76.2196 35.7384H74.787C74.5034 35.7384 74.2052 35.6512 73.9798 35.4984C73.7035 35.3094 73.3617 34.8803 73.1726 34.5094L74.0671 34.2113C74.1834 34.4513 74.4598 34.7567 74.627 34.844C74.6488 34.8585 74.7143 34.8658 74.7725 34.8658H76.2123C76.4596 34.8658 76.6923 34.5894 76.8086 34.4149C76.8305 34.3785 76.845 34.3276 76.845 34.2622V33.8695C76.845 33.7386 76.7141 33.5932 76.525 33.5859L74.547 33.455C73.8998 33.4114 73.3762 32.9169 73.3762 32.2842V31.9424C73.3762 31.6879 73.4344 31.4624 73.5798 31.2588C73.6744 31.1134 73.9289 30.8443 74.1034 30.7207C74.3289 30.568 74.627 30.4807 74.9106 30.4807H76.1469C76.4305 30.4807 76.7286 30.568 76.9541 30.7207C77.2377 30.9243 77.5722 31.3315 77.7758 31.7097L76.8814 32.0078Z" fill="currentColor" class="fill-neutral"/>
  <path d="M79.412 29.4846V28.4229H80.481V29.4846H79.412ZM79.4847 35.6804V30.5463H80.4155V35.6804H79.4847Z" fill="currentColor" class="fill-neutral"/>
  <path d="M85.4407 35.6803V32.0006C85.4407 31.9788 85.4407 31.8915 85.4261 31.8697C85.3461 31.7025 85.0843 31.4625 84.9171 31.3825C84.8953 31.368 84.8444 31.3607 84.7716 31.3607H83.9281C83.7027 31.3607 83.1282 31.8261 83.0118 31.9788V35.6876H82.081V31.5061L81.9865 30.5535H82.9173L82.9682 30.968C83.2082 30.7571 83.5645 30.488 83.899 30.488H84.7935C85.0771 30.488 85.4043 30.5753 85.6152 30.728C85.797 30.8589 86.0952 31.1716 86.1897 31.3025C86.3351 31.5061 86.3788 31.7461 86.3788 31.9788V35.6876H85.4407V35.6803Z" fill="currentColor" class="fill-neutral"/>
  <path d="M91.6509 35.4986C91.44 35.6513 91.1273 35.7386 90.8437 35.7386H89.6656C89.382 35.7386 89.0548 35.6513 88.8439 35.4986C88.6621 35.3677 88.3639 35.055 88.2694 34.9241C88.124 34.7351 88.0658 34.4951 88.0658 34.2406V31.9644C88.0658 31.7172 88.124 31.4772 88.2694 31.2881C88.3639 31.1572 88.6621 30.8445 88.8439 30.7136C89.0621 30.5609 89.382 30.4736 89.6656 30.4736H90.8583C91.1419 30.4736 91.4691 30.5609 91.68 30.7136C91.8618 30.8445 92.16 31.1572 92.2545 31.2881C92.3999 31.4917 92.4436 31.7317 92.4436 31.9644V33.4988H88.9966V34.2115C88.9966 34.2842 89.0112 34.3206 89.0184 34.3424C89.0912 34.4733 89.302 34.7205 89.5057 34.8223C89.5566 34.8441 89.6002 34.8587 89.6584 34.8587H90.8655C90.9383 34.8587 90.9601 34.8441 91.011 34.8223C91.1782 34.7351 91.4182 34.5024 91.4982 34.3424L91.5709 34.2115L92.4436 34.4951C92.2836 34.8732 91.9491 35.3023 91.6509 35.4986ZM91.5055 32.0008C91.5055 31.979 91.5055 31.8917 91.4909 31.8699C91.4109 31.7026 91.1419 31.4772 90.9819 31.3972C90.931 31.3754 90.9092 31.3608 90.8364 31.3608H89.6584C89.622 31.3608 89.5493 31.3754 89.5129 31.3972C89.273 31.5281 89.0984 31.6953 89.0112 31.8699C88.9966 31.8844 88.9893 31.928 88.9893 32.0008V32.6698H91.5055V32.0008Z" fill="currentColor" class="fill-neutral"/>
  <path d="M97.6358 32.0078C97.4903 31.7461 97.1849 31.3534 96.9304 31.3534H95.6578C95.5996 31.3534 95.5414 31.3679 95.5123 31.3752C95.3014 31.4843 95.1996 31.6006 95.0833 31.7824C95.0615 31.8188 95.0469 31.8624 95.0469 31.9351V32.2769C95.0469 32.4078 95.1633 32.5533 95.3596 32.5605L97.3376 32.706C97.9775 32.7569 98.5157 33.2441 98.5157 33.8768V34.284C98.5157 34.5313 98.443 34.7567 98.3048 34.9603C98.2103 35.1057 97.9557 35.3748 97.7812 35.4984C97.5558 35.6512 97.2576 35.7384 96.974 35.7384H95.5414C95.2578 35.7384 94.9596 35.6512 94.7342 35.4984C94.4579 35.3094 94.1161 34.8803 93.927 34.5094L94.8215 34.2113C94.9378 34.4513 95.2142 34.7567 95.3814 34.844C95.4032 34.8585 95.4687 34.8658 95.5269 34.8658H96.9667C97.214 34.8658 97.4467 34.5894 97.563 34.4149C97.5849 34.3785 97.5994 34.3276 97.5994 34.2622V33.8695C97.5994 33.7386 97.4685 33.5932 97.2794 33.5859L95.3014 33.455C94.6542 33.4114 94.1306 32.9169 94.1306 32.2842V31.9424C94.1306 31.6879 94.1888 31.4624 94.3342 31.2588C94.4288 31.1134 94.6833 30.8443 94.8578 30.7207C95.0833 30.568 95.3814 30.4807 95.665 30.4807H96.9013C97.1849 30.4807 97.4831 30.568 97.7085 30.7207C97.9921 30.9243 98.3266 31.3315 98.5302 31.7097L97.6358 32.0078Z" fill="currentColor" class="fill-neutral"/>
  <path d="M103.584 32.0078C103.439 31.7461 103.133 31.3534 102.879 31.3534H101.606C101.548 31.3534 101.49 31.3679 101.461 31.3752C101.25 31.4843 101.148 31.6006 101.032 31.7824C101.01 31.8188 100.995 31.8624 100.995 31.9351V32.2769C100.995 32.4078 101.112 32.5533 101.308 32.5605L103.286 32.706C103.926 32.7569 104.464 33.2441 104.464 33.8768V34.284C104.464 34.5313 104.392 34.7567 104.253 34.9603C104.159 35.1057 103.912 35.3748 103.73 35.4984C103.504 35.6512 103.206 35.7384 102.915 35.7384H101.483C101.199 35.7384 100.901 35.6512 100.675 35.4984C100.399 35.3094 100.057 34.8803 99.8683 34.5094L100.763 34.2113C100.879 34.4513 101.155 34.7567 101.323 34.844C101.345 34.8585 101.41 34.8658 101.468 34.8658H102.908C103.155 34.8658 103.388 34.5894 103.504 34.4149C103.526 34.3785 103.541 34.3276 103.541 34.2622V33.8695C103.541 33.7386 103.41 33.5932 103.221 33.5859L101.243 33.455C100.603 33.4114 100.072 32.9169 100.072 32.2842V31.9424C100.072 31.6879 100.13 31.4624 100.276 31.2588C100.37 31.1134 100.625 30.8443 100.799 30.7207C101.025 30.568 101.323 30.4807 101.606 30.4807H102.843C103.126 30.4807 103.424 30.568 103.65 30.7207C103.933 30.9243 104.268 31.3315 104.471 31.7097L103.584 32.0078Z" fill="currentColor" class="fill-neutral"/>
</svg>
