<svg width="124" height="56" viewBox="0 0 124 56" fill="none" xmlns="http://www.w3.org/2000/svg">
<path d="M26.9715 22.5675C24.1197 22.5675 21.7293 24.8868 21.6406 27.7347L21.6208 28.3757L21.0213 28.6025C19.193 29.2928 17.915 31.198 17.915 33.2353C17.915 35.6651 19.8044 37.7891 22.2145 38.0692L43.8577 38.081C46.7766 38.081 48.9874 35.7045 48.9874 32.7876C48.9874 30.772 48.0112 28.9003 46.4965 28.0187L45.9699 27.713L46.0252 27.1056C46.177 25.3957 44.7491 23.3939 42.3844 23.1434L41.7829 23.0783L41.5817 22.5103C40.5621 19.6309 38.1698 17.9131 35.1858 17.9131C32.5154 17.9131 30.2217 19.4829 29.0443 22.1159L28.7307 22.814L27.9813 22.6641C27.6499 22.5991 27.3127 22.5675 26.9715 22.5675ZM43.8577 39.9961L21.968 39.9704C18.6329 39.5799 16 36.6196 16 33.2333C16 30.6339 17.5226 28.1805 19.7689 27.0583C20.1851 23.4195 23.2381 20.6505 26.9715 20.6505C27.1884 20.6505 27.4034 20.6584 27.6164 20.6781C29.1883 17.7336 31.9711 16 35.1858 16C38.7674 16 41.7829 18.0255 43.1773 21.329C45.8812 21.8772 47.8791 24.1197 47.952 26.6796C49.7842 27.9892 50.9025 30.275 50.9025 32.7856C50.9005 36.7616 47.8357 39.9961 43.8577 39.9961Z" fill="currentColor" class="fill-highlight-on-reversed"/>
<path d="M31.0127 24.7588L40.6194 29.5809L31.0127 34.4089L34.971 29.573L31.0127 24.7588Z" fill="currentColor" class="fill-highlight-on-reversed"/>
<path d="M57.5845 21.7234H55.4189V39.7988H57.5845V21.7234Z" fill="currentColor" class="fill-highlight-on-reversed"/>
<path d="M63.3117 16.0354H61.1462V39.7731H63.3117V16.0354Z" fill="currentColor" class="fill-highlight-on-reversed"/>
<path d="M69.0371 16.0354H66.8716V39.7731H69.0371V16.0354Z" fill="currentColor" class="fill-highlight-on-reversed"/>
<path d="M72.7311 39.8007H74.8966V21.7233H72.7311V39.8007ZM72.7843 19.7925H74.8394V16.0354H72.7843V19.7925Z" fill="currentColor" class="fill-highlight-on-reversed"/>
<path d="M57.5272 16.0354H55.4722V19.7905H57.5272V16.0354Z" fill="currentColor" class="fill-highlight-on-reversed"/>
<path d="M89.2228 39.2387C88.5819 39.7199 87.6589 40 86.7773 40H82.6889C81.8073 40 80.8428 39.7199 80.2019 39.2387C79.6398 38.8383 78.7188 37.7536 78.3973 37.3138C77.9969 36.7142 77.8352 35.9904 77.8352 35.1877V27.1687C77.8352 26.366 77.9969 25.6461 78.3973 25.0426C78.7207 24.6008 79.6398 23.5201 80.2019 23.1197C80.8428 22.6385 81.8073 22.3564 82.6889 22.3564H86.657C87.5386 22.3564 88.4616 22.6385 89.1025 23.1197C90.1044 23.8396 90.9485 25.1235 91.4692 25.9656L89.3846 26.648C89.0631 25.9656 88.1006 24.9637 87.4597 24.6028C87.2605 24.4825 87.0179 24.4431 86.7378 24.4431H82.7283C82.4463 24.4431 82.2057 24.4825 82.0065 24.6028C81.3655 24.9637 80.4839 25.8867 80.123 26.5691C80.0441 26.7289 80.0027 26.9695 80.0027 27.2495V35.1108C80.0027 35.3929 80.0441 35.6315 80.123 35.7932C80.4839 36.4756 81.326 37.3986 81.967 37.7576C82.1682 37.8779 82.4088 37.9193 82.6889 37.9193H86.8601C87.1402 37.9193 87.3808 37.8779 87.5819 37.7576C88.2229 37.3986 89.1873 36.3967 89.4654 35.7932L89.5068 35.7143L91.5915 36.4342C91.1083 37.3138 90.1872 38.5563 89.2228 39.2387Z" fill="currentColor" class="fill-highlight-on-reversed"/>
<path d="M105.19 27.2476C105.19 26.9675 105.19 26.7269 105.111 26.5671C104.75 25.8848 103.827 24.9618 103.186 24.6008C102.985 24.4805 102.744 24.4411 102.462 24.4411H98.5337C98.2517 24.4411 98.0111 24.4805 97.8119 24.6008C97.1709 24.9618 96.2893 25.8848 95.9284 26.5671C95.8476 26.7269 95.8081 26.9675 95.8081 27.2476V35.1069C95.8081 35.3889 95.8495 35.6276 95.9284 35.7893C96.2893 36.4717 97.1709 37.3947 97.8119 37.7536C98.0111 37.8739 98.2537 37.9153 98.5337 37.9153H102.462C102.744 37.9153 102.985 37.8739 103.186 37.7536C103.827 37.3947 104.75 36.4717 105.111 35.7893C105.19 35.6276 105.19 35.3889 105.19 35.1069V27.2476ZM106.793 37.3138C106.47 37.7556 105.549 38.8383 104.989 39.2387C104.346 39.7199 103.383 40 102.502 40H98.4923C97.6107 40 96.6463 39.7199 96.0053 39.2387C95.4433 38.8383 94.5222 37.7536 94.2008 37.3138C93.8004 36.7142 93.6387 35.9904 93.6387 35.1877V27.1687C93.6387 26.366 93.8004 25.6461 94.2008 25.0426C94.5242 24.6008 95.4433 23.5201 96.0053 23.1197C96.6463 22.6385 97.6107 22.3564 98.4923 22.3564H102.502C103.383 22.3564 104.346 22.6385 104.989 23.1197C105.551 23.5201 106.472 24.6028 106.793 25.0426C107.194 25.6441 107.355 26.366 107.355 27.1687V35.1877C107.355 35.9904 107.194 36.7142 106.793 37.3138Z" fill="currentColor" class="fill-highlight-on-reversed"/>
</svg>
