<svg width="162" height="72" viewBox="0 0 162 72" fill="none" xmlns="http://www.w3.org/2000/svg">
<path d="M34.6287 28.7567C30.8262 28.7567 27.6391 31.8491 27.5208 35.6463L27.4945 36.5009L26.695 36.8034C24.2574 37.7237 22.5534 40.264 22.5534 42.9804C22.5534 46.2201 25.0726 49.0522 28.286 49.4256L57.1436 49.4414C61.0354 49.4414 63.9833 46.2727 63.9833 42.3834C63.9833 39.696 62.6816 37.2004 60.662 36.025L59.9599 35.6174L60.0335 34.8075C60.236 32.5276 58.3322 29.8585 55.1792 29.5245L54.3772 29.4378L54.109 28.6804C52.7495 24.8412 49.5597 22.5507 45.5811 22.5507C42.0206 22.5507 38.9623 24.6439 37.3924 28.1545L36.9743 29.0854L35.975 28.8855C35.5332 28.7988 35.0836 28.7567 34.6287 28.7567ZM57.1436 51.9948L27.9573 51.9606C23.5106 51.4399 20 47.4928 20 42.9777C20 39.5119 22.0301 36.2406 25.0252 34.7444C25.5801 29.8927 29.6508 26.2007 34.6287 26.2007C34.9179 26.2007 35.2045 26.2112 35.4885 26.2375C37.5844 22.3114 41.2948 20 45.5811 20C50.3565 20 54.3772 22.7006 56.2364 27.1053C59.8416 27.8363 62.5054 30.8262 62.6027 34.2395C65.0456 35.9855 66.5366 39.0333 66.5366 42.3808C66.534 47.6822 62.4475 51.9948 57.1436 51.9948Z" fill="currentColor" class="fill-highlight-on-reversed"/>
<path d="M40.017 31.6782L52.8259 38.1077L40.017 44.545L45.2946 38.0972L40.017 31.6782Z" fill="currentColor" class="fill-highlight-on-reversed"/>
<path d="M75.4459 27.6311H72.5586V51.7317H75.4459V27.6311Z" fill="currentColor" class="fill-highlight-on-reversed"/>
<path d="M83.0823 20.0474H80.1949V51.6976H83.0823V20.0474Z" fill="currentColor" class="fill-highlight-on-reversed"/>
<path d="M90.7161 20.0474H87.8287V51.6976H90.7161V20.0474Z" fill="currentColor" class="fill-highlight-on-reversed"/>
<path d="M95.6415 51.7345H98.5288V27.6312H95.6415V51.7345ZM95.7125 25.0568H98.4526V20.0474H95.7125V25.0568Z" fill="currentColor" class="fill-highlight-on-reversed"/>
<path d="M75.3696 20.0474H72.6295V25.0542H75.3696V20.0474Z" fill="currentColor" class="fill-highlight-on-reversed"/>
<path d="M117.63 50.985C116.776 51.6266 115.545 52 114.37 52H108.918C107.743 52 106.457 51.6266 105.602 50.985C104.853 50.4512 103.625 49.0049 103.196 48.4185C102.663 47.6191 102.447 46.654 102.447 45.5837V34.8916C102.447 33.8214 102.663 32.8616 103.196 32.0569C103.628 31.4679 104.853 30.0268 105.602 29.493C106.457 28.8514 107.743 28.4753 108.918 28.4753H114.209C115.385 28.4753 116.615 28.8514 117.47 29.493C118.806 30.4528 119.931 32.1647 120.626 33.2876L117.846 34.1974C117.417 33.2876 116.134 31.9517 115.28 31.4705C115.014 31.3101 114.69 31.2575 114.317 31.2575H108.971C108.595 31.2575 108.274 31.3101 108.009 31.4705C107.154 31.9517 105.978 33.1824 105.497 34.0922C105.392 34.3052 105.337 34.6261 105.337 34.9995V45.4812C105.337 45.8572 105.392 46.1754 105.497 46.391C105.978 47.3009 107.101 48.5316 107.956 49.0102C108.224 49.1706 108.545 49.2258 108.918 49.2258H114.48C114.854 49.2258 115.174 49.1706 115.443 49.0102C116.297 48.5316 117.583 47.1957 117.954 46.391L118.009 46.2859L120.789 47.2457C120.144 48.4185 118.916 50.0752 117.63 50.985Z" fill="currentColor" class="fill-highlight-on-reversed"/>
<path d="M138.92 34.9968C138.92 34.6234 138.92 34.3026 138.815 34.0896C138.334 33.1798 137.103 31.9491 136.248 31.4679C135.98 31.3075 135.659 31.2549 135.283 31.2549H130.045C129.669 31.2549 129.348 31.3075 129.082 31.4679C128.228 31.9491 127.052 33.1798 126.571 34.0896C126.463 34.3026 126.411 34.6234 126.411 34.9968V45.4759C126.411 45.852 126.466 46.1701 126.571 46.3858C127.052 47.2956 128.228 48.5263 129.082 49.0049C129.348 49.1653 129.672 49.2205 130.045 49.2205H135.283C135.659 49.2205 135.98 49.1653 136.248 49.0049C137.103 48.5263 138.334 47.2956 138.815 46.3858C138.92 46.1701 138.92 45.852 138.92 45.4759V34.9968ZM141.058 48.4185C140.627 49.0075 139.399 50.4512 138.652 50.985C137.794 51.6266 136.511 52 135.336 52H129.99C128.814 52 127.528 51.6266 126.674 50.985C125.924 50.4512 124.696 49.0049 124.268 48.4185C123.734 47.6191 123.518 46.654 123.518 45.5837V34.8916C123.518 33.8214 123.734 32.8616 124.268 32.0569C124.699 31.4679 125.924 30.0268 126.674 29.493C127.528 28.8514 128.814 28.4753 129.99 28.4753H135.336C136.511 28.4753 137.794 28.8514 138.652 29.493C139.401 30.0268 140.629 31.4705 141.058 32.0569C141.592 32.8589 141.807 33.8214 141.807 34.8916V45.5837C141.807 46.654 141.592 47.6191 141.058 48.4185Z" fill="currentColor" class="fill-highlight-on-reversed"/>
</svg>
