<svg width="174" height="48" viewBox="0 0 174 48" fill="none" xmlns="http://www.w3.org/2000/svg">
<path d="M48 0H0V48H48V0Z" fill="currentColor" class="fill-brand"/>
<path d="M12.9664 12.3185L36.1868 23.8651L12.9385 35.6799L27.8918 23.9008L12.9664 12.3185Z" fill="currentColor" class="fill-neutral"/>
<path d="M75.22 30V18.04H72.84L70.08 23.94L67.28 18.04H64.88V30H66.98V21.84L69.36 27.06H70.74L73.12 21.82V30H75.22ZM84.9227 27.48V23.88C84.9227 23.48 84.8627 23.04 84.5827 22.66C84.4227 22.42 83.9227 21.92 83.6227 21.7C83.2227 21.42 82.6627 21.26 82.1627 21.26H80.2827C79.7827 21.26 79.2427 21.42 78.8427 21.7C78.5427 21.92 78.0227 22.42 77.8627 22.66C77.5827 23.04 77.5227 23.48 77.5227 23.88V27.48C77.5227 27.88 77.5827 28.32 77.8627 28.7C78.0227 28.94 78.5427 29.46 78.8427 29.68C79.2427 29.96 79.7827 30.1 80.2827 30.1H82.1627C82.6627 30.1 83.2227 29.96 83.6227 29.68C83.9227 29.46 84.4227 28.94 84.5827 28.7C84.8627 28.32 84.9227 27.88 84.9227 27.48ZM79.5227 23.94C79.5227 23.94 79.5227 23.86 79.5427 23.82C79.6827 23.58 79.9627 23.32 80.2027 23.18C80.2427 23.16 80.2627 23.16 80.3027 23.16H82.1427C82.1827 23.16 82.2027 23.16 82.2427 23.18C82.4827 23.32 82.7827 23.62 82.9027 23.82C82.9227 23.88 82.9227 23.92 82.9227 23.94V27.58C82.9027 27.74 82.4427 28.06 82.2627 28.16C82.2227 28.18 82.1827 28.2 82.1427 28.2H80.3027C80.2227 28.2 80.1827 28.18 80.1827 28.18C79.9427 28.04 79.5227 27.74 79.5227 27.58V23.94ZM94.3111 30V23.88C94.3111 23.48 94.2311 23.04 93.9511 22.66C93.7911 22.42 93.2911 21.92 92.9911 21.7C92.5911 21.42 92.0311 21.26 91.5311 21.26H90.0511C89.5911 21.26 89.1511 21.56 88.7911 21.82L88.6911 21.36H86.7311L86.9311 23.14V30H88.9311V23.98C89.1911 23.7 89.7311 23.16 90.1111 23.16H91.5111C91.5711 23.16 91.6511 23.16 91.6711 23.18C91.8911 23.32 92.1711 23.58 92.2911 23.8C92.3111 23.84 92.3111 23.9 92.3111 23.92V30H94.3111ZM102.58 27.46V23.9C102.58 23.9 102.58 23.84 102.62 23.78C102.76 23.54 103.02 23.34 103.26 23.2C103.26 23.2 103.34 23.16 103.38 23.16H105.32C105.52 23.16 105.94 23.54 106.06 23.68C106.06 23.68 106.08 23.7 106.12 23.76L107.98 23.2C107.76 22.66 107.1 22 106.7 21.72C106.32 21.46 105.74 21.26 105.26 21.26H103.36C102.86 21.26 102.3 21.4 101.9 21.68C101.6 21.9 101.1 22.42 100.94 22.66C100.66 23.04 100.58 23.48 100.58 23.88V27.48C100.58 27.88 100.66 28.32 100.94 28.7C101.1 28.94 101.6 29.46 101.9 29.68C102.3 29.96 102.86 30.1 103.36 30.1H105.28C105.76 30.1 106.34 29.9 106.72 29.64C107.04 29.42 107.8 28.64 108 28.16L106.14 27.6C106.1 27.66 106.08 27.68 106.08 27.68C105.96 27.82 105.54 28.2 105.34 28.2H103.38C103.34 28.2 103.26 28.16 103.26 28.16C103.02 28.02 102.76 27.82 102.62 27.58C102.58 27.52 102.58 27.46 102.58 27.46ZM116.955 27.48V23.88C116.955 23.48 116.895 23.04 116.615 22.66C116.455 22.42 115.955 21.92 115.655 21.7C115.255 21.42 114.695 21.26 114.195 21.26H112.315C111.815 21.26 111.275 21.42 110.875 21.7C110.575 21.92 110.055 22.42 109.895 22.66C109.615 23.04 109.555 23.48 109.555 23.88V27.48C109.555 27.88 109.615 28.32 109.895 28.7C110.055 28.94 110.575 29.46 110.875 29.68C111.275 29.96 111.815 30.1 112.315 30.1H114.195C114.695 30.1 115.255 29.96 115.655 29.68C115.955 29.46 116.455 28.94 116.615 28.7C116.895 28.32 116.955 27.88 116.955 27.48ZM111.555 23.94C111.555 23.94 111.555 23.86 111.575 23.82C111.715 23.58 111.995 23.32 112.235 23.18C112.275 23.16 112.295 23.16 112.335 23.16H114.175C114.215 23.16 114.235 23.16 114.275 23.18C114.515 23.32 114.815 23.62 114.935 23.82C114.955 23.88 114.955 23.92 114.955 23.94V27.58C114.935 27.74 114.475 28.06 114.295 28.16C114.255 28.18 114.215 28.2 114.175 28.2H112.335C112.255 28.2 112.215 28.18 112.215 28.18C111.975 28.04 111.555 27.74 111.555 27.58V23.94ZM130.764 30V23.88C130.764 23.48 130.684 23.04 130.404 22.66C130.244 22.42 129.744 21.92 129.444 21.7C129.044 21.42 128.484 21.26 127.984 21.26H126.984C126.524 21.26 125.884 21.62 125.544 21.88L125.104 22.22C124.904 22.02 124.684 21.82 124.524 21.7C124.124 21.42 123.564 21.26 123.064 21.26H122.064C121.604 21.26 121.164 21.56 120.804 21.82L120.704 21.36H118.744L118.944 23.14V30H120.944V23.98C121.204 23.7 121.604 23.16 122.124 23.16H123.044C123.104 23.16 123.164 23.16 123.204 23.18C123.424 23.32 123.744 23.58 123.864 23.8C123.884 23.84 123.884 23.9 123.884 23.92V30H123.904H125.864H125.884V23.96C126.144 23.68 126.644 23.16 127.044 23.16H127.964C128.024 23.16 128.084 23.16 128.124 23.18C128.344 23.32 128.624 23.58 128.744 23.8C128.764 23.86 128.764 23.9 128.764 23.92V30H130.764ZM140.26 27.46V23.92C140.26 23.48 140.16 23.06 139.9 22.68C139.74 22.44 139.24 21.92 138.94 21.7C138.56 21.42 138 21.26 137.5 21.26H136.04C135.56 21.26 135.1 21.52 134.74 21.8L134.66 21.36H132.68L132.86 23.14V33.26H134.86V29.64C135.2 29.88 135.62 30.1 136.04 30.1H137.5C138 30.1 138.54 29.96 138.94 29.68C139.26 29.46 139.74 28.92 139.9 28.7C140.16 28.34 140.26 27.9 140.26 27.46ZM138.26 27.42C138.26 27.48 138.24 27.52 138.24 27.52C138.1 27.76 137.82 28.04 137.6 28.18C137.56 28.2 137.54 28.2 137.48 28.2H136.1C135.86 28.2 135.12 27.62 134.86 27.32V24.06C135.12 23.76 135.88 23.16 136.1 23.16H137.48C137.52 23.16 137.56 23.18 137.6 23.2C137.82 23.34 138.1 23.6 138.24 23.84C138.24 23.84 138.26 23.88 138.26 23.96V27.42ZM144.785 23.26H147.265V21.36H144.785V18.04H142.785V21.36H141.445V23.26H142.785V27.34C142.785 27.78 142.905 28.22 143.165 28.6C143.325 28.82 143.805 29.36 144.125 29.58C144.525 29.86 145.065 30 145.565 30H147.245V28.1H145.585C145.305 28.1 144.925 27.66 144.805 27.44C144.785 27.4 144.785 27.32 144.785 27.32V23.26ZM156.157 26.64V23.88C156.157 23.48 156.077 23.04 155.797 22.66C155.637 22.42 155.137 21.92 154.837 21.7C154.437 21.42 153.877 21.26 153.377 21.26H151.537C151.037 21.26 150.477 21.42 150.077 21.7C149.777 21.92 149.277 22.44 149.117 22.66C148.857 23.02 148.737 23.44 148.737 23.88V27.48C148.737 27.92 148.857 28.36 149.117 28.72C149.277 28.94 149.777 29.46 150.077 29.68C150.477 29.96 151.037 30.1 151.537 30.1H153.417C153.897 30.1 154.477 29.9 154.857 29.64C155.177 29.42 155.937 28.64 156.137 28.16L154.277 27.6C154.277 27.6 154.237 27.66 154.217 27.68C154.097 27.82 153.677 28.2 153.477 28.2H151.537C151.337 28.2 150.937 27.86 150.757 27.56C150.757 27.56 150.737 27.52 150.737 27.46V26.64H156.157ZM154.157 24.86H150.737V23.92C150.737 23.92 150.737 23.84 150.757 23.8C150.937 23.5 151.337 23.16 151.537 23.16H153.357C153.397 23.16 153.437 23.16 153.477 23.18C153.717 23.32 154.017 23.6 154.137 23.8C154.157 23.82 154.157 23.92 154.157 23.92V24.86Z" fill="currentColor"/>
</svg>
