<svg viewBox="0 0 118 48" fill="none" xmlns="http://www.w3.org/2000/svg">
  <path d="M60.3696 31.7932H62.941V19.8729H60.3696V31.7932ZM60.3696 18.5738H62.9459V16H60.3648L60.3696 18.5738Z" fill="currentColor" class="fill-highlight-on-reversed"/>
  <path d="M75.2604 31.7932H77.8317V19.8729H75.2604V31.7932ZM75.2604 18.5738H77.8342V16H75.2579L75.2604 18.5738Z" fill="currentColor" class="fill-highlight-on-reversed"/>
  <path d="M67.9137 16.0073H65.3131V31.7835H67.9137V16.0073Z" fill="currentColor" class="fill-highlight-on-reversed"/>
  <path d="M30.1727 16.0073H27.5722V31.7835H30.1727V16.0073Z" fill="currentColor" class="fill-highlight-on-reversed"/>
  <path d="M72.886 16.0073H70.2854V31.7835H72.886V16.0073Z" fill="currentColor" class="fill-highlight-on-reversed"/>
  <path d="M82.3883 28.6598C82.6149 28.9976 82.9205 29.2748 83.2787 29.4675C83.3316 29.4937 83.3882 29.5118 83.4465 29.521H86.2612C86.5385 29.521 87.1978 28.9955 87.3632 28.7912C87.3955 28.757 87.424 28.7195 87.4484 28.6793L89.7035 29.3653C89.4262 30.0319 88.3266 31.0293 87.8814 31.3358C87.3204 31.6902 86.6667 31.8697 86.0033 31.8515H83.6071C82.8875 31.8593 82.1814 31.6563 81.5758 31.2677C81.0758 30.8698 80.6272 30.4114 80.2402 29.9029C79.8929 29.4047 79.717 28.807 79.7391 28.2V23.4684C79.7174 22.8615 79.8932 22.2639 80.2402 21.7655C80.5854 21.2861 80.9946 20.8564 81.4566 20.4883C82.0979 20.0706 82.8421 19.8383 83.6071 19.8169H86.1493C86.8636 19.8421 87.5571 20.0634 88.1539 20.4567C88.8067 20.9326 89.3356 21.5583 89.6962 22.2812L87.3146 23.011C87.2668 22.9438 87.214 22.8804 87.1564 22.8213C86.991 22.6267 86.5045 22.235 86.2247 22.235H83.4465C83.388 22.2447 83.3314 22.2636 83.2787 22.291C82.9206 22.4827 82.615 22.7592 82.3883 23.0962C82.3503 23.1802 82.3312 23.2716 82.3324 23.3638V28.492C82.3357 28.5519 82.355 28.6099 82.3883 28.6598Z" fill="currentColor" class="fill-highlight-on-reversed"/>
  <path d="M18.6559 28.6598C18.8825 28.9976 19.1881 29.2748 19.5463 29.4675C19.5992 29.4937 19.6558 29.5118 19.7142 29.521H22.5239C22.8037 29.521 23.4605 28.9955 23.6284 28.7912C23.6591 28.7563 23.6868 28.7189 23.7111 28.6793L25.9687 29.3653C25.6865 30.0416 24.5893 31.039 24.1441 31.3455C23.5824 31.7003 22.9278 31.8798 22.2636 31.8613H19.8674C19.1491 31.8704 18.4438 31.6691 17.8385 31.2823C17.3373 30.8851 16.8878 30.4266 16.5005 29.9175C16.1549 29.4186 15.9799 28.8212 16.0018 28.2146V23.4684C15.9803 22.8619 16.1552 22.2646 16.5005 21.7655C16.8452 21.2857 17.2545 20.8559 17.7169 20.4883C18.3571 20.0702 19.1007 19.8378 19.865 19.8169H22.412C23.1255 19.8425 23.8181 20.0639 24.4142 20.4567C25.0698 20.9322 25.602 21.5578 25.9662 22.2812L23.5822 23.0111C23.5349 22.9441 23.4829 22.8807 23.4265 22.8213C23.2586 22.6267 22.7721 22.235 22.4947 22.235H19.7142C19.6556 22.2447 19.599 22.2636 19.5463 22.291C19.1882 22.4827 18.8826 22.7592 18.6559 23.0962C18.6179 23.1802 18.5988 23.2716 18.6 23.3638V28.492C18.6033 28.5519 18.6226 28.6099 18.6559 28.6598Z" fill="currentColor" class="fill-highlight-on-reversed"/>
  <path d="M93.6541 28.6063C93.6541 28.8496 94.2623 29.2753 94.6126 29.4772C94.6682 29.4992 94.7279 29.5092 94.7877 29.5064H97.4637C97.5245 29.4998 97.5833 29.4807 97.6364 29.4505C97.8992 29.3045 98.5682 28.8399 98.5974 28.6063V23.3152C98.5979 23.2555 98.588 23.1963 98.5682 23.14C98.3156 22.7671 97.9884 22.4507 97.6072 22.2107C97.5632 22.1874 97.5134 22.1773 97.4637 22.1815H94.7877C94.7373 22.177 94.6866 22.1871 94.6418 22.2107C94.2542 22.4416 93.926 22.7598 93.6833 23.14C93.6634 23.1963 93.6536 23.2555 93.6541 23.3152V28.6063ZM100.709 29.9565C100.328 30.451 99.888 30.8963 99.3977 31.2823C98.8046 31.6633 98.1127 31.8621 97.4078 31.854H94.8437C94.1479 31.862 93.4654 31.663 92.8829 31.2823C92.3847 30.8943 91.9369 30.4456 91.5498 29.9467C91.2182 29.4591 91.0551 28.8765 91.0851 28.2876V23.393C91.0549 22.8033 91.218 22.2199 91.5498 21.7315C91.9385 21.2419 92.3863 20.8023 92.8829 20.4227C93.4635 20.0349 94.1455 19.8268 94.8437 19.8242H97.4029C98.1118 19.8257 98.805 20.0336 99.3977 20.4227C99.8852 20.8037 100.324 21.2433 100.704 21.7315C101.035 22.2201 101.198 22.8036 101.166 23.393V28.2949C101.197 28.8836 101.035 29.4662 100.704 29.954" fill="currentColor" class="fill-highlight-on-reversed"/>
  <path d="M39.2221 31.7907V31.2385C38.7355 31.5937 38.3122 31.9002 37.6846 31.9002H35.7725C35.0683 31.9082 34.3772 31.7095 33.785 31.3285C33.2946 30.9398 32.8549 30.4911 32.4762 29.9929C32.1389 29.5061 31.9682 28.9232 31.9896 28.3314V20.0212H34.5805V28.5357C34.5779 28.6001 34.5869 28.6644 34.6072 28.7255C34.8448 29.0594 35.1508 29.3389 35.5049 29.5453C35.5529 29.5701 35.6066 29.5818 35.6606 29.5794H37.6068C37.8792 29.5794 38.8596 29.1293 39.2148 28.7474V20.0212H41.8202V31.7907H39.2221Z" fill="currentColor" class="fill-highlight-on-reversed"/>
  <path d="M53.6115 30.066C53.2331 30.5636 52.7943 31.0122 52.3052 31.4016C51.7259 31.7941 51.0417 32.0027 50.342 32H48.3252C47.6733 32 47.2013 31.6765 46.7099 31.2945V31.8638H44.1264V16.0803H46.7294V20.5784C47.1892 20.2123 47.7488 19.9936 48.335 19.9508H50.3517C51.0482 19.9432 51.7314 20.1421 52.3149 20.5225C52.8042 20.9116 53.243 21.3602 53.6213 21.858C53.9573 22.3555 54.1276 22.9464 54.1078 23.5463V28.3631C54.124 28.9686 53.9505 29.564 53.6115 30.066ZM51.5778 23.5901C51.5782 23.5434 51.5691 23.497 51.551 23.4539C51.3261 23.0975 51.0295 22.7918 50.6801 22.5562C50.6534 22.527 50.5706 22.527 50.4879 22.527H48.6074C48.2815 22.527 47.0919 23.0136 46.7197 23.7434V28.4142C47.0724 28.8229 48.3107 29.5795 48.6074 29.5795H50.5147C50.5731 29.574 50.6296 29.5557 50.6801 29.5259C51.0286 29.3003 51.3254 29.0035 51.551 28.655C51.5711 28.6023 51.5802 28.546 51.5778 28.4896V23.5901Z" fill="currentColor" class="fill-highlight-on-reversed"/>
</svg>
