<svg width="256" height="72" viewBox="0 0 256 72" fill="none" xmlns="http://www.w3.org/2000/svg">
<path d="M72 0H0V72H72V0Z" fill="currentColor" class="fill-brand"/>
<path d="M19.4496 18.4778L54.2802 35.7978L19.4077 53.5199L41.8377 35.8512L19.4496 18.4778Z" fill="currentColor" class="fill-neutral"/>
<path d="M98.0326 38.5331H94.692L89.3601 22.3198H92.396L96.3786 34.8769L100.394 22.3198H103.408L98.0326 38.5331Z" fill="currentColor" class="fill-highlight-on-reversed"/>
<path d="M106.868 38.5331V22.3198H109.719V38.5331H106.868Z" fill="currentColor" class="fill-highlight-on-reversed"/>
<path d="M125.312 36.1501C124.986 36.6397 123.898 37.7279 123.31 38.0434C122.875 38.2828 122.255 38.5331 121.678 38.5331H114.246V22.3198H121.678C122.189 22.3198 122.875 22.483 123.332 22.7768C123.93 23.125 124.964 24.2894 125.28 24.7573C125.628 25.2469 125.715 25.791 125.715 26.3024V34.6049C125.715 35.0946 125.639 35.6604 125.312 36.1501ZM121.493 35.8236C121.493 35.8236 121.656 35.8236 121.678 35.791C122.059 35.5734 122.875 34.8661 122.875 34.5396V26.3786C122.875 26.3786 122.875 26.3024 122.842 26.248C122.516 25.7039 121.972 25.2143 121.645 25.0511C121.623 25.0184 121.46 25.0184 121.406 25.0184H117.097V35.8127H121.493V35.8236Z" fill="currentColor" class="fill-highlight-on-reversed"/>
<path d="M130.241 38.5331V22.3198H140.437V25.0293H133.092V29.1207H139.926V31.8302H133.092V35.8127H140.437V38.5222H130.241V38.5331Z" fill="currentColor" class="fill-highlight-on-reversed"/>
<path d="M156.52 36.2264C156.172 36.6834 155.105 37.8477 154.54 38.1742C154.104 38.4462 153.43 38.6638 152.853 38.6638H148.729C148.131 38.6638 147.478 38.4462 147.042 38.1742C146.477 37.8477 145.388 36.6834 145.062 36.2264C144.746 35.7367 144.638 35.1927 144.638 34.6812V26.1938C144.638 25.6823 144.746 25.1383 145.073 24.6486C145.399 24.1916 146.487 23.0273 147.053 22.7008C147.488 22.4288 148.141 22.2112 148.74 22.2112H152.864C153.43 22.2112 154.115 22.4288 154.551 22.7008C155.116 23.0273 156.172 24.1916 156.531 24.6486C156.857 25.1383 156.966 25.6823 156.966 26.1938V34.6812C156.955 35.1927 156.846 35.7367 156.52 36.2264ZM147.488 34.6595C147.488 34.6595 147.488 34.7357 147.51 34.7683C147.837 35.258 148.403 35.7694 148.707 35.9326C148.762 35.9544 148.816 35.9544 148.838 35.9544H152.744C152.744 35.9544 152.82 35.9544 152.886 35.9326C153.179 35.7694 153.756 35.258 154.083 34.7683C154.115 34.7139 154.115 34.6595 154.115 34.6595V26.2808C154.115 26.2808 154.115 26.172 154.083 26.1502C153.756 25.6606 153.19 25.1165 152.886 24.9533C152.831 24.9315 152.777 24.9315 152.744 24.9315H148.838C148.838 24.9315 148.729 24.9315 148.707 24.9533C148.413 25.1165 147.837 25.6606 147.51 26.1502C147.488 26.2046 147.488 26.2808 147.488 26.2808V34.6595Z" fill="currentColor" class="fill-highlight-on-reversed"/>
<path d="M166.825 25.0293V38.5331H163.974V25.0293H159.578V22.3198H171.21V25.0293H166.825Z" fill="currentColor" class="fill-highlight-on-reversed"/>
<path d="M185.834 30.1C185.595 30.4482 184.746 31.2643 184.365 31.5364C184.148 31.6996 183.908 31.8302 183.658 31.9172L186.89 38.5331H183.8L180.786 32.1348H177.663V38.5331H174.812V22.3198H182.429C183.081 22.3198 183.811 22.5375 184.355 22.9183C184.735 23.1903 185.573 24.0608 185.824 24.409C186.15 24.8987 186.313 25.4972 186.313 26.063V28.446C186.324 29.0445 186.161 29.6104 185.834 30.1ZM183.473 26.0848C183.473 26.0848 183.473 25.9433 183.441 25.8998C183.277 25.606 182.842 25.0619 182.57 25.0293H177.663V29.4254H182.439C182.679 29.4254 183.223 28.9139 183.441 28.5331C183.441 28.5331 183.473 28.4787 183.473 28.4243V26.0848Z" fill="currentColor" class="fill-highlight-on-reversed"/>
<path d="M202.418 36.2264C202.07 36.6834 201.003 37.8477 200.437 38.1742C200.002 38.4462 199.327 38.6638 198.751 38.6638H194.627C194.028 38.6638 193.375 38.4462 192.94 38.1742C192.374 37.8477 191.286 36.6834 190.96 36.2264C190.633 35.7367 190.524 35.1927 190.524 34.6812V26.1938C190.524 25.6823 190.633 25.1383 190.96 24.6486C191.286 24.1916 192.374 23.0273 192.94 22.7008C193.375 22.4288 194.028 22.2112 194.627 22.2112H198.751C199.317 22.2112 200.002 22.4288 200.437 22.7008C201.003 23.0273 202.059 24.1916 202.418 24.6486C202.744 25.1383 202.853 25.6823 202.853 26.1938V34.6812C202.853 35.1927 202.744 35.7367 202.418 36.2264ZM193.386 34.6595C193.386 34.6595 193.386 34.7357 193.419 34.7683C193.745 35.258 194.311 35.7694 194.616 35.9326C194.67 35.9544 194.725 35.9544 194.757 35.9544H198.664C198.664 35.9544 198.751 35.9544 198.805 35.9326C199.099 35.7694 199.676 35.258 200.002 34.7683C200.035 34.7139 200.035 34.6595 200.035 34.6595V26.2808C200.035 26.2808 200.035 26.172 200.002 26.1502C199.676 25.6606 199.11 25.1165 198.805 24.9533C198.751 24.9315 198.696 24.9315 198.664 24.9315H194.757C194.757 24.9315 194.648 24.9315 194.616 24.9533C194.322 25.1165 193.745 25.6606 193.419 26.1502C193.386 26.2046 193.386 26.2808 193.386 26.2808V34.6595Z" fill="currentColor" class="fill-highlight-on-reversed"/>
<path d="M215.541 38.5331L209.926 27.7714V38.5331H207.075V22.3198H210.143L215.704 33.223V22.3198H218.555V38.5331H215.541Z" fill="currentColor" class="fill-highlight-on-reversed"/>
<path d="M98.2181 52.2006C98.0763 52.4188 97.52 52.9751 97.2691 53.1496C96.9419 53.3787 96.4837 53.5205 96.0692 53.5205H91.0297V42.7979H96.0692C96.4946 42.7979 96.9419 42.9615 97.2691 43.1905C97.52 43.3651 98.0763 43.9105 98.2181 44.1177C98.4363 44.4232 98.5017 44.794 98.5017 45.154V46.463C98.5017 47.2484 98.1854 47.5865 97.64 48.0883C98.1745 48.5901 98.5017 48.9282 98.5017 49.7136V51.1971C98.5017 51.5571 98.4144 51.8952 98.2181 52.2006ZM97.0291 45.1758C97.0291 45.0886 97.0073 45.0122 96.9964 45.0013C96.8546 44.7504 96.3855 44.1941 96.0474 44.1941H92.4913V47.412H96.0692C96.3964 47.412 96.8764 46.8775 96.9964 46.6266C97.0182 46.5939 97.0291 46.5175 97.0291 46.4303V45.1758ZM97.0291 49.7354C97.0291 49.6481 97.0073 49.5936 96.9964 49.5609C96.8764 49.31 96.4946 48.9391 96.2437 48.8082C96.2219 48.7864 96.1565 48.7864 96.0692 48.7864H92.4913V52.1243H96.0474C96.3855 52.1243 96.8655 51.5898 96.9964 51.3389C97.0182 51.3062 97.0291 51.2516 97.0291 51.1644V49.7354Z" fill="currentColor" class="fill-neutral"/>
<path d="M106.246 53.5206L106.17 52.8989C105.81 53.2152 105.276 53.597 104.774 53.597H103.432C103.007 53.597 102.516 53.4661 102.2 53.237C101.927 53.0407 101.48 52.5716 101.338 52.3753C101.12 52.0698 101.054 51.7099 101.054 51.3608V45.8195H102.45V51.3281C102.45 51.3608 102.45 51.4917 102.472 51.5244C102.614 51.7753 102.996 52.1353 103.236 52.2553C103.312 52.288 103.345 52.288 103.454 52.288H104.719C105.057 52.288 105.919 51.6117 106.094 51.3717V45.8086H107.49V52.0808L107.632 53.5097H106.246V53.5206Z" fill="currentColor" class="fill-neutral"/>
<path d="M115.322 48.0119C115.104 47.6192 114.646 47.0302 114.264 47.0302H112.355C112.268 47.0302 112.181 47.052 112.137 47.0629C111.821 47.2265 111.668 47.401 111.493 47.6737C111.461 47.7283 111.439 47.7937 111.439 47.9028V48.4155C111.439 48.6118 111.613 48.83 111.908 48.8409L114.875 49.0591C115.835 49.1354 116.642 49.8663 116.642 50.8153V51.4261C116.642 51.797 116.533 52.1352 116.326 52.4406C116.184 52.6587 115.802 53.0623 115.54 53.2478C115.202 53.4769 114.755 53.6078 114.329 53.6078H112.181C111.755 53.6078 111.308 53.4769 110.97 53.2478C110.555 52.9642 110.043 52.3206 109.759 51.7643L111.101 51.317C111.275 51.677 111.69 52.1352 111.941 52.2661C111.973 52.2879 112.071 52.2988 112.159 52.2988H114.318C114.689 52.2988 115.038 51.8843 115.213 51.6225C115.246 51.5679 115.268 51.4916 115.268 51.3934V50.8044C115.268 50.608 115.071 50.3899 114.788 50.379L111.821 50.1826C110.85 50.1172 110.064 49.3754 110.064 48.4264V47.9137C110.064 47.5319 110.152 47.1938 110.37 46.8884C110.512 46.6702 110.893 46.2666 111.155 46.0812C111.493 45.8521 111.941 45.7212 112.366 45.7212H114.22C114.646 45.7212 115.093 45.8521 115.431 46.0812C115.857 46.3866 116.358 46.9974 116.664 47.5647L115.322 48.0119Z" fill="currentColor" class="fill-neutral"/>
<path d="M119.118 44.2269V42.6343H120.722V44.2269H119.118ZM119.227 53.5206V45.8194H120.623V53.5206H119.227Z" fill="currentColor" class="fill-neutral"/>
<path d="M128.161 53.5206V48.0011C128.161 47.9683 128.161 47.8374 128.139 47.8047C128.019 47.5538 127.626 47.1939 127.375 47.0739C127.343 47.0521 127.266 47.0411 127.157 47.0411H125.892C125.554 47.0411 124.692 47.7393 124.518 47.9683V53.5315H123.121V47.2593L122.979 45.8304H124.376L124.452 46.4521C124.812 46.1358 125.347 45.7322 125.848 45.7322H127.19C127.615 45.7322 128.106 45.8631 128.423 46.0921C128.695 46.2885 129.143 46.7575 129.284 46.9539C129.503 47.2593 129.568 47.6193 129.568 47.9683V53.5315H128.161V53.5206Z" fill="currentColor" class="fill-neutral"/>
<path d="M137.476 53.2477C137.16 53.4768 136.691 53.6077 136.266 53.6077H134.498C134.073 53.6077 133.582 53.4768 133.266 53.2477C132.993 53.0514 132.546 52.5823 132.404 52.386C132.186 52.1024 132.099 51.7424 132.099 51.3606V47.9464C132.099 47.5755 132.186 47.2155 132.404 46.9319C132.546 46.7356 132.993 46.2665 133.266 46.0702C133.593 45.8411 134.073 45.7102 134.498 45.7102H136.287C136.713 45.7102 137.204 45.8411 137.52 46.0702C137.793 46.2665 138.24 46.7356 138.382 46.9319C138.6 47.2373 138.665 47.5973 138.665 47.9464V50.248H133.495V51.317C133.495 51.426 133.517 51.4806 133.528 51.5133C133.637 51.7097 133.953 52.0805 134.258 52.2332C134.335 52.266 134.4 52.2878 134.488 52.2878H136.298C136.407 52.2878 136.44 52.266 136.516 52.2332C136.767 52.1024 137.127 51.7533 137.247 51.5133L137.356 51.317L138.665 51.7424C138.425 52.3096 137.924 52.9532 137.476 53.2477ZM137.258 48.0009C137.258 47.9682 137.258 47.8373 137.236 47.8046C137.116 47.5537 136.713 47.2155 136.473 47.0955C136.396 47.0628 136.364 47.041 136.255 47.041H134.488C134.433 47.041 134.324 47.0628 134.269 47.0955C133.909 47.2919 133.648 47.5428 133.517 47.8046C133.495 47.8264 133.484 47.8918 133.484 48.0009V49.0045H137.258V48.0009Z" fill="currentColor" class="fill-neutral"/>
<path d="M146.454 48.0119C146.235 47.6192 145.777 47.0302 145.396 47.0302H143.487C143.399 47.0302 143.312 47.052 143.268 47.0629C142.952 47.2265 142.799 47.401 142.625 47.6737C142.592 47.7283 142.57 47.7937 142.57 47.9028V48.4155C142.57 48.6118 142.745 48.83 143.039 48.8409L146.006 49.0591C146.966 49.1354 147.774 49.8663 147.774 50.8153V51.4261C147.774 51.797 147.664 52.1352 147.457 52.4406C147.315 52.6587 146.934 53.0623 146.672 53.2478C146.334 53.4769 145.886 53.6078 145.461 53.6078H143.312C142.887 53.6078 142.439 53.4769 142.101 53.2478C141.687 52.9642 141.174 52.3206 140.891 51.7643L142.232 51.317C142.407 51.677 142.821 52.1352 143.072 52.2661C143.105 52.2879 143.203 52.2988 143.29 52.2988H145.45C145.821 52.2988 146.17 51.8843 146.345 51.6225C146.377 51.5679 146.399 51.4916 146.399 51.3934V50.8044C146.399 50.608 146.203 50.3899 145.919 50.379L142.952 50.1826C141.981 50.1172 141.196 49.3754 141.196 48.4264V47.9137C141.196 47.5319 141.283 47.1938 141.501 46.8884C141.643 46.6702 142.025 46.2666 142.287 46.0812C142.625 45.8521 143.072 45.7212 143.498 45.7212H145.352C145.777 45.7212 146.225 45.8521 146.563 46.0812C146.988 46.3866 147.49 46.9974 147.795 47.5647L146.454 48.0119Z" fill="currentColor" class="fill-neutral"/>
<path d="M155.377 48.0119C155.158 47.6192 154.7 47.0302 154.318 47.0302H152.41C152.322 47.0302 152.235 47.052 152.191 47.0629C151.875 47.2265 151.722 47.401 151.548 47.6737C151.515 47.7283 151.493 47.7937 151.493 47.9028V48.4155C151.493 48.6118 151.668 48.83 151.962 48.8409L154.929 49.0591C155.889 49.1354 156.696 49.8663 156.696 50.8153V51.4261C156.696 51.797 156.587 52.1352 156.38 52.4406C156.238 52.6587 155.867 53.0623 155.595 53.2478C155.257 53.4769 154.809 53.6078 154.373 53.6078H152.224C151.799 53.6078 151.351 53.4769 151.013 53.2478C150.599 52.9642 150.086 52.3206 149.802 51.7643L151.144 51.317C151.319 51.677 151.733 52.1352 151.984 52.2661C152.017 52.2879 152.115 52.2988 152.202 52.2988H154.362C154.733 52.2988 155.082 51.8843 155.257 51.6225C155.289 51.5679 155.311 51.4916 155.311 51.3934V50.8044C155.311 50.608 155.115 50.3899 154.831 50.379L151.864 50.1826C150.904 50.1172 150.108 49.3754 150.108 48.4264V47.9137C150.108 47.5319 150.195 47.1938 150.413 46.8884C150.555 46.6702 150.937 46.2666 151.199 46.0812C151.537 45.8521 151.984 45.7212 152.41 45.7212H154.264C154.689 45.7212 155.137 45.8521 155.475 46.0812C155.9 46.3866 156.402 46.9974 156.707 47.5647L155.377 48.0119Z" fill="currentColor" class="fill-neutral"/>
</svg>
