<svg width="221" height="72" viewBox="0 0 221 72" fill="none" xmlns="http://www.w3.org/2000/svg">
<path d="M72 0H0V72H72V0Z" fill="currentColor" class="fill-brand"/>
<path d="M19.4496 18.4777L54.2802 35.7976L19.4077 53.5198L41.8377 35.8511L19.4496 18.4777Z" fill="currentColor" class="fill-neutral"/>
<path d="M101.464 43V28.648H98.608L95.296 35.728L91.936 28.648H89.056V43H91.576V33.208L94.432 39.472H96.088L98.944 33.184V43H101.464ZM113.587 39.976V35.656C113.587 35.176 113.515 34.648 113.179 34.192C112.987 33.904 112.387 33.304 112.027 33.04C111.547 32.704 110.875 32.512 110.275 32.512H108.019C107.419 32.512 106.771 32.704 106.291 33.04C105.931 33.304 105.307 33.904 105.115 34.192C104.779 34.648 104.707 35.176 104.707 35.656V39.976C104.707 40.456 104.779 40.984 105.115 41.44C105.307 41.728 105.931 42.352 106.291 42.616C106.771 42.952 107.419 43.12 108.019 43.12H110.275C110.875 43.12 111.547 42.952 112.027 42.616C112.387 42.352 112.987 41.728 113.179 41.44C113.515 40.984 113.587 40.456 113.587 39.976ZM107.107 35.728C107.107 35.728 107.107 35.632 107.131 35.584C107.299 35.296 107.635 34.984 107.923 34.816C107.971 34.792 107.995 34.792 108.043 34.792H110.251C110.299 34.792 110.323 34.792 110.371 34.816C110.659 34.984 111.019 35.344 111.163 35.584C111.187 35.656 111.187 35.704 111.187 35.728V40.096C111.163 40.288 110.611 40.672 110.395 40.792C110.347 40.816 110.299 40.84 110.251 40.84H108.043C107.947 40.84 107.899 40.816 107.899 40.816C107.611 40.648 107.107 40.288 107.107 40.096V35.728ZM125.333 43V35.656C125.333 35.176 125.237 34.648 124.901 34.192C124.709 33.904 124.109 33.304 123.749 33.04C123.269 32.704 122.597 32.512 121.997 32.512H120.221C119.669 32.512 119.141 32.872 118.709 33.184L118.589 32.632H116.237L116.477 34.768V43H118.877V35.776C119.189 35.44 119.837 34.792 120.293 34.792H121.973C122.045 34.792 122.141 34.792 122.165 34.816C122.429 34.984 122.765 35.296 122.909 35.56C122.933 35.608 122.933 35.68 122.933 35.704V43H125.333ZM136.217 39.952V35.68C136.217 35.68 136.217 35.608 136.265 35.536C136.433 35.248 136.745 35.008 137.033 34.84C137.033 34.84 137.129 34.792 137.177 34.792H139.505C139.745 34.792 140.249 35.248 140.393 35.416C140.393 35.416 140.417 35.44 140.465 35.512L142.697 34.84C142.433 34.192 141.641 33.4 141.161 33.064C140.705 32.752 140.009 32.512 139.433 32.512H137.153C136.553 32.512 135.881 32.68 135.401 33.016C135.041 33.28 134.441 33.904 134.249 34.192C133.913 34.648 133.817 35.176 133.817 35.656V39.976C133.817 40.456 133.913 40.984 134.249 41.44C134.441 41.728 135.041 42.352 135.401 42.616C135.881 42.952 136.553 43.12 137.153 43.12H139.457C140.033 43.12 140.729 42.88 141.185 42.568C141.569 42.304 142.481 41.368 142.721 40.792L140.489 40.12C140.441 40.192 140.417 40.216 140.417 40.216C140.273 40.384 139.769 40.84 139.529 40.84H137.177C137.129 40.84 137.033 40.792 137.033 40.792C136.745 40.624 136.433 40.384 136.265 40.096C136.217 40.024 136.217 39.952 136.217 39.952ZM153.947 39.976V35.656C153.947 35.176 153.875 34.648 153.539 34.192C153.347 33.904 152.747 33.304 152.387 33.04C151.907 32.704 151.235 32.512 150.635 32.512H148.379C147.779 32.512 147.131 32.704 146.651 33.04C146.291 33.304 145.667 33.904 145.475 34.192C145.139 34.648 145.067 35.176 145.067 35.656V39.976C145.067 40.456 145.139 40.984 145.475 41.44C145.667 41.728 146.291 42.352 146.651 42.616C147.131 42.952 147.779 43.12 148.379 43.12H150.635C151.235 43.12 151.907 42.952 152.387 42.616C152.747 42.352 153.347 41.728 153.539 41.44C153.875 40.984 153.947 40.456 153.947 39.976ZM147.467 35.728C147.467 35.728 147.467 35.632 147.491 35.584C147.659 35.296 147.995 34.984 148.283 34.816C148.331 34.792 148.355 34.792 148.403 34.792H150.611C150.659 34.792 150.683 34.792 150.731 34.816C151.019 34.984 151.379 35.344 151.523 35.584C151.547 35.656 151.547 35.704 151.547 35.728V40.096C151.523 40.288 150.971 40.672 150.755 40.792C150.707 40.816 150.659 40.84 150.611 40.84H148.403C148.307 40.84 148.259 40.816 148.259 40.816C147.971 40.648 147.467 40.288 147.467 40.096V35.728ZM170.997 43V35.656C170.997 35.176 170.901 34.648 170.565 34.192C170.373 33.904 169.773 33.304 169.413 33.04C168.933 32.704 168.261 32.512 167.661 32.512H166.461C165.909 32.512 165.141 32.944 164.733 33.256L164.205 33.664C163.965 33.424 163.701 33.184 163.509 33.04C163.029 32.704 162.357 32.512 161.757 32.512H160.557C160.005 32.512 159.477 32.872 159.045 33.184L158.925 32.632H156.573L156.813 34.768V43H159.213V35.776C159.525 35.44 160.005 34.792 160.629 34.792H161.733C161.805 34.792 161.877 34.792 161.925 34.816C162.189 34.984 162.573 35.296 162.717 35.56C162.741 35.608 162.741 35.68 162.741 35.704V43H162.765H165.117H165.141V35.752C165.453 35.416 166.053 34.792 166.533 34.792H167.637C167.709 34.792 167.781 34.792 167.829 34.816C168.093 34.984 168.429 35.296 168.573 35.56C168.597 35.632 168.597 35.68 168.597 35.704V43H170.997ZM182.872 39.952V35.704C182.872 35.176 182.752 34.672 182.44 34.216C182.248 33.928 181.648 33.304 181.288 33.04C180.832 32.704 180.16 32.512 179.56 32.512H177.808C177.232 32.512 176.68 32.824 176.248 33.16L176.152 32.632H173.776L173.992 34.768V46.912H176.392V42.568C176.8 42.856 177.304 43.12 177.808 43.12H179.56C180.16 43.12 180.808 42.952 181.288 42.616C181.672 42.352 182.248 41.704 182.44 41.44C182.752 41.008 182.872 40.48 182.872 39.952ZM180.472 39.904C180.472 39.976 180.448 40.024 180.448 40.024C180.28 40.312 179.944 40.648 179.68 40.816C179.632 40.84 179.608 40.84 179.536 40.84H177.88C177.592 40.84 176.704 40.144 176.392 39.784V35.872C176.704 35.512 177.616 34.792 177.88 34.792H179.536C179.584 34.792 179.632 34.816 179.68 34.84C179.944 35.008 180.28 35.32 180.448 35.608C180.448 35.608 180.472 35.656 180.472 35.752V39.904ZM188.781 34.912H191.757V32.632H188.781V28.648H186.381V32.632H184.773V34.912H186.381V39.808C186.381 40.336 186.525 40.864 186.837 41.32C187.029 41.584 187.605 42.232 187.989 42.496C188.469 42.832 189.117 43 189.717 43H191.733V40.72H189.741C189.405 40.72 188.949 40.192 188.805 39.928C188.781 39.88 188.781 39.784 188.781 39.784V34.912ZM202.908 38.968V35.656C202.908 35.176 202.812 34.648 202.476 34.192C202.284 33.904 201.684 33.304 201.324 33.04C200.844 32.704 200.172 32.512 199.572 32.512H197.364C196.764 32.512 196.092 32.704 195.612 33.04C195.252 33.304 194.652 33.928 194.46 34.192C194.148 34.624 194.004 35.128 194.004 35.656V39.976C194.004 40.504 194.148 41.032 194.46 41.464C194.652 41.728 195.252 42.352 195.612 42.616C196.092 42.952 196.764 43.12 197.364 43.12H199.62C200.196 43.12 200.892 42.88 201.348 42.568C201.732 42.304 202.644 41.368 202.884 40.792L200.652 40.12C200.652 40.12 200.604 40.192 200.58 40.216C200.436 40.384 199.932 40.84 199.692 40.84H197.364C197.124 40.84 196.644 40.432 196.428 40.072C196.428 40.072 196.404 40.024 196.404 39.952V38.968H202.908ZM200.508 36.832H196.404V35.704C196.404 35.704 196.404 35.608 196.428 35.56C196.644 35.2 197.124 34.792 197.364 34.792H199.548C199.596 34.792 199.644 34.792 199.692 34.816C199.98 34.984 200.34 35.32 200.484 35.56C200.508 35.584 200.508 35.704 200.508 35.704V36.832Z" fill="currentColor"/>
</svg>
