<svg viewBox="0 0 211 72" fill="none" xmlns="http://www.w3.org/2000/svg">
<g>
<path d="M40.3337 49.1567V37.3977H26.9611V49.2531H24V22.7471H26.9611V34.4097H40.3337V22.7471H43.2948V49.1567H40.3337Z" fill="currentColor" />
<path d="M51.7959 49.1567V22.7471H67.9386V25.735H54.757V34.4097H66.3148V37.3977H54.757V46.2651H67.9386V49.2531L51.7959 49.1567Z" fill="currentColor" />
<path d="M76.2488 49.1567V22.7471H79.2099V46.1688H91.6273V49.1567H76.2488Z" fill="currentColor" />
<path d="M109.585 21.5903L118.182 36.0482L109.585 50.506L123.913 36.0482L109.585 21.5903Z" fill="currentColor" />
<path d="M138.241 21.5903L123.913 36.0482L138.241 50.506L129.644 36.0482L138.241 21.5903Z" fill="currentColor" />
<path d="M102.325 22.7471H99.2688V49.1567H102.325V22.7471Z" fill="currentColor" />
<path d="M147.888 16H146.837V56H147.888V16Z" fill="currentColor" />
</g>
<g>
<path d="M186.669 49.1567H160.496V22.7471H186.669V49.1567Z" fill="currentColor" class="fill-brand"/>
<path d="M175.77 35.9239L167.651 42.3818L180.355 35.9239L167.555 29.5625L175.77 35.9239Z" fill="currentColor" class="fill-neutral" />
</g>
</svg>
