<svg viewBox="0 0 130 48" fill="none" xmlns="http://www.w3.org/2000/svg">
<g>
<path d="M25.8002 31.8939V24.8385H17.7767V31.9517H16V16.0481H17.7767V23.0457H25.8002V16.0481H27.5769V31.8939H25.8002Z" fill="currentColor" />
<path d="M32.6775 31.8939V16.0481H42.3631V17.8409H34.4541V23.0457H41.3888V24.8385H34.4541V30.1589H42.3631V31.9517L32.6775 31.8939Z" fill="currentColor" />
<path d="M47.3494 31.8939V16.0481H49.126V30.1011H56.5765V31.8939H47.3494Z" fill="currentColor" />
<path d="M67.3508 15.3542L72.5088 24.0289L67.3508 32.7036L75.9475 24.0289L67.3508 15.3542Z" fill="currentColor" />
<path d="M84.5445 15.3542L75.9478 24.0289L84.5445 32.7036L79.3864 24.0289L84.5445 15.3542Z" fill="currentColor" />
<path d="M62.9953 16.0481H61.1614V31.8939H62.9953V16.0481Z" fill="currentColor" />
<path d="M90.3328 12H89.7024V36H90.3328V12Z" fill="currentColor" />
</g>
<g>
<path d="M113.601 31.8939H97.8979V16.0481H113.601V31.8939Z" fill="currentColor" class="fill-brand"/>
<path d="M107.062 23.9543L102.191 27.829L109.813 23.9543L102.133 20.1375L107.062 23.9543Z" fill="currentColor" class="fill-neutral" />
</g>
</svg>
