<svg viewBox="0 0 256 72" fill="none" xmlns="http://www.w3.org/2000/svg">
<path d="M72 0H0V72H72V0Z" fill="currentColor" class="fill-brand"/>
<path d="M19.4496 18.4778L54.2802 35.7978L19.4077 53.5199L41.8377 35.8512L19.4496 18.4778Z" fill="currentColor" class="fill-neutral"/>
<path d="M96.8128 53.8107L96.0076 51.4168H91.3721L90.556 53.8107H89L92.7214 43.1143H94.6474L98.3798 53.8107H96.8128ZM93.6899 44.6159L91.84 50.0566H95.5506L93.6899 44.6159Z" fill="currentColor" />
<path d="M103.07 44.3329C102.993 44.3329 102.852 44.3329 102.798 44.3655C102.602 44.4743 102.079 44.9205 102.069 45.149C102.069 45.2034 102.069 45.2578 102.069 45.3122V46.1283H104.223V47.4341H102.069V53.8214H100.676V47.4341H99.4135V46.1283H100.676V45.2687C100.676 44.8987 100.752 44.5396 100.959 44.2349C101.1 44.0391 101.546 43.5712 101.818 43.3753C102.166 43.1577 102.623 43.0271 103.059 43.0271H104.506V44.3329H103.07Z" fill="currentColor"/>
<path d="M109.881 44.3328C109.805 44.3328 109.664 44.3328 109.609 44.3654C109.413 44.4742 108.891 44.9204 108.88 45.1489C108.88 45.2033 108.88 45.2577 108.88 45.3121V46.1282H111.035V47.434H108.88V53.8213H107.487V47.434H106.225V46.1282H107.487V45.2686C107.487 44.8986 107.564 44.5395 107.77 44.2348C107.912 44.039 108.358 43.5711 108.63 43.3752C108.967 43.1467 109.435 43.0161 109.86 43.0161H111.307V44.3219H109.881V44.3328Z" fill="currentColor" />
<path d="M118.325 53.8104L118.238 53.2011C117.879 53.5166 117.335 53.9084 116.845 53.9084H115.278C114.854 53.9084 114.386 53.7778 114.071 53.5493C113.799 53.3534 113.374 52.9073 113.233 52.7114C113.015 52.4285 112.928 52.0694 112.928 51.6994V51.3621C112.928 50.9922 113.015 50.6331 113.233 50.3501C113.374 50.1543 113.799 49.7081 114.071 49.5123C114.386 49.2838 114.854 49.175 115.278 49.175H118.162V48.3044C118.162 48.25 118.162 48.163 118.108 48.0759C117.966 47.8474 117.629 47.5428 117.379 47.4122C117.302 47.3795 117.27 47.3578 117.161 47.3578H115.485C115.17 47.3578 114.843 47.7386 114.669 47.9671C114.582 48.0759 114.441 48.2827 114.441 48.2827L113.135 47.891C113.352 47.3795 113.94 46.6614 114.31 46.3893C114.647 46.1608 115.115 46.052 115.54 46.052H117.183C117.607 46.052 118.097 46.1826 118.412 46.4111C118.684 46.607 119.13 47.0531 119.272 47.249C119.49 47.5536 119.555 47.9236 119.555 48.2827V52.4176L119.696 53.8213H118.325V53.8104ZM118.162 50.4263H115.289C115.181 50.4263 115.126 50.4481 115.072 50.459C114.821 50.6004 114.462 50.9377 114.343 51.188C114.321 51.2207 114.31 51.2533 114.31 51.3621V51.6668C114.31 51.7756 114.332 51.8083 114.343 51.8409C114.462 52.0912 114.821 52.3958 115.072 52.5373C115.126 52.5591 115.181 52.5917 115.289 52.5917H116.791C116.867 52.5917 116.911 52.57 116.954 52.5591C117.259 52.4176 117.912 52.0259 118.162 51.6668V50.4263Z" fill="currentColor"/>
<path d="M121.818 44.5396V42.9509H123.418V44.5396H121.818ZM121.927 53.8106V46.1283H123.32V53.8106H121.927Z" fill="currentColor"/>
<path d="M130.523 48.283C130.328 47.913 129.903 47.3363 129.468 47.3363H128.51C128.14 47.3363 127.281 48.0327 127.107 48.3047V53.8107H125.714V47.5539L125.583 46.1285H126.954L127.041 46.7487C127.4 46.4114 127.934 46.0305 128.445 46.0305H129.424C129.849 46.0305 130.317 46.1393 130.632 46.3678C131.046 46.6508 131.612 47.3689 131.829 47.8804L130.523 48.283Z" fill="currentColor"/>
<path d="M139.098 53.5496C138.782 53.7781 138.314 53.9086 137.89 53.9086H136.127C135.703 53.9086 135.213 53.7781 134.898 53.5496C134.626 53.3537 134.18 52.8858 134.038 52.6899C133.82 52.407 133.733 52.0479 133.733 51.6671V48.2612C133.733 47.8912 133.82 47.5321 134.038 47.2492C134.18 47.0534 134.626 46.5855 134.898 46.3896C135.224 46.1611 135.703 46.0305 136.127 46.0305H137.912C138.336 46.0305 138.826 46.1611 139.141 46.3896C139.413 46.5855 139.86 47.0534 140.001 47.2492C140.219 47.5539 140.284 47.913 140.284 48.2612V50.5572H135.126V51.6235C135.126 51.7324 135.148 51.7868 135.159 51.8194C135.268 52.0153 135.583 52.3852 135.888 52.5376C135.964 52.5702 136.029 52.592 136.116 52.592H137.923C138.032 52.592 138.064 52.5702 138.14 52.5376C138.391 52.407 138.75 52.0588 138.869 51.8194L138.978 51.6235L140.284 52.0479C140.045 52.6029 139.544 53.2449 139.098 53.5496ZM138.891 48.3047C138.891 48.2721 138.891 48.1415 138.869 48.1089C138.739 47.8586 138.347 47.5213 138.097 47.4016C138.021 47.3689 137.988 47.3472 137.879 47.3472H136.116C136.062 47.3472 135.953 47.3689 135.899 47.4016C135.54 47.5974 135.279 47.8477 135.148 48.1089C135.126 48.1306 135.115 48.1959 135.115 48.3047V49.3058H138.88V48.3047H138.891Z" fill="currentColor"/>
<path d="M147.857 48.3264C147.64 47.9346 147.183 47.347 146.802 47.347H144.898C144.811 47.347 144.724 47.3688 144.68 47.3797C144.364 47.5429 144.212 47.717 144.038 47.989C144.005 48.0434 143.984 48.1087 143.984 48.2175V48.729C143.984 48.9248 144.158 49.1425 144.451 49.1533L147.411 49.371C148.369 49.4471 149.174 50.1762 149.174 51.1229V51.7322C149.174 52.1022 149.065 52.4395 148.858 52.7442C148.717 52.9618 148.336 53.3644 148.075 53.5494C147.738 53.7779 147.292 53.9085 146.867 53.9085H144.724C144.299 53.9085 143.853 53.7779 143.516 53.5494C143.102 53.2665 142.591 52.6245 142.308 52.0695L143.646 51.6234C143.82 51.9825 144.234 52.4395 144.484 52.5701C144.517 52.5919 144.604 52.6027 144.702 52.6027H146.856C147.226 52.6027 147.574 52.1892 147.749 51.9281C147.781 51.8737 147.803 51.7975 147.803 51.6996V51.112C147.803 50.9161 147.607 50.6985 147.324 50.6876L144.364 50.4917C143.396 50.4265 142.613 49.6865 142.613 48.7398V48.2284C142.613 47.8476 142.7 47.5102 142.917 47.2056C143.059 46.9879 143.44 46.5853 143.701 46.4003C144.038 46.1718 144.484 46.0413 144.909 46.0413H146.758C147.183 46.0413 147.629 46.1718 147.966 46.4003C148.391 46.705 148.891 47.3144 149.196 47.8802L147.857 48.3264Z" fill="currentColor" />
<path d="M97.6942 38.5331H94.3536L89.0217 22.3198H92.0576L96.0402 34.8769L100.055 22.3198H103.07L97.6942 38.5331Z" fill="currentColor" class="fill-highlight-on-reversed"/>
<path d="M106.53 38.5331V22.3198H109.381V38.5331H106.53Z" fill="currentColor" class="fill-highlight-on-reversed"/>
<path d="M124.974 36.1501C124.647 36.6397 123.559 37.7279 122.972 38.0434C122.536 38.2828 121.916 38.5331 121.339 38.5331H113.907V22.3198H121.339C121.851 22.3198 122.536 22.483 122.993 22.7768C123.592 23.125 124.626 24.2894 124.941 24.7573C125.289 25.2469 125.376 25.791 125.376 26.3024V34.6049C125.376 35.0946 125.3 35.6604 124.974 36.1501ZM121.154 35.8236C121.154 35.8236 121.318 35.8236 121.339 35.791C121.72 35.5734 122.536 34.8661 122.536 34.5396V26.3786C122.536 26.3786 122.536 26.3024 122.504 26.248C122.177 25.7039 121.633 25.2143 121.307 25.0511C121.285 25.0184 121.122 25.0184 121.067 25.0184H116.758V35.8127H121.154V35.8236Z" fill="currentColor" class="fill-highlight-on-reversed"/>
<path d="M129.903 38.5331V22.3198H140.099V25.0293H132.754V29.1207H139.588V31.8302H132.754V35.8127H140.099V38.5222H129.903V38.5331Z" fill="currentColor" class="fill-highlight-on-reversed"/>
<path d="M156.182 36.2264C155.833 36.6834 154.767 37.8477 154.201 38.1742C153.766 38.4462 153.091 38.6638 152.515 38.6638H148.391C147.792 38.6638 147.139 38.4462 146.704 38.1742C146.138 37.8477 145.05 36.6834 144.724 36.2264C144.408 35.7367 144.299 35.1927 144.299 34.6812V26.1938C144.299 25.6823 144.408 25.1383 144.734 24.6486C145.061 24.1916 146.149 23.0273 146.715 22.7008C147.15 22.4288 147.803 22.2112 148.401 22.2112H152.526C153.091 22.2112 153.777 22.4288 154.212 22.7008C154.778 23.0273 155.833 24.1916 156.193 24.6486C156.519 25.1383 156.628 25.6823 156.628 26.1938V34.6812C156.617 35.1927 156.508 35.7367 156.182 36.2264ZM147.15 34.6595C147.15 34.6595 147.15 34.7357 147.172 34.7683C147.498 35.258 148.064 35.7694 148.369 35.9326C148.423 35.9544 148.478 35.9544 148.499 35.9544H152.406C152.406 35.9544 152.482 35.9544 152.547 35.9326C152.841 35.7694 153.418 35.258 153.744 34.7683C153.777 34.7139 153.777 34.6595 153.777 34.6595V26.2808C153.777 26.2808 153.777 26.172 153.744 26.1502C153.418 25.6606 152.852 25.1165 152.547 24.9533C152.493 24.9315 152.438 24.9315 152.406 24.9315H148.499C148.499 24.9315 148.391 24.9315 148.369 24.9533C148.075 25.1165 147.498 25.6606 147.172 26.1502C147.15 26.2046 147.15 26.2808 147.15 26.2808V34.6595Z" fill="currentColor" class="fill-highlight-on-reversed"/>
<path d="M166.486 25.0293V38.5331H163.635V25.0293H159.239V22.3198H170.871V25.0293H166.486Z" fill="currentColor" class="fill-highlight-on-reversed"/>
<path d="M185.496 30.1C185.257 30.4482 184.408 31.2643 184.027 31.5364C183.809 31.6996 183.57 31.8302 183.32 31.9172L186.552 38.5331H183.461L180.447 32.1348H177.324V38.5331H174.473V22.3198H182.09C182.743 22.3198 183.472 22.5375 184.016 22.9183C184.397 23.1903 185.235 24.0608 185.485 24.409C185.812 24.8987 185.975 25.4972 185.975 26.063V28.446C185.986 29.0445 185.823 29.6104 185.496 30.1ZM183.135 26.0848C183.135 26.0848 183.135 25.9433 183.102 25.8998C182.939 25.606 182.504 25.0619 182.232 25.0293H177.324V29.4254H182.101C182.341 29.4254 182.885 28.9139 183.102 28.5331C183.102 28.5331 183.135 28.4787 183.135 28.4243V26.0848Z" fill="currentColor" class="fill-highlight-on-reversed"/>
<path d="M202.079 36.2264C201.731 36.6834 200.665 37.8477 200.099 38.1742C199.664 38.4462 198.989 38.6638 198.412 38.6638H194.288C193.69 38.6638 193.037 38.4462 192.602 38.1742C192.036 37.8477 190.948 36.6834 190.621 36.2264C190.295 35.7367 190.186 35.1927 190.186 34.6812V26.1938C190.186 25.6823 190.295 25.1383 190.621 24.6486C190.948 24.1916 192.036 23.0273 192.602 22.7008C193.037 22.4288 193.69 22.2112 194.288 22.2112H198.412C198.978 22.2112 199.664 22.4288 200.099 22.7008C200.665 23.0273 201.72 24.1916 202.079 24.6486C202.406 25.1383 202.515 25.6823 202.515 26.1938V34.6812C202.515 35.1927 202.406 35.7367 202.079 36.2264ZM193.048 34.6595C193.048 34.6595 193.048 34.7357 193.08 34.7683C193.407 35.258 193.973 35.7694 194.277 35.9326C194.332 35.9544 194.386 35.9544 194.419 35.9544H198.325C198.325 35.9544 198.412 35.9544 198.467 35.9326C198.761 35.7694 199.337 35.258 199.664 34.7683C199.696 34.7139 199.696 34.6595 199.696 34.6595V26.2808C199.696 26.2808 199.696 26.172 199.664 26.1502C199.337 25.6606 198.771 25.1165 198.467 24.9533C198.412 24.9315 198.358 24.9315 198.325 24.9315H194.419C194.419 24.9315 194.31 24.9315 194.277 24.9533C193.984 25.1165 193.407 25.6606 193.08 26.1502C193.048 26.2046 193.048 26.2808 193.048 26.2808V34.6595Z" fill="currentColor" class="fill-highlight-on-reversed"/>
<path d="M215.202 38.5331L209.587 27.7714V38.5331H206.737V22.3198H209.805L215.366 33.223V22.3198H218.216V38.5331H215.202Z" fill="currentColor" class="fill-highlight-on-reversed"/>
<path d="M138.858 18H135.757L133.701 20.6551H136.29L138.858 18Z" fill="current color"/>
</svg>
