<svg width="211" height="72" viewBox="0 0 211 72" fill="none" xmlns="http://www.w3.org/2000/svg">
  <path d="M108.739 51.5864H113.882V27.7458H108.739V51.5864ZM108.739 25.1476H113.892V20H108.73L108.739 25.1476Z" fill="currentColor" class="fill-highlight-on-reversed"/>
  <path d="M138.521 51.5864H143.663V27.7458H138.521V51.5864ZM138.521 25.1476H143.668V20H138.516L138.521 25.1476Z" fill="currentColor" class="fill-highlight-on-reversed"/>
  <path d="M123.827 20.0146H118.626V51.567H123.827V20.0146Z" fill="currentColor" class="fill-highlight-on-reversed"/>
  <path d="M48.3448 20.0146H43.1437V51.567H48.3448V20.0146Z" fill="currentColor" class="fill-highlight-on-reversed"/>
  <path d="M133.772 20.0146H128.571V51.567H133.772V20.0146Z" fill="currentColor" class="fill-highlight-on-reversed"/>
  <path d="M152.776 45.3198C153.229 45.9952 153.841 46.5498 154.557 46.9351C154.663 46.9876 154.776 47.0237 154.893 47.0421H160.522C161.077 47.0421 162.395 45.9912 162.726 45.5825C162.791 45.5141 162.848 45.4391 162.896 45.3587L167.407 46.7307C166.852 48.0639 164.653 50.0587 163.763 50.6717C162.64 51.3805 161.333 51.7395 160.006 51.7032H155.214C153.775 51.7187 152.363 51.3127 151.151 50.5355C150.151 49.7397 149.254 48.8229 148.48 47.806C147.786 46.8095 147.434 45.6141 147.478 44.4002V34.9369C147.434 33.7231 147.786 32.5279 148.48 31.5311C149.17 30.5724 149.989 29.7129 150.913 28.9768C152.195 28.1414 153.684 27.6766 155.214 27.6339H160.298C161.727 27.6843 163.114 28.127 164.307 28.9135C165.613 29.8652 166.671 31.1167 167.392 32.5626L162.629 34.0222C162.533 33.8878 162.428 33.7609 162.313 33.6427C161.982 33.2535 161.009 32.4701 160.449 32.4701H154.893C154.776 32.4896 154.662 32.5273 154.557 32.5821C153.841 32.9655 153.23 33.5184 152.776 34.1925C152.7 34.3606 152.662 34.5433 152.664 34.7277V44.984C152.671 45.1039 152.71 45.2199 152.776 45.3198Z" fill="currentColor" class="fill-highlight-on-reversed"/>
  <path d="M25.3118 45.3198C25.765 45.9952 26.3763 46.5498 27.0926 46.9351C27.1984 46.9876 27.3116 47.0237 27.4283 47.0421H33.0479C33.6074 47.0421 34.9211 45.9912 35.2568 45.5825C35.3183 45.5128 35.3736 45.4379 35.4222 45.3587L39.9373 46.7307C39.3729 48.0833 37.1786 50.0781 36.2883 50.6912C35.1647 51.4006 33.8555 51.7597 32.5273 51.7227H27.7348C26.2982 51.7409 24.8877 51.3384 23.6771 50.5647C22.6745 49.7702 21.7755 48.8533 21.0011 47.8352C20.3098 46.8373 19.9599 45.6425 20.0037 44.4294V34.9369C19.9606 33.7239 20.3104 32.5293 21.0011 31.5311C21.6903 30.5716 22.509 29.712 23.4338 28.9768C24.7142 28.1406 26.2013 27.6758 27.73 27.6339H32.8241C34.2509 27.6852 35.6362 28.1279 36.8283 28.9135C38.1397 29.8645 39.2041 31.1157 39.9325 32.5626L35.1643 34.0222C35.0698 33.8884 34.9657 33.7616 34.853 33.6427C34.5172 33.2535 33.5442 32.4701 32.9895 32.4701H27.4283C27.3112 32.4896 27.1979 32.5273 27.0926 32.5821C26.3765 32.9655 25.7651 33.5184 25.3118 34.1925C25.2358 34.3606 25.1976 34.5433 25.1999 34.7277V44.984C25.2066 45.1039 25.2452 45.2199 25.3118 45.3198Z" fill="currentColor" class="fill-highlight-on-reversed"/>
  <path d="M175.308 45.2126C175.308 45.6992 176.525 46.5506 177.225 46.9545C177.337 46.9985 177.456 47.0184 177.576 47.0129H182.928C183.049 46.9995 183.167 46.9615 183.273 46.9009C183.798 46.609 185.136 45.6797 185.195 45.2126V34.6303C185.196 34.5111 185.176 34.3925 185.136 34.28C184.631 33.5342 183.977 32.9013 183.215 32.4214C183.127 32.3749 183.027 32.3546 182.928 32.363H177.576C177.475 32.354 177.373 32.3742 177.284 32.4214C176.509 32.8831 175.852 33.5196 175.367 34.28C175.327 34.3925 175.307 34.5111 175.308 34.6303V45.2126ZM189.418 47.913C188.657 48.9019 187.776 49.7926 186.796 50.5646C185.609 51.3267 184.226 51.7242 182.816 51.708H177.687C176.296 51.724 174.931 51.326 173.766 50.5646C172.77 49.7886 171.874 48.8913 171.1 47.8935C170.437 46.9183 170.11 45.7531 170.17 44.5753V34.786C170.11 33.6067 170.436 32.4398 171.1 31.4629C171.877 30.4838 172.773 29.6046 173.766 28.8453C174.927 28.0699 176.291 27.6536 177.687 27.6484H182.806C184.224 27.6514 185.61 28.0673 186.796 28.8453C187.771 29.6074 188.648 30.4865 189.408 31.4629C190.071 32.4401 190.395 33.6071 190.333 34.786V44.5899C190.395 45.7672 190.07 46.9324 189.408 47.9081" fill="currentColor" class="fill-highlight-on-reversed"/>
  <path d="M66.4443 51.5816V50.4771C65.4712 51.1875 64.6246 51.8005 63.3693 51.8005H59.5451C58.1367 51.8166 56.7546 51.4191 55.57 50.6571C54.5893 49.8796 53.7099 48.9823 52.9524 47.986C52.278 47.0123 51.9366 45.8466 51.9794 44.6629V28.0426H57.161V45.0716C57.1559 45.2003 57.174 45.3289 57.2146 45.4511C57.6898 46.119 58.3018 46.6779 59.0099 47.0908C59.106 47.1403 59.2133 47.1638 59.3213 47.1589H63.2136C63.7586 47.1589 65.7193 46.2588 66.4297 45.4949V28.0426H71.6406V51.5816H66.4443Z" fill="currentColor" class="fill-highlight-on-reversed"/>
  <path d="M95.2232 48.1319C94.4664 49.1271 93.5888 50.0244 92.6105 50.803C91.452 51.588 90.0835 52.0052 88.6841 51.9999H84.6507C83.3467 51.9999 82.4028 51.3528 81.42 50.5889V51.7274H76.2529V20.1605H81.4589V29.1567C82.3786 28.4246 83.4978 27.9871 84.6701 27.9014H88.7036C90.0966 27.8862 91.4629 28.2841 92.63 29.0448C93.6086 29.8231 94.4863 30.7204 95.2427 31.7159C95.9147 32.7108 96.2553 33.8926 96.2158 35.0925V44.7261C96.2481 45.9371 95.9011 47.1279 95.2232 48.1319ZM91.1557 35.1801C91.1567 35.0866 91.1385 34.9939 91.1022 34.9076C90.6524 34.1949 90.0592 33.5835 89.3604 33.1123C89.3069 33.0539 89.1415 33.0539 88.976 33.0539H85.2151C84.5631 33.0539 82.1839 34.027 81.4395 35.4866V44.8283C82.145 45.6457 84.6215 47.1588 85.2151 47.1588H89.0296C89.1464 47.1479 89.2593 47.1113 89.3604 47.0518C90.0573 46.6005 90.6509 46.0069 91.1022 45.3099C91.1423 45.2044 91.1605 45.0919 91.1557 44.9791V35.1801Z" fill="currentColor" class="fill-highlight-on-reversed"/>
</svg>
