<svg version="1.1" id="Calque_1" xmlns="http://www.w3.org/2000/svg" x="0" y="0" viewBox="0 0 116.5 72" xml:space="preserve"><style>.st2{fill:#f79e1b}</style><path fill="#ff5f00" d="M40.9 7.7h34.7v56.6H40.9z"/><path d="M44.5 36c0-11 5.1-21.5 13.8-28.3C42.6-4.6 20-1.9 7.7 13.8S-1.9 52 13.8 64.3c13.1 10.3 31.4 10.3 44.5 0-8.7-6.8-13.8-17.2-13.8-28.3z" fill="#eb001b"/><path class="st2" d="M113.1 58.3v-1.2h.5v-.2h-1.2v.2h.5v1.2h.2zm2.3 0v-1.4h-.4l-.4 1-.4-1h-.4v1.4h.3v-1.1l.4.9h.3l.4-.9v1.1h.2zM116.5 36c0 19.9-16.1 36-36 36-8.1 0-15.9-2.7-22.2-7.7 15.6-12.3 18.3-34.9 6-50.5-1.8-2.3-3.8-4.3-6.1-6.1 15.6-12.3 38.3-9.6 50.6 6.1 5 6.3 7.7 14.1 7.7 22.2z"/></svg>