<svg xmlns="http://www.w3.org/2000/svg" viewBox="0 0 114.2 36.9"><linearGradient id="a" gradientUnits="userSpaceOnUse" x1="7.5909" y1="75.9147" x2="7.6306" y2="75.4596" gradientTransform="matrix(256 0 0 82.6684 -1891.2096 -6238.1392)"><stop offset="0" stop-color="#222357"/><stop offset="1" stop-color="#254aa5"/></linearGradient><path d="M59.1 11.8c-.1 5.1 4.6 8 8.1 9.7 3.6 1.7 4.8 2.9 4.8 4.4 0 2.4-2.9 3.5-5.5 3.5-4.6.1-7.3-1.3-9.5-2.3L55.3 35c2.2 1 6.1 1.9 10.3 1.9 9.7 0 16-4.8 16.1-12.2 0-9.4-13-9.9-12.9-14.1 0-1.3 1.2-2.6 3.9-3 1.3-.2 5-.3 9.1 1.6l1.6-7.6C81.1.8 78.2 0 74.7 0c-9.2 0-15.6 4.8-15.6 11.8M98.9.7c-1.8 0-3.3 1-3.9 2.6l-13.9 33h9.7l1.9-5.3h11.8l1.1 5.3h8.5L106.7.6h-7.8m1.3 9.7l2.8 13.4h-7.7l4.9-13.4M47.3.7l-7.6 35.7h9.2L56.5.7h-9.2M33.7.7L24.1 25 20.2 4.3C19.7 2 17.9.7 15.9.7H.2l-.2 1c3.2.7 6.9 1.8 9.1 3 1.4.7 1.7 1.4 2.2 3.1l7.4 28.5h9.8L43.5.6h-9.8" fill="url(#a)"/></svg>