<svg width="24" height="24" viewBox="0 0 24 24" fill="none" xmlns="http://www.w3.org/2000/svg">
<path fill-rule="evenodd" clip-rule="evenodd" d="M1.83514 4.27797C1.559 4.27797 1.33514 4.50183 1.33514 4.77797V11.6813C1.33514 11.9575 1.559 12.1813 1.83514 12.1813H4.09783V14.6075C4.09783 14.8117 4.222 14.9954 4.41148 15.0715C4.60096 15.1476 4.81768 15.1008 4.95892 14.9534L7.614 12.1813H13.9169C14.193 12.1813 14.4169 11.9575 14.4169 11.6813V4.77797C14.4169 4.50183 14.193 4.27797 13.9169 4.27797H1.83514ZM2.33514 11.1813V5.27797H13.4169V11.1813H7.40056C7.26421 11.1813 7.13378 11.237 7.03947 11.3355L5.09783 13.3627V11.6813C5.09783 11.4052 4.87397 11.1813 4.59783 11.1813H2.33514ZM15.5 7.72799C15.2238 7.72799 15 7.95185 15 8.22799C15 8.50413 15.2238 8.72799 15.5 8.72799H21.7016V16.0127H19.4423C19.1661 16.0127 18.9423 16.2366 18.9423 16.5127V18.1557L16.9937 16.1631C16.8996 16.0669 16.7707 16.0127 16.6362 16.0127H10.6199V13.5C10.6199 13.2239 10.396 13 10.1199 13C9.84371 13 9.61985 13.2239 9.61985 13.5V16.5127C9.61985 16.7889 9.84371 17.0127 10.1199 17.0127H16.4258L19.0848 19.7318C19.2269 19.8771 19.4428 19.9219 19.631 19.8452C19.8192 19.7684 19.9423 19.5854 19.9423 19.3822V17.0127H22.2016C22.4777 17.0127 22.7016 16.7889 22.7016 16.5127V8.22799C22.7016 7.95185 22.4777 7.72799 22.2016 7.72799H15.5Z" fill="#050504"/>
<rect x="4" y="7" width="5" height="1" rx="0.5" fill="#050504"/>
<rect x="12" y="10" width="5" height="1" rx="0.5" transform="rotate(-180 12 10)" fill="#050504"/>
<rect x="10" y="7" width="2" height="1" rx="0.5" fill="#050504"/>
<rect x="15" y="11" width="2" height="1" rx="0.5" fill="#050504"/>
<rect x="12" y="13" width="2" height="1" rx="0.5" fill="#050504"/>
<rect x="18" y="11" width="2" height="1" rx="0.5" fill="#050504"/>
<rect x="15" y="13" width="5" height="1" rx="0.5" fill="#050504"/>
<rect x="6" y="10" width="2" height="1" rx="0.5" transform="rotate(-180 6 10)" fill="#050504"/>
</svg>
